g Libel_Paper03
v 0.06467201 0.0679602 -0.2128989
v 0.01959114 0.004557495 -0.00132431
v 0.002769241 0.02017822 -0.005927734
v 0.09446815 0.03601471 -0.2067757
v -0.04135872 0.06744354 0.2115147
v -0.01142418 0.04422302 0.2229622
v -0.08032036 0.05932312 0.1991083
v -0.01780022 0.02048279 -0.01173492
v 0.01582207 0.03861023 -0.2218071
v 0.05336235 0.04712066 -0.207691
v 0.1080392 -0.002771606 -0.2086348
v 0.0283181 -0.02041321 -0.004614868
v 0.02983559 -0.04127228 -0.008235626
v 0.09180717 -0.04651428 -0.2153352
v 0.0002924347 0.005753173 0.227317
v -0.01997276 -0.0330658 0.225146
v -0.03855583 -0.007888183 -0.01560913
v -0.004720077 0.01039307 -0.2265919
v -0.002396164 -0.02844726 -0.227317
v -0.03957741 -0.02758179 -0.01449295
v -0.1080392 -0.007169799 0.2019142
v -0.1038039 0.03153534 0.1968329
v -0.01898842 -0.05181946 -0.0124089
v 0.01824928 -0.05266418 -0.2254385
v 0.05452217 -0.0679599 -0.2075063
v -0.00744957 -0.06271728 -0.0004063415
v -0.0588398 -0.05467071 0.2168787
v -0.08931022 -0.03737396 0.2070471
v 0.05452217 -0.0679599 -0.2075063
v -0.00744957 -0.06271728 -0.0004063415
v -0.0588398 -0.05467071 0.2168787
v 0.1080392 -0.002771606 -0.2086348
v 0.05452217 -0.0679599 -0.2075063
v 0.09180717 -0.04651428 -0.2153352
v -0.002396164 -0.02844726 -0.227317
v 0.01824928 -0.05266418 -0.2254385
v 0.01582207 0.03861023 -0.2218071
v -0.004720077 0.01039307 -0.2265919
v 0.05336235 0.04712066 -0.207691
v 0.06467201 0.0679602 -0.2128989
v 0.09446815 0.03601471 -0.2067757
v -0.01997276 -0.0330658 0.225146
v -0.01142418 0.04422302 0.2229622
v 0.0002924347 0.005753173 0.227317
v -0.04135872 0.06744354 0.2115147
v -0.1038039 0.03153534 0.1968329
v -0.08032036 0.05932312 0.1991083
v -0.08931022 -0.03737396 0.2070471
v -0.1080392 -0.007169799 0.2019142
v -0.0588398 -0.05467071 0.2168787
vt 0.7318712 0.3037938
vt 0.730188 0.3509097
vt 0.7355949 0.3501492
vt 0.725383 0.3046275
vt 0.7373768 0.3965112
vt 0.7300184 0.3975368
vt 0.7431189 0.396031
vt 0.7410144 0.3494485
vt 0.7392236 0.3026003
vt 0.7323929 0.3037092
vt 0.720144 0.3051357
vt 0.7219262 0.3517719
vt 0.7187299 0.3519709
vt 0.7137752 0.3055973
vt 0.7237023 0.3981123
vt 0.716078 0.398522
vt 0.7494675 0.3487313
vt 0.7463247 0.3018673
vt 0.7536733 0.3014461
vt 0.7528148 0.3486123
vt 0.7531964 0.3959429
vt 0.7480062 0.3958669
vt 0.7557874 0.3486247
vt 0.7566841 0.3014798
vt 0.7673893 0.3023611
vt 0.7612245 0.3488784
vt 0.7637557 0.3958527
vt 0.7553159 0.3959443
vt 0.7112181 0.3059112
vt 0.7160231 0.3522862
vt 0.713564 0.3985949
vt 0.3189261 0.2680329
vt 0.2929757 0.2816691
vt 0.299635 0.2816971
vt 0.2678468 0.2571192
vt 0.2695203 0.263906
vt 0.2907142 0.225084
vt 0.2753427 0.2363409
vt 0.3155725 0.2251882
vt 0.3174708 0.2251961
vt 0.325139 0.2521764
vt 0.2996537 0.2816838
vt 0.3250202 0.2517582
vt 0.3188772 0.2680675
vt 0.3174708 0.2251961
vt 0.275633 0.2355364
vt 0.2906298 0.2250837
vt 0.2695203 0.2639059
vt 0.2677355 0.2574278
vt 0.2929757 0.2816691
vn -0.0238592 0.8316697 -0.5547577
vn 0.825875 0.5301293 0.1920764
vn 0.3403321 0.9381723 0.06329823
vn 0.8204575 0.4759738 -0.3166995
vn 0.0406867 0.8419697 0.5379885
vn 0.4670196 0.516575 0.7176649
vn -0.5342125 0.7717897 0.3449024
vn -0.4204888 0.8968759 -0.1371226
vn -0.2954376 0.6962328 -0.6541992
vn -0.3637657 0.5508699 -0.7511437
vn 0.8941484 0.001893009 -0.4477667
vn 0.9587227 0.1557072 0.2379203
vn 0.8335351 -0.498897 0.2373203
vn 0.5364078 -0.4274415 -0.7277091
vn 0.6540847 -0.01359894 0.756299
vn 0.3696785 -0.4959244 0.785746
vn -0.9212294 0.3109856 -0.2337186
vn -0.6196905 0.2519456 -0.7433083
vn -0.5729056 -0.2926572 -0.765592
vn -0.9162948 -0.3378527 -0.2150804
vn -0.8468383 -0.112441 0.5198289
vn -0.8533443 0.3560983 0.3807855
vn -0.6629323 -0.7340284 -0.1473875
vn -0.09489708 -0.4725205 -0.8761957
vn 0.1838903 -0.857432 -0.4806191
vn -0.06679394 -0.9977036 0.01122717
vn -0.1665273 -0.7492132 0.6410524
vn -0.6783713 -0.5105808 0.5283178
vn 0.1838903 -0.857432 -0.4806191
vn -0.06679394 -0.9977036 0.01122717
vn -0.1665273 -0.7492132 0.6410524
vn 0.8941484 0.001893009 -0.4477667
vn 0.1838903 -0.857432 -0.4806191
vn 0.5364078 -0.4274415 -0.7277091
vn -0.5729056 -0.2926572 -0.765592
vn -0.09489708 -0.4725205 -0.8761957
vn -0.2954376 0.6962328 -0.6541992
vn -0.6196905 0.2519456 -0.7433083
vn -0.3637657 0.5508699 -0.7511437
vn -0.0238592 0.8316697 -0.5547577
vn 0.8204575 0.4759738 -0.3166995
vn 0.3696785 -0.4959244 0.785746
vn 0.4670196 0.516575 0.7176649
vn 0.6540847 -0.01359894 0.756299
vn 0.0406867 0.8419697 0.5379885
vn -0.8533443 0.3560983 0.3807855
vn -0.5342125 0.7717897 0.3449024
vn -0.6783713 -0.5105808 0.5283178
vn -0.8468383 -0.112441 0.5198289
vn -0.1665273 -0.7492132 0.6410524
g Libel_Paper03_0
f 3/3/3 2/2/2 1/1/1
f 4/4/4 1/1/1 2/2/2
f 3/3/3 5/5/5 2/2/2
f 6/6/6 2/2/2 5/5/5
f 5/5/5 3/3/3 7/7/7
f 8/8/8 7/7/7 3/3/3
f 8/8/8 3/3/3 9/9/9
f 10/10/10 9/9/9 3/3/3
f 1/1/1 10/10/10 3/3/3
f 4/4/4 2/2/2 11/11/11
f 12/12/12 11/11/11 2/2/2
f 2/2/2 6/6/6 12/12/12
f 12/12/12 13/13/13 11/11/11
f 14/14/14 11/11/11 13/13/13
f 12/12/12 15/15/15 13/13/13
f 15/15/15 12/12/12 6/6/6
f 16/16/16 13/13/13 15/15/15
f 8/8/8 9/9/9 17/17/17
f 18/18/18 17/17/17 9/9/9
f 18/18/18 19/19/19 17/17/17
f 20/20/20 17/17/17 19/19/19
f 20/20/20 21/21/21 17/17/17
f 22/22/22 17/17/17 21/21/21
f 17/17/17 22/22/22 8/8/8
f 7/7/7 8/8/8 22/22/22
f 20/20/20 19/19/19 23/23/23
f 24/24/24 23/23/23 19/19/19
f 24/24/24 25/25/25 23/23/23
f 26/26/26 23/23/23 25/25/25
f 26/26/26 27/27/27 23/23/23
f 28/28/28 23/23/23 27/27/27
f 23/23/23 28/28/28 20/20/20
f 21/21/21 20/20/20 28/28/28
f 14/14/14 13/13/13 29/29/29
f 30/30/30 29/29/29 13/13/13
f 13/13/13 16/16/16 30/30/30
f 31/31/31 30/30/30 16/16/16
f 34/34/34 33/33/33 32/32/32
f 33/33/33 35/35/35 32/32/32
f 36/36/36 35/35/35 33/33/33
f 35/35/35 37/37/37 32/32/32
f 38/38/38 37/37/37 35/35/35
f 37/37/37 39/39/39 32/32/32
f 39/39/39 40/40/40 32/32/32
f 40/40/40 41/41/41 32/32/32
f 44/44/44 43/43/43 42/42/42
f 43/43/43 45/45/45 42/42/42
f 45/45/45 46/46/46 42/42/42
f 47/47/47 46/46/46 45/45/45
f 46/46/46 48/48/48 42/42/42
f 49/49/49 48/48/48 46/46/46
f 48/48/48 50/50/50 42/42/42
