g Libel_MagicBook04
v 0.09986644 0.1284097 0.1582414
v 0.1099997 -0.1392392 -0.1521945
v 0.1008318 -0.1331522 0.1552724
v 0.1090713 0.1397897 -0.1493005
v -0.1098239 0.1284442 0.1492476
v 0.1008318 -0.1331522 0.1552724
v -0.1099997 -0.1339883 0.1503505
v 0.09986644 0.1284097 0.1582414
v 0.1099997 -0.1392392 -0.1521945
v -0.1099997 -0.1339883 0.1503505
v 0.1008318 -0.1331522 0.1552724
v -0.1088308 -0.1398248 -0.157144
v 0.1090713 0.1397897 -0.1493005
v -0.1098239 0.1284442 0.1492476
v -0.1086564 0.1398248 -0.1582414
v 0.09986644 0.1284097 0.1582414
vt 0.5930606 0.4777897
vt 0.5292791 0.4324692
vt 0.5292791 0.4777897
vt 0.5930606 0.4326474
vt 0.5930606 0.5186028
vt 0.5292791 0.4777897
vt 0.5292791 0.5186028
vt 0.5930606 0.4777897
vt 0.5278643 0.3873785
vt 0.5703465 0.4260712
vt 0.5703465 0.3873785
vt 0.5278643 0.4260712
vt 0.5278643 0.3873785
vt 0.5703465 0.4260712
vt 0.5278643 0.4260712
vt 0.5703465 0.3873785
vn 0.5561929 0.5627049 0.6115658
vn 0.7033992 -0.7099449 0.03475406
vn 0.5637589 -0.5704536 0.5972928
vn 0.6962865 0.7161997 0.04736115
vn -0.0246536 0.7006621 0.7130672
vn 0.5637589 -0.5704536 0.5972928
vn -0.01413734 -0.7040502 0.7100093
vn 0.5561929 0.5627049 0.6115658
vn 0.7033992 -0.7099449 0.03475406
vn -0.01413734 -0.7040502 0.7100093
vn 0.5637589 -0.5704536 0.5972928
vn 0.002246281 -0.9998173 0.01898586
vn 0.6962865 0.7161997 0.04736115
vn -0.0246536 0.7006621 0.7130672
vn -0.001357527 0.999315 0.03698095
vn 0.5561929 0.5627049 0.6115658
g Libel_MagicBook04_0
f 3/3/3 2/2/2 1/1/1
f 4/4/4 1/1/1 2/2/2
f 7/7/7 6/6/6 5/5/5
f 8/8/8 5/5/5 6/6/6
f 11/11/11 10/10/10 9/9/9
f 12/12/12 9/9/9 10/10/10
f 15/15/15 14/14/14 13/13/13
f 16/16/16 13/13/13 14/14/14
