g Libel_Stair_Side
v 2.420563 -0.112579 -0.1732896
v 2.467466 -0.170965 -0.2172081
v 2.467462 -0.1715002 0.2172044
v 2.420563 -0.1125793 0.1803032
v 0.02099213 0.8653876 -0.1732936
v 1.862435 -0.1123178 -0.1732936
v 1.862435 -0.1123178 0.1802992
v 0.02099213 0.8653876 0.1802992
v -1.82045 1.843093 -0.1732936
v -1.82045 1.843093 0.1802992
v -2.415055 1.843093 0.1802992
v -2.415055 1.843092 -0.1732936
v -1.82045 1.789467 0.2172044
v -1.82045 1.843093 0.1802992
v 0.02099213 0.8653876 0.1802992
v 0.02165359 0.8091137 0.2172044
v -1.82045 1.843093 0.1802992
v -1.82045 1.789467 0.2172044
v -2.467468 1.789467 0.2172044
v -2.415055 1.843093 0.1802992
v -1.82045 1.789392 -0.2172121
v 0.02165558 0.8093445 -0.2172121
v 0.02099213 0.8653876 -0.1732936
v -1.82045 1.843093 -0.1732936
v -2.415055 1.843092 -0.1732936
v -2.467468 1.789392 -0.2172121
v -1.82045 1.789392 -0.2172121
v -1.82045 1.843093 -0.1732936
v -2.467468 1.789467 0.2172044
v -2.467468 1.789392 -0.2172121
v -2.415055 1.843092 -0.1732936
v -2.415055 1.843093 0.1802992
v 2.467451 -0.3125629 -0.2172081
v 2.467442 -0.3125629 0.2172044
v 2.467462 -0.1715002 0.2172044
v 2.467466 -0.170965 -0.2172081
v -1.82045 1.600269 0.2172044
v -1.82045 1.789467 0.2172044
v 0.02165359 0.8091137 0.2172044
v 0.02164413 0.6438531 0.2172044
v -2.467468 1.789467 0.2172044
v -2.467468 1.600269 0.2172044
v 1.863762 -0.1707034 -0.2172121
v 0.02165558 0.8093445 -0.2172121
v 0.02164795 0.6438531 -0.2172121
v 1.863746 -0.3125629 -0.2172121
v 2.467451 -0.3125629 -0.2172081
v 2.467466 -0.170965 -0.2172081
v -2.467468 1.600269 -0.2172121
v -1.82045 1.600269 -0.2172121
v -1.82045 1.789392 -0.2172121
v -2.467468 1.789392 -0.2172121
v 0.02165558 0.8093445 -0.2172121
v 0.02164795 0.6438531 -0.2172121
v -2.467468 1.600269 0.2172044
v -2.467468 1.600269 -0.2172121
v -2.467468 1.789392 -0.2172121
v -2.467468 1.789467 0.2172044
v 1.862435 -0.1123178 0.1802992
v 1.862435 -0.1123178 -0.1732936
v 2.420563 -0.112579 -0.1732896
v 2.420563 -0.1125793 0.1803032
v 1.862435 -0.1123178 -0.1732936
v 1.863762 -0.1707034 -0.2172121
v 2.467466 -0.170965 -0.2172081
v 2.420563 -0.112579 -0.1732896
v 1.863739 -0.3125629 0.2172044
v 1.863757 -0.1712387 0.2172044
v 2.467462 -0.1715002 0.2172044
v 2.467442 -0.3125629 0.2172044
v 0.02164413 0.6438531 0.2172044
v 0.02165359 0.8091137 0.2172044
v 1.863757 -0.1712387 0.2172044
v 1.862435 -0.1123178 0.1802992
v 2.420563 -0.1125793 0.1803032
v 2.467462 -0.1715002 0.2172044
v 2.467451 -0.3125629 -0.2172081
v 2.467451 -1.843093 -0.2172078
v 2.467442 -1.843093 0.2172044
v 2.467442 -0.3125629 0.2172044
v 0.02164795 0.6438531 -0.2172121
v -1.82045 1.600269 -0.2172121
v -1.82045 0.06973907 -0.2172118
v 0.02164795 -0.8866771 -0.2172118
v -2.467468 1.600269 -0.2172121
v -2.467468 0.06973907 -0.2172118
v -2.467468 1.600269 0.2172044
v -2.467468 0.06973907 0.2172044
v -2.467468 0.06973907 -0.2172118
v -2.467468 1.600269 -0.2172121
v 1.863746 -0.3125629 -0.2172121
v 1.863746 -1.843093 -0.2172118
v 2.467451 -1.843093 -0.2172078
v 2.467451 -0.3125629 -0.2172081
v 0.02164795 -0.8866771 -0.2172118
v 0.02164795 0.6438531 -0.2172121
v -1.82045 1.843093 -0.1732936
v 0.02099213 0.8653876 -0.1732936
v 0.02099213 0.8653876 0.1802992
v -1.82045 1.843093 0.1802992
v 0.02165359 0.8091137 0.2172044
v 0.02099213 0.8653876 0.1802992
v 1.862435 -0.1123178 0.1802992
v 1.863757 -0.1712387 0.2172044
v 1.862435 -0.1123178 -0.1732936
v 0.02099213 0.8653876 -0.1732936
v 0.02165558 0.8093445 -0.2172121
v 1.863762 -0.1707034 -0.2172121
v 0.02164413 0.6438531 0.2172044
v 0.02164795 -0.8866771 0.2172044
v -1.82045 0.06973938 0.2172044
v -1.82045 1.600269 0.2172044
v -2.467468 1.600269 0.2172044
v -2.467468 0.06973907 0.2172044
v 1.863739 -0.3125629 0.2172044
v 2.467442 -0.3125629 0.2172044
v 2.467442 -1.843093 0.2172044
v 1.863746 -1.843093 0.2172044
v 0.02164795 -0.8866771 0.2172044
v 0.02164413 0.6438531 0.2172044
vt 0.4080298 0.7172068
vt 0.4049328 0.7198426
vt 0.4316152 0.7195688
vt 0.4283563 0.7169982
vt 0.4064161 0.5599255
vt 0.4076823 0.683337
vt 0.4280089 0.6831284
vt 0.4267426 0.5597169
vt 0.4280089 0.6831284
vt 0.4076823 0.683337
vt 0.4080298 0.7172068
vt 0.4283563 0.7169982
vt 0.4045585 0.683369
vt 0.4076823 0.683337
vt 0.4064161 0.5599255
vt 0.4033104 0.5617132
vt 0.4076823 0.683337
vt 0.4045585 0.683369
vt 0.4049328 0.7198426
vt 0.4080298 0.7172068
vt 0.431241 0.6830953
vt 0.4299859 0.5607682
vt 0.4267426 0.5597169
vt 0.4280089 0.6831284
vt 0.4283563 0.7169982
vt 0.4316152 0.7195688
vt 0.431241 0.6830953
vt 0.4280089 0.6831284
vt 0.4049328 0.7198426
vt 0.4316152 0.7195688
vt 0.4283563 0.7169982
vt 0.4080298 0.7172068
vt 0.4024209 0.7251401
vt 0.4346533 0.724307
vt 0.4316152 0.7195688
vt 0.4049328 0.7198426
vt 0.3944431 0.6823775
vt 0.4045585 0.683369
vt 0.4033104 0.5617132
vt 0.3932495 0.5660517
vt 0.4049328 0.7198426
vt 0.4024209 0.7251401
vt 0.4045585 0.683369
vt 0.4033104 0.5617132
vt 0.3932498 0.5660761
vt 0.3944431 0.6823804
vt 0.4024209 0.7251401
vt 0.4049328 0.7198426
vt 0.4346533 0.724307
vt 0.440909 0.6811004
vt 0.431241 0.6830953
vt 0.4316152 0.7195688
vt 0.4299859 0.5607682
vt 0.4397195 0.5651646
vt 0.4024209 0.7251401
vt 0.4346533 0.724307
vt 0.4316152 0.7195688
vt 0.4049328 0.7198426
vt 0.4280089 0.6831284
vt 0.4076823 0.683337
vt 0.4080298 0.7172068
vt 0.4283563 0.7169982
vt 0.4076823 0.683337
vt 0.4045585 0.683369
vt 0.4049328 0.7198426
vt 0.4080298 0.7172068
vt 0.440909 0.6811004
vt 0.431241 0.6830953
vt 0.4316152 0.7195688
vt 0.4346533 0.724307
vt 0.4397195 0.5651646
vt 0.4299859 0.5607682
vt 0.431241 0.6830953
vt 0.4280089 0.6831284
vt 0.4283563 0.7169982
vt 0.4316152 0.7195688
vt 0.8355229 0.03832797
vt 0.8355229 0.169524
vt 0.7822883 0.169524
vt 0.7822883 0.03832797
vt 0.9931216 0.1240484
vt 0.8355229 0.03832797
vt 0.8355229 0.169524
vt 0.9918699 0.2555387
vt 0.7822883 0.03832797
vt 0.7822883 0.169524
vt 0.7822883 0.03832797
vt 0.7822883 0.169524
vt 0.8355229 0.169524
vt 0.8355229 0.03832797
vt 0.8355229 0.169524
vt 0.8355229 0.03832797
vt 0.7822883 0.03832797
vt 0.7822883 0.169524
vt 0.9931216 0.1240484
vt 0.9918699 0.2555387
vt 0.4280089 0.6831284
vt 0.4267426 0.5597169
vt 0.4064161 0.5599255
vt 0.4076823 0.683337
vt 0.4299859 0.5607682
vt 0.4267426 0.5597169
vt 0.4280089 0.6831284
vt 0.431241 0.6830953
vt 0.4076823 0.683337
vt 0.4064161 0.5599255
vt 0.4033104 0.5617132
vt 0.4045585 0.683369
vt 0.9931216 0.1240484
vt 0.9918699 0.2555387
vt 0.8355229 0.169524
vt 0.8355229 0.03832797
vt 0.7822883 0.03832797
vt 0.7822883 0.169524
vt 0.8355229 0.169524
vt 0.7822883 0.169524
vt 0.7822883 0.03832797
vt 0.8355229 0.03832797
vt 0.9931216 0.1240484
vt 0.9918699 0.2555387
vn 0.7810228 0.6245024 0.0004286903
vn 0.7810227 0.6245024 0.0004286903
vn 0.7810227 0.6245024 0.0004286903
vn 0.7810227 0.6245024 0.0004286903
vn 0.4689454 0.8832272 0
vn 0.4689454 0.8832272 0
vn 0.4689454 0.8832272 0
vn 0.4689454 0.8832272 0
vn -5.132419E-07 1 -8.630711E-07
vn -5.132419E-07 1 -8.630711E-07
vn -5.132419E-07 1 -8.630711E-07
vn -5.132419E-07 1 -8.630711E-07
vn 0.2847307 0.5356422 0.7949943
vn 0.2847306 0.5356422 0.7949943
vn 0.2847307 0.5356422 0.7949943
vn 0.2847306 0.5356422 0.7949943
vn 0 0.5669154 0.8237761
vn 0 0.5669154 0.8237761
vn 0 0.5669154 0.8237761
vn 0 0.5669154 0.8237761
vn 0.315742 0.5940744 -0.7398531
vn 0.315742 0.5940743 -0.7398531
vn 0.315742 0.5940744 -0.7398531
vn 0.315742 0.5940744 -0.7398531
vn -6.222403E-07 0.6330794 -0.7740869
vn -6.222402E-07 0.6330793 -0.7740869
vn -6.222402E-07 0.6330793 -0.7740869
vn -6.222402E-07 0.6330793 -0.7740869
vn -0.7153863 0.6987291 -6.683697E-05
vn -0.7153863 0.6987291 -6.683696E-05
vn -0.7153863 0.6987291 -6.683697E-05
vn -0.7153863 0.6987291 -6.683697E-05
vn 1 -0.0001241603 1.50273E-05
vn 1 -0.0001241603 1.50273E-05
vn 1 -0.0001241603 1.502731E-05
vn 1 -0.0001241603 1.50273E-05
vn 0 0 1
vn 0 0 1
vn 0 0 1
vn 0 0 1
vn 0 0 1
vn 0 0 1
vn 0 0 -1
vn 0 0 -1
vn 0 0 -1
vn 0 0 -1
vn 6.571572E-06 0 -1
vn 6.571572E-06 0 -1
vn 0 0 -1
vn 0 0 -1
vn 0 0 -1
vn 0 0 -1
vn 0 0 -1
vn 0 0 -1
vn -1 0 0
vn -1 0 0
vn -1 0 0
vn -1 0 0
vn 0.0004683209 0.9999999 4.315332E-07
vn 0.0004683209 0.9999999 4.315332E-07
vn 0.0004683209 0.9999999 4.315332E-07
vn 0.0004683209 0.9999999 4.315332E-07
vn 0.0002759697 0.6012034 -0.799096
vn 0.0002759697 0.6012033 -0.7990961
vn 0.0002759697 0.6012034 -0.799096
vn 0.0002759697 0.6012033 -0.7990961
vn 0 0 1
vn 0 0 1
vn 0 0 1
vn 0 0 1
vn 0 0 1
vn 0 0 1
vn 0.0002361103 0.5308714 0.8474523
vn 0.0002361103 0.5308714 0.8474523
vn 0.0002361103 0.5308714 0.8474523
vn 0.0002361103 0.5308714 0.8474523
vn 1 0 2.037257E-05
vn 1 0 2.037257E-05
vn 1 0 2.037257E-05
vn 1 0 2.037257E-05
vn -1.035243E-07 -1.993922E-07 -1
vn -1.035243E-07 -1.993922E-07 -1
vn -1.035243E-07 -1.993922E-07 -1
vn -1.035243E-07 -1.993922E-07 -1
vn 0 -1.993922E-07 -1
vn 0 -1.993922E-07 -1
vn -1 0 0
vn -1 0 0
vn -1 0 0
vn -1 0 0
vn 6.571571E-06 -1.993922E-07 -1
vn 6.571571E-06 -1.993922E-07 -1
vn 6.571571E-06 -1.993922E-07 -1
vn 6.571571E-06 -1.993922E-07 -1
vn -1.035243E-07 -1.993922E-07 -1
vn -1.035243E-07 -1.993922E-07 -1
vn 0.4689454 0.8832272 0
vn 0.4689454 0.8832272 0
vn 0.4689454 0.8832272 0
vn 0.4689454 0.8832272 0
vn 0.2773291 0.5217186 0.8067827
vn 0.2773291 0.5217184 0.8067827
vn 0.2773292 0.5217186 0.8067827
vn 0.2773291 0.5217184 0.8067827
vn 0.3095284 0.5823833 -0.7516794
vn 0.3095284 0.5823832 -0.7516794
vn 0.3095284 0.5823832 -0.7516794
vn 0.3095283 0.5823833 -0.7516794
vn 0 0 1
vn 0 0 1
vn 0 0 1
vn 0 0 1
vn 0 0 1
vn 0 0 1
vn 0 0 1
vn 0 0 1
vn 0 0 1
vn 0 0 1
vn 0 0 1
vn 0 0 1
g Libel_Stair_Side_0
f 3/3/3 2/2/2 1/1/1
f 4/4/4 3/3/3 1/1/1
f 7/7/7 6/6/6 5/5/5
f 8/8/8 7/7/7 5/5/5
f 11/11/11 10/10/10 9/9/9
f 12/12/12 11/11/11 9/9/9
f 15/15/15 14/14/14 13/13/13
f 16/16/16 15/15/15 13/13/13
f 19/19/19 18/18/18 17/17/17
f 20/20/20 19/19/19 17/17/17
f 23/23/23 22/22/22 21/21/21
f 24/24/24 23/23/23 21/21/21
f 27/27/27 26/26/26 25/25/25
f 28/28/28 27/27/27 25/25/25
f 31/31/31 30/30/30 29/29/29
f 32/32/32 31/31/31 29/29/29
f 35/35/35 34/34/34 33/33/33
f 36/36/36 35/35/35 33/33/33
f 39/39/39 38/38/38 37/37/37
f 40/40/40 39/39/39 37/37/37
f 38/38/38 41/41/41 37/37/37
f 41/41/41 42/42/42 37/37/37
f 45/45/45 44/44/44 43/43/43
f 46/46/46 45/45/45 43/43/43
f 47/47/47 46/46/46 43/43/43
f 48/48/48 47/47/47 43/43/43
f 51/51/51 50/50/50 49/49/49
f 52/52/52 51/51/51 49/49/49
f 51/51/51 53/53/53 50/50/50
f 53/53/53 54/54/54 50/50/50
f 57/57/57 56/56/56 55/55/55
f 58/58/58 57/57/57 55/55/55
f 61/61/61 60/60/60 59/59/59
f 62/62/62 61/61/61 59/59/59
f 65/65/65 64/64/64 63/63/63
f 66/66/66 65/65/65 63/63/63
f 69/69/69 68/68/68 67/67/67
f 70/70/70 69/69/69 67/67/67
f 67/67/67 68/68/68 71/71/71
f 68/68/68 72/72/72 71/71/71
f 75/75/75 74/74/74 73/73/73
f 76/76/76 75/75/75 73/73/73
f 79/79/79 78/78/78 77/77/77
f 80/80/80 79/79/79 77/77/77
f 83/83/83 82/82/82 81/81/81
f 84/84/84 83/83/83 81/81/81
f 82/82/82 83/83/83 85/85/85
f 83/83/83 86/86/86 85/85/85
f 89/89/89 88/88/88 87/87/87
f 90/90/90 89/89/89 87/87/87
f 93/93/93 92/92/92 91/91/91
f 94/94/94 93/93/93 91/91/91
f 92/92/92 95/95/95 91/91/91
f 95/95/95 96/96/96 91/91/91
f 99/99/99 98/98/98 97/97/97
f 100/100/100 99/99/99 97/97/97
f 103/103/103 102/102/102 101/101/101
f 104/104/104 103/103/103 101/101/101
f 107/107/107 106/106/106 105/105/105
f 108/108/108 107/107/107 105/105/105
f 111/111/111 110/110/110 109/109/109
f 112/112/112 111/111/111 109/109/109
f 111/111/111 112/112/112 113/113/113
f 114/114/114 111/111/111 113/113/113
f 117/117/117 116/116/116 115/115/115
f 118/118/118 117/117/117 115/115/115
f 119/119/119 118/118/118 115/115/115
f 120/120/120 119/119/119 115/115/115
