g Libel_Fence_Steel_Short_02
v 0.05449096 0.05066905 0.01982174
v 0.05263641 0.08496037 0.01915488
v 0.05060104 0.08496037 -0.02366782
v 0.05238403 0.05066905 -0.02450754
v 0.01888168 0.08496037 -0.05250881
v 0.01954865 0.04351218 -0.05436324
v -0.02394089 0.08496037 -0.05047349
v -0.02478058 0.05066905 -0.0522563
v -0.05278183 0.08496037 -0.01875409
v -0.05463623 0.05066905 -0.01942094
v 0.03186722 0.0990553 0.01168607
v 0.03063385 0.0990553 -0.01426295
v 0.01141296 0.1026166 -0.03173956
v -0.01453598 0.0990553 -0.03050623
v -0.03201248 0.0990553 -0.01128541
v 0.0727362 0.04060279 0.02638291
v 0.06992477 0.0406029 -0.03276959
v 0.02752548 0.04060292 -0.07209955
v -0.0330426 0.04060292 -0.06979724
v -0.07288177 0.04060279 -0.02598207
v 0.07406799 3.032684E-06 0.02686176
v 0.07120498 3.156662E-06 -0.03337254
v 0.02658859 3.175735E-06 -0.07394019
v -0.03364578 3.156662E-06 -0.07107735
v -0.07421341 3.032684E-06 -0.02646088
v -0.05463623 0.05066905 -0.01942094
v -0.05278183 0.08496037 -0.01875409
v -0.05074661 0.08496037 0.0240686
v -0.05252929 0.05066911 0.02490833
v -0.0190271 0.08496037 0.05290963
v -0.01969406 0.05066899 0.05476407
v 0.02379562 0.08496037 0.05087429
v 0.02463531 0.05066911 0.05265709
v 0.05263641 0.08496037 0.01915488
v 0.05449096 0.05066905 0.01982174
v -0.03201248 0.0990553 -0.01128541
v -0.03077926 0.0990553 0.01466361
v -0.01155823 0.0990553 0.03214024
v 0.01439072 0.0990553 0.03090691
v 0.03186722 0.0990553 0.01168607
v -0.07288177 0.04060279 -0.02598207
v -0.07007034 0.04060279 0.03317041
v -0.02625534 0.04060277 0.07300954
v 0.03289719 0.04060277 0.07019803
v 0.0727362 0.04060279 0.02638291
v -0.07421341 3.032684E-06 -0.02646088
v -0.0713504 3.023147E-06 0.03377341
v -0.02673416 3.013611E-06 0.07434117
v 0.03350021 3.023147E-06 0.07147823
v 0.07406799 3.032684E-06 0.02686176
v 0.03186722 0.0990553 0.01168607
v 0.0351239 1.011187 0.01262985
v 0.03376755 1.011187 -0.01590601
v 0.03063385 0.0990553 -0.01426295
v 0.01266708 1.014667 -0.03522633
v 0.01141296 0.1026166 -0.03173956
v -0.01590515 1.011187 -0.03376858
v -0.01453598 0.0990553 -0.03050623
v -0.03512405 1.011187 -0.01263164
v -0.03201248 0.0990553 -0.01128541
v -0.03201248 0.0990553 -0.01128541
v -0.03512405 1.011187 -0.01263164
v -0.0337677 1.011187 0.01590423
v -0.03077926 0.0990553 0.01466361
v -0.01263092 1.011187 0.03512308
v -0.01155823 0.0990553 0.03214024
v 0.01590485 1.011187 0.0337668
v 0.01439072 0.0990553 0.03090691
v 0.0351239 1.011187 0.01262985
v 0.03186722 0.0990553 0.01168607
v 0.03376755 1.011187 -0.01590601
v 0.0351239 1.011187 0.01262985
v 0.05749344 1.043631 0.02067332
v 0.05527328 1.043631 -0.02603601
v 0.01266708 1.014667 -0.03522633
v 0.02067505 1.043631 -0.0574947
v -0.01590515 1.011187 -0.03376858
v -0.02603439 1.043631 -0.05527464
v -0.03512405 1.011187 -0.01263164
v -0.05749298 1.043631 -0.02067632
v -0.0337677 1.011187 0.01590423
v -0.03512405 1.011187 -0.01263164
v -0.05749298 1.043631 -0.02067632
v -0.05527298 1.043631 0.02603305
v -0.01263092 1.011187 0.03512308
v -0.02067459 1.043631 0.0574917
v 0.01590485 1.011187 0.0337668
v 0.0260347 1.043631 0.05527166
v 0.0351239 1.011187 0.01262985
v 0.05749344 1.043631 0.02067332
v 0.05749344 1.043631 0.02067332
v 0.02762405 1.06843 -0.0003567472
v 0.05527328 1.043631 -0.02603601
v -0.0003730774 1.064124 -0.02735837
v 0.02067505 1.043631 -0.0574947
v -0.02603439 1.043631 -0.05527464
v -0.02762436 1.06843 0.0003548177
v -0.05749298 1.043631 -0.02067632
v -0.05749298 1.043631 -0.02067632
v -0.02762436 1.06843 0.0003548177
v -0.05527298 1.043631 0.02603305
v 0.0003741455 1.064124 0.02735642
v -0.02067459 1.043631 0.0574917
v 0.0260347 1.043631 0.05527166
v 0.02762405 1.06843 -0.0003567472
v 0.05749344 1.043631 0.02067332
v 0.02762405 1.06843 -0.0003567472
v 0.09968612 1.145993 -0.001285126
v -0.001347809 1.144611 -0.09872498
v -0.0003730774 1.064124 -0.02735837
v -0.09968521 1.145993 0.001282652
v -0.02762436 1.06843 0.0003548177
v -0.02762436 1.06843 0.0003548177
v -0.09968521 1.145993 0.001282652
v 0.001349182 1.14461 0.09872074
v 0.0003741455 1.064124 0.02735642
v 0.09968612 1.145993 -0.001285126
v 0.02762405 1.06843 -0.0003567472
v 0.06497223 1.190839 -0.0008376457
v 6.103515E-07 1.342309 -1.095859E-06
v -0.0008782959 1.190839 -0.06434533
v -0.06497116 1.190839 0.0008359439
v -0.001347809 1.144611 -0.09872498
v 0.09968612 1.145993 -0.001285126
v -0.09968521 1.145993 0.001282652
v -0.06497116 1.190839 0.0008359439
v 0.0008795166 1.191102 0.06434321
v 0.06497223 1.190839 -0.0008376457
v 0.001349182 1.14461 0.09872074
v -0.09968521 1.145993 0.001282652
v 0.09968612 1.145993 -0.001285126
vt 0.1686323 0.601252
vt 0.1688612 0.5986199
vt 0.1542379 0.592653
vt 0.1522667 0.5944516
vt 0.1482392 0.5780424
vt 0.1454664 0.5780424
vt 0.1545987 0.5634317
vt 0.1522666 0.5616331
vt 0.1689513 0.5578255
vt 0.1686322 0.5548325
vt 0.1688886 0.5918021
vt 0.1590569 0.5877744
vt 0.1549883 0.5780424
vt 0.1590569 0.5683104
vt 0.1688885 0.5642825
vt 0.1685359 0.6077645
vt 0.147612 0.5990017
vt 0.1389742 0.5780424
vt 0.1476119 0.5570828
vt 0.1685358 0.5483201
vt 0.1681711 0.6107189
vt 0.1455047 0.6010239
vt 0.1360658 0.5780424
vt 0.1455046 0.5550608
vt 0.1681709 0.5453656
vt 0.1686314 0.601252
vt 0.1688606 0.5986199
vt 0.1542372 0.592653
vt 0.152266 0.5944516
vt 0.1482383 0.5780424
vt 0.1454657 0.5780424
vt 0.154598 0.5634317
vt 0.1522659 0.5616329
vt 0.1689507 0.5578255
vt 0.1686314 0.5548325
vt 0.1688879 0.5918021
vt 0.1590562 0.5877744
vt 0.1549876 0.5780424
vt 0.1590562 0.5683104
vt 0.1688878 0.5642825
vt 0.1685351 0.6077644
vt 0.1476112 0.5990017
vt 0.1389734 0.5780424
vt 0.1476112 0.5570828
vt 0.1685349 0.5483201
vt 0.1681703 0.6107188
vt 0.145504 0.6010239
vt 0.136065 0.5780424
vt 0.1455038 0.5550608
vt 0.1681702 0.5453656
vt 0.3002095 0.9409111
vt 0.4107774 0.9410427
vt 0.4107778 0.9344897
vt 0.300209 0.9345142
vt 0.4107811 0.9286818
vt 0.3002118 0.9280251
vt 0.4107774 0.9228955
vt 0.300209 0.9215359
vt 0.4107774 0.9150093
vt 0.3002094 0.9151389
vt 0.300201 0.9408136
vt 0.4107669 0.9410235
vt 0.4107667 0.9344552
vt 0.3002013 0.9344297
vt 0.4107632 0.9279662
vt 0.3001986 0.9279669
vt 0.4107667 0.9214771
vt 0.3002013 0.921504
vt 0.4107669 0.9149103
vt 0.300201 0.9151201
vt 0.245327 0.9165152
vt 0.254692 0.9155034
vt 0.2563202 0.902809
vt 0.2447113 0.9057757
vt 0.2339705 0.9171834
vt 0.2342271 0.9069573
vt 0.2232548 0.9165915
vt 0.2237953 0.905847
vt 0.2138981 0.9155942
vt 0.2123334 0.9029077
vt 0.2454001 0.9165628
vt 0.2547681 0.9155578
vt 0.2564089 0.9028625
vt 0.2448008 0.9058195
vt 0.2340629 0.9172689
vt 0.2343321 0.9069952
vt 0.223424 0.9166747
vt 0.2239127 0.9059244
vt 0.2140611 0.9157145
vt 0.2124423 0.9030324
vt 0.2563202 0.902809
vt 0.2442471 0.8935724
vt 0.2447113 0.9057757
vt 0.2305623 0.8949944
vt 0.2342271 0.9069573
vt 0.2237953 0.905847
vt 0.2191989 0.8904198
vt 0.2123334 0.9029077
vt 0.2564089 0.9028625
vt 0.244337 0.8936169
vt 0.2448008 0.9058195
vt 0.2306452 0.8950492
vt 0.2343321 0.9069952
vt 0.2239127 0.9059244
vt 0.2192623 0.8905166
vt 0.2124423 0.9030324
vt 0.1806083 0.8982023
vt 0.1903487 0.8858871
vt 0.1759507 0.8858871
vt 0.1760495 0.8982023
vt 0.1616395 0.8858871
vt 0.1726526 0.8982023
vt 0.1803653 0.8982023
vt 0.1901678 0.8858871
vt 0.1759507 0.8858871
vt 0.1760495 0.8982023
vt 0.161452 0.8858871
vt 0.1724078 0.8982023
vt 0.1834334 0.8760636
vt 0.1760495 0.8431677
vt 0.1760495 0.8760636
vt 0.1677482 0.8760636
vt 0.1759507 0.8858871
vt 0.1903487 0.8858871
vt 0.1616395 0.8858871
vt 0.1833069 0.8760636
vt 0.1760495 0.8760636
vt 0.1676181 0.8760636
vt 0.1759507 0.8858871
vt 0.1901678 0.8858871
vt 0.161452 0.8858871
vn 0.7479191 0.6068612 0.2689544
vn 0.834399 0.4623274 0.3000528
vn 0.8104345 0.4481608 -0.3772902
vn 0.6991277 0.629151 -0.3396901
vn 0.3031299 0.4444549 -0.8429543
vn 0.2394752 0.7008355 -0.6719236
vn -0.3845548 0.4481594 -0.8070135
vn -0.3219456 0.6281091 -0.7083996
vn -0.8343995 0.4623259 -0.300054
vn -0.7479181 0.6068623 -0.2689548
vn 0.5064704 0.8428035 0.1821265
vn 0.5158327 0.8235438 -0.2359923
vn 0.1939591 0.8194281 -0.5393677
vn -0.2474066 0.8235447 -0.5104548
vn -0.5064682 0.8428041 -0.1821294
vn 0.8229704 0.4849087 0.2959446
vn 0.7749535 0.5167887 -0.3638357
vn 0.2979215 0.5285861 -0.7948834
vn -0.3623318 0.5180365 -0.7748249
vn -0.8229704 0.4849094 -0.2959433
vn 0.9404349 0.03483595 0.3381843
vn 0.9052543 0.03092644 -0.4237429
vn 0.3342456 0.03490834 -0.9418393
vn -0.4236902 0.03865606 -0.904982
vn -0.9404352 0.03483337 -0.3381836
vn -0.7479181 0.6068623 -0.2689548
vn -0.8343995 0.4623259 -0.300054
vn -0.8021797 0.4623267 0.3778384
vn -0.7190384 0.6068617 0.3386779
vn -0.3000533 0.4623273 0.8343989
vn -0.2689546 0.6068631 0.7479175
vn 0.3778403 0.4623271 0.8021784
vn 0.3386801 0.6068605 0.7190383
vn 0.834399 0.4623274 0.3000528
vn 0.7479191 0.6068612 0.2689544
vn -0.5064682 0.8428041 -0.1821294
vn -0.4869099 0.8428056 0.2293416
vn -0.1821263 0.8428053 0.5064675
vn 0.2293441 0.842805 0.4869097
vn 0.5064704 0.8428035 0.1821265
vn -0.8229704 0.4849094 -0.2959433
vn -0.7911924 0.4849093 0.3726629
vn -0.295945 0.4849089 0.8229702
vn 0.3726639 0.4849087 0.7911922
vn 0.8229704 0.4849087 0.2959446
vn -0.9404352 0.03483337 -0.3381836
vn -0.9041208 0.03483228 0.4258548
vn -0.3381853 0.03483328 0.9404346
vn 0.4258556 0.03483491 0.9041203
vn 0.9404349 0.03483595 0.3381843
vn 0.9409802 -0.00370979 0.3384412
vn 0.9410188 -0.003709817 0.3383336
vn 0.8982943 -0.003907288 -0.4393769
vn 0.9127728 -0.003898955 -0.408449
vn 0.338387 -0.004005508 -0.9409985
vn 0.3383868 -0.004005508 -0.9409986
vn -0.4127534 -0.003906963 -0.9108345
vn -0.443613 -0.00389862 -0.89621
vn -0.9409801 -0.003709403 -0.3384415
vn -0.9410188 -0.003709377 -0.3383339
vn -0.9410188 -0.003709377 -0.3383339
vn -0.9409801 -0.003709403 -0.3384415
vn -0.9046811 -0.003543667 0.4260744
vn -0.9046468 -0.003543654 0.4261474
vn -0.3383877 -0.003475128 0.9410003
vn -0.3383878 -0.003475128 0.9410003
vn 0.4261471 -0.003543896 0.9046469
vn 0.4260741 -0.003543883 0.9046813
vn 0.9410188 -0.003709817 0.3383336
vn 0.9409802 -0.00370979 0.3384412
vn 0.7216408 -0.603363 -0.339393
vn 0.7590563 -0.5910361 0.2729648
vn 0.9185704 0.1562825 0.3630484
vn 0.8781478 0.1503892 -0.4541359
vn 0.2690915 -0.6063313 -0.7482995
vn 0.3398253 0.1590257 -0.9269464
vn -0.3402311 -0.6033618 -0.721247
vn -0.4172534 0.1598129 -0.8946282
vn -0.7590608 -0.5910339 -0.2729571
vn -0.9185671 0.1562847 -0.3630559
vn -0.7297528 -0.5910262 0.3437281
vn -0.7590608 -0.5910339 -0.2729571
vn -0.9185671 0.1562847 -0.3630559
vn -0.8806979 0.1568319 0.4469619
vn -0.2729653 -0.5910234 0.7590661
vn -0.3392779 0.1675808 0.9256388
vn 0.3437204 -0.5910277 0.729755
vn 0.4234335 0.1661777 0.8905555
vn 0.7590563 -0.5910361 0.2729648
vn 0.9185704 0.1562825 0.3630484
vn 0.9185704 0.1562825 0.3630484
vn 0.4507264 0.8926276 -0.007849975
vn 0.8781478 0.1503892 -0.4541359
vn -0.01064521 0.884746 -0.4659518
vn 0.3398253 0.1590257 -0.9269464
vn -0.4172534 0.1598129 -0.8946282
vn -0.4507271 0.8926272 0.007857757
vn -0.9185671 0.1562847 -0.3630559
vn -0.9185671 0.1562847 -0.3630559
vn -0.4507271 0.8926272 0.007857757
vn -0.8806979 0.1568319 0.4469619
vn 0.01065391 0.8847408 0.4659616
vn -0.3392779 0.1675808 0.9256388
vn 0.4234335 0.1661777 0.8905555
vn 0.4507264 0.8926276 -0.007849975
vn 0.9185704 0.1562825 0.3630484
vn 0.7455391 -0.6663862 -0.0100418
vn 0.7455418 -0.6663863 -0.009841351
vn -0.009822899 -0.6778323 -0.7351509
vn -0.009582533 -0.6778323 -0.7351541
vn -0.7455429 -0.6663849 0.009840917
vn -0.7455401 -0.6663851 0.01005075
vn -0.7455401 -0.6663851 0.01005075
vn -0.7455429 -0.6663849 0.009840917
vn 0.009826999 -0.6778241 0.7351583
vn 0.009588822 -0.6778241 0.7351615
vn 0.7455418 -0.6663863 -0.009841351
vn 0.7455391 -0.6663862 -0.0100418
vn 0.8473127 0.5309694 -0.01151646
vn -2.701433E-06 1 -0.0002193655
vn -0.01121365 0.5256321 -0.850638
vn -0.8473176 0.5309703 0.01110521
vn -0.01065271 0.6013508 -0.7989141
vn 0.7947543 0.6068413 -0.01046036
vn -0.794753 0.6068424 0.01049431
vn -0.8473176 0.5309703 0.01110521
vn 0.01122009 0.5250412 0.8510028
vn 0.8473127 0.5309694 -0.01151646
vn 0.01066399 0.6004564 0.7995865
vn -0.794753 0.6068424 0.01049431
vn 0.7947543 0.6068413 -0.01046036
g Libel_Fence_Steel_Short_02_0
f 3/3/3 2/2/2 1/1/1
f 4/4/4 3/3/3 1/1/1
f 5/5/5 3/3/3 4/4/4
f 6/6/6 5/5/5 4/4/4
f 7/7/7 5/5/5 6/6/6
f 8/8/8 7/7/7 6/6/6
f 9/9/9 7/7/7 8/8/8
f 10/10/10 9/9/9 8/8/8
f 11/11/11 2/2/2 3/3/3
f 12/12/12 11/11/11 3/3/3
f 12/12/12 3/3/3 5/5/5
f 13/13/13 12/12/12 5/5/5
f 13/13/13 5/5/5 7/7/7
f 14/14/14 13/13/13 7/7/7
f 14/14/14 7/7/7 9/9/9
f 15/15/15 14/14/14 9/9/9
f 1/1/1 16/16/16 4/4/4
f 16/16/16 17/17/17 4/4/4
f 4/4/4 17/17/17 6/6/6
f 17/17/17 18/18/18 6/6/6
f 6/6/6 18/18/18 19/19/19
f 8/8/8 6/6/6 19/19/19
f 8/8/8 19/19/19 10/10/10
f 19/19/19 20/20/20 10/10/10
f 16/16/16 21/21/21 17/17/17
f 21/21/21 22/22/22 17/17/17
f 17/17/17 22/22/22 18/18/18
f 22/22/22 23/23/23 18/18/18
f 18/18/18 23/23/23 19/19/19
f 23/23/23 24/24/24 19/19/19
f 19/19/19 24/24/24 20/20/20
f 24/24/24 25/25/25 20/20/20
f 28/28/28 27/27/27 26/26/26
f 29/29/29 28/28/28 26/26/26
f 30/30/30 28/28/28 29/29/29
f 31/31/31 30/30/30 29/29/29
f 32/32/32 30/30/30 31/31/31
f 33/33/33 32/32/32 31/31/31
f 34/34/34 32/32/32 33/33/33
f 35/35/35 34/34/34 33/33/33
f 36/36/36 27/27/27 28/28/28
f 37/37/37 36/36/36 28/28/28
f 37/37/37 28/28/28 30/30/30
f 38/38/38 37/37/37 30/30/30
f 38/38/38 30/30/30 32/32/32
f 39/39/39 38/38/38 32/32/32
f 39/39/39 32/32/32 34/34/34
f 40/40/40 39/39/39 34/34/34
f 26/26/26 41/41/41 29/29/29
f 41/41/41 42/42/42 29/29/29
f 29/29/29 42/42/42 31/31/31
f 42/42/42 43/43/43 31/31/31
f 31/31/31 43/43/43 33/33/33
f 43/43/43 44/44/44 33/33/33
f 33/33/33 44/44/44 35/35/35
f 44/44/44 45/45/45 35/35/35
f 41/41/41 46/46/46 42/42/42
f 46/46/46 47/47/47 42/42/42
f 42/42/42 47/47/47 43/43/43
f 47/47/47 48/48/48 43/43/43
f 43/43/43 48/48/48 44/44/44
f 48/48/48 49/49/49 44/44/44
f 44/44/44 49/49/49 45/45/45
f 49/49/49 50/50/50 45/45/45
f 53/53/53 52/52/52 51/51/51
f 54/54/54 53/53/53 51/51/51
f 55/55/55 53/53/53 54/54/54
f 56/56/56 55/55/55 54/54/54
f 57/57/57 55/55/55 56/56/56
f 58/58/58 57/57/57 56/56/56
f 59/59/59 57/57/57 58/58/58
f 60/60/60 59/59/59 58/58/58
f 63/63/63 62/62/62 61/61/61
f 64/64/64 63/63/63 61/61/61
f 65/65/65 63/63/63 64/64/64
f 66/66/66 65/65/65 64/64/64
f 67/67/67 65/65/65 66/66/66
f 68/68/68 67/67/67 66/66/66
f 69/69/69 67/67/67 68/68/68
f 70/70/70 69/69/69 68/68/68
f 73/73/73 72/72/72 71/71/71
f 74/74/74 73/73/73 71/71/71
f 74/74/74 71/71/71 75/75/75
f 76/76/76 74/74/74 75/75/75
f 76/76/76 75/75/75 77/77/77
f 78/78/78 76/76/76 77/77/77
f 78/78/78 77/77/77 79/79/79
f 80/80/80 78/78/78 79/79/79
f 83/83/83 82/82/82 81/81/81
f 84/84/84 83/83/83 81/81/81
f 84/84/84 81/81/81 85/85/85
f 86/86/86 84/84/84 85/85/85
f 86/86/86 85/85/85 87/87/87
f 88/88/88 86/86/86 87/87/87
f 88/88/88 87/87/87 89/89/89
f 90/90/90 88/88/88 89/89/89
f 93/93/93 92/92/92 91/91/91
f 94/94/94 92/92/92 93/93/93
f 95/95/95 94/94/94 93/93/93
f 96/96/96 94/94/94 95/95/95
f 97/97/97 94/94/94 96/96/96
f 98/98/98 97/97/97 96/96/96
f 101/101/101 100/100/100 99/99/99
f 102/102/102 100/100/100 101/101/101
f 103/103/103 102/102/102 101/101/101
f 104/104/104 102/102/102 103/103/103
f 105/105/105 102/102/102 104/104/104
f 106/106/106 105/105/105 104/104/104
f 109/109/109 108/108/108 107/107/107
f 110/110/110 109/109/109 107/107/107
f 111/111/111 109/109/109 110/110/110
f 112/112/112 111/111/111 110/110/110
f 115/115/115 114/114/114 113/113/113
f 116/116/116 115/115/115 113/113/113
f 117/117/117 115/115/115 116/116/116
f 118/118/118 117/117/117 116/116/116
f 121/121/121 120/120/120 119/119/119
f 122/122/122 120/120/120 121/121/121
f 121/121/121 119/119/119 123/123/123
f 119/119/119 124/124/124 123/123/123
f 121/121/121 123/123/123 125/125/125
f 122/122/122 121/121/121 125/125/125
f 127/127/127 120/120/120 126/126/126
f 128/128/128 120/120/120 127/127/127
f 127/127/127 126/126/126 129/129/129
f 126/126/126 130/130/130 129/129/129
f 127/127/127 129/129/129 131/131/131
f 128/128/128 127/127/127 131/131/131
