g Libel_Box01
v -0.1285211 0.1933086 -0.1148412
v 0.1303021 0.1918529 0.1213719
v -0.1304219 0.191017 0.1176732
v 0.1309199 0.1942088 -0.1184209
v 0.1374454 0.2123353 0.128564
v -0.1391008 0.2114305 0.126577
v -0.1353659 0.2138808 -0.1214964
v 0.1377923 0.214828 -0.1252315
v 0.2068654 0.211743 0.2120108
v 0.2075156 0.2138133 -0.2093343
v -0.2096955 0.2124084 -0.2078202
v -0.2103459 0.2103383 0.2135249
v 0.2068654 0.211743 0.2120108
v 0.210953 -0.2113197 -0.213525
v 0.2102962 -0.2134099 0.2098592
v 0.2075156 0.2138133 -0.2093343
v -0.2096955 0.2124084 -0.2078202
v -0.2109531 -0.214828 0.2113925
v -0.2102966 -0.2127373 -0.2119927
v -0.2103459 0.2103383 0.2135249
v 0.2068654 0.211743 0.2120108
v -0.2109531 -0.214828 0.2113925
v -0.2103459 0.2103383 0.2135249
v 0.2102962 -0.2134099 0.2098592
v 0.2075156 0.2138133 -0.2093343
v -0.2102966 -0.2127373 -0.2119927
v 0.210953 -0.2113197 -0.213525
v -0.2096955 0.2124084 -0.2078202
v 0.2102962 -0.2134099 0.2098592
v -0.2102966 -0.2127373 -0.2119927
v -0.2109531 -0.214828 0.2113925
v 0.210953 -0.2113197 -0.213525
vt 0.8180573 0.1014137
vt 0.7767398 0.1421231
vt 0.8180573 0.1421231
vt 0.7767398 0.1014137
vt 0.774301 0.1446438
vt 0.8205897 0.1446438
vt 0.8205897 0.0991102
vt 0.774301 0.0991102
vt 0.7624894 0.1599825
vt 0.7624894 0.08368011
vt 0.8326824 0.08368011
vt 0.8326824 0.1599825
vt 0.7624894 0.08368011
vt 0.8326824 0.007355696
vt 0.7624894 0.007355696
vt 0.8326824 0.08368011
vt 0.7624894 0.08368011
vt 0.8326824 0.007355696
vt 0.7624894 0.007355696
vt 0.8326824 0.08368011
vt 0.8326824 0.08368011
vt 0.7624894 0.007355696
vt 0.7624894 0.08368011
vt 0.8326824 0.007355696
vt 0.8326824 0.08368011
vt 0.7624894 0.007355696
vt 0.8326824 0.007355696
vt 0.7624894 0.08368011
vt 0.8326824 0.08368011
vt 0.7624894 0.1599825
vt 0.7624894 0.08368011
vt 0.8326824 0.1599825
vn 0.4762945 0.7359741 0.4811298
vn -0.4689713 0.746002 -0.4728075
vn 0.4542499 0.7779944 -0.4340297
vn -0.4751284 0.7339901 0.4852952
vn -0.2059165 0.958958 -0.1949305
vn 0.182903 0.9667371 -0.1787903
vn 0.1976442 0.9571607 0.2116131
vn -0.1982309 0.958661 0.2041409
vn 0.5747634 0.576478 0.5807928
vn 0.5755959 0.5802702 -0.5761735
vn -0.5804556 0.577472 -0.5741057
vn -0.5777736 0.5724837 0.5817561
vn 0.5747634 0.576478 0.5807928
vn 0.7062784 0.01268481 -0.7078205
vn 0.7089155 0.00215124 0.7052902
vn 0.5755959 0.5802702 -0.5761735
vn -0.5804556 0.577472 -0.5741057
vn -0.7074613 -0.002540682 0.7067476
vn -0.707822 0.007935884 -0.7063463
vn -0.5777736 0.5724837 0.5817561
vn 0.5747634 0.576478 0.5807928
vn -0.7074613 -0.002540682 0.7067476
vn -0.5777736 0.5724837 0.5817561
vn 0.7089155 0.00215124 0.7052902
vn 0.5755959 0.5802702 -0.5761735
vn -0.707822 0.007935884 -0.7063463
vn 0.7062784 0.01268481 -0.7078205
vn -0.5804556 0.577472 -0.5741057
vn 0.003347089 -0.9999822 -0.004931486
vn 0.00334709 -0.9999822 -0.004931486
vn 0.003348523 -0.9999822 -0.004932915
vn 0.003347089 -0.9999822 -0.004931486
g Libel_Box01_0
f 3/3/3 2/2/2 1/1/1
f 4/4/4 1/1/1 2/2/2
f 2/2/2 3/3/3 5/5/5
f 6/6/6 5/5/5 3/3/3
f 1/1/1 7/7/7 3/3/3
f 6/6/6 3/3/3 7/7/7
f 1/1/1 4/4/4 7/7/7
f 5/5/5 8/8/8 2/2/2
f 4/4/4 2/2/2 8/8/8
f 8/8/8 7/7/7 4/4/4
f 5/5/5 9/9/9 8/8/8
f 10/10/10 8/8/8 9/9/9
f 8/8/8 10/10/10 7/7/7
f 11/11/11 7/7/7 10/10/10
f 7/7/7 11/11/11 6/6/6
f 12/12/12 6/6/6 11/11/11
f 9/9/9 5/5/5 12/12/12
f 6/6/6 12/12/12 5/5/5
f 15/15/15 14/14/14 13/13/13
f 16/16/16 13/13/13 14/14/14
f 19/19/19 18/18/18 17/17/17
f 20/20/20 17/17/17 18/18/18
f 23/23/23 22/22/22 21/21/21
f 24/24/24 21/21/21 22/22/22
f 27/27/27 26/26/26 25/25/25
f 28/28/28 25/25/25 26/26/26
f 31/31/31 30/30/30 29/29/29
f 32/32/32 29/29/29 30/30/30
