g Libel_Plate_02
v -1.999933 0.02419464 2.13623E-06
v -1.999927 0.0241951 -1.660801
v 0 0.02419495 2.13623E-06
v -1.662716 0.02419464 -1.998012
v 7.324219E-06 0.02419495 -1.999184
v 1.662727 0.02419495 -2.000348
v 1.999938 0.02419571 -1.663141
v 1.999934 0.02419495 3.356934E-06
v -1.999939 0.02419357 1.6608
v -1.66273 0.02419403 1.99801
v -4.882812E-06 0.02419434 1.999182
v 1.999927 0.02419418 1.663141
v 1.662717 0.02419434 2.000347
v -1.999927 -0.02419449 -1.660801
v -1.999927 0.0241951 -1.660801
v -1.999933 0.02419464 2.13623E-06
v -1.999933 -0.02419495 2.13623E-06
v -1.999939 -0.02419571 1.6608
v -1.999939 0.02419357 1.6608
v 7.324219E-06 -0.02419464 -1.999184
v 7.324219E-06 0.02419495 -1.999184
v -1.662716 0.02419464 -1.998012
v -1.662716 -0.02419464 -1.998012
v 1.662727 0.02419495 -2.000348
v 1.662727 -0.02419464 -2.000348
v -1.662716 -0.02419464 -1.998012
v -1.662716 0.02419464 -1.998012
v -1.999927 0.0241951 -1.660801
v -1.999927 -0.02419449 -1.660801
v 1.999934 0.02419495 3.356934E-06
v 1.999938 0.02419571 -1.663141
v 1.999938 -0.02419388 -1.663141
v 1.999934 -0.02419434 3.356934E-06
v 1.999927 -0.0241954 1.663141
v 1.999927 0.02419418 1.663141
v 1.999938 0.02419571 -1.663141
v 1.662727 0.02419495 -2.000348
v 1.662727 -0.02419464 -2.000348
v 1.999938 -0.02419388 -1.663141
v -4.882812E-06 -0.02419525 1.999182
v -1.66273 -0.02419556 1.99801
v -1.66273 0.02419403 1.99801
v -4.882812E-06 0.02419434 1.999182
v 1.662717 0.02419434 2.000347
v 1.662717 -0.02419525 2.000347
v -1.66273 -0.02419556 1.99801
v -1.999939 -0.02419571 1.6608
v -1.999939 0.02419357 1.6608
v -1.66273 0.02419403 1.99801
v 1.999927 0.02419418 1.663141
v 1.999927 -0.0241954 1.663141
v 1.662717 -0.02419525 2.000347
v 1.662717 0.02419434 2.000347
vt 0.007059369 0.6582845
vt 0.1205584 0.6582845
vt 0.007059369 0.5015745
vt 0.1423964 0.6318079
vt 0.1423964 0.5015745
vt 0.1423964 0.6318079
vt 0.1205584 0.6582845
vt 0.007059369 0.6582845
vt 0.1205584 0.6582845
vt 0.1423964 0.6318079
vt 0.1423964 0.5015745
vt 0.1205584 0.6582845
vt 0.1423964 0.6318079
vt 0.1259489 0.6633824
vt 0.1205584 0.6582845
vt 0.007059369 0.6582845
vt 0.007059369 0.6633824
vt 0.1259489 0.6633824
vt 0.1205584 0.6582845
vt 0.1480752 0.5015745
vt 0.1423964 0.5015745
vt 0.1423964 0.6318079
vt 0.1480752 0.6351202
vt 0.1423964 0.6318079
vt 0.1480752 0.6351202
vt 0.1480752 0.6351202
vt 0.1423964 0.6318079
vt 0.1205584 0.6582845
vt 0.1259489 0.6633824
vt 0.007059369 0.6582845
vt 0.1205584 0.6582845
vt 0.1259489 0.6633824
vt 0.007059369 0.6633824
vt 0.1259489 0.6633824
vt 0.1205584 0.6582845
vt 0.1205584 0.6582845
vt 0.1423964 0.6318079
vt 0.1480752 0.6351202
vt 0.1259489 0.6633824
vt 0.1480752 0.5015745
vt 0.1480752 0.6351202
vt 0.1423964 0.6318079
vt 0.1423964 0.5015745
vt 0.1423964 0.6318079
vt 0.1480752 0.6351202
vt 0.1480752 0.6351202
vt 0.1259489 0.6633824
vt 0.1205584 0.6582845
vt 0.1423964 0.6318079
vt 0.1205584 0.6582845
vt 0.1259489 0.6633824
vt 0.1480752 0.6351202
vt 0.1423964 0.6318079
vn -1.52593E-07 1 2.756273E-07
vn -1.52593E-07 1 2.756273E-07
vn -1.52593E-07 1 2.756273E-07
vn -1.835397E-07 1 0
vn -1.835397E-07 1 0
vn 0 1 0
vn 0 1 4.587332E-07
vn 0 1 4.587331E-07
vn -1.52593E-07 1 6.43133E-07
vn -1.837547E-07 1 3.053006E-07
vn -1.837547E-07 1 3.053006E-07
vn 0 1 4.58735E-07
vn 0 1 3.05301E-07
vn -1 0 -3.675039E-06
vn -1 0 -3.675039E-06
vn -1 0 -3.675039E-06
vn -1 0 -3.675039E-06
vn -1 0 -3.67505E-06
vn -1 0 -3.675049E-06
vn -0.0007047923 0 -0.9999998
vn -0.0007047923 0 -0.9999998
vn -0.0007047923 0 -0.9999998
vn -0.0007047923 0 -0.9999998
vn -0.0007000218 0 -0.9999998
vn -0.0007000218 0 -0.9999998
vn -0.7071074 0 -0.7071061
vn -0.7071074 0 -0.7071061
vn -0.7071074 0 -0.7071061
vn -0.7071074 0 -0.7071061
vn 1 0 2.201919E-06
vn 1 0 2.201919E-06
vn 1 0 2.201919E-06
vn 1 0 2.201919E-06
vn 1 0 4.403856E-06
vn 1 0 4.403856E-06
vn 0.707103 0 -0.7071106
vn 0.7071029 0 -0.7071106
vn 0.707103 0 -0.7071106
vn 0.7071029 0 -0.7071106
vn -0.0007046083 0 0.9999998
vn -0.0007046082 0 0.9999998
vn -0.0007046083 0 0.9999998
vn -0.0007046082 0 0.9999998
vn -0.000700755 0 0.9999998
vn -0.000700755 0 0.9999998
vn -0.7071071 0 0.7071065
vn -0.7071071 0 0.7071065
vn -0.7071071 0 0.7071065
vn -0.7071071 0 0.7071065
vn 0.7071028 0 0.7071106
vn 0.7071029 0 0.7071106
vn 0.7071028 0 0.7071106
vn 0.7071029 0 0.7071106
g Libel_Plate_02_0
f 3/3/3 2/2/2 1/1/1
f 4/4/4 2/2/2 3/3/3
f 5/5/5 4/4/4 3/3/3
f 6/6/6 5/5/5 3/3/3
f 7/7/7 6/6/6 3/3/3
f 7/7/7 3/3/3 8/8/8
f 9/9/9 3/3/3 1/1/1
f 9/9/9 10/10/10 3/3/3
f 10/10/10 11/11/11 3/3/3
f 3/3/3 12/12/12 8/8/8
f 11/11/11 13/13/13 3/3/3
f 13/13/13 12/12/12 3/3/3
f 16/16/16 15/15/15 14/14/14
f 17/17/17 16/16/16 14/14/14
f 16/16/16 17/17/17 18/18/18
f 19/19/19 16/16/16 18/18/18
f 22/22/22 21/21/21 20/20/20
f 23/23/23 22/22/22 20/20/20
f 20/20/20 21/21/21 24/24/24
f 25/25/25 20/20/20 24/24/24
f 28/28/28 27/27/27 26/26/26
f 29/29/29 28/28/28 26/26/26
f 32/32/32 31/31/31 30/30/30
f 33/33/33 32/32/32 30/30/30
f 34/34/34 33/33/33 30/30/30
f 35/35/35 34/34/34 30/30/30
f 38/38/38 37/37/37 36/36/36
f 39/39/39 38/38/38 36/36/36
f 42/42/42 41/41/41 40/40/40
f 43/43/43 42/42/42 40/40/40
f 43/43/43 40/40/40 44/44/44
f 40/40/40 45/45/45 44/44/44
f 48/48/48 47/47/47 46/46/46
f 49/49/49 48/48/48 46/46/46
f 52/52/52 51/51/51 50/50/50
f 53/53/53 52/52/52 50/50/50
