g Libel_MagicBook02
v -0.2232601 0.04084717 0.02963714
v 0.01897461 -0.04125427 -0.2243167
v 0.01891518 0.04069794 -0.2243753
v -0.2231781 -0.04118378 0.02971741
v 0.2145679 0.04085571 -0.03793121
v 0.2232601 0.0005184936 -0.02961426
v 0.01897461 -0.04125427 -0.2243167
v 0.2146384 -0.04117462 -0.03786469
v -0.02755699 0.04096374 0.2161288
v -0.01893822 0.0005401611 0.2243753
v -0.2232601 0.04084717 0.02963714
v -0.2231781 -0.04118378 0.02971741
v -0.02749321 -0.04112488 0.2161902
v -0.02755699 0.04096374 0.2161288
v 0.01891518 0.04069794 -0.2243753
v 0.2145679 0.04085571 -0.03793121
v -0.2232601 0.04084717 0.02963714
v -0.01893822 0.0005401611 0.2243753
v 0.2232601 0.0005184936 -0.02961426
v 0.2146384 -0.04117462 -0.03786469
v -0.02749321 -0.04112488 0.2161902
v -0.02749321 -0.04112488 0.2161902
v 0.01897461 -0.04125427 -0.2243167
v -0.2231781 -0.04118378 0.02971741
v 0.2146384 -0.04117462 -0.03786469
vt 0.6984829 0.320506
vt 0.6071854 0.3010376
vt 0.6071831 0.320506
vt 0.6984829 0.3010354
vt 0.6071835 0.3913644
vt 0.5976746 0.3925049
vt 0.5879156 0.320506
vt 0.5879156 0.3913644
vt 0.6071805 0.3913594
vt 0.5976721 0.3924998
vt 0.6071799 0.3205058
vt 0.5879138 0.3205058
vt 0.5879138 0.3913594
vt 0.6984829 0.3913644
vt 0.6071831 0.320506
vt 0.6071835 0.3913644
vt 0.6984829 0.320506
vt 0.6984829 0.4007044
vt 0.6071835 0.4007101
vt 0.6071805 0.3913594
vt 0.6984829 0.3913594
vt 0.6984829 0.3913644
vt 0.6071831 0.320506
vt 0.6984829 0.320506
vt 0.6071835 0.3913644
vn -0.8165313 0.5769857 0.01908443
vn -0.01926454 -0.577774 -0.8159693
vn -0.01983613 0.576793 -0.8166495
vn -0.8159934 -0.5777151 0.02000336
vn 0.7579345 0.6448207 -0.09869889
vn 0.9984647 0.004204306 0.05523287
vn -0.01926454 -0.577774 -0.8159693
vn 0.760376 -0.6424502 -0.09532119
vn -0.06092498 0.6447705 0.7619443
vn 0.1021416 0.003870534 0.9947624
vn -0.8165313 0.5769857 0.01908443
vn -0.8159934 -0.5777151 0.02000336
vn -0.05792708 -0.6423575 0.7642128
vn -0.06092498 0.6447705 0.7619443
vn -0.01983613 0.576793 -0.8166495
vn 0.7579345 0.6448207 -0.09869889
vn -0.8165313 0.5769857 0.01908443
vn 0.1021416 0.003870534 0.9947624
vn 0.9984647 0.004204306 0.05523287
vn 0.760376 -0.6424502 -0.09532119
vn -0.05792708 -0.6423575 0.7642128
vn -0.05792708 -0.6423575 0.7642128
vn -0.01926454 -0.577774 -0.8159693
vn -0.8159934 -0.5777151 0.02000336
vn 0.760376 -0.6424502 -0.09532119
g Libel_MagicBook02_0
f 3/3/3 2/2/2 1/1/1
f 4/4/4 1/1/1 2/2/2
f 6/6/6 3/3/3 5/5/5
f 7/7/7 3/3/3 6/6/6
f 6/6/6 8/8/8 7/7/7
f 11/11/11 10/10/10 9/9/9
f 12/12/12 10/10/10 11/11/11
f 13/13/13 10/10/10 12/12/12
f 16/16/16 15/15/15 14/14/14
f 17/17/17 14/14/14 15/15/15
f 14/14/14 18/18/18 16/16/16
f 19/19/19 16/16/16 18/18/18
f 19/19/19 18/18/18 20/20/20
f 21/21/21 20/20/20 18/18/18
f 24/24/24 23/23/23 22/22/22
f 25/25/25 22/22/22 23/23/23
