g Libel_Plants_Leaf_03
v -0.2882034 -0.1850937 0.5289353
v -0.2422946 -0.008245554 0.3243946
v 0.1338499 -0.05865264 0.4075394
v -0.1690997 -0.1821716 0.519832
v 0.0971991 -0.1908476 0.5281326
v -0.05821224 -0.2217851 0.591051
v -0.2422946 -0.008245554 0.3243946
v 0.08520416 0.2461041 -0.16355
v 0.1338499 -0.05865264 0.4075394
v 0.1338499 -0.05865264 0.4075394
v 0.08520416 0.2461041 -0.16355
v 0.3481885 0.05227167 0.003298035
v 0.3888885 -0.02437255 0.1465797
v -0.4631588 -0.06627893 0.1173704
v -0.4590209 0.0634335 -0.1263164
v -0.2815126 0.1220394 -0.06505477
v -0.2422946 -0.008245554 0.3243946
v -0.3744999 0.01826967 0.2786007
v -0.2815126 0.1220394 -0.06505477
v 0.08520416 0.2461041 -0.16355
v -0.2422946 -0.008245554 0.3243946
v -0.4590209 0.0634335 -0.1263164
v -0.1093929 0.1563259 -0.3116814
v 0.06955917 0.1797643 -0.2936799
v 0.08520416 0.2461041 -0.16355
v -0.2815126 0.1220394 -0.06505477
v 0.4622566 -0.03102925 0.2416095
v 0.7496173 -0.08143636 -0.01494759
v 0.8260278 -0.2136313 0.08528999
v 0.7862147 -0.2445689 0.2481589
v 0.663607 -0.2049553 0.296485
v 0.6013601 -0.2078774 0.398436
v 0.4622566 -0.03102925 0.2416095
v 0.2578534 0.2233204 -0.3093576
v 0.7496173 -0.08143636 -0.01494759
v 0.7496173 -0.08143636 -0.01494759
v 0.2578534 0.2233204 -0.3093576
v 0.5469657 0.02948795 -0.4251719
v 0.6870042 -0.04715627 -0.3744252
v -0.03010986 0.04064976 0.15394
v 0.1233684 0.09925564 0.04574303
v 0.4622566 -0.03102925 0.2416095
v 0.165174 -0.08906256 0.2997637
v 0.3478127 -0.004514065 0.3220949
v 0.1233684 0.09925564 0.04574303
v 0.2578534 0.2233204 -0.3093576
v 0.4622566 -0.03102925 0.2416095
v 0.02390678 0.1335422 -0.2380831
v 0.1431322 0.1569806 -0.3727424
v 0.2578534 0.2233204 -0.3093576
v 0.1233684 0.09925564 0.04574303
v -0.03010986 0.04064976 0.15394
v -0.8243292 -0.2151665 -0.1654474
v -0.7255052 -0.08297156 -0.2436774
v -0.5105098 -0.03256455 0.07597038
v -0.8260269 -0.2461041 0.002208404
v -0.7191767 -0.2064905 0.07935204
v -0.6840733 -0.2094126 0.1935291
v -0.5105098 -0.03256455 0.07597038
v -0.7255052 -0.08297156 -0.2436774
v -0.176212 0.221785 -0.4073415
v -0.7255052 -0.08297156 -0.2436774
v -0.5759453 -0.04869151 -0.5765084
v -0.427707 0.02795268 -0.5910503
v -0.176212 0.221785 -0.4073415
v -0.5105098 -0.03256455 0.07597038
v -0.1337123 0.09772032 -0.03001335
v -0.01175529 0.03911442 0.1127753
v -0.4195224 -0.006049366 0.1822558
v -0.2370337 -0.09059787 0.2057809
v -0.1337123 0.09772032 -0.03001335
v -0.5105098 -0.03256455 0.07597038
v -0.176212 0.221785 -0.4073415
v -0.176212 0.221785 -0.4073415
v -0.04937988 0.1554452 -0.4403895
v 0.03284462 0.1320069 -0.2804304
v -0.1337123 0.09772032 -0.03001335
v -0.01175529 0.03911442 0.1127753
vt 0.7210191 0.5746255
vt 0.6577383 0.5523157
vt 0.6934729 0.4486388
vt 0.7206827 0.5393205
vt 0.7293334 0.4635864
vt 0.7458186 0.5105559
vt 0.6577383 0.5523157
vt 0.510691 0.4369648
vt 0.6934729 0.4486388
vt 0.6934729 0.4486388
vt 0.510691 0.4369648
vt 0.584344 0.3719512
vt 0.6303654 0.3667919
vt 0.6087442 0.608216
vt 0.5304675 0.5950015
vt 0.5413544 0.5474341
vt 0.6577383 0.5523157
vt 0.6399261 0.5880839
vt 0.5413544 0.5474341
vt 0.510691 0.4369648
vt 0.6577383 0.5523157
vt 0.5304675 0.5950015
vt 0.4803662 0.4873627
vt 0.4868734 0.4374477
vt 0.510691 0.4369648
vt 0.5413544 0.5474341
vt 0.6577383 0.5523157
vt 0.6934729 0.4486388
vt 0.7293334 0.4635864
vt 0.7458186 0.5105559
vt 0.7206827 0.5393205
vt 0.7210191 0.5746255
vt 0.6577383 0.5523157
vt 0.510691 0.4369648
vt 0.6934729 0.4486388
vt 0.6934729 0.4486388
vt 0.510691 0.4369648
vt 0.584344 0.3719512
vt 0.6303654 0.3667919
vt 0.5304675 0.5950015
vt 0.5413544 0.5474341
vt 0.6577383 0.5523157
vt 0.6087442 0.608216
vt 0.6399261 0.5880839
vt 0.5413544 0.5474341
vt 0.510691 0.4369648
vt 0.6577383 0.5523157
vt 0.4803662 0.4873627
vt 0.4868734 0.4374477
vt 0.510691 0.4369648
vt 0.5413544 0.5474341
vt 0.5304675 0.5950015
vt 0.7293334 0.4635864
vt 0.6934729 0.4486388
vt 0.6577383 0.5523157
vt 0.7458186 0.5105559
vt 0.7206827 0.5393205
vt 0.7210191 0.5746255
vt 0.6577383 0.5523157
vt 0.6934729 0.4486388
vt 0.510691 0.4369648
vt 0.6934729 0.4486388
vt 0.6303654 0.3667919
vt 0.584344 0.3719512
vt 0.510691 0.4369648
vt 0.6577383 0.5523157
vt 0.5413544 0.5474341
vt 0.5304675 0.5950015
vt 0.6399261 0.5880839
vt 0.6087442 0.608216
vt 0.5413544 0.5474341
vt 0.6577383 0.5523157
vt 0.510691 0.4369648
vt 0.510691 0.4369648
vt 0.4868734 0.4374477
vt 0.4803662 0.4873627
vt 0.5413544 0.5474341
vt 0.5304675 0.5950015
vn -0.01759514 0.7428694 0.6692051
vn -0.01759514 0.7428694 0.6692051
vn -0.01759514 0.7428694 0.669205
vn -0.01759514 0.7428694 0.6692051
vn -0.01759514 0.7428694 0.6692051
vn -0.01759514 0.7428694 0.6692051
vn 0.01443965 0.8826586 0.4697929
vn 0.01443965 0.8826586 0.4697929
vn 0.01443965 0.8826586 0.4697929
vn 0.3357104 0.8477527 0.4106261
vn 0.3357104 0.8477527 0.4106262
vn 0.3357104 0.8477527 0.4106261
vn 0.3357104 0.8477527 0.4106262
vn -0.4033642 0.8786723 0.255406
vn -0.4033642 0.8786723 0.255406
vn -0.4033642 0.8786723 0.255406
vn -0.4033643 0.8786724 0.255406
vn -0.4033643 0.8786724 0.255406
vn -0.2220141 0.9177281 0.3293704
vn -0.2220141 0.9177281 0.3293704
vn -0.2220141 0.9177281 0.3293704
vn -0.2862118 0.9459794 -0.152334
vn -0.2862118 0.9459794 -0.152334
vn -0.2862118 0.9459794 -0.152334
vn -0.2862118 0.9459794 -0.1523341
vn -0.2862118 0.9459794 -0.152334
vn 0.532639 0.7428695 0.4055128
vn 0.532639 0.7428695 0.4055128
vn 0.532639 0.7428695 0.4055128
vn 0.532639 0.7428695 0.4055128
vn 0.532639 0.7428695 0.4055128
vn 0.532639 0.7428695 0.4055128
vn 0.389585 0.8826585 0.2629402
vn 0.389585 0.8826585 0.2629402
vn 0.389585 0.8826585 0.2629402
vn 0.5294077 0.8477526 -0.03229684
vn 0.5294076 0.8477525 -0.03229684
vn 0.5294077 0.8477525 -0.03229684
vn 0.5294077 0.8477525 -0.03229684
vn -0.02860829 0.8786723 0.4765674
vn -0.02860829 0.8786723 0.4765674
vn -0.02860829 0.8786723 0.4765674
vn -0.02860829 0.8786723 0.4765674
vn -0.02860829 0.8786723 0.4765674
vn 0.1374218 0.9177281 0.3726799
vn 0.1374218 0.9177281 0.3726799
vn 0.1374218 0.9177281 0.3726799
vn -0.2909166 0.9459795 0.1431444
vn -0.2909166 0.9459795 0.1431444
vn -0.2909166 0.9459795 0.1431444
vn -0.2909166 0.9459795 0.1431444
vn -0.2909166 0.9459795 0.1431445
vn -0.6163723 0.7428695 0.261209
vn -0.6163723 0.7428695 0.261209
vn -0.6163723 0.7428695 0.261209
vn -0.6163722 0.7428695 0.261209
vn -0.6163723 0.7428695 0.261209
vn -0.6163723 0.7428695 0.261209
vn -0.4425056 0.8826585 0.1584384
vn -0.4425056 0.8826585 0.1584385
vn -0.4425056 0.8826585 0.1584385
vn -0.5049801 0.8477526 -0.1622056
vn -0.5049801 0.8477526 -0.1622055
vn -0.5049801 0.8477526 -0.1622055
vn -0.5049801 0.8477526 -0.1622055
vn -0.09012519 0.8786723 0.4688416
vn -0.09012519 0.8786723 0.4688416
vn -0.09012519 0.8786723 0.4688416
vn -0.09012519 0.8786723 0.4688416
vn -0.0901252 0.8786723 0.4688416
vn -0.2253099 0.9177281 0.3271245
vn -0.22531 0.9177281 0.3271245
vn -0.22531 0.9177281 0.3271245
vn 0.2464855 0.9459794 0.2106365
vn 0.2464854 0.9459794 0.2106365
vn 0.2464855 0.9459794 0.2106365
vn 0.2464855 0.9459794 0.2106365
vn 0.2464854 0.9459794 0.2106365
g Libel_Plants_Leaf_03_0
f 3/3/3 2/2/2 1/1/1
f 1/1/1 4/4/4 3/3/3
f 5/5/5 3/3/3 4/4/4
f 4/4/4 6/6/6 5/5/5
f 9/9/9 8/8/8 7/7/7
f 12/12/12 11/11/11 10/10/10
f 13/13/13 12/12/12 10/10/10
f 16/16/16 15/15/15 14/14/14
f 14/14/14 17/17/17 16/16/16
f 14/14/14 18/18/18 17/17/17
f 21/21/21 20/20/20 19/19/19
f 24/24/24 23/23/23 22/22/22
f 22/22/22 25/25/25 24/24/24
f 22/22/22 26/26/26 25/25/25
f 29/29/29 28/28/28 27/27/27
f 27/27/27 30/30/30 29/29/29
f 27/27/27 31/31/31 30/30/30
f 27/27/27 32/32/32 31/31/31
f 35/35/35 34/34/34 33/33/33
f 38/38/38 37/37/37 36/36/36
f 39/39/39 38/38/38 36/36/36
f 42/42/42 41/41/41 40/40/40
f 40/40/40 43/43/43 42/42/42
f 43/43/43 44/44/44 42/42/42
f 47/47/47 46/46/46 45/45/45
f 50/50/50 49/49/49 48/48/48
f 48/48/48 51/51/51 50/50/50
f 48/48/48 52/52/52 51/51/51
f 55/55/55 54/54/54 53/53/53
f 53/53/53 56/56/56 55/55/55
f 56/56/56 57/57/57 55/55/55
f 57/57/57 58/58/58 55/55/55
f 61/61/61 60/60/60 59/59/59
f 64/64/64 63/63/63 62/62/62
f 65/65/65 64/64/64 62/62/62
f 68/68/68 67/67/67 66/66/66
f 66/66/66 69/69/69 68/68/68
f 69/69/69 70/70/70 68/68/68
f 73/73/73 72/72/72 71/71/71
f 76/76/76 75/75/75 74/74/74
f 74/74/74 77/77/77 76/76/76
f 77/77/77 78/78/78 76/76/76
