g Libel_Pillar_Short_03
v -0.4749206 0.2645526 -0.4887711
v 0.4786023 0.2644748 -0.4887711
v 0.4839697 1.526331 -0.4863803
v -0.4707239 1.533175 -0.4850522
v 0.4777502 0.2644351 0.4889651
v -0.4743738 0.2644351 0.4889651
v -0.4714721 1.527572 0.4872442
v 0.4831433 1.527573 0.4872561
v -0.4743738 0.2644351 0.4889651
v -0.4707312 0.2578214 0.3565723
v -0.4749206 0.2645526 -0.4887711
v -0.4714721 1.527572 0.4872442
v -0.4707239 1.533175 -0.4850522
v 0.4831433 1.527573 0.4872561
v 0.4839697 1.526331 -0.4863803
v 0.4786023 0.2644748 -0.4887711
v 0.4777502 0.2644351 0.4889651
v -0.4743738 0.2644351 0.4889651
v -0.6024871 0.2220032 0.6239798
v -0.6031732 0.2222195 -0.6239786
v -0.4749206 0.2645526 -0.4887711
v -0.4749206 0.2645526 -0.4887711
v -0.6031732 0.2222195 -0.6239786
v 0.6031775 0.2220749 -0.6239786
v 0.4786023 0.2644748 -0.4887711
v 0.4786023 0.2644748 -0.4887711
v 0.6031775 0.2220749 -0.6239786
v 0.6021057 0.2220032 0.6239804
v 0.4777502 0.2644351 0.4889651
v 0.4777502 0.2644351 0.4889651
v 0.6021057 0.2220032 0.6239804
v -0.6024871 0.2220032 0.6239798
v -0.4743738 0.2644351 0.4889651
v -0.6024871 0.2220032 0.6239798
v -0.6024871 1.220703E-06 0.6239794
v -0.6031732 0.0002191162 -0.6239789
v -0.6031732 0.2222195 -0.6239786
v -0.6031732 0.2222195 -0.6239786
v -0.6031732 0.0002191162 -0.6239789
v 0.6031775 7.385253E-05 -0.6239789
v 0.6031775 0.2220749 -0.6239786
v 0.6031775 0.2220749 -0.6239786
v 0.6031775 7.385253E-05 -0.6239789
v 0.6021069 1.220703E-06 0.6239804
v 0.6021057 0.2220032 0.6239804
v 0.6021057 0.2220032 0.6239804
v 0.6021069 1.220703E-06 0.6239804
v -0.6024871 1.220703E-06 0.6239794
v -0.6024871 0.2220032 0.6239798
vt 0.597179 0.8876718
vt 0.5192108 0.8876718
vt 0.5192108 0.9965549
vt 0.597179 0.9965549
vt 0.5969163 0.8876718
vt 0.5190551 0.8876718
vt 0.5194587 0.9965549
vt 0.5969163 0.9965549
vt 0.6746087 0.8876718
vt 0.6650694 0.8876718
vt 0.597179 0.8876718
vt 0.6748846 0.9965549
vt 0.597179 0.9965549
vt 0.5969163 0.9965549
vt 0.6748845 0.9965549
vt 0.6748845 0.8876718
vt 0.5969163 0.8876718
vt 0.9574148 0.6456876
vt 0.9574148 0.6370056
vt 0.8780792 0.6370056
vt 0.8780792 0.6456877
vt 0.8780792 0.6456877
vt 0.8780792 0.6370056
vt 0.9574148 0.6370056
vt 0.9574148 0.6456876
vt 0.9574148 0.6456876
vt 0.9574148 0.6370056
vt 0.8780792 0.6370056
vt 0.8780792 0.6456877
vt 0.8780792 0.6456877
vt 0.8780792 0.6370056
vt 0.9574148 0.6370056
vt 0.9574148 0.6456876
vt 0.9574148 0.6370056
vt 0.9574148 0.6246771
vt 0.8780792 0.6246771
vt 0.8780792 0.6370056
vt 0.8780792 0.6370056
vt 0.8780792 0.6246771
vt 0.9574148 0.6246771
vt 0.9574148 0.6370056
vt 0.9574148 0.6370056
vt 0.9574148 0.6246771
vt 0.8780792 0.6246771
vt 0.8780792 0.6370056
vt 0.8780792 0.6370056
vt 0.8780792 0.6246771
vt 0.9574148 0.6246771
vt 0.9574148 0.6370056
vn -0.0006872339 0.002417002 -0.9999969
vn -0.0006872339 0.002417002 -0.9999969
vn -0.0006872339 0.002417002 -0.9999969
vn -0.0006872339 0.002417002 -0.9999969
vn -6.242641E-06 0.001357699 0.9999992
vn -6.24264E-06 0.001357699 0.9999992
vn -6.242641E-06 0.001357699 0.9999992
vn -6.242641E-06 0.001357699 0.9999992
vn -0.9999992 0.001328229 -9.352502E-05
vn -0.9999992 0.001328229 -9.352502E-05
vn -0.9999992 0.001328229 -9.352502E-05
vn -0.9999992 0.001328229 -9.352501E-05
vn -0.9999992 0.001328229 -9.352501E-05
vn 0.9999906 -0.004261786 0.0008627625
vn 0.9999906 -0.004261786 0.0008627625
vn 0.9999906 -0.004261786 0.0008627625
vn 0.9999906 -0.004261786 0.0008627625
vn -0.3139262 0.9494474 0.0003163181
vn -0.3139261 0.9494474 0.000316318
vn -0.3139262 0.9494474 0.0003163181
vn -0.3139262 0.9494474 0.0003163181
vn 9.829042E-05 0.9542499 -0.29901
vn 9.829042E-05 0.9542499 -0.2990099
vn 9.829042E-05 0.9542499 -0.29901
vn 9.829042E-05 0.9542499 -0.29901
vn 0.322569 0.9465459 0.0003261913
vn 0.322569 0.9465459 0.0003261914
vn 0.322569 0.9465459 0.0003261914
vn 0.322569 0.9465459 0.0003261914
vn 0 0.9539964 0.2998181
vn 0 0.9539964 0.2998181
vn 0 0.9539964 0.299818
vn 0 0.9539964 0.299818
vn -0.9999999 0 0.000549726
vn -0.9999999 0 0.0005497259
vn -0.9999999 0 0.000549726
vn -0.9999999 0 0.0005497259
vn 0 1.374661E-06 -1
vn 0 1.374661E-06 -1
vn 0 1.374661E-06 -1
vn 0 1.374661E-06 -1
vn 0.9999996 2.748731E-06 0.0008583348
vn 0.9999996 2.748731E-06 0.0008583349
vn 0.9999996 2.748731E-06 0.0008583349
vn 0.9999996 2.748731E-06 0.0008583348
vn -6.333584E-07 -6.873285E-07 1
vn -6.333585E-07 -6.873285E-07 1
vn -6.333584E-07 -6.873285E-07 1
vn -6.333584E-07 -6.873285E-07 1
g Libel_Pillar_Short_03_0
f 3/3/3 2/2/2 1/1/1
f 4/4/4 3/3/3 1/1/1
f 7/7/7 6/6/6 5/5/5
f 8/8/8 7/7/7 5/5/5
f 11/11/11 10/10/10 9/9/9
f 9/9/9 12/12/12 11/11/11
f 12/12/12 13/13/13 11/11/11
f 16/16/16 15/15/15 14/14/14
f 17/17/17 16/16/16 14/14/14
f 20/20/20 19/19/19 18/18/18
f 21/21/21 20/20/20 18/18/18
f 24/24/24 23/23/23 22/22/22
f 25/25/25 24/24/24 22/22/22
f 28/28/28 27/27/27 26/26/26
f 29/29/29 28/28/28 26/26/26
f 32/32/32 31/31/31 30/30/30
f 33/33/33 32/32/32 30/30/30
f 36/36/36 35/35/35 34/34/34
f 37/37/37 36/36/36 34/34/34
f 40/40/40 39/39/39 38/38/38
f 41/41/41 40/40/40 38/38/38
f 44/44/44 43/43/43 42/42/42
f 45/45/45 44/44/44 42/42/42
f 48/48/48 47/47/47 46/46/46
f 49/49/49 48/48/48 46/46/46
