g BM_Blossom_03
v -0.3344181 -0.000167551 0.06019668
v 0.07590513 -0.0003584909 -0.2820525
v 0.07590513 0.0001426697 0.02457542
v 0.2364608 -0.0005443954 -0.2907238
v 0.07590513 0.000544405 0.216691
v 0.3871225 -0.0002505112 0.08953869
v 0.339375 -0.0001812649 0.02453651
v -0.3871225 0.0002422333 0.2907241
v 0.3525557 -0.0003892946 -0.1596178
vt 0.2116491 0.8140526
vt 0.2777251 0.7321332
vt 0.2189855 0.7320464
vt 0.2795723 0.7013149
vt 0.1823459 0.7318237
vt 0.2069903 0.6719972
vt 0.219389 0.6812743
vt 0.1664716 0.8206947
vt 0.254585 0.6788558
vn -0.0009478747 0.9999977 -0.00192711
vn 0.0003805917 0.9999986 -0.001634424
vn 0.0002465791 0.9999985 -0.001768404
vn 0.0009201852 0.9999985 -0.001514476
vn 0.0001274704 0.9999979 -0.002074731
vn 0.001440229 0.9999987 -0.0008473069
vn 0.001100128 0.9999993 -0.0005280297
vn -0.0009723602 0.9999976 -0.001999896
vn -5.576358E-05 0.9999994 -0.001133639
g BM_Blossom_03_0
f 3/3/3 2/2/2 1/1/1
f 2/2/2 3/3/3 4/4/4
f 3/3/3 1/1/1 5/5/5
f 5/5/5 6/6/6 3/3/3
f 7/7/7 3/3/3 6/6/6
f 3/3/3 7/7/7 4/4/4
f 8/8/8 5/5/5 1/1/1
f 9/9/9 4/4/4 7/7/7
