g BM_Grass_Leaf_Green_02 
v -0.5538049 -0.217682 -0.2094485
v -0.191991 0.007747561 0.2977179
v -0.581189 -0.09210514 0.85232
v 0.2113074 -0.0266785 0.8650299
v 0.2387012 -0.1522556 -0.1967508
v -0.5538049 -0.217682 -0.2094485
v 0.04141723 -0.07026704 0.4275268
v 0.3618024 0.08977052 -0.1298691
v 1.02387 -0.01823913 0.0080661
v 0.7115051 -0.01609372 -0.7233142
v -0.2709644 -0.06812208 -0.3038574
v 0.04141723 -0.07026704 0.4275268
v 0.2537121 -0.05265791 -0.3920712
v -0.3861017 0.08844171 -0.2937158
v -0.7000238 -0.09441227 -0.8742721
v -1.059933 -0.03677756 -0.1674246
v -0.1061926 0.004978548 0.3147913
v 0.2537121 -0.05265791 -0.3920712
v 0.4925922 0.1409231 0.2557245
v -0.05080261 0.2329263 -0.1119684
v 0.1148425 0.002415956 -0.7352282
v -0.6290289 0.05801729 -0.4594476
v -0.2512823 0.1965274 0.5315204
v 0.4925922 0.1409231 0.2557245
vt 0.9778606 0.3314587
vt 0.8978993 0.435927
vt 0.9748042 0.5483265
vt 0.8135433 0.5460545
vt 0.816598 0.3291841
vt 0.9778606 0.3314587
vt 0.9778606 0.3314587
vt 0.8978993 0.435927
vt 0.9748042 0.5483265
vt 0.8135433 0.5460545
vt 0.816598 0.3291841
vt 0.9778606 0.3314587
vt 0.9778606 0.3314587
vt 0.8978993 0.435927
vt 0.9748042 0.5483265
vt 0.8135433 0.5460545
vt 0.816598 0.3291841
vt 0.9778606 0.3314587
vt 0.9778606 0.3314587
vt 0.8978993 0.435927
vt 0.9748042 0.5483265
vt 0.8135433 0.5460545
vt 0.816598 0.3291841
vt 0.9778606 0.3314587
vn -0.4009352 0.9085023 -0.1177904
vn -0.08681599 0.988515 -0.1236983
vn -0.2141254 0.9764722 0.025543
vn 0.04864875 0.9984773 0.02600629
vn 0.06110047 0.9640172 -0.2587228
vn -0.07091144 0.9292932 -0.3624716
vn 0.08702536 0.9431366 0.3208113
vn -0.04500859 0.9985378 0.0299421
vn 0.1429204 0.9859843 0.08607519
vn 0.0359397 0.98727 -0.15494
vn -0.2296473 0.9721377 -0.04701563
vn -0.2709565 0.9552661 0.1185298
vn 0.1459164 0.9182578 -0.3681184
vn 0.005242563 0.9962274 -0.08662327
vn -0.07170487 0.9618092 -0.2641619
vn -0.1877405 0.9818133 -0.02821692
vn 0.06594394 0.992203 0.1057573
vn 0.2200088 0.9749556 0.03252292
vn 0.3243267 0.9120077 -0.2511056
vn 0.02816677 0.9891589 -0.1441221
vn 0.09215117 0.9416375 -0.3237699
vn -0.1531506 0.9612957 -0.2290312
vn -0.05649722 0.9976473 0.03883015
vn 0.107163 0.9902142 0.08939825
g BM_Grass_Leaf_Green_02 _0
f 3/3/3 2/2/2 1/1/1
f 4/4/4 2/2/2 3/3/3
f 4/4/4 5/5/5 2/2/2
f 6/6/6 2/2/2 5/5/5
f 9/9/9 8/8/8 7/7/7
f 10/10/10 8/8/8 9/9/9
f 10/10/10 11/11/11 8/8/8
f 12/12/12 8/8/8 11/11/11
f 15/15/15 14/14/14 13/13/13
f 16/16/16 14/14/14 15/15/15
f 16/16/16 17/17/17 14/14/14
f 18/18/18 14/14/14 17/17/17
f 21/21/21 20/20/20 19/19/19
f 22/22/22 20/20/20 21/21/21
f 22/22/22 23/23/23 20/20/20
f 24/24/24 20/20/20 23/23/23
