g BM_Ground01_Tile_01
v 7.999998 0.0001084685 -3
v 6.999997 8.675734E-05 -2
v 6.999996 8.680105E-05 -3
v 7.999998 0.0001084248 -2
v 7.999998 0.0001084248 -4
v 6.999997 8.675734E-05 -4
v 6.999998 8.671363E-05 -1
v 7.999999 0.0001083811 -1
v 5.999998 8.680105E-05 -3
v 5.999998 8.675734E-05 -2
v 4.999999 8.680105E-05 -3
v 4.999999 8.675734E-05 -4
v 5.999998 8.675734E-05 -4
v 7.999999 0.0001083374 4.735578E-12
v 3.999998 6.508987E-05 -4
v 3.999998 6.513357E-05 -7
v 2.999997 4.342238E-05 -6
v 2.999997 4.346609E-05 -7
v 3.999998 6.508987E-05 -6
v 3.999998 6.508987E-05 -8
v 2.999997 4.342238E-05 -8
v 2.999997 4.337867E-05 -5
v 3.999998 6.504615E-05 -5
v 1.999998 4.346609E-05 -7
v 1.999998 4.342238E-05 -6
v 0.999999 4.346609E-05 -7
v 0.9999993 4.342238E-05 -8
v 1.999998 4.342238E-05 -8
v 3.999998 6.508987E-05 -4
v 6.103515E-07 4.342238E-05 -8
v 7.999999 0.0001083811 -5
v 6.999997 8.675734E-05 -4
v 6.999998 8.671363E-05 -5
v 7.999998 0.0001084248 -4
v 7.999998 0.0001084248 -6
v 6.999997 8.675734E-05 -6
v 7.999998 0.0001084685 -7
v 6.999996 8.680105E-05 -7
v 7.999998 0.0001084248 -8
v 6.999997 8.675734E-05 -8
v 5.999999 8.671363E-05 -5
v 5.999998 8.675734E-05 -4
v 5 8.671363E-05 -5
v 4.999999 8.675734E-05 -6
v 5.999998 8.675734E-05 -6
v 3.999998 6.508987E-05 -6
v 4.999999 8.680105E-05 -7
v 3.999998 6.513357E-05 -7
v 3.999998 6.504615E-05 -5
v 3.999998 6.508987E-05 -4
v 4.999999 8.675734E-05 -4
v 3.999998 6.508987E-05 -8
v 4.999999 8.675734E-05 -8
v 5.999998 8.680105E-05 -7
v 5.999998 8.675734E-05 -8
vt 0.9999997 0.75
vt 0.7499999 0.5
vt 0.7499998 0.75
vt 0.9999998 0.5
vt 0.9999996 1
vt 0.7499998 1
vt 0.75 0.25
vt 0.9999999 0.25
vt 0.4999999 0.75
vt 0.5 0.5
vt 0.2500001 0.75
vt 0.25 1
vt 0.4999999 1
vt 0.9999999 0
vt 5.960464E-08 1
vt 0.9999997 0.75
vt 0.7499999 0.5
vt 0.7499998 0.75
vt 0.9999998 0.5
vt 0.9999996 1
vt 0.7499998 1
vt 0.75 0.25
vt 0.9999999 0.25
vt 0.4999999 0.75
vt 0.5 0.5
vt 0.2500001 0.75
vt 0.25 1
vt 0.4999999 1
vt 0.9999999 0
vt 5.960464E-08 1
vt 0.9999999 0.25
vt 0.75 0
vt 0.75 0.25
vt 0.9999999 0
vt 0.9999998 0.5
vt 0.7499999 0.5
vt 0.9999997 0.75
vt 0.7499998 0.75
vt 0.9999996 1
vt 0.7499998 1
vt 0.5000001 0.25
vt 0.5000001 0
vt 0.2500002 0.25
vt 0.2500001 0.5
vt 0.5 0.5
vt 2.086163E-07 0.5
vt 0.2500001 0.75
vt 1.341105E-07 0.75
vt 2.831221E-07 0.25
vt 3.576279E-07 0
vt 0.2500002 0
vt 5.960464E-08 1
vt 0.25 1
vt 0.4999999 0.75
vt 0.4999999 1
vn -2.166745E-05 1 0
vn -2.166745E-05 1 0
vn -2.166745E-05 1 0
vn -2.166745E-05 1 0
vn -2.166747E-05 1 0
vn -2.166747E-05 1 0
vn -2.166745E-05 1 0
vn -2.166745E-05 1 0
vn 0 1 0
vn 0 1 0
vn 0 1 0
vn 0 1 0
vn 0 1 0
vn -2.166746E-05 1 0
vn -2.166745E-05 1 0
vn -2.166745E-05 1 0
vn -2.166745E-05 1 0
vn -2.166745E-05 1 0
vn -2.166745E-05 1 0
vn -2.166745E-05 1 0
vn -2.166746E-05 1 0
vn -2.166745E-05 1 0
vn -2.166745E-05 1 0
vn 0 1 0
vn 0 1 0
vn 0 1 0
vn 0 1 0
vn 0 1 0
vn -2.166745E-05 1 0
vn 0 1 0
vn -2.166745E-05 1 0
vn -2.166745E-05 1 0
vn -2.166745E-05 1 0
vn -2.166747E-05 1 0
vn -2.166745E-05 1 0
vn -2.166745E-05 1 0
vn -2.166745E-05 1 0
vn -2.166745E-05 1 0
vn -2.166747E-05 1 0
vn -2.166747E-05 1 0
vn 0 1 0
vn 0 1 0
vn 0 1 0
vn 0 1 0
vn 0 1 0
vn -2.166745E-05 1 0
vn 0 1 0
vn -2.166745E-05 1 0
vn -2.166745E-05 1 0
vn -2.166745E-05 1 0
vn -2.166746E-05 1 0
vn -2.166745E-05 1 0
vn 0 1 0
vn 0 1 0
vn 0 1 0
g BM_Ground01_Tile_01_0
f 3/3/3 2/2/2 1/1/1
f 4/4/4 1/1/1 2/2/2
f 1/1/1 5/5/5 3/3/3
f 6/6/6 3/3/3 5/5/5
f 2/2/2 7/7/7 4/4/4
f 8/8/8 4/4/4 7/7/7
f 3/3/3 9/9/9 2/2/2
f 10/10/10 2/2/2 9/9/9
f 2/2/2 10/10/10 7/7/7
f 10/10/10 9/9/9 11/11/11
f 11/11/11 9/9/9 12/12/12
f 13/13/13 12/12/12 9/9/9
f 9/9/9 3/3/3 13/13/13
f 6/6/6 13/13/13 3/3/3
f 8/8/8 7/7/7 14/14/14
f 12/12/12 15/15/15 11/11/11
f 18/18/18 17/17/17 16/16/16
f 19/19/19 16/16/16 17/17/17
f 16/16/16 20/20/20 18/18/18
f 21/21/21 18/18/18 20/20/20
f 17/17/17 22/22/22 19/19/19
f 23/23/23 19/19/19 22/22/22
f 18/18/18 24/24/24 17/17/17
f 25/25/25 17/17/17 24/24/24
f 17/17/17 25/25/25 22/22/22
f 25/25/25 24/24/24 26/26/26
f 26/26/26 24/24/24 27/27/27
f 28/28/28 27/27/27 24/24/24
f 24/24/24 18/18/18 28/28/28
f 21/21/21 28/28/28 18/18/18
f 23/23/23 22/22/22 29/29/29
f 27/27/27 30/30/30 26/26/26
f 33/33/33 32/32/32 31/31/31
f 34/34/34 31/31/31 32/32/32
f 31/31/31 35/35/35 33/33/33
f 36/36/36 33/33/33 35/35/35
f 35/35/35 37/37/37 36/36/36
f 38/38/38 36/36/36 37/37/37
f 37/37/37 39/39/39 38/38/38
f 40/40/40 38/38/38 39/39/39
f 33/33/33 41/41/41 32/32/32
f 42/42/42 32/32/32 41/41/41
f 41/41/41 43/43/43 42/42/42
f 43/43/43 41/41/41 44/44/44
f 45/45/45 44/44/44 41/41/41
f 41/41/41 33/33/33 45/45/45
f 36/36/36 45/45/45 33/33/33
f 44/44/44 46/46/46 43/43/43
f 44/44/44 47/47/47 46/46/46
f 44/44/44 45/45/45 47/47/47
f 48/48/48 46/46/46 47/47/47
f 49/49/49 43/43/43 46/46/46
f 49/49/49 50/50/50 43/43/43
f 51/51/51 43/43/43 50/50/50
f 51/51/51 42/42/42 43/43/43
f 48/48/48 47/47/47 52/52/52
f 53/53/53 52/52/52 47/47/47
f 47/47/47 54/54/54 53/53/53
f 54/54/54 47/47/47 45/45/45
f 55/55/55 53/53/53 54/54/54
f 45/45/45 36/36/36 54/54/54
f 38/38/38 54/54/54 36/36/36
f 54/54/54 38/38/38 55/55/55
f 40/40/40 55/55/55 38/38/38
