g BM_Mandara_Patrts_01
v -0.2965244 -0.03990545 0.2428519
v -0.2668287 0.04078499 0.2672918
v -0.2668287 -0.03990544 0.2672918
v -0.2965244 0.04078499 0.2428519
v -0.3180116 0.04078497 0.2389693
v -0.3180116 -0.03990547 0.2389693
v -0.7777549 -0.03990547 0.2020805
v -0.7777549 0.03078492 0.2020805
v -0.7587633 0.0377433 0.2036043
v 0.04775308 -0.03990543 0.239281
v 0.04763558 0.04078501 0.2392916
v 0.06468364 0.04217081 0.2158305
v 0.0651473 -0.0285246 0.2181433
v -0.2965244 0.04078499 0.2428519
v -0.2715673 0.04078494 -0.003981886
v -0.2668287 0.04078499 0.2672918
v -0.2958926 0.04078493 0.006916227
v -0.3156361 0.04078491 -0.02515177
v -0.3180116 0.04078497 0.2389693
v -0.7205364 0.0377404 -0.06896657
v -0.7587633 0.0377433 0.2036043
v -0.0186024 0.04078493 -0.03760046
v 0.04763558 0.04078501 0.2392916
v -0.7777549 0.03078492 0.2020805
v -0.739502 0.03078492 -0.07101887
v 0.008929424 0.04218473 -0.01903252
v 0.06468364 0.04217081 0.2158305
v -0.2958926 0.04078493 0.006916227
v -0.2715673 -0.03990544 -0.003981886
v -0.2715673 0.04078494 -0.003981886
v -0.2958926 -0.03990544 0.006916227
v -0.3156361 -0.03990547 -0.02515177
v -0.3156361 0.04078491 -0.02515177
v -0.7205364 0.0377404 -0.06896657
v -0.739502 -0.03990547 -0.07101887
v -0.739502 0.03078492 -0.07101887
v -0.0186024 0.04078493 -0.03760046
v -0.01854136 -0.03990545 -0.03760843
v 0.00844296 -0.02848506 -0.02135491
v 0.008929424 0.04218473 -0.01903252
v 0.6504544 0.03078485 -0.3099076
v 0.7831051 -0.04078491 -0.07743086
v 0.7831051 0.03078485 -0.07743086
v 0.6504544 -0.04078491 -0.3099076
v -0.7777549 0.03078492 0.2020805
v -0.739502 -0.04078491 -0.07101887
v -0.739502 0.03078492 -0.07101887
v -0.7777549 -0.04078491 0.2020805
v 0.3163446 -0.03990544 0.1463657
v 0.7831051 0.03078485 -0.07743086
v 0.7831051 -0.03990547 -0.07743086
v 0.7665341 0.04078485 -0.06801414
v 0.3147671 0.04078496 0.1475863
v 0.09135351 -0.03990545 0.2177556
v 0.0913977 0.04078498 0.2178044
v 0.0651473 -0.0285246 0.2181433
v 0.06468364 0.04217081 0.2158305
v 0.3147671 0.04078496 0.1475863
v 0.6338486 0.04078484 -0.3006257
v 0.7665341 0.04078485 -0.06801414
v 0.222001 0.04078491 -0.1163227
v 0.6504544 0.03078485 -0.3099076
v 0.7831051 0.03078485 -0.07743086
v 0.02514173 0.0407849 -0.05946952
v 0.0913977 0.04078498 0.2178044
v 0.06468364 0.04217081 0.2158305
v 0.008929424 0.04218473 -0.01903252
v 0.222001 0.04078491 -0.1163227
v 0.02510594 -0.03990548 -0.05954925
v 0.2253232 -0.03990546 -0.1182123
v 0.02514173 0.0407849 -0.05946952
v 0.6338486 0.04078484 -0.3006257
v 0.6504544 -0.03990547 -0.3099076
v 0.6504544 0.03078485 -0.3099076
v 0.008929424 0.04218473 -0.01903252
v 0.00844296 -0.02848506 -0.02135491
vt 0.2301155 0.7431109
vt 0.2268732 0.7495193
vt 0.2316758 0.7444901
vt 0.224818 0.7482237
vt 0.2233054 0.7467669
vt 0.2286794 0.7416092
vt 0.2136889 0.7271793
vt 0.2106476 0.7325851
vt 0.210562 0.734221
vt 0.242213 0.7601175
vt 0.2350752 0.7637728
vt 0.2358837 0.7647707
vt 0.2427806 0.7622099
vt 0.224818 0.7482237
vt 0.2179349 0.7570648
vt 0.2268732 0.7495193
vt 0.2167891 0.7556679
vt 0.2150688 0.754043
vt 0.2233054 0.7467669
vt 0.2037593 0.7431208
vt 0.210562 0.734221
vt 0.2259828 0.7692755
vt 0.2350752 0.7637728
vt 0.2099535 0.7328943
vt 0.2025972 0.7430772
vt 0.2271943 0.7707402
vt 0.2358837 0.7647707
vt 0.2167891 0.7556679
vt 0.2159666 0.759313
vt 0.2179349 0.7570648
vt 0.2146927 0.7576444
vt 0.2133067 0.7560371
vt 0.2150688 0.754043
vt 0.2037593 0.7431208
vt 0.2017544 0.74433
vt 0.202392 0.7432261
vt 0.2259828 0.7692755
vt 0.2241626 0.7701066
vt 0.2249179 0.772058
vt 0.2271943 0.7707402
vt 0.2421149 0.8196314
vt 0.2532408 0.8196136
vt 0.2533789 0.818382
vt 0.2420348 0.8209047
vt 0.2099535 0.7328943
vt 0.201151 0.7421659
vt 0.2025972 0.7430772
vt 0.2089898 0.7323167
vt 0.2511817 0.7769614
vt 0.2545063 0.8181886
vt 0.260188 0.8179502
vt 0.2532989 0.8166072
vt 0.2451529 0.7784266
vt 0.2443882 0.7637067
vt 0.2363283 0.7661049
vt 0.2427806 0.7622099
vt 0.2358837 0.7647707
vt 0.2451529 0.7784266
vt 0.2432338 0.8181823
vt 0.2532989 0.8166072
vt 0.2357244 0.7832128
vt 0.2421149 0.8196314
vt 0.2533789 0.818382
vt 0.2278273 0.7724965
vt 0.2363283 0.7661049
vt 0.2358837 0.7647707
vt 0.2271943 0.7707402
vt 0.2357244 0.7832128
vt 0.2265769 0.7742284
vt 0.2327492 0.7845229
vt 0.2278273 0.7724965
vt 0.2432338 0.8181823
vt 0.240207 0.8188788
vt 0.2420507 0.8196458
vt 0.2271943 0.7707402
vt 0.2249179 0.772058
vn -0.4202213 0 0.9074217
vn -0.2954282 -1.314029E-07 0.9553649
vn -0.2954282 0 0.9553649
vn -0.4202215 0 0.9074216
vn -0.1291618 0 0.9916236
vn -0.1290542 0 0.9916375
vn -0.07998075 0 0.9967964
vn -0.07998075 2.052806E-07 0.9967964
vn -0.07998077 1.200456E-06 0.9967964
vn 0.4167373 0.008779212 0.9089846
vn 0.4986506 0.0006123945 0.866803
vn 0.413164 0.02198985 0.9103912
vn 0.421106 0.01740493 0.9068445
vn -3.157091E-07 1 -2.10257E-07
vn -1.627763E-07 1 -2.198025E-07
vn 0 1 -2.224646E-07
vn -5.253991E-07 1 -2.641431E-07
vn -0.005622967 0.9999843 -5.079845E-05
vn -0.003355536 0.9999944 -0.0001905994
vn -0.1725363 0.9847108 -0.02399952
vn -0.1823307 0.9829045 -0.02558157
vn -0.01862221 0.9998167 0.004454536
vn -0.02305213 0.9997191 0.005496449
vn -0.3402147 0.9391362 -0.04772031
vn -0.3393891 0.9394441 -0.04753812
vn -0.001627713 0.9999986 0.0004697784
vn -0.009665933 0.9999506 0.002292735
vn 0.294435 0 -0.9556716
vn -0.273147 -1.690167E-07 -0.9619723
vn -0.273147 0 -0.9619723
vn 0.2944353 0 -0.9556714
vn 0.534031 0 -0.8454649
vn 0.5350188 0 -0.8448402
vn 0.1075834 0 -0.9941961
vn 0.1075833 0 -0.9941961
vn 0.1075835 0 -0.9941961
vn 0.2262078 0.009371851 -0.974034
vn 0.1607898 0.0002191583 -0.9869887
vn -0.2736367 0.01910786 -0.9616433
vn -0.2914436 0.02361684 -0.9562965
vn 0.8685538 0 -0.4955949
vn 0.8685538 0 -0.4955949
vn 0.8685538 0 -0.4955949
vn 0.8685538 0 -0.4955949
vn -0.9903323 0 -0.1387156
vn -0.9903323 0 -0.1387156
vn -0.9903323 0 -0.1387156
vn -0.9903323 0 -0.1387156
vn 0.3685977 -0.007422535 0.9295594
vn 0.4360262 -0.03172851 0.8993745
vn 0.4323409 0 0.9017102
vn 0.4422118 -0.0987559 0.8914572
vn 0.3662086 -0.006087226 0.9305129
vn 0.1807277 -0.001647025 0.9835317
vn 0.1227093 0.01246543 0.9923644
vn 0.421106 0.01740493 0.9068445
vn 0.413164 0.02198985 0.9103912
vn 0 1 -2.220901E-07
vn 0.2013621 0.9727591 -0.1148603
vn 0.2128619 0.969504 -0.1214566
vn 0 1 -1.914204E-07
vn 0.4041397 0.8851702 -0.2305317
vn 0.4035325 0.8855191 -0.2302548
vn 0.0149132 0.9998826 -0.003529936
vn 0.02410509 0.9996928 -0.005760337
vn -0.009665933 0.9999506 0.002292735
vn -0.001627713 0.9999986 0.0004697784
vn -0.343285 0.006663083 -0.9392077
vn -0.62915 0.008357561 -0.777239
vn -0.3476486 0.008544882 -0.9375859
vn -0.6745387 0.001028648 -0.7382387
vn -0.4359468 0.01269824 -0.8998829
vn -0.4225117 0.01728997 -0.9061925
vn -0.4879131 0 -0.8728923
vn -0.2914436 0.02361684 -0.9562965
vn -0.2736367 0.01910786 -0.9616433
g BM_Mandara_Patrts_01_0
f 3/3/3 2/2/2 1/1/1
f 4/4/4 1/1/1 2/2/2
f 4/4/4 5/5/5 1/1/1
f 6/6/6 1/1/1 5/5/5
f 7/7/7 6/6/6 5/5/5
f 8/8/8 7/7/7 5/5/5
f 9/9/9 8/8/8 5/5/5
f 3/3/3 10/10/10 2/2/2
f 11/11/11 2/2/2 10/10/10
f 11/11/11 10/10/10 12/12/12
f 13/13/13 12/12/12 10/10/10
f 16/16/16 15/15/15 14/14/14
f 17/17/17 14/14/14 15/15/15
f 17/17/17 18/18/18 14/14/14
f 19/19/19 14/14/14 18/18/18
f 18/18/18 20/20/20 19/19/19
f 21/21/21 19/19/19 20/20/20
f 15/15/15 16/16/16 22/22/22
f 23/23/23 22/22/22 16/16/16
f 21/21/21 20/20/20 24/24/24
f 25/25/25 24/24/24 20/20/20
f 22/22/22 23/23/23 26/26/26
f 27/27/27 26/26/26 23/23/23
f 30/30/30 29/29/29 28/28/28
f 31/31/31 28/28/28 29/29/29
f 31/31/31 32/32/32 28/28/28
f 33/33/33 28/28/28 32/32/32
f 33/33/33 32/32/32 34/34/34
f 32/32/32 35/35/35 34/34/34
f 35/35/35 36/36/36 34/34/34
f 30/30/30 37/37/37 29/29/29
f 38/38/38 29/29/29 37/37/37
f 38/38/38 37/37/37 39/39/39
f 40/40/40 39/39/39 37/37/37
f 43/43/43 42/42/42 41/41/41
f 44/44/44 41/41/41 42/42/42
f 47/47/47 46/46/46 45/45/45
f 48/48/48 45/45/45 46/46/46
f 51/51/51 50/50/50 49/49/49
f 50/50/50 52/52/52 49/49/49
f 52/52/52 53/53/53 49/49/49
f 49/49/49 53/53/53 54/54/54
f 55/55/55 54/54/54 53/53/53
f 54/54/54 55/55/55 56/56/56
f 57/57/57 56/56/56 55/55/55
f 60/60/60 59/59/59 58/58/58
f 61/61/61 58/58/58 59/59/59
f 59/59/59 60/60/60 62/62/62
f 63/63/63 62/62/62 60/60/60
f 61/61/61 64/64/64 58/58/58
f 65/65/65 58/58/58 64/64/64
f 65/65/65 64/64/64 66/66/66
f 67/67/67 66/66/66 64/64/64
f 70/70/70 69/69/69 68/68/68
f 71/71/71 68/68/68 69/69/69
f 70/70/70 68/68/68 72/72/72
f 73/73/73 70/70/70 72/72/72
f 74/74/74 73/73/73 72/72/72
f 71/71/71 69/69/69 75/75/75
f 76/76/76 75/75/75 69/69/69
