g BM_Stone_01
v -0.6739328 0.2398888 -0.1208585
v -0.6808096 -0.2636819 0.2503057
v -0.7251266 -0.2325165 -0.1895091
v -0.6296136 0.2689711 0.2313158
v 0.6518384 -0.2852978 -0.2548058
v 0.6960686 0.3006133 -0.1809509
v 0.6404659 0.2904683 -0.2091238
v 0.7072858 -0.2288841 -0.2302219
v 0.373757 -0.2873502 -0.2987592
v 0.3873041 0.2934507 -0.2458999
v 0.1013721 -0.2395627 -0.3053923
v 0.07488678 0.2722827 -0.2527419
v -0.2782712 -0.2642867 -0.307394
v -0.2811539 0.2350779 -0.2611388
v -0.6932437 -0.256883 -0.272578
v -0.6420498 0.191075 -0.2488217
v 0.6611041 0.2581287 0.2669978
v 0.7251266 -0.2288842 0.1813547
v 0.6755725 -0.235298 0.2927287
v 0.713123 0.3006133 0.2124833
v 0.6670999 -0.285298 0.09726727
v 0.7072858 -0.2288841 -0.2302219
v 0.6518384 -0.2852978 -0.2548058
v 0.7251266 -0.2288842 0.1813547
v 0.6755725 -0.235298 0.2927287
v 0.6420231 0.3503482 -0.1731956
v 0.713123 0.3006133 0.2124833
v 0.6587549 0.3503481 0.2128025
v 0.6960686 0.3006133 -0.1809509
v -0.7251266 -0.2325165 -0.1895091
v -0.6420498 0.191075 -0.2488217
v -0.6739328 0.2398888 -0.1208585
v -0.6932437 -0.256883 -0.272578
v -0.6296136 0.2689711 0.2313158
v -0.6458203 -0.2746416 0.2961316
v -0.6808096 -0.2636819 0.2503057
v -0.5946268 0.2676767 0.2677172
v -0.6808096 -0.2636819 0.2503057
v -0.69022 -0.3068829 -0.2249352
v -0.7251266 -0.2325165 -0.1895091
v -0.6458203 -0.306883 0.2551112
v -0.6739328 0.2398888 -0.1208585
v -0.5946268 0.3176766 0.2211185
v -0.6296136 0.2689711 0.2313158
v -0.566185 0.3176768 -0.12266
v 0.713123 0.3006133 0.2124833
v 0.6611041 0.2581287 0.2669978
v 0.6587549 0.3503481 0.2128025
v -0.6808096 -0.2636819 0.2503057
v -0.6458203 -0.2746416 0.2961316
v -0.6458203 -0.306883 0.2551112
v -0.6296136 0.2689711 0.2313158
v -0.5946268 0.3176766 0.2211185
v -0.5946268 0.2676767 0.2677172
v -0.6458203 -0.306883 0.2551112
v -0.2788071 -0.2946796 0.2851862
v -0.2788067 -0.3446795 0.2326535
v -0.6458203 -0.2746416 0.2961316
v 0.05666626 -0.3503482 0.2063571
v 0.0433551 -0.3003483 0.2843586
v 0.3773221 -0.3446796 0.1725942
v 0.3773218 -0.2946796 0.2851862
v 0.6670999 -0.285298 0.09726727
v 0.6755725 -0.235298 0.2927287
v -0.6739328 0.2398888 -0.1208585
v -0.6420498 0.191075 -0.2488217
v -0.566185 0.3176768 -0.12266
v -0.7251266 -0.2325165 -0.1895091
v -0.69022 -0.3068829 -0.2249352
v -0.6932437 -0.256883 -0.272578
v 0.6518384 -0.2852978 -0.2548058
v 0.373757 -0.2873502 -0.2987592
v 0.373757 -0.3446793 -0.2668234
v 0.1013721 -0.2395627 -0.3053923
v 0.09734314 -0.3503481 -0.2343186
v -0.2788605 -0.3446794 -0.2493812
v -0.2782712 -0.2642867 -0.307394
v -0.6932437 -0.256883 -0.272578
v -0.69022 -0.3068829 -0.2249352
v -0.6420498 0.191075 -0.2488217
v -0.2803006 0.3324969 -0.1270875
v -0.566185 0.3176768 -0.12266
v -0.2811539 0.2350779 -0.2611388
v 0.06309997 0.3358824 -0.1559584
v 0.07488678 0.2722827 -0.2527419
v 0.3873041 0.2934507 -0.2458999
v 0.388121 0.3503481 -0.1846812
v 0.6420231 0.3503482 -0.1731956
v 0.6404659 0.2904683 -0.2091238
v 0.6960686 0.3006133 -0.1809509
v 0.3873044 0.2321754 0.307394
v 0.6755725 -0.235298 0.2927287
v 0.3773218 -0.2946796 0.2851862
v 0.6611041 0.2581287 0.2669978
v 0.0433551 -0.3003483 0.2843586
v 0.06161835 0.2858824 0.3015289
v -0.2788071 -0.2946796 0.2851862
v -0.2426742 0.2824971 0.2916718
v -0.6458203 -0.2746416 0.2961316
v -0.5946268 0.2676767 0.2677172
v 0.388121 0.3503481 -0.1846812
v 0.6587549 0.3503481 0.2128025
v 0.3881209 0.350348 0.2215444
v 0.6420231 0.3503482 -0.1731956
v 0.06309997 0.3358824 -0.1559584
v 0.06236847 0.3358825 0.236357
v -0.2803006 0.3324969 -0.1270875
v -0.2426221 0.3324971 0.2271508
v -0.566185 0.3176768 -0.12266
v -0.5946268 0.3176766 0.2211185
v 0.3881209 0.350348 0.2215444
v 0.6611041 0.2581287 0.2669978
v 0.3873044 0.2321754 0.307394
v 0.6587549 0.3503481 0.2128025
v 0.06236847 0.3358825 0.236357
v 0.06161835 0.2858824 0.3015289
v -0.2426742 0.2824971 0.2916718
v -0.2426221 0.3324971 0.2271508
v -0.5946268 0.2676767 0.2677172
v -0.5946268 0.3176766 0.2211185
v 0.713123 0.3006133 0.2124833
v 0.7072858 -0.2288841 -0.2302219
v 0.7251266 -0.2288842 0.1813547
v 0.6960686 0.3006133 -0.1809509
vt 0.3646922 0.9652177
vt 0.3494264 0.9868649
vt 0.367816 0.9854281
vt 0.3491245 0.9635565
vt 0.294956 0.9168098
vt 0.2918061 0.9428868
vt 0.2945471 0.9413931
vt 0.2922888 0.9195597
vt 0.3070584 0.916473
vt 0.3054904 0.9409162
vt 0.3187749 0.9187913
vt 0.3187051 0.9405917
vt 0.3351345 0.9189461
vt 0.3338507 0.9400611
vt 0.3528196 0.9208307
vt 0.3494687 0.9401819
vt 0.2938251 0.9642584
vt 0.2901015 0.9849482
vt 0.2937702 0.9843639
vt 0.2909961 0.9615511
vt 0.2883929 0.9898621
vt 0.2731827 0.98546
vt 0.2722888 0.9889781
vt 0.2901015 0.9849482
vt 0.2937702 0.9843639
vt 0.2946057 0.9441966
vt 0.2909961 0.9615511
vt 0.2939548 0.9602251
vt 0.2918061 0.9428868
vt 0.367816 0.9854281
vt 0.3704002 0.9671305
vt 0.3646922 0.9652177
vt 0.371544 0.9864118
vt 0.3491245 0.9635565
vt 0.3477422 0.9876137
vt 0.3494264 0.9868649
vt 0.3467409 0.9646703
vt 0.3494264 0.9868649
vt 0.3694731 0.9888772
vt 0.367816 0.9854281
vt 0.3486135 0.9893112
vt 0.350924 0.9470344
vt 0.3467742 0.9618965
vt 0.3491245 0.9635565
vt 0.3454452 0.9474276
vt 0.2909961 0.9615511
vt 0.2938251 0.9642584
vt 0.2939548 0.9602251
vt 0.3494264 0.9868649
vt 0.3477422 0.9876137
vt 0.3486135 0.9893112
vt 0.3491245 0.9635565
vt 0.3467742 0.9618965
vt 0.3467409 0.9646703
vt 0.3486135 0.9893112
vt 0.3325706 0.9891205
vt 0.3326034 0.9922326
vt 0.3477422 0.9876137
vt 0.3179984 0.9934325
vt 0.3187844 0.9894823
vt 0.3033597 0.993674
vt 0.3047268 0.9885286
vt 0.2883929 0.9898621
vt 0.2937702 0.9843639
vt 0.350924 0.9470344
vt 0.3494687 0.9401819
vt 0.3454452 0.9474276
vt 0.367816 0.9854281
vt 0.3694731 0.9888772
vt 0.371544 0.9864118
vt 0.294956 0.9168098
vt 0.3070584 0.916473
vt 0.3070322 0.9137299
vt 0.3187749 0.9187913
vt 0.3192169 0.9132079
vt 0.3355004 0.914778
vt 0.3351345 0.9189461
vt 0.3528196 0.9208307
vt 0.3530079 0.9178629
vt 0.3494687 0.9401819
vt 0.3334589 0.9468212
vt 0.3454452 0.9474276
vt 0.3338507 0.9400611
vt 0.3189922 0.9452708
vt 0.3187051 0.9405917
vt 0.3054904 0.9409162
vt 0.3052835 0.9439167
vt 0.2946057 0.9441966
vt 0.2945471 0.9413931
vt 0.2918061 0.9428868
vt 0.30537 0.9662981
vt 0.2937702 0.9843639
vt 0.3047268 0.9885286
vt 0.2938251 0.9642584
vt 0.3187844 0.9894823
vt 0.3189746 0.9646785
vt 0.3325706 0.9891205
vt 0.3316658 0.964684
vt 0.3477422 0.9876137
vt 0.3467409 0.9646703
vt 0.3052835 0.9439167
vt 0.2939548 0.9602251
vt 0.3053225 0.9606782
vt 0.2946057 0.9441966
vt 0.3189922 0.9452708
vt 0.3190083 0.9616168
vt 0.3334589 0.9468212
vt 0.331845 0.9615837
vt 0.3454452 0.9474276
vt 0.3467742 0.9618965
vt 0.3053225 0.9606782
vt 0.2938251 0.9642584
vt 0.30537 0.9662981
vt 0.2939548 0.9602251
vt 0.3190083 0.9616168
vt 0.3189746 0.9646785
vt 0.3316658 0.964684
vt 0.331845 0.9615837
vt 0.3467409 0.9646703
vt 0.3467742 0.9618965
vt 0.2909961 0.9615511
vt 0.2731827 0.98546
vt 0.2901015 0.9849482
vt 0.274167 0.9626802
vn -0.989075 0.09597657 0.1118892
vn -0.9893596 0.09483498 0.1103351
vn -0.9900857 0.09185041 0.1062724
vn -0.9882687 0.09912959 0.116182
vn 0.2178689 0.08542462 -0.9722323
vn 0.4306109 0.08080272 -0.8989133
vn 0.3036214 0.08312725 -0.9491596
vn 0.3215967 0.09448235 -0.9421511
vn 0.09816096 0.08611687 -0.9914375
vn 0.08595451 0.09253032 -0.991993
vn 0.01651753 0.09772912 -0.995076
vn 0.01122857 0.099838 -0.9949403
vn -0.03900674 0.09498629 -0.9947141
vn -0.0209268 0.08382943 -0.9962604
vn -0.06564888 0.07812162 -0.9947799
vn -0.04106586 0.05759285 -0.9974952
vn 0.757542 -0.01517772 0.6526099
vn 0.8981874 0.04110651 0.4376867
vn 0.911561 0.04802344 0.4083507
vn 0.7323223 -0.02340745 0.6805556
vn 0.6884881 -0.7251581 0.0113951
vn 0.7196036 -0.693684 -0.03119343
vn 0.7196036 -0.6936841 -0.03119345
vn 0.5869197 -0.7989755 0.1310087
vn 0.5304692 -0.8264971 0.1884279
vn 0.674588 0.7376151 -0.02924158
vn 0.6745861 0.7376169 -0.02924097
vn 0.6745857 0.7376173 -0.02924087
vn 0.6745883 0.7376147 -0.02924167
vn -0.9189976 0.1280238 -0.3728984
vn -0.942825 0.1427399 -0.3011748
vn -0.945751 0.144758 -0.2908611
vn -0.913472 0.1249308 -0.3872483
vn -0.7197651 0.1033094 0.6864876
vn -0.7757094 0.09746924 0.623518
vn -0.7797371 0.09699673 0.618548
vn -0.7152418 0.1037288 0.6911364
vn -0.7920843 -0.6062921 0.07079829
vn -0.8834944 -0.4646181 0.05972968
vn -0.8927302 -0.446805 0.05829329
vn -0.77898 -0.6228959 0.07204814
vn -0.6145771 0.7880017 -0.03671955
vn -0.7665357 0.6414108 0.03186467
vn -0.8057864 0.5898573 0.05269367
vn -0.5851883 0.8094509 -0.04841388
vn 0.4303438 0.4654698 0.7733964
vn 0.4303439 0.4654697 0.7733964
vn 0.4303438 0.4654698 0.7733964
vn -0.7259684 -0.5407022 0.4249836
vn -0.7259684 -0.5407022 0.4249836
vn -0.7259684 -0.5407022 0.4249836
vn -0.5927088 0.5491228 0.5892032
vn -0.5927088 0.5491228 0.5892032
vn -0.5927088 0.5491229 0.5892032
vn -0.02542508 -0.7790895 0.626397
vn -0.0003993419 -0.7382088 0.6745721
vn 0.006883352 -0.7243357 0.6894131
vn -0.02448886 -0.7859793 0.6177675
vn 0.03910057 -0.8315024 0.5541435
vn 0.01920835 -0.8494403 0.527335
vn 0.1636543 -0.8961604 0.4124486
vn 0.135517 -0.9184197 0.3716727
vn 0.2092979 -0.9381192 0.2759107
vn 0.184 -0.9541492 0.2361002
vn -0.5373287 0.7346882 -0.414139
vn -0.5373287 0.7346882 -0.414139
vn -0.5373287 0.7346882 -0.414139
vn -0.9156187 -0.3049861 -0.2619653
vn -0.9156187 -0.3049861 -0.2619653
vn -0.9156187 -0.3049861 -0.2619653
vn 0.1402714 -0.4818366 -0.864961
vn 0.03095661 -0.4864147 -0.8731794
vn 0.02676004 -0.4942961 -0.8688817
vn -0.02704651 -0.5391205 -0.8417942
vn -0.02916927 -0.5389939 -0.8418045
vn -0.02004742 -0.5861718 -0.8099387
vn -0.01614126 -0.5850142 -0.8108624
vn -0.1019153 -0.6742712 -0.7314176
vn -0.1059252 -0.6893046 -0.7166862
vn -0.07450674 0.7531794 -0.6535822
vn -0.07786489 0.7946658 -0.6020327
vn -0.04802303 0.7193521 -0.6929838
vn -0.0906047 0.8082263 -0.5818601
vn -0.06188511 0.8203989 -0.5684327
vn -0.05862936 0.8309795 -0.5532048
vn -0.02071818 0.729079 -0.6841159
vn -0.03047829 0.7323486 -0.6802475
vn 0.1916369 0.5319012 -0.8248373
vn 0.2117688 0.4987741 -0.8404632
vn 0.3251148 0.4803167 -0.8146142
vn 0.03529699 -0.005412345 0.9993622
vn 0.03092539 -0.01228385 0.9994462
vn -0.00870614 -0.04194786 0.9990819
vn 0.1405663 0.05566964 0.9885049
vn -0.00347177 -0.03322806 0.9994418
vn -0.02186208 -0.02198489 0.9995192
vn 0.01063048 -0.01803057 0.999781
vn -0.03222309 0.009867121 0.9994319
vn -0.005517782 0.01199677 0.9999129
vn -0.07025216 0.05880564 0.9957944
vn -0.02192053 0.9997597 1.907408E-07
vn -5.76718E-07 1 2.007263E-07
vn -0.02275721 0.999741 -2.365982E-05
vn -6.111106E-07 1 2.241432E-07
vn -0.0281098 0.9996049 -2.752219E-05
vn -0.02733685 0.9996263 0.0002572197
vn -0.03176975 0.9994905 0.00308
vn -0.02727415 0.9996276 0.0008692858
vn -0.04687481 0.9989002 0.001037708
vn -0.04200594 0.9991112 -0.003474772
vn 0.03363876 0.5778056 0.8154809
vn 0.03869272 0.5315774 0.8461255
vn 0.04592326 0.6057793 0.7943063
vn 0.02782746 0.5069928 0.861501
vn 0.03298795 0.7687407 0.6387092
vn 0.04791461 0.7922234 0.6083471
vn -0.05078613 0.789701 0.6113861
vn -0.04904837 0.783437 0.6195327
vn -0.04610814 0.6977599 0.7148462
vn -0.04120668 0.681208 0.7309294
vn 0.9987448 0.02518656 -0.04329323
vn 0.9987448 0.02518656 -0.04329324
vn 0.9987448 0.02518656 -0.04329324
vn 0.9987448 0.02518655 -0.04329323
g BM_Stone_01_0
f 3/3/3 2/2/2 1/1/1
f 4/4/4 1/1/1 2/2/2
f 7/7/7 6/6/6 5/5/5
f 8/8/8 5/5/5 6/6/6
f 5/5/5 9/9/9 7/7/7
f 10/10/10 7/7/7 9/9/9
f 9/9/9 11/11/11 10/10/10
f 12/12/12 10/10/10 11/11/11
f 11/11/11 13/13/13 12/12/12
f 14/14/14 12/12/12 13/13/13
f 13/13/13 15/15/15 14/14/14
f 16/16/16 14/14/14 15/15/15
f 19/19/19 18/18/18 17/17/17
f 20/20/20 17/17/17 18/18/18
f 23/23/23 22/22/22 21/21/21
f 24/24/24 21/21/21 22/22/22
f 25/25/25 21/21/21 24/24/24
f 28/28/28 27/27/27 26/26/26
f 29/29/29 26/26/26 27/27/27
f 32/32/32 31/31/31 30/30/30
f 33/33/33 30/30/30 31/31/31
f 36/36/36 35/35/35 34/34/34
f 37/37/37 34/34/34 35/35/35
f 40/40/40 39/39/39 38/38/38
f 41/41/41 38/38/38 39/39/39
f 44/44/44 43/43/43 42/42/42
f 45/45/45 42/42/42 43/43/43
f 48/48/48 47/47/47 46/46/46
f 51/51/51 50/50/50 49/49/49
f 54/54/54 53/53/53 52/52/52
f 57/57/57 56/56/56 55/55/55
f 58/58/58 55/55/55 56/56/56
f 57/57/57 59/59/59 56/56/56
f 60/60/60 56/56/56 59/59/59
f 59/59/59 61/61/61 60/60/60
f 62/62/62 60/60/60 61/61/61
f 61/61/61 63/63/63 62/62/62
f 64/64/64 62/62/62 63/63/63
f 67/67/67 66/66/66 65/65/65
f 70/70/70 69/69/69 68/68/68
f 73/73/73 72/72/72 71/71/71
f 72/72/72 73/73/73 74/74/74
f 75/75/75 74/74/74 73/73/73
f 75/75/75 76/76/76 74/74/74
f 77/77/77 74/74/74 76/76/76
f 77/77/77 76/76/76 78/78/78
f 79/79/79 78/78/78 76/76/76
f 82/82/82 81/81/81 80/80/80
f 83/83/83 80/80/80 81/81/81
f 81/81/81 84/84/84 83/83/83
f 85/85/85 83/83/83 84/84/84
f 85/85/85 84/84/84 86/86/86
f 87/87/87 86/86/86 84/84/84
f 87/87/87 88/88/88 86/86/86
f 89/89/89 86/86/86 88/88/88
f 88/88/88 90/90/90 89/89/89
f 93/93/93 92/92/92 91/91/91
f 94/94/94 91/91/91 92/92/92
f 93/93/93 91/91/91 95/95/95
f 96/96/96 95/95/95 91/91/91
f 95/95/95 96/96/96 97/97/97
f 98/98/98 97/97/97 96/96/96
f 97/97/97 98/98/98 99/99/99
f 100/100/100 99/99/99 98/98/98
f 103/103/103 102/102/102 101/101/101
f 104/104/104 101/101/101 102/102/102
f 101/101/101 105/105/105 103/103/103
f 106/106/106 103/103/103 105/105/105
f 105/105/105 107/107/107 106/106/106
f 108/108/108 106/106/106 107/107/107
f 107/107/107 109/109/109 108/108/108
f 110/110/110 108/108/108 109/109/109
f 113/113/113 112/112/112 111/111/111
f 114/114/114 111/111/111 112/112/112
f 111/111/111 115/115/115 113/113/113
f 116/116/116 113/113/113 115/115/115
f 116/116/116 115/115/115 117/117/117
f 118/118/118 117/117/117 115/115/115
f 117/117/117 118/118/118 119/119/119
f 120/120/120 119/119/119 118/118/118
f 123/123/123 122/122/122 121/121/121
f 124/124/124 121/121/121 122/122/122
