g BM_StoneBridge_collider
v 1.171357 0.6615476 -1.76672
v 2.294817 0.1982165 1.76672
v 1.171357 0.6615473 1.76672
v 2.294817 0.1982168 -1.76672
v 3.734967 -0.7969387 -1.76672
v 3.734967 -0.796939 1.76672
v 0 0.8171713 -1.76672
v 1.171357 0.6615473 1.76672
v 0 0.817171 1.76672
v 1.171357 0.6615476 -1.76672
v -1.171357 0.6615476 -1.76672
v -1.171357 0.6615473 1.76672
v -2.294817 0.1982168 -1.76672
v -1.171357 0.6615473 1.76672
v -2.294817 0.1982165 1.76672
v -1.171357 0.6615476 -1.76672
v -3.763656 -0.8114655 -1.76672
v -3.763656 -0.8114658 1.76672
vt 0.2444755 0.9940456
vt 0.04866236 0.9158205
vt 0.04866236 0.9940456
vt 0.2444755 0.9158205
vt 0.2444755 0.8357685
vt 0.04866236 0.8357685
vt 0.2615442 0.9158205
vt 0.05130108 0.8357685
vt 0.05130108 0.9158205
vt 0.2615442 0.8357685
vt 0.2615442 0.9940456
vt 0.05130108 0.9940456
vt 0.005393071 0.9158205
vt 0.2012062 0.9940456
vt 0.2012062 0.9158205
vt 0.005393071 0.9940456
vt 0.005393071 0.8357685
vt 0.2012062 0.8357685
vn 0.2586488 0.9659714 0
vn 0.4775938 0.8785808 0
vn 0.2586488 0.9659714 0
vn 0.4775938 0.8785808 0
vn 0.5684871 0.8226922 0
vn 0.5684871 0.8226922 0
vn 0 1 0
vn 0.2586488 0.9659714 0
vn 0 1 0
vn 0.2586488 0.9659714 0
vn -0.2586488 0.9659714 0
vn -0.2586488 0.9659714 0
vn -0.4765193 0.879164 0
vn -0.2586488 0.9659714 0
vn -0.4765193 0.879164 0
vn -0.2586488 0.9659714 0
vn -0.5664737 0.8240798 0
vn -0.5664738 0.8240798 0
g BM_StoneBridge_collider_0
f 3/3/3 2/2/2 1/1/1
f 4/4/4 1/1/1 2/2/2
f 4/4/4 2/2/2 5/5/5
f 6/6/6 5/5/5 2/2/2
f 9/9/9 8/8/8 7/7/7
f 10/10/10 7/7/7 8/8/8
f 7/7/7 11/11/11 9/9/9
f 12/12/12 9/9/9 11/11/11
f 15/15/15 14/14/14 13/13/13
f 16/16/16 13/13/13 14/14/14
f 13/13/13 17/17/17 15/15/15
f 18/18/18 15/15/15 17/17/17
