g El_Bricks_01
v -0.5618344 -0.1095328 0.1742728
v -0.5618343 0.1351566 0.5018288
v -0.5618344 -0.1095328 0.5018288
v -0.5618343 0.1351567 0.1814745
v -0.4926887 -0.1312149 0.1672204
v 0.09831794 -0.1095328 0.5490233
v 0.143294 0.1351566 0.4702629
v 0.1452021 -0.1095328 0.4702629
v 0.08027049 0.1351566 0.5505811
v 0.5618373 -0.1095328 0.5018288
v 0.5618373 0.1351566 0.5018288
v -0.5618344 -0.1095328 0.5018288
v -0.5618343 0.1351566 0.5018288
v 0.5618373 -0.1095328 0.5018288
v 0.5618368 0.1351569 -0.5448473
v 0.5618368 -0.1095326 -0.5448473
v 0.5618373 0.1351566 0.5018288
v -0.06656789 0.1351564 0.1237503
v 0.143294 0.1351566 0.4702629
v 0.08027049 0.1351566 0.5505811
v 0.06266919 0.1351567 0.03460156
v -0.07369342 -0.1351568 0.1196371
v -0.197527 -0.1351568 0.1106731
v -0.1919567 0.1351564 0.1150999
v -0.5618343 0.1351567 0.1814745
v -0.4926887 -0.1312149 0.1672204
v 0.05139716 -0.1351568 0.03195004
v 0.2068016 0.1351568 -0.2098645
v 0.1944029 -0.1351568 -0.2106052
v 0.2818685 0.1351569 -0.5505815
v 0.2561602 -0.1312145 -0.500964
v 0.5618368 0.1351569 -0.5448473
v 0.5618373 0.1351566 0.5018288
v -0.5618343 0.1351566 0.5018288
v 0.2818685 0.1351569 -0.5505815
v 0.5618368 -0.1095326 -0.5448473
v 0.5618368 0.1351569 -0.5448473
v 0.2624448 -0.1095326 -0.5505815
v 0.2561602 -0.1312145 -0.500964
vt 0.1059504 0.5295808
vt 0.09855205 0.5503271
vt 0.1059504 0.5581166
vt 0.09826401 0.5279761
vt 0.1034029 0.524728
vt 0.04755406 0.5581172
vt 0.04546228 0.5503277
vt 0.04340674 0.5581172
vt 0.05020738 0.5503277
vt 0.006551671 0.5581175
vt 0.01394978 0.550328
vt 0.1059504 0.5581166
vt 0.09855205 0.5503271
vt 0.006551671 0.5581175
vt 0.01394978 0.461685
vt 0.006551443 0.4538956
vt 0.01394978 0.550328
vt 0.06093857 0.5193778
vt 0.04546228 0.5503277
vt 0.05020738 0.5503277
vt 0.05027761 0.5144619
vt 0.06211644 0.5151554
vt 0.07150703 0.5170389
vt 0.07051164 0.521222
vt 0.09826401 0.5279761
vt 0.1034029 0.524728
vt 0.05383112 0.5115148
vt 0.0383926 0.4937539
vt 0.04316965 0.4922261
vt 0.03206816 0.4616849
vt 0.03607731 0.4569387
vt 0.01394978 0.461685
vt 0.01394978 0.550328
vt 0.09855205 0.5503271
vt 0.03206816 0.4616849
vt 0.006551443 0.4538956
vt 0.01394978 0.461685
vt 0.0322286 0.4538955
vt 0.03607731 0.4569387
vn -0.6762022 0.02167389 -0.7363973
vn -1 1.558996E-07 0
vn -1 1.558996E-07 0
vn -0.9880171 0.004540888 -0.1542778
vn -0.09232728 0.02929381 -0.9952977
vn 0.4685156 0.004651496 0.8834429
vn 0.4182161 0.02464203 0.9080133
vn 0.4589306 0.003578822 0.8884649
vn 0.3851115 0.02408278 0.9225558
vn -0.07531989 -0.0001979527 0.9971595
vn -0.0752048 0 0.9971681
vn -0.07469065 -0.002683806 0.9972031
vn -0.07570785 0 0.9971301
vn 1 0 -4.062325E-07
vn 1 -1.331067E-07 -4.320215E-07
vn 1 -1.558995E-07 -4.373499E-07
vn 1 0 -4.009041E-07
vn -0.1623353 0.7959689 -0.5831643
vn -4.761332E-07 1 0
vn -2.897895E-07 1 -4.868169E-07
vn -0.4684726 0.7702587 -0.4327066
vn -0.260601 0.02307842 -0.9651707
vn -0.0564222 0.01371523 -0.9983128
vn -0.03835745 0.6868024 -0.7258314
vn -0.1089875 0.8023482 -0.5868212
vn -0.1881098 0.003726225 -0.9821409
vn -0.7319125 0.03719462 -0.6803827
vn -0.6067356 0.7585354 -0.2376885
vn -0.9294381 0.04578196 -0.3661268
vn -0.5842386 0.801716 -0.1261613
vn -0.976755 0.05571283 -0.2069924
vn 0 1 2.273437E-07
vn 0 1 2.551207E-07
vn 4.124632E-07 1 -1.480299E-07
vn -0.08977088 0.00782375 -0.9959317
vn 0.01987021 -0.0006949752 -0.9998024
vn 0.02047736 0 -0.9997904
vn -0.7568454 0.06007913 -0.6508269
vn -0.9927004 0.07880155 -0.09130277
g El_Bricks_01_0
f 3/3/3 2/2/2 1/1/1
f 4/4/4 1/1/1 2/2/2
f 5/5/5 1/1/1 4/4/4
f 8/8/8 7/7/7 6/6/6
f 9/9/9 6/6/6 7/7/7
f 8/8/8 10/10/10 7/7/7
f 11/11/11 7/7/7 10/10/10
f 6/6/6 9/9/9 12/12/12
f 13/13/13 12/12/12 9/9/9
f 16/16/16 15/15/15 14/14/14
f 17/17/17 14/14/14 15/15/15
f 20/20/20 19/19/19 18/18/18
f 21/21/21 18/18/18 19/19/19
f 18/18/18 21/21/21 22/22/22
f 22/22/22 23/23/23 18/18/18
f 24/24/24 18/18/18 23/23/23
f 24/24/24 20/20/20 18/18/18
f 24/24/24 23/23/23 25/25/25
f 26/26/26 25/25/25 23/23/23
f 27/27/27 22/22/22 21/21/21
f 21/21/21 28/28/28 27/27/27
f 28/28/28 21/21/21 19/19/19
f 29/29/29 27/27/27 28/28/28
f 28/28/28 30/30/30 29/29/29
f 31/31/31 29/29/29 30/30/30
f 30/30/30 28/28/28 32/32/32
f 32/32/32 28/28/28 19/19/19
f 33/33/33 32/32/32 19/19/19
f 25/25/25 34/34/34 24/24/24
f 34/34/34 20/20/20 24/24/24
f 37/37/37 36/36/36 35/35/35
f 38/38/38 35/35/35 36/36/36
f 35/35/35 38/38/38 39/39/39
