g El_Center_Floor_Inside
v -4.49419E-06 3.129672 3.662109E-06
v -4.49419E-06 -3.662109E-06 4.882812E-06
v 1.399061 -4.272461E-06 -0.1863269
v 1.399061 3.129672 -0.1863275
v 1.399061 3.129672 -0.1863275
v 1.399061 -4.272461E-06 -0.1863269
v 2.717936 -4.272461E-06 -0.7326208
v 2.717936 3.129672 -0.7326208
v 2.717936 3.129672 -0.7326208
v 2.717936 -4.272461E-06 -0.7326208
v 3.856407 -4.882812E-06 -1.606097
v 3.856407 3.129672 -1.606097
v 1.401201 4.352489 -0.1784229
v -4.492998E-06 4.352489 0.008187866
v -4.492998E-06 3.17253 0.002536621
v 1.39974 3.17253 -0.1838788
v 2.722058 4.352489 -0.7255371
v 1.401201 4.352489 -0.1784229
v 1.39974 3.17253 -0.1838788
v 2.719234 3.17253 -0.7304303
v 3.862208 4.352489 -1.600297
v 2.722058 4.352489 -0.7255371
v 2.719234 3.17253 -0.7304303
v 3.858214 3.17253 -1.60429
v 1.442089 4.347374 -0.03723816
v -4.386902E-06 4.347363 0.1545148
v -4.492998E-06 4.352489 0.008187866
v 1.401201 4.352489 -0.1784229
v 2.799653 4.347393 -0.5994909
v 2.722058 4.352489 -0.7255371
v 3.96775 4.347417 -1.494753
v 3.862208 4.352489 -1.600297
v 4.738448 4.352488 -2.738964
v 4.864494 4.347392 -2.661368
v 5.285563 4.352488 -4.059821
v 5.426747 4.347373 -4.018934
v 5.472173 4.352488 -5.461027
v 5.6185 4.347362 -5.461027
v 1.39974 3.17253 -0.1838788
v -4.492998E-06 3.17253 0.002536621
v -4.49419E-06 3.129672 3.662109E-06
v 1.399061 3.129672 -0.1863275
v 2.719234 3.17253 -0.7304303
v 1.39974 3.17253 -0.1838788
v 1.399061 3.129672 -0.1863275
v 2.717936 3.129672 -0.7326208
v 3.858214 3.17253 -1.60429
v 2.719234 3.17253 -0.7304303
v 2.717936 3.129672 -0.7326208
v 3.856407 3.129672 -1.606097
v 1.445004 5.456262 -0.02715454
v -4.379749E-06 5.456263 0.1650043
v -4.386902E-06 4.347363 0.1545148
v 1.442089 4.347374 -0.03723816
v 2.805155 5.456262 -0.5905444
v 1.445004 5.456262 -0.02715454
v 1.442089 4.347374 -0.03723816
v 2.799653 4.347393 -0.5994909
v 3.975178 5.456262 -1.487325
v 2.805155 5.456262 -0.5905444
v 2.799653 4.347393 -0.5994909
v 3.96775 4.347417 -1.494753
v 5.463989 3.129671 -5.461027
v 5.277658 3.129671 -4.06196
v 5.277658 -5.493164E-06 -4.06196
v 5.46399 -4.882812E-06 -5.461027
v 5.277658 3.129671 -4.06196
v 4.731365 3.129671 -2.743087
v 4.731365 -4.882812E-06 -2.743086
v 5.277658 -5.493164E-06 -4.06196
v 4.731365 3.129671 -2.743087
v 3.856407 3.129672 -1.606097
v 3.856407 -4.882812E-06 -1.606097
v 4.731365 -4.882812E-06 -2.743086
v 5.285563 4.352488 -4.059821
v 5.280107 3.172529 -4.061282
v 5.466522 3.172529 -5.461027
v 5.472173 4.352488 -5.461027
v 4.738448 4.352488 -2.738964
v 4.733555 3.172529 -2.741788
v 5.280107 3.172529 -4.061282
v 5.285563 4.352488 -4.059821
v 3.862208 4.352489 -1.600297
v 3.858214 3.17253 -1.60429
v 4.733555 3.172529 -2.741788
v 4.738448 4.352488 -2.738964
v 5.280107 3.172529 -4.061282
v 5.277658 3.129671 -4.06196
v 5.463989 3.129671 -5.461027
v 5.466522 3.172529 -5.461027
v 4.733555 3.172529 -2.741788
v 4.731365 3.129671 -2.743087
v 5.277658 3.129671 -4.06196
v 5.280107 3.172529 -4.061282
v 3.858214 3.17253 -1.60429
v 3.856407 3.129672 -1.606097
v 4.731365 3.129671 -2.743087
v 4.733555 3.172529 -2.741788
v 5.436831 5.456261 -4.016019
v 5.426747 4.347373 -4.018934
v 5.6185 4.347362 -5.461027
v 5.62899 5.456262 -5.461027
v 4.873441 5.456262 -2.655868
v 4.864494 4.347392 -2.661368
v 5.426747 4.347373 -4.018934
v 5.436831 5.456261 -4.016019
v 3.975178 5.456262 -1.487325
v 3.96775 4.347417 -1.494753
v 4.864494 4.347392 -2.661368
v 4.873441 5.456262 -2.655868
vt 0.3008142 0.4771056
vt 0.3007975 0.2624716
vt 0.202897 0.2624777
vt 0.2029055 0.4771128
vt 0.2029055 0.4771128
vt 0.202897 0.2624777
vt 0.1049964 0.262478
vt 0.1049898 0.477113
vt 0.1049898 0.477113
vt 0.1049964 0.262478
vt 0.007095337 0.262473
vt 0.007081389 0.477107
vt 0.2788492 0.1175415
vt 0.4017647 0.1175415
vt 0.4017647 0.006713253
vt 0.2788492 0.006713253
vt 0.1430994 0.1175415
vt 0.2788492 0.1175415
vt 0.2788492 0.006713253
vt 0.1430994 0.006713253
vt 0.007159606 0.1175415
vt 0.1430994 0.1175415
vt 0.1430994 0.006713253
vt 0.007159606 0.006713253
vt 0.2788492 0.1313518
vt 0.4017647 0.1313518
vt 0.4017647 0.1175415
vt 0.2788492 0.1175415
vt 0.1430994 0.1313518
vt 0.1430994 0.1175415
vt 0.007159606 0.1313518
vt 0.007159606 0.1175415
vt 0.1430994 0.1175415
vt 0.1430994 0.1313518
vt 0.2788492 0.1175415
vt 0.2788492 0.1313518
vt 0.4017647 0.1175415
vt 0.4017647 0.1313518
vt 0.2029059 0.4800574
vt 0.3008397 0.4800493
vt 0.3008142 0.4771056
vt 0.2029055 0.4771128
vt 0.1049861 0.4800577
vt 0.2029059 0.4800574
vt 0.2029055 0.4771128
vt 0.1049898 0.477113
vt 0.00705266 0.4800508
vt 0.1049861 0.4800577
vt 0.1049898 0.477113
vt 0.007081389 0.477107
vt 0.2788492 0.2355847
vt 0.4017647 0.2358981
vt 0.4017647 0.1313518
vt 0.2788492 0.1313518
vt 0.1430994 0.2355847
vt 0.2788492 0.2355847
vt 0.2788492 0.1313518
vt 0.1430994 0.1313518
vt 0.007159606 0.2355847
vt 0.1430994 0.2355847
vt 0.1430994 0.1313518
vt 0.007159606 0.1313518
vt 0.3008142 0.4771056
vt 0.2029055 0.4771128
vt 0.202897 0.2624777
vt 0.3007975 0.2624716
vt 0.2029055 0.4771128
vt 0.1049898 0.477113
vt 0.1049964 0.262478
vt 0.202897 0.2624777
vt 0.1049898 0.477113
vt 0.007081389 0.477107
vt 0.007095337 0.262473
vt 0.1049964 0.262478
vt 0.2788492 0.1175415
vt 0.2788492 0.006713253
vt 0.4017647 0.006713253
vt 0.4017647 0.1175415
vt 0.1430994 0.1175415
vt 0.1430994 0.006713253
vt 0.2788492 0.006713253
vt 0.2788492 0.1175415
vt 0.007159606 0.1175415
vt 0.007159606 0.006713253
vt 0.1430994 0.006713253
vt 0.1430994 0.1175415
vt 0.2029059 0.4800574
vt 0.2029055 0.4771128
vt 0.3008142 0.4771056
vt 0.3008397 0.4800493
vt 0.1049861 0.4800577
vt 0.1049898 0.477113
vt 0.2029055 0.4771128
vt 0.2029059 0.4800574
vt 0.00705266 0.4800508
vt 0.007081389 0.477107
vt 0.1049898 0.477113
vt 0.1049861 0.4800577
vt 0.2788492 0.2355847
vt 0.2788492 0.1313518
vt 0.4017647 0.1313518
vt 0.4017647 0.2358981
vt 0.1430994 0.2355847
vt 0.1430994 0.1313518
vt 0.2788492 0.1313518
vt 0.2788492 0.2355847
vt 0.007159606 0.2355847
vt 0.007159606 0.1313518
vt 0.1430994 0.1313518
vt 0.1430994 0.2355847
vn -0.1320171 -2.887826E-07 -0.9912475
vn -0.1320171 -2.887826E-07 -0.9912475
vn -0.1320171 -2.887826E-07 -0.9912475
vn -0.1320171 -2.887826E-07 -0.9912475
vn -0.3826822 0 -0.92388
vn -0.3826822 0 -0.92388
vn -0.3826822 0 -0.92388
vn -0.3826822 0 -0.92388
vn -0.608716 -1.087262E-07 -0.7933881
vn -0.608716 -1.087262E-07 -0.7933881
vn -0.6087161 -1.087262E-07 -0.7933881
vn -0.608716 -1.087262E-07 -0.7933881
vn -0.1320114 0.00474709 -0.9912368
vn -0.1320114 0.00474709 -0.9912368
vn -0.1320114 0.00474709 -0.9912368
vn -0.1320114 0.00474709 -0.9912368
vn -0.382678 0.004746308 -0.9238696
vn -0.382678 0.004746308 -0.9238696
vn -0.382678 0.004746308 -0.9238696
vn -0.382678 0.004746308 -0.9238696
vn -0.6087067 0.004745775 -0.7933811
vn -0.6087068 0.004745775 -0.7933811
vn -0.6087068 0.004745775 -0.7933811
vn -0.6087067 0.004745775 -0.7933811
vn 0.004645002 0.9993788 0.03493492
vn 0.004645001 0.9993788 0.03493492
vn 0.004645002 0.9993788 0.03493492
vn 0.004645002 0.9993788 0.03493492
vn 0.01335617 0.9993901 0.03226376
vn 0.01335617 0.9993901 0.03226376
vn 0.02093943 0.9994074 0.02732
vn 0.02093943 0.9994074 0.02732
vn 0.03226358 0.9993901 0.01335606
vn 0.03226358 0.9993901 0.01335606
vn 0.03493495 0.9993788 0.004644951
vn 0.03493495 0.9993788 0.004644952
vn 0.03493495 0.9993788 0.004644952
vn 0.03493495 0.9993788 0.004644951
vn -0.1317882 0.05855422 -0.9895471
vn -0.1317882 0.05855422 -0.9895471
vn -0.1317883 0.05855423 -0.9895471
vn -0.1317883 0.05855422 -0.9895471
vn -0.3820218 0.05873088 -0.9222852
vn -0.3820218 0.05873088 -0.9222852
vn -0.3820219 0.05873087 -0.9222852
vn -0.3820218 0.05873088 -0.9222852
vn -0.6076555 0.05896414 -0.7920089
vn -0.6076555 0.05896414 -0.7920089
vn -0.6076555 0.05896414 -0.7920089
vn -0.6076555 0.05896414 -0.7920088
vn -0.1318088 0.009368325 -0.991231
vn -0.1318088 0.009368325 -0.991231
vn -0.1318088 0.009368325 -0.991231
vn -0.1318088 0.009368325 -0.991231
vn -0.3826457 0.009379567 -0.9238476
vn -0.3826457 0.009379567 -0.9238476
vn -0.3826457 0.009379567 -0.9238476
vn -0.3826457 0.009379567 -0.9238476
vn -0.6082945 0.009406435 -0.7936557
vn -0.6082945 0.009406434 -0.7936557
vn -0.6082945 0.009406435 -0.7936557
vn -0.6082945 0.009406435 -0.7936557
vn -0.9912475 -2.887824E-07 -0.1320171
vn -0.9912475 -2.887824E-07 -0.1320171
vn -0.9912475 -2.887825E-07 -0.1320171
vn -0.9912475 -2.887824E-07 -0.1320171
vn -0.92388 -1.639359E-07 -0.3826824
vn -0.92388 -1.63936E-07 -0.3826824
vn -0.92388 -1.639359E-07 -0.3826824
vn -0.92388 -1.639359E-07 -0.3826824
vn -0.7925059 -2.174937E-07 -0.6098642
vn -0.7925059 -2.174937E-07 -0.6098642
vn -0.7925059 -2.174937E-07 -0.6098642
vn -0.7925059 -2.174937E-07 -0.6098642
vn -0.9912368 0.004747088 -0.1320113
vn -0.9912368 0.004747088 -0.1320113
vn -0.9912368 0.004747088 -0.1320113
vn -0.9912368 0.004747088 -0.1320113
vn -0.9238696 0.004746506 -0.3826782
vn -0.9238696 0.004746506 -0.3826782
vn -0.9238696 0.004746506 -0.3826782
vn -0.9238696 0.004746506 -0.3826783
vn -0.7924997 0.004746127 -0.6098538
vn -0.7924997 0.004746126 -0.6098538
vn -0.7924997 0.004746126 -0.6098537
vn -0.7924997 0.004746127 -0.6098538
vn -0.9895471 0.05855415 -0.1317882
vn -0.9895471 0.05855415 -0.1317882
vn -0.9895471 0.05855416 -0.1317882
vn -0.9895471 0.05855415 -0.1317882
vn -0.9222851 0.05873083 -0.3820221
vn -0.9222851 0.05873083 -0.3820221
vn -0.9222851 0.05873083 -0.3820221
vn -0.9222851 0.05873083 -0.3820222
vn -0.7911285 0.05896321 -0.6088013
vn -0.7911285 0.05896321 -0.6088013
vn -0.7911285 0.05896321 -0.6088013
vn -0.7911285 0.05896321 -0.6088013
vn -0.991231 0.009368321 -0.1318088
vn -0.991231 0.009368321 -0.1318088
vn -0.991231 0.009368321 -0.1318088
vn -0.991231 0.009368321 -0.1318088
vn -0.9238476 0.00937935 -0.3826455
vn -0.9238476 0.00937935 -0.3826455
vn -0.9238476 0.009379349 -0.3826455
vn -0.9238476 0.00937935 -0.3826455
vn -0.7927969 0.009406279 -0.6094134
vn -0.7927969 0.00940628 -0.6094134
vn -0.7927968 0.00940628 -0.6094134
vn -0.7927969 0.00940628 -0.6094134
g El_Center_Floor_Inside_0
f 3/3/3 2/2/2 1/1/1
f 4/4/4 3/3/3 1/1/1
f 7/7/7 6/6/6 5/5/5
f 8/8/8 7/7/7 5/5/5
f 11/11/11 10/10/10 9/9/9
f 12/12/12 11/11/11 9/9/9
f 15/15/15 14/14/14 13/13/13
f 16/16/16 15/15/15 13/13/13
f 19/19/19 18/18/18 17/17/17
f 20/20/20 19/19/19 17/17/17
f 23/23/23 22/22/22 21/21/21
f 24/24/24 23/23/23 21/21/21
f 27/27/27 26/26/26 25/25/25
f 28/28/28 27/27/27 25/25/25
f 28/28/28 25/25/25 29/29/29
f 30/30/30 28/28/28 29/29/29
f 30/30/30 29/29/29 31/31/31
f 32/32/32 30/30/30 31/31/31
f 33/33/33 32/32/32 31/31/31
f 34/34/34 33/33/33 31/31/31
f 35/35/35 33/33/33 34/34/34
f 36/36/36 35/35/35 34/34/34
f 37/37/37 35/35/35 36/36/36
f 38/38/38 37/37/37 36/36/36
f 41/41/41 40/40/40 39/39/39
f 42/42/42 41/41/41 39/39/39
f 45/45/45 44/44/44 43/43/43
f 46/46/46 45/45/45 43/43/43
f 49/49/49 48/48/48 47/47/47
f 50/50/50 49/49/49 47/47/47
f 53/53/53 52/52/52 51/51/51
f 54/54/54 53/53/53 51/51/51
f 57/57/57 56/56/56 55/55/55
f 58/58/58 57/57/57 55/55/55
f 61/61/61 60/60/60 59/59/59
f 62/62/62 61/61/61 59/59/59
f 65/65/65 64/64/64 63/63/63
f 66/66/66 65/65/65 63/63/63
f 69/69/69 68/68/68 67/67/67
f 70/70/70 69/69/69 67/67/67
f 73/73/73 72/72/72 71/71/71
f 74/74/74 73/73/73 71/71/71
f 77/77/77 76/76/76 75/75/75
f 78/78/78 77/77/77 75/75/75
f 81/81/81 80/80/80 79/79/79
f 82/82/82 81/81/81 79/79/79
f 85/85/85 84/84/84 83/83/83
f 86/86/86 85/85/85 83/83/83
f 89/89/89 88/88/88 87/87/87
f 90/90/90 89/89/89 87/87/87
f 93/93/93 92/92/92 91/91/91
f 94/94/94 93/93/93 91/91/91
f 97/97/97 96/96/96 95/95/95
f 98/98/98 97/97/97 95/95/95
f 101/101/101 100/100/100 99/99/99
f 102/102/102 101/101/101 99/99/99
f 105/105/105 104/104/104 103/103/103
f 106/106/106 105/105/105 103/103/103
f 109/109/109 108/108/108 107/107/107
f 110/110/110 109/109/109 107/107/107
