g El_Groud_Brick_Out_1
v -0.2881592 0.006981484 3.68657
v 1.219575 -0.0009705104 -0.5124777
v 2.616571 0.004702964 2.483399
v -1.418732 0.001099029 0.5803421
v -0.2605212 -0.006981482 -3.686569
v -2.616556 -0.00513335 -2.710664
vt 0.02805453 0.03772453
vt 0.3543063 0.4307017
vt 0.3319441 0.01697541
vt 0.05466853 0.452591
vt 0.3725665 0.9604406
vt 0.1006866 0.9795402
vn 0 0.9999982 -0.001893758
vn 0 0.9999982 -0.001893758
vn 0 0.9999982 -0.001893758
vn 0 0.9999982 -0.001893758
vn 0 0.9999982 -0.001893758
vn 0 0.9999982 -0.001893757
g El_Groud_Brick_Out_1_0
f 3/3/3 2/2/2 1/1/1
f 4/4/4 1/1/1 2/2/2
f 2/2/2 5/5/5 4/4/4
f 6/6/6 4/4/4 5/5/5
