g El_InSide_Stone_01
v 1.06562 0.3608229 -0.550334
v -0.9674132 0.3608214 0.7620886
v -1.049535 0.3608229 -0.5158513
v 0.9926997 0.3608214 0.7256526
v 1.108888 0.3789101 -0.6096374
v 1.047274 0.3789073 0.7505973
v 3.222176 0.3789102 -0.4845978
v 2.996801 0.3789073 0.896499
v -1.027368 0.3843077 0.8095163
v -1.093522 0.3843104 -0.5581668
v -3.002418 0.3816089 1.008745
v -3.243961 0.3816089 -0.3832895
v 0.9926997 0.3608214 0.7256526
v -0.9564915 0.2433019 0.7701785
v -0.9674132 0.3608214 0.7620886
v 0.9816663 0.2433019 0.7341594
v 1.047274 0.3789073 0.7505973
v 1.036254 0.2433019 0.759132
v 2.996801 0.3789073 0.896499
v 2.998147 0.2417015 0.8883069
v -1.016443 0.2433019 0.8176372
v -1.027368 0.3843077 0.8095163
v -3.005775 0.2425026 1.020036
v -3.002418 0.3816089 1.008745
v 0.9816663 0.2433019 0.7341594
v -0.9925739 0.2262096 0.6499671
v -0.9564915 0.2433019 0.7701785
v 0.9878243 0.2262096 0.614533
v -2.93971 0.230083 0.9121791
v -1.016443 0.2433019 0.8176372
v -3.005775 0.2425026 1.020036
v 0.9878243 0.2262096 0.614533
v -0.9939252 -0.2498256 0.6889682
v -0.9925739 0.2262096 0.6499671
v 0.9884849 -0.2498255 0.6289301
v -2.946255 -0.249825 0.9131355
v -2.93971 0.230083 0.9121791
v 1.022882 0.2262096 0.6595462
v 1.023562 -0.2498255 0.6739436
v 2.937333 0.2339556 0.7896565
v 2.953673 -0.2498255 0.8004969
v 0.9884849 -0.2498255 0.6289301
v -0.9783776 -0.2655543 0.7585909
v -0.9939252 -0.2498256 0.6889682
v 0.9855607 -0.2655543 0.718026
v 1.023562 -0.2498255 0.6739436
v 1.020352 -0.2655543 0.7610891
v 2.953673 -0.2498255 0.8004969
v 3.021487 -0.2576899 0.863208
v -1.017781 -0.2655543 0.8303007
v -3.01913 -0.2616215 1.010596
v -2.946255 -0.249825 0.9131355
v 0.9855607 -0.2655543 0.718026
v -0.9679891 -0.3780604 0.7538769
v -0.9783776 -0.2655543 0.7585909
v 0.9747167 -0.3780604 0.7137288
v 1.020352 -0.2655543 0.7610891
v 1.009487 -0.3780604 0.7568179
v 3.004641 -0.3843107 0.8586988
v 3.021487 -0.2576899 0.863208
v -1.007356 -0.3780604 0.8256167
v -1.017781 -0.2655543 0.8303007
v -3.01156 -0.3811849 1.010247
v -3.01913 -0.2616215 1.010596
v 0.9747167 -0.3780604 0.7137288
v -1.049491 -0.3780589 -0.5414454
v -0.9679891 -0.3780604 0.7538769
v 1.065389 -0.3780589 -0.5759318
v 1.009487 -0.3780604 0.7568179
v 1.108244 -0.3780589 -0.6202561
v 3.004641 -0.3843107 0.8586988
v 3.233982 -0.3843091 -0.4845297
v -1.093427 -0.3780589 -0.5837612
v -1.007356 -0.3780604 0.8256167
v -3.258065 -0.3811847 -0.4000017
v -3.01156 -0.3811849 1.010247
v 1.022882 0.2262096 0.6595462
v 2.998147 0.2417015 0.8883069
v 2.937333 0.2339556 0.7896565
v 2.998147 0.2417015 0.8883069
v 1.022882 0.2262096 0.6595462
v 1.036254 0.2433019 0.759132
v 1.06562 0.3608229 -0.550334
v -1.037143 0.2433033 -0.5276454
v 1.05284 0.2433033 -0.5617082
v -1.049535 0.3608229 -0.5158513
v 1.096122 0.2433033 -0.6209916
v 1.108888 0.3789101 -0.6096374
v 3.222176 0.3789102 -0.4845978
v 3.224612 0.2417035 -0.5007555
v -1.093522 0.3843104 -0.5581668
v -1.08112 0.2433033 -0.569941
v -3.244921 0.2425025 -0.3855706
v -3.243961 0.3816089 -0.3832895
v 1.05284 0.2433033 -0.5617082
v -1.076483 0.2262097 -0.4094962
v 1.076465 0.2262097 -0.4438492
v -1.037143 0.2433033 -0.5276454
v -1.08112 0.2433033 -0.569941
v -3.210956 0.2300827 -0.2564851
v -3.244921 0.2425025 -0.3855706
v 1.076465 0.2262097 -0.4438492
v -1.075902 -0.2498241 -0.4239178
v 1.07576 -0.2498241 -0.4582528
v -1.076483 0.2262097 -0.4094962
v -3.144615 -0.2498248 -0.271084
v -3.210956 0.2300827 -0.2564851
v 1.104163 -0.2498241 -0.5359192
v 1.104888 0.2262097 -0.521518
v 3.185434 0.2339563 -0.3875147
v 3.132662 -0.2498245 -0.3795943
v 1.07576 -0.2498241 -0.4582528
v -1.060788 -0.2655529 -0.5319754
v 1.077231 -0.2655529 -0.5668554
v -1.075902 -0.2498241 -0.4239178
v -3.267285 -0.2616213 -0.4000207
v -1.104723 -0.2655529 -0.5743111
v -3.144615 -0.2498248 -0.271084
v 1.077231 -0.2655529 -0.5668554
v -1.049491 -0.3780589 -0.5414454
v 1.065389 -0.3780589 -0.5759318
v -1.060788 -0.2655529 -0.5319754
v 1.108244 -0.3780589 -0.6202561
v 1.120079 -0.2655529 -0.6112
v -1.104723 -0.2655529 -0.5743111
v -1.093427 -0.3780589 -0.5837612
v -3.258065 -0.3811847 -0.4000017
v -3.267285 -0.2616213 -0.4000207
v 3.250685 -0.2576885 -0.4850115
v 3.233982 -0.3843091 -0.4845297
v 1.104888 0.2262097 -0.521518
v 3.224612 0.2417035 -0.5007555
v 1.096122 0.2433033 -0.6209916
v 3.224612 0.2417035 -0.5007555
v 1.104888 0.2262097 -0.521518
v 3.185434 0.2339563 -0.3875147
v 0.9878243 0.2262096 0.614533
v 1.036254 0.2433019 0.759132
v 1.022882 0.2262096 0.6595462
v 1.036254 0.2433019 0.759132
v 0.9878243 0.2262096 0.614533
v 0.9816663 0.2433019 0.7341594
v 1.05284 0.2433033 -0.5617082
v 1.104888 0.2262097 -0.521518
v 1.096122 0.2433033 -0.6209916
v 1.104888 0.2262097 -0.521518
v 1.05284 0.2433033 -0.5617082
v 1.076465 0.2262097 -0.4438492
v 1.07576 -0.2498241 -0.4582528
v 1.120079 -0.2655529 -0.6112
v 1.104163 -0.2498241 -0.5359192
v 1.120079 -0.2655529 -0.6112
v 1.07576 -0.2498241 -0.4582528
v 1.077231 -0.2655529 -0.5668554
v -0.9564915 0.2433019 0.7701785
v -0.9925739 0.2262096 0.6499671
v -1.016443 0.2433019 0.8176372
v -1.076483 0.2262097 -0.4094962
v -1.037143 0.2433033 -0.5276454
v -1.08112 0.2433033 -0.569941
v -1.060788 -0.2655529 -0.5319754
v -1.075902 -0.2498241 -0.4239178
v -1.104723 -0.2655529 -0.5743111
v 1.120079 -0.2655529 -0.6112
v 3.132662 -0.2498245 -0.3795943
v 1.104163 -0.2498241 -0.5359192
v 3.132662 -0.2498245 -0.3795943
v 1.120079 -0.2655529 -0.6112
v 3.250685 -0.2576885 -0.4850115
v 3.222176 0.3789102 -0.4845978
v 2.998147 0.2417015 0.8883069
v 2.996801 0.3789073 0.896499
v 3.224612 0.2417035 -0.5007555
v 3.224612 0.2417035 -0.5007555
v 2.937333 0.2339556 0.7896565
v 2.998147 0.2417015 0.8883069
v 2.937333 0.2339556 0.7896565
v 3.224612 0.2417035 -0.5007555
v 3.185434 0.2339563 -0.3875147
v 2.937333 0.2339556 0.7896565
v 3.132662 -0.2498245 -0.3795943
v 2.953673 -0.2498255 0.8004969
v 3.185434 0.2339563 -0.3875147
v 3.132662 -0.2498245 -0.3795943
v 3.021487 -0.2576899 0.863208
v 2.953673 -0.2498255 0.8004969
v 3.250685 -0.2576885 -0.4850115
v 3.250685 -0.2576885 -0.4850115
v 3.004641 -0.3843107 0.8586988
v 3.021487 -0.2576899 0.863208
v 3.233982 -0.3843091 -0.4845297
v -3.002418 0.3816089 1.008745
v -3.244921 0.2425025 -0.3855706
v -3.243961 0.3816089 -0.3832895
v -3.005775 0.2425026 1.020036
v -3.005775 0.2425026 1.020036
v -3.210956 0.2300827 -0.2564851
v -3.244921 0.2425025 -0.3855706
v -3.210956 0.2300827 -0.2564851
v -3.005775 0.2425026 1.020036
v -2.93971 0.230083 0.9121791
v -3.210956 0.2300827 -0.2564851
v -2.946255 -0.249825 0.9131355
v -3.144615 -0.2498248 -0.271084
v -2.93971 0.230083 0.9121791
v -2.946255 -0.249825 0.9131355
v -3.267285 -0.2616213 -0.4000207
v -3.144615 -0.2498248 -0.271084
v -3.01913 -0.2616215 1.010596
v -3.01913 -0.2616215 1.010596
v -3.258065 -0.3811847 -0.4000017
v -3.267285 -0.2616213 -0.4000207
v -3.01156 -0.3811849 1.010247
vt 0.2009936 0.2204427
vt 0.281891 0.1178073
vt 0.2012607 0.1178073
vt 0.2816238 0.2204427
vt 0.2009936 0.2251148
vt 0.2816238 0.2251148
vt 0.2009936 0.3307832
vt 0.2816238 0.3307832
vt 0.2816238 0.1120179
vt 0.2009936 0.1120179
vt 0.2816238 0.008165872
vt 0.2009936 0.008165872
vt 0.2816238 0.2204427
vt 0.2920806 0.1178073
vt 0.281891 0.1178073
vt 0.2918135 0.2204427
vt 0.2816238 0.2251148
vt 0.2918135 0.2251148
vt 0.2816238 0.3307832
vt 0.2918135 0.3307832
vt 0.2918135 0.1120179
vt 0.2816238 0.1120179
vt 0.2918135 0.008165872
vt 0.2816238 0.008165872
vt 0.2918135 0.2204427
vt 0.2964694 0.1157164
vt 0.2920806 0.1178073
vt 0.2964694 0.2204427
vt 0.2964694 0.008165872
vt 0.2918135 0.1120179
vt 0.2918135 0.008165872
vt 0.1275237 0.1195048
vt 0.1597749 0.2270519
vt 0.1275237 0.2270519
vt 0.1597749 0.1195048
vt 0.1597749 0.3344969
vt 0.1275237 0.3352599
vt 0.1275237 0.1136334
vt 0.1597749 0.1136334
vt 0.1275237 0.009021889
vt 0.1597749 0.008258876
vt 0.1597749 0.1195048
vt 0.1679132 0.2246394
vt 0.1597749 0.2270519
vt 0.1681604 0.1195048
vt 0.1597749 0.1136334
vt 0.1705995 0.1136334
vt 0.1597749 0.008258876
vt 0.1700903 0.008258876
vt 0.1712261 0.2294734
vt 0.1712261 0.3340454
vt 0.1597749 0.3344969
vt 0.1681604 0.1195048
vt 0.174925 0.2214251
vt 0.1679132 0.2246394
vt 0.1753747 0.1195048
vt 0.1705995 0.1136334
vt 0.1788746 0.1137909
vt 0.1792049 0.007911579
vt 0.1700903 0.008258876
vt 0.1795974 0.2280476
vt 0.1712261 0.2294734
vt 0.1799163 0.3341496
vt 0.1712261 0.3340454
vt 0.02973071 0.07013697
vt 0.05903514 0.04050631
vt 0.0297614 0.04059782
vt 0.05893081 0.07013697
vt 0.02893338 0.07241364
vt 0.06046613 0.07241364
vt 0.02908611 0.1030469
vt 0.06003283 0.1027652
vt 0.05979796 0.03813126
vt 0.02815029 0.03813126
vt 0.05945529 0.00835706
vt 0.0281577 0.008455104
vt 0.2964694 0.2251148
vt 0.2918135 0.3307832
vt 0.2964694 0.3307832
vt 0.2918135 0.3307832
vt 0.2964694 0.2251148
vt 0.2918135 0.2251148
vt 0.2009936 0.2204427
vt 0.1898114 0.1178073
vt 0.1895443 0.2204427
vt 0.2012607 0.1178073
vt 0.1895443 0.2251148
vt 0.2009936 0.2251148
vt 0.2009936 0.3307832
vt 0.1895443 0.3307832
vt 0.2009936 0.1120179
vt 0.1895443 0.1120179
vt 0.1895443 0.008165872
vt 0.2009936 0.008165872
vt 0.1895443 0.2204427
vt 0.183391 0.1132163
vt 0.183391 0.2204427
vt 0.1898114 0.1178073
vt 0.1895443 0.1120179
vt 0.183391 0.008165872
vt 0.1895443 0.008165872
vt 0.1275237 0.1195048
vt 0.1597749 0.2270519
vt 0.1597749 0.1195048
vt 0.1275237 0.2270519
vt 0.1597749 0.3344969
vt 0.1275237 0.3352599
vt 0.1597749 0.1136334
vt 0.1275237 0.1136334
vt 0.1275237 0.009021889
vt 0.1597749 0.008258876
vt 0.1597749 0.1195048
vt 0.1679132 0.2246394
vt 0.1681604 0.1195048
vt 0.1597749 0.2270519
vt 0.1712261 0.3340454
vt 0.1712261 0.2294734
vt 0.1597749 0.3344969
vt 0.1681604 0.1195048
vt 0.174925 0.2214251
vt 0.1753747 0.1195048
vt 0.1679132 0.2246394
vt 0.1788746 0.1137909
vt 0.1705995 0.1136334
vt 0.1712261 0.2294734
vt 0.1795974 0.2280476
vt 0.1799163 0.3341496
vt 0.1712261 0.3340454
vt 0.1703125 0.0083655
vt 0.1792049 0.007911579
vt 0.183391 0.2251148
vt 0.1895443 0.3307832
vt 0.1895443 0.2251148
vt 0.1895443 0.3307832
vt 0.183391 0.2251148
vt 0.183391 0.3307832
vt 0.2964694 0.2204427
vt 0.2918135 0.2251148
vt 0.2964694 0.2251148
vt 0.2918135 0.2251148
vt 0.2964694 0.2204427
vt 0.2918135 0.2204427
vt 0.1895443 0.2204427
vt 0.183391 0.2251148
vt 0.1895443 0.2251148
vt 0.183391 0.2251148
vt 0.1895443 0.2204427
vt 0.183391 0.2204427
vt 0.1597749 0.1195048
vt 0.1705995 0.1136334
vt 0.1597749 0.1136334
vt 0.1705995 0.1136334
vt 0.1597749 0.1195048
vt 0.1681604 0.1195048
vt 0.2920806 0.1178073
vt 0.2964694 0.1157164
vt 0.2918135 0.1120179
vt 0.183391 0.1132163
vt 0.1898114 0.1178073
vt 0.1895443 0.1120179
vt 0.1679132 0.2246394
vt 0.1597749 0.2270519
vt 0.1712261 0.2294734
vt 0.1705995 0.1136334
vt 0.1597749 0.008258876
vt 0.1597749 0.1136334
vt 0.1597749 0.008258876
vt 0.1705995 0.1136334
vt 0.1704288 0.008312644
vt 0.09161393 0.6995395
vt 0.1009496 0.6120707
vt 0.09260067 0.6114308
vt 0.1000861 0.7006781
vt 0.1000861 0.7006781
vt 0.104234 0.6187524
vt 0.1009496 0.6120707
vt 0.104234 0.6187524
vt 0.1000861 0.7006781
vt 0.1032894 0.693813
vt 0.4488002 0.9953386
vt 0.5345832 0.9509429
vt 0.4478895 0.9510977
vt 0.5352898 0.9954637
vt 0.5345832 0.9509429
vt 0.4424516 0.9397452
vt 0.4478895 0.9510977
vt 0.5415806 0.9399171
vt 0.5415806 0.9399171
vt 0.4429154 0.9304975
vt 0.4424516 0.9397452
vt 0.541665 0.9305058
vt 0.09177851 0.7005134
vt 0.1014362 0.6119553
vt 0.09276955 0.6119555
vt 0.1001732 0.7013814
vt 0.1001732 0.7013814
vt 0.1044378 0.6199518
vt 0.1014362 0.6119553
vt 0.1044378 0.6199518
vt 0.1001732 0.7013814
vt 0.1038262 0.6942022
vt 0.4501782 0.9950799
vt 0.5358442 0.9509469
vt 0.4491286 0.9507849
vt 0.5357283 0.9948195
vt 0.5358442 0.9509469
vt 0.4397572 0.9395666
vt 0.4491286 0.9507849
vt 0.5431151 0.9393721
vt 0.5431151 0.9393721
vt 0.4396958 0.9307142
vt 0.4397572 0.9395666
vt 0.5430325 0.930716
vn -0.2648081 0.9641824 -0.01513212
vn 0.2023342 0.9792302 -0.01300113
vn 0.3029573 0.9528903 -0.01472764
vn -0.1695368 0.9854936 -0.007723122
vn -0.1187084 0.9929065 -0.006707672
vn -0.1342238 0.9909325 -0.006077865
vn 0.7454471 0.6553902 0.1215413
vn 0.6646435 0.7392462 0.1084618
vn 0.1348067 0.9908348 -0.008565142
vn 0.1748303 0.9845627 -0.008414057
vn -0.685993 0.7181703 0.1168123
vn -0.7197273 0.682932 0.1248856
vn -0.2487354 0.09313797 0.964083
vn 0.3232519 0.09485841 0.9415466
vn 0.3846938 0.09137572 0.9185103
vn -0.1962838 0.08417827 0.9769272
vn -0.2318987 0.08392091 0.9691131
vn -0.2549126 0.07845236 0.9637764
vn -0.06603923 -0.05449351 0.9963278
vn -0.0656297 -0.06011445 0.9960316
vn 0.3872585 0.08913266 0.9176525
vn 0.3490191 0.08114564 0.9335958
vn 0.09999893 0.07749914 0.9919648
vn 0.09995116 0.07810278 0.9919223
vn 0.002601852 -0.9901477 0.1400033
vn 0.002601851 -0.9901477 0.1400033
vn 0.002601851 -0.9901477 0.1400033
vn 0.002533053 -0.9899248 0.1415713
vn 0.01282481 -0.9924309 0.1221329
vn 0.01282481 -0.9924309 0.1221329
vn 0.01282481 -0.9924309 0.1221329
vn -0.422408 0.03118131 0.9058693
vn 0.0670354 0.07744768 0.9947402
vn 0.06713594 0.07516512 0.9949085
vn -0.4288596 0.02669766 0.9029766
vn -0.5791398 -0.007850675 0.8151904
vn -0.5651591 0.009351181 0.8249289
vn -0.4722373 0.02598962 0.8810883
vn -0.4653809 0.02523171 0.8847508
vn 0.6176968 0.01637995 0.7862457
vn 0.6303048 0.03866426 0.7753844
vn -0.06508569 0.9829178 0.1721523
vn 0.1639562 0.9695535 0.1818915
vn 0.04412344 0.9849933 0.166857
vn -0.1229467 0.9777664 0.1698737
vn -0.1326227 0.9764732 0.1700334
vn -0.07349698 0.9820051 0.1739655
vn 0.04176304 0.9959081 0.08014227
vn 0.05402107 0.9964044 0.06526938
vn 0.05523233 0.9912797 0.1196418
vn -0.05677403 0.9953868 0.07734325
vn -0.05752538 0.9953518 0.07723649
vn -0.4476148 0.008995131 0.8941812
vn 0.4904788 0.008773764 0.871409
vn 0.5449181 0.01534264 0.838349
vn -0.3954169 0.003137548 0.9184965
vn -0.4294866 0.007180959 0.9030447
vn -0.4773024 0.01273598 0.8786468
vn 0.5936578 -0.1071893 0.7975467
vn 0.6468866 -0.1129209 0.7541794
vn 0.5724894 0.01877314 0.8196972
vn 0.5224131 0.0136823 0.8525827
vn -0.5910307 -0.04062464 0.8056254
vn -0.6242207 -0.04227522 0.7801033
vn 7.680772E-07 -1 -1.098451E-06
vn 7.121732E-07 -1 -1.194422E-06
vn -1.051993E-06 -1 -1.027782E-06
vn -7.392923E-07 -1 -1.161613E-06
vn -0.002102632 -0.9999979 -0.0001518943
vn -0.002109669 -0.9999977 -0.0002281564
vn -0.002985468 -0.9999955 -0.0003989926
vn -0.002908451 -0.9999957 -0.0004977491
vn 0.0009707011 -0.9999995 -6.036581E-05
vn 0.001089159 -0.9999994 -0.0001149127
vn 0.001495776 -0.9999989 -0.0001976519
vn 0.00153424 -0.9999988 -0.0002682864
vn -0.001342467 -0.9968657 0.07910056
vn -0.001342467 -0.9968657 0.07910057
vn -0.001342467 -0.9968657 0.07910056
vn -0.01204413 -0.9852462 0.1707187
vn -0.01204413 -0.9852462 0.1707187
vn -0.01204413 -0.9852462 0.1707187
vn -0.5098391 0.1295054 -0.850466
vn 0.3559662 0.1211784 -0.9266088
vn -0.4423931 0.1339354 -0.8867636
vn 0.4432573 0.135667 -0.8860685
vn -0.4404663 0.1242001 -0.8891366
vn -0.3810635 0.1127082 -0.9176533
vn 0.05620914 0.1161443 -0.9916406
vn 0.05609486 0.1177519 -0.9914574
vn 0.2755545 0.1098867 -0.9549841
vn 0.3447799 0.1081847 -0.9324285
vn -0.08122063 0.01935329 -0.9965082
vn -0.08106367 0.0169017 -0.9965656
vn -0.002283075 -0.9897081 -0.1430832
vn -0.002283074 -0.9897081 -0.1430832
vn -0.002283075 -0.9897081 -0.1430832
vn -0.002346132 -0.9895819 -0.1439512
vn -0.00937898 -0.9943574 -0.105666
vn -0.00937898 -0.9943574 -0.105666
vn -0.007622316 -0.9955637 -0.09378089
vn -0.5744606 0.02562501 -0.818131
vn -0.04476716 0.03019701 -0.998541
vn -0.5841295 0.02541209 -0.8112626
vn -0.04471887 0.02949764 -0.9985641
vn -0.7486897 -0.08246564 -0.6577713
vn -0.8179305 -0.0661726 -0.5714989
vn -0.5406218 0.02123308 -0.8409977
vn -0.5502622 0.02608618 -0.8345843
vn 0.8108745 -0.09185019 -0.5779672
vn 0.7778407 -0.06985618 -0.624567
vn -0.002338867 0.9896673 -0.1433639
vn -0.002338867 0.9896673 -0.1433639
vn -0.002338867 0.9896673 -0.1433639
vn -0.002303555 0.9895231 -0.1443565
vn -0.05067353 0.9977291 -0.04437048
vn -0.006475703 0.9946823 -0.1027872
vn -0.06457262 0.9974673 -0.02982463
vn -0.4089563 0.1160051 -0.9051506
vn 0.3495148 0.1133312 -0.9300513
vn -0.3804798 0.114086 -0.9177253
vn 0.3774414 0.1152401 -0.918835
vn -0.3764615 0.1118705 -0.9196531
vn -0.3429913 0.1111595 -0.9327382
vn 0.3152131 0.1093418 -0.942701
vn 0.3475285 0.1130794 -0.9308259
vn -0.775885 -0.05747644 -0.6282507
vn -0.8027773 -0.06200357 -0.5930465
vn 0.8015956 -0.1060915 -0.5883783
vn 0.7557399 -0.102153 -0.6468555
vn 0.008868713 -0.9853852 -0.1701099
vn 0.008868711 -0.9853852 -0.1701099
vn 0.008868711 -0.9853852 -0.1701099
vn 0.007935147 -0.9978198 -0.06551932
vn 0.007935147 -0.9978198 -0.06551932
vn 0.007935147 -0.9978198 -0.06551933
vn -0.2522995 -0.9474877 0.1964993
vn -0.2522995 -0.9474877 0.1964993
vn -0.2522995 -0.9474877 0.1964993
vn -0.06312077 -0.988422 0.137977
vn -0.06312078 -0.988422 0.137977
vn -0.06312078 -0.988422 0.137977
vn -0.2032582 -0.9678144 -0.1483957
vn -0.2032583 -0.9678144 -0.1483957
vn -0.2032583 -0.9678144 -0.1483957
vn -0.2470397 -0.9647788 -0.09040515
vn -0.2470397 -0.9647788 -0.09040515
vn -0.2470397 -0.9647788 -0.09040515
vn -0.771713 0.5699197 -0.2822243
vn -0.771713 0.5699197 -0.2822244
vn -0.771713 0.5699197 -0.2822243
vn -0.1487335 0.9783788 -0.1437121
vn -0.1487335 0.9783788 -0.1437121
vn -0.1487335 0.9783788 -0.1437121
vn 0.08998593 -0.9894347 0.113673
vn 0.08998594 -0.9894347 0.113673
vn 0.08998594 -0.9894347 0.113673
vn 0.1041968 -0.9886383 -0.1083388
vn 0.1041967 -0.9886383 -0.1083388
vn 0.1041967 -0.9886383 -0.1083388
vn 0.1216864 0.9845025 -0.1262827
vn 0.1216864 0.9845025 -0.1262827
vn 0.1216864 0.9845025 -0.1262827
vn 0.01551705 0.9793966 -0.2013494
vn 0.01551706 0.9793966 -0.2013494
vn 0.01551705 0.9793966 -0.2013494
vn 0.000680009 0.997285 -0.0736348
vn 0.000680009 0.997285 -0.0736348
vn 0.000680009 0.997285 -0.0736348
vn 0.7454471 0.6553902 0.1215413
vn 0.9869468 -1.897755E-05 0.1610464
vn 0.6646435 0.7392462 0.1084618
vn 0.9869681 -0.001424364 0.1609095
vn 0.1002111 -0.994832 0.01633642
vn 0.1002111 -0.994832 0.01633642
vn 0.1002111 -0.994832 0.01633641
vn 0.4494488 -0.8882697 0.09472563
vn 0.4494488 -0.8882697 0.09472563
vn 0.4494488 -0.8882697 0.09472564
vn 0.6176968 0.01637995 0.7862457
vn 0.7778407 -0.06985618 -0.624567
vn 0.6303048 0.03866426 0.7753844
vn 0.8108745 -0.09185019 -0.5779672
vn 0.07888792 0.9967939 0.0133653
vn 0.05402107 0.9964044 0.06526938
vn 0.04176304 0.9959081 0.08014227
vn 0.07831217 0.99684 0.01331409
vn 0.8015956 -0.1060915 -0.5883783
vn 0.5936578 -0.1071893 0.7975467
vn 0.6468866 -0.1129209 0.7541794
vn 0.7557399 -0.102153 -0.6468555
vn -0.685993 0.7181703 0.1168123
vn -0.9852943 0.006105801 0.1707561
vn -0.7197273 0.682932 0.1248856
vn -0.9851445 0.03737868 0.16761
vn -0.7137359 -0.6898079 0.1214333
vn -0.7137359 -0.6898079 0.1214333
vn -0.7137359 -0.6898079 0.1214333
vn -0.1350166 -0.9903476 0.03133737
vn -0.1350166 -0.9903476 0.03133737
vn -0.1350166 -0.9903476 0.03133737
vn -0.8179305 -0.0661726 -0.5714989
vn -0.5791398 -0.007850675 0.8151904
vn -0.7486897 -0.08246564 -0.6577713
vn -0.5651591 0.009351181 0.8249289
vn -0.05752538 0.9953518 0.07723649
vn -0.05067353 0.9977291 -0.04437048
vn -0.06457262 0.9974673 -0.02982463
vn -0.05677403 0.9953868 0.07734325
vn -0.6242207 -0.04227522 0.7801033
vn -0.775885 -0.05747644 -0.6282507
vn -0.8027773 -0.06200357 -0.5930465
vn -0.5910307 -0.04062464 0.8056254
g El_InSide_Stone_01_0
f 3/3/3 2/2/2 1/1/1
f 4/4/4 1/1/1 2/2/2
f 1/1/1 4/4/4 5/5/5
f 6/6/6 5/5/5 4/4/4
f 5/5/5 6/6/6 7/7/7
f 8/8/8 7/7/7 6/6/6
f 2/2/2 3/3/3 9/9/9
f 10/10/10 9/9/9 3/3/3
f 9/9/9 10/10/10 11/11/11
f 12/12/12 11/11/11 10/10/10
f 15/15/15 14/14/14 13/13/13
f 16/16/16 13/13/13 14/14/14
f 13/13/13 16/16/16 17/17/17
f 18/18/18 17/17/17 16/16/16
f 17/17/17 18/18/18 19/19/19
f 20/20/20 19/19/19 18/18/18
f 14/14/14 15/15/15 21/21/21
f 22/22/22 21/21/21 15/15/15
f 21/21/21 22/22/22 23/23/23
f 24/24/24 23/23/23 22/22/22
f 27/27/27 26/26/26 25/25/25
f 28/28/28 25/25/25 26/26/26
f 26/26/26 30/30/30 29/29/29
f 31/31/31 29/29/29 30/30/30
f 34/34/34 33/33/33 32/32/32
f 35/35/35 32/32/32 33/33/33
f 33/33/33 34/34/34 36/36/36
f 37/37/37 36/36/36 34/34/34
f 32/32/32 35/35/35 38/38/38
f 39/39/39 38/38/38 35/35/35
f 38/38/38 39/39/39 40/40/40
f 41/41/41 40/40/40 39/39/39
f 44/44/44 43/43/43 42/42/42
f 45/45/45 42/42/42 43/43/43
f 42/42/42 45/45/45 46/46/46
f 47/47/47 46/46/46 45/45/45
f 46/46/46 47/47/47 48/48/48
f 49/49/49 48/48/48 47/47/47
f 50/50/50 43/43/43 44/44/44
f 50/50/50 44/44/44 51/51/51
f 52/52/52 51/51/51 44/44/44
f 55/55/55 54/54/54 53/53/53
f 56/56/56 53/53/53 54/54/54
f 53/53/53 56/56/56 57/57/57
f 58/58/58 57/57/57 56/56/56
f 58/58/58 59/59/59 57/57/57
f 60/60/60 57/57/57 59/59/59
f 54/54/54 55/55/55 61/61/61
f 62/62/62 61/61/61 55/55/55
f 61/61/61 62/62/62 63/63/63
f 64/64/64 63/63/63 62/62/62
f 67/67/67 66/66/66 65/65/65
f 68/68/68 65/65/65 66/66/66
f 65/65/65 68/68/68 69/69/69
f 70/70/70 69/69/69 68/68/68
f 69/69/69 70/70/70 71/71/71
f 72/72/72 71/71/71 70/70/70
f 66/66/66 67/67/67 73/73/73
f 74/74/74 73/73/73 67/67/67
f 73/73/73 74/74/74 75/75/75
f 76/76/76 75/75/75 74/74/74
f 79/79/79 78/78/78 77/77/77
f 82/82/82 81/81/81 80/80/80
f 85/85/85 84/84/84 83/83/83
f 86/86/86 83/83/83 84/84/84
f 85/85/85 83/83/83 87/87/87
f 88/88/88 87/87/87 83/83/83
f 88/88/88 89/89/89 87/87/87
f 90/90/90 87/87/87 89/89/89
f 86/86/86 84/84/84 91/91/91
f 92/92/92 91/91/91 84/84/84
f 92/92/92 93/93/93 91/91/91
f 94/94/94 91/91/91 93/93/93
f 97/97/97 96/96/96 95/95/95
f 98/98/98 95/95/95 96/96/96
f 96/96/96 100/100/100 99/99/99
f 101/101/101 99/99/99 100/100/100
f 104/104/104 103/103/103 102/102/102
f 105/105/105 102/102/102 103/103/103
f 103/103/103 106/106/106 105/105/105
f 107/107/107 105/105/105 106/106/106
f 104/104/104 102/102/102 108/108/108
f 109/109/109 108/108/108 102/102/102
f 109/109/109 110/110/110 108/108/108
f 111/111/111 108/108/108 110/110/110
f 114/114/114 113/113/113 112/112/112
f 115/115/115 112/112/112 113/113/113
f 117/117/117 116/116/116 115/115/115
f 118/118/118 115/115/115 116/116/116
f 121/121/121 120/120/120 119/119/119
f 122/122/122 119/119/119 120/120/120
f 121/121/121 119/119/119 123/123/123
f 124/124/124 123/123/123 119/119/119
f 122/122/122 120/120/120 125/125/125
f 126/126/126 125/125/125 120/120/120
f 126/126/126 127/127/127 125/125/125
f 128/128/128 125/125/125 127/127/127
f 124/124/124 129/129/129 123/123/123
f 130/130/130 123/123/123 129/129/129
f 133/133/133 132/132/132 131/131/131
f 136/136/136 135/135/135 134/134/134
f 139/139/139 138/138/138 137/137/137
f 142/142/142 141/141/141 140/140/140
f 145/145/145 144/144/144 143/143/143
f 148/148/148 147/147/147 146/146/146
f 151/151/151 150/150/150 149/149/149
f 154/154/154 153/153/153 152/152/152
f 157/157/157 156/156/156 155/155/155
f 160/160/160 159/159/159 158/158/158
f 163/163/163 162/162/162 161/161/161
f 166/166/166 165/165/165 164/164/164
f 169/169/169 168/168/168 167/167/167
f 172/172/172 171/171/171 170/170/170
f 173/173/173 170/170/170 171/171/171
f 176/176/176 175/175/175 174/174/174
f 179/179/179 178/178/178 177/177/177
f 182/182/182 181/181/181 180/180/180
f 183/183/183 180/180/180 181/181/181
f 186/186/186 185/185/185 184/184/184
f 187/187/187 184/184/184 185/185/185
f 190/190/190 189/189/189 188/188/188
f 191/191/191 188/188/188 189/189/189
f 194/194/194 193/193/193 192/192/192
f 195/195/195 192/192/192 193/193/193
f 198/198/198 197/197/197 196/196/196
f 201/201/201 200/200/200 199/199/199
f 204/204/204 203/203/203 202/202/202
f 205/205/205 202/202/202 203/203/203
f 208/208/208 207/207/207 206/206/206
f 209/209/209 206/206/206 207/207/207
f 212/212/212 211/211/211 210/210/210
f 213/213/213 210/210/210 211/211/211
