g El_InSide_Stone_02
v -2.112784 0.368044 0.7636392
v -0.07130986 0.3635232 -0.5075977
v -0.07241558 0.3635215 0.7563674
v -2.18509 0.3680441 -0.5148419
v -0.02744271 0.3816103 -0.5652442
v -0.02285506 0.3816074 0.8054022
v 2.109384 0.3816105 -0.4555759
v 1.946755 0.3816077 0.9286487
v -2.101475 0.2456026 0.773829
v -0.07241558 0.3635215 0.7563674
v -0.08468253 0.246002 0.7643983
v -2.112784 0.368044 0.7636392
v -0.02285506 0.3816074 0.8054022
v -0.02872907 0.246002 0.8136883
v 1.946755 0.3816077 0.9286487
v 1.948283 0.2444016 0.9204578
v -2.062819 0.2308464 0.6516415
v -0.08468253 0.246002 0.7643983
v -0.07858499 0.2289098 0.6584716
v -2.101475 0.2456026 0.773829
v -2.066318 -0.2471249 0.6890312
v -0.07858499 0.2289098 0.6584716
v -0.07841343 -0.2471254 0.6728873
v -2.062819 0.2308464 0.6516415
v -0.04232815 0.2289097 0.7049485
v -0.04213532 -0.2471254 0.7193645
v 1.876238 0.2366557 0.8602707
v 1.903657 -0.2471254 0.8169017
v -2.122309 -0.2608874 0.7682419
v -0.07841343 -0.2471254 0.6728873
v -0.05965431 -0.2628542 0.762912
v -2.066318 -0.2471249 0.6890312
v -0.04213532 -0.2471254 0.7193645
v -0.02767112 -0.2628542 0.8074235
v 1.903657 -0.2471254 0.8169017
v 1.973812 -0.2549897 0.8952143
v -2.109977 -0.376922 0.7683553
v -0.05965431 -0.2628542 0.762912
v -0.07123275 -0.3753603 0.7581567
v -2.122309 -0.2608874 0.7682419
v -0.02767112 -0.2628542 0.8074235
v -0.03927264 -0.3753603 0.8026918
v 1.955567 -0.3816104 0.8908432
v 1.973812 -0.2549897 0.8952143
v -2.191011 -0.3769218 -0.5167935
v -0.07123275 -0.3753603 0.7581567
v -0.07054916 -0.3753586 -0.5331855
v -2.109977 -0.376922 0.7683553
v -0.03927264 -0.3753603 0.8026918
v -0.02765395 -0.3753587 -0.5758793
v 1.955567 -0.3816104 0.8908432
v 2.120759 -0.3816088 -0.4555973
v 1.948283 0.2444016 0.9204578
v -0.04232815 0.2289097 0.7049485
v -0.02872907 0.246002 0.8136883
v 1.876238 0.2366557 0.8602707
v -2.177004 0.2456029 -0.5212376
v -0.07130986 0.3635232 -0.5075977
v -2.18509 0.3680441 -0.5148419
v -0.0831577 0.2460036 -0.5194402
v -0.0392777 0.2460036 -0.5770659
v -0.02744271 0.3816103 -0.5652442
v 2.109384 0.3816105 -0.4555759
v 2.111871 0.2444039 -0.4717283
v -2.128155 0.2308466 -0.4081393
v -0.0831577 0.2460036 -0.5194402
v -2.177004 0.2456029 -0.5212376
v -0.06497385 0.2289101 -0.4007873
v -2.134664 -0.2471244 -0.4250319
v -0.06497385 0.2289101 -0.4007873
v -2.128155 0.2308466 -0.4081393
v -0.06509864 -0.2471238 -0.4152064
v -0.01935769 -0.2471238 -0.4551595
v -0.03467078 0.2289101 -0.4773395
v 2.073146 0.2366566 -0.3583578
v 2.065931 -0.2471242 -0.3527993
v -2.196168 -0.2608871 -0.5144065
v -0.06509864 -0.2471238 -0.4152064
v -2.134664 -0.2471244 -0.4250319
v -0.05951447 -0.2628526 -0.5236743
v -0.01662604 -0.2628526 -0.5663892
v -0.01935769 -0.2471238 -0.4551595
v 2.065931 -0.2471242 -0.3527993
v 2.136854 -0.2549881 -0.4562036
v -2.191011 -0.3769218 -0.5167935
v -0.05951447 -0.2628526 -0.5236743
v -2.196168 -0.2608871 -0.5144065
v -0.07054916 -0.3753586 -0.5331855
v -0.02765395 -0.3753587 -0.5758793
v -0.01662604 -0.2628526 -0.5663892
v 2.136854 -0.2549881 -0.4562036
v 2.120759 -0.3816088 -0.4555973
v 2.111871 0.2444039 -0.4717283
v -0.03467078 0.2289101 -0.4773395
v 2.073146 0.2366566 -0.3583578
v -0.03467078 0.2289101 -0.4773395
v 2.111871 0.2444039 -0.4717283
v -0.0392777 0.2460036 -0.5770659
v -0.02872907 0.246002 0.8136883
v -0.07858499 0.2289098 0.6584716
v -0.08468253 0.246002 0.7643983
v -0.07858499 0.2289098 0.6584716
v -0.02872907 0.246002 0.8136883
v -0.04232815 0.2289097 0.7049485
v -0.03467078 0.2289101 -0.4773395
v -0.0831577 0.2460036 -0.5194402
v -0.06497385 0.2289101 -0.4007873
v -0.0831577 0.2460036 -0.5194402
v -0.03467078 0.2289101 -0.4773395
v -0.0392777 0.2460036 -0.5770659
v 1.948283 0.2444016 0.9204578
v 2.109384 0.3816105 -0.4555759
v 2.111871 0.2444039 -0.4717283
v 1.946755 0.3816077 0.9286487
v 1.876238 0.2366557 0.8602707
v 2.111871 0.2444039 -0.4717283
v 2.073146 0.2366566 -0.3583578
v 2.111871 0.2444039 -0.4717283
v 1.876238 0.2366557 0.8602707
v 1.948283 0.2444016 0.9204578
v 2.065931 -0.2471242 -0.3527993
v 1.876238 0.2366557 0.8602707
v 2.073146 0.2366566 -0.3583578
v 1.903657 -0.2471254 0.8169017
v 1.973812 -0.2549897 0.8952143
v 2.065931 -0.2471242 -0.3527993
v 2.136854 -0.2549881 -0.4562036
v 1.903657 -0.2471254 0.8169017
v 1.955567 -0.3816104 0.8908432
v 2.136854 -0.2549881 -0.4562036
v 2.120759 -0.3816088 -0.4555973
v 1.973812 -0.2549897 0.8952143
v -2.177004 0.2456029 -0.5212376
v -2.112784 0.368044 0.7636392
v -2.101475 0.2456026 0.773829
v -2.18509 0.3680441 -0.5148419
v -2.128155 0.2308466 -0.4081393
v -2.101475 0.2456026 0.773829
v -2.062819 0.2308464 0.6516415
v -2.177004 0.2456029 -0.5212376
v -2.066318 -0.2471249 0.6890312
v -2.128155 0.2308466 -0.4081393
v -2.062819 0.2308464 0.6516415
v -2.134664 -0.2471244 -0.4250319
v -2.196168 -0.2608871 -0.5144065
v -2.066318 -0.2471249 0.6890312
v -2.122309 -0.2608874 0.7682419
v -2.134664 -0.2471244 -0.4250319
v -2.191011 -0.3769218 -0.5167935
v -2.122309 -0.2608874 0.7682419
v -2.109977 -0.376922 0.7683553
v -2.196168 -0.2608871 -0.5144065
vt 0.2812204 0.120825
vt 0.2009936 0.2204427
vt 0.2816238 0.2204427
vt 0.2022666 0.1218309
vt 0.2009936 0.2251148
vt 0.2816238 0.2251148
vt 0.2009936 0.3291067
vt 0.2816238 0.3291067
vt 0.29141 0.120825
vt 0.2816238 0.2204427
vt 0.2918135 0.2204427
vt 0.2812204 0.120825
vt 0.2816238 0.2251148
vt 0.2918135 0.2251148
vt 0.2816238 0.3291067
vt 0.2918135 0.3291067
vt 0.2957988 0.1187341
vt 0.2918135 0.2204427
vt 0.2964694 0.2204427
vt 0.29141 0.120825
vt 0.1597749 0.2270519
vt 0.1275237 0.1195048
vt 0.1597749 0.1195048
vt 0.1275237 0.2270519
vt 0.1275237 0.1136334
vt 0.1597749 0.1136334
vt 0.1275237 0.009021889
vt 0.1597749 0.008258876
vt 0.1679132 0.2246394
vt 0.1597749 0.1195048
vt 0.1681604 0.1195048
vt 0.1597749 0.2270519
vt 0.1597749 0.1136334
vt 0.1705995 0.1136334
vt 0.1597749 0.008258876
vt 0.1700903 0.008258876
vt 0.174925 0.2214251
vt 0.1681604 0.1195048
vt 0.1753747 0.1195048
vt 0.1679132 0.2246394
vt 0.1705995 0.1136334
vt 0.1788746 0.1137909
vt 0.1792049 0.007911579
vt 0.1700903 0.008258876
vt 0.05903514 0.04050631
vt 0.02973071 0.07013697
vt 0.05893081 0.07013697
vt 0.0297614 0.04059782
vt 0.02893338 0.07241364
vt 0.06046613 0.07241364
vt 0.02908611 0.1030469
vt 0.06003283 0.1027652
vt 0.2918135 0.3291067
vt 0.2964694 0.2251148
vt 0.2918135 0.2251148
vt 0.2964694 0.3291067
vt 0.1908173 0.1218309
vt 0.2009936 0.2204427
vt 0.2022666 0.1218309
vt 0.1895443 0.2204427
vt 0.1895443 0.2251148
vt 0.2009936 0.2251148
vt 0.2009936 0.3291067
vt 0.1895443 0.3291067
vt 0.1843969 0.1172399
vt 0.1895443 0.2204427
vt 0.1908173 0.1218309
vt 0.183391 0.2204427
vt 0.1597749 0.2270519
vt 0.1275237 0.1195048
vt 0.1275237 0.2270519
vt 0.1597749 0.1195048
vt 0.1597749 0.1136334
vt 0.1275237 0.1136334
vt 0.1275237 0.009021889
vt 0.1597749 0.008258876
vt 0.1679132 0.2246394
vt 0.1597749 0.1195048
vt 0.1597749 0.2270519
vt 0.1681604 0.1195048
vt 0.1705995 0.1136334
vt 0.1597749 0.1136334
vt 0.1597749 0.008258876
vt 0.1701836 0.008194082
vt 0.174925 0.2214251
vt 0.1681604 0.1195048
vt 0.1679132 0.2246394
vt 0.1753747 0.1195048
vt 0.1788746 0.1137909
vt 0.1705995 0.1136334
vt 0.1701836 0.008380989
vt 0.1792049 0.007911579
vt 0.1895443 0.3291067
vt 0.183391 0.2251148
vt 0.183391 0.3291067
vt 0.183391 0.2251148
vt 0.1895443 0.3291067
vt 0.1895443 0.2251148
vt 0.2918135 0.2251148
vt 0.2964694 0.2204427
vt 0.2918135 0.2204427
vt 0.2964694 0.2204427
vt 0.2918135 0.2251148
vt 0.2964694 0.2251148
vt 0.183391 0.2251148
vt 0.1895443 0.2204427
vt 0.183391 0.2204427
vt 0.1895443 0.2204427
vt 0.183391 0.2251148
vt 0.1895443 0.2251148
vt 0.0909612 0.8047733
vt 0.08570151 0.8696284
vt 0.0909003 0.8703073
vt 0.08576242 0.8040946
vt 0.09458871 0.8100309
vt 0.0909003 0.8703073
vt 0.09453786 0.8647566
vt 0.0909003 0.8703073
vt 0.09458871 0.8100309
vt 0.0909612 0.8047733
vt 0.5404039 0.9512513
vt 0.4466545 0.9932575
vt 0.5396025 0.9929903
vt 0.4474559 0.9515185
vt 0.4390674 0.9403535
vt 0.5404039 0.9512513
vt 0.5487981 0.9400864
vt 0.4474559 0.9515185
vt 0.4390674 0.9286848
vt 0.5487981 0.9400864
vt 0.5487981 0.9284176
vt 0.4390674 0.9403535
vt 0.0909612 0.8047733
vt 0.08570151 0.8696284
vt 0.0909003 0.8703073
vt 0.08576242 0.8040946
vt 0.09458871 0.8100309
vt 0.0909003 0.8703073
vt 0.09453786 0.8647566
vt 0.0909612 0.8047733
vt 0.5404039 0.9512513
vt 0.4466545 0.9932575
vt 0.5396025 0.9929903
vt 0.4474559 0.9515185
vt 0.4390674 0.9403535
vt 0.5404039 0.9512513
vt 0.5487981 0.9400864
vt 0.4474559 0.9515185
vt 0.4390674 0.9286848
vt 0.5487981 0.9400864
vt 0.5487981 0.9284176
vt 0.4390674 0.9403535
vn -0.7426776 0.6682495 0.04327314
vn -0.2359675 0.9717609 -0.0002226859
vn -0.2073065 0.9782758 0.0006844204
vn -0.7538958 0.655609 0.0426378
vn -0.1208312 0.9926731 -7.721795E-05
vn -0.1162384 0.9932213 0.0003911327
vn 0.7399595 0.6670081 0.08694962
vn 0.6746908 0.7338315 0.07926932
vn 0.003768063 0.08273497 0.9965644
vn -0.4342791 0.1067625 0.8944291
vn -0.3464327 0.08358651 0.9343434
vn 0.003736098 0.08327831 0.9965193
vn -0.3731858 0.08730341 0.9236398
vn -0.3842351 0.06997444 0.9205797
vn -0.05426211 -0.05474941 0.9970246
vn -0.05387792 -0.06010248 0.9967371
vn -0.001511604 -0.9872431 0.1592136
vn -0.001511604 -0.9872431 0.1592136
vn -0.001511604 -0.9872431 0.1592136
vn 0.0007583325 -0.9927576 0.1201325
vn -0.6696569 0.05765346 0.7404295
vn -0.4320994 0.03118326 0.9012867
vn -0.4382272 0.02703188 0.8984576
vn -0.7008694 0.06072697 0.7106998
vn -0.477359 0.02642265 0.878311
vn -0.4690716 0.01596451 0.8830158
vn 0.601029 -0.03330781 0.7985329
vn 0.6706582 -0.02843784 0.7412211
vn -0.09232481 0.9899914 0.1067385
vn -0.0607948 0.9810301 0.1840758
vn -0.197967 0.9587983 0.2037521
vn -0.117777 0.9890666 0.08874576
vn -0.1941451 0.9587082 0.2078137
vn -0.07234406 0.9799451 0.1856719
vn 0.04320981 0.9971325 0.06212649
vn 0.04685114 0.9971469 0.05918675
vn -0.6556681 -0.06997713 0.7517995
vn -0.482289 0.01350193 0.8759081
vn -0.4251094 0.005600782 0.9051246
vn -0.7053957 -0.0718231 0.7051655
vn -0.4481781 0.00872355 0.8939017
vn -0.5022542 0.0154299 0.8645823
vn 0.6120189 -0.1145879 0.7824976
vn 0.6690131 -0.1217093 0.7332179
vn 0.0007554095 -0.9999998 -3.127032E-05
vn 0.000289489 -1 -7.549942E-06
vn 0.0002912855 -1 -1.093405E-06
vn 0.0007657678 -0.9999998 -4.84923E-05
vn -0.002248033 -0.9999975 -2.014769E-05
vn -0.002012301 -0.999998 -0.0001013783
vn -0.002976476 -0.9999956 -0.0002376992
vn -0.002889255 -0.9999958 -0.0003556362
vn -0.009245953 -0.9876505 0.1564003
vn -0.009245953 -0.9876505 0.1564003
vn -0.009245953 -0.9876505 0.1564003
vn -0.007000758 -0.9907004 0.1358812
vn 0.003442152 0.05403424 -0.9985331
vn -0.4924336 0.1273977 -0.8609756
vn 0.003534448 0.05239619 -0.9986202
vn -0.4275242 0.1332038 -0.8941363
vn -0.432846 0.1235551 -0.8929605
vn -0.3785517 0.1131214 -0.9186415
vn 0.04875495 0.1162407 -0.9920237
vn 0.04865706 0.1176476 -0.9918627
vn 0.000300924 -0.9915788 -0.1295046
vn 0.0003009239 -0.9915788 -0.1295045
vn 0.0003009239 -0.9915788 -0.1295046
vn -0.0004211288 -0.9897907 -0.1425278
vn -0.7216202 0.03373304 -0.6914669
vn -0.5395392 -0.006002218 -0.8419392
vn -0.7323283 0.03414239 -0.6800953
vn -0.3511512 0.0284402 -0.9358867
vn -0.3453983 -0.01359622 -0.9383577
vn -0.5375308 -0.05649246 -0.8413496
vn 0.7781929 -0.02230116 -0.6276291
vn 0.7752364 -0.008720931 -0.6316109
vn -0.08652241 0.9919417 -0.09254947
vn -0.04397567 0.9885684 -0.1442176
vn -0.1307232 0.9894527 -0.06240733
vn -0.09125692 0.9848418 -0.1475087
vn -0.04225352 0.9891017 -0.1410411
vn -0.07059345 0.9874372 -0.1413656
vn 0.07426978 0.9969161 -0.02534502
vn 0.04317522 0.9979948 -0.04628441
vn -0.7141253 -0.01825823 -0.6997797
vn -0.3947487 0.1144784 -0.9116293
vn -0.7427276 -0.0192397 -0.6693172
vn -0.3693315 0.1141916 -0.9222551
vn -0.3691925 0.1121819 -0.9225573
vn -0.340172 0.1120999 -0.9336577
vn 0.7849482 -0.1013952 -0.6112081
vn 0.7389666 -0.09712829 -0.6667042
vn 0.007373896 -0.9978143 -0.06566734
vn 0.007373896 -0.9978143 -0.06566734
vn 0.007373896 -0.9978143 -0.06566734
vn 0.007556136 -0.9855399 -0.1692751
vn 0.007556136 -0.9855399 -0.1692752
vn 0.007556135 -0.9855399 -0.1692751
vn -0.1325364 -0.9796928 0.1504531
vn -0.1325364 -0.9796928 0.1504531
vn -0.1325364 -0.9796928 0.1504531
vn -0.2295675 -0.9566752 0.179085
vn -0.2295675 -0.9566752 0.179085
vn -0.2295675 -0.9566752 0.179085
vn -0.2525023 -0.9624199 -0.09995262
vn -0.2525023 -0.9624199 -0.09995261
vn -0.2525023 -0.9624199 -0.09995262
vn -0.2050523 -0.966216 -0.1561414
vn -0.2050523 -0.966216 -0.1561414
vn -0.2050523 -0.966216 -0.1561414
vn 0.9931605 0.004101858 0.1166851
vn 0.7399595 0.6670081 0.08694962
vn 0.9931579 0.004264792 0.1167011
vn 0.6746908 0.7338315 0.07926932
vn 0.3543279 -0.933367 0.05725188
vn 0.3543279 -0.933367 0.05725188
vn 0.3543279 -0.933367 0.05725188
vn 0.09743491 -0.9951761 0.0114475
vn 0.09743492 -0.9951761 0.0114475
vn 0.09743492 -0.9951761 0.0114475
vn 0.7752364 -0.008720931 -0.6316109
vn 0.601029 -0.03330781 0.7985329
vn 0.7781929 -0.02230116 -0.6276291
vn 0.6706582 -0.02843784 0.7412211
vn 0.04685114 0.9971469 0.05918675
vn 0.07426978 0.9969161 -0.02534502
vn 0.04317522 0.9979948 -0.04628441
vn 0.04320981 0.9971325 0.06212649
vn 0.6120189 -0.1145879 0.7824976
vn 0.7849482 -0.1013952 -0.6112081
vn 0.7389666 -0.09712829 -0.6667042
vn 0.6690131 -0.1217093 0.7332179
vn -0.9959585 -0.06986685 0.05643778
vn -0.7426776 0.6682495 0.04327314
vn -0.994516 -0.08702808 0.05800104
vn -0.7538958 0.655609 0.0426378
vn -0.3042682 -0.9524018 0.01875813
vn -0.3042682 -0.9524018 0.01875813
vn -0.3042682 -0.9524018 0.01875812
vn -0.3296427 -0.9439099 0.01922487
vn -0.6696569 0.05765346 0.7404295
vn -0.7323283 0.03414239 -0.6800953
vn -0.7008694 0.06072697 0.7106998
vn -0.7216202 0.03373304 -0.6914669
vn -0.08652241 0.9919417 -0.09254947
vn -0.117777 0.9890666 0.08874576
vn -0.09232481 0.9899914 0.1067385
vn -0.1307232 0.9894527 -0.06240733
vn -0.7141253 -0.01825823 -0.6997797
vn -0.7053957 -0.0718231 0.7051655
vn -0.6556681 -0.06997713 0.7517995
vn -0.7427276 -0.0192397 -0.6693172
g El_InSide_Stone_02_0
f 3/3/3 2/2/2 1/1/1
f 4/4/4 1/1/1 2/2/2
f 2/2/2 3/3/3 5/5/5
f 6/6/6 5/5/5 3/3/3
f 5/5/5 6/6/6 7/7/7
f 8/8/8 7/7/7 6/6/6
f 11/11/11 10/10/10 9/9/9
f 12/12/12 9/9/9 10/10/10
f 10/10/10 11/11/11 13/13/13
f 14/14/14 13/13/13 11/11/11
f 13/13/13 14/14/14 15/15/15
f 16/16/16 15/15/15 14/14/14
f 19/19/19 18/18/18 17/17/17
f 20/20/20 17/17/17 18/18/18
f 23/23/23 22/22/22 21/21/21
f 24/24/24 21/21/21 22/22/22
f 22/22/22 23/23/23 25/25/25
f 26/26/26 25/25/25 23/23/23
f 25/25/25 26/26/26 27/27/27
f 28/28/28 27/27/27 26/26/26
f 31/31/31 30/30/30 29/29/29
f 32/32/32 29/29/29 30/30/30
f 30/30/30 31/31/31 33/33/33
f 34/34/34 33/33/33 31/31/31
f 33/33/33 34/34/34 35/35/35
f 36/36/36 35/35/35 34/34/34
f 39/39/39 38/38/38 37/37/37
f 40/40/40 37/37/37 38/38/38
f 38/38/38 39/39/39 41/41/41
f 42/42/42 41/41/41 39/39/39
f 42/42/42 43/43/43 41/41/41
f 44/44/44 41/41/41 43/43/43
f 47/47/47 46/46/46 45/45/45
f 48/48/48 45/45/45 46/46/46
f 46/46/46 47/47/47 49/49/49
f 50/50/50 49/49/49 47/47/47
f 49/49/49 50/50/50 51/51/51
f 52/52/52 51/51/51 50/50/50
f 55/55/55 54/54/54 53/53/53
f 56/56/56 53/53/53 54/54/54
f 59/59/59 58/58/58 57/57/57
f 60/60/60 57/57/57 58/58/58
f 60/60/60 58/58/58 61/61/61
f 62/62/62 61/61/61 58/58/58
f 62/62/62 63/63/63 61/61/61
f 64/64/64 61/61/61 63/63/63
f 67/67/67 66/66/66 65/65/65
f 68/68/68 65/65/65 66/66/66
f 71/71/71 70/70/70 69/69/69
f 72/72/72 69/69/69 70/70/70
f 72/72/72 70/70/70 73/73/73
f 74/74/74 73/73/73 70/70/70
f 74/74/74 75/75/75 73/73/73
f 76/76/76 73/73/73 75/75/75
f 79/79/79 78/78/78 77/77/77
f 80/80/80 77/77/77 78/78/78
f 80/80/80 78/78/78 81/81/81
f 82/82/82 81/81/81 78/78/78
f 82/82/82 83/83/83 81/81/81
f 84/84/84 81/81/81 83/83/83
f 87/87/87 86/86/86 85/85/85
f 88/88/88 85/85/85 86/86/86
f 88/88/88 86/86/86 89/89/89
f 90/90/90 89/89/89 86/86/86
f 90/90/90 91/91/91 89/89/89
f 92/92/92 89/89/89 91/91/91
f 95/95/95 94/94/94 93/93/93
f 98/98/98 97/97/97 96/96/96
f 101/101/101 100/100/100 99/99/99
f 104/104/104 103/103/103 102/102/102
f 107/107/107 106/106/106 105/105/105
f 110/110/110 109/109/109 108/108/108
f 113/113/113 112/112/112 111/111/111
f 114/114/114 111/111/111 112/112/112
f 117/117/117 116/116/116 115/115/115
f 120/120/120 119/119/119 118/118/118
f 123/123/123 122/122/122 121/121/121
f 124/124/124 121/121/121 122/122/122
f 127/127/127 126/126/126 125/125/125
f 128/128/128 125/125/125 126/126/126
f 131/131/131 130/130/130 129/129/129
f 132/132/132 129/129/129 130/130/130
f 135/135/135 134/134/134 133/133/133
f 136/136/136 133/133/133 134/134/134
f 139/139/139 138/138/138 137/137/137
f 140/140/140 137/137/137 138/138/138
f 143/143/143 142/142/142 141/141/141
f 144/144/144 141/141/141 142/142/142
f 147/147/147 146/146/146 145/145/145
f 148/148/148 145/145/145 146/146/146
f 151/151/151 150/150/150 149/149/149
f 152/152/152 149/149/149 150/150/150
