g El_Stair_Bricks
v -0.7474381 -0.02671395 -0.5320576
v -1.966967 -0.0267139 0.5140066
v -1.971089 -0.02671386 -0.5300021
v -0.7433147 -0.02671402 0.5119505
v -0.6657441 -0.1385238 -0.579745
v -1.971089 -0.02671386 -0.5300021
v -2.03537 -0.1385238 -0.5774438
v -0.7474381 -0.02671395 -0.5320576
v -2.03537 -0.1385238 -0.5774438
v -1.966967 -0.0267139 0.5140066
v -2.031013 -0.1385238 0.5435999
v -1.971089 -0.02671386 -0.5300021
v -2.031013 -0.1385238 0.5435999
v -0.7433147 -0.02671402 0.5119505
v -0.6613866 -0.1385238 0.5412987
v -1.966967 -0.0267139 0.5140066
v -0.6613866 -0.1385238 0.5412987
v -0.7474381 -0.02671395 -0.5320576
v -0.6657441 -0.1385238 -0.579745
v -0.7433147 -0.02671402 0.5119505
v -0.6520242 0.01022468 0.5179615
v 0.07275719 0.01022481 -0.5078886
v 0.07325359 0.01022465 0.6597028
v -0.6520242 0.01022481 -0.5078881
v 0.4538978 0.01022468 0.3526784
v 0.4470151 0.01022467 0.5686441
v 0.488275 0.01022468 0.4103048
v 0.5709283 0.01022469 0.2110395
v 0.8094767 0.01022481 -0.5078881
v 0.7208925 0.01022472 0.1243788
v 0.8094767 0.01022473 0.1145295
v -0.6978196 -0.1328123 -0.5670137
v -0.6520242 0.01022468 0.5179615
v -0.6978193 -0.1328123 0.545056
v -0.6520242 0.01022481 -0.5078881
v 0.07162247 -0.1328123 0.7049378
v 0.4470151 0.01022467 0.5686441
v 0.4872321 -0.1328123 0.6001541
v 0.07325359 0.01022465 0.6597028
v -0.6520242 0.01022468 0.5179615
v -0.6978193 -0.1328123 0.545056
v 0.5368125 -0.1328123 0.4229801
v 0.488275 0.01022468 0.4103048
v 0.5022958 -0.1328123 0.3731846
v 0.4538978 0.01022468 0.3526784
v 0.6197467 -0.1328123 0.240822
v 0.5709283 0.01022469 0.2110395
v 0.8571473 -0.1328123 0.0708309
v 0.8094767 0.01022481 -0.5078881
v 0.8571473 -0.1328123 -0.5670137
v 0.8094767 0.01022473 0.1145295
v 0.7298903 -0.1328123 0.1338597
v 0.7208925 0.01022472 0.1243788
v 0.6197467 -0.1328123 0.240822
v 0.5709283 0.01022469 0.2110395
v -0.6520242 0.01022481 -0.5078881
v 0.07283367 -0.1328123 -0.5670149
v 0.07275719 0.01022481 -0.5078886
v -0.6978196 -0.1328123 -0.5670137
v 0.8094767 0.01022481 -0.5078881
v 0.8571473 -0.1328123 -0.5670137
v 2.151839 -0.02671397 -0.5164942
v 0.9289573 -0.02671391 0.5274011
v 0.9281846 -0.02671386 -0.5166116
v 2.152612 -0.026714 0.5275182
v 2.233685 -0.1385238 -0.5640364
v 0.9281846 -0.02671386 -0.5166116
v 0.8640552 -0.1385238 -0.5641676
v 2.151839 -0.02671397 -0.5164942
v 0.8640552 -0.1385238 -0.5641676
v 0.9289573 -0.02671391 0.5274011
v 0.8648154 -0.1385238 0.5568805
v 0.9281846 -0.02671386 -0.5166116
v 0.8648154 -0.1385238 0.5568805
v 2.152612 -0.026714 0.5275182
v 2.234445 -0.1385238 0.5570119
v 0.9289573 -0.02671391 0.5274011
v 2.234445 -0.1385238 0.5570119
v 2.151839 -0.02671397 -0.5164942
v 2.233685 -0.1385238 -0.5640364
v 2.152612 -0.026714 0.5275182
vt 0.8379919 0.9216285
vt 0.7701921 0.9871739
vt 0.8379913 0.9871742
vt 0.7701926 0.9216282
vt 0.844554 0.9141408
vt 0.8379913 0.9871742
vt 0.8445528 0.9946624
vt 0.8379919 0.9216285
vt 0.8445528 0.9946624
vt 0.7701921 0.9871739
vt 0.76363 0.9946614
vt 0.8379913 0.9871742
vt 0.76363 0.9946614
vt 0.7701926 0.9216282
vt 0.7636309 0.91414
vt 0.7701921 0.9871739
vt 0.7636309 0.91414
vt 0.8379919 0.9216285
vt 0.844554 0.9141408
vt 0.7701926 0.9216282
vt 0.8568171 0.9195923
vt 0.9229004 0.9902729
vt 0.9231064 0.9061442
vt 0.8568171 0.9902729
vt 0.956111 0.9297795
vt 0.9643887 0.9147836
vt 0.9590165 0.9256651
vt 0.966329 0.9402567
vt 0.9873661 0.9902729
vt 0.9796888 0.9464635
vt 0.9873661 0.9473885
vt 0.8490965 0.9958363
vt 0.8568171 0.9195923
vt 0.8493747 0.9149997
vt 0.8568171 0.9902729
vt 0.9229004 0.8993204
vt 0.9643887 0.9147836
vt 0.970575 0.9095963
vt 0.9231064 0.9061442
vt 0.8568171 0.9195923
vt 0.8493747 0.9149997
vt 0.9840262 0.9124956
vt 0.9758095 0.9171737
vt 0.9894515 0.9136651
vt 0.9812963 0.918322
vt 0.9956435 0.9149997
vt 0.9873661 0.9195923
vt 0.9955249 0.9494712
vt 0.9873661 0.9902729
vt 0.9953653 0.9958363
vt 0.9873661 0.9473885
vt 0.9955789 0.9337872
vt 0.9873661 0.9392053
vt 0.9956435 0.9149997
vt 0.9873661 0.9195923
vt 0.8568171 0.9902729
vt 0.9229004 0.9958363
vt 0.9229004 0.9902729
vt 0.8490965 0.9958363
vt 0.9873661 0.9902729
vt 0.9953653 0.9958363
vt 0.8379919 0.9216285
vt 0.7701921 0.9871739
vt 0.8379913 0.9871742
vt 0.7701926 0.9216282
vt 0.844554 0.9141408
vt 0.8379913 0.9871742
vt 0.8445528 0.9946624
vt 0.8379919 0.9216285
vt 0.8445528 0.9946624
vt 0.7701921 0.9871739
vt 0.76363 0.9946614
vt 0.8379913 0.9871742
vt 0.76363 0.9946614
vt 0.7701926 0.9216282
vt 0.7636309 0.91414
vt 0.7701921 0.9871739
vt 0.7636309 0.91414
vt 0.8379919 0.9216285
vt 0.844554 0.9141408
vt 0.7701926 0.9216282
vn 0 1 0
vn 0 1 0
vn 0 1 0
vn 0 1 0
vn -0.001545782 0.3913561 -0.920238
vn -0.00154612 0.3913527 -0.9202394
vn -0.001546138 0.3913525 -0.9202395
vn -0.001545744 0.3913564 -0.9202379
vn -0.8675392 0.497357 0.00342071
vn -0.867349 0.497689 0.003374778
vn -0.8673341 0.497715 0.003371188
vn -0.8675612 0.4973188 0.003426007
vn 0.001624718 0.2549951 0.9669409
vn 0.00162459 0.2549965 0.9669406
vn 0.001624583 0.2549966 0.9669406
vn 0.001624731 0.254995 0.9669411
vn 0.807004 0.5905374 -0.003182513
vn 0.8068103 0.5908021 -0.003139426
vn 0.8067948 0.5908234 -0.003135954
vn 0.8070258 0.5905076 -0.003187366
vn 0 1 1.329753E-07
vn 0 1 1.40337E-07
vn 0 1 1.258935E-07
vn 0 1 1.220157E-07
vn 0 1 1.037765E-07
vn 0 1 0
vn 0 1 0
vn 0 1 1.232071E-07
vn 0 1 1.579146E-07
vn -1.365683E-07 1 1.203876E-07
vn -1.209429E-07 1 1.225768E-07
vn -0.9523788 0.3049174 0
vn -0.9523793 0.3049162 2.533646E-07
vn -0.9523793 0.304916 2.718127E-07
vn -0.9523787 0.3049176 0
vn 0.01993619 0.2953773 0.9551727
vn 0.6468232 0.3402604 0.6825267
vn 0.6660928 0.3341772 0.6668178
vn 0.024382 0.3011854 0.9532538
vn -0.1958317 0.2490909 0.9484743
vn -0.1973417 0.2430802 0.9497201
vn 0.943855 0.3031608 -0.1312678
vn 0.9402241 0.2906403 -0.1775017
vn 0.9417121 0.3361147 0.01432072
vn 0.9325119 0.3435007 0.111484
vn 0.7124606 0.3508595 0.6076984
vn 0.7168095 0.3679667 0.5922707
vn 0.8960728 0.1738558 0.4084455
vn 0.9487001 0.3161774 0
vn 0.9487001 0.3161774 0
vn 0.6766574 0.143864 0.7221066
vn 0.5241931 0.01664595 0.8514367
vn 0.3719872 0.1505535 0.9159472
vn 0.5787677 0.2281097 0.7829393
vn 0.4720974 0.3312289 0.8169526
vn -1.329162E-06 0.38201 -0.9241582
vn 0 0.3820126 -0.9241572
vn 0 0.382013 -0.924157
vn -1.418108E-06 0.3820097 -0.9241584
vn 1.307967E-06 0.38201 -0.9241582
vn 1.393408E-06 0.3820096 -0.9241584
vn 0 1 0
vn 0 1 0
vn 0 1 0
vn 0 1 0
vn 8.839864E-05 0.3913559 -0.9202394
vn 8.818313E-05 0.3913538 -0.9202402
vn 8.817184E-05 0.3913538 -0.9202403
vn 8.842243E-05 0.3913562 -0.9202393
vn -0.8675423 0.497363 0.0006368644
vn -0.8673527 0.4976937 0.0005917069
vn -0.8673378 0.4977196 0.0005881792
vn -0.8675641 0.4973248 0.0006420695
vn -9.251179E-05 0.2549946 0.9669425
vn -9.271496E-05 0.2549968 0.966942
vn -9.272445E-05 0.2549969 0.9669418
vn -9.249225E-05 0.2549944 0.9669425
vn 0.8070123 0.5905343 -0.0005929378
vn 0.8068168 0.5908015 -0.0005500818
vn 0.806801 0.590823 -0.0005466297
vn 0.8070343 0.5905043 -0.0005977621
g El_Stair_Bricks_0
f 3/3/3 2/2/2 1/1/1
f 4/4/4 1/1/1 2/2/2
f 7/7/7 6/6/6 5/5/5
f 8/8/8 5/5/5 6/6/6
f 11/11/11 10/10/10 9/9/9
f 12/12/12 9/9/9 10/10/10
f 15/15/15 14/14/14 13/13/13
f 16/16/16 13/13/13 14/14/14
f 19/19/19 18/18/18 17/17/17
f 20/20/20 17/17/17 18/18/18
f 23/23/23 22/22/22 21/21/21
f 24/24/24 21/21/21 22/22/22
f 23/23/23 25/25/25 22/22/22
f 26/26/26 25/25/25 23/23/23
f 27/27/27 25/25/25 26/26/26
f 22/22/22 25/25/25 28/28/28
f 29/29/29 22/22/22 28/28/28
f 30/30/30 29/29/29 28/28/28
f 31/31/31 29/29/29 30/30/30
f 34/34/34 33/33/33 32/32/32
f 35/35/35 32/32/32 33/33/33
f 38/38/38 37/37/37 36/36/36
f 39/39/39 36/36/36 37/37/37
f 39/39/39 40/40/40 36/36/36
f 41/41/41 36/36/36 40/40/40
f 38/38/38 42/42/42 37/37/37
f 43/43/43 37/37/37 42/42/42
f 42/42/42 44/44/44 43/43/43
f 45/45/45 43/43/43 44/44/44
f 44/44/44 46/46/46 45/45/45
f 47/47/47 45/45/45 46/46/46
f 50/50/50 49/49/49 48/48/48
f 51/51/51 48/48/48 49/49/49
f 48/48/48 51/51/51 52/52/52
f 53/53/53 52/52/52 51/51/51
f 52/52/52 53/53/53 54/54/54
f 55/55/55 54/54/54 53/53/53
f 58/58/58 57/57/57 56/56/56
f 59/59/59 56/56/56 57/57/57
f 58/58/58 60/60/60 57/57/57
f 61/61/61 57/57/57 60/60/60
f 64/64/64 63/63/63 62/62/62
f 65/65/65 62/62/62 63/63/63
f 68/68/68 67/67/67 66/66/66
f 69/69/69 66/66/66 67/67/67
f 72/72/72 71/71/71 70/70/70
f 73/73/73 70/70/70 71/71/71
f 76/76/76 75/75/75 74/74/74
f 77/77/77 74/74/74 75/75/75
f 80/80/80 79/79/79 78/78/78
f 81/81/81 78/78/78 79/79/79
