g El_Stair_SideStone_01
v 0.6929889 0.4422407 -0.6775348
v 0.6929896 0.4422407 0.6849921
v -0.6846387 0.4422407 0.6849921
v -0.6846387 0.4422407 -0.6775348
v 0.6929889 0.3038473 -0.677536
v 0.6929889 0.4422407 -0.6775348
v -0.6846387 0.4422407 -0.6775348
v -0.6846387 0.3038473 -0.677536
v -0.6846387 0.3038473 -0.677536
v -0.6846387 0.4422407 -0.6775348
v -0.6846387 0.4422407 0.6849921
v -0.6846387 0.3038473 0.6849908
v -0.6846387 0.3038473 0.6849908
v -0.6846387 0.4422407 0.6849921
v 0.6929896 0.4422407 0.6849921
v 0.6929895 0.3038473 0.6849908
v 0.6929895 0.3038473 0.6849908
v 0.6929896 0.4422407 0.6849921
v 0.6929889 0.4422407 -0.6775348
v 0.6929889 0.3038473 -0.677536
v 0.6041772 0.2722964 -0.6176532
v 0.6041772 0.2722964 0.6103326
v 0.6929895 0.3038473 0.6849908
v 0.6929889 0.3038473 -0.677536
v 0.6041772 0.2722964 0.6103326
v -0.6041809 0.2722964 0.6103326
v -0.6846387 0.3038473 0.6849908
v 0.6929895 0.3038473 0.6849908
v -0.6041809 0.2722964 0.6103326
v -0.6041809 0.2722964 -0.6176532
v -0.6846387 0.3038473 -0.677536
v -0.6846387 0.3038473 0.6849908
v -0.6041809 0.2722964 -0.6176532
v 0.6041772 0.2722964 -0.6176532
v 0.6929889 0.3038473 -0.677536
v -0.6846387 0.3038473 -0.677536
v -0.6929922 -0.2934094 -0.6849921
v -0.6929923 -0.4521995 -0.6849921
v 0.6846356 -0.4521995 -0.6849921
v 0.6846356 -0.2934094 -0.6849921
v 0.6846356 -0.2934094 -0.6849921
v 0.6846356 -0.4521995 -0.6849921
v 0.6846356 -0.4521995 0.6738007
v 0.6846356 -0.2934094 0.6738006
v 0.6846356 -0.2934094 0.6738006
v 0.6846356 -0.4521995 0.6738007
v -0.6929923 -0.4521995 0.6738007
v -0.6929922 -0.2934094 0.6738006
v -0.6929922 -0.2934094 0.6738006
v -0.6929923 -0.4521995 0.6738007
v -0.6929923 -0.4521995 -0.6849921
v -0.6929922 -0.2934094 -0.6849921
v -0.6083569 -0.2614166 -0.6111163
v -0.6083569 -0.2614166 0.6168671
v -0.6929922 -0.2934094 0.6738006
v -0.6929922 -0.2934094 -0.6849921
v -0.6083569 -0.2614166 0.6168671
v 0.6000006 -0.2614166 0.6168671
v 0.6846356 -0.2934094 0.6738006
v -0.6929922 -0.2934094 0.6738006
v 0.6000006 -0.2614166 0.6168671
v 0.6000006 -0.2614166 -0.6111163
v 0.6846356 -0.2934094 -0.6849921
v 0.6846356 -0.2934094 0.6738006
v 0.6000006 -0.2614166 -0.6111163
v -0.6083569 -0.2614166 -0.6111163
v -0.6929922 -0.2934094 -0.6849921
v 0.6846356 -0.2934094 -0.6849921
v -0.6083569 -0.2614166 -0.6111163
v -0.6041809 0.2722964 -0.6176532
v -0.6041809 0.2722964 0.6103326
v -0.6083569 -0.2614166 0.6168671
v -0.6083569 -0.2614166 0.6168671
v -0.6041809 0.2722964 0.6103326
v 0.6041772 0.2722964 0.6103326
v 0.6000006 -0.2614166 0.6168671
v 0.6000006 -0.2614166 0.6168671
v 0.6041772 0.2722964 0.6103326
v 0.6041772 0.2722964 -0.6176532
v 0.6000006 -0.2614166 -0.6111163
v 0.6000006 -0.2614166 -0.6111163
v 0.6041772 0.2722964 -0.6176532
v -0.6041809 0.2722964 -0.6176532
v -0.6083569 -0.2614166 -0.6111163
vt 0.3552744 0.9123105
vt 0.3552744 0.985061
vt 0.4247086 0.9850603
vt 0.4247086 0.9123101
vt 0.3479755 0.9046314
vt 0.3552744 0.9123105
vt 0.4247086 0.9123101
vt 0.4320074 0.9046308
vt 0.4320074 0.9046308
vt 0.4247086 0.9123101
vt 0.4247086 0.9850603
vt 0.4320075 0.9927399
vt 0.4320075 0.9927399
vt 0.4247086 0.9850603
vt 0.3552744 0.985061
vt 0.3479757 0.9927407
vt 0.3479757 0.9927407
vt 0.3552744 0.985061
vt 0.3552744 0.9123105
vt 0.3479755 0.9046314
vt 0.3427785 0.9073613
vt 0.3427785 0.989745
vt 0.3479757 0.9927407
vt 0.3479755 0.9046314
vt 0.3549216 0.9978559
vt 0.4250195 0.9978557
vt 0.4320075 0.9927399
vt 0.3479757 0.9927407
vt 0.4363505 0.990537
vt 0.4363505 0.9081537
vt 0.4320074 0.9046308
vt 0.4320075 0.9927399
vt 0.4250192 0.9001713
vt 0.3549214 0.9001713
vt 0.3479755 0.9046314
vt 0.4320074 0.9046308
vt 0.5393873 0.9403728
vt 0.53904 0.9294764
vt 0.4411238 0.9294764
vt 0.4414711 0.9403728
vt 0.4414701 0.9403728
vt 0.4411228 0.9294764
vt 0.53904 0.9294764
vt 0.5393873 0.9403728
vt 0.5393873 0.9403728
vt 0.53904 0.9294764
vt 0.6376069 0.9294764
vt 0.6379542 0.9403728
vt 0.6379548 0.9403728
vt 0.6376075 0.9294764
vt 0.53904 0.9294764
vt 0.5393873 0.9403728
vt 0.5393873 0.9508297
vt 0.6317677 0.9508297
vt 0.6379548 0.9403728
vt 0.5393873 0.9403728
vt 0.6317677 0.9508297
vt 0.5393873 0.9508297
vt 0.5393873 0.9403728
vt 0.6379542 0.9403728
vt 0.5393873 0.9508297
vt 0.4470073 0.9508297
vt 0.4414701 0.9403728
vt 0.5393873 0.9403728
vt 0.4470073 0.9508297
vt 0.5393873 0.9508297
vt 0.5393873 0.9403728
vt 0.4414711 0.9403728
vt 0.5393873 0.9508297
vt 0.5393873 0.9946691
vt 0.6317677 0.9946691
vt 0.6317677 0.9508297
vt 0.6317677 0.9508297
vt 0.6317677 0.9946691
vt 0.5393873 0.9946691
vt 0.5393873 0.9508297
vt 0.5393873 0.9508297
vt 0.5393873 0.9946691
vt 0.4470073 0.9946691
vt 0.4470073 0.9508297
vt 0.4470073 0.9508297
vt 0.4470073 0.9946691
vt 0.5393873 0.9946691
vt 0.5393873 0.9508297
vn 0 1 0
vn 0 1 0
vn 0 1 0
vn 0 1 0
vn 0 8.820529E-06 -1
vn 0 8.820529E-06 -1
vn 0 8.820529E-06 -1
vn 0 8.820529E-06 -1
vn -1 0 0
vn -1 0 0
vn -1 0 0
vn -1 0 0
vn 0 -8.82053E-06 1
vn 0 -8.82053E-06 1
vn 0 -8.82053E-06 1
vn 0 -8.82053E-06 1
vn 1 -5.512792E-07 -4.479556E-07
vn 1 -5.512792E-07 -4.479556E-07
vn 1 -5.512792E-07 -4.479556E-07
vn 1 -5.512792E-07 -4.479556E-07
vn 0.3347584 -0.942304 0
vn 0.3347584 -0.942304 0
vn 0.3347584 -0.942304 0
vn 0.3347584 -0.942304 0
vn 0 -0.9211233 0.389271
vn 0 -0.9211233 0.389271
vn 0 -0.9211233 0.389271
vn 0 -0.9211233 0.389271
vn -0.3650759 -0.9309778 0
vn -0.3650759 -0.9309778 0
vn -0.3650759 -0.9309778 0
vn -0.3650759 -0.9309778 0
vn 0 -0.8847134 -0.4661355
vn 0 -0.8847134 -0.4661355
vn 0 -0.8847134 -0.4661355
vn 0 -0.8847134 -0.4661355
vn 0 0 -1
vn 0 0 -1
vn 0 0 -1
vn 0 0 -1
vn 1 0 0
vn 1 0 0
vn 1 0 0
vn 1 0 0
vn 0 4.804704E-07 1
vn 0 4.804704E-07 1
vn 0 4.804704E-07 1
vn 0 4.804704E-07 1
vn -1 4.804705E-07 0
vn -1 4.804705E-07 0
vn -1 4.804705E-07 0
vn -1 4.804705E-07 0
vn -0.3535887 0.935401 0
vn -0.3535887 0.935401 0
vn -0.3535887 0.935401 0
vn -0.3535887 0.935401 0
vn 0 0.8717871 0.4898849
vn 0 0.8717871 0.4898849
vn 0 0.8717871 0.4898849
vn 0 0.8717871 0.4898849
vn 0.3535898 0.9354006 0
vn 0.3535898 0.9354006 0
vn 0.3535898 0.9354006 0
vn 0.3535898 0.9354006 0
vn 0 0.9176463 -0.3973981
vn 0 0.9176463 -0.3973981
vn 0 0.9176463 -0.3973981
vn 0 0.9176463 -0.3973982
vn -0.9999694 0.007824238 0
vn -0.9999694 0.007824239 0
vn -0.9999694 0.007824238 0
vn -0.9999694 0.007824238 0
vn 0 0.01224241 0.9999251
vn 0 0.01224241 0.9999251
vn 0 0.01224241 0.9999251
vn 0 0.01224241 0.9999251
vn 0.9999694 -0.007825381 0
vn 0.9999694 -0.00782538 0
vn 0.9999694 -0.007825382 0
vn 0.9999694 -0.00782538 0
vn 0 -0.01224698 -0.999925
vn 0 -0.01224698 -0.999925
vn 0 -0.01224698 -0.999925
vn 0 -0.01224698 -0.999925
g El_Stair_SideStone_01_0
f 3/3/3 2/2/2 1/1/1
f 4/4/4 3/3/3 1/1/1
f 7/7/7 6/6/6 5/5/5
f 8/8/8 7/7/7 5/5/5
f 11/11/11 10/10/10 9/9/9
f 12/12/12 11/11/11 9/9/9
f 15/15/15 14/14/14 13/13/13
f 16/16/16 15/15/15 13/13/13
f 19/19/19 18/18/18 17/17/17
f 20/20/20 19/19/19 17/17/17
f 23/23/23 22/22/22 21/21/21
f 24/24/24 23/23/23 21/21/21
f 27/27/27 26/26/26 25/25/25
f 28/28/28 27/27/27 25/25/25
f 31/31/31 30/30/30 29/29/29
f 32/32/32 31/31/31 29/29/29
f 35/35/35 34/34/34 33/33/33
f 36/36/36 35/35/35 33/33/33
f 39/39/39 38/38/38 37/37/37
f 40/40/40 39/39/39 37/37/37
f 43/43/43 42/42/42 41/41/41
f 44/44/44 43/43/43 41/41/41
f 47/47/47 46/46/46 45/45/45
f 48/48/48 47/47/47 45/45/45
f 51/51/51 50/50/50 49/49/49
f 52/52/52 51/51/51 49/49/49
f 55/55/55 54/54/54 53/53/53
f 56/56/56 55/55/55 53/53/53
f 59/59/59 58/58/58 57/57/57
f 60/60/60 59/59/59 57/57/57
f 63/63/63 62/62/62 61/61/61
f 64/64/64 63/63/63 61/61/61
f 67/67/67 66/66/66 65/65/65
f 68/68/68 67/67/67 65/65/65
f 71/71/71 70/70/70 69/69/69
f 72/72/72 71/71/71 69/69/69
f 75/75/75 74/74/74 73/73/73
f 76/76/76 75/75/75 73/73/73
f 79/79/79 78/78/78 77/77/77
f 80/80/80 79/79/79 77/77/77
f 83/83/83 82/82/82 81/81/81
f 84/84/84 83/83/83 81/81/81
