g El_WterTower_Cover
v 1.472235E-07 -0.001132595 2.091274
v 2.342462E-07 -0.015958 1.441986
v 0.5011827 -0.01595801 1.355006
v 0.720276 -0.001132595 1.965144
v 0.9348894 -0.01595801 1.104622
v 1.349258 -0.001132595 1.602001
v 1.256799 -0.01595801 0.7209787
v 1.816123 -0.001132595 1.045643
v 1.816123 -0.001132595 1.045643
v 1.256799 -0.01595801 0.7209787
v 1.428077 -0.01595801 0.2503705
v 2.064543 -0.001132595 0.3631467
v 1.428092 -0.01595801 -0.250425
v 2.064543 -0.001132595 -0.3631399
v 1.256803 -0.01595801 -0.721018
v 1.816155 -0.001132595 -1.04563
v 1.816155 -0.001132595 -1.04563
v 1.256803 -0.01595801 -0.721018
v 0.9348817 -0.01595801 -1.104647
v 1.349307 -0.001132595 -1.602012
v 0.5011904 -0.015958 -1.355056
v 0.7203248 -0.001132595 -1.965154
v 2.342462E-07 -0.01595801 -1.442007
v 1.472235E-07 -0.001132595 -2.091274
v 1.472235E-07 -0.001132595 2.091274
v -0.7202794 -0.001132595 1.965144
v -0.501188 -0.01595801 1.355006
v 2.342462E-07 -0.015958 1.441986
v -0.9348949 -0.01595801 1.104622
v -1.349261 -0.001132595 1.602001
v -1.256804 -0.01595801 0.7209787
v -1.816126 -0.001132595 1.045643
v -1.816126 -0.001132595 1.045643
v -2.064547 -0.001132595 0.3631467
v -1.428082 -0.01595801 0.2503705
v -1.256804 -0.01595801 0.7209787
v -1.428098 -0.01595801 -0.250425
v -2.064547 -0.001132595 -0.3631399
v -1.256808 -0.01595801 -0.721018
v -1.816158 -0.001132595 -1.04563
v -1.816158 -0.001132595 -1.04563
v -1.34931 -0.001132595 -1.602012
v -0.9348871 -0.01595801 -1.104647
v -1.256808 -0.01595801 -0.721018
v -0.5011957 -0.015958 -1.355056
v -0.7203282 -0.001132595 -1.965154
v 2.342462E-07 -0.01595801 -1.442007
v 1.472235E-07 -0.001132595 -2.091274
vt 0.3809795 0.1897097
vt 0.3117095 0.2028135
vt 0.3122929 0.2473018
vt 0.3818361 0.2586788
vt 0.2976837 0.2890325
vt 0.3591147 0.3235207
vt 0.2694682 0.3234205
vt 0.3154306 0.3768866
vt 0.3809795 0.1897097
vt 0.3117095 0.2028135
vt 0.3122929 0.2473018
vt 0.3818361 0.2586788
vt 0.2976837 0.2890325
vt 0.3591147 0.3235207
vt 0.2694682 0.3234205
vt 0.3154306 0.3768866
vt 0.3809795 0.1897097
vt 0.3117095 0.2028135
vt 0.3122929 0.2473018
vt 0.3818361 0.2586788
vt 0.2976837 0.2890325
vt 0.3591147 0.3235207
vt 0.2694682 0.3234205
vt 0.3154306 0.3768866
vt 0.3154306 0.3768866
vt 0.3591147 0.3235207
vt 0.2976837 0.2890325
vt 0.2694682 0.3234205
vt 0.3122929 0.2473018
vt 0.3818361 0.2586788
vt 0.3117095 0.2028135
vt 0.3809795 0.1897097
vt 0.3154306 0.3768866
vt 0.3591147 0.3235207
vt 0.2976837 0.2890325
vt 0.2694682 0.3234205
vt 0.3122929 0.2473018
vt 0.3818361 0.2586788
vt 0.3117095 0.2028135
vt 0.3809795 0.1897097
vt 0.3154306 0.3768866
vt 0.3591147 0.3235207
vt 0.2976837 0.2890325
vt 0.2694682 0.3234205
vt 0.3122929 0.2473018
vt 0.3818361 0.2586788
vt 0.3117095 0.2028135
vt 0.3809795 0.1897097
vn 0 0.999673 -0.02557098
vn 0 0.999673 -0.02557098
vn -0.008742739 0.9996725 -0.02405029
vn -0.008724088 0.9996725 -0.02405692
vn -0.01649407 0.9996711 -0.01963765
vn -0.01647831 0.9996711 -0.01965076
vn -0.02224215 0.9996703 -0.01283209
vn -0.02223534 0.9996703 -0.01284381
vn -0.02223534 0.9996703 -0.01284381
vn -0.02224215 0.9996703 -0.01283209
vn -0.02530599 0.9996698 -0.004459281
vn -0.02530514 0.9996698 -0.004464056
vn -0.0253063 0.9996698 0.004459135
vn -0.02530553 0.9996698 0.004463497
vn -0.02224219 0.9996703 0.01283214
vn -0.02223563 0.9996703 0.01284343
vn -0.02223563 0.9996703 0.01284343
vn -0.02224219 0.9996703 0.01283214
vn -0.01649403 0.9996711 0.01963734
vn -0.01647857 0.9996711 0.01965021
vn -0.008742404 0.9996725 0.02405085
vn -0.008724233 0.9996725 0.0240573
vn 0 0.999673 0.02557231
vn 0 0.999673 0.02557231
vn 0 0.999673 -0.02557098
vn 0.008724078 0.9996725 -0.02405695
vn 0.00874274 0.9996725 -0.02405032
vn 0 0.999673 -0.02557098
vn 0.01649412 0.9996711 -0.0196377
vn 0.01647834 0.9996711 -0.01965082
vn 0.02224224 0.9996703 -0.01283214
vn 0.02223542 0.9996703 -0.01284386
vn 0.02223542 0.9996703 -0.01284386
vn 0.02530525 0.9996698 -0.004464076
vn 0.0253061 0.9996698 -0.004459296
vn 0.02224224 0.9996703 -0.01283214
vn 0.02530641 0.9996698 0.004459151
vn 0.02530563 0.9996698 0.004463517
vn 0.02224227 0.9996703 0.01283218
vn 0.0222357 0.9996703 0.01284347
vn 0.0222357 0.9996703 0.01284347
vn 0.0164786 0.9996711 0.01965026
vn 0.01649408 0.9996711 0.01963739
vn 0.02224227 0.9996703 0.01283218
vn 0.008742403 0.9996725 0.02405087
vn 0.00872422 0.9996725 0.02405733
vn 0 0.999673 0.02557231
vn 0 0.999673 0.02557231
g El_WterTower_Cover_0
f 3/3/3 2/2/2 1/1/1
f 4/4/4 3/3/3 1/1/1
f 5/5/5 3/3/3 4/4/4
f 6/6/6 5/5/5 4/4/4
f 7/7/7 5/5/5 6/6/6
f 8/8/8 7/7/7 6/6/6
f 11/11/11 10/10/10 9/9/9
f 12/12/12 11/11/11 9/9/9
f 13/13/13 11/11/11 12/12/12
f 14/14/14 13/13/13 12/12/12
f 15/15/15 13/13/13 14/14/14
f 16/16/16 15/15/15 14/14/14
f 19/19/19 18/18/18 17/17/17
f 20/20/20 19/19/19 17/17/17
f 21/21/21 19/19/19 20/20/20
f 22/22/22 21/21/21 20/20/20
f 23/23/23 21/21/21 22/22/22
f 24/24/24 23/23/23 22/22/22
f 27/27/27 26/26/26 25/25/25
f 28/28/28 27/27/27 25/25/25
f 27/27/27 29/29/29 26/26/26
f 29/29/29 30/30/30 26/26/26
f 29/29/29 31/31/31 30/30/30
f 31/31/31 32/32/32 30/30/30
f 35/35/35 34/34/34 33/33/33
f 36/36/36 35/35/35 33/33/33
f 35/35/35 37/37/37 34/34/34
f 37/37/37 38/38/38 34/34/34
f 37/37/37 39/39/39 38/38/38
f 39/39/39 40/40/40 38/38/38
f 43/43/43 42/42/42 41/41/41
f 44/44/44 43/43/43 41/41/41
f 43/43/43 45/45/45 42/42/42
f 45/45/45 46/46/46 42/42/42
f 45/45/45 47/47/47 46/46/46
f 47/47/47 48/48/48 46/46/46
