g El_WaterTower_Deco
v -1.599376 4.395184 -0.2486798
v 0.1550976 3.430312 0.2398114
v -1.599541 4.395184 0.2027655
v 0.155116 3.430311 -0.2714019
v -1.668516 3.952066 0.1990045
v -1.739433 4.299139 -0.2468747
v -1.739639 4.29914 0.1989825
v -1.668357 3.952066 -0.247814
v -0.4381348 3.105984 0.2449115
v -1.668357 3.952066 -0.247814
v -1.668516 3.952066 0.1990045
v -0.4380957 3.105984 -0.2607953
v -0.03271484 2.580004 0.2604547
v -0.4380957 3.105984 -0.2607953
v -0.4381348 3.105984 0.2449115
v -0.03275391 2.580005 -0.2645233
v 0.1045898 1.92154 0.2657391
v 0.1258008 2.18224 -0.2657757
v 0.1258203 2.182241 0.2657391
v 0.1046957 1.92154 -0.2703187
v -0.4416015 1.014472 0.265744
v -0.6171349 1.642287 -0.2607232
v -0.6173633 1.642287 0.2657526
v -0.4416308 1.014473 -0.2657623
v -0.3110449 0.5893468 0.2657526
v -0.3110352 0.589352 -0.2658038
v 0.5496134 3.072277 -0.2765039
v 0.938418 2.525533 0.257337
v 0.5496387 3.072278 0.2484015
v 0.949966 2.532827 -0.2815486
v 1.332842 2.060761 0.2657526
v 1.802133 1.363013 -0.3049434
v 1.802227 1.363013 0.2989825
v 1.332702 2.060761 -0.2866304
v 1.802227 1.363013 0.2989825
v 2.166735 1.156199 -0.3215331
v 2.166758 1.1562 0.3311334
v 1.802133 1.363013 -0.3049434
v 2.27749 0.4318939 -0.3098505
v 1.88332 -0.1011534 0.2657477
v 2.279316 0.4342692 0.2953632
v 1.883112 -0.1011534 -0.2939443
v 1.374491 -0.8396295 -0.2871884
v 1.37458 -0.8396245 0.2657574
v 0.2410156 0.5157356 0.255589
v -9.765625E-06 1.525879E-07 0.2657623
v -0.3110449 0.5893468 0.2657526
v 0.8180469 1.525879E-07 0.265744
v 0.206709 0.9870884 0.265744
v -0.4416015 1.014472 0.265744
v -0.6173633 1.642287 0.2657526
v 0.430332 1.28448 0.265744
v -0.1201367 1.695589 0.2657574
v 0.1045898 1.92154 0.2657391
v 0.7837207 1.48466 0.265766
v 1.332842 2.060761 0.2657526
v 0.938418 2.525533 0.257337
v 0.1258203 2.182241 0.2657391
v 1.205254 1.356246 0.2657294
v -0.03271484 2.580004 0.2604547
v 0.5496387 3.072278 0.2484015
v 0.1550976 3.430312 0.2398114
v -0.4381348 3.105984 0.2449115
v -1.739639 4.29914 0.1989825
v -1.599541 4.395184 0.2027655
v -0.4381348 3.105984 0.2449115
v -1.668516 3.952066 0.1990045
v 0.8180025 1.525879E-07 -0.2797984
v 0.2410156 0.5157356 0.255589
v 0.2410511 0.515736 -0.2747294
v 0.8180469 1.525879E-07 0.265744
v 1.547951 0.5297235 -0.279584
v 1.494502 1.016485 0.2657526
v 1.549639 0.5404912 0.2806268
v 1.494348 1.016485 -0.2887819
v 0.430332 1.28448 0.265744
v 0.2067822 0.9870884 -0.2716811
v 0.206709 0.9870884 0.265744
v 0.4303609 1.28448 -0.2746464
v 1.205254 1.356246 0.2657294
v 0.7836922 1.48466 -0.2793352
v 0.7837207 1.48466 0.265766
v 1.205195 1.356246 -0.2849548
v 0.7836922 1.48466 -0.2793352
v 0.430332 1.28448 0.265744
v 0.7837207 1.48466 0.265766
v 0.4303609 1.28448 -0.2746464
v 0.206709 0.9870884 0.265744
v 0.2410511 0.515736 -0.2747294
v 0.2410156 0.5157356 0.255589
v 0.2067822 0.9870884 -0.2716811
v 1.494348 1.016485 -0.2887819
v 1.205254 1.356246 0.2657294
v 1.494502 1.016485 0.2657526
v 1.205195 1.356246 -0.2849548
v 0.1046957 1.92154 -0.2703187
v -0.1201367 1.695589 0.2657574
v -0.1288486 1.682239 -0.2673266
v 0.1045898 1.92154 0.2657391
v -1.599541 4.395184 0.2027655
v -1.739433 4.299139 -0.2468747
v -1.599376 4.395184 -0.2486798
v -1.739639 4.29914 0.1989825
v -0.03271484 2.580004 0.2604547
v 0.1258008 2.18224 -0.2657757
v -0.03275391 2.580005 -0.2645233
v 0.1258203 2.182241 0.2657391
v 0.155116 3.430311 -0.2714019
v 0.5496387 3.072278 0.2484015
v 0.1550976 3.430312 0.2398114
v 0.5496134 3.072277 -0.2765039
v 2.166735 1.156199 -0.3215331
v 2.484092 1.222175 0.3311383
v 2.166758 1.1562 0.3311334
v 2.484013 1.222176 -0.325738
v -9.765625E-06 1.525879E-07 0.2657623
v -0.3110352 0.589352 -0.2658038
v -0.3110449 0.5893468 0.2657526
v 1.953125E-05 4.577637E-07 -0.265766
v 1.88332 -0.1011534 0.2657477
v 1.549639 0.5404912 0.2806268
v 2.279316 0.4342692 0.2953632
v 2.166758 1.1562 0.3311334
v 2.519736 1.13864 0.3273126
v 2.484092 1.222175 0.3311383
v 1.549639 0.5404912 0.2806268
v 1.88332 -0.1011534 0.2657477
v 1.385137 0.08653183 0.2988946
v 1.205254 1.356246 0.2657294
v 1.802227 1.363013 0.2989825
v 1.494502 1.016485 0.2657526
v 2.279316 0.4342692 0.2953632
v 2.166758 1.1562 0.3311334
v 1.802227 1.363013 0.2989825
v 1.205254 1.356246 0.2657294
v 1.332842 2.060761 0.2657526
v 1.494502 1.016485 0.2657526
v 2.166758 1.1562 0.3311334
v 1.385121 0.08653427 -0.2662643
v 0.9369824 -0.5399916 0.2657526
v 0.9369366 -0.5399942 -0.2813635
v 1.385137 0.08653183 0.2988946
v 1.385137 0.08653183 0.2988946
v 1.37458 -0.8396245 0.2657574
v 0.9369824 -0.5399916 0.2657526
v 0.9108593 -1.714274 0.2657526
v 1.37458 -0.8396245 0.2657574
v 1.385137 0.08653183 0.2988946
v 1.88332 -0.1011534 0.2657477
v 1.37458 -0.8396245 0.2657574
v 0.9108279 -1.714275 -0.2810257
v 0.9108593 -1.714274 0.2657526
v 1.374491 -0.8396295 -0.2871884
v -0.6173633 1.642287 0.2657526
v -0.1288486 1.682239 -0.2673266
v -0.1201367 1.695589 0.2657574
v -0.6171349 1.642287 -0.2607232
v 1.549639 0.5404912 0.2806268
v 1.385121 0.08653427 -0.2662643
v 1.547951 0.5297235 -0.279584
v 1.385137 0.08653183 0.2988946
v 1.549639 0.5404912 0.2806268
v 1.494502 1.016485 0.2657526
v 2.279316 0.4342692 0.2953632
v 2.519736 1.13864 0.3273126
v 2.27749 0.4318939 -0.3098505
v 2.279316 0.4342692 0.2953632
v 2.519727 1.138658 -0.3272907
v 2.484013 1.222176 -0.325738
v 2.519736 1.13864 0.3273126
v 2.484092 1.222175 0.3311383
v 2.519727 1.138658 -0.3272907
v 0.2410511 0.515736 -0.2747294
v 0.0002194977 1.525879E-07 -0.272072
v 0.8180025 1.525879E-07 -0.2797984
v -0.310706 0.5893468 -0.2638124
v 0.2067822 0.9870884 -0.2716811
v -0.4412166 1.014472 -0.2603467
v -0.6171349 1.642287 -0.2607232
v 0.4303609 1.28448 -0.2746464
v -0.1288486 1.682239 -0.2673266
v 0.1046957 1.92154 -0.2703187
v 0.7836922 1.48466 -0.2793352
v 1.332702 2.060761 -0.2866304
v 0.949966 2.532827 -0.2815486
v 0.126005 2.182241 -0.2754208
v 1.205195 1.356246 -0.2849548
v 1.802133 1.363013 -0.3049434
v 1.494348 1.016485 -0.2887819
v -0.03251228 2.580004 -0.2726405
v 0.5496134 3.072277 -0.2765039
v 0.155116 3.430311 -0.2714019
v -0.437901 3.105984 -0.26608
v -1.739433 4.299139 -0.2468747
v -1.668357 3.952066 -0.247814
v -1.599376 4.395184 -0.2486798
v 2.166735 1.156199 -0.3215331
v 2.27749 0.4318939 -0.3098505
v 2.166735 1.156199 -0.3215331
v 2.519519 1.13864 -0.3223388
v 2.484013 1.222176 -0.325738
v 1.547951 0.5297235 -0.279584
v 1.883112 -0.1011534 -0.2939443
v 1.385121 0.08653427 -0.2662643
v 1.374491 -0.8396295 -0.2871884
v 1.374491 -0.8396295 -0.2871884
v 1.385121 0.08653427 -0.2662643
v 0.9369366 -0.5399942 -0.2813635
v 0.9108279 -1.714275 -0.2810257
v 1.332842 2.060761 0.2657526
v 0.949966 2.532827 -0.2815486
v 1.332702 2.060761 -0.2866304
v 0.938418 2.525533 0.257337
vt 0.7273556 0.7362723
vt 0.7579738 0.6440911
vt 0.6976049 0.7254333
vt 0.7816313 0.6606819
vt 0.673318 0.3130879
vt 0.6348219 0.3398884
vt 0.673318 0.339894
vt 0.6348219 0.313082
vt 0.673318 0.2529426
vt 0.6348219 0.313082
vt 0.673318 0.3130879
vt 0.6348219 0.2529364
vt 0.673318 0.2137836
vt 0.6348219 0.2529364
vt 0.673318 0.2529426
vt 0.6348219 0.2137768
vt 0.673318 0.1629391
vt 0.6348219 0.1834345
vt 0.673318 0.1834415
vt 0.6348219 0.1629323
vt 0.7206663 0.2119362
vt 0.6828555 0.257584
vt 0.7206669 0.2575842
vt 0.6828563 0.2119363
vt 0.7206669 0.1809474
vt 0.6828532 0.1809477
vt 0.7944972 0.6367477
vt 0.7867684 0.5833884
vt 0.7719956 0.6187311
vt 0.8114104 0.6001515
vt 0.8018939 0.5512522
vt 0.8509924 0.5202058
vt 0.8213208 0.5039057
vt 0.8266457 0.5671859
vt 0.8213208 0.5039057
vt 0.8672713 0.501366
vt 0.8354121 0.4837865
vt 0.8509924 0.5202058
vt 0.8477379 0.4177756
vt 0.7991674 0.4177883
vt 0.8237024 0.4405244
vt 0.8245341 0.3926863
vt 0.785731 0.3578666
vt 0.7616706 0.3829122
vt 0.7116484 0.4797252
vt 0.6890956 0.4557874
vt 0.6826695 0.4937194
vt 0.7339919 0.4409891
vt 0.7182685 0.5061556
vt 0.6831821 0.5193843
vt 0.6848752 0.5569777
vt 0.7359124 0.5184121
vt 0.7131262 0.5509048
vt 0.7295411 0.5592251
vt 0.7589226 0.5229921
vt 0.8018939 0.5512522
vt 0.7867684 0.5833884
vt 0.7354144 0.5731315
vt 0.7797375 0.5083277
vt 0.7339028 0.5978176
vt 0.7719956 0.6187311
vt 0.7579738 0.6440911
vt 0.7211686 0.634025
vt 0.6763653 0.723114
vt 0.6976049 0.7254333
vt 0.7211686 0.634025
vt 0.674818 0.7086723
vt 0.5886436 0.362294
vt 0.6279916 0.3279482
vt 0.5886436 0.3279482
vt 0.6279916 0.362294
vt 0.5886436 0.2025681
vt 0.6279916 0.2307749
vt 0.6279916 0.2025681
vt 0.5886436 0.2307749
vt 0.6279916 0.2822205
vt 0.5886436 0.3006492
vt 0.6279916 0.3006492
vt 0.5886436 0.2822204
vt 0.6279916 0.252471
vt 0.5886436 0.2666562
vt 0.6279916 0.2666562
vt 0.5886436 0.2519352
vt 0.5886436 0.2666562
vt 0.6279916 0.2822205
vt 0.6279916 0.2666562
vt 0.5886436 0.2822204
vt 0.6279916 0.3006492
vt 0.5886436 0.3279482
vt 0.6279916 0.3279482
vt 0.5886436 0.3006492
vt 0.5886436 0.2307749
vt 0.6279916 0.252471
vt 0.6279916 0.2307749
vt 0.5886436 0.2519352
vt 0.6348219 0.1629323
vt 0.673318 0.1430627
vt 0.6348219 0.1430627
vt 0.673318 0.1629391
vt 0.673318 0.3480981
vt 0.6348219 0.3398884
vt 0.634822 0.3480923
vt 0.673318 0.339894
vt 0.673318 0.2137836
vt 0.6348219 0.1834345
vt 0.6348219 0.2137768
vt 0.673318 0.1834415
vt 0.7816313 0.6606819
vt 0.7719956 0.6187311
vt 0.7579738 0.6440911
vt 0.7944972 0.6367477
vt 0.8672713 0.501366
vt 0.8511073 0.4770443
vt 0.8354121 0.4837865
vt 0.8763236 0.4703588
vt 0.7206677 0.1371084
vt 0.6828532 0.1809477
vt 0.7206669 0.1809474
vt 0.6828558 0.1371081
vt 0.7991674 0.4177883
vt 0.7838897 0.4573421
vt 0.8237024 0.4405244
vt 0.8354121 0.4837865
vt 0.8461854 0.4702098
vt 0.8511073 0.4770443
vt 0.7838897 0.4573421
vt 0.7991674 0.4177883
vt 0.7666438 0.4353843
vt 0.7797375 0.5083277
vt 0.8213208 0.5039057
vt 0.7894759 0.4844712
vt 0.8237024 0.4405244
vt 0.8354121 0.4837865
vt 0.8213208 0.5039057
vt 0.7797375 0.5083277
vt 0.8018939 0.5512522
vt 0.7894759 0.4844712
vt 0.8354121 0.4837865
vt 0.5886436 0.1764865
vt 0.6279916 0.1381328
vt 0.5886436 0.1375959
vt 0.6279916 0.1764865
vt 0.7666438 0.4353843
vt 0.7616706 0.3829122
vt 0.7307672 0.4092375
vt 0.711179 0.3456136
vt 0.7616706 0.3829122
vt 0.7666438 0.4353843
vt 0.7991674 0.4177883
vt 0.7616706 0.3829122
vt 0.7300316 0.320919
vt 0.711179 0.3456136
vt 0.785731 0.3578666
vt 0.673318 0.1375371
vt 0.6348219 0.1430627
vt 0.673318 0.1430627
vt 0.6348219 0.1375304
vt 0.6279916 0.2025681
vt 0.5886436 0.1764865
vt 0.5886436 0.2025681
vt 0.6279916 0.1764865
vt 0.7838897 0.4573421
vt 0.7894759 0.4844712
vt 0.8237024 0.4405244
vt 0.8461854 0.4702098
vt 0.8477379 0.4177756
vt 0.8237024 0.4405244
vt 0.8732151 0.4559596
vt 0.8763236 0.4703588
vt 0.8461854 0.4702098
vt 0.8511073 0.4770443
vt 0.8732151 0.4559596
vt 0.7116484 0.4797252
vt 0.6890956 0.4557874
vt 0.7339919 0.4409891
vt 0.6826695 0.4937194
vt 0.7182685 0.5061556
vt 0.6831821 0.5193843
vt 0.6848752 0.5569777
vt 0.7359124 0.5184121
vt 0.7131262 0.5509048
vt 0.7295411 0.5592251
vt 0.7589226 0.5229921
vt 0.8018939 0.5512522
vt 0.7867684 0.5833884
vt 0.7354144 0.5731315
vt 0.7797375 0.5083277
vt 0.8213208 0.5039057
vt 0.7894759 0.4844712
vt 0.7339028 0.5978176
vt 0.7719956 0.6187311
vt 0.7579738 0.6440911
vt 0.7211686 0.634025
vt 0.6763653 0.723114
vt 0.674818 0.7086723
vt 0.6976049 0.7254333
vt 0.8354121 0.4837865
vt 0.8237024 0.4405244
vt 0.8354121 0.4837865
vt 0.8461854 0.4702098
vt 0.8511073 0.4770443
vt 0.7838897 0.4573421
vt 0.7991674 0.4177883
vt 0.7666438 0.4353843
vt 0.7616706 0.3829122
vt 0.7616706 0.3829122
vt 0.7666438 0.4353843
vt 0.7307672 0.4092375
vt 0.711179 0.3456136
vt 0.8018939 0.5512522
vt 0.8114104 0.6001515
vt 0.8266457 0.5671859
vt 0.7867684 0.5833884
vn 0.4818471 0.8762553 0.0001763813
vn 0.4818471 0.8762553 0.0001763813
vn 0.481847 0.8762553 0.0001763813
vn 0.4818812 0.8762366 1.673685E-05
vn -0.9796424 -0.2007502 -0.0004516661
vn -0.9796424 -0.2007502 -0.0004516661
vn -0.9796424 -0.2007502 -0.0004516661
vn -0.9796684 -0.2006229 -0.0003484697
vn -0.5666125 -0.8239843 -0.0002010615
vn -0.5666125 -0.8239843 -0.0002010615
vn -0.5666125 -0.8239843 -0.0002010615
vn -0.5666553 -0.8239549 -4.377037E-05
vn -0.7920259 -0.6104875 -6.117875E-05
vn -0.7920258 -0.6104876 -6.117875E-05
vn -0.7920258 -0.6104876 -6.117875E-05
vn -0.7920828 -0.6104137 5.751784E-05
vn -0.9967005 0.08116733 3.646203E-05
vn -0.9967005 0.08116735 3.646203E-05
vn -0.9967005 0.08116734 3.646202E-05
vn -0.9967389 0.08069487 -0.0001968077
vn -0.9629744 -0.2695926 -0.0004178094
vn -0.9629744 -0.2695927 -0.0004178094
vn -0.9629744 -0.2695926 -0.0004178094
vn -0.9630769 -0.2692267 5.277609E-05
vn -0.9559377 -0.2935697 5.235461E-05
vn -0.9559122 -0.2936528 -2.042784E-05
vn 0.8149678 0.5795063 -4.027824E-05
vn 0.8149678 0.5795063 -4.027824E-05
vn 0.8149678 0.5795063 -4.027824E-05
vn 0.8028722 0.5956154 0.02526757
vn 0.8297303 0.5581645 -0.0001285777
vn 0.8297303 0.5581645 -0.0001285777
vn 0.8297303 0.5581645 -0.0001285777
vn 0.8296992 0.5582107 -0.0002105529
vn 0.4934563 0.8697706 -1.759621E-05
vn 0.4934562 0.8697706 -1.759621E-05
vn 0.4934562 0.8697706 -1.759621E-05
vn 0.4933806 0.8698136 -7.631995E-05
vn 0.8039999 -0.5946295 -9.260011E-05
vn 0.8039999 -0.5946293 -9.260011E-05
vn 0.8039999 -0.5946293 -9.260011E-05
vn 0.8038934 -0.5947734 -0.0002987207
vn 0.8234994 -0.5673171 -0.0001270923
vn 0.8234994 -0.5673172 -0.0001270923
vn 0.01980129 0.01046695 0.9997491
vn 0.01980129 0.01046695 0.9997491
vn 0.01980129 0.01046695 0.9997491
vn 2.237863E-05 0.0197116 0.9998057
vn 8.601525E-07 2.036391E-05 1
vn 8.601524E-07 2.03639E-05 1
vn 6.489418E-06 -4.879705E-06 1
vn 4.872367E-05 3.257805E-05 1
vn 4.872366E-05 3.257805E-05 1
vn 0.01070759 -0.0008719834 0.9999423
vn -1.521854E-05 3.781376E-05 1
vn -0.001881998 0.01650715 0.999862
vn 0.01070759 -0.0008719834 0.9999423
vn 0.01070759 -0.0008719835 0.9999423
vn 7.282909E-05 -4.611038E-05 1
vn 0.0002154309 0.02422275 0.9997066
vn 0.0002154309 0.02422275 0.9997066
vn 0.0002154309 0.02422276 0.9997066
vn -0.00531604 0.02544345 0.9996622
vn -0.02372744 -0.004765447 0.999707
vn -0.02372744 -0.004765447 0.999707
vn -0.04333827 -0.008817712 0.9990215
vn -0.04333827 -0.008817713 0.9990215
vn 0.6664478 0.7455516 4.525085E-05
vn 0.6664478 0.7455516 4.525084E-05
vn 0.6664478 0.7455517 4.525085E-05
vn 0.6663966 0.7455975 -5.42397E-05
vn -0.993363 -0.1149036 0.005200474
vn -0.993363 -0.1149036 0.005200474
vn -0.993363 -0.1149036 0.005200474
vn -0.9939917 -0.1094556 0.0002760024
vn 0.7992521 -0.600996 0.0001088682
vn 0.7992521 -0.600996 0.0001088682
vn 0.7992521 -0.600996 0.0001088682
vn 0.7993092 -0.6009199 4.299623E-05
vn -0.2914135 -0.9565971 1.525437E-05
vn -0.2914135 -0.9565971 1.525437E-05
vn -0.2914135 -0.9565971 1.525437E-05
vn -0.2914324 -0.9565914 3.125117E-05
vn 0.4928744 -0.8701004 -2.580006E-05
vn 0.4928744 -0.8701004 -2.580006E-05
vn 0.4928744 -0.8701004 -2.580006E-05
vn 0.4929358 -0.8700657 2.679795E-05
vn 0.9973618 0.0725899 6.6819E-05
vn 0.9973618 0.0725899 6.6819E-05
vn 0.9973618 0.0725899 6.6819E-05
vn 0.9973677 0.07251117 0.000135854
vn -0.7614396 -0.6482359 0.0002115848
vn -0.7614395 -0.6482359 0.0002115848
vn -0.7614395 -0.6482359 0.0002115848
vn -0.7615442 -0.648113 8.166266E-05
vn -0.7156872 0.6983969 -0.005793993
vn -0.7156872 0.6983969 -0.005793993
vn -0.7156872 0.6983969 -0.005793993
vn -0.7090254 0.7051829 -0.0001398138
vn -0.5655506 0.8247136 -0.0002070212
vn -0.5655505 0.8247136 -0.0002070211
vn -0.5655506 0.8247136 -0.0002070211
vn -0.5654304 0.824796 -0.0002619806
vn -0.9289201 -0.3702803 6.825797E-05
vn -0.9289201 -0.3702803 6.825798E-05
vn -0.9289201 -0.3702803 6.825798E-05
vn -0.9289353 -0.3702421 3.487904E-05
vn 0.6720146 0.7405379 2.362803E-05
vn 0.6720146 0.7405379 2.362803E-05
vn 0.6720147 0.7405378 2.362803E-05
vn 0.672056 0.7405003 -3.367314E-05
vn -0.2035533 0.9790638 6.632971E-06
vn -0.2035533 0.9790638 6.632971E-06
vn -0.2035533 0.9790638 6.632971E-06
vn -0.2035891 0.9790564 2.481042E-05
vn -0.8843903 -0.4667482 -2.080327E-05
vn -0.8843903 -0.4667482 -2.080327E-05
vn -0.8843903 -0.4667482 -2.080326E-05
vn -0.8843798 -0.4667681 -4.901341E-05
vn -0.0254768 -0.03641516 0.999012
vn -0.0254768 -0.03641516 0.999012
vn -0.02547681 -0.03641516 0.999012
vn 0.008723459 -0.04203261 0.9990782
vn 0.008723458 -0.04203261 0.9990782
vn 0.008723459 -0.0420326 0.9990782
vn 0.07169048 0.01415492 0.9973265
vn 0.07169048 0.01415492 0.9973265
vn 0.07169048 0.01415492 0.9973265
vn -0.05502729 -0.04677826 0.9973885
vn -0.05502729 -0.04677826 0.9973885
vn -0.05502729 -0.04677826 0.9973885
vn -0.08376861 -0.06233786 0.9945334
vn -0.08376861 -0.06233786 0.9945334
vn -0.05572765 0.01005942 0.9983953
vn -0.05572765 0.01005942 0.9983953
vn -0.05572765 0.01005942 0.9983953
vn -0.09439748 -0.01163229 0.9954666
vn -0.09439748 -0.01163229 0.9954666
vn -0.8133261 0.5818081 6.540469E-05
vn -0.813326 0.5818081 6.540468E-05
vn -0.8133261 0.5818081 6.540469E-05
vn -0.8133425 0.5817853 2.469235E-05
vn -0.02429773 -0.03546925 0.9990753
vn -0.02429773 -0.03546924 0.9990753
vn -0.02429773 -0.03546925 0.9990753
vn -1.099081E-05 2.445011E-07 1
vn 0.05272099 -0.03630684 0.9979491
vn 0.052721 -0.03630683 0.9979491
vn 0.05272099 -0.03630683 0.9979491
vn 0.8835076 -0.4684168 -5.026807E-05
vn 0.8835076 -0.4684168 -5.026807E-05
vn 0.8835076 -0.4684168 -5.026807E-05
vn 0.8835303 -0.4683742 -0.0001376346
vn -0.1065597 0.9940367 -0.0231523
vn -0.1065597 0.9940367 -0.0231523
vn -0.1065597 0.9940367 -0.0231523
vn -0.08154929 0.9966694 -3.538211E-05
vn -0.9386823 0.3447626 -0.003799347
vn -0.9386823 0.3447626 -0.003799347
vn -0.9386823 0.3447626 -0.003799347
vn -0.9401745 0.3406936 2.710946E-05
vn -0.01590613 0.02938891 0.9994414
vn -0.01590613 0.02938891 0.9994414
vn -0.01590613 0.02938891 0.9994414
vn 0.9464105 -0.3229623 -0.001588618
vn 0.9464105 -0.3229623 -0.001588618
vn 0.9464105 -0.3229623 -0.001588618
vn 0.9459797 -0.3242259 -2.318173E-05
vn 0.9197655 0.3924684 -0.0001098501
vn 0.9197655 0.3924684 -0.0001098501
vn 0.9197655 0.3924684 -0.0001098501
vn 0.9194629 0.3931765 -2.718979E-06
vn -0.009447538 -0.0007406326 -0.9999552
vn -0.009447538 -0.0007406326 -0.9999552
vn -0.009447538 -0.0007406326 -0.9999552
vn -0.01926883 0.003846351 -0.9998069
vn -0.01910464 0.005076791 -0.9998047
vn -0.01736966 0.002818667 -0.9998451
vn -0.01772367 -0.00556589 -0.9998274
vn -0.01327337 7.169875E-06 -0.9999119
vn -0.01297468 0.0001598853 -0.9999158
vn 0.0009221109 -0.01964229 -0.9998067
vn -0.01328129 -5.154948E-06 -0.9999118
vn -0.01328143 -3.981369E-06 -0.9999118
vn 0.0009221109 -0.01964229 -0.9998067
vn 0.0009221109 -0.01964229 -0.9998067
vn -0.03350785 0.003687425 -0.9994317
vn -0.03350785 0.003687424 -0.9994317
vn -0.03326831 -0.01705699 -0.999301
vn -0.01111122 0.003908358 -0.9999306
vn -0.009673065 0.00359104 -0.9999468
vn -0.01111122 0.003908358 -0.9999306
vn -0.01111122 0.003908358 -0.9999306
vn -0.01511035 -0.0003885087 -0.9998858
vn -0.01511035 -0.0003885087 -0.9998858
vn -0.01292195 5.047818E-05 -0.9999166
vn -0.04779365 -0.004134524 -0.9988487
vn -0.04134753 0.0007765596 -0.9991446
vn -0.004398445 -0.04252388 -0.9990858
vn -0.004398444 -0.04252387 -0.9990858
vn -0.004398445 -0.04252387 -0.9990858
vn -0.05866891 -0.008446186 -0.9982418
vn -0.05866891 -0.008446185 -0.9982418
vn -0.05866891 -0.008446186 -0.9982418
vn -0.04680197 0.02309862 -0.998637
vn 0.002141383 0.02256185 -0.9997432
vn 0.002141383 0.02256185 -0.9997432
vn 0.002141383 0.02256186 -0.9997432
vn -0.01330551 8.165661E-06 -0.9999115
vn 0.7767717 0.6297823 -0.0001971511
vn 0.7767717 0.6297823 -0.0001971511
vn 0.7767717 0.6297824 -0.0001971511
vn 0.7619869 0.6471063 0.0250884
g El_WaterTower_Deco_0
f 3/3/3 2/2/2 1/1/1
f 4/4/4 1/1/1 2/2/2
f 7/7/7 6/6/6 5/5/5
f 8/8/8 5/5/5 6/6/6
f 11/11/11 10/10/10 9/9/9
f 12/12/12 9/9/9 10/10/10
f 15/15/15 14/14/14 13/13/13
f 16/16/16 13/13/13 14/14/14
f 19/19/19 18/18/18 17/17/17
f 20/20/20 17/17/17 18/18/18
f 23/23/23 22/22/22 21/21/21
f 24/24/24 21/21/21 22/22/22
f 21/21/21 24/24/24 25/25/25
f 26/26/26 25/25/25 24/24/24
f 29/29/29 28/28/28 27/27/27
f 30/30/30 27/27/27 28/28/28
f 33/33/33 32/32/32 31/31/31
f 34/34/34 31/31/31 32/32/32
f 37/37/37 36/36/36 35/35/35
f 38/38/38 35/35/35 36/36/36
f 41/41/41 40/40/40 39/39/39
f 42/42/42 39/39/39 40/40/40
f 42/42/42 40/40/40 43/43/43
f 44/44/44 43/43/43 40/40/40
f 47/47/47 46/46/46 45/45/45
f 48/48/48 45/45/45 46/46/46
f 45/45/45 49/49/49 47/47/47
f 50/50/50 47/47/47 49/49/49
f 50/50/50 49/49/49 51/51/51
f 52/52/52 51/51/51 49/49/49
f 53/53/53 51/51/51 52/52/52
f 53/53/53 52/52/52 54/54/54
f 55/55/55 54/54/54 52/52/52
f 56/56/56 54/54/54 55/55/55
f 57/57/57 54/54/54 56/56/56
f 58/58/58 54/54/54 57/57/57
f 56/56/56 55/55/55 59/59/59
f 58/58/58 57/57/57 60/60/60
f 61/61/61 60/60/60 57/57/57
f 61/61/61 62/62/62 60/60/60
f 63/63/63 60/60/60 62/62/62
f 62/62/62 64/64/64 63/63/63
f 65/65/65 64/64/64 62/62/62
f 64/64/64 67/67/67 66/66/66
f 70/70/70 69/69/69 68/68/68
f 71/71/71 68/68/68 69/69/69
f 74/74/74 73/73/73 72/72/72
f 75/75/75 72/72/72 73/73/73
f 78/78/78 77/77/77 76/76/76
f 79/79/79 76/76/76 77/77/77
f 82/82/82 81/81/81 80/80/80
f 83/83/83 80/80/80 81/81/81
f 86/86/86 85/85/85 84/84/84
f 87/87/87 84/84/84 85/85/85
f 90/90/90 89/89/89 88/88/88
f 91/91/91 88/88/88 89/89/89
f 94/94/94 93/93/93 92/92/92
f 95/95/95 92/92/92 93/93/93
f 98/98/98 97/97/97 96/96/96
f 99/99/99 96/96/96 97/97/97
f 102/102/102 101/101/101 100/100/100
f 103/103/103 100/100/100 101/101/101
f 106/106/106 105/105/105 104/104/104
f 107/107/107 104/104/104 105/105/105
f 110/110/110 109/109/109 108/108/108
f 111/111/111 108/108/108 109/109/109
f 114/114/114 113/113/113 112/112/112
f 115/115/115 112/112/112 113/113/113
f 118/118/118 117/117/117 116/116/116
f 119/119/119 116/116/116 117/117/117
f 122/122/122 121/121/121 120/120/120
f 124/124/124 123/123/123 122/122/122
f 125/125/125 123/123/123 124/124/124
f 128/128/128 127/127/127 126/126/126
f 131/131/131 130/130/130 129/129/129
f 133/133/133 131/131/131 132/132/132
f 136/136/136 135/135/135 134/134/134
f 138/138/138 134/134/134 137/137/137
f 141/141/141 140/140/140 139/139/139
f 142/142/142 139/139/139 140/140/140
f 145/145/145 144/144/144 143/143/143
f 146/146/146 144/144/144 145/145/145
f 149/149/149 148/148/148 147/147/147
f 152/152/152 151/151/151 150/150/150
f 153/153/153 150/150/150 151/151/151
f 156/156/156 155/155/155 154/154/154
f 157/157/157 154/154/154 155/155/155
f 160/160/160 159/159/159 158/158/158
f 161/161/161 158/158/158 159/159/159
f 164/164/164 163/163/163 162/162/162
f 167/167/167 166/166/166 165/165/165
f 168/168/168 165/165/165 166/166/166
f 171/171/171 170/170/170 169/169/169
f 172/172/172 169/169/169 170/170/170
f 175/175/175 174/174/174 173/173/173
f 176/176/176 173/173/173 174/174/174
f 173/173/173 176/176/176 177/177/177
f 178/178/178 177/177/177 176/176/176
f 178/178/178 179/179/179 177/177/177
f 180/180/180 177/177/177 179/179/179
f 179/179/179 181/181/181 180/180/180
f 181/181/181 182/182/182 180/180/180
f 183/183/183 180/180/180 182/182/182
f 182/182/182 184/184/184 183/183/183
f 185/185/185 184/184/184 182/182/182
f 186/186/186 185/185/185 182/182/182
f 183/183/183 184/184/184 187/187/187
f 184/184/184 188/188/188 187/187/187
f 189/189/189 187/187/187 188/188/188
f 186/186/186 190/190/190 185/185/185
f 191/191/191 185/185/185 190/190/190
f 191/191/191 190/190/190 192/192/192
f 193/193/193 192/192/192 190/190/190
f 194/194/194 192/192/192 193/193/193
f 195/195/195 194/194/194 193/193/193
f 196/196/196 192/192/192 194/194/194
f 188/188/188 197/197/197 189/189/189
f 199/199/199 198/198/198 189/189/189
f 200/200/200 198/198/198 199/199/199
f 201/201/201 200/200/200 199/199/199
f 189/189/189 198/198/198 202/202/202
f 198/198/198 203/203/203 202/202/202
f 204/204/204 202/202/202 203/203/203
f 203/203/203 205/205/205 204/204/204
f 208/208/208 207/207/207 206/206/206
f 206/206/206 209/209/209 208/208/208
f 212/212/212 211/211/211 210/210/210
f 213/213/213 210/210/210 211/211/211
