g Camp_Arena_Wall07
v 0.3114477 -2.32395 0.3897308
v -0.4876392 1.091334 0.3897583
v 0.311449 1.091334 0.3897308
v -0.4876392 -2.32395 0.3897583
v 0.3114484 1.376536 0.3897308
v -0.3894891 1.491169 0.3897546
v 0.3428277 1.694828 0.3897296
v -0.1600598 1.88421 0.3897467
v 0.3909607 2.019813 0.3897278
v 0.1536767 2.169433 0.3897357
v 0.4876379 2.32395 0.3897241
v -0.4876392 1.091334 0.3897583
v -0.3894891 1.491169 9.130777E-17
v -0.3894891 1.491169 0.3897546
v -0.4876392 1.091334 6.682491E-17
v -0.1600598 1.88421 1.153746E-16
v -0.1600598 1.88421 0.3897467
v 0.1536767 2.169434 1.328395E-16
v 0.1536767 2.169433 0.3897357
v 0.4876379 2.32395 1.423009E-16
v 0.4876379 2.32395 0.3897241
v -0.4876392 -2.32395 0.3897583
v -0.4876392 -2.32395 -1.423009E-16
v -0.4876392 1.091334 -0.3897583
v -0.3894891 1.491169 -0.3897546
v -0.1600598 1.88421 -0.3897467
v 0.1536767 2.169433 -0.3897357
v 0.4876379 2.32395 -0.3897241
v -0.4876392 -2.32395 -0.3897583
v 0.4876379 2.32395 0.3897241
v 0.3909558 2.019814 1.236779E-16
v 0.3909607 2.019813 0.3897278
v 0.4876379 2.32395 1.423009E-16
v 0.3428271 1.694828 1.037783E-16
v 0.3428277 1.694828 0.3897296
v 0.3114477 1.376537 8.428857E-17
v 0.3114484 1.376536 0.3897308
v 0.3114477 1.091334 6.682491E-17
v 0.311449 1.091334 0.3897308
v 0.3114477 -2.32395 -1.423009E-16
v 0.3114477 -2.32395 0.3897308
v 0.4876379 2.32395 -0.3897241
v 0.3909607 2.019813 -0.3897278
v 0.3428277 1.694828 -0.3897296
v 0.3114484 1.376536 -0.3897308
v 0.311449 1.091334 -0.3897308
v 0.3114477 -2.32395 -0.3897308
v 0.3114477 -2.32395 -0.3897308
v -0.4876392 1.091334 -0.3897583
v -0.4876392 -2.32395 -0.3897583
v 0.311449 1.091334 -0.3897308
v 0.3114484 1.376536 -0.3897308
v -0.3894891 1.491169 -0.3897546
v 0.3428277 1.694828 -0.3897296
v -0.1600598 1.88421 -0.3897467
v 0.3909607 2.019813 -0.3897278
v 0.1536767 2.169433 -0.3897357
v 0.4876379 2.32395 -0.3897241
vt 0.4134744 0.6465386
vt 0.4592662 0.8402289
vt 0.4136951 0.8419142
vt 0.4590419 0.646148
vt 0.4145442 0.8587292
vt 0.4549994 0.8611858
vt 0.4152989 0.8775862
vt 0.4452305 0.8830994
vt 0.4164908 0.8969405
vt 0.4317922 0.9014246
vt 0.4172963 0.9157493
vt 0.4592662 0.8402289
vt 0.4759896 0.8679547
vt 0.4549994 0.8611858
vt 0.4812801 0.8425466
vt 0.4643906 0.8938636
vt 0.4452305 0.8830994
vt 0.4491597 0.9150241
vt 0.4317922 0.9014246
vt 0.434494 0.9310755
vt 0.4172963 0.9157493
vt 0.4590419 0.646148
vt 0.4813753 0.646212
vt 0.4592662 0.8402289
vt 0.4549994 0.8611858
vt 0.4452305 0.8830994
vt 0.4317922 0.9014246
vt 0.4172963 0.9157493
vt 0.4590419 0.646148
vt 0.4172963 0.9157493
vt 0.3942051 0.8977268
vt 0.4164908 0.8969405
vt 0.3948682 0.9160822
vt 0.3931422 0.8785293
vt 0.4152989 0.8775862
vt 0.3922306 0.8596056
vt 0.4145442 0.8587292
vt 0.3914513 0.8425036
vt 0.4136951 0.8419142
vt 0.3913612 0.6468897
vt 0.4134744 0.6465386
vt 0.4172963 0.9157493
vt 0.4164908 0.8969405
vt 0.4152989 0.8775862
vt 0.4145442 0.8587292
vt 0.4136951 0.8419142
vt 0.4134744 0.6465386
vt 0.4134744 0.6465386
vt 0.4592662 0.8402289
vt 0.4590419 0.646148
vt 0.4136951 0.8419142
vt 0.4145442 0.8587292
vt 0.4549994 0.8611858
vt 0.4152989 0.8775862
vt 0.4452305 0.8830994
vt 0.4164908 0.8969405
vt 0.4317922 0.9014246
vt 0.4172963 0.9157493
vn 3.43715E-05 0 1
vn 3.427539E-05 2.69194E-07 1
vn 3.437145E-05 0 1
vn 3.43715E-05 0 1
vn 3.417247E-05 3.463038E-07 1
vn 3.408211E-05 6.07583E-07 1
vn 3.411672E-05 4.796688E-07 1
vn 3.41131E-05 4.762817E-07 1
vn 3.416364E-05 9.220083E-07 1
vn 3.411895E-05 1.07812E-06 1
vn 3.418059E-05 1.175866E-06 1
vn -0.9927657 0.1200674 0
vn -0.9269699 0.3751357 0
vn -0.9269704 0.3751345 0
vn -0.9927657 0.1200678 0
vn -0.7771531 0.6293117 0
vn -0.7771541 0.6293104 0
vn -0.5526891 0.8333876 0
vn -0.5526916 0.8333859 1.585098E-06
vn -0.4199094 0.907566 0
vn -0.4199101 0.9075657 7.106747E-07
vn -1 0 0
vn -1 0 0
vn -0.9927657 0.1200674 0
vn -0.9269704 0.3751345 0
vn -0.7771541 0.6293104 0
vn -0.5526916 0.8333859 -1.585098E-06
vn -0.4199101 0.9075657 -7.106747E-07
vn -1 0 0
vn 0.9530085 -0.3029436 -7.228952E-06
vn 0.974255 -0.225449 0
vn 0.9742552 -0.225448 -9.657807E-06
vn 0.9530059 -0.3029517 0
vn 0.9924878 -0.1223435 0
vn 0.9924874 -0.122347 -1.650126E-06
vn 0.9987931 -0.04911503 0
vn 0.9987931 -0.04911428 -2.071336E-06
vn 1 4.303479E-07 0
vn 1 1.057104E-06 -3.018889E-06
vn 1 -3.315698E-07 0
vn 1 -3.574237E-07 0
vn 0.9530085 -0.3029436 7.228952E-06
vn 0.9742552 -0.225448 9.657807E-06
vn 0.9924874 -0.122347 1.650126E-06
vn 0.9987931 -0.04911428 2.071336E-06
vn 1 1.057104E-06 3.018889E-06
vn 1 -3.574237E-07 0
vn 3.43715E-05 0 -1
vn 3.427539E-05 2.69194E-07 -1
vn 3.43715E-05 0 -1
vn 3.437145E-05 0 -1
vn 3.417247E-05 3.463038E-07 -1
vn 3.408211E-05 6.07583E-07 -1
vn 3.411672E-05 4.796688E-07 -1
vn 3.41131E-05 4.762818E-07 -1
vn 3.416364E-05 9.220084E-07 -1
vn 3.411895E-05 1.07812E-06 -1
vn 3.418059E-05 1.175866E-06 -1
g Camp_Arena_Wall07_0
f 3/3/3 2/2/2 1/1/1
f 4/4/4 1/1/1 2/2/2
f 3/3/3 5/5/5 2/2/2
f 6/6/6 2/2/2 5/5/5
f 5/5/5 7/7/7 6/6/6
f 8/8/8 6/6/6 7/7/7
f 7/7/7 9/9/9 8/8/8
f 10/10/10 8/8/8 9/9/9
f 11/11/11 10/10/10 9/9/9
f 14/14/14 13/13/13 12/12/12
f 15/15/15 12/12/12 13/13/13
f 13/13/13 14/14/14 16/16/16
f 17/17/17 16/16/16 14/14/14
f 16/16/16 17/17/17 18/18/18
f 19/19/19 18/18/18 17/17/17
f 18/18/18 19/19/19 20/20/20
f 21/21/21 20/20/20 19/19/19
f 12/12/12 15/15/15 22/22/22
f 23/23/23 22/22/22 15/15/15
f 15/15/15 13/13/13 24/24/24
f 25/25/25 24/24/24 13/13/13
f 13/13/13 16/16/16 25/25/25
f 26/26/26 25/25/25 16/16/16
f 16/16/16 18/18/18 26/26/26
f 27/27/27 26/26/26 18/18/18
f 18/18/18 20/20/20 27/27/27
f 28/28/28 27/27/27 20/20/20
f 24/24/24 29/29/29 15/15/15
f 23/23/23 15/15/15 29/29/29
f 32/32/32 31/31/31 30/30/30
f 33/33/33 30/30/30 31/31/31
f 31/31/31 32/32/32 34/34/34
f 35/35/35 34/34/34 32/32/32
f 34/34/34 35/35/35 36/36/36
f 37/37/37 36/36/36 35/35/35
f 36/36/36 37/37/37 38/38/38
f 39/39/39 38/38/38 37/37/37
f 38/38/38 39/39/39 40/40/40
f 41/41/41 40/40/40 39/39/39
f 33/33/33 31/31/31 42/42/42
f 43/43/43 42/42/42 31/31/31
f 31/31/31 34/34/34 43/43/43
f 44/44/44 43/43/43 34/34/34
f 34/34/34 36/36/36 44/44/44
f 45/45/45 44/44/44 36/36/36
f 36/36/36 38/38/38 45/45/45
f 46/46/46 45/45/45 38/38/38
f 38/38/38 40/40/40 46/46/46
f 47/47/47 46/46/46 40/40/40
f 50/50/50 49/49/49 48/48/48
f 51/51/51 48/48/48 49/49/49
f 51/51/51 49/49/49 52/52/52
f 53/53/53 52/52/52 49/49/49
f 52/52/52 53/53/53 54/54/54
f 55/55/55 54/54/54 53/53/53
f 54/54/54 55/55/55 56/56/56
f 57/57/57 56/56/56 55/55/55
f 57/57/57 58/58/58 56/56/56
