g Camp_Arena_Wall01
v 0.6473993 -1.03547 -0.2527478
v 0.1177451 -0.6223045 0.1283545
v 0.6364926 -0.6223046 -0.2683533
v 0.1299649 -1.03547 0.1429761
v 1.19697 -1.03547 -0.602478
v 1.187455 -0.6223047 -0.6189489
v 0.6364926 -0.6223046 -0.2683533
v 0.09786621 -0.5830101 0.1045752
v 0.6187292 -0.5830101 -0.2937683
v 0.1177451 -0.6223045 0.1283545
v 1.187455 -0.6223047 -0.6189489
v 1.17194 -0.58301 -0.645813
v 0.6187292 -0.5830101 -0.2937683
v 0.09788391 0.8450221 0.104563
v 0.6187326 0.8450221 -0.2937683
v 0.09786621 -0.5830101 0.1045752
v 1.17194 -0.58301 -0.645813
v 1.171941 0.845022 -0.6458105
v -0.3514923 -1.03547 0.5817553
v -0.8079779 -0.6223044 1.048008
v -0.3649389 -0.6223044 0.5682287
v -0.7934039 -1.03547 1.060338
v 0.1299649 -1.03547 0.1429761
v 0.1177451 -0.6223045 0.1283545
v -0.3649389 -0.6223044 0.5682287
v -0.8316217 -0.58301 1.028014
v -0.3867828 -0.58301 0.5462634
v -0.8079779 -0.6223044 1.048008
v 0.1177451 -0.6223045 0.1283545
v 0.09786621 -0.5830101 0.1045752
v -0.3867828 -0.58301 0.5462634
v -0.831643 0.8450223 1.027943
v -0.386806 0.8450222 0.5462427
v -0.8316217 -0.58301 1.028014
v 0.09788391 0.8450221 0.104563
v 0.09786621 -0.5830101 0.1045752
v 0.1088647 0.8552378 0.1176794
v 0.6187326 0.8450221 -0.2937683
v 0.09788391 0.8450221 0.104563
v 0.628548 0.8552378 -0.2797217
v 1.171941 0.845022 -0.6458105
v 1.180525 0.8552377 -0.6309436
v 0.05831818 1.03547 0.05716797
v 0.6187357 1.03547 -0.2937683
v 0.09790009 1.03547 0.1045532
v 0.5833814 1.03547 -0.3443738
v 1.171942 1.03547 -0.6458093
v 1.14108 1.03547 -0.6992627
v 0.04804626 0.9480137 0.04487183
v 0.5742188 1.02547 -0.3574902
v 0.04804626 1.02547 0.04487183
v 0.5742188 0.9480137 -0.3574902
v -0.0514148 0.9480137 -0.07419556
v 0.3965054 0.9480137 -0.6118664
v 0.4853613 0.9480137 -0.4846777
v -0.1508759 0.9480137 -0.1932629
v 0.04804626 0.9480137 0.04487183
v 0.5742188 0.9480137 -0.3574902
v 1.055509 0.9480136 -0.8474719
v 1.133092 0.9480136 -0.7130994
v 0.9779279 0.9480136 -0.9818457
v -0.2007294 1.03547 -0.2529443
v 0.3901538 1.03547 -0.6209595
v -0.157998 1.03547 -0.2017895
v 0.3519559 1.03547 -0.6756347
v 0.9723889 1.03547 -0.9914343
v 0.9390185 1.03547 -1.049233
v -0.1508759 1.02547 -0.1932629
v 0.3965054 0.9480137 -0.6118664
v -0.1508759 0.9480137 -0.1932629
v 0.3965054 1.02547 -0.6118664
v 0.628548 1.025254 -0.2797217
v 1.180525 0.8552377 -0.6309436
v 0.628548 0.8552378 -0.2797217
v 1.180525 1.025254 -0.6309436
v 0.1088647 0.8552378 0.1176794
v 0.1088651 1.025254 0.1176794
v 0.6187357 1.03547 -0.2937683
v 1.180525 1.025254 -0.6309436
v 0.628548 1.025254 -0.2797217
v 1.171942 1.03547 -0.6458093
v 0.09790009 1.03547 0.1045532
v 0.1088651 1.025254 0.1176794
v 0.5742188 0.9480137 -0.3574902
v 1.133092 1.02547 -0.7130994
v 0.5742188 1.02547 -0.3574902
v 1.133092 0.9480136 -0.7130994
v 0.5742188 1.02547 -0.3574902
v 1.14108 1.03547 -0.6992627
v 0.5833814 1.03547 -0.3443738
v 1.133092 1.02547 -0.7130994
v 0.04804626 1.02547 0.04487183
v 0.05831818 1.03547 0.05716797
v 0.3445911 1.025254 -0.686178
v 0.9390185 1.03547 -1.049233
v 0.3519559 1.03547 -0.6756347
v 0.932608 1.025254 -1.060337
v -0.208999 1.025254 -0.2628442
v -0.2007294 1.03547 -0.2529443
v -0.7241754 1.025254 0.2066089
v -0.7151123 1.03547 0.2157324
v -1.187183 1.03547 0.7268555
v -1.196969 1.025254 0.7185705
v 0.3965054 1.02547 -0.6118664
v 0.9779279 0.9480136 -0.9818457
v 0.3965054 0.9480137 -0.6118664
v 0.9779279 1.02547 -0.9818457
v 0.3901538 1.03547 -0.6209595
v 0.9779279 1.02547 -0.9818457
v 0.3965054 1.02547 -0.6118664
v 0.9723889 1.03547 -0.9914343
v 0.3965054 1.02547 -0.6118664
v -0.157998 1.03547 -0.2017895
v 0.3901538 1.03547 -0.6209595
v -0.1508759 1.02547 -0.1932629
v -0.386806 0.8450222 0.5462427
v 0.1088647 0.8552378 0.1176794
v 0.09788391 0.8450221 0.104563
v -0.3747552 0.855238 0.5583813
v -0.831643 0.8450223 1.027943
v -0.8185644 0.855238 1.038964
v -0.3868292 1.03547 0.5462231
v 0.05831818 1.03547 0.05716797
v 0.09790009 1.03547 0.1045532
v -0.4303357 1.03547 0.502428
v -0.8316644 1.03547 1.027872
v -0.8787714 1.03547 0.9879882
v -0.4416113 1.02547 0.4910766
v 0.04804626 0.9480137 0.04487183
v 0.04804626 1.02547 0.04487183
v -0.4416113 0.9480138 0.4910766
v -0.5509515 0.9480138 0.3809985
v -0.1508759 0.9480137 -0.1932629
v -0.0514148 0.9480137 -0.07419556
v -0.6602917 0.9480138 0.2709216
v -0.4416113 0.9480138 0.4910766
v -1.009381 0.9480139 0.8773999
v -0.8909649 0.9480139 0.9776636
v 0.04804626 0.9480137 0.04487183
v -1.127797 0.9480139 0.7771375
v -0.6681079 1.03547 0.263053
v -0.2007294 1.03547 -0.2529443
v -0.157998 1.03547 -0.2017895
v -0.7151123 1.03547 0.2157324
v -1.136248 1.03547 0.7699817
v -1.187183 1.03547 0.7268555
v -0.6602917 0.9480138 0.2709216
v -0.1508759 1.02547 -0.1932629
v -0.1508759 0.9480137 -0.1932629
v -0.6602917 1.02547 0.2709216
v -0.3747552 1.025254 0.5583813
v -0.8185644 0.855238 1.038964
v -0.8185644 1.025254 1.038964
v -0.3747552 0.855238 0.5583813
v 0.1088647 0.8552378 0.1176794
v 0.1088651 1.025254 0.1176794
v -0.3868292 1.03547 0.5462231
v -0.8185644 1.025254 1.038964
v -0.8316644 1.03547 1.027872
v -0.3747552 1.025254 0.5583813
v 0.09790009 1.03547 0.1045532
v 0.1088651 1.025254 0.1176794
v -0.4416113 0.9480138 0.4910766
v -0.8909649 1.02547 0.9776636
v -0.8909649 0.9480139 0.9776636
v -0.4416113 1.02547 0.4910766
v -0.4416113 1.02547 0.4910766
v -0.8787714 1.03547 0.9879882
v -0.8909649 1.02547 0.9776636
v -0.4303357 1.03547 0.502428
v 0.04804626 1.02547 0.04487183
v 0.05831818 1.03547 0.05716797
v -0.6602917 1.02547 0.2709216
v -1.127797 0.9480139 0.7771375
v -1.127797 1.02547 0.7771375
v -0.6602917 0.9480138 0.2709216
v -0.6681079 1.03547 0.263053
v -1.127797 1.02547 0.7771375
v -1.136248 1.03547 0.7699817
v -0.6602917 1.02547 0.2709216
v -0.157998 1.03547 -0.2017895
v -0.6602917 1.02547 0.2709216
v -0.6681079 1.03547 0.263053
v -0.1508759 1.02547 -0.1932629
vt 0.1390209 0.01397816
vt 0.2649032 0.09115848
vt 0.1390209 0.09115848
vt 0.2649032 0.01397816
vt 0.01260208 0.01397816
vt 0.01260208 0.09115848
vt 0.1390209 0.09115848
vt 0.2649032 0.1006348
vt 0.1390209 0.1006348
vt 0.2649032 0.09115848
vt 0.01260208 0.09115848
vt 0.01260208 0.1006348
vt 0.1390209 0.1006348
vt 0.2649032 0.3685252
vt 0.1390209 0.3685252
vt 0.2649032 0.1006348
vt 0.01260208 0.1006348
vt 0.01260211 0.3685252
vt 0.1390209 0.01397816
vt 0.2649032 0.09115848
vt 0.1390209 0.09115848
vt 0.2649032 0.01397816
vt 0.0126021 0.01397816
vt 0.0126021 0.09115848
vt 0.1390209 0.09115848
vt 0.2649032 0.1006348
vt 0.1390209 0.1006348
vt 0.2649032 0.09115848
vt 0.0126021 0.09115848
vt 0.0126021 0.1006348
vt 0.1390209 0.1006348
vt 0.2649032 0.3685252
vt 0.1390209 0.3685252
vt 0.2649032 0.1006348
vt 0.01260213 0.3685252
vt 0.0126021 0.1006348
vt 0.2649032 0.3722604
vt 0.1390209 0.3685252
vt 0.2649032 0.3685252
vt 0.1390209 0.3722604
vt 0.01260208 0.3685252
vt 0.01260208 0.3722604
vt 0.2649032 0.4194277
vt 0.1390209 0.4078512
vt 0.2649032 0.4078512
vt 0.1390209 0.4194277
vt 0.01260208 0.4078512
vt 0.01260208 0.4194277
vt 0.2649032 0.4374826
vt 0.1390209 0.4229639
vt 0.2649032 0.4229639
vt 0.1390209 0.4374826
vt 0.2649032 0.4665549
vt 0.1390209 0.4374826
vt 0.1390209 0.4665549
vt 0.2649032 0.4374826
vt 0.2649032 0.4374826
vt 0.1390209 0.4374826
vt 0.01260208 0.4665549
vt 0.01260208 0.4374826
vt 0.01260208 0.4374826
vt 0.2649032 0.4078512
vt 0.1390209 0.4194277
vt 0.2649032 0.4194277
vt 0.1390209 0.4078512
vt 0.01260208 0.4194277
vt 0.01260208 0.4078512
vt 0.2649032 0.4229639
vt 0.1390209 0.4374826
vt 0.2649032 0.4374826
vt 0.1390209 0.4229639
vt 0.1390209 0.4041186
vt 0.01260208 0.3722604
vt 0.1390209 0.3722604
vt 0.01260208 0.4041186
vt 0.2649032 0.3722604
vt 0.2649032 0.4041186
vt 0.1390209 0.4078512
vt 0.01260208 0.4041186
vt 0.1390209 0.4041186
vt 0.01260208 0.4078512
vt 0.2649032 0.4078512
vt 0.2649032 0.4041186
vt 0.1390209 0.4374826
vt 0.01260208 0.4229639
vt 0.1390209 0.4229639
vt 0.01260208 0.4374826
vt 0.1390209 0.4229639
vt 0.01260208 0.4194277
vt 0.1390209 0.4194277
vt 0.01260208 0.4229639
vt 0.2649032 0.4229639
vt 0.2649032 0.4194277
vt 0.1390209 0.4041186
vt 0.01260208 0.4078512
vt 0.1390209 0.4078512
vt 0.01260208 0.4041186
vt 0.2649032 0.4041186
vt 0.2649032 0.4078512
vt 0.1390209 0.4041186
vt 0.1390209 0.4078512
vt 0.01260208 0.4078512
vt 0.01260208 0.4041186
vt 0.1390209 0.4229639
vt 0.01260208 0.4374826
vt 0.1390209 0.4374826
vt 0.01260208 0.4229639
vt 0.1390209 0.4194277
vt 0.01260208 0.4229639
vt 0.1390209 0.4229639
vt 0.01260208 0.4194277
vt 0.1390209 0.4229639
vt 0.2649032 0.4194277
vt 0.1390209 0.4194277
vt 0.2649032 0.4229639
vt 0.1390209 0.3685252
vt 0.0126021 0.3722604
vt 0.0126021 0.3685252
vt 0.1390209 0.3722604
vt 0.2649032 0.3685252
vt 0.2649032 0.3722604
vt 0.1390209 0.4078512
vt 0.0126021 0.4194277
vt 0.0126021 0.4078512
vt 0.1390209 0.4194277
vt 0.2649032 0.4078512
vt 0.2649032 0.4194277
vt 0.1390209 0.4229639
vt 0.2649032 0.4374826
vt 0.2649032 0.4229639
vt 0.1390209 0.4374826
vt 0.1390209 0.4665549
vt 0.0126021 0.4374826
vt 0.0126021 0.4665549
vt 0.1390209 0.4374826
vt 0.1390209 0.4374826
vt 0.2649032 0.4665549
vt 0.2649032 0.4374826
vt 0.0126021 0.4374826
vt 0.2649032 0.4374826
vt 0.1390209 0.4194277
vt 0.0126021 0.4078512
vt 0.0126021 0.4194277
vt 0.1390209 0.4078512
vt 0.2649032 0.4194277
vt 0.2649032 0.4078512
vt 0.1390209 0.4374826
vt 0.0126021 0.4229639
vt 0.0126021 0.4374826
vt 0.1390209 0.4229639
vt 0.1390209 0.4041186
vt 0.2649032 0.3722604
vt 0.2649032 0.4041186
vt 0.1390209 0.3722604
vt 0.0126021 0.3722604
vt 0.0126021 0.4041186
vt 0.1390209 0.4078512
vt 0.2649032 0.4041186
vt 0.2649032 0.4078512
vt 0.1390209 0.4041186
vt 0.0126021 0.4078512
vt 0.0126021 0.4041186
vt 0.1390209 0.4374826
vt 0.01260208 0.4229639
vt 0.01260208 0.4374826
vt 0.1390209 0.4229639
vt 0.1390209 0.4229639
vt 0.2649032 0.4194277
vt 0.2649032 0.4229639
vt 0.1390209 0.4194277
vt 0.0126021 0.4229639
vt 0.0126021 0.4194277
vt 0.1390209 0.4229639
vt 0.2649032 0.4374826
vt 0.2649032 0.4229639
vt 0.1390209 0.4374826
vt 0.1390209 0.4194277
vt 0.2649032 0.4229639
vt 0.2649032 0.4194277
vt 0.1390209 0.4229639
vt 0.0126021 0.4194277
vt 0.1390209 0.4229639
vt 0.1390209 0.4194277
vt 0.0126021 0.4229639
vn 0.5721008 0.04603918 0.8188902
vn 0.6404394 0.04606497 0.766626
vn 0.572094 0.04602472 0.8188957
vn 0.6404456 0.04607941 0.76662
vn 0.5362974 0.04596277 0.8427766
vn 0.5362899 0.04594795 0.8427823
vn 0.4495843 0.6194619 0.6435378
vn 0.5033829 0.619304 0.6025515
vn 0.4495856 0.6194708 0.6435283
vn 0.5033801 0.6192946 0.6025634
vn 0.4215354 0.6192884 0.6624121
vn 0.4215323 0.6192974 0.6624056
vn 0.5727124 -1.096177E-06 0.8197564
vn 0.641117 6.978002E-06 0.7674432
vn 0.5727115 -1.536852E-06 0.819757
vn 0.6411324 -1.38661E-06 0.7674303
vn 0.5368768 -1.405789E-06 0.8436607
vn 0.5368761 -1.786546E-06 0.8436611
vn 0.7040395 0.0461214 0.7086616
vn 0.7339069 0.04609783 0.6776841
vn 0.704034 0.04610677 0.7086681
vn 0.7339125 0.04611229 0.6776769
vn 0.6404456 0.04607941 0.76662
vn 0.6404394 0.04606497 0.766626
vn 0.5534726 0.6190977 0.5571231
vn 0.5772527 0.6185791 0.533047
vn 0.5534775 0.6191074 0.5571074
vn 0.5772574 0.61857 0.5330526
vn 0.5033801 0.6192946 0.6025634
vn 0.5033829 0.619304 0.6025515
vn 0.7047848 2.14374E-05 0.7094212
vn 0.7346679 2.804828E-05 0.6784269
vn 0.7047588 2.175591E-05 0.709447
vn 0.7346924 4.462505E-05 0.6784005
vn 0.641117 6.978002E-06 0.7674432
vn 0.6411324 -1.38661E-06 0.7674303
vn 0.3287006 -0.8585558 0.3934945
vn 0.2932593 -0.8589441 0.4197786
vn 0.3287242 -0.8585522 0.3934826
vn 0.2932491 -0.8589519 0.4197696
vn 0.2747254 -0.8591353 0.4317551
vn 0.2747178 -0.8591434 0.4317439
vn 0 1 0
vn 0 1 0
vn 0 1 0
vn 7.514651E-07 1 9.826292E-07
vn 7.596042E-07 1 9.769432E-07
vn 2.000897E-07 1 -1.155237E-07
vn -0.6074452 0 -0.7943615
vn -0.6074452 0 -0.7943615
vn -0.6074452 0 -0.7943615
vn -0.6074452 0 -0.7943615
vn 0 1 0
vn 0 1 0
vn 0 1 0
vn 0 1 0
vn 0 1 0
vn 0 1 0
vn 0 1 0
vn 0 1 0
vn 0 1 0
vn 0 1 0
vn 0 1 0
vn 0 1 0
vn 0 1 0
vn 1.814231E-07 1 -1.267481E-07
vn 1.90079E-07 1 -1.097424E-07
vn 0.6074665 0 0.7943454
vn 0.6074665 0 0.7943453
vn 0.6074665 0 0.7943454
vn 0.6074665 0 0.7943454
vn 0.5726729 0 0.819784
vn 0.5368364 0 0.8436863
vn 0.5726729 0 0.819784
vn 0.5368364 0 0.8436863
vn 0.6410924 -9.644992E-07 0.7674637
vn 0.6410924 -1.150751E-06 0.7674637
vn 0.2932789 0.8589224 0.4198091
vn 0.2747713 0.8591064 0.4317834
vn 0.2932868 0.8589146 0.4198198
vn 0.2747647 0.8591141 0.4317724
vn 0.3287414 0.8585182 0.3935422
vn 0.3287501 0.85851 0.3935528
vn -0.5368354 0 -0.843687
vn -0.5368354 0 -0.843687
vn -0.5368354 0 -0.8436869
vn -0.5368354 0 -0.8436869
vn -0.2847291 0.8477749 -0.447445
vn -0.2847291 0.8477749 -0.447445
vn -0.2847291 0.8477749 -0.447445
vn -0.2850038 0.8474367 -0.4479105
vn -0.3221627 0.8477746 -0.4212951
vn -0.3218549 0.8481058 -0.4208632
vn -0.3562225 0.783012 -0.5098997
vn -0.334726 0.7818155 -0.5260448
vn -0.356214 0.7830259 -0.5098842
vn -0.3347349 0.7818016 -0.5260596
vn -0.3980424 0.78392 -0.4764784
vn -0.3980429 0.7839202 -0.4764777
vn -0.4383468 0.7830003 -0.4413191
vn -0.4383455 0.7830001 -0.4413207
vn -0.4580467 0.7818315 -0.4230044
vn -0.4580593 0.7818183 -0.4230153
vn 0.5368581 0 0.8436725
vn 0.5368581 0 0.8436725
vn 0.5368581 0 0.8436726
vn 0.5368581 0 0.8436726
vn 0.3596694 0.7424042 0.5652201
vn 0.3596694 0.7424042 0.5652202
vn 0.3596694 0.7424042 0.5652202
vn 0.3599795 0.7418575 0.5657404
vn 0.4069604 0.7424029 0.5321854
vn 0.4069604 0.7424029 0.5321853
vn 0.4069604 0.7424029 0.5321854
vn 0.406607 0.7429482 0.5316942
vn 0.361368 -0.8585327 0.3637785
vn 0.3287006 -0.8585558 0.3934945
vn 0.3287242 -0.8585522 0.3934826
vn 0.3613742 -0.858532 0.3637739
vn 0.3770185 -0.8582743 0.3481699
vn 0.3770196 -0.8582733 0.348171
vn 0 1 0
vn 0 1 0
vn 0 1 0
vn 0 1 0
vn 0 1 0
vn 0 1 0
vn -0.6735497 0 -0.7391419
vn -0.6735497 0 -0.7391419
vn -0.6735497 0 -0.739142
vn -0.6735497 0 -0.739142
vn 0 1 0
vn 0 1 0
vn 0 1 0
vn 0 1 0
vn 0 1 0
vn 0 1 0
vn 0 1 0
vn 0 1 0
vn 0 1 0
vn 0 1 0
vn 0 1 0
vn 0 1 0
vn 0 1 0
vn 2.127664E-07 1 -2.512918E-07
vn 2.127663E-07 1 -2.512918E-07
vn 0.6735297 0 0.7391602
vn 0.6735297 0 0.7391602
vn 0.6735297 0 0.7391602
vn 0.6735297 0 0.7391601
vn 0.7047557 0 0.7094501
vn 0.734655 0 0.6784408
vn 0.734655 0 0.6784409
vn 0.7047557 0 0.7094501
vn 0.6410924 -9.644992E-07 0.7674637
vn 0.6410924 -1.150751E-06 0.7674637
vn 0.3608936 0.8589274 0.3633174
vn 0.3759885 0.8590985 0.3472498
vn 0.3759791 0.8591059 0.3472416
vn 0.3609054 0.8589196 0.3633241
vn 0.3287414 0.8585182 0.3935422
vn 0.3287501 0.85851 0.3935528
vn -0.7346556 0 -0.6784403
vn -0.7346556 0 -0.6784403
vn -0.7346555 0 -0.6784403
vn -0.7346555 0 -0.6784403
vn -0.3900186 0.847443 -0.3601748
vn -0.3900186 0.847443 -0.3601747
vn -0.3900186 0.847443 -0.3601748
vn -0.3896186 0.8477736 -0.3598295
vn -0.3572224 0.8477738 -0.3920099
vn -0.3568509 0.8481063 -0.3916287
vn 0.7346379 0 0.6784593
vn 0.734638 0 0.6784592
vn 0.7346379 0 0.6784593
vn 0.734638 0 0.6784592
vn 0.4926198 0.741868 0.4549259
vn 0.4926198 0.741868 0.454926
vn 0.4926198 0.741868 0.4549259
vn 0.4921931 0.742379 0.4545542
vn 0.4512648 0.7423794 0.49521
vn 0.4512648 0.7423794 0.4952099
vn 0.4512648 0.7423794 0.4952099
vn 0.450827 0.7429474 0.4947567
g Camp_Arena_Wall01_0
f 3/3/3 2/2/2 1/1/1
f 4/4/4 1/1/1 2/2/2
f 1/1/1 5/5/5 3/3/3
f 6/6/6 3/3/3 5/5/5
f 9/9/9 8/8/8 7/7/7
f 10/10/10 7/7/7 8/8/8
f 7/7/7 11/11/11 9/9/9
f 12/12/12 9/9/9 11/11/11
f 15/15/15 14/14/14 13/13/13
f 16/16/16 13/13/13 14/14/14
f 13/13/13 17/17/17 15/15/15
f 18/18/18 15/15/15 17/17/17
f 21/21/21 20/20/20 19/19/19
f 22/22/22 19/19/19 20/20/20
f 19/19/19 23/23/23 21/21/21
f 24/24/24 21/21/21 23/23/23
f 27/27/27 26/26/26 25/25/25
f 28/28/28 25/25/25 26/26/26
f 25/25/25 29/29/29 27/27/27
f 30/30/30 27/27/27 29/29/29
f 33/33/33 32/32/32 31/31/31
f 34/34/34 31/31/31 32/32/32
f 33/33/33 31/31/31 35/35/35
f 36/36/36 35/35/35 31/31/31
f 39/39/39 38/38/38 37/37/37
f 40/40/40 37/37/37 38/38/38
f 38/38/38 41/41/41 40/40/40
f 42/42/42 40/40/40 41/41/41
f 45/45/45 44/44/44 43/43/43
f 46/46/46 43/43/43 44/44/44
f 44/44/44 47/47/47 46/46/46
f 48/48/48 46/46/46 47/47/47
f 51/51/51 50/50/50 49/49/49
f 52/52/52 49/49/49 50/50/50
f 55/55/55 54/54/54 53/53/53
f 56/56/56 53/53/53 54/54/54
f 53/53/53 57/57/57 55/55/55
f 58/58/58 55/55/55 57/57/57
f 55/55/55 58/58/58 59/59/59
f 60/60/60 59/59/59 58/58/58
f 54/54/54 55/55/55 61/61/61
f 59/59/59 61/61/61 55/55/55
f 64/64/64 63/63/63 62/62/62
f 65/65/65 62/62/62 63/63/63
f 63/63/63 66/66/66 65/65/65
f 67/67/67 65/65/65 66/66/66
f 70/70/70 69/69/69 68/68/68
f 71/71/71 68/68/68 69/69/69
f 74/74/74 73/73/73 72/72/72
f 75/75/75 72/72/72 73/73/73
f 74/74/74 72/72/72 76/76/76
f 77/77/77 76/76/76 72/72/72
f 80/80/80 79/79/79 78/78/78
f 81/81/81 78/78/78 79/79/79
f 78/78/78 82/82/82 80/80/80
f 83/83/83 80/80/80 82/82/82
f 86/86/86 85/85/85 84/84/84
f 87/87/87 84/84/84 85/85/85
f 90/90/90 89/89/89 88/88/88
f 91/91/91 88/88/88 89/89/89
f 88/88/88 92/92/92 90/90/90
f 93/93/93 90/90/90 92/92/92
f 96/96/96 95/95/95 94/94/94
f 97/97/97 94/94/94 95/95/95
f 94/94/94 98/98/98 96/96/96
f 99/99/99 96/96/96 98/98/98
f 98/98/98 100/100/100 99/99/99
f 101/101/101 99/99/99 100/100/100
f 101/101/101 100/100/100 102/102/102
f 103/103/103 102/102/102 100/100/100
f 106/106/106 105/105/105 104/104/104
f 107/107/107 104/104/104 105/105/105
f 110/110/110 109/109/109 108/108/108
f 111/111/111 108/108/108 109/109/109
f 114/114/114 113/113/113 112/112/112
f 115/115/115 112/112/112 113/113/113
f 118/118/118 117/117/117 116/116/116
f 119/119/119 116/116/116 117/117/117
f 116/116/116 119/119/119 120/120/120
f 121/121/121 120/120/120 119/119/119
f 124/124/124 123/123/123 122/122/122
f 125/125/125 122/122/122 123/123/123
f 122/122/122 125/125/125 126/126/126
f 127/127/127 126/126/126 125/125/125
f 130/130/130 129/129/129 128/128/128
f 131/131/131 128/128/128 129/129/129
f 134/134/134 133/133/133 132/132/132
f 135/135/135 132/132/132 133/133/133
f 132/132/132 136/136/136 134/134/134
f 132/132/132 137/137/137 136/136/136
f 132/132/132 135/135/135 137/137/137
f 138/138/138 136/136/136 137/137/137
f 139/139/139 134/134/134 136/136/136
f 140/140/140 137/137/137 135/135/135
f 143/143/143 142/142/142 141/141/141
f 144/144/144 141/141/141 142/142/142
f 141/141/141 144/144/144 145/145/145
f 146/146/146 145/145/145 144/144/144
f 149/149/149 148/148/148 147/147/147
f 150/150/150 147/147/147 148/148/148
f 153/153/153 152/152/152 151/151/151
f 154/154/154 151/151/151 152/152/152
f 154/154/154 155/155/155 151/151/151
f 156/156/156 151/151/151 155/155/155
f 159/159/159 158/158/158 157/157/157
f 160/160/160 157/157/157 158/158/158
f 157/157/157 160/160/160 161/161/161
f 162/162/162 161/161/161 160/160/160
f 165/165/165 164/164/164 163/163/163
f 166/166/166 163/163/163 164/164/164
f 169/169/169 168/168/168 167/167/167
f 170/170/170 167/167/167 168/168/168
f 167/167/167 170/170/170 171/171/171
f 172/172/172 171/171/171 170/170/170
f 175/175/175 174/174/174 173/173/173
f 176/176/176 173/173/173 174/174/174
f 179/179/179 178/178/178 177/177/177
f 180/180/180 177/177/177 178/178/178
f 183/183/183 182/182/182 181/181/181
f 184/184/184 181/181/181 182/182/182
