g Camp_Ground_01
v 6.484702 -1.821785 15.32972
v 9.362504 1.683357 14.76472
v 9.362504 -1.822144 14.76472
v 6.484701 1.681156 15.32972
v 4.326562 -1.821432 15.43371
v 4.326562 1.681156 15.43371
v 2.150199 1.681199 15.32972
v 2.150199 -1.821432 15.32971
v -0.4960817 1.683443 14.8641
v -0.4960782 -1.821432 14.8641
v -3.183808 1.683442 14.00444
v -3.183801 -1.821433 14.00445
v -5.86967 -1.821433 12.96337
v -5.890961 1.683441 12.95571
v 12.95639 -1.822143 13.54494
v 12.95638 1.683357 13.54495
v 14.67273 1.683356 12.34107
v 14.67273 -1.822143 12.34107
v -8.215519 1.683441 11.82275
v -8.215518 -1.821433 11.82275
v 8.735146 1.683348 11.98979
v 12.95638 1.683357 13.54495
v 9.362504 1.683357 14.76472
v 11.71014 1.683348 10.94987
v 6.061998 1.681171 12.59842
v 6.484701 1.681156 15.32972
v 13.38608 1.683348 10.01218
v 14.67273 1.683356 12.34107
v 4.326533 1.661953 12.64359
v 4.326562 1.681156 15.43371
v 6.061998 1.681171 12.59842
v 2.150199 1.681199 15.32972
v 2.591125 1.681214 12.55348
v 0.2561878 1.68233 12.17248
v -0.4960817 1.683443 14.8641
v -2.271446 1.68343 11.33981
v -3.183808 1.683442 14.00444
v -5.890961 1.683441 12.95571
v -4.647987 1.68343 10.3117
v -8.215519 1.683441 11.82275
v -6.885971 1.68343 9.289762
vt 0.5537025 0.08724865
vt 0.6182957 0.1734741
vt 0.6348024 0.09754594
vt 0.5478358 0.1696854
vt 0.5081692 0.08552884
vt 0.5091053 0.1687045
vt 0.4701592 0.1708297
vt 0.4625082 0.08799762
vt 0.4020318 0.1797028
vt 0.3854891 0.09920713
vt 0.3434902 0.1953319
vt 0.3179347 0.117378
vt 0.2514653 0.1437813
vt 0.2852161 0.2176816
vt 0.7219173 0.1260155
vt 0.6909124 0.1939397
vt 0.7236574 0.2122744
vt 0.768416 0.1544902
vt 0.2366065 0.243012
vt 0.1940242 0.1751335
vt 0.6457589 0.2348652
vt 0.6909124 0.1939397
vt 0.6182957 0.1734741
vt 0.6787575 0.2470172
vt 0.5521591 0.2358657
vt 0.5478358 0.1696854
vt 0.6984398 0.2542654
vt 0.7236574 0.2122744
vt 0.5115676 0.2394926
vt 0.5091053 0.1687045
vt 0.5521591 0.2358657
vt 0.4701592 0.1708297
vt 0.4709434 0.2377084
vt 0.4259999 0.2493481
vt 0.4020318 0.1797028
vt 0.3552566 0.2656845
vt 0.3434902 0.1953319
vt 0.2852161 0.2176816
vt 0.3117256 0.2814205
vt 0.2366065 0.243012
vt 0.2629626 0.3111404
vn 0.02361805 -2.8752E-07 0.999721
vn 0.1864734 -6.685615E-07 0.98246
vn 0.1861519 -1.072862E-06 0.982521
vn 0.02365876 1.917997E-07 0.99972
vn -7.113424E-07 0 1
vn -3.430034E-07 5.708401E-07 1
vn -0.05077158 -1.365758E-07 0.9987103
vn -0.05062448 -4.215273E-07 0.9987178
vn -0.173436 -2.779203E-07 0.9848452
vn -0.1732319 -1.37003E-07 0.984881
vn -0.2917801 -1.036746E-07 0.9564855
vn -0.2917799 -1.595198E-07 0.9564855
vn -0.3883841 -0.000139716 0.9214976
vn -0.3890476 -0.0003488263 0.9212176
vn 0.4523871 -6.716457E-07 0.8918217
vn 0.4523871 -4.990741E-07 0.8918217
vn 0.6869274 -5.382857E-07 0.7267261
vn 0.6869273 -3.126487E-07 0.7267262
vn -0.4715161 -0.0002065485 0.8818575
vn -0.4712707 -3.568965E-07 0.8819886
vn -9.898463E-07 1 -2.849828E-06
vn -9.898462E-07 1 -2.849828E-06
vn -9.898462E-07 1 -2.849828E-06
vn -9.230966E-07 1 -3.03101E-06
vn -0.008197905 0.9999664 6.278797E-05
vn -0.000331639 0.9999763 -0.00688231
vn -1.672249E-06 1 -2.744806E-06
vn -1.672249E-06 1 -2.744807E-06
vn -0.0003316391 0.9999763 -0.00688231
vn -0.000331639 0.9999763 -0.00688231
vn -0.01102851 0.9999378 0.001712342
vn 0.01100687 0.9999379 0.001753585
vn 0.01100687 0.9999379 0.001753585
vn 0.005758927 0.9999806 -0.00238015
vn 9.326209E-06 1 -4.267369E-05
vn 1.355639E-06 1 -3.646002E-06
vn 1.481416E-05 1 -4.125313E-05
vn 1.481416E-05 1 -4.125312E-05
vn 1.481416E-05 1 -4.125313E-05
vn 1.91909E-05 1 -3.942149E-05
vn 2.222677E-05 1 -3.352624E-05
g Camp_Ground_01_0
f 3/3/3 2/2/2 1/1/1
f 4/4/4 1/1/1 2/2/2
f 1/1/1 4/4/4 5/5/5
f 6/6/6 5/5/5 4/4/4
f 6/6/6 7/7/7 5/5/5
f 8/8/8 5/5/5 7/7/7
f 7/7/7 9/9/9 8/8/8
f 10/10/10 8/8/8 9/9/9
f 9/9/9 11/11/11 10/10/10
f 12/12/12 10/10/10 11/11/11
f 12/12/12 11/11/11 13/13/13
f 14/14/14 13/13/13 11/11/11
f 3/3/3 15/15/15 2/2/2
f 16/16/16 2/2/2 15/15/15
f 16/16/16 15/15/15 17/17/17
f 18/18/18 17/17/17 15/15/15
f 14/14/14 19/19/19 13/13/13
f 20/20/20 13/13/13 19/19/19
f 23/23/23 22/22/22 21/21/21
f 24/24/24 21/21/21 22/22/22
f 21/21/21 25/25/25 23/23/23
f 26/26/26 23/23/23 25/25/25
f 24/24/24 22/22/22 27/27/27
f 28/28/28 27/27/27 22/22/22
f 30/30/30 26/26/26 29/29/29
f 31/31/31 29/29/29 26/26/26
f 30/30/30 29/29/29 32/32/32
f 33/33/33 32/32/32 29/29/29
f 33/33/33 34/34/34 32/32/32
f 35/35/35 32/32/32 34/34/34
f 34/34/34 36/36/36 35/35/35
f 37/37/37 35/35/35 36/36/36
f 37/37/37 36/36/36 38/38/38
f 39/39/39 38/38/38 36/36/36
f 38/38/38 39/39/39 40/40/40
f 41/41/41 40/40/40 39/39/39
