g Camp_Xmas_Box_04
v 0.003165973 0.2914215 -0.01131143
v -0.191819 0.2914209 -0.2116823
v 0.003567333 0.2914209 -0.2020768
v -0.1804077 0.2914215 -0.0109204
v 0.002845867 0.2914209 0.1893132
v -0.1918191 0.2914209 0.1990794
v 0.1961464 0.2914209 0.1990794
v 0.1847758 0.2914215 -0.0120212
v 0.1961465 0.2914209 -0.2116823
v 0.002845867 0.2914209 0.1893132
v -0.1731343 -1.428748E-08 0.1792012
v -0.1918191 0.2914209 0.1990794
v 0.003371315 -1.486352E-08 0.1703734
v 0.1961464 0.2914209 0.1990794
v 0.1775135 -1.695923E-08 0.1792016
v 0.1847758 0.2914215 -0.0120212
v 0.1775135 1.53731E-08 -0.19205
v 0.1672367 -3.026965E-10 -0.01115564
v 0.1961465 0.2914209 -0.2116823
v 0.1961464 0.2914209 0.1990794
v 0.1775135 -1.695923E-08 0.1792016
v -0.191819 0.2914209 -0.2116823
v 0.002922752 1.594733E-08 -0.1833687
v 0.003567333 0.2914209 -0.2020768
v -0.1731343 1.804486E-08 -0.1920503
v 0.1775135 1.53731E-08 -0.19205
v 0.1961465 0.2914209 -0.2116823
v -0.191819 0.2914209 -0.2116823
v -0.1628205 2.185517E-09 -0.01084995
v -0.1731343 1.804486E-08 -0.1920503
v -0.1804077 0.2914215 -0.0109204
v -0.1731343 -1.428748E-08 0.1792012
v -0.1918191 0.2914209 0.1990794
v -0.1505983 0.4266014 0.07037108
v -0.198772 0.417237 -0.06654551
v -0.1534027 0.427094 -0.06815386
v -0.1975115 0.416332 0.06829887
v -0.2230272 0.3818473 -0.05647997
v -0.2211943 0.3815234 0.05963817
v -0.2158421 0.3374478 0.05133646
v -0.2175017 0.3384192 -0.04781662
v -0.1013 0.4094333 -0.06016167
v -0.09892374 0.4094078 0.06236494
v -0.03671226 0.3390294 0.03045009
v -0.038065 0.3390341 -0.02972391
v -0.2158421 0.3374478 0.05133646
v -0.1671299 0.309627 -0.04378624
v -0.2175017 0.3384192 -0.04781662
v -0.1670466 0.3096252 0.04633141
v -0.03671226 0.3390294 0.03045009
v -0.01968748 0.310674 -0.01870034
v -0.01885032 0.310674 0.01975103
v -0.038065 0.3390341 -0.02972391
v -0.1670466 0.3096252 0.04633141
v -0.01968748 0.310674 -0.01870034
v -0.1671299 0.309627 -0.04378624
v -0.01885032 0.310674 0.01975103
v -0.05280967 0.3888203 -0.04137604
v -0.02396322 0.4342197 0.04496224
v -0.05207003 0.3893461 0.04023493
v -0.02367607 0.4338067 -0.04601329
v 0.02140957 0.4361115 0.04437287
v 0.02092883 0.4356266 -0.04501249
v 0.05556493 0.3929015 -0.03941339
v 0.05538324 0.3932681 0.03916724
v 0.02693589 0.3113798 0.02160513
v 0.02690073 0.3113762 -0.02167856
v -0.02029982 0.3107476 0.02208044
v -0.02128079 0.310671 -0.02259755
v -0.0632679 0.3050354 0.0194257
v -0.07796975 0.3136233 0.1499988
v -0.155554 0.3120649 0.05515116
v -0.02524828 0.3059492 0.06607598
v -0.007024652 0.3080044 0.0361878
v -0.03156563 0.30768 0.006396576
v -0.1951022 0.3428255 0.0779464
v -0.1514906 0.3436127 0.1316096
v -0.1077213 0.3444041 0.1854659
v -0.1351599 0.4102681 0.2026072
v -0.2177102 0.4093543 0.1019754
v -0.07005497 0.4251428 -0.1504129
v 0.06686258 0.4157765 -0.1985842
v 0.06847044 0.4256353 -0.1532153
v -0.06798139 0.4148752 -0.197324
v 0.0567961 0.3803874 -0.2228381
v -0.05932192 0.3800624 -0.2210055
v -0.05102075 0.3359891 -0.2156526
v 0.04813414 0.3369623 -0.2173119
v 0.06047811 0.4079753 -0.1011125
v -0.0620482 0.4079497 -0.09873804
v -0.03013342 0.3375714 -0.03652553
v 0.03003987 0.3375767 -0.03787447
v -0.05102075 0.3359891 -0.2156526
v 0.04410327 0.3081678 -0.1669424
v 0.048134 0.3369623 -0.2173119
v -0.04601507 0.3081678 -0.1668584
v -0.03013342 0.3375714 -0.03652553
v 0.01895211 0.3099449 -0.01940053
v -0.01968748 0.310674 -0.01870034
v 0.03003987 0.3375767 -0.03787447
v -0.04601507 0.3081678 -0.1668584
v 0.01895211 0.3099449 -0.01940053
v 0.04410327 0.3081678 -0.1669424
v -0.01968748 0.310674 -0.01870034
v 0.1505999 0.4251446 -0.06967363
v 0.1987718 0.4157789 0.06724431
v 0.1534044 0.4256366 0.0688528
v 0.1975122 0.4148763 -0.06759984
v 0.2230255 0.3803904 0.05717741
v 0.2211932 0.380066 -0.05894079
v 0.2158405 0.3359903 -0.05063964
v 0.2175001 0.3369635 0.04851612
v 0.1013002 0.4079759 0.06085955
v 0.09892492 0.4079503 -0.06166625
v 0.03671247 0.337572 -0.02975074
v 0.03806414 0.3375779 0.03042126
v 0.2158405 0.3359903 -0.05063964
v 0.1671303 0.3081701 0.04448527
v 0.2175001 0.3369635 0.04851612
v 0.1670461 0.3081696 -0.0456326
v 0.03671247 0.337572 -0.02975074
v 0.01978981 0.3099467 0.01905019
v 0.01895208 0.3099467 -0.01940261
v 0.03806414 0.3375779 0.03042126
v 0.1670461 0.3081696 -0.0456326
v 0.01978981 0.3099467 0.01905019
v 0.1671303 0.3081701 0.04448527
v 0.01895208 0.3099467 -0.01940261
v 0.07026099 0.425144 0.1504141
v -0.06665614 0.4157747 0.198585
v -0.06826472 0.4256347 0.1532182
v 0.06818762 0.4148722 0.197326
v -0.05658999 0.3803844 0.2228386
v 0.05952768 0.38006 0.2210072
v 0.05122669 0.3359838 0.2156547
v -0.04792841 0.3369576 0.2173133
v -0.0602721 0.4079735 0.1011136
v 0.06225416 0.4079485 0.09873858
v 0.03033906 0.3375696 0.03652579
v -0.02983381 0.3375755 0.03787768
v 0.05122669 0.3359838 0.2156547
v -0.04389709 0.3081666 0.1669438
v -0.04792796 0.3369576 0.2173133
v 0.04622096 0.3081666 0.1668598
v 0.03033906 0.3375696 0.03652579
v -0.01884998 0.3106722 0.01975159
v 0.01978981 0.3099437 0.01905019
v -0.02983381 0.3375755 0.03787768
v 0.04622096 0.3081666 0.1668598
v -0.01884998 0.3106722 0.01975159
v -0.04389709 0.3081666 0.1669438
v 0.01978981 0.3099437 0.01905019
v 0.0588993 0.305036 -0.01842614
v 0.07026315 0.3136239 -0.1493328
v 0.1502437 0.312069 -0.05649815
v 0.01970114 0.3059498 -0.0640915
v 0.002246636 0.308005 -0.03374784
v 0.02753944 0.3076818 -0.00459198
v 0.1891973 0.342829 -0.08029764
v 0.1442294 0.3436134 -0.1328273
v 0.09910037 0.3444048 -0.1855469
v 0.126092 0.4102687 -0.2033826
v 0.2111844 0.4093549 -0.104892
v -0.198772 0.4163938 -0.0665464
v -0.1505984 0.4257577 0.07037169
v -0.1534027 0.4262503 -0.06815505
v -0.1975114 0.4154902 0.06829768
v -0.2230272 0.3810041 -0.05647938
v -0.2211943 0.3806804 0.05963638
v -0.2158421 0.3366041 0.05133556
v -0.2175017 0.3375767 -0.04781752
v -0.1012999 0.4085908 -0.06016228
v -0.09892369 0.4085647 0.06236374
v -0.03671222 0.3381869 0.03044889
v -0.03806495 0.3381917 -0.02972332
v -0.1671299 0.3087833 -0.04378743
v -0.2158421 0.3366041 0.05133556
v -0.2175017 0.3375767 -0.04781752
v -0.1670464 0.3087828 0.0463305
v -0.01968746 0.3098314 -0.01870183
v -0.03671222 0.3381869 0.03044889
v -0.01885035 0.3098314 0.01975073
v -0.03806495 0.3381917 -0.02972332
v -0.01968746 0.3098314 -0.01870183
v -0.1670464 0.3087828 0.0463305
v -0.1671299 0.3087833 -0.04378743
v -0.01885035 0.3098314 0.01975073
v 0.1987718 0.4149352 0.06724431
v 0.1506001 0.4243015 -0.06967305
v 0.1534045 0.424794 0.0688516
v 0.1975123 0.4140333 -0.06759986
v 0.223026 0.3795461 0.05717736
v 0.221193 0.3792217 -0.05894078
v 0.2158407 0.3351478 -0.05063965
v 0.2175001 0.3361204 0.04851612
v 0.1013002 0.4071315 0.06085955
v 0.09892485 0.407106 -0.06166714
v 0.03671262 0.3367277 -0.02975075
v 0.03806431 0.3367354 0.03042155
v 0.1671303 0.3073271 0.04448527
v 0.2158407 0.3351478 -0.05063965
v 0.2175001 0.3361204 0.04851612
v 0.1670461 0.3073264 -0.0456335
v 0.01978981 0.3091036 0.01905019
v 0.03671262 0.3367277 -0.02975075
v 0.01895203 0.3091036 -0.01940321
v 0.03806431 0.3367354 0.03042155
v 0.01978981 0.3091036 0.01905019
v 0.1670461 0.3073264 -0.0456335
v 0.1671303 0.3073271 0.04448527
v 0.01895203 0.3091036 -0.01940321
vt 0.7045366 0.7381988
vt 0.6062228 0.6689744
vt 0.7045366 0.6689744
vt 0.611946 0.7381988
vt 0.7045366 0.6689744
vt 0.6062552 0.6689744
vt 0.8018017 0.6689744
vt 0.7960345 0.7381988
vt 0.8017692 0.6689744
vt 0.7045366 0.6689744
vt 0.6156697 0.5685405
vt 0.6062552 0.6689744
vt 0.7045366 0.5685405
vt 0.8018017 0.6689744
vt 0.7924067 0.5685405
vt 0.7941976 0.4473458
vt 0.6761592 0.3642815
vt 0.6761592 0.4473458
vt 0.7941976 0.3642815
vt 0.7941976 0.5306581
vt 0.6761592 0.5306581
vt 0.6062228 0.6689744
vt 0.7045366 0.5685405
vt 0.7045366 0.6689744
vt 0.6156376 0.5685405
vt 0.7923749 0.5685405
vt 0.8017692 0.6689744
vt 0.7941976 0.5306581
vt 0.6761592 0.4473458
vt 0.6761592 0.5306581
vt 0.7941976 0.4473458
vt 0.6761592 0.3642815
vt 0.7941976 0.3642815
vt 0.2970166 0.8973747
vt 0.2137996 0.8691471
vt 0.2133054 0.8972197
vt 0.2952701 0.868396
vt 0.219653 0.8431782
vt 0.289816 0.8430012
vt 0.2848527 0.8161547
vt 0.2249381 0.8167518
vt 0.2187507 0.9303725
vt 0.292791 0.9303519
vt 0.2742741 0.9873521
vt 0.2379108 0.9872959
vt 0.2848527 0.8161547
vt 0.2282437 0.7926598
vt 0.2249381 0.8167518
vt 0.2804915 0.7910988
vt 0.2404862 0.7078174
vt 0.2627389 0.7022796
vt 0.2413874 0.7021955
vt 0.263607 0.7078792
vt 0.2804915 0.7910988
vt 0.240306 0.7076163
vt 0.2282437 0.7926598
vt 0.2636243 0.7072482
vt 0.1678984 0.7469071
vt 0.2156764 0.7765682
vt 0.2130726 0.7473235
vt 0.1653181 0.7766364
vt 0.2154042 0.7998233
vt 0.1659263 0.7998572
vt 0.1691554 0.8314249
vt 0.2126512 0.8311297
vt 0.2029506 0.8765561
vt 0.1789917 0.8765824
vt 0.2031787 0.7016659
vt 0.1784426 0.7014014
vt 0.3505042 0.8823116
vt 0.3015633 0.9266857
vt 0.3682858 0.9250032
vt 0.3177372 0.8832337
vt 0.3236999 0.8695261
vt 0.3447181 0.8691096
vt 0.3728462 0.9545915
vt 0.3351958 0.9556053
vt 0.2974108 0.9566221
vt 0.3000971 0.9922695
vt 0.3709723 0.9908049
vt 0.2970166 0.8973747
vt 0.2137996 0.8691471
vt 0.2133054 0.8972197
vt 0.2952701 0.868396
vt 0.219653 0.8431782
vt 0.289816 0.8430012
vt 0.2848527 0.8161547
vt 0.2249381 0.8167518
vt 0.2187507 0.9303725
vt 0.292791 0.9303519
vt 0.2742741 0.9873521
vt 0.2379108 0.9872959
vt 0.2848527 0.8161547
vt 0.2282437 0.7926598
vt 0.2249381 0.8167518
vt 0.2804915 0.7910988
vt 0.2404862 0.7078174
vt 0.2627389 0.7022796
vt 0.2413874 0.7021955
vt 0.263607 0.7078792
vt 0.2804915 0.7910988
vt 0.240306 0.7076163
vt 0.2282437 0.7926598
vt 0.2636243 0.7072482
vt 0.2970166 0.8973747
vt 0.2137996 0.8691471
vt 0.2133054 0.8972197
vt 0.2952701 0.868396
vt 0.219653 0.8431782
vt 0.289816 0.8430012
vt 0.2848527 0.8161547
vt 0.2249381 0.8167518
vt 0.2187507 0.9303725
vt 0.292791 0.9303519
vt 0.2742741 0.9873521
vt 0.2379108 0.9872959
vt 0.2848527 0.8161547
vt 0.2282437 0.7926598
vt 0.2249381 0.8167518
vt 0.2804915 0.7910988
vt 0.2404862 0.7078174
vt 0.2627389 0.7022796
vt 0.2413874 0.7021955
vt 0.263607 0.7078792
vt 0.2804915 0.7910988
vt 0.240306 0.7076163
vt 0.2282437 0.7926598
vt 0.2636243 0.7072482
vt 0.2970166 0.8973747
vt 0.2137996 0.8691471
vt 0.2133054 0.8972197
vt 0.2952701 0.868396
vt 0.219653 0.8431782
vt 0.289816 0.8430012
vt 0.2848527 0.8161547
vt 0.2249381 0.8167518
vt 0.2187507 0.9303725
vt 0.292791 0.9303519
vt 0.2742741 0.9873521
vt 0.2379108 0.9872959
vt 0.2848527 0.8161547
vt 0.2282437 0.7926598
vt 0.2249381 0.8167518
vt 0.2804915 0.7910988
vt 0.2404862 0.7078174
vt 0.2627389 0.7022796
vt 0.2413874 0.7021955
vt 0.263607 0.7078792
vt 0.2804915 0.7910988
vt 0.240306 0.7076163
vt 0.2282437 0.7926598
vt 0.2636243 0.7072482
vt 0.3505042 0.8823116
vt 0.3015633 0.9266857
vt 0.3682858 0.9250032
vt 0.3177372 0.8832337
vt 0.3236999 0.8695261
vt 0.3447181 0.8691096
vt 0.3728462 0.9545915
vt 0.3351958 0.9556053
vt 0.2974108 0.9566221
vt 0.3000971 0.9922695
vt 0.3709723 0.9908049
vt 0.2137996 0.8691471
vt 0.2970166 0.8973747
vt 0.2133054 0.8972197
vt 0.2952701 0.868396
vt 0.219653 0.8431782
vt 0.289816 0.8430012
vt 0.2848527 0.8161547
vt 0.2249381 0.8167518
vt 0.2187507 0.9303725
vt 0.292791 0.9303519
vt 0.2742741 0.9873521
vt 0.2379108 0.9872959
vt 0.2282437 0.7926598
vt 0.2848527 0.8161547
vt 0.2249381 0.8167518
vt 0.2804915 0.7910988
vt 0.2627389 0.7022796
vt 0.2404862 0.7078174
vt 0.2413874 0.7021955
vt 0.263607 0.7078792
vt 0.240306 0.7076163
vt 0.2804915 0.7910988
vt 0.2282437 0.7926598
vt 0.2636243 0.7072482
vt 0.2137996 0.8691471
vt 0.2970166 0.8973747
vt 0.2133054 0.8972197
vt 0.2952701 0.868396
vt 0.219653 0.8431782
vt 0.289816 0.8430012
vt 0.2848527 0.8161547
vt 0.2249381 0.8167518
vt 0.2187507 0.9303725
vt 0.292791 0.9303519
vt 0.2742741 0.9873521
vt 0.2379108 0.9872959
vt 0.2282437 0.7926598
vt 0.2848527 0.8161547
vt 0.2249381 0.8167518
vt 0.2804915 0.7910988
vt 0.2627389 0.7022796
vt 0.2404862 0.7078174
vt 0.2413874 0.7021955
vt 0.263607 0.7078792
vt 0.240306 0.7076163
vt 0.2804915 0.7910988
vt 0.2282437 0.7926598
vt 0.2636243 0.7072482
vn 0 1 0
vn 1.249999E-07 1 -2.977367E-06
vn 0 1 -3.064875E-06
vn 0 1 0
vn 0 1 2.913455E-06
vn 1.416434E-07 1 2.823309E-06
vn 0 1 2.878123E-06
vn 0 1 -1.268393E-07
vn -1.481305E-07 1 -2.969844E-06
vn -0.0001457413 -0.06488531 0.9978928
vn 0.04990448 -0.06471866 0.9966549
vn 0.05000101 -0.06477665 0.9966462
vn -0.0003636077 -0.06481965 0.9978969
vn -0.05041194 -0.06482355 0.9966226
vn -0.05052409 -0.06474929 0.9966217
vn 0.9981911 -0.06009886 0.001619148
vn 0.9965978 -0.05984414 0.05667032
vn 0.9981948 -0.0600451 0.001322803
vn 0.9965898 -0.05989695 0.05675613
vn 0.9967442 -0.06011517 -0.05373368
vn 0.9967434 -0.06005918 -0.05381118
vn 0.04905325 -0.06406051 -0.9967397
vn -0.000163521 -0.06403274 -0.9979478
vn -0.0004004077 -0.0640937 -0.9979438
vn 0.0491504 -0.06399552 -0.9967391
vn -0.0496171 -0.06390993 -0.9967214
vn -0.04971425 -0.06396761 -0.9967129
vn -0.9965816 -0.06011043 0.05667384
vn -0.998184 -0.06022314 0.001292359
vn -0.9965808 -0.06007546 0.05672446
vn -0.9981823 -0.06025441 0.001268233
vn -0.9967192 -0.06018307 -0.05411861
vn -0.9967153 -0.06021087 -0.05416136
vn 0.04749331 0.9988698 0.001834137
vn -0.5277894 0.849313 0.01027683
vn 0.04284028 0.9990783 0.002685141
vn -0.5322112 0.846529 0.01182629
vn -0.9581566 0.2858806 0.01442383
vn -0.9605342 0.2777054 0.01593633
vn -0.9922471 -0.1233311 0.01533658
vn -0.9922653 -0.1231764 0.01540151
vn 0.5150215 0.8571317 -0.008840806
vn 0.5152009 0.8570133 -0.009813074
vn 0.7877334 0.6157896 -0.01671746
vn 0.787366 0.6162331 -0.01765188
vn -0.4956382 -0.8685291 0.0002050215
vn -0.495928 -0.8683636 8.261437E-06
vn -0.4962348 -0.8681883 -0.0002001886
vn -0.4952909 -0.868727 0.0004407925
vn 0.7877334 0.6157896 -0.01671746
vn 0.8425358 0.5383149 -0.01872168
vn 0.842839 0.5378528 -0.0183501
vn 0.787366 0.6162331 -0.01765188
vn 0.007104983 -0.9999748 -2.625153E-05
vn 0.007104984 -0.9999748 -2.625154E-05
vn 0.007104984 -0.9999748 -2.625153E-05
vn 0.007048843 -0.9999752 -0.0001534658
vn -0.9897847 0.1424492 0.005878545
vn -0.4889334 0.8723181 -0.002288177
vn -0.9902958 0.1387404 0.00808116
vn -0.4861835 0.873838 -0.005717154
vn 0.3989242 0.9169716 -0.004768981
vn 0.3928983 0.9195546 -0.007101018
vn 0.9749452 0.2224353 -0.00212154
vn 0.9753224 0.2207825 0.00122515
vn 0.9438154 -0.3304703 0.001311318
vn 0.9433365 -0.3318368 -0.0007390888
vn -0.9276235 -0.3731689 0.01611512
vn -0.9289092 -0.3697098 0.02102964
vn 0.004935013 0.9997759 -0.02058438
vn 0.2801073 0.928669 -0.243133
vn 0.279308 0.928753 -0.2437313
vn 0.005729164 0.9996895 -0.02425168
vn -0.06298666 0.9974118 0.03467708
vn -0.06546202 0.9969252 0.04306901
vn 0.5833558 0.6515029 -0.4850154
vn 0.5378195 0.7144445 -0.4475704
vn 0.5867795 0.6473898 -0.486391
vn 0.6945146 0.4379013 -0.5708694
vn 0.6931823 0.4413666 -0.5698192
vn -0.001825317 0.9988698 0.04749345
vn -0.01026426 0.8493003 -0.5278103
vn -0.002686271 0.9990793 0.04281544
vn -0.01181059 0.8465218 -0.5322229
vn -0.01441324 0.285855 -0.9581645
vn -0.01593691 0.2776453 -0.9605514
vn -0.01533213 -0.1233527 -0.9922444
vn -0.01539467 -0.1232037 -0.992262
vn 0.008826356 0.8571384 0.5150105
vn 0.009805286 0.8570191 0.5151913
vn 0.01818441 0.6222684 0.7825927
vn 0.01751448 0.6208436 0.7837387
vn -0.0002120249 -0.868522 -0.4956505
vn -3.7703E-06 -0.8683469 -0.4959572
vn 0.0002168347 -0.8681613 -0.496282
vn -0.0004615502 -0.8687316 -0.4952829
vn 0.01818441 0.6222684 0.7825927
vn 0.02077978 0.5531627 0.832814
vn 0.0255661 0.5591143 0.8286963
vn 0.01751448 0.6208436 0.7837387
vn 1.122556E-05 -0.9999275 0.01204599
vn 1.122556E-05 -0.9999275 0.01204599
vn 1.122556E-05 -0.9999275 0.01204599
vn -0.0184948 -0.999625 0.02019575
vn -0.04750218 0.9988695 -0.001826251
vn 0.5277979 0.849308 -0.01026541
vn -0.04282348 0.9990791 -0.002681288
vn 0.5322203 0.8465235 -0.01181323
vn 0.9581614 0.2858652 -0.01441436
vn 0.9605465 0.2776628 -0.01593287
vn 0.9922461 -0.1233394 -0.01533146
vn 0.9922649 -0.1231797 -0.01539849
vn -0.5150142 0.8571361 0.008836537
vn -0.5152004 0.8570136 0.00980881
vn -0.7855358 0.618592 0.01665769
vn -0.7848648 0.6194179 0.01756988
vn 0.4956384 -0.868529 -0.0002101078
vn 0.4959425 -0.8683555 -3.635969E-06
vn 0.4962645 -0.8681714 0.0002150763
vn 0.4952739 -0.8687367 -0.0004574957
vn -0.7855358 0.618592 0.01665769
vn -0.8376054 0.5459591 0.01860122
vn -0.8378962 0.5455243 0.01825425
vn -0.7848648 0.6194179 0.01756988
vn -0.01205969 -0.9999273 1.762317E-05
vn -0.01205969 -0.9999273 1.762317E-05
vn -0.01205969 -0.9999273 1.762317E-05
vn -0.01195306 -0.9999286 0.0002604071
vn 0.001822395 0.9988708 -0.04747357
vn 0.01025969 0.8492841 0.5278365
vn 0.002673046 0.9990801 -0.04280211
vn 0.01181009 0.8464967 0.532263
vn 0.01440726 0.2858511 0.9581658
vn 0.01592554 0.2776557 0.9605487
vn 0.01532325 -0.1233342 0.9922469
vn 0.01538796 -0.12318 0.9922651
vn -0.008841648 0.8571315 -0.5150217
vn -0.009812414 0.8570079 -0.51521
vn -0.01379143 0.6180869 -0.7859888
vn -0.01752588 0.6220043 -0.7828177
vn 0.0002085894 -0.868554 0.4955947
vn -2.413515E-06 -0.8683766 0.4959054
vn -0.0002259141 -0.8681884 0.4962344
vn 0.0004613902 -0.8687662 0.4952222
vn -0.01379143 0.6180869 -0.7859888
vn -0.01447649 0.5480384 -0.8363279
vn -0.005218889 0.5360135 -0.8441933
vn -0.01752588 0.6220043 -0.7828177
vn -1.585961E-05 -0.9998552 -0.01702254
vn -1.585961E-05 -0.9998552 -0.01702254
vn -1.585961E-05 -0.9998552 -0.01702254
vn -0.01900485 -0.9997823 -0.008621824
vn -0.0044177 0.9997762 0.020691
vn -0.2738135 0.9286707 0.2501938
vn -0.273006 0.9287554 0.2507609
vn -0.005108757 0.9996895 0.02439006
vn 0.06208578 0.9974108 -0.03628933
vn 0.0643554 0.996922 -0.04477607
vn -0.570789 0.6515002 0.4997475
vn -0.5262144 0.7144545 0.4611435
vn -0.5741678 0.6473891 0.5012172
vn -0.6797126 0.4378945 0.5884209
vn -0.6784086 0.4413543 0.5873399
vn 0.5277785 -0.8493199 -0.01027315
vn -0.04750251 -0.9988694 -0.001832163
vn -0.04283662 -0.9990785 -0.002685226
vn 0.5321927 -0.8465407 -0.01182049
vn 0.9581579 -0.285877 -0.01442097
vn 0.9605369 -0.2776957 -0.01593626
vn 0.9922471 0.1233312 -0.01533628
vn 0.992265 0.1231793 -0.0154
vn -0.5150095 -0.8571389 0.008838799
vn -0.5151927 -0.8570183 0.009808755
vn -0.7877337 -0.6157892 0.01671601
vn -0.7873672 -0.6162317 0.01765195
vn 0.4959322 0.8683613 -5.427476E-06
vn 0.4956324 0.8685324 -0.000208976
vn 0.4962496 0.8681799 0.0002102128
vn 0.4952731 0.8687372 -0.0004528823
vn -0.8425365 -0.5383138 0.01872127
vn -0.7877337 -0.6157892 0.01671601
vn -0.8428406 -0.5378503 0.01834855
vn -0.7873672 -0.6162317 0.01765195
vn -0.007110607 0.9999747 1.293055E-05
vn -0.007110607 0.9999747 1.293055E-05
vn -0.007110607 0.9999747 1.293055E-05
vn -0.007048598 0.9999752 0.0001534472
vn -0.5278103 -0.8493002 0.01026499
vn 0.0475117 -0.998869 0.00182482
vn 0.04282491 -0.999079 0.002685194
vn -0.5322282 -0.8465185 0.01181182
vn -0.9581633 -0.2858589 0.0144135
vn -0.9605497 -0.2776512 0.01593795
vn -0.9922459 0.1233417 0.01533532
vn -0.9922632 0.1231935 0.01539751
vn 0.5150275 -0.8571281 -0.008832273
vn 0.5152115 -0.8570069 -0.00980981
vn 0.7855309 -0.6185984 -0.01665004
vn 0.7848576 -0.6194275 -0.01755148
vn -0.4959444 0.8683543 6.180271E-06
vn -0.4956427 0.8685265 0.0002110558
vn -0.496264 0.8681717 -0.0002108408
vn -0.4952811 0.8687327 0.000456527
vn 0.8376015 -0.5459654 -0.01859039
vn 0.7855309 -0.6185984 -0.01665004
vn 0.8378828 -0.5455449 -0.01825481
vn 0.7848576 -0.6194275 -0.01755148
vn 0.01205941 0.9999273 -1.824743E-05
vn 0.01205941 0.9999273 -1.824742E-05
vn 0.01205941 0.9999273 -1.824742E-05
vn 0.01195305 0.9999286 -0.0002604191
g Camp_Xmas_Box_04_0
f 3/3/3 2/2/2 1/1/1
f 4/4/4 1/1/1 2/2/2
f 1/1/1 4/4/4 5/5/5
f 6/6/6 5/5/5 4/4/4
f 5/5/5 7/7/7 1/1/1
f 8/8/8 1/1/1 7/7/7
f 1/1/1 8/8/8 3/3/3
f 9/9/9 3/3/3 8/8/8
f 12/12/12 11/11/11 10/10/10
f 13/13/13 10/10/10 11/11/11
f 10/10/10 13/13/13 14/14/14
f 15/15/15 14/14/14 13/13/13
f 18/18/18 17/17/17 16/16/16
f 19/19/19 16/16/16 17/17/17
f 16/16/16 20/20/20 18/18/18
f 21/21/21 18/18/18 20/20/20
f 24/24/24 23/23/23 22/22/22
f 25/25/25 22/22/22 23/23/23
f 23/23/23 24/24/24 26/26/26
f 27/27/27 26/26/26 24/24/24
f 30/30/30 29/29/29 28/28/28
f 31/31/31 28/28/28 29/29/29
f 29/29/29 32/32/32 31/31/31
f 33/33/33 31/31/31 32/32/32
f 36/36/36 35/35/35 34/34/34
f 37/37/37 34/34/34 35/35/35
f 35/35/35 38/38/38 37/37/37
f 39/39/39 37/37/37 38/38/38
f 39/39/39 38/38/38 40/40/40
f 41/41/41 40/40/40 38/38/38
f 36/36/36 34/34/34 42/42/42
f 43/43/43 42/42/42 34/34/34
f 43/43/43 44/44/44 42/42/42
f 45/45/45 42/42/42 44/44/44
f 48/48/48 47/47/47 46/46/46
f 49/49/49 46/46/46 47/47/47
f 52/52/52 51/51/51 50/50/50
f 53/53/53 50/50/50 51/51/51
f 56/56/56 55/55/55 54/54/54
f 57/57/57 54/54/54 55/55/55
f 60/60/60 59/59/59 58/58/58
f 61/61/61 58/58/58 59/59/59
f 59/59/59 62/62/62 61/61/61
f 63/63/63 61/61/61 62/62/62
f 63/63/63 62/62/62 64/64/64
f 65/65/65 64/64/64 62/62/62
f 65/65/65 66/66/66 64/64/64
f 67/67/67 64/64/64 66/66/66
f 60/60/60 58/58/58 68/68/68
f 69/69/69 68/68/68 58/58/58
f 72/72/72 71/71/71 70/70/70
f 73/73/73 70/70/70 71/71/71
f 73/73/73 74/74/74 70/70/70
f 75/75/75 70/70/70 74/74/74
f 72/72/72 76/76/76 71/71/71
f 76/76/76 77/77/77 71/71/71
f 77/77/77 78/78/78 71/71/71
f 78/78/78 77/77/77 79/79/79
f 76/76/76 80/80/80 77/77/77
f 83/83/83 82/82/82 81/81/81
f 84/84/84 81/81/81 82/82/82
f 82/82/82 85/85/85 84/84/84
f 86/86/86 84/84/84 85/85/85
f 86/86/86 85/85/85 87/87/87
f 88/88/88 87/87/87 85/85/85
f 83/83/83 81/81/81 89/89/89
f 90/90/90 89/89/89 81/81/81
f 90/90/90 91/91/91 89/89/89
f 92/92/92 89/89/89 91/91/91
f 95/95/95 94/94/94 93/93/93
f 96/96/96 93/93/93 94/94/94
f 99/99/99 98/98/98 97/97/97
f 100/100/100 97/97/97 98/98/98
f 103/103/103 102/102/102 101/101/101
f 104/104/104 101/101/101 102/102/102
f 107/107/107 106/106/106 105/105/105
f 108/108/108 105/105/105 106/106/106
f 106/106/106 109/109/109 108/108/108
f 110/110/110 108/108/108 109/109/109
f 110/110/110 109/109/109 111/111/111
f 112/112/112 111/111/111 109/109/109
f 107/107/107 105/105/105 113/113/113
f 114/114/114 113/113/113 105/105/105
f 114/114/114 115/115/115 113/113/113
f 116/116/116 113/113/113 115/115/115
f 119/119/119 118/118/118 117/117/117
f 120/120/120 117/117/117 118/118/118
f 123/123/123 122/122/122 121/121/121
f 124/124/124 121/121/121 122/122/122
f 127/127/127 126/126/126 125/125/125
f 128/128/128 125/125/125 126/126/126
f 131/131/131 130/130/130 129/129/129
f 132/132/132 129/129/129 130/130/130
f 130/130/130 133/133/133 132/132/132
f 134/134/134 132/132/132 133/133/133
f 134/134/134 133/133/133 135/135/135
f 136/136/136 135/135/135 133/133/133
f 131/131/131 129/129/129 137/137/137
f 138/138/138 137/137/137 129/129/129
f 138/138/138 139/139/139 137/137/137
f 140/140/140 137/137/137 139/139/139
f 143/143/143 142/142/142 141/141/141
f 144/144/144 141/141/141 142/142/142
f 147/147/147 146/146/146 145/145/145
f 148/148/148 145/145/145 146/146/146
f 151/151/151 150/150/150 149/149/149
f 152/152/152 149/149/149 150/150/150
f 155/155/155 154/154/154 153/153/153
f 156/156/156 153/153/153 154/154/154
f 156/156/156 157/157/157 153/153/153
f 158/158/158 153/153/153 157/157/157
f 155/155/155 159/159/159 154/154/154
f 159/159/159 160/160/160 154/154/154
f 160/160/160 161/161/161 154/154/154
f 161/161/161 160/160/160 162/162/162
f 159/159/159 163/163/163 160/160/160
f 166/166/166 165/165/165 164/164/164
f 167/167/167 164/164/164 165/165/165
f 164/164/164 167/167/167 168/168/168
f 169/169/169 168/168/168 167/167/167
f 169/169/169 170/170/170 168/168/168
f 171/171/171 168/168/168 170/170/170
f 166/166/166 172/172/172 165/165/165
f 173/173/173 165/165/165 172/172/172
f 173/173/173 172/172/172 174/174/174
f 175/175/175 174/174/174 172/172/172
f 178/178/178 177/177/177 176/176/176
f 179/179/179 176/176/176 177/177/177
f 182/182/182 181/181/181 180/180/180
f 183/183/183 180/180/180 181/181/181
f 186/186/186 185/185/185 184/184/184
f 187/187/187 184/184/184 185/185/185
f 190/190/190 189/189/189 188/188/188
f 191/191/191 188/188/188 189/189/189
f 188/188/188 191/191/191 192/192/192
f 193/193/193 192/192/192 191/191/191
f 193/193/193 194/194/194 192/192/192
f 195/195/195 192/192/192 194/194/194
f 190/190/190 196/196/196 189/189/189
f 197/197/197 189/189/189 196/196/196
f 197/197/197 196/196/196 198/198/198
f 199/199/199 198/198/198 196/196/196
f 202/202/202 201/201/201 200/200/200
f 203/203/203 200/200/200 201/201/201
f 206/206/206 205/205/205 204/204/204
f 207/207/207 204/204/204 205/205/205
f 210/210/210 209/209/209 208/208/208
f 211/211/211 208/208/208 209/209/209
