g Camp_Training_Sign3
v 0.1744441 0.0006470633 0.1744446
v -0.171469 0.09138267 0.1714697
v 0.1714691 0.09138267 0.1714697
v -0.1744441 0.0006470633 0.1744446
v -0.1744441 0.0006470633 0.1744446
v -0.171469 0.09138254 -0.1714683
v -0.171469 0.09138267 0.1714697
v -0.1744438 0.0006467628 -0.1744433
v 0.1619627 0.30351 0.1619631
v -0.1609261 0.8666848 0.1609263
v 0.1609264 0.8666848 0.1609263
v -0.1619624 0.30351 0.1619631
v -0.1619624 0.30351 0.1619631
v -0.1609262 0.8666847 -0.1609262
v -0.1609261 0.8666848 0.1609263
v -0.1619626 0.3035098 -0.1619621
v 0.1609264 0.8666848 0.1609263
v -0.2077626 0.8882831 0.2077631
v 0.2077632 0.8882831 0.2077633
v -0.1609261 0.8666848 0.1609263
v -0.2077631 0.8882834 -0.2077629
v -0.1609262 0.8666847 -0.1609262
v -0.2313754 1.087181 -0.2313754
v -0.2077626 0.8882831 0.2077631
v -0.2077631 0.8882834 -0.2077629
v -0.2313751 1.087181 0.2313751
v -0.2313751 1.087181 0.2313751
v 0.2077632 0.8882831 0.2077633
v -0.2077626 0.8882831 0.2077631
v 0.2313754 1.087181 0.2313753
v 0.1689926 1.106329 0.1689918
v -0.2313751 1.087181 0.2313751
v -0.1689923 1.106329 0.1689918
v 0.2313754 1.087181 0.2313753
v -0.2313754 1.087181 -0.2313754
v -0.1689925 1.106329 -0.1689923
v -0.1689923 1.106329 0.1689918
v 1.525879E-07 1.436491 -4.577637E-07
v 0.1689926 1.106329 0.1689918
v -0.1689925 1.106329 -0.1689923
v 1.525879E-07 1.436491 -4.577637E-07
v -0.1689923 1.106329 0.1689918
v -0.1744438 0.0006467628 -0.1744433
v 0.1714691 0.09138254 -0.1714683
v -0.171469 0.09138254 -0.1714683
v 0.1744443 0.0006467628 -0.1744434
v 0.1744443 0.0006467628 -0.1744434
v 0.1714691 0.09138267 0.1714697
v 0.1714691 0.09138254 -0.1714683
v 0.1744441 0.0006470633 0.1744446
v -0.1619626 0.3035098 -0.1619621
v 0.1609262 0.8666847 -0.1609262
v -0.1609262 0.8666847 -0.1609262
v 0.1619626 0.3035098 -0.161962
v 0.1619626 0.3035098 -0.161962
v 0.1609264 0.8666848 0.1609263
v 0.1609262 0.8666847 -0.1609262
v 0.1619627 0.30351 0.1619631
v -0.1609262 0.8666847 -0.1609262
v 0.2077626 0.8882834 -0.2077629
v -0.2077631 0.8882834 -0.2077629
v 0.1609262 0.8666847 -0.1609262
v 0.2077632 0.8882831 0.2077633
v 0.1609264 0.8666848 0.1609263
v 0.2313754 1.087181 0.2313753
v 0.2077626 0.8882834 -0.2077629
v 0.2077632 0.8882831 0.2077633
v 0.231375 1.087181 -0.2313754
v 0.231375 1.087181 -0.2313754
v -0.2077631 0.8882834 -0.2077629
v 0.2077626 0.8882834 -0.2077629
v -0.2313754 1.087181 -0.2313754
v -0.1689925 1.106329 -0.1689923
v 0.231375 1.087181 -0.2313754
v 0.1689925 1.106329 -0.1689923
v -0.2313754 1.087181 -0.2313754
v 0.2313754 1.087181 0.2313753
v 0.1689926 1.106329 0.1689918
v 0.1689925 1.106329 -0.1689923
v 1.525879E-07 1.436491 -4.577637E-07
v -0.1689925 1.106329 -0.1689923
v 0.1689926 1.106329 0.1689918
v 1.525879E-07 1.436491 -4.577637E-07
v 0.1689925 1.106329 -0.1689923
v 0.1714691 0.09138267 0.1714697
v -0.1894942 0.1044345 0.1894954
v 0.1894948 0.1044345 0.1894954
v -0.171469 0.09138267 0.1714697
v -0.171469 0.09138267 0.1714697
v -0.1894945 0.1044343 -0.1894939
v -0.1894942 0.1044345 0.1894954
v -0.171469 0.09138254 -0.1714683
v -0.2055427 0.2878762 -0.2055421
v -0.1894942 0.1044345 0.1894954
v -0.1894945 0.1044343 -0.1894939
v -0.2055424 0.2878764 0.2055431
v -0.2055424 0.2878764 0.2055431
v 0.1894948 0.1044345 0.1894954
v -0.1894942 0.1044345 0.1894954
v 0.2055427 0.2878764 0.2055434
v 0.1619627 0.30351 0.1619631
v -0.2055424 0.2878764 0.2055431
v -0.1619624 0.30351 0.1619631
v 0.2055427 0.2878764 0.2055434
v -0.2055427 0.2878762 -0.2055421
v -0.1619626 0.3035098 -0.1619621
v -0.171469 0.09138254 -0.1714683
v 0.1894942 0.1044343 -0.1894939
v -0.1894945 0.1044343 -0.1894939
v 0.1714691 0.09138254 -0.1714683
v 0.1714691 0.09138254 -0.1714683
v 0.1894948 0.1044345 0.1894954
v 0.1894942 0.1044343 -0.1894939
v 0.1714691 0.09138267 0.1714697
v 0.2055427 0.2878764 0.2055434
v 0.1894942 0.1044343 -0.1894939
v 0.1894948 0.1044345 0.1894954
v 0.2055424 0.2878762 -0.2055421
v 0.2055424 0.2878762 -0.2055421
v -0.1894945 0.1044343 -0.1894939
v 0.1894942 0.1044343 -0.1894939
v -0.2055427 0.2878762 -0.2055421
v -0.1619626 0.3035098 -0.1619621
v 0.2055424 0.2878762 -0.2055421
v 0.1619626 0.3035098 -0.161962
v -0.2055427 0.2878762 -0.2055421
v 0.2055427 0.2878764 0.2055434
v 0.1619627 0.30351 0.1619631
vt 0.8806479 0.4541969
vt 0.9007967 0.3612489
vt 0.9007967 0.4523095
vt 0.8806479 0.3618484
vt 0.8806479 0.3618484
vt 0.9007967 0.2734622
vt 0.9007967 0.3612489
vt 0.8806479 0.2695002
vt 0.9864727 0.7090587
vt 0.9306338 0.6115028
vt 0.9858711 0.6112761
vt 0.9308342 0.709287
vt 0.9308342 0.709287
vt 0.8753958 0.6115028
vt 0.9306338 0.6115028
vt 0.875195 0.709287
vt 0.6149833 0.8479655
vt 0.6327851 0.7713901
vt 0.6294097 0.8618244
vt 0.6129001 0.7707058
vt 0.6283154 0.6801506
vt 0.6116943 0.6960874
vt 0.3246755 0.774646
vt 0.3301795 0.6605062
vt 0.3546897 0.7626259
vt 0.3042021 0.6765363
vt 0.3042021 0.6765363
vt 0.2465376 0.5932646
vt 0.3301795 0.6605062
vt 0.2251213 0.6136947
vt 0.2321693 0.6419979
vt 0.3042021 0.6765363
vt 0.2848051 0.6861583
vt 0.2251213 0.6136947
vt 0.3246755 0.774646
vt 0.2959373 0.7541953
vt 0.2848051 0.6861583
vt 0.1947474 0.7366374
vt 0.2321693 0.6419979
vt 0.2959373 0.7541953
vt 0.1947474 0.7366374
vt 0.2848051 0.6861583
vt 0.8806479 0.4541969
vt 0.9007967 0.3612489
vt 0.9007967 0.4523095
vt 0.8806479 0.3618484
vt 0.8806479 0.3618484
vt 0.9007967 0.2734622
vt 0.9007967 0.3612489
vt 0.8806479 0.2695002
vt 0.9864727 0.7090587
vt 0.9306338 0.6115028
vt 0.9858711 0.6112761
vt 0.9308342 0.709287
vt 0.9308342 0.709287
vt 0.8753958 0.6115028
vt 0.9306338 0.6115028
vt 0.875195 0.709287
vt 0.6149833 0.8479655
vt 0.6327851 0.7713901
vt 0.6294097 0.8618244
vt 0.6129001 0.7707058
vt 0.6283154 0.6801506
vt 0.6116943 0.6960874
vt 0.3246755 0.774646
vt 0.3301795 0.6605062
vt 0.3546897 0.7626259
vt 0.3042021 0.6765363
vt 0.3042021 0.6765363
vt 0.2465376 0.5932646
vt 0.3301795 0.6605062
vt 0.2251213 0.6136947
vt 0.2321693 0.6419979
vt 0.3042021 0.6765363
vt 0.2848051 0.6861583
vt 0.2251213 0.6136947
vt 0.3246755 0.774646
vt 0.2959373 0.7541953
vt 0.2848051 0.6861583
vt 0.1947474 0.7366374
vt 0.2321693 0.6419979
vt 0.2959373 0.7541953
vt 0.1947474 0.7366374
vt 0.2848051 0.6861583
vt 0.6149833 0.8479655
vt 0.6327851 0.7713901
vt 0.6294097 0.8618244
vt 0.6129001 0.7707058
vt 0.6129001 0.7707058
vt 0.6283154 0.6801506
vt 0.6327851 0.7713901
vt 0.6116943 0.6960874
vt 0.3246755 0.774646
vt 0.3301795 0.6605062
vt 0.3546897 0.7626259
vt 0.3042021 0.6765363
vt 0.3042021 0.6765363
vt 0.2465376 0.5932646
vt 0.3301795 0.6605062
vt 0.2251213 0.6136947
vt 0.2321693 0.6419979
vt 0.3042021 0.6765363
vt 0.2848051 0.6861583
vt 0.2251213 0.6136947
vt 0.3246755 0.774646
vt 0.2959373 0.7541953
vt 0.6149833 0.8479655
vt 0.6327851 0.7713901
vt 0.6294097 0.8618244
vt 0.6129001 0.7707058
vt 0.6129001 0.7707058
vt 0.6283154 0.6801506
vt 0.6327851 0.7713901
vt 0.6116943 0.6960874
vt 0.3246755 0.774646
vt 0.3301795 0.6605062
vt 0.3546897 0.7626259
vt 0.3042021 0.6765363
vt 0.3042021 0.6765363
vt 0.2465376 0.5932646
vt 0.3301795 0.6605062
vt 0.2251213 0.6136947
vt 0.2321693 0.6419979
vt 0.3042021 0.6765363
vt 0.2848051 0.6861583
vt 0.2251213 0.6136947
vt 0.3246755 0.774646
vt 0.2959373 0.7541953
vn 0 0.03276918 0.9994629
vn 0 0.03276918 0.9994629
vn 0 0.03276918 0.9994629
vn 0 0.03276919 0.9994629
vn -0.9994629 0.03277114 -1.612272E-07
vn -0.999463 0.03276886 -7.60053E-07
vn -0.9994629 0.03277171 0
vn -0.999463 0.03276832 -9.024551E-07
vn 0 0.00184105 0.9999983
vn 0 0.00184105 0.9999983
vn 0 0.00184105 0.9999983
vn 0 0.00184105 0.9999983
vn -0.9999983 0.001840237 4.709741E-07
vn -0.9999983 0.001840238 4.723248E-07
vn -0.9999983 0.001840238 4.736556E-07
vn -0.9999983 0.001840236 4.696496E-07
vn 0.2192107 -0.9507332 0.21921
vn -0.2192112 -0.9507328 0.2192113
vn 0.2192107 -0.9507331 0.2192105
vn -0.2192122 -0.9507328 0.2192104
vn -0.2192135 -0.9507317 -0.2192136
vn -0.2192136 -0.9507317 -0.2192138
vn -0.9930269 -0.1178884 9.017078E-07
vn -0.9930269 -0.1178889 7.061963E-07
vn -0.9930269 -0.1178881 1.029031E-06
vn -0.9930267 -0.1178891 5.965741E-07
vn -3.536994E-07 -0.1178864 0.993027
vn -3.368751E-07 -0.1178863 0.993027
vn -3.646558E-07 -0.1178864 0.993027
vn -3.274419E-07 -0.1178863 0.993027
vn 0.1499788 0.9772479 0.1499764
vn -0.1499774 0.9772479 0.1499782
vn -0.149978 0.9772479 0.1499774
vn 0.1499771 0.9772479 0.1499777
vn -0.1499752 0.9772486 -0.1499752
vn -0.149975 0.9772487 -0.1499748
vn 0 0.4556301 0.8901693
vn 0 0.4556301 0.8901693
vn 0 0.4556301 0.8901693
vn -0.890169 0.4556305 1.961788E-07
vn -0.890169 0.4556305 1.961788E-07
vn -0.890169 0.4556305 1.961788E-07
vn -2.399553E-07 0.03277046 -0.9994629
vn -3.109559E-07 0.03277073 -0.9994629
vn -2.22352E-07 0.03277039 -0.9994629
vn -3.2784E-07 0.0327708 -0.9994629
vn 0.9994629 0.03277138 0
vn 0.9994629 0.0327703 3.414134E-07
vn 0.9994629 0.03277164 0
vn 0.9994629 0.03277005 4.089035E-07
vn 1.576564E-07 0.001839334 -0.9999983
vn 0 0.001839379 -0.9999983
vn 0 0.001839424 -0.9999983
vn 2.355291E-07 0.001839289 -0.9999983
vn 0.9999983 0.001840237 -4.728583E-07
vn 0.9999983 0.001840237 -4.736994E-07
vn 0.9999983 0.001840238 -4.745281E-07
vn 0.9999983 0.001840236 -4.720335E-07
vn -0.2192136 -0.9507317 -0.2192138
vn 0.219214 -0.9507313 -0.2192153
vn -0.2192135 -0.9507317 -0.2192136
vn 0.2192148 -0.9507313 -0.2192142
vn 0.2192107 -0.9507331 0.2192105
vn 0.2192107 -0.9507332 0.21921
vn 0.9930269 -0.1178876 -1.381376E-06
vn 0.9930269 -0.1178881 -1.163049E-06
vn 0.9930269 -0.1178873 -1.523557E-06
vn 0.9930269 -0.1178884 -1.040634E-06
vn 0 -0.1178887 -0.9930269
vn 1.222198E-07 -0.1178889 -0.9930269
vn 0 -0.1178886 -0.9930269
vn 1.637209E-07 -0.117889 -0.9930269
vn -0.149975 0.9772487 -0.1499748
vn 0.1499756 0.9772485 -0.1499755
vn 0.1499766 0.9772485 -0.1499747
vn -0.1499752 0.9772486 -0.1499752
vn 0.1499771 0.9772479 0.1499777
vn 0.1499788 0.9772479 0.1499764
vn 0 0.455629 -0.8901699
vn 0 0.4556289 -0.8901699
vn 0 0.4556289 -0.8901699
vn 0.8901691 0.4556301 -6.075807E-07
vn 0.8901691 0.4556301 -6.075807E-07
vn 0.8901691 0.4556301 -6.075807E-07
vn 0 -0.8099689 0.5864729
vn 0 -0.8099689 0.5864729
vn 0 -0.8099688 0.5864729
vn 0 -0.8099689 0.5864729
vn -0.5864818 -0.8099624 9.040974E-07
vn -0.5864747 -0.8099676 3.572193E-07
vn -0.586482 -0.8099622 9.206512E-07
vn -0.5864741 -0.8099679 3.15341E-07
vn -0.9961951 -0.08715136 8.332782E-07
vn -0.9961951 -0.08715142 8.074518E-07
vn -0.9961951 -0.08715131 8.504189E-07
vn -0.9961951 -0.08715145 7.921089E-07
vn -2.173944E-07 -0.08714896 0.9961953
vn -5.449475E-07 -0.08714966 0.9961952
vn 0 -0.0871485 0.9961953
vn -7.395418E-07 -0.0871501 0.9961952
vn 0.1738602 0.9693018 0.1738583
vn -0.1738607 0.9693013 0.1738601
vn -0.1738605 0.9693013 0.1738605
vn 0.1738594 0.9693018 0.1738591
vn -0.1738601 0.9693015 -0.1738604
vn -0.1738596 0.9693015 -0.1738607
vn 0 -0.8099699 -0.5864714
vn -1.214468E-07 -0.8099687 -0.586473
vn 0 -0.80997 -0.5864714
vn -1.304736E-07 -0.8099687 -0.5864732
vn 0.586483 -0.8099614 -4.739293E-07
vn 0.5864734 -0.8099685 2.592013E-07
vn 0.5864834 -0.8099613 -4.961205E-07
vn 0.5864726 -0.8099689 3.153412E-07
vn 0.9961952 -0.08715013 -1.300612E-06
vn 0.9961951 -0.08715095 -9.156645E-07
vn 0.9961952 -0.0871496 -1.556098E-06
vn 0.9961951 -0.08715144 -6.869736E-07
vn 0 -0.08715089 -0.9961952
vn 1.362369E-07 -0.08715107 -0.9961951
vn 0 -0.08715079 -0.9961952
vn 1.848854E-07 -0.08715118 -0.9961951
vn -0.1738596 0.9693015 -0.1738607
vn 0.1738604 0.9693012 -0.1738611
vn 0.1738608 0.9693012 -0.1738606
vn -0.1738601 0.9693015 -0.1738604
vn 0.1738594 0.9693018 0.1738591
vn 0.1738602 0.9693018 0.1738583
g Camp_Training_Sign3_0
f 3/3/3 2/2/2 1/1/1
f 4/4/4 1/1/1 2/2/2
f 7/7/7 6/6/6 5/5/5
f 8/8/8 5/5/5 6/6/6
f 11/11/11 10/10/10 9/9/9
f 12/12/12 9/9/9 10/10/10
f 15/15/15 14/14/14 13/13/13
f 16/16/16 13/13/13 14/14/14
f 19/19/19 18/18/18 17/17/17
f 20/20/20 17/17/17 18/18/18
f 18/18/18 21/21/21 20/20/20
f 22/22/22 20/20/20 21/21/21
f 25/25/25 24/24/24 23/23/23
f 26/26/26 23/23/23 24/24/24
f 29/29/29 28/28/28 27/27/27
f 30/30/30 27/27/27 28/28/28
f 33/33/33 32/32/32 31/31/31
f 34/34/34 31/31/31 32/32/32
f 32/32/32 33/33/33 35/35/35
f 36/36/36 35/35/35 33/33/33
f 39/39/39 38/38/38 37/37/37
f 42/42/42 41/41/41 40/40/40
f 45/45/45 44/44/44 43/43/43
f 46/46/46 43/43/43 44/44/44
f 49/49/49 48/48/48 47/47/47
f 50/50/50 47/47/47 48/48/48
f 53/53/53 52/52/52 51/51/51
f 54/54/54 51/51/51 52/52/52
f 57/57/57 56/56/56 55/55/55
f 58/58/58 55/55/55 56/56/56
f 61/61/61 60/60/60 59/59/59
f 62/62/62 59/59/59 60/60/60
f 60/60/60 63/63/63 62/62/62
f 64/64/64 62/62/62 63/63/63
f 67/67/67 66/66/66 65/65/65
f 68/68/68 65/65/65 66/66/66
f 71/71/71 70/70/70 69/69/69
f 72/72/72 69/69/69 70/70/70
f 75/75/75 74/74/74 73/73/73
f 76/76/76 73/73/73 74/74/74
f 74/74/74 75/75/75 77/77/77
f 78/78/78 77/77/77 75/75/75
f 81/81/81 80/80/80 79/79/79
f 84/84/84 83/83/83 82/82/82
f 87/87/87 86/86/86 85/85/85
f 88/88/88 85/85/85 86/86/86
f 91/91/91 90/90/90 89/89/89
f 92/92/92 89/89/89 90/90/90
f 95/95/95 94/94/94 93/93/93
f 96/96/96 93/93/93 94/94/94
f 99/99/99 98/98/98 97/97/97
f 100/100/100 97/97/97 98/98/98
f 103/103/103 102/102/102 101/101/101
f 104/104/104 101/101/101 102/102/102
f 102/102/102 103/103/103 105/105/105
f 106/106/106 105/105/105 103/103/103
f 109/109/109 108/108/108 107/107/107
f 110/110/110 107/107/107 108/108/108
f 113/113/113 112/112/112 111/111/111
f 114/114/114 111/111/111 112/112/112
f 117/117/117 116/116/116 115/115/115
f 118/118/118 115/115/115 116/116/116
f 121/121/121 120/120/120 119/119/119
f 122/122/122 119/119/119 120/120/120
f 125/125/125 124/124/124 123/123/123
f 126/126/126 123/123/123 124/124/124
f 124/124/124 125/125/125 127/127/127
f 128/128/128 127/127/127 125/125/125
