g Camp_Background_Castle
v -10 -4.385 0
v 0 0 0
v 0 -4.385 0
v -10 0 0
v 10 0 0
v 10 -4.385 0
v 0 4.385 0
v -10 4.385 0
v 10 4.385 0
vt 0.001116471 0.005766928
vt 0.5005583 0.498727
vt 0.5005581 0.005767047
vt 0.001116442 0.4987267
vt 1 0.4987267
vt 1 0.005766839
vt 0.5005583 0.9916872
vt 0.001116382 0.9916867
vt 1 0.9916867
vn 0 0 1
vn 0 0 1
vn 0 0 1
vn 0 0 1
vn 0 0 1
vn 0 0 1
vn 0 0 1
vn 0 0 1
vn 0 0 1
g Camp_Background_Castle_0
f 3/3/3 2/2/2 1/1/1
f 4/4/4 1/1/1 2/2/2
f 2/2/2 3/3/3 5/5/5
f 6/6/6 5/5/5 3/3/3
f 2/2/2 7/7/7 4/4/4
f 8/8/8 4/4/4 7/7/7
f 5/5/5 9/9/9 2/2/2
f 7/7/7 2/2/2 9/9/9
