g Camp_Arena_Flag
v 0.1778842 -0.4855562 0.04312127
v 0.220751 -0.6459169 0.04312122
v 0 -0.4956563 0.04312124
v 0.2897946 -0.5851271 0.04312123
v 0.2865552 -0.6473378 0.04312122
v 0.2897946 -0.4816487 0.04312124
v 0.3171182 -0.5939851 0.04312123
v 0.228013 -0.6719038 0.04312122
v 0.1449255 -0.2748488 0.04312131
v 0 -0.274449 0.04312131
v 0 0.02993393 0.04312136
v 0.1254501 0.02993393 0.04312136
v 0.289794 0.02993393 0.04312136
v 0.1215054 0.3119951 0.03843375
v 0.289794 0.3120561 0.03830512
v 0.2897943 -0.2747475 0.04312127
v 0.2043912 0.5472421 0.03462519
v 0.289794 0.539203 0.03473704
v 0.1058719 0.5564476 0.03426051
v 0 0.3118156 0.0431214
v 0 0.5369933 0.04312144
v -0.1058719 0.5564476 0.03426051
v -0.113862 0.3119951 0.03843375
v -0.1172723 0.02993393 0.04312136
v -0.1464841 -0.2748488 0.04312131
v -0.1801001 -0.4871698 0.04312125
v -0.2897943 -0.2747475 0.04312127
v -0.2897946 -0.4839233 0.04312124
v 0.2063821 0.6186619 0.03348888
v 0.289794 0.6186619 0.03348888
v 0.2063821 0.6515019 0.01864312
v 0.289794 0.6515019 0.01864308
v 0.289794 0.6668962 0.002019162
v 0.2063821 0.6668962 0.002019181
v 0.2063821 0.6719035 -0.01460475
v 0.289794 0.6719035 -0.01460475
v -0.220751 -0.6459169 0.04312122
v -0.2897946 -0.5851271 0.04312123
v -0.2865552 -0.6473378 0.04312122
v -0.3171182 -0.5939851 0.04312123
v -0.228013 -0.6719038 0.04312122
v -0.289794 0.02993393 0.04312136
v -0.289794 0.3120561 0.03830512
v -0.2051913 0.5322931 0.03486222
v -0.2063821 0.6186619 0.03348888
v -0.289794 0.6186619 0.03348888
v -0.2063821 0.6515019 0.01864312
v -0.289794 0.6515019 0.01864308
v -0.289794 0.6668962 0.002019162
v -0.2063821 0.6668962 0.002019181
v -0.2063821 0.6719035 -0.01460475
v -0.289794 0.6719035 -0.01460475
v -0.289794 0.5116736 0.03516948
v 0.289794 0.6719035 -0.01460475
v 0.2063821 0.6678288 -0.03116346
v 0.289794 0.6678288 -0.03116346
v 0.2063821 0.6719035 -0.01460475
v 0.289794 0.6470762 -0.04312134
v 0.2063821 0.6678288 -0.03116346
v 0.2063821 0.6470762 -0.04312134
v 0.289794 0.6678288 -0.03116346
v -0.289794 0.6719035 -0.01460475
v -0.2063821 0.6678288 -0.03116346
v -0.2063821 0.6719035 -0.01460475
v -0.289794 0.6678288 -0.03116346
v -0.289794 0.6470762 -0.04312134
v -0.2063821 0.6678288 -0.03116346
v -0.289794 0.6678288 -0.03116346
v -0.2063821 0.6470762 -0.04312134
vt 0.05175795 0.5841477
vt 0.04328717 0.5515895
vt 0.08819108 0.5821655
vt 0.02789621 0.5639516
vt 0.02995569 0.5512877
vt 0.02789276 0.5850055
vt 0.02233555 0.5621536
vt 0.0418136 0.5463013
vt 0.05864453 0.6270874
vt 0.0881924 0.6271773
vt 0.08819208 0.6891125
vt 0.06208123 0.6891043
vt 0.0278758 0.6890934
vt 0.06337976 0.7464961
vt 0.02784642 0.7465032
vt 0.02788586 0.6271021
vt 0.04638721 0.7943648
vt 0.02782309 0.7927247
vt 0.0665875 0.7962479
vt 0.08819145 0.7464696
vt 0.0881929 0.792288
vt 0.0665875 0.7962479
vt 0.06549364 0.7465033
vt 0.06378361 0.689107
vt 0.05832326 0.6270972
vt 0.05131429 0.5838504
vt 0.02788586 0.6271021
vt 0.02789283 0.5845428
vt 0.04613597 0.8088974
vt 0.02781493 0.8088936
vt 0.04613698 0.8158014
vt 0.02781201 0.8158002
vt 0.02781203 0.8195791
vt 0.046137 0.8195797
vt 0.04613703 0.8233579
vt 0.02781205 0.8233579
vt 0.04328717 0.5515895
vt 0.02789621 0.5639516
vt 0.02992619 0.5512952
vt 0.02233555 0.5621536
vt 0.0418136 0.5463013
vt 0.0278758 0.6890934
vt 0.02784642 0.7465032
vt 0.04618345 0.7913229
vt 0.04613597 0.8088974
vt 0.02781493 0.8088936
vt 0.04613698 0.8158014
vt 0.02781201 0.8158002
vt 0.02781203 0.8195791
vt 0.046137 0.8195797
vt 0.04613703 0.8233579
vt 0.02781205 0.8233579
vt 0.02782592 0.7871228
vt 0.02781205 0.8233579
vt 0.04613703 0.8263844
vt 0.02781207 0.8263844
vt 0.04613703 0.8233579
vt 0.02781206 0.834044
vt 0.04613703 0.8263844
vt 0.04613703 0.8340441
vt 0.02781207 0.8263844
vt 0.02781205 0.8233579
vt 0.04613703 0.8263844
vt 0.04613703 0.8233579
vt 0.02781207 0.8263844
vt 0.02781206 0.834044
vt 0.04613703 0.8263844
vt 0.02781207 0.8263844
vt 0.04613703 0.8340441
vn 0 -2.396121E-07 1
vn 0 -1.686225E-07 1
vn 0 -2.865891E-07 1
vn 0 -1.970965E-07 1
vn 0 -1.269007E-07 1
vn 1.760495E-07 -1.607899E-07 1
vn 0 -1.507526E-07 1
vn 0 0 1
vn 0 -2.221505E-07 1
vn 0 -2.398539E-07 1
vn -1.642432E-05 0.00621834 0.9999807
vn 0 0.008308625 0.9999655
vn 0.0001298301 0.008386026 0.9999648
vn 0.016522 0.01420115 0.9997626
vn 0.000692912 0.01647079 0.9998641
vn 2.497847E-07 -2.261492E-07 1
vn -0.0008416374 0.01607895 0.9998704
vn 0.0001689771 0.01570628 0.9998766
vn 0.02720059 0.01238984 0.9995531
vn -0.001124437 0.007007319 0.9999748
vn 0 -1.482323E-07 1
vn -0.02723963 0.0122038 0.9995545
vn -0.01802446 0.01381817 0.9997421
vn -6.47437E-05 0.00838296 0.9999648
vn -1.030812E-07 -2.430214E-07 1
vn 0 -2.217453E-07 1
vn -2.331669E-07 -2.48606E-07 1
vn 0 -1.621342E-07 1
vn -0.0005356731 0.1688264 0.9856457
vn 4.818017E-05 0.2184083 0.9758576
vn 1.478358E-07 0.5844293 0.8114447
vn 3.711E-07 0.5844294 0.8114445
vn 1.50425E-07 0.8679232 0.4966984
vn 1.135781E-07 0.8679234 0.4966982
vn 0 0.9575064 0.2884122
vn 0 0.9575062 0.2884125
vn 0 -1.28577E-07 1
vn 0 -1.747885E-07 1
vn 0 -1.269007E-07 1
vn 0 -1.507526E-07 1
vn 0 0 1
vn 0 0.008534705 0.9999636
vn -0.0005369713 0.01632118 0.9998666
vn 0.0007506233 0.01609498 0.9998702
vn 0.0005370732 0.1688132 0.9856479
vn -4.968977E-05 0.2184122 0.9758566
vn -1.478358E-07 0.5844293 0.8114446
vn -3.711E-07 0.5844294 0.8114445
vn -1.50425E-07 0.8679232 0.4966984
vn -1.135781E-07 0.8679234 0.4966982
vn 0 0.9575064 0.2884122
vn 0 0.9575062 0.2884125
vn -0.0001966171 0.01570629 0.9998766
vn 0 0.9710324 -0.2389482
vn 0 0.9710324 -0.2389482
vn 0 0.9710324 -0.2389482
vn 0 0.9710324 -0.2389482
vn 0 0.4992601 -0.8664521
vn 0 0.4992601 -0.8664521
vn 0 0.4992601 -0.8664521
vn 0 0.4992601 -0.8664521
vn 0 0.9710324 -0.2389482
vn 0 0.9710324 -0.2389482
vn 0 0.9710324 -0.2389482
vn 0 0.9710324 -0.2389482
vn 0 0.4992601 -0.8664521
vn 0 0.4992601 -0.8664521
vn 0 0.4992601 -0.8664521
vn 0 0.4992601 -0.8664521
g Camp_Arena_Flag_0
f 3/3/3 2/2/2 1/1/1
f 1/1/1 2/2/2 4/4/4
f 5/5/5 4/4/4 2/2/2
f 6/6/6 1/1/1 4/4/4
f 7/7/7 4/4/4 5/5/5
f 8/8/8 5/5/5 2/2/2
f 1/1/1 9/9/9 3/3/3
f 10/10/10 3/3/3 9/9/9
f 10/10/10 9/9/9 11/11/11
f 12/12/12 11/11/11 9/9/9
f 12/12/12 9/9/9 13/13/13
f 12/12/12 13/13/13 14/14/14
f 12/12/12 14/14/14 11/11/11
f 15/15/15 14/14/14 13/13/13
f 16/16/16 13/13/13 9/9/9
f 9/9/9 1/1/1 16/16/16
f 6/6/6 16/16/16 1/1/1
f 17/17/17 14/14/14 15/15/15
f 18/18/18 17/17/17 15/15/15
f 17/17/17 19/19/19 14/14/14
f 14/14/14 19/19/19 20/20/20
f 20/20/20 11/11/11 14/14/14
f 21/21/21 20/20/20 19/19/19
f 21/21/21 22/22/22 20/20/20
f 23/23/23 20/20/20 22/22/22
f 20/20/20 23/23/23 11/11/11
f 24/24/24 11/11/11 23/23/23
f 10/10/10 11/11/11 25/25/25
f 24/24/24 25/25/25 11/11/11
f 10/10/10 25/25/25 3/3/3
f 26/26/26 3/3/3 25/25/25
f 25/25/25 27/27/27 26/26/26
f 28/28/28 26/26/26 27/27/27
f 17/17/17 29/29/29 19/19/19
f 29/29/29 17/17/17 30/30/30
f 18/18/18 30/30/30 17/17/17
f 29/29/29 30/30/30 31/31/31
f 32/32/32 31/31/31 30/30/30
f 32/32/32 33/33/33 31/31/31
f 34/34/34 31/31/31 33/33/33
f 34/34/34 33/33/33 35/35/35
f 36/36/36 35/35/35 33/33/33
f 26/26/26 37/37/37 3/3/3
f 38/38/38 37/37/37 26/26/26
f 28/28/28 38/38/38 26/26/26
f 38/38/38 39/39/39 37/37/37
f 38/38/38 40/40/40 39/39/39
f 39/39/39 41/41/41 37/37/37
f 27/27/27 25/25/25 42/42/42
f 24/24/24 42/42/42 25/25/25
f 42/42/42 24/24/24 43/43/43
f 23/23/23 43/43/43 24/24/24
f 43/43/43 23/23/23 44/44/44
f 44/44/44 23/23/23 22/22/22
f 22/22/22 45/45/45 44/44/44
f 45/45/45 46/46/46 44/44/44
f 45/45/45 47/47/47 46/46/46
f 48/48/48 46/46/46 47/47/47
f 48/48/48 47/47/47 49/49/49
f 50/50/50 49/49/49 47/47/47
f 50/50/50 51/51/51 49/49/49
f 52/52/52 49/49/49 51/51/51
f 53/53/53 44/44/44 46/46/46
f 53/53/53 43/43/43 44/44/44
f 56/56/56 55/55/55 54/54/54
f 57/57/57 54/54/54 55/55/55
f 60/60/60 59/59/59 58/58/58
f 61/61/61 58/58/58 59/59/59
f 64/64/64 63/63/63 62/62/62
f 65/65/65 62/62/62 63/63/63
f 68/68/68 67/67/67 66/66/66
f 69/69/69 66/66/66 67/67/67
