g CH_B03_Prop07
v 0.5030115 0.005216343 1.017371E-07
v 0.4069446 0.1227398 -0.2956627
v 0.4069448 0.005216356 -0.2956628
v 0.5030113 0.1227398 1.745469E-07
v 0.5527197 0.4277213 -0.4015743
v 0.6831992 0.4277212 1.202054E-07
v 0.7752463 0.8301842 1.377976E-07
v 0.6271872 0.8301841 -0.4556781
v 0.6284627 1.208884 -0.4566049
v 0.7768226 1.208883 1.205147E-07
v 0.5631078 1.306065 -0.4091217
v 0.6960396 1.306065 1.58599E-07
v 0.4069448 0.005216356 -0.2956628
v 0.155439 0.1227399 -0.4783924
v 0.155439 0.005216342 -0.4783925
v 0.4069446 0.1227398 -0.2956627
v 0.2111201 0.4277212 -0.6497613
v 0.5527197 0.4277213 -0.4015743
v 0.6271872 0.8301841 -0.4556781
v 0.2395642 0.8301841 -0.7373028
v 0.2400514 1.208884 -0.738802
v 0.6284627 1.208884 -0.4566049
v -0.2400513 1.208884 -0.738802
v -0.2395643 0.8301841 -0.7373028
v -0.2111203 0.4277212 -0.6497613
v 0.2111201 0.4277212 -0.6497613
v 0.155439 0.1227399 -0.4783924
v -0.1554394 0.1227399 -0.4783924
v 0.155439 0.005216342 -0.4783925
v -0.1554394 0.005216342 -0.4783925
v -0.6284627 1.208884 -0.4566047
v -0.6271875 0.8301841 -0.4556781
v -0.55272 0.4277213 -0.4015746
v -0.2111203 0.4277212 -0.6497613
v -0.1554394 0.1227399 -0.4783924
v -0.4069452 0.1227398 -0.2956627
v -0.1554394 0.005216342 -0.4783925
v -0.4069453 0.005216356 -0.2956628
v -0.5631083 1.306065 -0.4091217
v -0.2150883 1.306065 -0.6619731
v -0.2150883 1.306065 -0.6619731
v 0.215088 1.306065 -0.6619731
v 0.215088 1.306065 -0.6619731
v 0.5631078 1.306065 -0.4091217
v -0.4069453 0.005216356 -0.2956628
v -0.5030119 0.1227398 1.745469E-07
v -0.5030119 0.005216343 1.694098E-07
v -0.4069452 0.1227398 -0.2956627
v -0.6831995 0.4277212 1.202054E-07
v -0.55272 0.4277213 -0.4015746
v -0.6271875 0.8301841 -0.4556781
v -0.7752461 0.8301842 1.377976E-07
v -0.7768226 1.208883 1.543511E-07
v -0.6284627 1.208884 -0.4566047
v -0.6960403 1.306065 2.262717E-07
v -0.5631083 1.306065 -0.4091217
v -0.5030119 0.005216343 1.694098E-07
v -0.4069451 0.1227399 0.295663
v -0.4069452 0.00521633 0.295663
v -0.5030119 0.1227398 1.745469E-07
v -0.55272 0.4277212 0.4015746
v -0.6831995 0.4277212 1.202054E-07
v -0.7752461 0.8301842 1.377976E-07
v -0.6271873 0.8301839 0.4556784
v -0.6284627 1.208883 0.456605
v -0.7768226 1.208883 1.543511E-07
v -0.5631083 1.306065 0.4091222
v -0.6960403 1.306065 2.262717E-07
v -0.4069452 0.00521633 0.295663
v -0.1554394 0.1227398 0.4783927
v -0.1554394 0.005216341 0.4783927
v -0.4069451 0.1227399 0.295663
v -0.2111204 0.4277212 0.6497611
v -0.55272 0.4277212 0.4015746
v -0.6271873 0.8301839 0.4556784
v -0.2395643 0.8301839 0.7373028
v -0.2400514 1.208883 0.7388023
v -0.6284627 1.208883 0.456605
v 0.2400515 1.208883 0.7388023
v 0.2395643 0.8301839 0.7373028
v 0.2111203 0.4277212 0.6497611
v -0.2111204 0.4277212 0.6497611
v -0.1554394 0.1227398 0.4783927
v 0.1554391 0.1227398 0.4783927
v -0.1554394 0.005216341 0.4783927
v 0.1554391 0.005216341 0.4783927
v 0.6284628 1.208883 0.4566046
v 0.6271875 0.8301839 0.4556781
v 0.55272 0.4277212 0.4015743
v 0.2111203 0.4277212 0.6497611
v 0.1554391 0.1227398 0.4783927
v 0.4069447 0.1227399 0.2956628
v 0.1554391 0.005216341 0.4783927
v 0.4069449 0.00521633 0.2956627
v 0.7768226 1.208883 1.205147E-07
v 0.7752463 0.8301842 1.377976E-07
v 0.6831992 0.4277212 1.202054E-07
v 0.55272 0.4277212 0.4015743
v 0.4069447 0.1227399 0.2956628
v 0.5030113 0.1227398 1.745469E-07
v 0.4069449 0.00521633 0.2956627
v 0.5030115 0.005216343 1.017371E-07
v 0.5631079 1.306065 0.4091218
v 0.6960396 1.306065 1.58599E-07
v 0.5631079 1.306065 0.4091218
v 0.215088 1.306065 0.6619735
v 0.215088 1.306065 0.6619735
v -0.2150884 1.306065 0.6619735
v -0.2150884 1.306065 0.6619735
v -0.5631083 1.306065 0.4091222
v 0.6960396 1.306065 1.58599E-07
v 0.5659708 1.417434 -0.4112016
v 0.5631078 1.306065 -0.4091217
v 0.6995785 1.417434 1.634671E-07
v 0.5631078 1.306065 -0.4091217
v 0.2161814 1.417434 -0.6653388
v 0.215088 1.306065 -0.6619731
v 0.5659708 1.417434 -0.4112016
v 0.215088 1.306065 -0.6619731
v -0.2161819 1.417434 -0.6653383
v -0.2150883 1.306065 -0.6619731
v 0.2161814 1.417434 -0.6653388
v -0.2150883 1.306065 -0.6619731
v -0.5659713 1.417434 -0.4112016
v -0.5631083 1.306065 -0.4091217
v -0.2161819 1.417434 -0.6653383
v -0.5631083 1.306065 -0.4091217
v -0.699579 1.417434 2.311398E-07
v -0.6960403 1.306065 2.262717E-07
v -0.5659713 1.417434 -0.4112016
v -0.6960403 1.306065 2.262717E-07
v -0.5659712 1.417434 0.4112023
v -0.5631083 1.306065 0.4091222
v -0.699579 1.417434 2.311398E-07
v -0.5631083 1.306065 0.4091222
v -0.216182 1.417434 0.6653389
v -0.2150884 1.306065 0.6619735
v -0.5659712 1.417434 0.4112023
v -0.2150884 1.306065 0.6619735
v 0.2161814 1.417434 0.6653389
v 0.215088 1.306065 0.6619735
v -0.216182 1.417434 0.6653389
v 0.215088 1.306065 0.6619735
v 0.5659708 1.417434 0.411202
v 0.5631079 1.306065 0.4091218
v 0.2161814 1.417434 0.6653389
v 0.5631079 1.306065 0.4091218
v 0.6995785 1.417434 1.634671E-07
v 0.6960396 1.306065 1.58599E-07
v 0.5659708 1.417434 0.411202
v 0.6995785 1.417434 1.634671E-07
v 0.4104233 1.417434 -0.2981898
v 0.5659708 1.417434 -0.4112016
v 0.5073113 1.417434 1.634671E-07
v 0.1567677 1.417434 -0.4824817
v 0.2161814 1.417434 -0.6653388
v -0.156768 1.417434 -0.4824814
v -0.2161819 1.417434 -0.6653383
v -0.4104239 1.417434 -0.2981898
v -0.5659713 1.417434 -0.4112016
v -0.5073118 1.417434 2.311398E-07
v -0.699579 1.417434 2.311398E-07
v -0.4104238 1.417434 0.2981904
v -0.5659712 1.417434 0.4112023
v -0.1567682 1.417434 0.4824822
v -0.216182 1.417434 0.6653389
v 0.1567677 1.417434 0.4824822
v 0.2161814 1.417434 0.6653389
v 0.4104235 1.417434 0.2981902
v 0.5659708 1.417434 0.411202
v 0.5073113 1.417434 1.634671E-07
v 0.3874511 1.370193 -0.2814996
v 0.4104233 1.417434 -0.2981898
v 0.4789161 1.370193 5.336021E-07
v 0.1479933 1.370193 -0.455476
v 0.1567677 1.417434 -0.4824817
v -0.147993 1.370193 -0.4554757
v -0.156768 1.417434 -0.4824814
v -0.3874519 1.370193 -0.281499
v -0.4104239 1.417434 -0.2981898
v -0.4789166 1.370193 1.614021E-07
v -0.5073118 1.417434 2.311398E-07
v -0.3874516 1.370193 0.2815005
v -0.4104238 1.417434 0.2981904
v -0.1479937 1.370193 0.4554769
v -0.1567682 1.417434 0.4824822
v 0.1479927 1.370193 0.4554769
v 0.1567677 1.417434 0.4824822
v 0.3874515 1.370193 0.2814999
v 0.4104235 1.417434 0.2981902
v 0.4789161 1.370193 5.336021E-07
v -2.030182E-07 1.370193 4.659294E-07
v 0.3874511 1.370193 -0.2814996
v 0.1479933 1.370193 -0.455476
v -0.147993 1.370193 -0.4554757
v -0.3874519 1.370193 -0.281499
v -0.4789166 1.370193 1.614021E-07
v -0.3874516 1.370193 0.2815005
v -0.1479937 1.370193 0.4554769
v 0.1479927 1.370193 0.4554769
v 0.3874515 1.370193 0.2814999
vt 0.5693755 0.8272745
vt 0.5968826 0.8376726
vt 0.5968826 0.8272745
vt 0.5693755 0.8376726
vt 0.6018095 0.8686243
vt 0.5644488 0.8686243
vt 0.5619322 0.9050655
vt 0.6043264 0.9050655
vt 0.6043696 0.9385717
vt 0.5619322 0.9385717
vt 0.6022093 0.9495323
vt 0.5640496 0.9495323
vt 0.5544508 0.8272745
vt 0.526947 0.8376726
vt 0.526947 0.8272745
vt 0.5544508 0.8376726
vt 0.5220208 0.8686243
vt 0.5593768 0.8686243
vt 0.5618933 0.9050655
vt 0.5195042 0.9050655
vt 0.5194612 0.9385717
vt 0.5618933 0.9385717
vt 0.4770721 0.9385717
vt 0.4771152 0.9050655
vt 0.4796318 0.8686243
vt 0.5169878 0.8686243
vt 0.5120617 0.8376726
vt 0.4845579 0.8376726
vt 0.5120617 0.8272745
vt 0.4845579 0.8272745
vt 0.43464 0.9385717
vt 0.4346831 0.9050655
vt 0.4371996 0.8686243
vt 0.4745557 0.8686243
vt 0.4696296 0.8376726
vt 0.4421258 0.8376726
vt 0.4696296 0.8272745
vt 0.4421258 0.8272745
vt 0.4368485 0.9495323
vt 0.4749067 0.9495323
vt 0.4792806 0.9495323
vt 0.5173388 0.9495323
vt 0.5216697 0.9495323
vt 0.5597278 0.9495323
vt 0.569379 0.8272745
vt 0.5968828 0.8376726
vt 0.5968828 0.8272745
vt 0.569379 0.8376726
vt 0.601809 0.8686243
vt 0.5644528 0.8686243
vt 0.5619363 0.9050655
vt 0.6043254 0.9050655
vt 0.6043254 0.9385717
vt 0.5618932 0.9385717
vt 0.60216 0.9495323
vt 0.5641018 0.9495323
vt 0.5693757 0.8272745
vt 0.5968829 0.8376726
vt 0.5968828 0.8272745
vt 0.5693757 0.8376726
vt 0.6018097 0.8686243
vt 0.564449 0.8686243
vt 0.5619322 0.9050655
vt 0.6043265 0.9050655
vt 0.6043696 0.9385717
vt 0.5619322 0.9385717
vt 0.6022093 0.9495323
vt 0.5640496 0.9495323
vt 0.4421258 0.8272745
vt 0.4696296 0.8376726
vt 0.4696296 0.8272745
vt 0.4421258 0.8376726
vt 0.4745557 0.8686243
vt 0.4371996 0.8686243
vt 0.4346831 0.9050655
vt 0.4770721 0.9050655
vt 0.4770721 0.9385717
vt 0.43464 0.9385717
vt 0.5195042 0.9385717
vt 0.5195042 0.9050655
vt 0.5169878 0.8686243
vt 0.4796318 0.8686243
vt 0.4845579 0.8376726
vt 0.5120617 0.8376726
vt 0.4845579 0.8272745
vt 0.5120617 0.8272745
vt 0.5618933 0.9385717
vt 0.5618933 0.9050655
vt 0.5593768 0.8686243
vt 0.5220208 0.8686243
vt 0.526947 0.8376726
vt 0.5544508 0.8376726
vt 0.526947 0.8272745
vt 0.5544508 0.8272745
vt 0.6043254 0.9385717
vt 0.6043254 0.9050655
vt 0.601809 0.8686243
vt 0.5644529 0.8686243
vt 0.5693791 0.8376726
vt 0.5968829 0.8376726
vt 0.5693791 0.8272745
vt 0.5968829 0.8272745
vt 0.5641018 0.9495323
vt 0.60216 0.9495323
vt 0.5597278 0.9495323
vt 0.5216697 0.9495323
vt 0.5173388 0.9495323
vt 0.4792806 0.9495323
vt 0.4749067 0.9495323
vt 0.4368485 0.9495323
vt 0.5640496 0.9495323
vt 0.6022093 0.9593903
vt 0.6022093 0.9495323
vt 0.5640496 0.9593903
vt 0.5597278 0.9495323
vt 0.5215729 0.9593903
vt 0.5216697 0.9495323
vt 0.5598246 0.9593903
vt 0.5173388 0.9495323
vt 0.4791838 0.9593903
vt 0.4792806 0.9495323
vt 0.5174356 0.9593903
vt 0.4749067 0.9495323
vt 0.4367517 0.9593903
vt 0.4368485 0.9495323
vt 0.4750034 0.9593903
vt 0.5641018 0.9495323
vt 0.6022567 0.9593903
vt 0.60216 0.9495323
vt 0.564005 0.9593903
vt 0.5640496 0.9495323
vt 0.6022093 0.9593903
vt 0.6022093 0.9495323
vt 0.5640496 0.9593903
vt 0.4368485 0.9495323
vt 0.4750034 0.9593903
vt 0.4749067 0.9495323
vt 0.4367517 0.9593903
vt 0.4792806 0.9495323
vt 0.5174356 0.9593903
vt 0.5173388 0.9495323
vt 0.4791838 0.9593903
vt 0.5216697 0.9495323
vt 0.5598246 0.9593903
vt 0.5597278 0.9495323
vt 0.5215729 0.9593903
vt 0.5641018 0.9495323
vt 0.6022567 0.9593903
vt 0.60216 0.9495323
vt 0.564005 0.9593903
vt 0.374101 0.7645501
vt 0.3925888 0.7449947
vt 0.3827722 0.7378627
vt 0.3862348 0.7645501
vt 0.4092236 0.7329088
vt 0.4054739 0.7213688
vt 0.4297852 0.732909
vt 0.4335348 0.7213689
vt 0.4464201 0.7449948
vt 0.4562365 0.7378627
vt 0.452774 0.7645501
vt 0.4649079 0.7645501
vt 0.4464201 0.7841056
vt 0.4562365 0.7912378
vt 0.4297852 0.7961916
vt 0.4335349 0.8077315
vt 0.4092235 0.7961916
vt 0.4054739 0.8077315
vt 0.3925888 0.7841056
vt 0.3827722 0.7912377
vt 0.3862348 0.7645501
vt 0.3951316 0.7468423
vt 0.3925888 0.7449947
vt 0.3893779 0.7645502
vt 0.4101948 0.7358981
vt 0.4092236 0.7329088
vt 0.428814 0.7358981
vt 0.4297852 0.732909
vt 0.4438773 0.7468423
vt 0.4464201 0.7449948
vt 0.449631 0.7645501
vt 0.452774 0.7645501
vt 0.4438773 0.7822582
vt 0.4464201 0.7841056
vt 0.428814 0.7932023
vt 0.4297852 0.7961916
vt 0.4101948 0.7932023
vt 0.4092235 0.7961916
vt 0.3951316 0.7822582
vt 0.3925888 0.7841056
vt 0.3893779 0.7645502
vt 0.4195044 0.7645502
vt 0.3951316 0.7468423
vt 0.4101948 0.7358981
vt 0.428814 0.7358981
vt 0.4438773 0.7468423
vt 0.449631 0.7645501
vt 0.4438773 0.7822582
vt 0.428814 0.7932023
vt 0.4101948 0.7932023
vt 0.3951316 0.7822582
vn 1 1.317669E-06 -1.196948E-07
vn 0.7771519 -0.2778918 -0.5646335
vn 0.8090171 1.537805E-06 -0.5877851
vn 0.9606124 -0.2778921 0
vn 0.7547179 -0.3601815 -0.5483341
vn 0.9328822 -0.3601817 -1.830859E-07
vn 0.9937231 -0.111868 0
vn 0.8039388 -0.111868 -0.5840958
vn 0.7669609 0.3182232 -0.5572299
vn 0.9480157 0.3182236 1.235106E-07
vn 0.6221386 0.6392424 -0.4520097
vn 0.7690051 0.6392425 2.430208E-07
vn 0.8090171 1.537805E-06 -0.5877851
vn 0.2968456 -0.2778928 -0.9135964
vn 0.3090168 4.418755E-07 -0.9510565
vn 0.7771519 -0.2778918 -0.5646335
vn 0.2882767 -0.3601814 -0.8872237
vn 0.7547179 -0.3601815 -0.5483341
vn 0.8039388 -0.111868 -0.5840958
vn 0.3070774 -0.1118674 -0.9450868
vn 0.2929531 0.3182223 -0.9016169
vn 0.7669609 0.3182232 -0.5572299
vn -0.2929529 0.3182221 -0.9016171
vn -0.3070773 -0.1118674 -0.9450868
vn -0.2882765 -0.3601813 -0.8872238
vn 0.2882767 -0.3601814 -0.8872237
vn 0.2968456 -0.2778928 -0.9135964
vn -0.2968456 -0.2778927 -0.9135964
vn 0.3090168 4.418755E-07 -0.9510565
vn -0.3090169 6.919086E-07 -0.9510565
vn -0.766961 0.3182223 -0.55723
vn -0.803939 -0.1118677 -0.5840957
vn -0.7547176 -0.3601812 -0.5483346
vn -0.2882765 -0.3601813 -0.8872238
vn -0.2968456 -0.2778927 -0.9135964
vn -0.7771517 -0.277892 -0.5646337
vn -0.3090169 6.919086E-07 -0.9510565
vn -0.8090168 1.077442E-06 -0.5877855
vn -0.6221399 0.6392401 -0.4520109
vn -0.2376367 0.6392397 -0.7313695
vn -0.2376367 0.6392397 -0.7313695
vn 0.2376358 0.6392404 -0.7313692
vn 0.2376358 0.6392404 -0.7313692
vn 0.6221386 0.6392424 -0.4520097
vn -0.8090168 1.077442E-06 -0.5877855
vn -0.9606122 -0.2778924 2.151647E-07
vn -1 0 3.092114E-07
vn -0.7771517 -0.277892 -0.5646337
vn -0.9328824 -0.360181 1.237764E-07
vn -0.7547176 -0.3601812 -0.5483346
vn -0.803939 -0.1118677 -0.5840957
vn -0.9937231 -0.1118677 1.741572E-07
vn -0.9480162 0.3182218 1.782482E-07
vn -0.766961 0.3182223 -0.55723
vn -0.7690078 0.6392394 4.166075E-07
vn -0.6221399 0.6392401 -0.4520109
vn -1 0 3.092114E-07
vn -0.7771515 -0.2778923 0.5646338
vn -0.8090171 4.674994E-07 0.5877852
vn -0.9606122 -0.2778924 2.151647E-07
vn -0.7547176 -0.3601812 0.5483345
vn -0.9328824 -0.360181 1.237764E-07
vn -0.9937231 -0.1118677 1.741572E-07
vn -0.8039387 -0.1118679 0.5840958
vn -0.7669612 0.3182223 0.5572299
vn -0.9480162 0.3182218 1.782482E-07
vn -0.6221396 0.6392404 0.4520109
vn -0.7690078 0.6392394 4.166075E-07
vn -0.8090171 4.674994E-07 0.5877852
vn -0.2968456 -0.2778923 0.9135966
vn -0.309017 0 0.9510565
vn -0.7771515 -0.2778923 0.5646338
vn -0.2882765 -0.3601812 0.8872239
vn -0.7547176 -0.3601812 0.5483345
vn -0.8039387 -0.1118679 0.5840958
vn -0.3070772 -0.111868 0.9450868
vn -0.292953 0.318222 0.9016171
vn -0.7669612 0.3182223 0.5572299
vn 0.2929535 0.3182223 0.9016168
vn 0.3070774 -0.111868 0.9450868
vn 0.2882767 -0.3601812 0.8872238
vn -0.2882765 -0.3601812 0.8872239
vn -0.2968456 -0.2778923 0.9135966
vn 0.2968459 -0.2778925 0.9135964
vn -0.309017 0 0.9510565
vn 0.3090174 0 0.9510564
vn 0.766961 0.3182232 0.5572295
vn 0.8039389 -0.1118679 0.5840957
vn 0.7547178 -0.3601815 0.5483341
vn 0.2882767 -0.3601812 0.8872238
vn 0.2968459 -0.2778925 0.9135964
vn 0.7771518 -0.2778925 0.5646334
vn 0.3090174 0 0.9510564
vn 0.8090174 6.69926E-07 0.5877846
vn 0.9480157 0.3182236 1.235106E-07
vn 0.9937231 -0.111868 0
vn 0.9328822 -0.3601817 -1.830859E-07
vn 0.7547178 -0.3601815 0.5483341
vn 0.7771518 -0.2778925 0.5646334
vn 0.9606124 -0.2778921 0
vn 0.8090174 6.69926E-07 0.5877846
vn 1 1.317669E-06 -1.196948E-07
vn 0.6221386 0.6392419 0.4520104
vn 0.7690051 0.6392425 2.430208E-07
vn 0.6221386 0.6392419 0.4520104
vn 0.237636 0.6392406 0.731369
vn 0.237636 0.6392406 0.731369
vn -0.2376364 0.63924 0.7313693
vn -0.2376364 0.63924 0.7313693
vn -0.6221396 0.6392404 0.4520109
vn 0.9994955 -0.03175946 0
vn 0.8086092 -0.03175855 -0.5874884
vn 0.8086089 -0.03175863 -0.5874888
vn 0.9994955 -0.03175947 0
vn 0.8086089 -0.03175863 -0.5874888
vn 0.3088608 -0.03175944 -0.9505768
vn 0.308861 -0.03175927 -0.9505768
vn 0.8086092 -0.03175855 -0.5874884
vn 0.308861 -0.03175927 -0.9505768
vn -0.3088612 -0.0317568 -0.9505768
vn -0.3088608 -0.03175662 -0.950577
vn 0.3088608 -0.03175944 -0.9505768
vn -0.3088608 -0.03175662 -0.950577
vn -0.8086091 -0.03175868 -0.5874885
vn -0.8086087 -0.03175869 -0.5874891
vn -0.3088612 -0.0317568 -0.9505768
vn -0.8086087 -0.03175869 -0.5874891
vn -0.9994956 -0.03175823 -1.003679E-07
vn -0.9994956 -0.0317582 0
vn -0.8086091 -0.03175868 -0.5874885
vn -0.9994956 -0.0317582 0
vn -0.8086086 -0.03175917 0.5874891
vn -0.8086088 -0.03175913 0.5874889
vn -0.9994956 -0.03175823 -1.003679E-07
vn -0.8086088 -0.03175913 0.5874889
vn -0.3088614 -0.03175789 0.9505767
vn -0.308861 -0.03175779 0.9505768
vn -0.8086086 -0.03175917 0.5874891
vn -0.308861 -0.03175779 0.9505768
vn 0.3088611 -0.03175736 0.9505768
vn 0.3088614 -0.03175759 0.9505767
vn -0.3088614 -0.03175789 0.9505767
vn 0.3088614 -0.03175759 0.9505767
vn 0.8086089 -0.03175941 0.5874888
vn 0.8086092 -0.03175966 0.5874882
vn 0.3088611 -0.03175736 0.9505768
vn 0.8086092 -0.03175966 0.5874882
vn 0.9994955 -0.03175947 0
vn 0.9994955 -0.03175946 0
vn 0.8086089 -0.03175941 0.5874888
vn 0 1 0
vn 0 1 0
vn 0 1 0
vn 0 1 0
vn 0 1 0
vn 0 1 0
vn 0 1 0
vn 0 1 0
vn 0 1 0
vn 0 1 0
vn 0 1 0
vn 0 1 0
vn 0 1 0
vn 0 1 0
vn 0 1 0
vn 0 1 0
vn 0 1 0
vn 0 1 0
vn 0 1 0
vn 0 1 0
vn -0.8570866 0.5151725 1.184026E-06
vn -0.6933972 0.5151731 0.5037827
vn -0.6933973 0.515173 0.5037825
vn -0.8570865 0.5151725 -1.157428E-06
vn -0.2648547 0.5151748 0.8151362
vn -0.2648529 0.5151749 0.8151367
vn 0.2648524 0.5151777 0.8151351
vn 0.2648539 0.5151777 0.8151346
vn 0.6933973 0.515175 0.5037805
vn 0.6933952 0.5151749 0.5037834
vn 0.8570868 0.5151721 2.145041E-07
vn 0.8570868 0.5151721 -2.19264E-07
vn 0.6933979 0.5151707 -0.5037842
vn 0.6933987 0.5151708 -0.503783
vn 0.2648549 0.515171 -0.8151385
vn 0.2648545 0.5151711 -0.8151386
vn -0.264853 0.5151729 -0.8151379
vn -0.2648552 0.5151727 -0.8151374
vn -0.6933988 0.515171 -0.5037826
vn -0.6933985 0.5151709 -0.5037833
vn 0 1 0
vn 0 1 0
vn 0 1 0
vn 0 1 0
vn 0 1 0
vn 0 1 0
vn 0 1 0
vn 0 1 0
vn 0 1 0
vn 0 1 0
vn 0 1 0
g CH_B03_Prop07_0
f 3/3/3 2/2/2 1/1/1
f 4/4/4 1/1/1 2/2/2
f 2/2/2 5/5/5 4/4/4
f 6/6/6 4/4/4 5/5/5
f 6/6/6 5/5/5 7/7/7
f 8/8/8 7/7/7 5/5/5
f 8/8/8 9/9/9 7/7/7
f 10/10/10 7/7/7 9/9/9
f 9/9/9 11/11/11 10/10/10
f 12/12/12 10/10/10 11/11/11
f 15/15/15 14/14/14 13/13/13
f 16/16/16 13/13/13 14/14/14
f 14/14/14 17/17/17 16/16/16
f 18/18/18 16/16/16 17/17/17
f 18/18/18 17/17/17 19/19/19
f 20/20/20 19/19/19 17/17/17
f 20/20/20 21/21/21 19/19/19
f 22/22/22 19/19/19 21/21/21
f 21/21/21 20/20/20 23/23/23
f 24/24/24 23/23/23 20/20/20
f 24/24/24 20/20/20 25/25/25
f 26/26/26 25/25/25 20/20/20
f 26/26/26 27/27/27 25/25/25
f 28/28/28 25/25/25 27/27/27
f 27/27/27 29/29/29 28/28/28
f 30/30/30 28/28/28 29/29/29
f 23/23/23 24/24/24 31/31/31
f 32/32/32 31/31/31 24/24/24
f 32/32/32 24/24/24 33/33/33
f 34/34/34 33/33/33 24/24/24
f 34/34/34 35/35/35 33/33/33
f 36/36/36 33/33/33 35/35/35
f 35/35/35 37/37/37 36/36/36
f 38/38/38 36/36/36 37/37/37
f 31/31/31 39/39/39 23/23/23
f 40/40/40 23/23/23 39/39/39
f 23/23/23 41/41/41 21/21/21
f 42/42/42 21/21/21 41/41/41
f 21/21/21 43/43/43 22/22/22
f 44/44/44 22/22/22 43/43/43
f 47/47/47 46/46/46 45/45/45
f 48/48/48 45/45/45 46/46/46
f 46/46/46 49/49/49 48/48/48
f 50/50/50 48/48/48 49/49/49
f 50/50/50 49/49/49 51/51/51
f 52/52/52 51/51/51 49/49/49
f 52/52/52 53/53/53 51/51/51
f 54/54/54 51/51/51 53/53/53
f 53/53/53 55/55/55 54/54/54
f 56/56/56 54/54/54 55/55/55
f 59/59/59 58/58/58 57/57/57
f 60/60/60 57/57/57 58/58/58
f 58/58/58 61/61/61 60/60/60
f 62/62/62 60/60/60 61/61/61
f 62/62/62 61/61/61 63/63/63
f 64/64/64 63/63/63 61/61/61
f 64/64/64 65/65/65 63/63/63
f 66/66/66 63/63/63 65/65/65
f 65/65/65 67/67/67 66/66/66
f 68/68/68 66/66/66 67/67/67
f 71/71/71 70/70/70 69/69/69
f 72/72/72 69/69/69 70/70/70
f 70/70/70 73/73/73 72/72/72
f 74/74/74 72/72/72 73/73/73
f 74/74/74 73/73/73 75/75/75
f 76/76/76 75/75/75 73/73/73
f 76/76/76 77/77/77 75/75/75
f 78/78/78 75/75/75 77/77/77
f 77/77/77 76/76/76 79/79/79
f 80/80/80 79/79/79 76/76/76
f 80/80/80 76/76/76 81/81/81
f 82/82/82 81/81/81 76/76/76
f 82/82/82 83/83/83 81/81/81
f 84/84/84 81/81/81 83/83/83
f 83/83/83 85/85/85 84/84/84
f 86/86/86 84/84/84 85/85/85
f 79/79/79 80/80/80 87/87/87
f 88/88/88 87/87/87 80/80/80
f 88/88/88 80/80/80 89/89/89
f 90/90/90 89/89/89 80/80/80
f 90/90/90 91/91/91 89/89/89
f 92/92/92 89/89/89 91/91/91
f 91/91/91 93/93/93 92/92/92
f 94/94/94 92/92/92 93/93/93
f 87/87/87 88/88/88 95/95/95
f 96/96/96 95/95/95 88/88/88
f 96/96/96 88/88/88 97/97/97
f 98/98/98 97/97/97 88/88/88
f 98/98/98 99/99/99 97/97/97
f 100/100/100 97/97/97 99/99/99
f 99/99/99 101/101/101 100/100/100
f 102/102/102 100/100/100 101/101/101
f 87/87/87 95/95/95 103/103/103
f 104/104/104 103/103/103 95/95/95
f 87/87/87 105/105/105 79/79/79
f 106/106/106 79/79/79 105/105/105
f 79/79/79 107/107/107 77/77/77
f 108/108/108 77/77/77 107/107/107
f 77/77/77 109/109/109 78/78/78
f 110/110/110 78/78/78 109/109/109
f 113/113/113 112/112/112 111/111/111
f 114/114/114 111/111/111 112/112/112
f 117/117/117 116/116/116 115/115/115
f 118/118/118 115/115/115 116/116/116
f 121/121/121 120/120/120 119/119/119
f 122/122/122 119/119/119 120/120/120
f 125/125/125 124/124/124 123/123/123
f 126/126/126 123/123/123 124/124/124
f 129/129/129 128/128/128 127/127/127
f 130/130/130 127/127/127 128/128/128
f 133/133/133 132/132/132 131/131/131
f 134/134/134 131/131/131 132/132/132
f 137/137/137 136/136/136 135/135/135
f 138/138/138 135/135/135 136/136/136
f 141/141/141 140/140/140 139/139/139
f 142/142/142 139/139/139 140/140/140
f 145/145/145 144/144/144 143/143/143
f 146/146/146 143/143/143 144/144/144
f 149/149/149 148/148/148 147/147/147
f 150/150/150 147/147/147 148/148/148
f 153/153/153 152/152/152 151/151/151
f 154/154/154 151/151/151 152/152/152
f 152/152/152 153/153/153 155/155/155
f 156/156/156 155/155/155 153/153/153
f 155/155/155 156/156/156 157/157/157
f 158/158/158 157/157/157 156/156/156
f 157/157/157 158/158/158 159/159/159
f 160/160/160 159/159/159 158/158/158
f 159/159/159 160/160/160 161/161/161
f 162/162/162 161/161/161 160/160/160
f 161/161/161 162/162/162 163/163/163
f 164/164/164 163/163/163 162/162/162
f 163/163/163 164/164/164 165/165/165
f 166/166/166 165/165/165 164/164/164
f 165/165/165 166/166/166 167/167/167
f 168/168/168 167/167/167 166/166/166
f 167/167/167 168/168/168 169/169/169
f 170/170/170 169/169/169 168/168/168
f 169/169/169 170/170/170 154/154/154
f 151/151/151 154/154/154 170/170/170
f 173/173/173 172/172/172 171/171/171
f 174/174/174 171/171/171 172/172/172
f 172/172/172 173/173/173 175/175/175
f 176/176/176 175/175/175 173/173/173
f 175/175/175 176/176/176 177/177/177
f 178/178/178 177/177/177 176/176/176
f 177/177/177 178/178/178 179/179/179
f 180/180/180 179/179/179 178/178/178
f 179/179/179 180/180/180 181/181/181
f 182/182/182 181/181/181 180/180/180
f 181/181/181 182/182/182 183/183/183
f 184/184/184 183/183/183 182/182/182
f 183/183/183 184/184/184 185/185/185
f 186/186/186 185/185/185 184/184/184
f 185/185/185 186/186/186 187/187/187
f 188/188/188 187/187/187 186/186/186
f 187/187/187 188/188/188 189/189/189
f 190/190/190 189/189/189 188/188/188
f 189/189/189 190/190/190 174/174/174
f 171/171/171 174/174/174 190/190/190
f 193/193/193 192/192/192 191/191/191
f 194/194/194 192/192/192 193/193/193
f 195/195/195 192/192/192 194/194/194
f 196/196/196 192/192/192 195/195/195
f 197/197/197 192/192/192 196/196/196
f 198/198/198 192/192/192 197/197/197
f 199/199/199 192/192/192 198/198/198
f 200/200/200 192/192/192 199/199/199
f 201/201/201 192/192/192 200/200/200
f 191/191/191 192/192/192 201/201/201
