g CH_Ground03a_Tile
v 1 4.371096E-08 -0.9999902
v 2.441406E-06 -2.091838E-13 4.882812E-06
v 2.441406E-06 4.371096E-08 -0.9999902
v 1 -2.091838E-13 4.882812E-06
v 2 4.371096E-08 -0.9999902
v 2 -2.091838E-13 4.882812E-06
v 3 4.371096E-08 -0.9999902
v 3 -2.091838E-13 4.882812E-06
v 4 4.371096E-08 -0.9999902
v 4 -2.091838E-13 4.882812E-06
v 1 8.742235E-08 -1.99999
v 2.441406E-06 8.742235E-08 -1.99999
v 2 8.742235E-08 -1.99999
v 3 8.742235E-08 -1.99999
v 4 8.742235E-08 -1.99999
v 1 1.311337E-07 -2.99999
v 2.441406E-06 1.311337E-07 -2.99999
v 2 1.311337E-07 -2.99999
v 3 1.311337E-07 -2.99999
v 4 1.311337E-07 -2.99999
v 1 1.748451E-07 -3.99999
v 2.441406E-06 1.748451E-07 -3.99999
v 2 1.748451E-07 -3.99999
v 3 1.748451E-07 -3.99999
v 4 1.748451E-07 -3.99999
v -2.999995 4.371096E-08 -0.9999902
v -3.999995 -2.091838E-13 4.882812E-06
v -3.999995 4.371096E-08 -0.9999902
v -2.999995 -2.091838E-13 4.882812E-06
v -1.999995 4.371096E-08 -0.9999902
v -1.999995 -2.091838E-13 4.882812E-06
v -0.9999951 4.371096E-08 -0.9999902
v -0.9999951 -2.091838E-13 4.882812E-06
v 2.441406E-06 4.371096E-08 -0.9999902
v 2.441406E-06 -2.091838E-13 4.882812E-06
v -2.999995 8.742235E-08 -1.99999
v -3.999995 8.742235E-08 -1.99999
v -1.999995 8.742235E-08 -1.99999
v -0.9999951 8.742235E-08 -1.99999
v 2.441406E-06 8.742235E-08 -1.99999
v -2.999995 1.311337E-07 -2.99999
v -3.999995 1.311337E-07 -2.99999
v -1.999995 1.311337E-07 -2.99999
v -0.9999951 1.311337E-07 -2.99999
v 2.441406E-06 1.311337E-07 -2.99999
v -2.999995 1.748451E-07 -3.99999
v -3.999995 1.748451E-07 -3.99999
v -1.999995 1.748451E-07 -3.99999
v -0.9999951 1.748451E-07 -3.99999
v 2.441406E-06 1.748451E-07 -3.99999
v -2.999995 -1.311342E-07 3
v -3.999995 -1.748456E-07 4
v -3.999995 -1.311342E-07 3
v -2.999995 -1.748456E-07 4
v -1.999995 -1.311342E-07 3
v -1.999995 -1.748456E-07 4
v -0.9999951 -1.311342E-07 3
v -0.9999951 -1.748456E-07 4
v 2.441406E-06 -1.311342E-07 3
v 2.441406E-06 -1.748456E-07 4
v -2.999995 -8.742277E-08 2
v -3.999995 -8.742277E-08 2
v -1.999995 -8.742277E-08 2
v -0.9999951 -8.742277E-08 2
v 2.441406E-06 -8.742277E-08 2
v -2.999995 -4.371139E-08 1
v -3.999995 -4.371139E-08 1
v -1.999995 -4.371139E-08 1
v -0.9999951 -4.371139E-08 1
v 2.441406E-06 -4.371139E-08 1
v -2.999995 -2.091838E-13 4.882812E-06
v -3.999995 -2.091838E-13 4.882812E-06
v -1.999995 -2.091838E-13 4.882812E-06
v -0.9999951 -2.091838E-13 4.882812E-06
v 2.441406E-06 -2.091838E-13 4.882812E-06
v 1 -1.311342E-07 3
v 2.441406E-06 -1.748456E-07 4
v 2.441406E-06 -1.311342E-07 3
v 1 -1.748456E-07 4
v 2 -1.311342E-07 3
v 2 -1.748456E-07 4
v 3 -1.311342E-07 3
v 3 -1.748456E-07 4
v 4 -1.311342E-07 3
v 4 -1.748456E-07 4
v 1 -8.742277E-08 2
v 2.441406E-06 -8.742277E-08 2
v 2 -8.742277E-08 2
v 3 -8.742277E-08 2
v 4 -8.742277E-08 2
v 1 -4.371139E-08 1
v 2.441406E-06 -4.371139E-08 1
v 2 -4.371139E-08 1
v 3 -4.371139E-08 1
v 4 -4.371139E-08 1
v 1 -2.091838E-13 4.882812E-06
v 2.441406E-06 -2.091838E-13 4.882812E-06
v 2 -2.091838E-13 4.882812E-06
v 3 -2.091838E-13 4.882812E-06
v 4 -2.091838E-13 4.882812E-06
vt 0.06249998 0.3125
vt -1.681351E-08 0.25
vt -1.681351E-08 0.3125
vt 0.06249998 0.25
vt 0.125 0.3125
vt 0.125 0.25
vt 0.1875 0.3125
vt 0.1875 0.25
vt 0.25 0.3125
vt 0.25 0.25
vt 0.06249998 0.375
vt -1.681351E-08 0.375
vt 0.125 0.375
vt 0.1875 0.375
vt 0.25 0.375
vt 0.06249998 0.4375
vt -1.681351E-08 0.4375
vt 0.125 0.4375
vt 0.1875 0.4375
vt 0.25 0.4375
vt 0.06249998 0.5
vt -1.681351E-08 0.5
vt 0.125 0.5
vt 0.1875 0.5
vt 0.25 0.5
vt 0.06249998 0.3125
vt -1.681351E-08 0.25
vt -1.681351E-08 0.3125
vt 0.06249998 0.25
vt 0.125 0.3125
vt 0.125 0.25
vt 0.1875 0.3125
vt 0.1875 0.25
vt 0.25 0.3125
vt 0.25 0.25
vt 0.06249998 0.375
vt -1.681351E-08 0.375
vt 0.125 0.375
vt 0.1875 0.375
vt 0.25 0.375
vt 0.06249998 0.4375
vt -1.681351E-08 0.4375
vt 0.125 0.4375
vt 0.1875 0.4375
vt 0.25 0.4375
vt 0.06249998 0.5
vt -1.681351E-08 0.5
vt 0.125 0.5
vt 0.1875 0.5
vt 0.25 0.5
vt 0.06249998 0.3125
vt -1.681351E-08 0.25
vt -1.681351E-08 0.3125
vt 0.06249998 0.25
vt 0.125 0.3125
vt 0.125 0.25
vt 0.1875 0.3125
vt 0.1875 0.25
vt 0.25 0.3125
vt 0.25 0.25
vt 0.06249998 0.375
vt -1.681351E-08 0.375
vt 0.125 0.375
vt 0.1875 0.375
vt 0.25 0.375
vt 0.06249998 0.4375
vt -1.681351E-08 0.4375
vt 0.125 0.4375
vt 0.1875 0.4375
vt 0.25 0.4375
vt 0.06249998 0.5
vt -1.681351E-08 0.5
vt 0.125 0.5
vt 0.1875 0.5
vt 0.25 0.5
vt 0.06249998 0.3125
vt -1.681351E-08 0.25
vt -1.681351E-08 0.3125
vt 0.06249998 0.25
vt 0.125 0.3125
vt 0.125 0.25
vt 0.1875 0.3125
vt 0.1875 0.25
vt 0.25 0.3125
vt 0.25 0.25
vt 0.06249998 0.375
vt -1.681351E-08 0.375
vt 0.125 0.375
vt 0.1875 0.375
vt 0.25 0.375
vt 0.06249998 0.4375
vt -1.681351E-08 0.4375
vt 0.125 0.4375
vt 0.1875 0.4375
vt 0.25 0.4375
vt 0.06249998 0.5
vt -1.681351E-08 0.5
vt 0.125 0.5
vt 0.1875 0.5
vt 0.25 0.5
vn 0 1 0
vn 0 1 0
vn 0 1 0
vn 0 1 0
vn 0 1 0
vn 0 1 0
vn 0 1 0
vn 0 1 0
vn 0 1 0
vn 0 1 0
vn 0 1 0
vn 0 1 0
vn 0 1 0
vn 0 1 0
vn 0 1 0
vn 0 1 0
vn 0 1 0
vn 0 1 0
vn 0 1 0
vn 0 1 0
vn 0 1 0
vn 0 1 0
vn 0 1 0
vn 0 1 0
vn 0 1 0
vn 0 1 0
vn 0 1 0
vn 0 1 0
vn 0 1 0
vn 0 1 0
vn 0 1 0
vn 0 1 0
vn 0 1 0
vn 0 1 0
vn 0 1 0
vn 0 1 0
vn 0 1 0
vn 0 1 0
vn 0 1 0
vn 0 1 0
vn 0 1 0
vn 0 1 0
vn 0 1 0
vn 0 1 0
vn 0 1 0
vn 0 1 0
vn 0 1 0
vn 0 1 0
vn 0 1 0
vn 0 1 0
vn 0 1 0
vn 0 1 0
vn 0 1 0
vn 0 1 0
vn 0 1 0
vn 0 1 0
vn 0 1 0
vn 0 1 0
vn 0 1 0
vn 0 1 0
vn 0 1 0
vn 0 1 0
vn 0 1 0
vn 0 1 0
vn 0 1 0
vn 0 1 0
vn 0 1 0
vn 0 1 0
vn 0 1 0
vn 0 1 0
vn 0 1 0
vn 0 1 0
vn 0 1 0
vn 0 1 0
vn 0 1 0
vn 0 1 0
vn 0 1 0
vn 0 1 0
vn 0 1 0
vn 0 1 0
vn 0 1 0
vn 0 1 0
vn 0 1 0
vn 0 1 0
vn 0 1 0
vn 0 1 0
vn 0 1 0
vn 0 1 0
vn 0 1 0
vn 0 1 0
vn 0 1 0
vn 0 1 0
vn 0 1 0
vn 0 1 0
vn 0 1 0
vn 0 1 0
vn 0 1 0
vn 0 1 0
vn 0 1 0
vn 0 1 0
g CH_Ground03a_Tile_0
f 3/3/3 2/2/2 1/1/1
f 4/4/4 1/1/1 2/2/2
f 1/1/1 4/4/4 5/5/5
f 6/6/6 5/5/5 4/4/4
f 5/5/5 6/6/6 7/7/7
f 8/8/8 7/7/7 6/6/6
f 7/7/7 8/8/8 9/9/9
f 10/10/10 9/9/9 8/8/8
f 1/1/1 11/11/11 3/3/3
f 12/12/12 3/3/3 11/11/11
f 11/11/11 1/1/1 13/13/13
f 5/5/5 13/13/13 1/1/1
f 13/13/13 5/5/5 14/14/14
f 7/7/7 14/14/14 5/5/5
f 14/14/14 7/7/7 15/15/15
f 9/9/9 15/15/15 7/7/7
f 11/11/11 16/16/16 12/12/12
f 17/17/17 12/12/12 16/16/16
f 16/16/16 11/11/11 18/18/18
f 13/13/13 18/18/18 11/11/11
f 18/18/18 13/13/13 19/19/19
f 14/14/14 19/19/19 13/13/13
f 19/19/19 14/14/14 20/20/20
f 15/15/15 20/20/20 14/14/14
f 16/16/16 21/21/21 17/17/17
f 22/22/22 17/17/17 21/21/21
f 21/21/21 16/16/16 23/23/23
f 18/18/18 23/23/23 16/16/16
f 23/23/23 18/18/18 24/24/24
f 19/19/19 24/24/24 18/18/18
f 24/24/24 19/19/19 25/25/25
f 20/20/20 25/25/25 19/19/19
f 28/28/28 27/27/27 26/26/26
f 29/29/29 26/26/26 27/27/27
f 26/26/26 29/29/29 30/30/30
f 31/31/31 30/30/30 29/29/29
f 30/30/30 31/31/31 32/32/32
f 33/33/33 32/32/32 31/31/31
f 32/32/32 33/33/33 34/34/34
f 35/35/35 34/34/34 33/33/33
f 26/26/26 36/36/36 28/28/28
f 37/37/37 28/28/28 36/36/36
f 36/36/36 26/26/26 38/38/38
f 30/30/30 38/38/38 26/26/26
f 38/38/38 30/30/30 39/39/39
f 32/32/32 39/39/39 30/30/30
f 39/39/39 32/32/32 40/40/40
f 34/34/34 40/40/40 32/32/32
f 36/36/36 41/41/41 37/37/37
f 42/42/42 37/37/37 41/41/41
f 41/41/41 36/36/36 43/43/43
f 38/38/38 43/43/43 36/36/36
f 43/43/43 38/38/38 44/44/44
f 39/39/39 44/44/44 38/38/38
f 44/44/44 39/39/39 45/45/45
f 40/40/40 45/45/45 39/39/39
f 41/41/41 46/46/46 42/42/42
f 47/47/47 42/42/42 46/46/46
f 46/46/46 41/41/41 48/48/48
f 43/43/43 48/48/48 41/41/41
f 48/48/48 43/43/43 49/49/49
f 44/44/44 49/49/49 43/43/43
f 49/49/49 44/44/44 50/50/50
f 45/45/45 50/50/50 44/44/44
f 53/53/53 52/52/52 51/51/51
f 54/54/54 51/51/51 52/52/52
f 51/51/51 54/54/54 55/55/55
f 56/56/56 55/55/55 54/54/54
f 55/55/55 56/56/56 57/57/57
f 58/58/58 57/57/57 56/56/56
f 57/57/57 58/58/58 59/59/59
f 60/60/60 59/59/59 58/58/58
f 51/51/51 61/61/61 53/53/53
f 62/62/62 53/53/53 61/61/61
f 61/61/61 51/51/51 63/63/63
f 55/55/55 63/63/63 51/51/51
f 63/63/63 55/55/55 64/64/64
f 57/57/57 64/64/64 55/55/55
f 64/64/64 57/57/57 65/65/65
f 59/59/59 65/65/65 57/57/57
f 61/61/61 66/66/66 62/62/62
f 67/67/67 62/62/62 66/66/66
f 66/66/66 61/61/61 68/68/68
f 63/63/63 68/68/68 61/61/61
f 68/68/68 63/63/63 69/69/69
f 64/64/64 69/69/69 63/63/63
f 69/69/69 64/64/64 70/70/70
f 65/65/65 70/70/70 64/64/64
f 66/66/66 71/71/71 67/67/67
f 72/72/72 67/67/67 71/71/71
f 71/71/71 66/66/66 73/73/73
f 68/68/68 73/73/73 66/66/66
f 73/73/73 68/68/68 74/74/74
f 69/69/69 74/74/74 68/68/68
f 74/74/74 69/69/69 75/75/75
f 70/70/70 75/75/75 69/69/69
f 78/78/78 77/77/77 76/76/76
f 79/79/79 76/76/76 77/77/77
f 76/76/76 79/79/79 80/80/80
f 81/81/81 80/80/80 79/79/79
f 80/80/80 81/81/81 82/82/82
f 83/83/83 82/82/82 81/81/81
f 82/82/82 83/83/83 84/84/84
f 85/85/85 84/84/84 83/83/83
f 76/76/76 86/86/86 78/78/78
f 87/87/87 78/78/78 86/86/86
f 86/86/86 76/76/76 88/88/88
f 80/80/80 88/88/88 76/76/76
f 88/88/88 80/80/80 89/89/89
f 82/82/82 89/89/89 80/80/80
f 89/89/89 82/82/82 90/90/90
f 84/84/84 90/90/90 82/82/82
f 86/86/86 91/91/91 87/87/87
f 92/92/92 87/87/87 91/91/91
f 91/91/91 86/86/86 93/93/93
f 88/88/88 93/93/93 86/86/86
f 93/93/93 88/88/88 94/94/94
f 89/89/89 94/94/94 88/88/88
f 94/94/94 89/89/89 95/95/95
f 90/90/90 95/95/95 89/89/89
f 91/91/91 96/96/96 92/92/92
f 97/97/97 92/92/92 96/96/96
f 96/96/96 91/91/91 98/98/98
f 93/93/93 98/98/98 91/91/91
f 98/98/98 93/93/93 99/99/99
f 94/94/94 99/99/99 93/93/93
f 99/99/99 94/94/94 100/100/100
f 95/95/95 100/100/100 94/94/94
