g CH_Sign03
v -0.3542339 0.7520742 0.04359153
v 0.394694 0.7083144 0.04359152
v -0.3424424 0.7083144 0.04359152
v 0.4053281 0.795672 0.04359153
v -0.4053278 0.7959953 0.04359153
v -0.3944217 0.7687996 0.04359153
v 0.4053281 0.795672 0.04359153
v 0.394694 0.7083144 -0.04406641
v 0.394694 0.7083144 0.04359152
v 0.4053281 0.795672 -0.0440664
v 0.4053281 0.795672 -0.0440664
v -0.3424424 0.7083144 -0.04406641
v 0.394694 0.7083144 -0.04406641
v -0.3542339 0.7520742 -0.0440664
v -0.3944217 0.7687996 -0.0440664
v -0.4053278 0.7959953 -0.0440664
v -0.3542339 0.7520742 -0.0440664
v -0.3424424 0.7083144 0.04359152
v -0.3424424 0.7083144 -0.04406641
v -0.3542339 0.7520742 0.04359153
v -0.3944217 0.7687996 0.04359153
v -0.3944217 0.7687996 -0.0440664
v -0.3944217 0.7687996 -0.0440664
v -0.4053278 0.7959953 0.04359153
v -0.3944217 0.7687996 0.04359153
v -0.4053278 0.7959953 -0.0440664
v -0.4053278 0.7959953 -0.0440664
v 0.4053281 0.795672 0.04359153
v -0.4053278 0.7959953 0.04359153
v 0.4053281 0.795672 -0.0440664
v 0.3700615 0.7692875 -1.244297E-06
v -0.3289783 -3.82954E-06 0.3748148
v -0.3289783 0.7692875 -1.244297E-06
v 0.3700615 -3.829593E-06 0.3760274
v 0.3700615 0.5560658 -1.247086E-06
v 0.3700615 -3.829593E-06 0.3760274
v 0.3700615 0.7692875 -1.244297E-06
v 0.3700615 -3.824835E-06 0.2671855
v 0.3700615 -3.796746E-06 -0.3754219
v 0.3700615 -3.801531E-06 -0.2659708
v -0.3289783 0.5560658 -1.247086E-06
v 0.3700615 -3.824835E-06 0.2671855
v 0.3700615 0.5560658 -1.247086E-06
v -0.3289783 -3.824783E-06 0.265975
v -0.3289783 0.7692875 -1.244297E-06
v -0.3289783 -3.824783E-06 0.265975
v -0.3289783 0.5560658 -1.247086E-06
v -0.3289783 -3.82954E-06 0.3748148
v -0.3289783 -3.801477E-06 -0.2671868
v -0.3289783 -3.796746E-06 -0.3754219
v 0.3700615 0.7692875 -1.244297E-06
v -0.3289783 -3.796746E-06 -0.3754219
v 0.3700615 -3.796746E-06 -0.3754219
v -0.3289783 0.7692875 -1.244297E-06
v -0.3289783 0.5560658 -1.247086E-06
v 0.3700615 -3.801531E-06 -0.2659708
v -0.3289783 -3.801477E-06 -0.2671868
v 0.3700615 0.5560658 -1.247086E-06
vt 0.1081902 0.4665741
vt 0.1146261 0.5816754
vt 0.1149352 0.4684019
vt 0.1012228 0.5832791
vt 0.1014591 0.4587079
vt 0.1056344 0.4603934
vt 0.4386467 0.1565818
vt 0.4654874 0.1841149
vt 0.4654874 0.1565818
vt 0.4386467 0.1841149
vt 0.1012228 0.5832791
vt 0.1149352 0.4684019
vt 0.1146261 0.5816754
vt 0.1081902 0.4665741
vt 0.1056344 0.4603934
vt 0.1014591 0.4587079
vt 0.4517447 0.1562008
vt 0.4378878 0.1829114
vt 0.4378878 0.1562008
vt 0.4517447 0.1829114
vt 0.4650077 0.1829114
vt 0.4650077 0.1562014
vt 0.4400182 0.1645799
vt 0.4659016 0.1732321
vt 0.4659016 0.1645799
vt 0.4400182 0.1732321
vt 0.1188422 0.4970278
vt 0.1296001 0.5797742
vt 0.1297904 0.4970447
vt 0.1188422 0.5797573
vt 0.5970967 0.505906
vt 0.5301875 0.4208842
vt 0.5301877 0.505906
vt 0.5970967 0.420884
vt 0.008636437 0.3966901
vt 0.0277061 0.3356611
vt 0.01798507 0.4017987
vt 0.01115914 0.3348522
vt 0.0277061 0.3356611
vt 0.01115914 0.3348522
vt 0.001662526 0.5363917
vt 0.09336108 0.4507279
vt 0.09336108 0.5363917
vt 0.001662526 0.4507279
vt 0.01798507 0.4017987
vt 0.01115914 0.3348522
vt 0.008636437 0.3966901
vt 0.0277061 0.3356611
vt 0.01115914 0.3348522
vt 0.0277061 0.3356611
vt 0.5970967 0.505906
vt 0.5301875 0.4208842
vt 0.5970967 0.420884
vt 0.5301877 0.505906
vt 0.001662526 0.5363917
vt 0.09336108 0.4507279
vt 0.001662526 0.4507279
vt 0.09336108 0.5363917
vn 0 0 1
vn 0 0 1
vn 0 -1.089666E-07 1
vn 0 0 1
vn 0 0 1
vn 0 0 1
vn 0.9926722 -0.1208388 0
vn 0.9926722 -0.1208388 0
vn 0.9926722 -0.1208388 0
vn 0.9926722 -0.1208388 0
vn 0 0 -1
vn 0 1.039638E-07 -1
vn 0 0 -1
vn 0 0 -1
vn 0 0 -1
vn 0 0 -1
vn -0.7519287 -0.6592445 0
vn -0.9655609 -0.2601772 0
vn -0.9655608 -0.2601772 0
vn -0.7519287 -0.6592445 0
vn -0.7116836 -0.7025001 0
vn -0.7116836 -0.7025001 0
vn -0.7116836 -0.7025001 0
vn -0.928149 -0.3722087 0
vn -0.7116836 -0.7025001 0
vn -0.928149 -0.3722087 0
vn 0.0003988544 1 0
vn 0.0003988544 1 0
vn 0.0003988544 1 0
vn 0.0003988544 1 0
vn -0.0006795328 0.4384995 0.8987311
vn -0.0008791694 0.438646 0.8986595
vn 0 0.4380007 0.8989746
vn -0.001558372 0.4391442 0.8984152
vn 1 0 0
vn 1 0 0
vn 1 0 0
vn 1 0 0
vn 1 0 0
vn 1 0 0
vn 0.0008430365 -0.4322297 -0.9017631
vn 0.0007186928 -0.4323569 -0.9017023
vn 0 -0.4330911 -0.9013501
vn 0.00156213 -0.4314945 -0.9021142
vn -1 0 0
vn -1 0 0
vn -1 0 0
vn -1 0 0
vn -1 0 0
vn -1 0 0
vn 0 0.4385714 -0.8986964
vn 0 0.4385714 -0.8986964
vn 0 0.4385714 -0.8986964
vn 0 0.4385714 -0.8986964
vn -0.0008465939 -0.4323518 0.9017045
vn -0.0007217511 -0.4322242 0.9017658
vn -0.001567938 -0.433089 0.9013498
vn 0 -0.4314861 0.9021196
g CH_Sign03_0
f 3/3/3 2/2/2 1/1/1
f 4/4/4 1/1/1 2/2/2
f 4/4/4 5/5/5 1/1/1
f 6/6/6 1/1/1 5/5/5
f 9/9/9 8/8/8 7/7/7
f 10/10/10 7/7/7 8/8/8
f 13/13/13 12/12/12 11/11/11
f 14/14/14 11/11/11 12/12/12
f 14/14/14 15/15/15 11/11/11
f 16/16/16 11/11/11 15/15/15
f 19/19/19 18/18/18 17/17/17
f 20/20/20 17/17/17 18/18/18
f 20/20/20 21/21/21 17/17/17
f 22/22/22 17/17/17 21/21/21
f 25/25/25 24/24/24 23/23/23
f 26/26/26 23/23/23 24/24/24
f 29/29/29 28/28/28 27/27/27
f 30/30/30 27/27/27 28/28/28
f 33/33/33 32/32/32 31/31/31
f 34/34/34 31/31/31 32/32/32
f 37/37/37 36/36/36 35/35/35
f 38/38/38 35/35/35 36/36/36
f 37/37/37 35/35/35 39/39/39
f 40/40/40 39/39/39 35/35/35
f 43/43/43 42/42/42 41/41/41
f 44/44/44 41/41/41 42/42/42
f 47/47/47 46/46/46 45/45/45
f 48/48/48 45/45/45 46/46/46
f 47/47/47 45/45/45 49/49/49
f 50/50/50 49/49/49 45/45/45
f 53/53/53 52/52/52 51/51/51
f 54/54/54 51/51/51 52/52/52
f 57/57/57 56/56/56 55/55/55
f 58/58/58 55/55/55 56/56/56
