g CH_Tile_Center_Cloud_collider
v -1.548332 0.07281127 1.609936
v -1.548332 0.07281125 -1.605463
v 1.548957 0.07281125 -1.605463
v 1.548957 0.07281127 1.609936
v 2.055504 -0.07589933 2.135799
v 1.548957 0.07281127 1.609936
v 2.055504 -0.07589933 -2.131326
v -2.054878 -0.07589933 -2.131326
v -1.548332 0.07281127 1.609936
v -2.054878 -0.07589933 2.135799
v -2.054878 -0.07589933 2.135799
v -1.548332 0.07281127 1.609936
v 1.548957 0.07281127 1.609936
v 2.055504 -0.07589933 2.135799
v 2.055504 -0.07589933 -2.131326
v 1.548957 0.07281125 -1.605463
v -1.548332 0.07281125 -1.605463
v -2.054878 -0.07589933 -2.131326
vt 0 0
vt 0 1
vt 1 1
vt 1 0
vt 0 0
vt 0 1
vt 1 0
vt 0 0
vt 1 1
vt 1 0
vt 0 0
vt 0 1
vt 1 1
vt 1 0
vt 0 0
vt 0 1
vt 1 1
vt 1 0
vn -0.1081969 0.988787 0.1029258
vn -0.1081969 0.988787 -0.1029257
vn 0.1081969 0.988787 -0.1029257
vn 0.1081969 0.988787 0.1029258
vn 0.1404182 0.9798793 0.1418432
vn 0.1081969 0.988787 0.1029258
vn 0.1404182 0.9798793 -0.1418432
vn -0.1404182 0.9798793 -0.1418432
vn -0.1081969 0.988787 0.1029258
vn -0.1404183 0.9798793 0.1418432
vn -0.1404183 0.9798793 0.1418432
vn -0.1081969 0.988787 0.1029258
vn 0.1081969 0.988787 0.1029258
vn 0.1404182 0.9798793 0.1418432
vn 0.1404182 0.9798793 -0.1418432
vn 0.1081969 0.988787 -0.1029257
vn -0.1081969 0.988787 -0.1029257
vn -0.1404182 0.9798793 -0.1418432
g CH_Tile_Center_Cloud_collider_0
f 3/3/3 2/2/2 1/1/1
f 4/4/4 3/3/3 1/1/1
f 3/3/3 6/6/6 5/5/5
f 7/7/7 3/3/3 5/5/5
f 9/9/9 2/2/2 8/8/8
f 10/10/10 9/9/9 8/8/8
f 13/13/13 12/12/12 11/11/11
f 14/14/14 13/13/13 11/11/11
f 17/17/17 16/16/16 15/15/15
f 18/18/18 17/17/17 15/15/15
