g CH_Tile_Side_Coner
v -0.3960985 -0.05295496 0.3533843
v -0.3935092 0.07477602 -0.3493021
v -0.3962439 0.06337564 0.353199
v -0.3939192 -0.05295439 -0.3496679
v -0.2719104 0.09632577 -0.2711917
v 0.273608 0.09632545 0.2752094
v -0.2719104 0.09632536 0.275334
v 0.273608 0.09632561 -0.2713161
v 0.2903108 0.05862403 0.2893371
v -0.2719104 0.09632536 0.275334
v 0.273608 0.09632545 0.2752094
v -0.2886703 0.05853527 0.2900023
v -0.2886703 0.05853527 0.2900023
v -0.2719104 0.09632577 -0.2711917
v -0.2719104 0.09632536 0.275334
v -0.288615 0.05862406 -0.2853199
v -0.288615 0.05862406 -0.2853199
v 0.273608 0.09632561 -0.2713161
v -0.2719104 0.09632577 -0.2711917
v 0.2903661 0.05853594 -0.2859846
v -0.3935092 0.07477602 -0.3493021
v -0.3100706 0.07881842 0.3092044
v -0.3962439 0.06337564 0.353199
v -0.3100706 0.07881842 0.3092044
v -0.3935092 0.07477602 -0.3493021
v -0.3096706 0.08034135 -0.3049975
v -0.3574197 0.0748921 -0.3854157
v 0.3955396 0.06503982 -0.35837
v 0.3961824 -0.05295478 0.3483741
v 0.3962442 0.06353027 0.3481963
v 0.3943464 -0.05295455 -0.3583843
v 0.3527862 0.06566032 -0.3886714
v -0.3578565 -0.05295437 -0.3857683
v 0.3515396 -0.05295454 -0.3887046
v -0.3574197 0.0748921 -0.3854157
v 0.368781 -0.0529548 0.3888774
v -0.3348483 0.06286985 0.3860847
v 0.3687995 0.06345081 0.3886992
v -0.334677 -0.05295498 0.3862721
v 0.2903661 0.05853594 -0.2859846
v 0.273608 0.09632545 0.2752094
v 0.273608 0.09632561 -0.2713161
v 0.2903108 0.05862403 0.2893371
v 0.3153377 0.07867558 -0.3101357
v 0.2903108 0.05862403 0.2893371
v 0.2903661 0.05853594 -0.2859846
v 0.2903108 0.05862403 0.2893371
v 0.3153377 0.07867558 -0.3101357
v 0.3115042 0.07891424 0.3087353
v -0.3096706 0.08034135 -0.3049975
v 0.2903661 0.05853594 -0.2859846
v -0.288615 0.05862406 -0.2853199
v 0.2903661 0.05853594 -0.2859846
v -0.3096706 0.08034135 -0.3049975
v 0.3153377 0.07867558 -0.3101357
v -0.2886703 0.05853527 0.2900023
v 0.3115042 0.07891424 0.3087353
v -0.3100706 0.07881842 0.3092044
v 0.2903108 0.05862403 0.2893371
v -0.288615 0.05862406 -0.2853199
v -0.3100706 0.07881842 0.3092044
v -0.3096706 0.08034135 -0.3049975
v -0.2886703 0.05853527 0.2900023
v -0.3935092 0.07477602 -0.3493021
v -0.3578565 -0.05295437 -0.3857683
v -0.3574197 0.0748921 -0.3854157
v -0.3939192 -0.05295439 -0.3496679
v -0.3962439 0.06337564 0.353199
v -0.3100706 0.07881842 0.3092044
v -0.3348483 0.06286985 0.3860847
v -0.3960985 -0.05295496 0.3533843
v -0.3348483 0.06286985 0.3860847
v -0.334677 -0.05295498 0.3862721
v -0.3962439 0.06337564 0.353199
v 0.3962442 0.06353027 0.3481963
v 0.3687995 0.06345081 0.3886992
v 0.3115042 0.07891424 0.3087353
v 0.3962442 0.06353027 0.3481963
v 0.368781 -0.0529548 0.3888774
v 0.3687995 0.06345081 0.3886992
v 0.3961824 -0.05295478 0.3483741
v 0.3527862 0.06566032 -0.3886714
v -0.3096706 0.08034135 -0.3049975
v -0.3574197 0.0748921 -0.3854157
v -0.3096706 0.08034135 -0.3049975
v 0.3527862 0.06566032 -0.3886714
v 0.3153377 0.07867558 -0.3101357
v -0.3100706 0.07881842 0.3092044
v 0.3687995 0.06345081 0.3886992
v -0.3348483 0.06286985 0.3860847
v 0.3115042 0.07891424 0.3087353
v 0.3153377 0.07867558 -0.3101357
v 0.3962442 0.06353027 0.3481963
v 0.3115042 0.07891424 0.3087353
v 0.3955396 0.06503982 -0.35837
v 0.3955396 0.06503982 -0.35837
v 0.3153377 0.07867558 -0.3101357
v 0.3527862 0.06566032 -0.3886714
v 0.3943464 -0.05295455 -0.3583843
v 0.3527862 0.06566032 -0.3886714
v 0.3515396 -0.05295454 -0.3887046
v 0.3955396 0.06503982 -0.35837
vt 0.8053561 0.9295601
vt 0.8118061 0.9912305
vt 0.8118061 0.9295619
vt 0.8053561 0.9912325
vt 0.5953958 0.645287
vt 0.6434963 0.6933951
vt 0.6434994 0.6452715
vt 0.5953927 0.6934107
vt 0.6456742 0.6957474
vt 0.6434994 0.6452715
vt 0.6434963 0.6933951
vt 0.6457191 0.6428752
vt 0.6457191 0.6428752
vt 0.5953958 0.645287
vt 0.6434994 0.6452715
vt 0.5932314 0.6429362
vt 0.5932314 0.6429362
vt 0.5953927 0.6934107
vt 0.5953958 0.645287
vt 0.5931593 0.6958039
vt 0.5887129 0.6349249
vt 0.6470631 0.641312
vt 0.6500708 0.6345428
vt 0.6470631 0.641312
vt 0.5887129 0.6349249
vt 0.5917965 0.6413945
vt 0.5855187 0.6381957
vt 0.8118061 0.9293876
vt 0.8053561 0.9919953
vt 0.8118061 0.9919946
vt 0.8053561 0.9293869
vt 0.8118061 0.9907197
vt 0.8053561 0.9297739
vt 0.8053561 0.9907156
vt 0.8118061 0.9297705
vt 0.8053561 0.9290323
vt 0.8118061 0.9915872
vt 0.8118061 0.9290318
vt 0.8053561 0.9915866
vt 0.5931593 0.6958039
vt 0.6434963 0.6933951
vt 0.5953927 0.6934107
vt 0.6456742 0.6957474
vt 0.5913615 0.6976736
vt 0.6456742 0.6957474
vt 0.5931593 0.6958039
vt 0.6456742 0.6957474
vt 0.5913615 0.6976736
vt 0.6470783 0.6972686
vt 0.5917965 0.6413945
vt 0.5931593 0.6958039
vt 0.5932314 0.6429362
vt 0.5931593 0.6958039
vt 0.5917965 0.6413945
vt 0.5913615 0.6976736
vt 0.6457191 0.6428752
vt 0.6470783 0.6972686
vt 0.6470631 0.641312
vt 0.6456742 0.6957474
vt 0.5932314 0.6429362
vt 0.6470631 0.641312
vt 0.5917965 0.6413945
vt 0.6457191 0.6428752
vt 0.8117635 0.9260965
vt 0.8053561 0.9297739
vt 0.8118061 0.9297705
vt 0.8053192 0.9260998
vt 0.6500708 0.6345428
vt 0.6470631 0.641312
vt 0.6530582 0.6399628
vt 0.8053606 0.9949136
vt 0.8118061 0.9915872
vt 0.8053561 0.9915866
vt 0.8118384 0.9949117
vt 0.6496217 0.7038919
vt 0.6532979 0.7014344
vt 0.6470783 0.6972686
vt 0.8118113 0.9261453
vt 0.8053561 0.9290323
vt 0.8118061 0.9290318
vt 0.8053568 0.9261477
vt 0.5853995 0.6999844
vt 0.5917965 0.6413945
vt 0.5855187 0.6381957
vt 0.5917965 0.6413945
vt 0.5853995 0.6999844
vt 0.5913615 0.6976736
vt 0.6470631 0.641312
vt 0.6532979 0.7014344
vt 0.6530582 0.6399628
vt 0.6470783 0.6972686
vt 0.5913615 0.6976736
vt 0.6496217 0.7038919
vt 0.6470783 0.6972686
vt 0.5880499 0.7037092
vt 0.5880499 0.7037092
vt 0.5913615 0.6976736
vt 0.5853995 0.6999844
vt 0.8053679 0.9940545
vt 0.8118061 0.9907197
vt 0.8053561 0.9907156
vt 0.8117942 0.9940529
vn -0.9999955 -0.001105098 -0.002793063
vn -0.9999955 -0.001105098 -0.002793064
vn -0.9999955 -0.001105098 -0.002793064
vn -0.9999936 0.002831152 -0.00221244
vn -2.019139E-07 1 7.005019E-07
vn -2.019139E-07 1 7.005019E-07
vn -2.019139E-07 1 7.005019E-07
vn 3.028902E-07 1 3.407811E-07
vn 0.0002903457 0.4193355 0.9078313
vn 0.0002903457 0.4193355 0.9078313
vn 0.0002903457 0.4193356 0.9078313
vn 0.001377281 0.4310689 0.9023179
vn -0.9316266 0.3634169 2.545742E-07
vn -0.9316266 0.3634169 2.545742E-07
vn -0.9316266 0.3634169 2.545742E-07
vn -0.9317418 0.3631217 -1.833895E-05
vn -0.0002898133 0.4193439 -0.9078274
vn -0.0002898132 0.4193439 -0.9078274
vn -0.0002898133 0.4193439 -0.9078274
vn -0.00137689 0.4310786 -0.9023133
vn -0.1911061 0.9814912 0.01239416
vn -0.1911061 0.9814912 0.01239416
vn -0.1911061 0.9814912 0.01239416
vn -0.07670683 0.9970517 0.00197059
vn -0.07670683 0.9970517 0.00197059
vn -0.07670683 0.9970517 0.001970589
vn -0.0505591 0.9981604 -0.03345863
vn 0.9999996 -0.0004672265 -0.0007125164
vn 0.9999996 -0.0004672265 -0.0007125164
vn 0.9999996 -0.0004672265 -0.0007125164
vn 0.9999588 -0.008893473 -0.001854074
vn -0.005799011 0.0003983638 -0.9999832
vn -0.005799011 0.0003983639 -0.9999832
vn -0.005799011 0.0003983638 -0.9999832
vn -0.006371882 0.003417486 -0.9999739
vn -0.005207659 0.001887185 0.9999847
vn -0.00520766 0.001887186 0.9999847
vn -0.005207659 0.001887186 0.9999847
vn -0.005188916 0.001987339 0.9999846
vn 0.9316383 0.363387 1.238354E-07
vn 0.9316383 0.363387 1.238354E-07
vn 0.9316383 0.363387 1.238354E-07
vn 0.9317538 0.3630908 1.877179E-05
vn -0.6759284 0.7369673 -0.0001378114
vn -0.6759284 0.7369673 -0.0001378114
vn -0.6759283 0.7369674 -0.0001378114
vn -0.7343614 0.67875 -0.003459159
vn -0.7343614 0.67875 -0.00345916
vn -0.7343613 0.67875 -0.00345916
vn 0.001201347 0.7453836 0.6666347
vn 0.001201347 0.7453836 0.6666347
vn 0.001201347 0.7453837 0.6666347
vn 0.009007261 0.825068 0.5649617
vn 0.009007261 0.825068 0.5649617
vn 0.009007261 0.825068 0.5649616
vn -0.0008215622 0.7589283 -0.6511737
vn -0.0008215622 0.7589283 -0.6511738
vn -0.0008215623 0.7589283 -0.6511738
vn -0.001173708 0.7628458 -0.6465794
vn 0.7599803 0.649944 0.001661079
vn 0.7599803 0.649944 0.001661079
vn 0.7599803 0.649944 0.001661079
vn 0.7330741 0.6801488 0.0001354753
vn -0.8141216 0.004419616 -0.5806776
vn -0.8141216 0.004419616 -0.5806776
vn -0.8141216 0.004419617 -0.5806776
vn -0.8142194 0.004347553 -0.5805411
vn -0.09822926 0.9848092 0.1431842
vn -0.09822927 0.9848092 0.1431842
vn -0.09822927 0.9848092 0.1431842
vn -0.6000947 0.0008145717 0.7999285
vn -0.6000947 0.0008145717 0.7999285
vn -0.6000947 0.0008145717 0.7999285
vn -0.6002264 0.0009102307 0.7998297
vn 0.1537908 0.9851805 0.0759468
vn 0.1537908 0.9851805 0.07594681
vn 0.1537908 0.9851805 0.0759468
vn 0.9002422 0.0006954457 0.4353889
vn 0.9002422 0.0006954457 0.4353889
vn 0.9002422 0.0006954457 0.4353889
vn 0.900513 0.0003982725 0.4348288
vn 0.01435792 0.9980368 -0.06096335
vn 0.01435792 0.9980368 -0.06096335
vn 0.01435792 0.9980368 -0.06096334
vn 0.001473836 0.9911433 -0.1327877
vn 0.001473836 0.9911433 -0.1327877
vn 0.001473836 0.9911433 -0.1327877
vn -0.001787847 0.9861912 0.1656016
vn -0.001787848 0.9861912 0.1656016
vn -0.001787847 0.9861912 0.1656016
vn -9.230619E-06 0.9879098 0.15503
vn 0.2017725 0.9794322 0.0005856898
vn 0.2017724 0.9794322 0.0005856898
vn 0.2017725 0.9794322 0.0005856898
vn 0.1910548 0.9815781 0.001565863
vn 0.1109351 0.9892498 -0.09527915
vn 0.1109351 0.9892498 -0.09527916
vn 0.1109351 0.9892498 -0.09527915
vn 0.7043815 -0.006266668 -0.7097939
vn 0.7043815 -0.006266668 -0.7097939
vn 0.7043815 -0.006266668 -0.7097939
vn 0.7045521 -0.006161082 -0.7096254
g CH_Tile_Side_Coner_0
f 3/3/3 2/2/2 1/1/1
f 4/4/4 1/1/1 2/2/2
f 7/7/7 6/6/6 5/5/5
f 8/8/8 5/5/5 6/6/6
f 11/11/11 10/10/10 9/9/9
f 12/12/12 9/9/9 10/10/10
f 15/15/15 14/14/14 13/13/13
f 16/16/16 13/13/13 14/14/14
f 19/19/19 18/18/18 17/17/17
f 20/20/20 17/17/17 18/18/18
f 23/23/23 22/22/22 21/21/21
f 26/26/26 25/25/25 24/24/24
f 26/26/26 27/27/27 25/25/25
f 30/30/30 29/29/29 28/28/28
f 31/31/31 28/28/28 29/29/29
f 34/34/34 33/33/33 32/32/32
f 35/35/35 32/32/32 33/33/33
f 38/38/38 37/37/37 36/36/36
f 39/39/39 36/36/36 37/37/37
f 42/42/42 41/41/41 40/40/40
f 43/43/43 40/40/40 41/41/41
f 46/46/46 45/45/45 44/44/44
f 49/49/49 48/48/48 47/47/47
f 52/52/52 51/51/51 50/50/50
f 55/55/55 54/54/54 53/53/53
f 58/58/58 57/57/57 56/56/56
f 59/59/59 56/56/56 57/57/57
f 62/62/62 61/61/61 60/60/60
f 63/63/63 60/60/60 61/61/61
f 66/66/66 65/65/65 64/64/64
f 67/67/67 64/64/64 65/65/65
f 70/70/70 69/69/69 68/68/68
f 73/73/73 72/72/72 71/71/71
f 74/74/74 71/71/71 72/72/72
f 77/77/77 76/76/76 75/75/75
f 80/80/80 79/79/79 78/78/78
f 81/81/81 78/78/78 79/79/79
f 84/84/84 83/83/83 82/82/82
f 87/87/87 86/86/86 85/85/85
f 90/90/90 89/89/89 88/88/88
f 91/91/91 88/88/88 89/89/89
f 94/94/94 93/93/93 92/92/92
f 95/95/95 92/92/92 93/93/93
f 98/98/98 97/97/97 96/96/96
f 101/101/101 100/100/100 99/99/99
f 102/102/102 99/99/99 100/100/100
