g CH_Tile_BigSquare_collider
v -3.513242 0.1505907 3.409366
v -3.513242 0.1505905 -3.400798
v 3.547374 0.1505905 -3.400798
v 3.547374 0.1505907 3.409366
v 4.243793 1.080265E-07 4.127291
v 3.547374 0.1505907 3.409366
v 4.243793 -1.089344E-07 -4.118724
v -4.209659 -1.089344E-07 -4.118724
v -3.513242 0.1505907 3.409366
v -4.209659 1.104107E-07 4.127291
v -4.209659 1.104107E-07 4.127291
v -3.513242 0.1505907 3.409366
v 3.547374 0.1505907 3.409366
v 4.243793 1.080265E-07 4.127291
v 4.243793 -1.089344E-07 -4.118724
v 3.547374 0.1505905 -3.400798
v -3.513242 0.1505905 -3.400798
v -4.209659 -1.089344E-07 -4.118724
vt 0 0
vt 0 1
vt 1 1
vt 1 0
vt 0 0
vt 0 1
vt 1 0
vt 0 0
vt 1 1
vt 1 0
vt 0 0
vt 0 1
vt 1 1
vt 1 0
vt 0 0
vt 0 1
vt 1 1
vt 1 0
vn -0.0804917 0.9937614 0.07719799
vn -0.08049172 0.9937614 -0.07719789
vn 0.0804916 0.9937614 -0.07719791
vn 0.08049158 0.9937614 0.07719802
vn 0.1048461 0.9888537 0.1057149
vn 0.08049158 0.9937614 0.07719802
vn 0.104846 0.9888537 -0.1057149
vn -0.104846 0.9888537 -0.1057149
vn -0.0804917 0.9937614 0.07719799
vn -0.1048461 0.9888537 0.1057149
vn -0.1048461 0.9888537 0.1057149
vn -0.0804917 0.9937614 0.07719799
vn 0.08049158 0.9937614 0.07719802
vn 0.1048461 0.9888537 0.1057149
vn 0.104846 0.9888537 -0.1057149
vn 0.0804916 0.9937614 -0.07719791
vn -0.08049172 0.9937614 -0.07719789
vn -0.104846 0.9888537 -0.1057149
g CH_Tile_BigSquare_collider_0
f 3/3/3 2/2/2 1/1/1
f 4/4/4 3/3/3 1/1/1
f 3/3/3 6/6/6 5/5/5
f 7/7/7 3/3/3 5/5/5
f 9/9/9 2/2/2 8/8/8
f 10/10/10 9/9/9 8/8/8
f 13/13/13 12/12/12 11/11/11
f 14/14/14 13/13/13 11/11/11
f 17/17/17 16/16/16 15/15/15
f 18/18/18 17/17/17 15/15/15
