g CH_Tile_Center_Cloud
v -1.552472 0.02673669 -1.507268
v -1.428568 -0.07481987 -1.608347
v -1.434941 0.02678934 -1.608929
v -1.552566 -0.07481988 -1.506611
v 1.25791 0.06356531 1.287448
v 1.517968 0.0718548 1.470775
v 1.449987 0.07177629 1.576342
v -1.250986 0.06356531 1.287448
v -1.423723 0.06344156 1.570256
v -1.51574 0.06315106 1.509253
v -1.519406 0.06314549 -1.481139
v -1.250623 0.0635661 -1.266619
v -1.417 0.06314497 -1.572024
v 1.391202 0.06314779 -1.565838
v 1.258274 0.0635661 -1.26662
v 1.51358 0.0633648 -1.495981
v -1.109961 0.08906168 1.123743
v 1.117249 0.08906239 -1.102916
v 1.117758 0.08906162 1.123742
v -1.11047 0.0890623 -1.102915
v -1.11047 0.0890623 -1.102915
v -1.171195 -0.001050594 1.192343
v -1.17833 -0.001049866 -1.171514
v -1.109961 0.08906168 1.123743
v 1.117249 0.08906239 -1.102916
v -1.17833 -0.001049866 -1.171514
v 1.178483 -0.001049866 -1.171515
v -1.11047 0.0890623 -1.102915
v 1.117758 0.08906162 1.123742
v 1.178483 -0.001049866 -1.171515
v 1.185617 -0.001050594 1.192342
v 1.117249 0.08906239 -1.102916
v -1.17833 -0.001049866 -1.171514
v 1.258274 0.0635661 -1.26662
v 1.178483 -0.001049866 -1.171515
v -1.250623 0.0635661 -1.266619
v -1.250986 0.06356531 1.287448
v -1.17833 -0.001049866 -1.171514
v -1.171195 -0.001050594 1.192343
v -1.17833 -0.001049866 -1.171514
v -1.250986 0.06356531 1.287448
v -1.250623 0.0635661 -1.266619
v 1.178483 -0.001049866 -1.171515
v 1.25791 0.06356531 1.287448
v 1.185617 -0.001050594 1.192342
v 1.25791 0.06356531 1.287448
v 1.178483 -0.001049866 -1.171515
v 1.258274 0.0635661 -1.26662
v 1.477925 -0.07482085 1.61113
v 1.552513 0.03659777 1.495013
v 1.552566 -0.07482086 1.494704
v 1.474498 0.03643136 1.611426
v 1.408471 -0.07481962 -1.604427
v 1.545053 0.02701783 -1.522358
v 1.40839 0.02673612 -1.604452
v 1.545146 -0.07481966 -1.517123
v -1.552472 0.02673669 -1.507268
v -1.548955 -0.0748206 1.536777
v -1.552566 -0.07481988 -1.506611
v -1.548352 0.02674325 1.536495
v -1.109961 0.08906168 1.123743
v 1.185617 -0.001050594 1.192342
v -1.171195 -0.001050594 1.192343
v 1.117758 0.08906162 1.123742
v 1.185617 -0.001050594 1.192342
v -1.250986 0.06356531 1.287448
v -1.171195 -0.001050594 1.192343
v 1.25791 0.06356531 1.287448
v -1.452542 0.0275405 1.606412
v 1.477925 -0.07482085 1.61113
v -1.471911 -0.0748206 1.606664
v 1.474498 0.03643136 1.611426
v -1.548352 0.02674325 1.536495
v -1.471911 -0.0748206 1.606664
v -1.548955 -0.0748206 1.536777
v -1.471911 -0.0748206 1.606664
v -1.548352 0.02674325 1.536495
v -1.452542 0.0275405 1.606412
v -1.434941 0.02678934 -1.608929
v 1.408471 -0.07481962 -1.604427
v 1.40839 0.02673612 -1.604452
v -1.428568 -0.07481987 -1.608347
v 1.552513 0.03659777 1.495013
v 1.545146 -0.07481966 -1.517123
v 1.552566 -0.07482086 1.494704
v 1.545053 0.02701783 -1.522358
v -1.552472 0.02673669 -1.507268
v -1.417 0.06314497 -1.572024
v -1.519406 0.06314549 -1.481139
v -1.434941 0.02678934 -1.608929
v 1.552513 0.03659777 1.495013
v 1.449987 0.07177629 1.576342
v 1.517968 0.0718548 1.470775
v 1.474498 0.03643136 1.611426
v 1.40839 0.02673612 -1.604452
v 1.51358 0.0633648 -1.495981
v 1.391202 0.06314779 -1.565838
v 1.545053 0.02701783 -1.522358
v -1.519406 0.06314549 -1.481139
v -1.548352 0.02674325 1.536495
v -1.552472 0.02673669 -1.507268
v -1.51574 0.06315106 1.509253
v 1.474498 0.03643136 1.611426
v -1.423723 0.06344156 1.570256
v 1.449987 0.07177629 1.576342
v -1.452542 0.0275405 1.606412
v -1.452542 0.0275405 1.606412
v -1.51574 0.06315106 1.509253
v -1.423723 0.06344156 1.570256
v -1.51574 0.06315106 1.509253
v -1.452542 0.0275405 1.606412
v -1.548352 0.02674325 1.536495
v -1.434941 0.02678934 -1.608929
v 1.391202 0.06314779 -1.565838
v -1.417 0.06314497 -1.572024
v 1.40839 0.02673612 -1.604452
v 1.545053 0.02701783 -1.522358
v 1.517968 0.0718548 1.470775
v 1.51358 0.0633648 -1.495981
v 1.517968 0.0718548 1.470775
v 1.545053 0.02701783 -1.522358
v 1.552513 0.03659777 1.495013
vt 0.8015897 0.8384559
vt 0.7987401 0.8328251
vt 0.7968519 0.8384588
vt 0.8015897 0.8328251
vt 0.6695277 0.9806527
vt 0.6576854 0.9937325
vt 0.659905 0.9938619
vt 0.7862772 0.9806527
vt 0.7944168 0.9938626
vt 0.7986938 0.9939258
vt 0.7986879 0.8476179
vt 0.7862772 0.861815
vt 0.7939233 0.847604
vt 0.6576467 0.8477782
vt 0.6695277 0.8617175
vt 0.657584 0.8510278
vt 0.7796912 0.973407
vt 0.6756823 0.8693735
vt 0.6756823 0.973407
vt 0.7796912 0.8694603
vt 0.7796912 0.8694603
vt 0.7830316 0.9759506
vt 0.7830316 0.8659641
vt 0.7796912 0.973407
vt 0.6756823 0.8693735
vt 0.7830316 0.8659641
vt 0.6733593 0.8658726
vt 0.7796912 0.8694603
vt 0.6756823 0.973407
vt 0.6733593 0.8658726
vt 0.6733593 0.9759506
vt 0.6756823 0.8693735
vt 0.7830316 0.8659641
vt 0.6695277 0.8617175
vt 0.6733593 0.8658726
vt 0.7862772 0.861815
vt 0.7862772 0.9806527
vt 0.7830316 0.8659641
vt 0.7830316 0.9759506
vt 0.7830316 0.8659641
vt 0.7862772 0.9806527
vt 0.7862772 0.861815
vt 0.6733593 0.8658726
vt 0.6695277 0.9806527
vt 0.6733593 0.9759506
vt 0.6695277 0.9806527
vt 0.6733593 0.8658726
vt 0.6695277 0.8617175
vt 0.7991551 0.8328251
vt 0.8015897 0.8363047
vt 0.8015897 0.8328251
vt 0.7989963 0.8363453
vt 0.8015897 0.8328251
vt 0.7978728 0.838405
vt 0.8015897 0.8384559
vt 0.7976364 0.8328251
vt 0.6560965 0.8384559
vt 0.8015897 0.8328251
vt 0.6560965 0.8328251
vt 0.8015897 0.838456
vt 0.7796912 0.973407
vt 0.6733593 0.9759506
vt 0.7830316 0.9759506
vt 0.6756823 0.973407
vt 0.6733593 0.9759506
vt 0.7862772 0.9806527
vt 0.7830316 0.9759506
vt 0.6695277 0.9806527
vt 0.6605918 0.8384127
vt 0.7991551 0.8328251
vt 0.6597106 0.8328251
vt 0.7989963 0.8363453
vt 0.6560965 0.838456
vt 0.6597106 0.8328251
vt 0.6560965 0.8328251
vt 0.6597106 0.8328251
vt 0.6560965 0.838456
vt 0.6605918 0.8384127
vt 0.7968519 0.8384588
vt 0.6560965 0.8328251
vt 0.6560965 0.8384559
vt 0.7987401 0.8328251
vt 0.6560965 0.8362795
vt 0.7976364 0.8328251
vt 0.6560965 0.8328251
vt 0.7978728 0.838405
vt 0.8019365 0.8490964
vt 0.7939233 0.847604
vt 0.7986879 0.8476179
vt 0.7972144 0.8471385
vt 0.6631542 0.9911641
vt 0.659905 0.9938619
vt 0.6576854 0.9937325
vt 0.6649552 0.9898411
vt 0.6752492 0.8471035
vt 0.657584 0.8510278
vt 0.6576467 0.8477782
vt 0.6731368 0.8438194
vt 0.657354 0.8414236
vt 0.8015897 0.838456
vt 0.6560965 0.8384559
vt 0.8002921 0.8414043
vt 0.6588701 0.9959635
vt 0.7944168 0.9938626
vt 0.659905 0.9938619
vt 0.7957411 0.9959987
vt 0.8022941 0.9905648
vt 0.7986938 0.9939258
vt 0.7944168 0.9938626
vt 0.7986938 0.9939258
vt 0.8022941 0.9905648
vt 0.8053454 0.9882221
vt 0.7947788 0.8454478
vt 0.6576467 0.8477782
vt 0.7939233 0.847604
vt 0.6578109 0.8455365
vt 0.6556138 0.8498005
vt 0.6576854 0.9937325
vt 0.657584 0.8510278
vt 0.6576854 0.9937325
vt 0.6556138 0.8498005
vt 0.6555671 0.9941978
vn -0.6536925 -0.03899205 -0.755755
vn -0.6536925 -0.03899206 -0.755755
vn -0.6536925 -0.03899206 -0.755755
vn -0.6342933 -0.003794255 -0.7730832
vn -0.01744349 0.9996891 -0.01781845
vn -0.02917796 0.9995121 -0.01114522
vn -0.01418161 0.9996536 -0.02217119
vn -0.002510613 0.9999957 -0.001493467
vn -0.003058777 0.9999944 -0.001359659
vn -0.002433181 0.9999968 -0.00073337
vn -0.001292212 0.9999989 -0.0006600838
vn -0.0009461055 0.9999993 -0.0007965838
vn -0.0005306075 0.999999 -0.001313871
vn -0.0005063546 0.9999982 -0.001849167
vn 0.0003673239 0.9999996 -0.0008666202
vn -0.001759751 0.9999976 -0.001357881
vn 0 1 3.134182E-07
vn 0 1 3.134415E-07
vn 0 1 3.519679E-07
vn 0 1 2.748919E-07
vn -0.8400256 0.5425408 0.002535681
vn -0.8400256 0.5425408 0.002535681
vn -0.8400256 0.5425409 0.002535681
vn -0.8632529 0.5047717 0.0001974856
vn -1.083244E-07 0.5478631 -0.836568
vn -1.083244E-07 0.5478631 -0.836568
vn -1.083244E-07 0.5478631 -0.836568
vn -2.526568E-07 0.5478653 -0.8365666
vn 0.8400266 0.5425392 -0.002535125
vn 0.8400267 0.5425391 -0.002535125
vn 0.8400267 0.5425391 -0.002535126
vn 0.8632518 0.5047736 -0.0001971689
vn 0 0.7847701 0.6197869
vn 0 0.7847701 0.6197869
vn 0 0.7847702 0.6197869
vn 1.507788E-07 0.7847693 0.6197879
vn 0.6841246 0.7293622 -0.002064714
vn 0.6841246 0.7293622 -0.002064714
vn 0.6841247 0.7293622 -0.002064714
vn 0.7204309 0.6935267 0.0001026527
vn 0.720431 0.6935267 0.0001026527
vn 0.720431 0.6935267 0.0001026527
vn -0.721871 0.6920242 0.002178907
vn -0.721871 0.6920243 0.002178907
vn -0.721871 0.6920243 0.002178907
vn -0.6854936 0.7280785 -9.740655E-05
vn -0.6854936 0.7280785 -9.740656E-05
vn -0.6854936 0.7280786 -9.740656E-05
vn 0.8418495 -0.0009418147 0.5397115
vn 0.8418495 -0.0009418145 0.5397115
vn 0.8418495 -0.0009418146 0.5397115
vn 0.8305155 0.02073499 0.5566093
vn 0.5149378 0.0001761537 -0.8572275
vn 0.5149378 0.0001761537 -0.8572275
vn 0.5149378 0.0001761537 -0.8572275
vn 0.5379547 -0.03681968 -0.8421693
vn -0.999999 0.0008079849 0.001186452
vn -0.999999 0.0008079848 0.001186452
vn -0.999999 0.000807985 0.001186452
vn -0.9999861 0.005110967 0.001353313
vn 1.624859E-07 0.5478687 0.8365644
vn 1.624859E-07 0.5478686 0.8365644
vn 1.624859E-07 0.5478686 0.8365644
vn 1.333644E-07 0.5478681 0.8365647
vn -1.203809E-07 0.7847715 -0.6197851
vn -1.203809E-07 0.7847714 -0.6197852
vn -1.203809E-07 0.7847714 -0.6197852
vn -1.130837E-07 0.7847716 -0.6197851
vn -0.001513905 0.002365958 0.9999961
vn -0.001513905 0.002365958 0.9999961
vn -0.001513905 0.002365957 0.9999961
vn -0.001704901 -0.002338 0.9999958
vn -0.6718557 0.00520343 0.7406638
vn -0.6718557 0.00520343 0.7406638
vn -0.6718557 0.005203429 0.7406638
vn -0.587294 0.09730386 0.8035035
vn -0.587294 0.09730386 0.8035035
vn -0.587294 0.09730387 0.8035035
vn 0.001574637 -0.0002080417 -0.9999988
vn 0.001574637 -0.0002080417 -0.9999988
vn 0.001574637 -0.0002080417 -0.9999988
vn 0.001381753 -0.004851068 -0.9999874
vn 0.9999969 0.0004205983 -0.002463727
vn 0.9999969 0.0004205983 -0.002463727
vn 0.9999969 0.0004205984 -0.002463727
vn 0.9999968 0.0006768407 -0.002474744
vn -0.4739971 0.7000541 -0.5340887
vn -0.4739971 0.7000542 -0.5340888
vn -0.4739972 0.7000542 -0.5340888
vn -0.4773214 0.6841804 -0.5514176
vn 0.585697 0.7171062 0.3777799
vn 0.585697 0.7171063 0.3777799
vn 0.585697 0.7171063 0.3777799
vn 0.5953068 0.6967961 0.4001062
vn 0.350536 0.704904 -0.6166319
vn 0.350536 0.704904 -0.6166318
vn 0.350536 0.704904 -0.6166319
vn 0.3781177 0.676316 -0.6321579
vn -0.78833 0.6152516 0.001065313
vn -0.78833 0.6152516 0.001065313
vn -0.78833 0.6152516 0.001065313
vn -0.7918015 0.6107779 0.0009692796
vn -0.003797844 0.6480614 0.7615786
vn -0.003797843 0.6480614 0.7615786
vn -0.003797843 0.6480614 0.7615786
vn -0.003609704 0.6562229 0.7545585
vn -0.3728363 0.7411566 0.558283
vn -0.3728363 0.7411567 0.558283
vn -0.3728363 0.7411567 0.558283
vn -0.4262427 0.6984816 0.5748397
vn -0.4262427 0.6984815 0.5748397
vn -0.4262427 0.6984815 0.5748397
vn 0.001659315 0.6573673 -0.7535685
vn 0.001659315 0.6573673 -0.7535685
vn 0.001659315 0.6573673 -0.7535685
vn 0.001177573 0.6742343 -0.7385166
vn 0.8010034 0.5986513 -0.003176044
vn 0.8010034 0.5986514 -0.003176044
vn 0.8010034 0.5986513 -0.003176044
vn 0.7658501 0.643005 -0.004266479
vn 0.7658501 0.643005 -0.004266479
vn 0.7658501 0.643005 -0.004266479
g CH_Tile_Center_Cloud_0
f 3/3/3 2/2/2 1/1/1
f 4/4/4 1/1/1 2/2/2
f 7/7/7 6/6/6 5/5/5
f 5/5/5 8/8/8 7/7/7
f 9/9/9 7/7/7 8/8/8
f 10/10/10 9/9/9 8/8/8
f 10/10/10 8/8/8 11/11/11
f 12/12/12 11/11/11 8/8/8
f 13/13/13 11/11/11 12/12/12
f 13/13/13 12/12/12 14/14/14
f 15/15/15 14/14/14 12/12/12
f 14/14/14 15/15/15 16/16/16
f 6/6/6 16/16/16 5/5/5
f 15/15/15 5/5/5 16/16/16
f 19/19/19 18/18/18 17/17/17
f 20/20/20 17/17/17 18/18/18
f 23/23/23 22/22/22 21/21/21
f 24/24/24 21/21/21 22/22/22
f 27/27/27 26/26/26 25/25/25
f 28/28/28 25/25/25 26/26/26
f 31/31/31 30/30/30 29/29/29
f 32/32/32 29/29/29 30/30/30
f 35/35/35 34/34/34 33/33/33
f 36/36/36 33/33/33 34/34/34
f 39/39/39 38/38/38 37/37/37
f 42/42/42 41/41/41 40/40/40
f 45/45/45 44/44/44 43/43/43
f 48/48/48 47/47/47 46/46/46
f 51/51/51 50/50/50 49/49/49
f 52/52/52 49/49/49 50/50/50
f 55/55/55 54/54/54 53/53/53
f 56/56/56 53/53/53 54/54/54
f 59/59/59 58/58/58 57/57/57
f 60/60/60 57/57/57 58/58/58
f 63/63/63 62/62/62 61/61/61
f 64/64/64 61/61/61 62/62/62
f 67/67/67 66/66/66 65/65/65
f 68/68/68 65/65/65 66/66/66
f 71/71/71 70/70/70 69/69/69
f 72/72/72 69/69/69 70/70/70
f 75/75/75 74/74/74 73/73/73
f 78/78/78 77/77/77 76/76/76
f 81/81/81 80/80/80 79/79/79
f 82/82/82 79/79/79 80/80/80
f 85/85/85 84/84/84 83/83/83
f 86/86/86 83/83/83 84/84/84
f 89/89/89 88/88/88 87/87/87
f 90/90/90 87/87/87 88/88/88
f 93/93/93 92/92/92 91/91/91
f 94/94/94 91/91/91 92/92/92
f 97/97/97 96/96/96 95/95/95
f 98/98/98 95/95/95 96/96/96
f 101/101/101 100/100/100 99/99/99
f 102/102/102 99/99/99 100/100/100
f 105/105/105 104/104/104 103/103/103
f 106/106/106 103/103/103 104/104/104
f 109/109/109 108/108/108 107/107/107
f 112/112/112 111/111/111 110/110/110
f 115/115/115 114/114/114 113/113/113
f 116/116/116 113/113/113 114/114/114
f 119/119/119 118/118/118 117/117/117
f 122/122/122 121/121/121 120/120/120
