g RockFlagment01
v -0.1332429 -0.1246329 -0.02730066
v -0.1162446 -0.2422519 0.1305936
v 0.1003786 -0.08885907 -0.05130235
v -0.1102947 -0.02412376 -0.2015283
v 0.1539613 -0.04867202 0.1513537
v 0.08520396 -0.1180384 0.2225967
v 0.2017656 0.1730012 -0.1364358
v 0.01935248 0.1318488 -0.2444227
v 0.2765732 0.1318488 0.06190626
v -0.1347935 -0.07980601 -0.02270273
v -0.1927603 0.05199146 -0.1100217
v -0.06930359 0.01715562 0.0911778
v -0.11726 -0.2100997 0.1343101
v 0.06447347 0.05615063 0.1898548
v 0.05853822 -0.08294266 0.2124174
v -0.1709444 0.09984043 -0.1057708
v -0.05390541 0.2069151 -0.1221958
v 0.08124843 0.2836037 -0.03523892
v -0.01435918 0.161689 0.04048777
v 0.1518955 0.2172329 0.1068512
v 0.1518955 0.2172329 0.1068512
v 0.09553979 0.2083755 0.09876712
v -0.1332429 -0.1246329 -0.02730066
v -0.1347935 -0.07980601 -0.02270273
v -0.11726 -0.2100997 0.1343101
v -0.1162446 -0.2422519 0.1305936
v 0.05853822 -0.08294266 0.2124174
v 0.08520396 -0.1180384 0.2225967
v 0.08520396 -0.1180384 0.2225967
v 0.05853822 -0.08294266 0.2124174
v 0.06447347 0.05615063 0.1898548
v 0.1539613 -0.04867202 0.1513537
v 0.2027703 0.1929913 0.09649945
v 0.2765732 0.1318488 0.06190626
v 0.2765732 0.1318488 0.06190626
v 0.2027703 0.1929913 0.09649945
v 0.1195581 0.2637684 -0.06740708
v 0.2017656 0.1730012 -0.1364358
v -0.02589855 0.1960995 -0.18066
v 0.01935248 0.1318488 -0.2444227
v 0.01935248 0.1318488 -0.2444227
v -0.02589855 0.1960995 -0.18066
v -0.1927603 0.05199146 -0.1100217
v -0.1102947 -0.02412376 -0.2015283
v -0.1347935 -0.07980601 -0.02270273
v -0.1332429 -0.1246329 -0.02730066
v -0.1927603 0.05199146 -0.1100217
v -0.1709444 0.09984043 -0.1057708
v -0.01435918 0.161689 0.04048777
v -0.06930359 0.01715562 0.0911778
v -0.01435918 0.161689 0.04048777
v 0.09553979 0.2083755 0.09876712
v 0.06447347 0.05615063 0.1898548
v 0.06447347 0.05615063 0.1898548
v 0.09553979 0.2083755 0.09876712
v 0.1518955 0.2172329 0.1068512
v 0.2027703 0.1929913 0.09649945
v 0.2027703 0.1929913 0.09649945
v 0.1518955 0.2172329 0.1068512
v 0.08124843 0.2836037 -0.03523892
v 0.1195581 0.2637684 -0.06740708
v 0.1195581 0.2637684 -0.06740708
v 0.08124843 0.2836037 -0.03523892
v -0.05390541 0.2069151 -0.1221958
v -0.02589855 0.1960995 -0.18066
v -0.02589855 0.1960995 -0.18066
v -0.05390541 0.2069151 -0.1221958
v -0.1709444 0.09984043 -0.1057708
v -0.1927603 0.05199146 -0.1100217
v -0.1927603 0.05199146 -0.1100217
v -0.01435918 0.161689 0.04048777
v -0.06930359 0.01715562 0.0911778
vt 0.5965 0.5184541
vt 0.7825223 0.5417839
vt 0.6101058 0.3089677
vt 0.4173819 0.4499407
vt 0.7777315 0.2223068
vt 0.8552676 0.3121688
vt 0.4528486 0.09822321
vt 0.3410924 0.2688874
vt 0.6475365 0.04044229
vt 0.78641 0.212828
vt 0.6413173 0.1371482
vt 0.7022693 0.3506675
vt 0.9178131 0.367074
vt 0.6317245 0.4883246
vt 0.7538424 0.5288798
vt 0.6341853 0.1556958
vt 0.4986934 0.1976056
vt 0.409518 0.3257228
vt 0.5541207 0.3409749
vt 0.4523206 0.4706853
vt 0.4523206 0.4706853
vt 0.4808948 0.4313164
vt 0.8279166 0.1994739
vt 0.78641 0.212828
vt 0.9178131 0.367074
vt 0.9422346 0.3682287
vt 0.7538424 0.5288798
vt 0.7768992 0.5641566
vt 0.7768992 0.5641566
vt 0.7538424 0.5288798
vt 0.6317245 0.4883246
vt 0.6443924 0.6162359
vt 0.4296236 0.5003458
vt 0.3778909 0.5591637
vt 0.3778909 0.5591637
vt 0.4296236 0.5003458
vt 0.3866313 0.3238412
vt 0.2749889 0.3144732
vt 0.4611948 0.1610693
vt 0.4158675 0.09051105
vt 0.4158675 0.09051105
vt 0.4611948 0.1610693
vt 0.6413173 0.1371482
vt 0.6657143 0.03148133
vt 0.78641 0.212828
vt 0.8279166 0.1994739
vt 0.6413173 0.1371482
vt 0.6341853 0.1556958
vt 0.5541207 0.3409749
vt 0.7022693 0.3506675
vt 0.5541207 0.3409749
vt 0.4808948 0.4313164
vt 0.6317245 0.4883246
vt 0.6317245 0.4883246
vt 0.4808948 0.4313164
vt 0.4523206 0.4706853
vt 0.4296236 0.5003458
vt 0.4296236 0.5003458
vt 0.4523206 0.4706853
vt 0.409518 0.3257228
vt 0.3866313 0.3238412
vt 0.3866313 0.3238412
vt 0.409518 0.3257228
vt 0.4986934 0.1976056
vt 0.4611948 0.1610693
vt 0.4611948 0.1610693
vt 0.4986934 0.1976056
vt 0.6341853 0.1556958
vt 0.6413173 0.1371482
vt 0.6413173 0.1371482
vt 0.5541207 0.3409749
vt 0.7022693 0.3506675
vn 0.07159065 -0.8342912 -0.5466562
vn 0.3730989 -0.8780771 -0.2996292
vn 0.5335431 -0.7166504 -0.4491591
vn 0.3059389 -0.6591194 -0.6869957
vn 0.7020823 -0.6963041 -0.1491341
vn 0.5842712 -0.8097668 -0.05389692
vn 0.668617 -0.5236847 -0.5279258
vn 0.4603769 -0.4828161 -0.7449442
vn 0.8152568 -0.5163056 -0.262269
vn -0.9023005 0.1247708 0.4126573
vn -0.9023005 0.1247708 0.4126573
vn -0.7581387 0.1824191 0.6260584
vn -0.7461849 0.1859466 0.6392434
vn -0.5715829 0.2255569 0.7889341
vn -0.5715829 0.2255569 0.7889341
vn -0.6137968 0.7093993 0.346419
vn -0.6137968 0.7093993 0.346419
vn -0.5272412 0.7407895 0.4162303
vn -0.5563809 0.7315944 0.3939671
vn -0.4434071 0.7605721 0.4742576
vn -0.4434071 0.7605721 0.4742576
vn -0.4434071 0.7605721 0.4742575
vn -0.9961998 -0.04147874 0.07658616
vn -0.9961998 -0.04147874 0.07658615
vn -0.8040106 -0.06266736 0.5913033
vn -0.8057461 -0.06260216 0.5889432
vn -0.3738899 -0.0649887 0.9251934
vn -0.3738899 -0.0649887 0.9251934
vn 0.4697743 0.2167636 0.8557603
vn 0.4697743 0.2167636 0.8557603
vn 0.482278 0.1413333 0.8645419
vn 0.4796769 0.1586166 0.8629895
vn 0.4880891 0.09827215 0.8672436
vn 0.4880892 0.09827217 0.8672436
vn 0.673217 0.736484 -0.06610761
vn 0.6732169 0.736484 -0.0661076
vn 0.4723958 0.790535 -0.3897392
vn 0.4722184 0.7905316 -0.3899609
vn 0.2012358 0.7274206 -0.656021
vn 0.2012358 0.7274206 -0.656021
vn -0.5883361 0.2967463 -0.7521983
vn -0.5883361 0.2967463 -0.7521983
vn -0.823842 -0.06409876 -0.5631834
vn -0.7963817 -0.002877367 -0.6047876
vn -0.8768018 -0.4117631 -0.2483341
vn -0.8768018 -0.4117632 -0.2483341
vn -0.7120327 0.2669437 0.6494232
vn -0.7120328 0.2669437 0.6494231
vn -0.7120328 0.2669437 0.6494231
vn -0.5879952 0.4810807 0.6502484
vn -0.5879952 0.4810807 0.6502484
vn -0.5879952 0.4810807 0.6502484
vn -0.5879952 0.4810807 0.6502484
vn 0.07965471 0.4220973 0.9030443
vn 0.0796547 0.4220973 0.9030443
vn 0.07965469 0.4220973 0.9030443
vn 0.07965469 0.4220973 0.9030443
vn 0.4910899 0.8600224 0.1385358
vn 0.49109 0.8600224 0.1385358
vn 0.49109 0.8600224 0.1385358
vn 0.49109 0.8600224 0.1385358
vn -0.1603457 0.8934848 -0.4194929
vn -0.1603457 0.8934848 -0.4194929
vn -0.1603457 0.8934847 -0.4194929
vn -0.1603457 0.8934848 -0.4194929
vn -0.6392571 0.5291022 -0.5580333
vn -0.6392571 0.5291023 -0.5580333
vn -0.6392571 0.5291023 -0.5580332
vn -0.6392571 0.5291023 -0.5580333
vn -0.7207534 0.4568414 0.5213544
vn -0.7207534 0.4568414 0.5213544
vn -0.7207534 0.4568414 0.5213546
g RockFlagment01_0
f 3/3/3 2/2/2 1/1/1
f 4/4/4 3/3/3 1/1/1
f 3/3/3 5/5/5 2/2/2
f 5/5/5 6/6/6 2/2/2
f 7/7/7 3/3/3 4/4/4
f 8/8/8 7/7/7 4/4/4
f 9/9/9 5/5/5 3/3/3
f 7/7/7 9/9/9 3/3/3
f 12/12/12 11/11/11 10/10/10
f 13/13/13 12/12/12 10/10/10
f 14/14/14 12/12/12 13/13/13
f 15/15/15 14/14/14 13/13/13
f 18/18/18 17/17/17 16/16/16
f 19/19/19 18/18/18 16/16/16
f 20/20/20 18/18/18 19/19/19
f 22/22/22 21/21/21 19/19/19
f 25/25/25 24/24/24 23/23/23
f 26/26/26 25/25/25 23/23/23
f 27/27/27 25/25/25 26/26/26
f 28/28/28 27/27/27 26/26/26
f 31/31/31 30/30/30 29/29/29
f 32/32/32 31/31/31 29/29/29
f 33/33/33 31/31/31 32/32/32
f 34/34/34 33/33/33 32/32/32
f 37/37/37 36/36/36 35/35/35
f 38/38/38 37/37/37 35/35/35
f 39/39/39 37/37/37 38/38/38
f 40/40/40 39/39/39 38/38/38
f 43/43/43 42/42/42 41/41/41
f 44/44/44 43/43/43 41/41/41
f 45/45/45 43/43/43 44/44/44
f 46/46/46 45/45/45 44/44/44
f 49/49/49 48/48/48 47/47/47
f 52/52/52 51/51/51 50/50/50
f 53/53/53 52/52/52 50/50/50
f 56/56/56 55/55/55 54/54/54
f 57/57/57 56/56/56 54/54/54
f 60/60/60 59/59/59 58/58/58
f 61/61/61 60/60/60 58/58/58
f 64/64/64 63/63/63 62/62/62
f 65/65/65 64/64/64 62/62/62
f 68/68/68 67/67/67 66/66/66
f 69/69/69 68/68/68 66/66/66
f 72/72/72 71/71/71 70/70/70
