g RockFragment_02
v 0.04904945 -0.002476082 -0.06877528
v -0.04911614 -0.002476006 -0.06781579
v -0.04890405 -0.002476044 0.05557887
v 0.03673622 -0.002476158 0.06873337
v -0.01420607 0.02222603 -0.05454092
v 0.04904945 -0.002476082 -0.06877528
v 0.0328563 0.02518639 0.0487495
v -0.01054375 0.02806126 0.03610001
v -0.04911614 -0.002476006 -0.06781579
v 0.04904945 -0.002476082 -0.06877528
v -0.01420607 0.02222603 -0.05454092
v 0.03673622 -0.002476158 0.06873337
v 0.0328563 0.02518639 0.0487495
v 0.04904945 -0.002476082 -0.06877528
v -0.04890405 -0.002476044 0.05557887
v -0.01054375 0.02806126 0.03610001
v 0.0328563 0.02518639 0.0487495
v 0.03673622 -0.002476158 0.06873337
v -0.04890405 -0.002476044 0.05557887
v -0.04911614 -0.002476006 -0.06781579
v -0.01420607 0.02222603 -0.05454092
v -0.01054375 0.02806126 0.03610001
v -0.04890405 -0.002476044 0.05557887
v -0.04911614 -0.002476006 -0.06781579
v 0.04904945 -0.002476082 -0.06877528
v 0.04904945 -0.002476082 -0.06877528
v 0.03673622 -0.002476158 0.06873337
v -0.04890405 -0.002476044 0.05557887
v 0.02632896 -0.02173532 0.03805977
v 0.02266745 -0.02806124 -0.04703251
v -0.02143406 -0.02246571 -0.05507211
v -0.04890405 -0.002476044 0.05557887
v 0.03673622 -0.002476158 0.06873337
v 0.02632896 -0.02173532 0.03805977
v -0.04890405 -0.002476044 0.05557887
v -0.04911614 -0.002476006 -0.06781579
v -0.04890405 -0.002476044 0.05557887
v -0.02143406 -0.02246571 -0.05507211
v 0.04904945 -0.002476082 -0.06877528
v -0.04911614 -0.002476006 -0.06781579
v -0.02143406 -0.02246571 -0.05507211
v -0.02143406 -0.02246571 -0.05507211
v 0.02266745 -0.02806124 -0.04703251
v 0.04904945 -0.002476082 -0.06877528
v 0.04904945 -0.002476082 -0.06877528
v 0.02266745 -0.02806124 -0.04703251
v 0.02632896 -0.02173532 0.03805977
v 0.02632896 -0.02173532 0.03805977
v 0.03673622 -0.002476158 0.06873337
v 0.04904945 -0.002476082 -0.06877528
vt 0.1478569 0.7397081
vt 0.04741997 0.7369565
vt 0.06752166 0.627957
vt 0.1441157 0.6178861
vt 0.09485862 0.8282372
vt 0.03687933 0.9418133
vt 0.2607201 0.8644356
vt 0.2520323 0.824233
vt 0.0382538 0.7742683
vt 0.03687933 0.9418133
vt 0.09485862 0.8282372
vt 0.3110926 0.9438126
vt 0.2607201 0.8644356
vt 0.03687933 0.9418133
vt 0.3439076 0.7692192
vt 0.2520323 0.824233
vt 0.2607201 0.8644356
vt 0.3110926 0.9438126
vt 0.3439076 0.7692192
vt 0.0382538 0.7742683
vt 0.09485862 0.8282372
vt 0.2520323 0.824233
vt 0.1478569 0.7397081
vt 0.1441157 0.6178861
vt 0.06752166 0.627957
vt 0.06752166 0.627957
vt 0.04741997 0.7369565
vt 0.1478569 0.7397081
vt 0.09485862 0.8282372
vt 0.2520323 0.824233
vt 0.2607201 0.8644356
vt 0.03687933 0.9418133
vt 0.0382538 0.7742683
vt 0.09485862 0.8282372
vt 0.03687933 0.9418133
vt 0.3110926 0.9438126
vt 0.03687933 0.9418133
vt 0.2607201 0.8644356
vt 0.3439076 0.7692192
vt 0.3110926 0.9438126
vt 0.2607201 0.8644356
vt 0.2607201 0.8644356
vt 0.2520323 0.824233
vt 0.3439076 0.7692192
vt 0.3439076 0.7692192
vt 0.2520323 0.824233
vt 0.09485862 0.8282372
vt 0.09485862 0.8282372
vt 0.0382538 0.7742683
vt 0.3439076 0.7692192
vn -1.005501E-06 -1 -4.852703E-07
vn -1.005501E-06 -1 -4.852703E-07
vn -1.005501E-06 -1 -4.852704E-07
vn -1.005501E-06 -1 -4.852703E-07
vn 0.2459352 0.9591885 -0.1395466
vn 0.2459352 0.9591885 -0.1395466
vn 0.2459352 0.9591885 -0.1395466
vn 0.2459352 0.9591885 -0.1395466
vn -0.008559233 0.4827163 -0.875735
vn -0.008559233 0.4827163 -0.875735
vn -0.008559233 0.4827163 -0.875735
vn 0.9758899 0.2000066 0.08738627
vn 0.9758899 0.2000065 0.08738627
vn 0.9758899 0.2000066 0.08738627
vn -0.1419827 0.6117719 0.7781875
vn -0.1419827 0.611772 0.7781876
vn -0.1419827 0.6117719 0.7781877
vn -0.1419827 0.611772 0.7781876
vn -0.6025469 0.7980098 -0.01084882
vn -0.6025469 0.7980098 -0.01084882
vn -0.6025469 0.7980098 -0.01084882
vn -0.6025469 0.7980098 -0.01084882
vn 7.802049E-07 1 3.078051E-07
vn 7.802049E-07 1 3.078051E-07
vn 7.802049E-07 1 3.078051E-07
vn 1.234101E-06 1 6.653379E-07
vn 1.234101E-06 1 6.653378E-07
vn 1.234101E-06 1 6.653378E-07
vn -0.1945379 -0.9749959 0.1074158
vn -0.1945379 -0.9749959 0.1074158
vn -0.1945379 -0.9749959 0.1074158
vn -0.1945379 -0.9749959 0.1074158
vn -0.08452151 -0.8307067 0.5502567
vn -0.08452152 -0.8307068 0.5502567
vn -0.08452151 -0.8307067 0.5502568
vn -0.5857387 -0.8104993 0.001006466
vn -0.5857386 -0.8104994 0.001006466
vn -0.5857386 -0.8104994 0.001006466
vn -0.008191337 -0.5455878 -0.8380136
vn -0.008191336 -0.5455877 -0.8380136
vn -0.008191337 -0.5455877 -0.8380136
vn 0.04846448 -0.6753551 -0.7358986
vn 0.04846448 -0.6753551 -0.7358986
vn 0.04846448 -0.675355 -0.7358986
vn 0.7054245 -0.7084338 0.02231188
vn 0.7054245 -0.7084338 0.02231188
vn 0.7054244 -0.7084338 0.02231188
vn 0.8235264 -0.5624645 0.07374243
vn 0.8235264 -0.5624645 0.07374243
vn 0.8235264 -0.5624645 0.07374243
g RockFragment_02_0
f 3/3/3 2/2/2 1/1/1
f 4/4/4 3/3/3 1/1/1
f 7/7/7 6/6/6 5/5/5
f 8/8/8 7/7/7 5/5/5
f 11/11/11 10/10/10 9/9/9
f 14/14/14 13/13/13 12/12/12
f 17/17/17 16/16/16 15/15/15
f 18/18/18 17/17/17 15/15/15
f 21/21/21 20/20/20 19/19/19
f 22/22/22 21/21/21 19/19/19
f 25/25/25 24/24/24 23/23/23
f 28/28/28 27/27/27 26/26/26
f 31/31/31 30/30/30 29/29/29
f 32/32/32 31/31/31 29/29/29
f 35/35/35 34/34/34 33/33/33
f 38/38/38 37/37/37 36/36/36
f 41/41/41 40/40/40 39/39/39
f 44/44/44 43/43/43 42/42/42
f 47/47/47 46/46/46 45/45/45
f 50/50/50 49/49/49 48/48/48
