g CH_BlockProp01
v 1.257591 1.183004 0.3526503
v -0.06544006 0.9194511 0.3526503
v -0.06544006 1.160431 0.3526503
v 1.257591 0.9130985 0.3526503
v -1.261584 1.184322 -0.35265
v -1.300001 0.9133105 -0.3275463
v -1.261584 0.9164039 -0.35265
v -1.300001 1.152974 -0.3275462
v -1.300002 1.197974 -0.3023241
v -1.261585 1.21833 -0.3254967
v -1.300002 0.8801699 0.3023219
v -1.300002 1.152974 0.3275453
v -1.300002 0.9133102 0.3275453
v -1.300002 1.197974 0.3023219
v 1.257591 1.183143 -0.3526512
v 1.299999 1.197974 -0.3023241
v 1.257591 1.21833 -0.3254955
v 1.299999 1.152974 -0.3275462
v 1.257591 0.9181075 -0.3526512
v 1.299999 0.9251704 -0.3275463
v 1.299999 0.8801703 -0.3023241
v 1.257591 0.8801703 -0.3254955
v -0.06544006 0.8801702 -0.3254955
v -0.06544006 0.916177 -0.3526512
v -0.1193365 0.8930292 -0.2874779
v -0.1193365 0.9302527 -0.3123705
v -1.261585 1.182785 0.3526503
v -0.166159 0.9080131 0.3477894
v -1.261585 0.9133102 0.3526503
v -0.166159 1.182053 0.3477894
v -0.1193365 0.9265913 0.3157093
v -0.1193365 1.155302 0.3157094
v -0.166159 1.231713 0.3254945
v -0.1193365 1.190334 0.2908156
v -0.06544006 0.916177 -0.3526512
v 1.257591 1.183143 -0.3526512
v -0.06544006 1.186373 -0.35265
v 1.257591 0.9181075 -0.3526512
v -1.261584 1.184322 -0.35265
v -0.166159 1.21472 -0.3254955
v -1.261585 1.21833 -0.3254967
v -0.166159 1.183739 -0.35265
v -1.261585 1.218329 0.3254945
v -0.166159 1.182053 0.3477894
v -1.261585 1.182785 0.3526503
v -0.166159 1.231713 0.3254945
v -0.166159 1.21472 -0.3254955
v -1.261585 1.218329 0.3254945
v -1.261585 1.21833 -0.3254967
v -0.166159 1.231713 0.3254945
v -0.1193365 1.190334 0.2908156
v -0.1193365 1.190334 -0.2874779
v -1.300002 1.197974 -0.3023241
v -1.300002 1.197974 0.3023219
v -0.06544006 1.21833 -0.3254955
v 1.257591 1.183143 -0.3526512
v 1.257591 1.21833 -0.3254955
v -0.06544006 1.186373 -0.35265
v 1.299999 1.197974 0.3023231
v 1.257591 1.183004 0.3526503
v 1.257591 1.218329 0.3254945
v 1.299999 1.152974 0.3275453
v 1.257591 0.9130985 0.3526503
v 1.299999 0.9133102 0.3275441
v 1.299999 1.197974 -0.3023241
v 1.257591 1.218329 0.3254945
v 1.257591 1.21833 -0.3254955
v 1.299999 1.197974 0.3023231
v -0.06544006 1.21833 -0.3254955
v -0.06544006 1.218329 0.3254945
v -0.1193365 1.190334 -0.2874779
v -0.1193365 1.190334 0.2908156
v -0.166159 0.9186105 -0.3526512
v -1.261584 1.184322 -0.35265
v -1.261584 0.9164039 -0.35265
v -0.166159 1.183739 -0.35265
v -0.1193365 1.156787 -0.3123704
v -0.1193365 0.9302527 -0.3123705
v 1.257591 1.218329 0.3254945
v -0.06544006 1.160431 0.3526503
v -0.06544006 1.218329 0.3254945
v 1.257591 1.183004 0.3526503
v -1.261585 0.9133102 0.3526503
v -0.166159 0.88017 0.3254945
v -1.261585 0.8801699 0.3254945
v -0.166159 0.9080131 0.3477894
v -1.300002 0.8801699 0.3023219
v -1.300002 0.9133102 0.3275453
v -0.1193365 0.8930292 0.2908155
v -0.1193365 0.9265913 0.3157093
v -0.166159 0.9186105 -0.3526512
v -1.261585 0.8801702 -0.3254943
v -0.166159 0.8801702 -0.3254955
v -1.261584 0.9164039 -0.35265
v -0.1193365 0.9302527 -0.3123705
v -0.1193365 0.8930292 -0.2874779
v -1.300002 0.8801702 -0.3023241
v -1.300001 0.9133105 -0.3275463
v 1.257591 0.88017 0.3254945
v -0.06544006 0.9194511 0.3526503
v 1.257591 0.9130985 0.3526503
v -0.06544006 0.88017 0.3254945
v -0.1193365 0.9265913 0.3157093
v -0.1193365 0.8930292 0.2908155
v 1.299999 0.88017 0.3023219
v 1.299999 0.9133102 0.3275441
v -1.300001 0.9133105 -0.3275463
v -1.300002 1.197974 -0.3023241
v -1.300002 0.8801702 -0.3023241
v -1.300001 1.152974 -0.3275462
v -0.1193365 1.190334 0.2908156
v -0.06544006 1.160431 0.3526503
v -0.1193365 1.155302 0.3157094
v -0.06544006 1.218329 0.3254945
v -0.06544006 0.9194511 0.3526503
v -0.1193365 0.9265913 0.3157093
v -0.1193365 1.190334 -0.2874779
v -0.166159 1.183739 -0.35265
v -0.1193365 1.156787 -0.3123704
v -0.166159 1.21472 -0.3254955
v -0.06544006 1.186373 -0.35265
v -0.1193365 0.9302527 -0.3123705
v -0.06544006 0.916177 -0.3526512
v -0.1193365 1.156787 -0.3123704
v -0.06544006 1.21833 -0.3254955
v -0.1193365 1.156787 -0.3123704
v -0.06544006 1.186373 -0.35265
v -0.1193365 1.190334 -0.2874779
v -1.300002 1.152974 0.3275453
v -1.261585 0.9133102 0.3526503
v -1.300002 0.9133102 0.3275453
v -1.261585 1.182785 0.3526503
v -1.300002 1.197974 0.3023219
v -1.261585 1.218329 0.3254945
v -1.300001 0.88017 0.2480751
v 1.299999 0.1747642 0.248075
v -1.300001 0.1747642 0.248075
v 1.299999 0.88017 0.2480751
v 0.03506592 0.003107742 0.3526514
v -0.7970074 0.1740448 0.3526514
v 0.03506592 0.18423 0.3526514
v -0.7921704 0.003107742 0.3526514
v -0.8328063 0.1559031 0.3526514
v -0.8328063 0.003107742 0.3526514
v -0.8599487 0.1712287 0.3526514
v -0.8599481 0.003107742 0.3526514
v -1.270001 0.1704131 0.3526514
v -1.270001 0.003107742 0.3526514
v 1.299999 0.003107737 0.3163843
v 1.278395 0.1769138 0.3526514
v 1.299999 0.1801365 0.3163843
v 1.281679 0.003107742 0.3526514
v -0.8039935 0.1884104 0.3226514
v 0.03506592 0.18423 0.3526514
v -0.7970074 0.1740448 0.3526514
v 0.03990417 0.1825405 0.3226514
v -0.8242291 0.1845259 0.3226514
v -0.8328063 0.1559031 0.3526514
v -0.7800286 0.1884104 0.2313074
v 0.02820374 0.1837081 0.2313074
v -0.7901471 0.1864681 0.2313074
v -1.270001 0.1965731 0.2313074
v -0.84224 0.1965731 0.3226514
v -1.270001 0.1965731 0.3226514
v -0.7991522 0.1924917 0.2313074
v -1.300001 0.1801365 0.3163843
v -1.300001 0.1801365 0.2313074
v 0.06398498 0.18423 0.3526514
v 0.04537903 0.003107734 0.3351965
v 0.04537903 0.1681904 0.3351966
v 0.07055359 0.003107742 0.3526514
v 0.03990417 0.1825405 0.3226514
v 0.04787536 0.203566 0.3226514
v -0.8599487 0.1712287 0.3526514
v -1.270001 0.1965731 0.3226514
v -0.84224 0.1965731 0.3226514
v -1.270001 0.1704131 0.3526514
v -0.8328063 0.1559031 0.3526514
v -0.8242291 0.1845259 0.3226514
v -1.300001 0.1801365 0.3163843
v 0.03506592 0.18423 0.3526514
v 0.04537903 0.003107734 0.3351965
v 0.03506592 0.003107742 0.3526514
v 0.04537903 0.1681904 0.3351966
v 0.03506592 0.18423 0.3526514
v 0.03990417 0.1825405 0.3226514
v 0.04537903 0.1681904 0.3351966
v 0.03851867 0.203566 0.2313074
v 0.03990417 0.1825405 0.3226514
v 0.02820374 0.1837081 0.2313074
v 0.04787536 0.203566 0.3226514
v -1.300001 0.1801365 0.3163843
v -1.270001 0.003107742 0.3526514
v -1.300001 0.003107737 0.3163855
v -1.270001 0.1704131 0.3526514
v 1.299999 0.1801365 0.3163843
v 1.278395 0.1769138 0.3526514
v 1.27034 0.1995262 0.3226514
v 1.269783 0.1995263 0.2313074
v 1.299999 0.1801366 0.2313074
v 1.281679 0.003107742 0.3526514
v 0.06398498 0.18423 0.3526514
v 1.278395 0.1769138 0.3526514
v 0.07055359 0.003107742 0.3526514
v 1.27034 0.1995262 0.3226514
v 0.06398498 0.18423 0.3526514
v 0.04787536 0.203566 0.3226514
v 1.278395 0.1769138 0.3526514
v 1.299999 0.1801365 0.3163843
v 1.299999 0.003107777 0.2313074
v 1.299999 0.003107737 0.3163843
v 1.299999 0.1801366 0.2313074
v -0.7991522 0.1924917 0.2313074
v -0.8242291 0.1845259 0.3226514
v -0.84224 0.1965731 0.3226514
v -0.7901471 0.1864681 0.2313074
v 1.27034 0.1995262 0.3226514
v 0.03851867 0.203566 0.2313074
v 1.269783 0.1995263 0.2313074
v 0.04787536 0.203566 0.3226514
v -1.300001 0.1801365 0.2313074
v -1.300001 0.003107737 0.3163855
v -1.300001 0.003107777 0.2313074
v -1.300001 0.1801365 0.3163843
vt 0.9203966 0.1808558
vt 0.8336309 0.1640585
vt 0.8336775 0.1794414
vt 0.9205863 0.1636863
vt 0.7564489 0.2273954
vt 0.7533948 0.2447601
vt 0.7562721 0.2444316
vt 0.7531918 0.2286126
vt 0.7535061 0.2242909
vt 0.7564602 0.2250267
vt 0.7482418 0.1666916
vt 0.7465156 0.1853617
vt 0.7465156 0.1689596
vt 0.7482418 0.1884414
vt 0.9204223 0.2273607
vt 0.9235588 0.2241893
vt 0.9203892 0.2249389
vt 0.9238756 0.228492
vt 0.9206869 0.2441997
vt 0.923826 0.2438657
vt 0.9242522 0.2473284
vt 0.9209921 0.2470924
vt 0.8334991 0.2471957
vt 0.8337145 0.2444431
vt 0.8304007 0.2479432
vt 0.8303581 0.2446004
vt 0.7564454 0.1809432
vt 0.8287418 0.1630761
vt 0.7562047 0.1638132
vt 0.8287107 0.1805172
vt 0.8303102 0.1631521
vt 0.8304028 0.1799945
vt 0.8283864 0.1835216
vt 0.8303465 0.1839048
vt 0.8337145 0.2444431
vt 0.9204223 0.2273607
vt 0.8338245 0.2272951
vt 0.9206869 0.2441997
vt 0.7564489 0.2273954
vt 0.828711 0.2251584
vt 0.7564602 0.2250267
vt 0.8285337 0.2275107
vt 0.7564663 0.1833845
vt 0.8287107 0.1805172
vt 0.7564454 0.1809432
vt 0.8283864 0.1835216
vt 0.828711 0.2251584
vt 0.7564663 0.1833845
vt 0.7564602 0.2250267
vt 0.8283864 0.1835216
vt 0.8303465 0.1839048
vt 0.8303047 0.2239151
vt 0.7535061 0.2242909
vt 0.7535115 0.1841235
vt 0.8336935 0.2249677
vt 0.9204223 0.2273607
vt 0.9203892 0.2249389
vt 0.8338245 0.2272951
vt 0.9235544 0.1840303
vt 0.9203966 0.1808558
vt 0.9203829 0.1832954
vt 0.9238435 0.1797162
vt 0.9205863 0.1636863
vt 0.9236951 0.163584
vt 0.9235588 0.2241893
vt 0.9203829 0.1832954
vt 0.9203892 0.2249389
vt 0.9235544 0.1840303
vt 0.8336935 0.2249677
vt 0.833689 0.1832723
vt 0.8303047 0.2239151
vt 0.8303465 0.1839048
vt 0.8286745 0.2443832
vt 0.7564489 0.2273954
vt 0.7562721 0.2444316
vt 0.8285337 0.2275107
vt 0.8303357 0.2277275
vt 0.8303581 0.2446004
vt 0.9203829 0.1832954
vt 0.8336775 0.1794414
vt 0.833689 0.1832723
vt 0.9203966 0.1808558
vt 0.7562047 0.1638132
vt 0.8289706 0.1609259
vt 0.755892 0.1611667
vt 0.8287418 0.1630761
vt 0.7528452 0.1608821
vt 0.7533193 0.1636817
vt 0.8304192 0.1604086
vt 0.8303102 0.1631521
vt 0.8286745 0.2443832
vt 0.7559917 0.2472452
vt 0.828941 0.2472717
vt 0.7562721 0.2444316
vt 0.8303581 0.2446004
vt 0.8304007 0.2479432
vt 0.7529533 0.2475622
vt 0.7533948 0.2447601
vt 0.9208758 0.1610416
vt 0.8336309 0.1640585
vt 0.9205863 0.1636863
vt 0.8334768 0.1611066
vt 0.8303102 0.1631521
vt 0.8304192 0.1604086
vt 0.9241567 0.1607901
vt 0.9236951 0.163584
vt 0.7465156 0.1689597
vt 0.7482418 0.1884414
vt 0.7482418 0.1666916
vt 0.7465156 0.1853617
vt 0.8303465 0.1839048
vt 0.8336775 0.1794414
vt 0.8304028 0.1799945
vt 0.833689 0.1832723
vt 0.8336309 0.1640585
vt 0.8303102 0.1631521
vt 0.8303047 0.2239151
vt 0.8285337 0.2275107
vt 0.8303357 0.2277275
vt 0.828711 0.2251584
vt 0.8338245 0.2272951
vt 0.8303581 0.2446004
vt 0.8337145 0.2444431
vt 0.8303357 0.2277275
vt 0.8336935 0.2249677
vt 0.8303357 0.2277275
vt 0.8338245 0.2272951
vt 0.8303047 0.2239151
vt 0.7531989 0.1798167
vt 0.7562047 0.1638132
vt 0.7533193 0.1636817
vt 0.7564454 0.1809432
vt 0.7535115 0.1841235
vt 0.7564663 0.1833845
vt 0.002512945 0.617575
vt 0.2472363 0.5405651
vt 0.002512945 0.5405651
vt 0.2472363 0.617575
vt 0.8771069 0.001137737
vt 0.7998289 0.01744437
vt 0.8770844 0.01783094
vt 0.8000184 0.001137737
vt 0.7960609 0.01605159
vt 0.7960609 0.001137737
vt 0.7931949 0.01715142
vt 0.793194 0.001137737
vt 0.7547246 0.01713968
vt 0.7547246 0.001137737
vt 0.9974012 0.001244254
vt 0.9951372 0.01731819
vt 0.9974012 0.01873246
vt 0.9951093 0.001247164
vt 0.799194 0.020401
vt 0.8770844 0.01783094
vt 0.7998289 0.01744437
vt 0.8782172 0.01999983
vt 0.796976 0.02022365
vt 0.7960609 0.01605159
vt 0.8012597 0.03064287
vt 0.8771104 0.03070051
vt 0.8001507 0.03055418
vt 0.7547246 0.03071548
vt 0.7948483 0.02063108
vt 0.7547246 0.02056357
vt 0.7990868 0.03075791
vt 0.7520207 0.0196593
vt 0.7520207 0.03072948
vt 0.8814741 0.01782549
vt 0.8789601 0.001137737
vt 0.8789349 0.01720679
vt 0.8818807 0.001137737
vt 0.8782172 0.01999983
vt 0.8799809 0.02067715
vt 0.7931949 0.01715142
vt 0.7547246 0.02056357
vt 0.7948483 0.02063108
vt 0.7547246 0.01713968
vt 0.7960609 0.01605159
vt 0.796976 0.02022365
vt 0.7520207 0.0196593
vt 0.8770844 0.01783094
vt 0.8789601 0.001137737
vt 0.8771069 0.001137737
vt 0.8789349 0.01720679
vt 0.8770844 0.01783094
vt 0.8782172 0.01999983
vt 0.8789349 0.01720679
vt 0.8790203 0.03073961
vt 0.8782172 0.01999983
vt 0.8771104 0.03070051
vt 0.8799809 0.02067715
vt 0.7520207 0.0196593
vt 0.7547246 0.001137737
vt 0.7520207 0.001137726
vt 0.7547246 0.01713968
vt 0.9974012 0.01873246
vt 0.9951372 0.01731819
vt 0.9946058 0.02061144
vt 0.9946058 0.0307762
vt 0.9974012 0.03070933
vt 0.9951093 0.001247164
vt 0.8814741 0.01782549
vt 0.9951372 0.01731819
vt 0.8818807 0.001137737
vt 0.9946058 0.02061144
vt 0.8814741 0.01782549
vt 0.8799809 0.02067715
vt 0.9951372 0.01731819
vt 0.8729122 0.180162
vt 0.8637069 0.1644528
vt 0.8729122 0.1644528
vt 0.863707 0.180162
vt 0.7990868 0.03075791
vt 0.796976 0.02022365
vt 0.7948483 0.02063108
vt 0.8001507 0.03055418
vt 0.9946058 0.02061144
vt 0.8790203 0.03073961
vt 0.9946058 0.0307762
vt 0.8799809 0.02067715
vt 0.863707 0.180162
vt 0.8729122 0.1644528
vt 0.863707 0.1644528
vt 0.8729122 0.180162
vn 0 -1.331581E-07 1
vn 0 -1.331581E-07 1
vn 0 -1.331581E-07 1
vn 0 -1.331581E-07 1
vn -0.6389334 0.276599 -0.7178141
vn -0.5470275 0 -0.8371147
vn -0.5470282 1.114685E-07 -0.8371142
vn -0.6165414 0.1343176 -0.7757806
vn -0.6675342 0.4107797 -0.6210139
vn -0.6256337 0.4867491 -0.6096374
vn -1 0 0
vn -1 0 0
vn -1 0 0
vn -1 0 0
vn 0.5969303 0.2813044 -0.7513601
vn 0.6273184 0.4236421 -0.6534516
vn 0.5873981 0.4944594 -0.6406821
vn 0.5787035 0.1457483 -0.8024088
vn 0.3337598 -0.3823873 -0.8616172
vn 0.523761 -0.2137415 -0.8246145
vn 0.4640681 -0.4739684 -0.748328
vn 0.2246381 -0.5671819 -0.7923651
vn -0.3195695 -0.5703408 -0.7566945
vn -0.289335 -0.569589 -0.7693202
vn -0.5969249 -0.4602933 -0.6571231
vn -0.6083163 -0.4412057 -0.6597641
vn 0.004437353 -1.331567E-07 0.9999902
vn 0.2654175 -1.283822E-07 0.9641336
vn 0.004437353 -1.331567E-07 0.9999902
vn 0.4296846 0.1308224 0.8934522
vn 0.5652074 -1.098486E-07 0.824949
vn 0.6426798 0.1573485 0.7498027
vn 0.6911163 0.3419538 0.6367307
vn 0.7446461 0.3866192 0.5440844
vn -7.968119E-07 4.081997E-06 -1
vn -1.167911E-07 7.119514E-07 -1
vn -9.116277E-07 4.651E-06 -1
vn 0 1.331581E-07 -1
vn 0.002015867 0.6248085 -0.7807754
vn 0.0003934424 0.6582682 -0.7527834
vn 0.002056638 0.6239513 -0.7814605
vn 0.0003503666 0.6591392 -0.7520208
vn 0.003654205 0.6013732 0.7989599
vn -0.004775424 0.4149631 0.9098257
vn 0.00393188 0.607092 0.7946218
vn -0.005004076 0.4095603 0.9122693
vn 0.1845017 0.9827612 -0.01181567
vn -0.1976413 0.9802594 -0.005431137
vn -0.1945382 0.980895 2.455716E-07
vn 0.2710807 0.9622288 -0.02511751
vn 0.646634 0.7625648 -0.0189534
vn 0.4619224 0.8869203 0
vn -0.4681934 0.883626 2.214862E-07
vn -0.4681936 0.8836259 2.291574E-07
vn 0.001546252 0.646764 -0.7626886
vn 3.19098E-05 0.6117266 -0.7910692
vn 0 0.6109749 -0.7916499
vn 0.001579995 0.6475305 -0.7620379
vn 0.6267912 0.4234076 0.6541091
vn 0.5965666 0.2806988 0.7518752
vn 0.5873491 0.4932589 0.6416515
vn 0.5785078 0.1460729 0.8024907
vn 0.5094342 -3.648177E-06 0.8605097
vn 0.5094363 -4.173153E-06 0.8605083
vn 0.4327202 0.9015283 4.253284E-07
vn 0.1839109 0.9829429 3.098903E-07
vn 0.1839125 0.9829426 4.764799E-07
vn 0.4327165 0.90153 1.20046E-07
vn -0.1856032 0.9826248 2.886706E-07
vn -0.1900945 0.9817659 1.631754E-07
vn -0.4609495 0.8874264 2.119214E-07
vn -0.4609476 0.8874274 0
vn 0.3255544 2.657844E-06 -0.9455233
vn -9.454935E-07 8.29348E-07 -1
vn -1.114365E-06 1.331581E-07 -1
vn 0.2948529 4.526736E-06 -0.9555427
vn 0.652155 3.144542E-06 -0.7580855
vn 0.652164 1.009442E-07 -0.7580779
vn -0.01008538 0.6041746 0.7967882
vn -0.0002248504 0.4288453 0.9033779
vn 0 0.4246374 0.9053636
vn -0.01039781 0.6094301 0.7927716
vn -0.1982035 -0.6158245 0.7625454
vn 0.3348869 -0.5890612 0.7354302
vn -0.2372691 -0.6157119 0.7514002
vn 0.3103298 -0.5895691 0.7457237
vn -0.4429901 -0.5553342 0.7038208
vn -0.4613582 -0.5373343 0.7059889
vn 0.6120182 -0.4793244 0.6290324
vn 0.6182849 -0.4682215 0.6312625
vn 0.3180871 -0.5473655 -0.7740875
vn -0.242683 -0.5815066 -0.7765017
vn 0.3610655 -0.5345339 -0.7641369
vn -0.1885264 -0.5900729 -0.7850298
vn 0.6409922 -0.4332222 -0.6335989
vn 0.6375765 -0.4282493 -0.6403896
vn -0.4305067 -0.5439472 -0.7202677
vn -0.4262792 -0.5478321 -0.7198376
vn 0.2145979 -0.6207201 0.7540917
vn -0.258446 -0.5501449 0.7940694
vn 0.1818894 -0.6199891 0.7632365
vn -0.2950357 -0.5477862 0.7828692
vn -0.5457673 -0.4904364 0.679419
vn -0.550221 -0.4974514 0.6706706
vn 0.4102588 -0.5653508 0.715588
vn 0.4284085 -0.5472338 0.7190279
vn -1 0 -4.737835E-05
vn -1 -2.106152E-06 -2.462744E-05
vn -1 0 -4.839803E-05
vn -1 -2.546697E-06 -1.965533E-05
vn -0.5773285 0.414325 0.7035812
vn -0.5909627 0.1929492 0.7832839
vn -0.561798 0.26905 0.7823011
vn -0.6261719 0.3310834 0.7058983
vn -0.5653549 -1.098351E-07 0.8248479
vn -0.5653549 -1.098351E-07 0.8248478
vn 0.7091802 0.4364718 -0.5536748
vn 0.7011585 0.4541046 -0.5496961
vn 0.7187793 0.4142812 -0.5583256
vn 0.6902292 0.4769472 -0.5441554
vn -0.5986431 9.105322E-07 -0.8010159
vn -0.59865 3.20232E-06 -0.8010107
vn -0.5986517 3.725495E-06 -0.8010095
vn -0.5986407 1.06662E-07 -0.8010177
vn -0.6726928 0.4666559 -0.5742096
vn -0.6659248 0.4575205 -0.5892531
vn -0.6790299 0.4753596 -0.5594209
vn -0.6589249 0.4482289 -0.6040769
vn -0.614585 0.1379096 0.7767021
vn -0.5470408 -1.114674E-07 0.837106
vn -0.5470408 -1.114674E-07 0.837106
vn -0.6349035 0.2703185 0.7237578
vn -0.6619592 0.4083631 0.6285298
vn -0.6251637 0.4738351 0.6202021
vn 0 -1.331581E-07 1
vn 0 -1.331581E-07 1
vn 0 -1.331581E-07 1
vn 0 -1.331581E-07 1
vn 0 -1.331581E-07 1
vn 0 -1.331581E-07 1
vn 0 -1.331581E-07 1
vn 0 -1.331581E-07 1
vn 0 -1.331581E-07 1
vn 0 -1.331581E-07 1
vn 0 -1.331581E-07 1
vn 0 -1.331581E-07 1
vn 0 -1.331581E-07 1
vn 0 -1.331581E-07 1
vn 0.9715166 0.007365136 0.2368566
vn 0.8640515 0.002359971 0.503398
vn 0.9659307 0 0.2588009
vn 0.8924571 0.01686257 0.450817
vn -0.105691 0.9717867 0.2108553
vn 0.006552197 0.9990079 -0.04404902
vn -0.1520859 0.8552707 0.4953603
vn 0.006422526 0.9997469 -0.02156266
vn -0.2512294 0.9141596 0.3181134
vn -0.3665279 0.7232678 0.5852701
vn -0.07530624 0.996972 -0.01938394
vn 0.005817391 0.9999106 0.01203672
vn -0.1882808 0.9808723 -0.04939478
vn -0.2474276 0.9689023 -0.002806187
vn 0.007755442 0.9993101 -0.03631832
vn -0.2327835 0.9725286 1.295E-07
vn 0.008660688 0.9991397 -0.04055756
vn -0.480488 0.8770013 1.167798E-07
vn -0.480488 0.8770013 1.167798E-07
vn -0.7243032 0.1358181 0.675972
vn -0.5803795 -0.01883796 0.8141282
vn -0.7271632 0.1053205 0.678337
vn -0.5696684 -0.02065978 0.8216149
vn -0.7591968 0.2649798 0.5944796
vn -0.7550175 0.2862417 0.5899274
vn 0.1500655 0.7094799 0.6885628
vn -0.2348224 0.7329634 0.6384536
vn 0.2243645 0.6860262 0.692119
vn -0.1674741 0.7430515 0.6479405
vn 0.361226 0.6063494 0.7084181
vn 0.4026804 0.6020173 0.6895097
vn -0.4820702 0.660338 0.5758142
vn 0.8609505 0 0.5086887
vn 0.8609505 0 0.5086887
vn 0.8609505 0 0.5086887
vn 0.8609505 0 0.5086887
vn 0.8888466 0.442638 0.1184207
vn 0.8888466 0.4426379 0.1184207
vn 0.8888466 0.442638 0.1184207
vn -0.8893587 0.442426 0.1153273
vn -0.9241765 0.3689295 0.09893801
vn -0.8811452 0.4576999 0.1187185
vn -0.9307969 0.3528832 0.09534489
vn -0.7705335 7.505891E-07 0.6373994
vn -0.7705267 3.583265E-06 0.6374077
vn -0.770525 4.310388E-06 0.6374098
vn -0.7705356 0 0.6373971
vn 0.5618263 0.8139961 0.1475179
vn 0.5594398 0.7271376 0.3978668
vn 0.5649036 0.8037844 0.1865867
vn 0.5417435 0.8405434 -0.0008383702
vn 0.540071 0.8416194 8.668028E-07
vn 0 -1.331581E-07 1
vn 0 -1.331581E-07 1
vn 0 -1.331581E-07 1
vn 0 -1.331581E-07 1
vn 0.004781124 0.7999045 0.6001082
vn 0.002811701 0.8405929 0.54166
vn 0.002779903 0.8412127 0.5406973
vn 0.004814625 0.7991727 0.6010822
vn 0.9659307 0 0.2588009
vn 1 0 0
vn 0.9715166 0.007365136 0.2368566
vn 1 0 0
vn 0.5424128 0.8108963 0.2196257
vn 0.5424025 0.8109038 0.2196235
vn 0.5424018 0.8109043 0.2196234
vn 0.5424141 0.8108954 0.219626
vn 0.003282119 0.9999946 -3.493362E-05
vn 0.003303429 0.9999945 -0.0003223192
vn 0.003281001 0.9999946 -1.98664E-05
vn 0.003304619 0.9999945 -0.0003383707
vn -1 0 0
vn -1 0 0
vn -1 0 0
vn -1 0 0
g CH_BlockProp01_0
f 3/3/3 2/2/2 1/1/1
f 4/4/4 1/1/1 2/2/2
f 7/7/7 6/6/6 5/5/5
f 8/8/8 5/5/5 6/6/6
f 8/8/8 9/9/9 5/5/5
f 10/10/10 5/5/5 9/9/9
f 13/13/13 12/12/12 11/11/11
f 14/14/14 11/11/11 12/12/12
f 17/17/17 16/16/16 15/15/15
f 18/18/18 15/15/15 16/16/16
f 15/15/15 18/18/18 19/19/19
f 20/20/20 19/19/19 18/18/18
f 20/20/20 21/21/21 19/19/19
f 22/22/22 19/19/19 21/21/21
f 22/22/22 23/23/23 19/19/19
f 24/24/24 19/19/19 23/23/23
f 23/23/23 25/25/25 24/24/24
f 26/26/26 24/24/24 25/25/25
f 29/29/29 28/28/28 27/27/27
f 30/30/30 27/27/27 28/28/28
f 28/28/28 31/31/31 30/30/30
f 32/32/32 30/30/30 31/31/31
f 30/30/30 32/32/32 33/33/33
f 34/34/34 33/33/33 32/32/32
f 37/37/37 36/36/36 35/35/35
f 38/38/38 35/35/35 36/36/36
f 41/41/41 40/40/40 39/39/39
f 42/42/42 39/39/39 40/40/40
f 45/45/45 44/44/44 43/43/43
f 46/46/46 43/43/43 44/44/44
f 49/49/49 48/48/48 47/47/47
f 50/50/50 47/47/47 48/48/48
f 50/50/50 51/51/51 47/47/47
f 52/52/52 47/47/47 51/51/51
f 49/49/49 53/53/53 48/48/48
f 54/54/54 48/48/48 53/53/53
f 57/57/57 56/56/56 55/55/55
f 58/58/58 55/55/55 56/56/56
f 61/61/61 60/60/60 59/59/59
f 62/62/62 59/59/59 60/60/60
f 60/60/60 63/63/63 62/62/62
f 64/64/64 62/62/62 63/63/63
f 67/67/67 66/66/66 65/65/65
f 68/68/68 65/65/65 66/66/66
f 67/67/67 69/69/69 66/66/66
f 70/70/70 66/66/66 69/69/69
f 69/69/69 71/71/71 70/70/70
f 72/72/72 70/70/70 71/71/71
f 75/75/75 74/74/74 73/73/73
f 76/76/76 73/73/73 74/74/74
f 76/76/76 77/77/77 73/73/73
f 78/78/78 73/73/73 77/77/77
f 81/81/81 80/80/80 79/79/79
f 82/82/82 79/79/79 80/80/80
f 85/85/85 84/84/84 83/83/83
f 86/86/86 83/83/83 84/84/84
f 85/85/85 83/83/83 87/87/87
f 88/88/88 87/87/87 83/83/83
f 84/84/84 89/89/89 86/86/86
f 90/90/90 86/86/86 89/89/89
f 93/93/93 92/92/92 91/91/91
f 94/94/94 91/91/91 92/92/92
f 91/91/91 95/95/95 93/93/93
f 96/96/96 93/93/93 95/95/95
f 92/92/92 97/97/97 94/94/94
f 98/98/98 94/94/94 97/97/97
f 101/101/101 100/100/100 99/99/99
f 102/102/102 99/99/99 100/100/100
f 100/100/100 103/103/103 102/102/102
f 104/104/104 102/102/102 103/103/103
f 99/99/99 105/105/105 101/101/101
f 106/106/106 101/101/101 105/105/105
f 109/109/109 108/108/108 107/107/107
f 110/110/110 107/107/107 108/108/108
f 113/113/113 112/112/112 111/111/111
f 114/114/114 111/111/111 112/112/112
f 112/112/112 113/113/113 115/115/115
f 116/116/116 115/115/115 113/113/113
f 119/119/119 118/118/118 117/117/117
f 120/120/120 117/117/117 118/118/118
f 123/123/123 122/122/122 121/121/121
f 124/124/124 121/121/121 122/122/122
f 127/127/127 126/126/126 125/125/125
f 128/128/128 125/125/125 126/126/126
f 131/131/131 130/130/130 129/129/129
f 132/132/132 129/129/129 130/130/130
f 129/129/129 132/132/132 133/133/133
f 134/134/134 133/133/133 132/132/132
f 137/137/137 136/136/136 135/135/135
f 138/138/138 135/135/135 136/136/136
f 141/141/141 140/140/140 139/139/139
f 142/142/142 139/139/139 140/140/140
f 140/140/140 143/143/143 142/142/142
f 144/144/144 142/142/142 143/143/143
f 143/143/143 145/145/145 144/144/144
f 146/146/146 144/144/144 145/145/145
f 145/145/145 147/147/147 146/146/146
f 148/148/148 146/146/146 147/147/147
f 151/151/151 150/150/150 149/149/149
f 152/152/152 149/149/149 150/150/150
f 155/155/155 154/154/154 153/153/153
f 156/156/156 153/153/153 154/154/154
f 153/153/153 157/157/157 155/155/155
f 158/158/158 155/155/155 157/157/157
f 153/153/153 156/156/156 159/159/159
f 153/153/153 159/159/159 157/157/157
f 160/160/160 159/159/159 156/156/156
f 161/161/161 157/157/157 159/159/159
f 164/164/164 163/163/163 162/162/162
f 165/165/165 162/162/162 163/163/163
f 164/164/164 162/162/162 166/166/166
f 167/167/167 166/166/166 162/162/162
f 170/170/170 169/169/169 168/168/168
f 171/171/171 168/168/168 169/169/169
f 170/170/170 168/168/168 172/172/172
f 173/173/173 172/172/172 168/168/168
f 176/176/176 175/175/175 174/174/174
f 177/177/177 174/174/174 175/175/175
f 174/174/174 178/178/178 176/176/176
f 179/179/179 176/176/176 178/178/178
f 175/175/175 180/180/180 177/177/177
f 183/183/183 182/182/182 181/181/181
f 184/184/184 181/181/181 182/182/182
f 187/187/187 186/186/186 185/185/185
f 190/190/190 189/189/189 188/188/188
f 191/191/191 188/188/188 189/189/189
f 194/194/194 193/193/193 192/192/192
f 195/195/195 192/192/192 193/193/193
f 198/198/198 197/197/197 196/196/196
f 198/198/198 196/196/196 199/199/199
f 200/200/200 199/199/199 196/196/196
f 203/203/203 202/202/202 201/201/201
f 204/204/204 201/201/201 202/202/202
f 207/207/207 206/206/206 205/205/205
f 208/208/208 205/205/205 206/206/206
f 211/211/211 210/210/210 209/209/209
f 212/212/212 209/209/209 210/210/210
f 215/215/215 214/214/214 213/213/213
f 216/216/216 213/213/213 214/214/214
f 219/219/219 218/218/218 217/217/217
f 220/220/220 217/217/217 218/218/218
f 223/223/223 222/222/222 221/221/221
f 224/224/224 221/221/221 222/222/222
