g CH_Rope_01
v 4.577637E-07 -0.2602211 0.03403904
v 0.9411076 -0.2789115 -4.004703E-08
v 4.577637E-07 -0.2942602 -4.835385E-08
v 0.9411076 -0.2448724 0.03403904
v 4.577637E-07 -0.2261821 -3.355519E-08
v 0.9411076 -0.2108334 -2.488165E-08
v 4.577637E-07 -0.2942602 -4.835385E-08
v 0.9411076 -0.2448725 -0.03403911
v 4.577637E-07 -0.2602212 -0.03403912
v 0.9411076 -0.2789115 -4.004703E-08
v 0.9411076 -0.2108334 -2.488165E-08
v 4.577637E-07 -0.2261821 -3.355519E-08
v -4.705536 0.260221 0.03403909
v -3.764429 0.01797477 -2.091943E-08
v -4.705536 0.2261819 1.162517E-09
v -3.764429 0.05201386 0.03403907
v -4.705536 0.2942601 1.412756E-08
v -3.764429 0.08605292 -7.587666E-09
v -3.764429 0.05201386 0.03403907
v -2.823322 -0.1278891 -3.849628E-08
v -3.764429 0.01797477 -2.091943E-08
v -2.823322 -0.09385 0.03403905
v -3.764429 0.08605292 -7.587666E-09
v -2.823322 -0.05981092 -2.479778E-08
v -2.823322 -0.09385 0.03403905
v -1.882214 -0.2416221 -4.813256E-08
v -2.823322 -0.1278891 -3.849628E-08
v -1.882214 -0.207583 0.03403903
v -2.823322 -0.05981092 -2.479778E-08
v -1.882214 -0.173544 -3.406734E-08
v -1.882214 -0.207583 0.03403903
v -0.9411067 -0.2789115 -5.129337E-08
v -1.882214 -0.2416221 -4.813256E-08
v -0.9411067 -0.2448724 0.03403903
v -1.882214 -0.173544 -3.406734E-08
v -0.9411067 -0.2108334 -3.686144E-08
v -0.9411067 -0.2448724 0.03403903
v 4.577637E-07 -0.2942602 -4.835385E-08
v -0.9411067 -0.2789115 -5.129337E-08
v 4.577637E-07 -0.2602211 0.03403904
v -0.9411067 -0.2108334 -3.686144E-08
v 4.577637E-07 -0.2261821 -3.355519E-08
v 4.705536 0.226182 5.739419E-08
v 3.764429 0.05201389 0.03403911
v 4.705536 0.2602211 0.03403914
v 3.764429 0.01797481 2.40659E-08
v 3.764429 0.08605297 4.03315E-08
v 4.705536 0.2942602 7.402651E-08
v 3.764429 0.01797481 2.40659E-08
v 2.823322 -0.09384996 0.03403908
v 3.764429 0.05201389 0.03403911
v 2.823322 -0.127889 -4.757265E-09
v 2.823322 -0.05981088 1.114159E-08
v 3.764429 0.08605297 4.03315E-08
v 2.823322 -0.127889 -4.757265E-09
v 1.882215 -0.207583 0.03403905
v 2.823322 -0.09384996 0.03403908
v 1.882215 -0.241622 -2.563988E-08
v 1.882215 -0.1735439 -1.010776E-08
v 2.823322 -0.05981088 1.114159E-08
v 1.882215 -0.241622 -2.563988E-08
v 0.9411076 -0.2448724 0.03403904
v 1.882215 -0.207583 0.03403905
v 0.9411076 -0.2789115 -4.004703E-08
v 0.9411076 -0.2108334 -2.488165E-08
v 1.882215 -0.1735439 -1.010776E-08
v -4.705536 0.2261819 1.162517E-09
v -3.764429 0.05201384 -0.03403909
v -4.705536 0.260221 -0.03403907
v -3.764429 0.01797477 -2.091943E-08
v -3.764429 0.08605292 -7.587666E-09
v -4.705536 0.2942601 1.412756E-08
v -3.764429 0.01797477 -2.091943E-08
v -2.823322 -0.09385002 -0.03403911
v -3.764429 0.05201384 -0.03403909
v -2.823322 -0.1278891 -3.849628E-08
v -2.823322 -0.05981092 -2.479778E-08
v -3.764429 0.08605292 -7.587666E-09
v -2.823322 -0.1278891 -3.849628E-08
v -1.882214 -0.207583 -0.03403913
v -2.823322 -0.09385002 -0.03403911
v -1.882214 -0.2416221 -4.813256E-08
v -1.882214 -0.173544 -3.406734E-08
v -2.823322 -0.05981092 -2.479778E-08
v -1.882214 -0.2416221 -4.813256E-08
v -0.9411067 -0.2448725 -0.03403913
v -1.882214 -0.207583 -0.03403913
v -0.9411067 -0.2789115 -5.129337E-08
v -0.9411067 -0.2108334 -3.686144E-08
v -1.882214 -0.173544 -3.406734E-08
v -0.9411067 -0.2789115 -5.129337E-08
v 4.577637E-07 -0.2602212 -0.03403912
v -0.9411067 -0.2448725 -0.03403913
v 4.577637E-07 -0.2942602 -4.835385E-08
v 4.577637E-07 -0.2261821 -3.355519E-08
v -0.9411067 -0.2108334 -3.686144E-08
v 4.705536 0.2602211 -0.03403901
v 3.764429 0.01797481 2.40659E-08
v 4.705536 0.226182 5.739419E-08
v 3.764429 0.05201389 -0.03403905
v 4.705536 0.2942602 7.402651E-08
v 3.764429 0.08605297 4.03315E-08
v 3.764429 0.05201389 -0.03403905
v 2.823322 -0.127889 -4.757265E-09
v 3.764429 0.01797481 2.40659E-08
v 2.823322 -0.09384998 -0.03403908
v 3.764429 0.08605297 4.03315E-08
v 2.823322 -0.05981088 1.114159E-08
v 2.823322 -0.09384998 -0.03403908
v 1.882215 -0.241622 -2.563988E-08
v 2.823322 -0.127889 -4.757265E-09
v 1.882215 -0.207583 -0.0340391
v 2.823322 -0.05981088 1.114159E-08
v 1.882215 -0.1735439 -1.010776E-08
v 1.882215 -0.207583 -0.0340391
v 0.9411076 -0.2789115 -4.004703E-08
v 1.882215 -0.241622 -2.563988E-08
v 0.9411076 -0.2448725 -0.03403911
v 1.882215 -0.1735439 -1.010776E-08
v 0.9411076 -0.2108334 -2.488165E-08
vt 0.6382767 0.4542058
vt 0.7432631 0.4484188
vt 0.6382767 0.4484188
vt 0.7432631 0.4542058
vt 0.6382767 0.4599904
vt 0.7432631 0.4599904
vt 0.6349975 0.4599904
vt 0.7399839 0.4542058
vt 0.6349975 0.4542058
vt 0.7399839 0.4599904
vt 0.7399839 0.4484188
vt 0.6349975 0.4484188
vt 0.6382767 0.4542058
vt 0.7432631 0.4484188
vt 0.6382767 0.4484188
vt 0.7432631 0.4542058
vt 0.6382767 0.4599904
vt 0.7432631 0.4599904
vt 0.6382767 0.4542058
vt 0.7432631 0.4484188
vt 0.6382767 0.4484188
vt 0.7432631 0.4542058
vt 0.6382767 0.4599904
vt 0.7432631 0.4599904
vt 0.6382767 0.4542058
vt 0.7432631 0.4484188
vt 0.6382767 0.4484188
vt 0.7432631 0.4542058
vt 0.6382767 0.4599904
vt 0.7432631 0.4599904
vt 0.6382767 0.4542058
vt 0.7432631 0.4484188
vt 0.6382767 0.4484188
vt 0.7432631 0.4542058
vt 0.6382767 0.4599904
vt 0.7432631 0.4599904
vt 0.6382767 0.4542058
vt 0.7432631 0.4484188
vt 0.6382767 0.4484188
vt 0.7432631 0.4542058
vt 0.6382767 0.4599904
vt 0.7432631 0.4599904
vt 0.7432631 0.4484188
vt 0.6382767 0.4542058
vt 0.7432631 0.4542058
vt 0.6382767 0.4484188
vt 0.6382767 0.4599904
vt 0.7432631 0.4599904
vt 0.7432631 0.4484188
vt 0.6382767 0.4542058
vt 0.7432631 0.4542058
vt 0.6382767 0.4484188
vt 0.6382767 0.4599904
vt 0.7432631 0.4599904
vt 0.7432631 0.4484188
vt 0.6382767 0.4542058
vt 0.7432631 0.4542058
vt 0.6382767 0.4484188
vt 0.6382767 0.4599904
vt 0.7432631 0.4599904
vt 0.7432631 0.4484188
vt 0.6382767 0.4542058
vt 0.7432631 0.4542058
vt 0.6382767 0.4484188
vt 0.6382767 0.4599904
vt 0.7432631 0.4599904
vt 0.6349975 0.4599904
vt 0.7399839 0.4542058
vt 0.6349975 0.4542058
vt 0.7399839 0.4599904
vt 0.7399839 0.4484188
vt 0.6349975 0.4484188
vt 0.6349975 0.4599904
vt 0.7399839 0.4542058
vt 0.6349975 0.4542058
vt 0.7399839 0.4599904
vt 0.7399839 0.4484188
vt 0.6349975 0.4484188
vt 0.6349975 0.4599904
vt 0.7399839 0.4542058
vt 0.6349975 0.4542058
vt 0.7399839 0.4599904
vt 0.7399839 0.4484188
vt 0.6349975 0.4484188
vt 0.6349975 0.4599904
vt 0.7399839 0.4542058
vt 0.6349975 0.4542058
vt 0.7399839 0.4599904
vt 0.7399839 0.4484188
vt 0.6349975 0.4484188
vt 0.6349975 0.4599904
vt 0.7399839 0.4542058
vt 0.6349975 0.4542058
vt 0.7399839 0.4599904
vt 0.7399839 0.4484188
vt 0.6349975 0.4484188
vt 0.7399839 0.4542058
vt 0.6349975 0.4599904
vt 0.7399839 0.4599904
vt 0.6349975 0.4542058
vt 0.7399839 0.4484188
vt 0.6349975 0.4484188
vt 0.7399839 0.4542058
vt 0.6349975 0.4599904
vt 0.7399839 0.4599904
vt 0.6349975 0.4542058
vt 0.7399839 0.4484188
vt 0.6349975 0.4484188
vt 0.7399839 0.4542058
vt 0.6349975 0.4599904
vt 0.7399839 0.4599904
vt 0.6349975 0.4542058
vt 0.7399839 0.4484188
vt 0.6349975 0.4484188
vt 0.7399839 0.4542058
vt 0.6349975 0.4599904
vt 0.7399839 0.4599904
vt 0.6349975 0.4542058
vt 0.7399839 0.4484188
vt 0.6349975 0.4484188
vn 0.005436298 0 0.9999852
vn 0.02795324 -0.9996093 5.445896E-05
vn 0 -1 0
vn 0.003884083 5.446584E-05 0.9999925
vn 0 1 0
vn -0.02795324 0.9996093 -5.438873E-05
vn 0 -1 0
vn -0.003884087 -5.436748E-05 -0.9999925
vn -0.005436296 0 -0.9999852
vn 0.02795324 -0.9996093 5.445896E-05
vn -0.02795324 0.9996093 -5.438873E-05
vn 0 1 0
vn -0.06979045 -0.3154568 0.9463701
vn -0.1847752 -0.9827803 -0.001002324
vn -0.2054077 -0.928454 -0.3094848
vn 0.01084828 -0.001019826 0.9999406
vn 0.2054077 0.928454 0.3094847
vn 0.1847752 0.9827803 0.001002311
vn 0.01084828 -0.001019826 0.9999406
vn -0.1366082 -0.990625 -0.0003849864
vn -0.1847752 -0.9827803 -0.001002324
vn 0.005636585 -0.0003886942 0.999984
vn 0.1847752 0.9827803 0.001002311
vn 0.1366082 0.990625 0.0003849864
vn 0.005636585 -0.0003886942 0.999984
vn -0.07991421 -0.9968016 -0.000539119
vn -0.1366082 -0.990625 -0.0003849864
vn 0.01349326 -0.0005407995 0.9999088
vn 0.1366082 0.990625 0.0003849864
vn 0.07991423 0.9968016 0.0005391889
vn 0.01349326 -0.0005407995 0.9999088
vn -0.02795321 -0.9996093 -5.38971E-05
vn -0.07991421 -0.9968016 -0.000539119
vn 0.003884099 -5.408643E-05 0.9999925
vn 0.07991423 0.9968016 0.0005391889
vn 0.02795324 0.9996093 5.434658E-05
vn 0.003884099 -5.408643E-05 0.9999925
vn 0 -1 0
vn -0.02795321 -0.9996093 -5.38971E-05
vn 0.005436298 0 0.9999852
vn 0.02795324 0.9996093 5.434658E-05
vn 0 1 0
vn 0.2054079 -0.928454 0.3094847
vn 0.01084825 0.001019769 0.9999406
vn -0.06979055 0.3154567 0.9463701
vn 0.1847752 -0.9827803 0.001002157
vn -0.1847753 0.9827803 -0.001002213
vn -0.2054079 0.928454 -0.3094846
vn 0.1847752 -0.9827803 0.001002157
vn 0.005636534 0.0003885812 0.999984
vn 0.01084825 0.001019769 0.9999406
vn 0.1366082 -0.990625 0.0003848465
vn -0.1366083 0.990625 -0.0003849724
vn -0.1847753 0.9827803 -0.001002213
vn 0.1366082 -0.990625 0.0003848465
vn 0.01349322 0.0005408278 0.9999088
vn 0.005636534 0.0003885812 0.999984
vn 0.07991426 -0.9968016 0.000539315
vn -0.07991429 0.9968016 -0.0005390065
vn -0.1366083 0.990625 -0.0003849724
vn 0.07991426 -0.9968016 0.000539315
vn 0.003884083 5.446584E-05 0.9999925
vn 0.01349322 0.0005408278 0.9999088
vn 0.02795324 -0.9996093 5.445896E-05
vn -0.02795324 0.9996093 -5.438873E-05
vn -0.07991429 0.9968016 -0.0005390065
vn -0.2054077 -0.928454 -0.3094848
vn -0.01084825 0.001019897 -0.9999406
vn 0.06979048 0.3154568 -0.9463701
vn -0.1847752 -0.9827803 -0.001002324
vn 0.1847752 0.9827803 0.001002311
vn 0.2054077 0.928454 0.3094847
vn -0.1847752 -0.9827803 -0.001002324
vn -0.005636597 0.0003886378 -0.999984
vn -0.01084825 0.001019897 -0.9999406
vn -0.1366082 -0.990625 -0.0003849864
vn 0.1366082 0.990625 0.0003849864
vn 0.1847752 0.9827803 0.001002311
vn -0.1366082 -0.990625 -0.0003849864
vn -0.01349322 0.0005412782 -0.9999088
vn -0.005636597 0.0003886378 -0.999984
vn -0.07991421 -0.9968016 -0.000539119
vn 0.07991423 0.9968016 0.0005391889
vn 0.1366082 0.990625 0.0003849864
vn -0.07991421 -0.9968016 -0.000539119
vn -0.00388408 5.436747E-05 -0.9999925
vn -0.01349322 0.0005412782 -0.9999088
vn -0.02795321 -0.9996093 -5.38971E-05
vn 0.02795324 0.9996093 5.434658E-05
vn 0.07991423 0.9968016 0.0005391889
vn -0.02795321 -0.9996093 -5.38971E-05
vn -0.005436296 0 -0.9999852
vn -0.00388408 5.436747E-05 -0.9999925
vn 0 -1 0
vn 0 1 0
vn 0.02795324 0.9996093 5.434658E-05
vn 0.06979048 -0.3154564 -0.9463701
vn 0.1847752 -0.9827803 0.001002157
vn 0.2054079 -0.928454 0.3094847
vn -0.01084828 -0.001019698 -0.9999406
vn -0.2054079 0.928454 -0.3094846
vn -0.1847753 0.9827803 -0.001002213
vn -0.01084828 -0.001019698 -0.9999406
vn 0.1366082 -0.990625 0.0003848465
vn 0.1847752 -0.9827803 0.001002157
vn -0.005636511 -0.000388906 -0.999984
vn -0.1847753 0.9827803 -0.001002213
vn -0.1366083 0.990625 -0.0003849724
vn -0.005636511 -0.000388906 -0.999984
vn 0.07991426 -0.9968016 0.000539315
vn 0.1366082 -0.990625 0.0003848465
vn -0.01349321 -0.0005411938 -0.9999088
vn -0.1366083 0.990625 -0.0003849724
vn -0.07991429 0.9968016 -0.0005390065
vn -0.01349321 -0.0005411938 -0.9999088
vn 0.02795324 -0.9996093 5.445896E-05
vn 0.07991426 -0.9968016 0.000539315
vn -0.003884087 -5.436748E-05 -0.9999925
vn -0.07991429 0.9968016 -0.0005390065
vn -0.02795324 0.9996093 -5.438873E-05
g CH_Rope_01_0
f 3/3/3 2/2/2 1/1/1
f 4/4/4 1/1/1 2/2/2
f 1/1/1 4/4/4 5/5/5
f 6/6/6 5/5/5 4/4/4
f 9/9/9 8/8/8 7/7/7
f 10/10/10 7/7/7 8/8/8
f 8/8/8 9/9/9 11/11/11
f 12/12/12 11/11/11 9/9/9
f 15/15/15 14/14/14 13/13/13
f 16/16/16 13/13/13 14/14/14
f 13/13/13 16/16/16 17/17/17
f 18/18/18 17/17/17 16/16/16
f 21/21/21 20/20/20 19/19/19
f 22/22/22 19/19/19 20/20/20
f 19/19/19 22/22/22 23/23/23
f 24/24/24 23/23/23 22/22/22
f 27/27/27 26/26/26 25/25/25
f 28/28/28 25/25/25 26/26/26
f 25/25/25 28/28/28 29/29/29
f 30/30/30 29/29/29 28/28/28
f 33/33/33 32/32/32 31/31/31
f 34/34/34 31/31/31 32/32/32
f 31/31/31 34/34/34 35/35/35
f 36/36/36 35/35/35 34/34/34
f 39/39/39 38/38/38 37/37/37
f 40/40/40 37/37/37 38/38/38
f 37/37/37 40/40/40 41/41/41
f 42/42/42 41/41/41 40/40/40
f 45/45/45 44/44/44 43/43/43
f 46/46/46 43/43/43 44/44/44
f 44/44/44 45/45/45 47/47/47
f 48/48/48 47/47/47 45/45/45
f 51/51/51 50/50/50 49/49/49
f 52/52/52 49/49/49 50/50/50
f 50/50/50 51/51/51 53/53/53
f 54/54/54 53/53/53 51/51/51
f 57/57/57 56/56/56 55/55/55
f 58/58/58 55/55/55 56/56/56
f 56/56/56 57/57/57 59/59/59
f 60/60/60 59/59/59 57/57/57
f 63/63/63 62/62/62 61/61/61
f 64/64/64 61/61/61 62/62/62
f 62/62/62 63/63/63 65/65/65
f 66/66/66 65/65/65 63/63/63
f 69/69/69 68/68/68 67/67/67
f 70/70/70 67/67/67 68/68/68
f 68/68/68 69/69/69 71/71/71
f 72/72/72 71/71/71 69/69/69
f 75/75/75 74/74/74 73/73/73
f 76/76/76 73/73/73 74/74/74
f 74/74/74 75/75/75 77/77/77
f 78/78/78 77/77/77 75/75/75
f 81/81/81 80/80/80 79/79/79
f 82/82/82 79/79/79 80/80/80
f 80/80/80 81/81/81 83/83/83
f 84/84/84 83/83/83 81/81/81
f 87/87/87 86/86/86 85/85/85
f 88/88/88 85/85/85 86/86/86
f 86/86/86 87/87/87 89/89/89
f 90/90/90 89/89/89 87/87/87
f 93/93/93 92/92/92 91/91/91
f 94/94/94 91/91/91 92/92/92
f 92/92/92 93/93/93 95/95/95
f 96/96/96 95/95/95 93/93/93
f 99/99/99 98/98/98 97/97/97
f 100/100/100 97/97/97 98/98/98
f 97/97/97 100/100/100 101/101/101
f 102/102/102 101/101/101 100/100/100
f 105/105/105 104/104/104 103/103/103
f 106/106/106 103/103/103 104/104/104
f 103/103/103 106/106/106 107/107/107
f 108/108/108 107/107/107 106/106/106
f 111/111/111 110/110/110 109/109/109
f 112/112/112 109/109/109 110/110/110
f 109/109/109 112/112/112 113/113/113
f 114/114/114 113/113/113 112/112/112
f 117/117/117 116/116/116 115/115/115
f 118/118/118 115/115/115 116/116/116
f 115/115/115 118/118/118 119/119/119
f 120/120/120 119/119/119 118/118/118
