g CH_Rope_02
v 0.1093376 -0.5059034 0.034039
v 1.033369 -0.3264643 -7.422457E-08
v 0.1164886 -0.5391828 -8.32023E-08
v 1.026218 -0.2931848 0.03403901
v 0.1021865 -0.472624 -6.542785E-08
v 1.019067 -0.2599055 -5.60834E-08
v 0.1164886 -0.5391828 -8.32023E-08
v 1.026218 -0.2931849 -0.03403915
v 0.1093376 -0.5059035 -0.03403915
v 1.033369 -0.3264643 -7.422457E-08
v 1.019067 -0.2599055 -5.60834E-08
v 0.1021865 -0.472624 -6.542785E-08
v -4.600523 -0.9856383 0.03403908
v -3.629526 -1.024766 -4.211966E-08
v -4.593372 -1.018918 -1.093669E-08
v -3.636677 -0.9914863 0.03403905
v -4.607675 -0.9523588 5.004144E-09
v -3.643828 -0.9582069 -2.58121E-08
v -3.636677 -0.9914863 0.03403905
v -2.678777 -0.969662 -6.607242E-08
v -3.629526 -1.024766 -4.211966E-08
v -2.685929 -0.9363826 0.03403902
v -3.643828 -0.9582069 -2.58121E-08
v -2.69308 -0.9031031 -4.939813E-08
v -2.685929 -0.9363826 0.03403902
v -1.734779 -0.8831443 -8.068014E-08
v -2.678777 -0.969662 -6.607242E-08
v -1.74193 -0.8498648 0.034039
v -2.69308 -0.9031031 -4.939813E-08
v -1.749081 -0.8165854 -6.363912E-08
v -1.74193 -0.8498648 0.034039
v -0.8068404 -0.7218891 -8.547091E-08
v -1.734779 -0.8831443 -8.068014E-08
v -0.8139915 -0.6886097 0.034039
v -1.749081 -0.8165854 -6.363912E-08
v -0.8211426 -0.6553304 -6.806319E-08
v -0.8139915 -0.6886097 0.034039
v 0.1164886 -0.5391828 -8.32023E-08
v -0.8068404 -0.7218891 -8.547091E-08
v 0.1093376 -0.5059034 0.034039
v -0.8211426 -0.6553304 -6.806319E-08
v 0.1021865 -0.472624 -6.542785E-08
v 4.607675 0.9582068 4.529499E-08
v 3.72416 0.5902132 0.03403909
v 4.600523 0.9914863 0.03403913
v 3.731311 0.5569338 2.865679E-09
v 3.717009 0.6234927 2.210706E-08
v 4.593372 1.024766 6.49031E-08
v 3.731311 0.5569338 2.865679E-09
v 2.834699 0.2498922 0.03403905
v 3.72416 0.5902132 0.03403909
v 2.841851 0.2166127 -3.23334E-08
v 2.827548 0.2831716 -1.345875E-08
v 3.717009 0.6234927 2.210706E-08
v 2.841851 0.2166127 -3.23334E-08
v 1.938488 -0.05901516 0.03403902
v 2.834699 0.2498922 0.03403905
v 1.945639 -0.09229456 -5.818745E-08
v 1.931337 -0.02573574 -3.967953E-08
v 2.827548 0.2831716 -1.345875E-08
v 1.945639 -0.09229456 -5.818745E-08
v 1.026218 -0.2931848 0.03403901
v 1.938488 -0.05901516 0.03403902
v 1.033369 -0.3264643 -7.422457E-08
v 1.019067 -0.2599055 -5.60834E-08
v 1.931337 -0.02573574 -3.967953E-08
v -4.593372 -1.018918 -1.093669E-08
v -3.636677 -0.9914863 -0.03403911
v -4.600523 -0.9856383 -0.03403908
v -3.629526 -1.024766 -4.211966E-08
v -3.643828 -0.9582069 -2.58121E-08
v -4.607675 -0.9523588 5.004144E-09
v -3.629526 -1.024766 -4.211966E-08
v -2.685929 -0.9363826 -0.03403914
v -3.636677 -0.9914863 -0.03403911
v -2.678777 -0.969662 -6.607242E-08
v -2.69308 -0.9031031 -4.939813E-08
v -3.643828 -0.9582069 -2.58121E-08
v -2.678777 -0.969662 -6.607242E-08
v -1.74193 -0.8498648 -0.03403916
v -2.685929 -0.9363826 -0.03403914
v -1.734779 -0.8831443 -8.068014E-08
v -1.749081 -0.8165854 -6.363912E-08
v -2.69308 -0.9031031 -4.939813E-08
v -1.734779 -0.8831443 -8.068014E-08
v -0.8139915 -0.6886098 -0.03403916
v -1.74193 -0.8498648 -0.03403916
v -0.8068404 -0.7218891 -8.547091E-08
v -0.8211426 -0.6553304 -6.806319E-08
v -1.749081 -0.8165854 -6.363912E-08
v -0.8068404 -0.7218891 -8.547091E-08
v 0.1093376 -0.5059035 -0.03403915
v -0.8139915 -0.6886098 -0.03403916
v 0.1164886 -0.5391828 -8.32023E-08
v 0.1021865 -0.472624 -6.542785E-08
v -0.8211426 -0.6553304 -6.806319E-08
v 4.600523 0.9914863 -0.03403902
v 3.731311 0.5569338 2.865679E-09
v 4.607675 0.9582068 4.529499E-08
v 3.72416 0.5902132 -0.03403907
v 4.593372 1.024766 6.49031E-08
v 3.717009 0.6234927 2.210706E-08
v 3.72416 0.5902132 -0.03403907
v 2.841851 0.2166127 -3.23334E-08
v 3.731311 0.5569338 2.865679E-09
v 2.834699 0.2498921 -0.0340391
v 3.717009 0.6234927 2.210706E-08
v 2.827548 0.2831716 -1.345875E-08
v 2.834699 0.2498921 -0.0340391
v 1.945639 -0.09229456 -5.818745E-08
v 2.841851 0.2166127 -3.23334E-08
v 1.938488 -0.05901518 -0.03403914
v 2.827548 0.2831716 -1.345875E-08
v 1.931337 -0.02573574 -3.967953E-08
v 1.938488 -0.05901518 -0.03403914
v 1.033369 -0.3264643 -7.422457E-08
v 1.945639 -0.09229456 -5.818745E-08
v 1.026218 -0.2931849 -0.03403915
v 1.931337 -0.02573574 -3.967953E-08
v 1.019067 -0.2599055 -5.60834E-08
vt 0.6382767 0.4542058
vt 0.7432631 0.4484188
vt 0.6382767 0.4484188
vt 0.7432631 0.4542058
vt 0.6382767 0.4599904
vt 0.7432631 0.4599904
vt 0.6349975 0.4599904
vt 0.7399839 0.4542058
vt 0.6349975 0.4542058
vt 0.7399839 0.4599904
vt 0.7399839 0.4484188
vt 0.6349975 0.4484188
vt 0.6382767 0.4542058
vt 0.7432631 0.4484188
vt 0.6382767 0.4484188
vt 0.7432631 0.4542058
vt 0.6382767 0.4599904
vt 0.7432631 0.4599904
vt 0.6382767 0.4542058
vt 0.7432631 0.4484188
vt 0.6382767 0.4484188
vt 0.7432631 0.4542058
vt 0.6382767 0.4599904
vt 0.7432631 0.4599904
vt 0.6382767 0.4542058
vt 0.7432631 0.4484188
vt 0.6382767 0.4484188
vt 0.7432631 0.4542058
vt 0.6382767 0.4599904
vt 0.7432631 0.4599904
vt 0.6382767 0.4542058
vt 0.7432631 0.4484188
vt 0.6382767 0.4484188
vt 0.7432631 0.4542058
vt 0.6382767 0.4599904
vt 0.7432631 0.4599904
vt 0.6382767 0.4542058
vt 0.7432631 0.4484188
vt 0.6382767 0.4484188
vt 0.7432631 0.4542058
vt 0.6382767 0.4599904
vt 0.7432631 0.4599904
vt 0.7432631 0.4484188
vt 0.6382767 0.4542058
vt 0.7432631 0.4542058
vt 0.6382767 0.4484188
vt 0.6382767 0.4599904
vt 0.7432631 0.4599904
vt 0.7432631 0.4484188
vt 0.6382767 0.4542058
vt 0.7432631 0.4542058
vt 0.6382767 0.4484188
vt 0.6382767 0.4599904
vt 0.7432631 0.4599904
vt 0.7432631 0.4484188
vt 0.6382767 0.4542058
vt 0.7432631 0.4542058
vt 0.6382767 0.4484188
vt 0.6382767 0.4599904
vt 0.7432631 0.4599904
vt 0.7432631 0.4484188
vt 0.6382767 0.4542058
vt 0.7432631 0.4542058
vt 0.6382767 0.4484188
vt 0.6382767 0.4599904
vt 0.7432631 0.4599904
vt 0.6349975 0.4599904
vt 0.7399839 0.4542058
vt 0.6349975 0.4542058
vt 0.7399839 0.4599904
vt 0.7399839 0.4484188
vt 0.6349975 0.4484188
vt 0.6349975 0.4599904
vt 0.7399839 0.4542058
vt 0.6349975 0.4542058
vt 0.7399839 0.4599904
vt 0.7399839 0.4484188
vt 0.6349975 0.4484188
vt 0.6349975 0.4599904
vt 0.7399839 0.4542058
vt 0.6349975 0.4542058
vt 0.7399839 0.4599904
vt 0.7399839 0.4484188
vt 0.6349975 0.4484188
vt 0.6349975 0.4599904
vt 0.7399839 0.4542058
vt 0.6349975 0.4542058
vt 0.7399839 0.4599904
vt 0.7399839 0.4484188
vt 0.6349975 0.4484188
vt 0.6349975 0.4599904
vt 0.7399839 0.4542058
vt 0.6349975 0.4542058
vt 0.7399839 0.4599904
vt 0.7399839 0.4484188
vt 0.6349975 0.4484188
vt 0.7399839 0.4542058
vt 0.6349975 0.4599904
vt 0.7399839 0.4599904
vt 0.6349975 0.4542058
vt 0.7399839 0.4484188
vt 0.6349975 0.4484188
vt 0.7399839 0.4542058
vt 0.6349975 0.4599904
vt 0.7399839 0.4599904
vt 0.6349975 0.4542058
vt 0.7399839 0.4484188
vt 0.6349975 0.4484188
vt 0.7399839 0.4542058
vt 0.6349975 0.4599904
vt 0.7399839 0.4599904
vt 0.6349975 0.4542058
vt 0.7399839 0.4484188
vt 0.6349975 0.4484188
vt 0.7399839 0.4542058
vt 0.6349975 0.4599904
vt 0.7399839 0.4599904
vt 0.6349975 0.4542058
vt 0.7399839 0.4484188
vt 0.6349975 0.4484188
vn 0.005315037 0.00114179 0.9999852
vn 0.2373322 -0.9714286 5.443086E-05
vn 0.2100849 -0.9776831 0
vn 0.003786011 0.0008690925 0.9999925
vn -0.2100849 0.9776831 0
vn -0.2373322 0.9714286 -5.443088E-05
vn 0.2100849 -0.9776831 0
vn -0.003785938 -0.0008693456 -0.9999925
vn -0.005314794 -0.001142857 -0.9999852
vn 0.2373322 -0.9714286 5.443086E-05
vn -0.2373322 0.9714286 -5.443088E-05
vn -0.2100849 0.9776831 0
vn -0.001960234 -0.3230789 0.9463701
vn 0.02581575 -0.9996662 -0.001002505
vn -0.005769462 -0.9508868 -0.3094848
vn 0.01082043 0.001281959 0.9999406
vn 0.005769461 0.950887 0.3094846
vn -0.02581578 0.9996662 0.001002603
vn 0.01082043 0.001281959 0.9999406
vn 0.07455582 -0.9972167 -0.0003851122
vn 0.02581575 -0.9996662 -0.001002505
vn 0.005592488 0.0008037857 0.999984
vn -0.02581578 0.9996662 0.001002603
vn -0.07455582 0.9972167 0.0003852383
vn 0.005592488 0.0008037857 0.999984
vn 0.1312822 -0.9913449 -0.0005390485
vn 0.07455582 -0.9972167 -0.0003851122
vn 0.01330581 0.002305478 0.9999088
vn -0.07455582 0.9972167 0.0003852383
vn -0.1312822 0.9913449 0.0005390065
vn 0.01330581 0.002305478 0.9999088
vn 0.1826735 -0.9831737 -5.388303E-05
vn 0.1312822 -0.9913449 -0.0005390485
vn 0.003808801 0.0007629575 0.9999925
vn -0.1312822 0.9913449 0.0005390065
vn -0.1826734 0.9831737 5.416398E-05
vn 0.003808801 0.0007629575 0.9999925
vn 0.2100849 -0.9776831 0
vn 0.1826735 -0.9831737 -5.388303E-05
vn 0.005315037 0.00114179 0.9999852
vn -0.1826734 0.9831737 5.416398E-05
vn -0.2100849 0.9776831 0
vn 0.3958779 -0.8645808 0.3094848
vn 0.01039171 0.003276548 0.9999406
vn -0.1345058 0.2937548 0.9463701
vn 0.3871189 -0.9220292 0.001002269
vn -0.387119 0.9220292 -0.001002129
vn -0.3958781 0.8645809 -0.3094842
vn 0.3871189 -0.9220292 0.001002269
vn 0.005429089 0.001564163 0.999984
vn 0.01039171 0.003276548 0.9999406
vn 0.341675 -0.9398181 0.0003849446
vn -0.341675 0.9398181 -0.0003853361
vn -0.387119 0.9220292 -0.001002129
vn 0.341675 -0.9398181 0.0003849446
vn 0.01307849 0.003363415 0.9999088
vn 0.005429089 0.001564163 0.999984
vn 0.2875438 -0.9577673 0.0005392168
vn -0.2875438 0.9577673 -0.0005390347
vn -0.341675 0.9398181 -0.0003853361
vn 0.2875438 -0.9577673 0.0005392168
vn 0.003786011 0.0008690925 0.9999925
vn 0.01307849 0.003363415 0.9999088
vn 0.2373322 -0.9714286 5.443086E-05
vn -0.2373322 0.9714286 -5.443088E-05
vn -0.2875438 0.9577673 -0.0005390347
vn -0.005769462 -0.9508868 -0.3094848
vn -0.01082044 -0.001282058 -0.9999406
vn 0.001960234 0.3230788 -0.9463701
vn 0.02581575 -0.9996662 -0.001002505
vn -0.02581578 0.9996662 0.001002603
vn 0.005769461 0.950887 0.3094846
vn 0.02581575 -0.9996662 -0.001002505
vn -0.00559244 -0.000804435 -0.999984
vn -0.01082044 -0.001282058 -0.9999406
vn 0.07455582 -0.9972167 -0.0003851122
vn -0.07455582 0.9972167 0.0003852383
vn -0.02581578 0.9996662 0.001002603
vn 0.07455582 -0.9972167 -0.0003851122
vn -0.01330575 -0.00230583 -0.9999088
vn -0.00559244 -0.000804435 -0.999984
vn 0.1312822 -0.9913449 -0.0005390485
vn -0.1312822 0.9913449 0.0005390065
vn -0.07455582 0.9972167 0.0003852383
vn 0.1312822 -0.9913449 -0.0005390485
vn -0.00380873 -0.0007634072 -0.9999925
vn -0.01330575 -0.00230583 -0.9999088
vn 0.1826735 -0.9831737 -5.388303E-05
vn -0.1826734 0.9831737 5.416398E-05
vn -0.1312822 0.9913449 0.0005390065
vn 0.1826735 -0.9831737 -5.388303E-05
vn -0.005314794 -0.001142857 -0.9999852
vn -0.00380873 -0.0007634072 -0.9999925
vn 0.2100849 -0.9776831 0
vn -0.2100849 0.9776831 0
vn -0.1826734 0.9831737 5.416398E-05
vn 0.1345056 -0.2937546 -0.9463701
vn 0.3871189 -0.9220292 0.001002269
vn 0.3958779 -0.8645808 0.3094848
vn -0.01039214 -0.003275611 -0.9999406
vn -0.3958781 0.8645809 -0.3094842
vn -0.387119 0.9220292 -0.001002129
vn -0.01039214 -0.003275611 -0.9999406
vn 0.341675 -0.9398181 0.0003849446
vn 0.3871189 -0.9220292 0.001002269
vn -0.005429095 -0.001564122 -0.999984
vn -0.387119 0.9220292 -0.001002129
vn -0.341675 0.9398181 -0.0003853361
vn -0.005429095 -0.001564122 -0.999984
vn 0.2875438 -0.9577673 0.0005392168
vn 0.341675 -0.9398181 0.0003849446
vn -0.01307828 -0.003364119 -0.9999088
vn -0.341675 0.9398181 -0.0003853361
vn -0.2875438 0.9577673 -0.0005390347
vn -0.01307828 -0.003364119 -0.9999088
vn 0.2373322 -0.9714286 5.443086E-05
vn 0.2875438 -0.9577673 0.0005392168
vn -0.003785938 -0.0008693456 -0.9999925
vn -0.2875438 0.9577673 -0.0005390347
vn -0.2373322 0.9714286 -5.443088E-05
g CH_Rope_02_0
f 3/3/3 2/2/2 1/1/1
f 4/4/4 1/1/1 2/2/2
f 1/1/1 4/4/4 5/5/5
f 6/6/6 5/5/5 4/4/4
f 9/9/9 8/8/8 7/7/7
f 10/10/10 7/7/7 8/8/8
f 8/8/8 9/9/9 11/11/11
f 12/12/12 11/11/11 9/9/9
f 15/15/15 14/14/14 13/13/13
f 16/16/16 13/13/13 14/14/14
f 13/13/13 16/16/16 17/17/17
f 18/18/18 17/17/17 16/16/16
f 21/21/21 20/20/20 19/19/19
f 22/22/22 19/19/19 20/20/20
f 19/19/19 22/22/22 23/23/23
f 24/24/24 23/23/23 22/22/22
f 27/27/27 26/26/26 25/25/25
f 28/28/28 25/25/25 26/26/26
f 25/25/25 28/28/28 29/29/29
f 30/30/30 29/29/29 28/28/28
f 33/33/33 32/32/32 31/31/31
f 34/34/34 31/31/31 32/32/32
f 31/31/31 34/34/34 35/35/35
f 36/36/36 35/35/35 34/34/34
f 39/39/39 38/38/38 37/37/37
f 40/40/40 37/37/37 38/38/38
f 37/37/37 40/40/40 41/41/41
f 42/42/42 41/41/41 40/40/40
f 45/45/45 44/44/44 43/43/43
f 46/46/46 43/43/43 44/44/44
f 44/44/44 45/45/45 47/47/47
f 48/48/48 47/47/47 45/45/45
f 51/51/51 50/50/50 49/49/49
f 52/52/52 49/49/49 50/50/50
f 50/50/50 51/51/51 53/53/53
f 54/54/54 53/53/53 51/51/51
f 57/57/57 56/56/56 55/55/55
f 58/58/58 55/55/55 56/56/56
f 56/56/56 57/57/57 59/59/59
f 60/60/60 59/59/59 57/57/57
f 63/63/63 62/62/62 61/61/61
f 64/64/64 61/61/61 62/62/62
f 62/62/62 63/63/63 65/65/65
f 66/66/66 65/65/65 63/63/63
f 69/69/69 68/68/68 67/67/67
f 70/70/70 67/67/67 68/68/68
f 68/68/68 69/69/69 71/71/71
f 72/72/72 71/71/71 69/69/69
f 75/75/75 74/74/74 73/73/73
f 76/76/76 73/73/73 74/74/74
f 74/74/74 75/75/75 77/77/77
f 78/78/78 77/77/77 75/75/75
f 81/81/81 80/80/80 79/79/79
f 82/82/82 79/79/79 80/80/80
f 80/80/80 81/81/81 83/83/83
f 84/84/84 83/83/83 81/81/81
f 87/87/87 86/86/86 85/85/85
f 88/88/88 85/85/85 86/86/86
f 86/86/86 87/87/87 89/89/89
f 90/90/90 89/89/89 87/87/87
f 93/93/93 92/92/92 91/91/91
f 94/94/94 91/91/91 92/92/92
f 92/92/92 93/93/93 95/95/95
f 96/96/96 95/95/95 93/93/93
f 99/99/99 98/98/98 97/97/97
f 100/100/100 97/97/97 98/98/98
f 97/97/97 100/100/100 101/101/101
f 102/102/102 101/101/101 100/100/100
f 105/105/105 104/104/104 103/103/103
f 106/106/106 103/103/103 104/104/104
f 103/103/103 106/106/106 107/107/107
f 108/108/108 107/107/107 106/106/106
f 111/111/111 110/110/110 109/109/109
f 112/112/112 109/109/109 110/110/110
f 109/109/109 112/112/112 113/113/113
f 114/114/114 113/113/113 112/112/112
f 117/117/117 116/116/116 115/115/115
f 118/118/118 115/115/115 116/116/116
f 115/115/115 118/118/118 119/119/119
f 120/120/120 119/119/119 118/118/118
