g CH_Window
v 0.4366721 0.07717407 -0.0485638
v 0.4366721 -2.973661E-18 0.04856357
v 0.4366721 0.07717437 0.04856357
v 0.4366721 2.973675E-18 -0.0485638
v 0.3840025 0.2218814 -0.0485638
v 0.3840024 0.2218814 0.04856357
v 0.2850169 0.3398477 -0.04856381
v 0.2850169 0.3398477 0.04856356
v 0.1516542 0.4168445 -0.04856383
v 0.1516542 0.4168445 0.04856355
v -1.430331E-09 0.4435855 0.04856354
v 7.060814E-09 0.4435855 -0.04856384
v -0.1516542 0.4168445 -0.04856385
v -0.1516542 0.4168445 0.04856352
v -0.2850169 0.3398477 0.04856351
v -0.2850169 0.3398477 -0.04856387
v -0.3840024 0.2218814 0.0485635
v -0.3840025 0.2218814 -0.04856388
v -0.4366721 0.07717437 0.0485635
v -0.4366721 0.07717407 -0.04856388
v -0.4366721 -2.973657E-18 0.0485635
v -0.4366721 2.97368E-18 -0.04856388
v -0.4366721 -0.07717407 -0.04856388
v -0.4366721 -0.07717437 0.0485635
v -0.3840025 -0.2218814 -0.04856388
v -0.3840024 -0.2218814 0.0485635
v -0.2850169 -0.3398477 -0.04856387
v -0.2850169 -0.3398477 0.04856351
v -0.1516542 -0.4168445 -0.04856385
v -0.1516542 -0.4168445 0.04856352
v -1.430331E-09 -0.4435855 0.04856354
v 7.060814E-09 -0.4435855 -0.04856384
v 0.4366721 -2.973661E-18 0.04856357
v 0.327578 0.05793701 0.04854953
v 0.4366721 0.07717437 0.04856357
v 0.327578 -2.972801E-18 0.04854953
v 0.3840024 0.2218814 0.04856357
v 0.288067 0.1664917 0.04854952
v 0.2850169 0.3398477 0.04856356
v 0.2138116 0.2549866 0.04854952
v 0.1516542 0.4168445 0.04856355
v 0.1137666 0.3127472 0.04854951
v -1.429104E-09 0.3328076 0.0485495
v -1.430331E-09 0.4435855 0.04856354
v -0.1516542 0.4168445 0.04856352
v -0.1137666 0.3127472 0.04854949
v -0.2138116 0.2549866 0.04854948
v -0.2850169 0.3398477 0.04856351
v -0.288067 0.1664917 0.04854947
v -0.3840024 0.2218814 0.0485635
v -0.327578 0.05793701 0.04854947
v -0.4366721 0.07717437 0.0485635
v -0.4366721 -2.973657E-18 0.0485635
v -0.327578 -2.972798E-18 0.04854947
v -0.327578 -0.05793701 0.04854947
v -0.4366721 -0.07717437 0.0485635
v -0.3840024 -0.2218814 0.0485635
v -0.288067 -0.1664917 0.04854947
v -0.2850169 -0.3398477 0.04856351
v -0.2138116 -0.2549866 0.04854948
v -0.1516542 -0.4168445 0.04856352
v -0.1137666 -0.3127472 0.04854949
v -1.429104E-09 -0.3328076 0.0485495
v -1.430331E-09 -0.4435855 0.04856354
v 0.1516542 -0.4168445 0.04856355
v 0.1137666 -0.3127472 0.04854951
v 0.2138116 -0.2549866 0.04854952
v 0.2850169 -0.3398477 0.04856356
v 0.288067 -0.1664917 0.04854952
v 0.3840024 -0.2218814 0.04856357
v 0.327578 -0.05793701 0.04854953
v 0.4366721 -0.07717437 0.04856357
v 0.0346405 0.03308899 0.03220246
v 0.327578 -1.971833E-18 0.03220248
v 0.0346405 -1.971832E-18 0.03220246
v 0.327578 0.05793686 0.03220248
v 0 -1.971831E-18 0.03220245
v 0 0.03308899 0.03220245
v 0 0.3328076 0.03220245
v 0.05688334 0.3227774 0.03220246
v -0.0346405 0.03308899 0.03220245
v -0.0346405 -1.971831E-18 0.03220245
v -0.327578 -1.97183E-18 0.03220242
v -0.327578 0.05793686 0.03220242
v -0.05688334 0.3227774 0.03220245
v 0.0346405 -0.03308899 0.03220246
v 0.327578 -0.05793686 0.03220248
v 0 -0.03308899 0.03220245
v 0 -0.3328076 0.03220245
v 0.05688334 -0.3227774 0.03220246
v -0.0346405 -0.03308899 0.03220245
v -0.327578 -0.05793686 0.03220242
v -0.05688334 -0.3227774 0.03220245
v 0.03464049 0.03308899 0.0117453
v 0.327578 0.05793686 0.03220248
v 0.0346405 0.03308899 0.03220246
v 0.327578 0.05793671 0.01174533
v 0.0346405 0.03308899 0.03220246
v 0.05688332 0.3227774 0.0117453
v 0.03464049 0.03308899 0.0117453
v 0.05688334 0.3227774 0.03220246
v 0.1137666 0.3127472 0.04854951
v 0 0.3328076 0.03220245
v -1.429104E-09 0.3328076 0.0485495
v 0.05688334 0.3227774 0.03220246
v 0.1137666 0.3127472 0.01174531
v 0.2138116 0.2549866 0.01174532
v 0.2138116 0.2549866 0.04854952
v 0.288067 0.1664917 0.01174533
v 0.288067 0.1664917 0.04854952
v 0.327578 0.05793671 0.01174533
v 0.327578 0.05793686 0.03220248
v 0.327578 0.05793701 0.04854953
v 0.05688332 0.3227774 0.0117453
v 0.327578 -2.972801E-18 0.04854953
v 0.327578 -1.971833E-18 0.03220248
v 0.327578 -0.05793686 0.03220248
v 0.327578 -0.05793701 0.04854953
v 0.288067 -0.1664917 0.04854952
v 0.327578 -0.05793671 0.01174533
v 0.288067 -0.1664917 0.01174533
v 0.2138116 -0.2549866 0.04854952
v 0.2138116 -0.2549866 0.01174532
v 0.1137666 -0.3127472 0.04854951
v 0.1137666 -0.3127472 0.01174531
v 0.05688334 -0.3227774 0.03220246
v 0 -0.3328076 0.03220245
v -1.429104E-09 -0.3328076 0.0485495
v 0.05688332 -0.3227774 0.0117453
v 0.2138116 0.2549866 0.01174532
v 0.03464049 0.03308899 0.0117453
v 0.1137666 0.3127472 0.01174531
v 0.288067 0.1664917 0.01174533
v 0.327578 0.05793671 0.01174533
v 0.05688332 0.3227774 0.0117453
v -0.03464048 0.03308899 0.0117453
v -0.327578 0.05793686 0.03220242
v -0.327578 0.05793671 0.01174527
v -0.0346405 0.03308899 0.03220245
v -0.0346405 0.03308899 0.03220245
v -0.05688332 0.3227774 0.0117453
v -0.05688334 0.3227774 0.03220245
v -0.03464048 0.03308899 0.0117453
v -0.1137666 0.3127472 0.04854949
v 0 0.3328076 0.03220245
v -0.05688334 0.3227774 0.03220245
v -1.429104E-09 0.3328076 0.0485495
v -0.1137666 0.3127472 0.01174529
v -0.2138116 0.2549866 0.01174528
v -0.2138116 0.2549866 0.04854948
v -0.288067 0.1664917 0.01174527
v -0.288067 0.1664917 0.04854947
v -0.327578 0.05793671 0.01174527
v -0.327578 0.05793686 0.03220242
v -0.327578 0.05793701 0.04854947
v -0.05688332 0.3227774 0.0117453
v -0.327578 -2.972798E-18 0.04854947
v -0.327578 -1.97183E-18 0.03220242
v -0.327578 -0.05793686 0.03220242
v -0.327578 -0.05793701 0.04854947
v -0.288067 -0.1664917 0.04854947
v -0.327578 -0.05793671 0.01174527
v -0.288067 -0.1664917 0.01174527
v -0.2138116 -0.2549866 0.04854948
v -0.2138116 -0.2549866 0.01174528
v -0.1137666 -0.3127472 0.04854949
v -0.1137666 -0.3127472 0.01174529
v -0.05688334 -0.3227774 0.03220245
v 0 -0.3328076 0.03220245
v -1.429104E-09 -0.3328076 0.0485495
v -0.05688332 -0.3227774 0.0117453
v -0.2138116 0.2549866 0.01174528
v -0.1137666 0.3127472 0.01174529
v -0.03464048 0.03308899 0.0117453
v -0.288067 0.1664917 0.01174527
v -0.327578 0.05793671 0.01174527
v -0.05688332 0.3227774 0.0117453
v 0.4366721 -0.07717407 -0.0485638
v 0.4366721 -0.07717437 0.04856357
v 0.3840025 -0.2218814 -0.0485638
v 0.3840024 -0.2218814 0.04856357
v 0.2850169 -0.3398477 -0.04856381
v 0.2850169 -0.3398477 0.04856356
v 0.1516542 -0.4168445 -0.04856383
v 0.1516542 -0.4168445 0.04856355
v -1.430331E-09 -0.4435855 0.04856354
v 7.060814E-09 -0.4435855 -0.04856384
v 0.03464049 -0.03308899 0.0117453
v 0.327578 -0.05793686 0.03220248
v 0.327578 -0.05793671 0.01174533
v 0.0346405 -0.03308899 0.03220246
v 0.0346405 -0.03308899 0.03220246
v 0.05688332 -0.3227774 0.0117453
v 0.05688334 -0.3227774 0.03220246
v 0.03464049 -0.03308899 0.0117453
v 0.2138116 -0.2549866 0.01174532
v 0.1137666 -0.3127472 0.01174531
v 0.03464049 -0.03308899 0.0117453
v 0.288067 -0.1664917 0.01174533
v 0.327578 -0.05793671 0.01174533
v 0.05688332 -0.3227774 0.0117453
v -0.03464048 -0.03308899 0.0117453
v -0.327578 -0.05793686 0.03220242
v -0.0346405 -0.03308899 0.03220245
v -0.327578 -0.05793671 0.01174527
v -0.0346405 -0.03308899 0.03220245
v -0.05688332 -0.3227774 0.0117453
v -0.03464048 -0.03308899 0.0117453
v -0.05688334 -0.3227774 0.03220245
v -0.2138116 -0.2549866 0.01174528
v -0.03464048 -0.03308899 0.0117453
v -0.1137666 -0.3127472 0.01174529
v -0.288067 -0.1664917 0.01174527
v -0.327578 -0.05793671 0.01174527
v -0.05688332 -0.3227774 0.0117453
vt 0.3413603 0.9348894
vt 0.4056363 0.9896868
vt 0.4063555 0.9413264
vt 0.340667 0.9890323
vt 0.3626298 0.8264996
vt 0.4244144 0.8462163
vt 0.4074249 0.7248401
vt 0.4633975 0.7570853
vt 0.4732787 0.6366506
vt 0.5222366 0.6790029
vt 0.5964713 0.6107905
vt 0.5497255 0.5626434
vt 0.4732787 0.6366506
vt 0.5222366 0.6790029
vt 0.4633975 0.7570853
vt 0.4074249 0.7248401
vt 0.4244144 0.8462163
vt 0.3626298 0.8264996
vt 0.4063555 0.9413264
vt 0.3413603 0.9348894
vt 0.4056363 0.9896868
vt 0.340667 0.9890323
vt 0.3413603 0.9348894
vt 0.4063555 0.9413264
vt 0.3626298 0.8264996
vt 0.4244144 0.8462163
vt 0.4074249 0.7248401
vt 0.4633975 0.7570853
vt 0.4732787 0.6366506
vt 0.5222366 0.6790029
vt 0.5964713 0.6107905
vt 0.5497255 0.5626434
vt 0.4056363 0.9896868
vt 0.481489 0.9487327
vt 0.4063555 0.9413264
vt 0.4816345 0.9896868
vt 0.4244144 0.8462163
vt 0.4948312 0.869145
vt 0.4633975 0.7570853
vt 0.5266622 0.793956
vt 0.5222366 0.6790029
vt 0.5773776 0.7300588
vt 0.635013 0.6758106
vt 0.5964713 0.6107905
vt 0.5222366 0.6790029
vt 0.5773776 0.7300588
vt 0.5266622 0.793956
vt 0.4633975 0.7570853
vt 0.4948312 0.869145
vt 0.4244144 0.8462163
vt 0.481489 0.9487327
vt 0.4063555 0.9413264
vt 0.4056363 0.9896868
vt 0.4816345 0.9896868
vt 0.481489 0.9487327
vt 0.4063555 0.9413264
vt 0.4244144 0.8462163
vt 0.4948312 0.869145
vt 0.4633975 0.7570853
vt 0.5266622 0.793956
vt 0.5222366 0.6790029
vt 0.5773776 0.7300588
vt 0.635013 0.6758106
vt 0.5964713 0.6107905
vt 0.5222366 0.6790029
vt 0.5773776 0.7300588
vt 0.5266622 0.793956
vt 0.4633975 0.7570853
vt 0.4948312 0.869145
vt 0.4244144 0.8462163
vt 0.481489 0.9487327
vt 0.4063555 0.9413264
vt 0.03955724 0.04288094
vt 0.01429668 0.2665142
vt 0.01429656 0.04288089
vt 0.05852666 0.2665142
vt 0.01429644 0.01643573
vt 0.03955713 0.01643579
vt 0.2683673 0.01643585
vt 0.2607102 0.05986153
vt 0.03955724 0.04288094
vt 0.01429656 0.04288089
vt 0.01429668 0.2665142
vt 0.05852666 0.2665142
vt 0.2607102 0.05986153
vt 0.03955724 0.04288094
vt 0.05852666 0.2665142
vt 0.03955724 0.01643585
vt 0.2683673 0.01643585
vt 0.2607102 0.05986153
vt 0.03955724 0.04288094
vt 0.05852666 0.2665142
vt 0.2607102 0.05986153
vt 0.03465944 0.5011675
vt 0.0190435 0.2780444
vt 0.0190435 0.5011675
vt 0.03465944 0.2780444
vt 0.0190435 0.2780444
vt 0.03465944 0.5011675
vt 0.03465944 0.2780444
vt 0.0190435 0.5011675
vt 0.5773776 0.7300588
vt 0.6416363 0.6834398
vt 0.635013 0.6758106
vt 0.6150905 0.7123908
vt 0.5945734 0.7473841
vt 0.5462137 0.8054887
vt 0.5266622 0.793956
vt 0.5175819 0.875182
vt 0.4948312 0.869145
vt 0.5110987 0.9514077
vt 0.4940495 0.9497216
vt 0.481489 0.9487327
vt 0.6257557 0.7260091
vt 0.4816345 0.9896868
vt 0.4941927 0.9896868
vt 0.4940495 0.9497216
vt 0.481489 0.9487327
vt 0.4948312 0.869145
vt 0.5110987 0.9514077
vt 0.5175819 0.875182
vt 0.5266622 0.793956
vt 0.5462137 0.8054887
vt 0.5773776 0.7300588
vt 0.5945734 0.7473841
vt 0.6150905 0.7123908
vt 0.6416363 0.6834398
vt 0.635013 0.6758106
vt 0.6257557 0.7260091
vt 0.5462137 0.8054887
vt 0.7071447 0.9076795
vt 0.5945734 0.7473841
vt 0.5175819 0.875182
vt 0.5110987 0.9514077
vt 0.6257557 0.7260091
vt 0.03465944 0.5011675
vt 0.0190435 0.2780444
vt 0.03465944 0.2780444
vt 0.0190435 0.5011675
vt 0.0190435 0.2780444
vt 0.03465944 0.5011675
vt 0.0190435 0.5011675
vt 0.03465944 0.2780444
vt 0.5773776 0.7300588
vt 0.6416363 0.6834398
vt 0.6150905 0.7123908
vt 0.635013 0.6758106
vt 0.5945734 0.7473841
vt 0.5462137 0.8054887
vt 0.5266622 0.793956
vt 0.5175819 0.875182
vt 0.4948312 0.869145
vt 0.5110987 0.9514077
vt 0.4940495 0.9497216
vt 0.481489 0.9487327
vt 0.6257557 0.7260091
vt 0.4816345 0.9896868
vt 0.4941927 0.9896868
vt 0.4940495 0.9497216
vt 0.481489 0.9487327
vt 0.4948312 0.869145
vt 0.5110987 0.9514077
vt 0.5175819 0.875182
vt 0.5266622 0.793956
vt 0.5462137 0.8054887
vt 0.5773776 0.7300588
vt 0.5945734 0.7473841
vt 0.6150905 0.7123908
vt 0.6416363 0.6834398
vt 0.635013 0.6758106
vt 0.6257557 0.7260091
vt 0.5462137 0.8054887
vt 0.5945734 0.7473841
vt 0.7071447 0.9076795
vt 0.5175819 0.875182
vt 0.5110987 0.9514077
vt 0.6257557 0.7260091
vt 0.3413603 0.9348894
vt 0.4063555 0.9413264
vt 0.3626298 0.8264996
vt 0.4244144 0.8462163
vt 0.4074249 0.7248401
vt 0.4633975 0.7570853
vt 0.4732787 0.6366506
vt 0.5222366 0.6790029
vt 0.5964713 0.6107905
vt 0.5497255 0.5626434
vt 0.03465944 0.5011675
vt 0.0190435 0.2780444
vt 0.03465944 0.2780444
vt 0.0190435 0.5011675
vt 0.0190435 0.2780444
vt 0.03465944 0.5011675
vt 0.0190435 0.5011675
vt 0.03465944 0.2780444
vt 0.5462137 0.8054887
vt 0.5945734 0.7473841
vt 0.7071447 0.9076795
vt 0.5175819 0.875182
vt 0.5110987 0.9514077
vt 0.6257557 0.7260091
vt 0.03465944 0.5011675
vt 0.0190435 0.2780444
vt 0.0190435 0.5011675
vt 0.03465944 0.2780444
vt 0.0190435 0.2780444
vt 0.03465944 0.5011675
vt 0.03465944 0.2780444
vt 0.0190435 0.5011675
vt 0.5462137 0.8054887
vt 0.7071447 0.9076795
vt 0.5945734 0.7473841
vt 0.5175819 0.875182
vt 0.5110987 0.9514077
vt 0.6257557 0.7260091
vn 0.9848076 0.1736489 -5.456077E-07
vn 1 0 0
vn 0.9848075 0.1736499 0
vn 1 0 0
vn 0.8660246 0.5000016 8.965811E-07
vn 0.8660244 0.5000018 1.141649E-06
vn 0.642787 0.7660449 2.188821E-07
vn 0.6427872 0.7660449 0
vn 0.3420204 0.9396926 0
vn 0.3420204 0.9396926 0
vn 0 1 0
vn 0 1 0
vn -0.3420204 0.9396926 0
vn -0.3420204 0.9396926 0
vn -0.642787 0.7660449 0
vn -0.642787 0.7660449 2.188822E-07
vn -0.8660244 0.5000018 1.141649E-06
vn -0.8660246 0.5000016 8.96581E-07
vn -0.9848075 0.1736499 0
vn -0.9848076 0.1736489 -5.456077E-07
vn -1 0 0
vn -1 0 0
vn -0.9848076 -0.1736489 -5.456077E-07
vn -0.9848075 -0.1736499 0
vn -0.8660246 -0.5000016 8.96581E-07
vn -0.8660244 -0.5000018 1.141649E-06
vn -0.642787 -0.7660449 2.188822E-07
vn -0.642787 -0.7660449 0
vn -0.3420204 -0.9396926 0
vn -0.3420204 -0.9396926 0
vn 0 -1 0
vn 0 -1 0
vn -0.0001287661 0 1
vn -0.0001248889 -2.200382E-05 1
vn -0.0001248858 -2.200512E-05 1
vn -0.0001287661 0 1
vn -0.0001098425 -6.336094E-05 1
vn -0.0001098403 -6.335924E-05 1
vn -8.153195E-05 -9.707522E-05 1
vn -8.153033E-05 -9.707715E-05 1
vn -4.342974E-05 -0.0001190861 1
vn -4.343537E-05 -0.0001190924 1
vn 0 -0.0001267228 1
vn 0 -0.0001267228 1
vn 4.325378E-05 -0.0001190753 1
vn 4.324839E-05 -0.0001190688 1
vn 8.138276E-05 -9.707399E-05 1
vn 8.138034E-05 -9.707636E-05 1
vn 0.0001096516 -6.336413E-05 1
vn 0.0001096486 -6.3363E-05 1
vn 0.0001247079 -2.200696E-05 1
vn 0.0001247108 -2.200618E-05 1
vn 0.0001285913 0 1
vn 0.0001285913 0 1
vn 0.0001247079 2.200697E-05 1
vn 0.0001247108 2.200618E-05 1
vn 0.0001096486 6.3363E-05 1
vn 0.0001096516 6.336413E-05 1
vn 8.138034E-05 9.707636E-05 1
vn 8.138276E-05 9.707399E-05 1
vn 4.325378E-05 0.0001190753 1
vn 4.324839E-05 0.0001190688 1
vn 0 0.0001267228 1
vn 0 0.0001267228 1
vn -4.342973E-05 0.0001190861 1
vn -4.343537E-05 0.0001190924 1
vn -8.153033E-05 9.707715E-05 1
vn -8.153195E-05 9.707522E-05 1
vn -0.0001098403 6.335924E-05 1
vn -0.0001098425 6.336094E-05 1
vn -0.0001248889 2.200382E-05 1
vn -0.0001248858 2.200512E-05 1
vn 0 0 1
vn 0 0 1
vn 0 0 1
vn 0 0 1
vn 0 0 1
vn 0 0 1
vn 0 0 1
vn 0 0 1
vn 0 0 1
vn 0 0 1
vn 0 0 1
vn 0 0 1
vn 0 0 1
vn 0 0 1
vn 0 0 1
vn 0 0 1
vn 0 0 1
vn 0 0 1
vn 0 0 1
vn 0 0 1
vn 0 0 1
vn -0.08451957 0.9964218 -2.628109E-07
vn -0.08451912 0.9964219 -7.10045E-06
vn -0.08451961 0.9964218 0
vn -0.0845191 0.9964219 -7.432213E-06
vn 0.9970652 -0.07655656 -8.186232E-07
vn 0.9970652 -0.07655658 -9.244261E-07
vn 0.9970652 -0.07655656 -8.134231E-07
vn 0.9970652 -0.07655658 -9.296264E-07
vn -0.34202 -0.9396926 0
vn 0 -1 0
vn 0 -1 0
vn -0.1736506 -0.9848073 -2.034179E-07
vn -0.3420199 -0.9396926 0
vn -0.6427881 -0.766044 0
vn -0.6427881 -0.766044 0
vn -0.866026 -0.4999987 0
vn -0.866026 -0.4999988 2.834611E-07
vn -0.9396919 -0.3420221 2.0502E-06
vn -0.9729222 -0.231133 1.921333E-06
vn -0.9848074 -0.1736503 1.6209E-06
vn -0.1736507 -0.9848073 1.619054E-07
vn -1 0 0
vn -1 0 0
vn -0.9729222 0.231133 1.921333E-06
vn -0.9848074 0.1736503 1.6209E-06
vn -0.866026 0.4999988 2.834611E-07
vn -0.9396919 0.3420221 2.0502E-06
vn -0.866026 0.4999987 0
vn -0.6427881 0.7660441 0
vn -0.6427881 0.766044 0
vn -0.34202 0.9396926 0
vn -0.3420199 0.9396926 0
vn -0.1736507 0.9848073 -2.034179E-07
vn 0 1 0
vn 0 1 0
vn -0.1736507 0.9848073 1.619054E-07
vn 0 0 1
vn 0 0 1
vn 0 0 1
vn 0 0 1
vn 0 0 1
vn 0 0 1
vn 0.08451957 0.9964218 -2.439815E-07
vn 0.08451912 0.9964219 -7.099578E-06
vn 0.0845191 0.9964219 -7.432213E-06
vn 0.08451959 0.9964218 0
vn -0.9970652 -0.07655659 -1.040629E-06
vn -0.9970652 -0.07655658 -9.348266E-07
vn -0.9970652 -0.07655658 -9.296264E-07
vn -0.9970652 -0.07655659 -1.04583E-06
vn 0.34202 -0.9396926 0
vn 0 -1 0
vn 0.1736507 -0.9848073 -2.03418E-07
vn 0 -1 0
vn 0.3420199 -0.9396926 0
vn 0.6427881 -0.766044 0
vn 0.6427881 -0.7660441 0
vn 0.8660262 -0.4999987 0
vn 0.866026 -0.4999988 2.834604E-07
vn 0.9396919 -0.3420221 2.0502E-06
vn 0.9729222 -0.231133 1.921333E-06
vn 0.9848074 -0.1736503 1.620901E-06
vn 0.1736507 -0.9848073 1.619054E-07
vn 1 0 0
vn 1 0 0
vn 0.9729222 0.231133 1.921333E-06
vn 0.9848074 0.1736503 1.620901E-06
vn 0.866026 0.4999988 2.834604E-07
vn 0.9396919 0.3420221 2.0502E-06
vn 0.8660262 0.4999987 0
vn 0.6427881 0.7660441 0
vn 0.6427881 0.766044 0
vn 0.34202 0.9396926 0
vn 0.3420199 0.9396926 0
vn 0.1736507 0.9848073 -2.03418E-07
vn 0 1 0
vn 0 1 0
vn 0.1736507 0.9848073 1.619054E-07
vn 0 0 1
vn 0 0 1
vn 0 0 1
vn 0 0 1
vn 0 0 1
vn 0 0 1
vn 0.9848076 -0.1736489 -5.456077E-07
vn 0.9848075 -0.1736499 0
vn 0.8660246 -0.5000016 8.965811E-07
vn 0.8660244 -0.5000018 1.141649E-06
vn 0.642787 -0.7660449 2.188821E-07
vn 0.6427872 -0.7660449 0
vn 0.3420204 -0.9396926 0
vn 0.3420204 -0.9396926 0
vn 0 -1 0
vn 0 -1 0
vn -0.08451957 -0.9964218 -2.628109E-07
vn -0.08451912 -0.9964219 -7.10045E-06
vn -0.0845191 -0.9964219 -7.432213E-06
vn -0.08451961 -0.9964218 0
vn 0.9970652 0.07655656 -8.186232E-07
vn 0.9970652 0.07655658 -9.244261E-07
vn 0.9970652 0.07655658 -9.296264E-07
vn 0.9970652 0.07655656 -8.134231E-07
vn 0 0 1
vn 0 0 1
vn 0 0 1
vn 0 0 1
vn 0 0 1
vn 0 0 1
vn 0.08451957 -0.9964218 -2.439815E-07
vn 0.08451912 -0.9964219 -7.099578E-06
vn 0.08451959 -0.9964218 0
vn 0.0845191 -0.9964219 -7.432213E-06
vn -0.9970652 0.07655659 -1.040629E-06
vn -0.9970652 0.07655658 -9.348266E-07
vn -0.9970652 0.07655659 -1.04583E-06
vn -0.9970652 0.07655658 -9.296264E-07
vn 0 0 1
vn 0 0 1
vn 0 0 1
vn 0 0 1
vn 0 0 1
vn 0 0 1
g CH_Window_0
f 3/3/3 2/2/2 1/1/1
f 4/4/4 1/1/1 2/2/2
f 1/1/1 5/5/5 3/3/3
f 6/6/6 3/3/3 5/5/5
f 5/5/5 7/7/7 6/6/6
f 8/8/8 6/6/6 7/7/7
f 7/7/7 9/9/9 8/8/8
f 10/10/10 8/8/8 9/9/9
f 10/10/10 9/9/9 11/11/11
f 12/12/12 11/11/11 9/9/9
f 12/12/12 13/13/13 11/11/11
f 14/14/14 11/11/11 13/13/13
f 14/14/14 13/13/13 15/15/15
f 16/16/16 15/15/15 13/13/13
f 15/15/15 16/16/16 17/17/17
f 18/18/18 17/17/17 16/16/16
f 17/17/17 18/18/18 19/19/19
f 20/20/20 19/19/19 18/18/18
f 19/19/19 20/20/20 21/21/21
f 22/22/22 21/21/21 20/20/20
f 22/22/22 23/23/23 21/21/21
f 24/24/24 21/21/21 23/23/23
f 23/23/23 25/25/25 24/24/24
f 26/26/26 24/24/24 25/25/25
f 25/25/25 27/27/27 26/26/26
f 28/28/28 26/26/26 27/27/27
f 27/27/27 29/29/29 28/28/28
f 30/30/30 28/28/28 29/29/29
f 30/30/30 29/29/29 31/31/31
f 32/32/32 31/31/31 29/29/29
f 35/35/35 34/34/34 33/33/33
f 36/36/36 33/33/33 34/34/34
f 35/35/35 37/37/37 34/34/34
f 38/38/38 34/34/34 37/37/37
f 37/37/37 39/39/39 38/38/38
f 40/40/40 38/38/38 39/39/39
f 39/39/39 41/41/41 40/40/40
f 42/42/42 40/40/40 41/41/41
f 42/42/42 41/41/41 43/43/43
f 44/44/44 43/43/43 41/41/41
f 44/44/44 45/45/45 43/43/43
f 46/46/46 43/43/43 45/45/45
f 46/46/46 45/45/45 47/47/47
f 48/48/48 47/47/47 45/45/45
f 47/47/47 48/48/48 49/49/49
f 50/50/50 49/49/49 48/48/48
f 49/49/49 50/50/50 51/51/51
f 52/52/52 51/51/51 50/50/50
f 52/52/52 53/53/53 51/51/51
f 54/54/54 51/51/51 53/53/53
f 54/54/54 53/53/53 55/55/55
f 56/56/56 55/55/55 53/53/53
f 56/56/56 57/57/57 55/55/55
f 58/58/58 55/55/55 57/57/57
f 57/57/57 59/59/59 58/58/58
f 60/60/60 58/58/58 59/59/59
f 59/59/59 61/61/61 60/60/60
f 62/62/62 60/60/60 61/61/61
f 62/62/62 61/61/61 63/63/63
f 64/64/64 63/63/63 61/61/61
f 64/64/64 65/65/65 63/63/63
f 66/66/66 63/63/63 65/65/65
f 66/66/66 65/65/65 67/67/67
f 68/68/68 67/67/67 65/65/65
f 67/67/67 68/68/68 69/69/69
f 70/70/70 69/69/69 68/68/68
f 69/69/69 70/70/70 71/71/71
f 72/72/72 71/71/71 70/70/70
f 72/72/72 33/33/33 71/71/71
f 36/36/36 71/71/71 33/33/33
f 75/75/75 74/74/74 73/73/73
f 76/76/76 73/73/73 74/74/74
f 75/75/75 73/73/73 77/77/77
f 78/78/78 77/77/77 73/73/73
f 78/78/78 73/73/73 79/79/79
f 80/80/80 79/79/79 73/73/73
f 78/78/78 81/81/81 77/77/77
f 78/78/78 79/79/79 81/81/81
f 82/82/82 77/77/77 81/81/81
f 82/82/82 81/81/81 83/83/83
f 84/84/84 83/83/83 81/81/81
f 85/85/85 81/81/81 79/79/79
f 75/75/75 86/86/86 74/74/74
f 75/75/75 77/77/77 86/86/86
f 87/87/87 74/74/74 86/86/86
f 88/88/88 86/86/86 77/77/77
f 88/88/88 89/89/89 86/86/86
f 90/90/90 86/86/86 89/89/89
f 82/82/82 83/83/83 91/91/91
f 88/88/88 77/77/77 91/91/91
f 82/82/82 91/91/91 77/77/77
f 88/88/88 91/91/91 89/89/89
f 92/92/92 91/91/91 83/83/83
f 93/93/93 89/89/89 91/91/91
f 96/96/96 95/95/95 94/94/94
f 97/97/97 94/94/94 95/95/95
f 100/100/100 99/99/99 98/98/98
f 101/101/101 98/98/98 99/99/99
f 104/104/104 103/103/103 102/102/102
f 105/105/105 102/102/102 103/103/103
f 102/102/102 105/105/105 106/106/106
f 106/106/106 107/107/107 102/102/102
f 108/108/108 102/102/102 107/107/107
f 107/107/107 109/109/109 108/108/108
f 110/110/110 108/108/108 109/109/109
f 109/109/109 111/111/111 110/110/110
f 112/112/112 110/110/110 111/111/111
f 112/112/112 113/113/113 110/110/110
f 114/114/114 106/106/106 105/105/105
f 113/113/113 112/112/112 115/115/115
f 116/116/116 115/115/115 112/112/112
f 116/116/116 117/117/117 115/115/115
f 118/118/118 115/115/115 117/117/117
f 118/118/118 117/117/117 119/119/119
f 117/117/117 120/120/120 119/119/119
f 121/121/121 119/119/119 120/120/120
f 119/119/119 121/121/121 122/122/122
f 123/123/123 122/122/122 121/121/121
f 122/122/122 123/123/123 124/124/124
f 125/125/125 124/124/124 123/123/123
f 124/124/124 125/125/125 126/126/126
f 126/126/126 127/127/127 124/124/124
f 128/128/128 124/124/124 127/127/127
f 129/129/129 126/126/126 125/125/125
f 132/132/132 131/131/131 130/130/130
f 130/130/130 131/131/131 133/133/133
f 133/133/133 131/131/131 134/134/134
f 135/135/135 131/131/131 132/132/132
f 138/138/138 137/137/137 136/136/136
f 139/139/139 136/136/136 137/137/137
f 142/142/142 141/141/141 140/140/140
f 143/143/143 140/140/140 141/141/141
f 146/146/146 145/145/145 144/144/144
f 147/147/147 144/144/144 145/145/145
f 144/144/144 148/148/148 146/146/146
f 148/148/148 144/144/144 149/149/149
f 150/150/150 149/149/149 144/144/144
f 149/149/149 150/150/150 151/151/151
f 152/152/152 151/151/151 150/150/150
f 151/151/151 152/152/152 153/153/153
f 154/154/154 153/153/153 152/152/152
f 155/155/155 154/154/154 152/152/152
f 156/156/156 146/146/146 148/148/148
f 155/155/155 157/157/157 154/154/154
f 158/158/158 154/154/154 157/157/157
f 158/158/158 157/157/157 159/159/159
f 160/160/160 159/159/159 157/157/157
f 159/159/159 160/160/160 161/161/161
f 159/159/159 161/161/161 162/162/162
f 163/163/163 162/162/162 161/161/161
f 161/161/161 164/164/164 163/163/163
f 165/165/165 163/163/163 164/164/164
f 164/164/164 166/166/166 165/165/165
f 167/167/167 165/165/165 166/166/166
f 166/166/166 168/168/168 167/167/167
f 168/168/168 166/166/166 169/169/169
f 170/170/170 169/169/169 166/166/166
f 171/171/171 167/167/167 168/168/168
f 174/174/174 173/173/173 172/172/172
f 174/174/174 172/172/172 175/175/175
f 174/174/174 175/175/175 176/176/176
f 174/174/174 177/177/177 173/173/173
f 4/4/4 2/2/2 178/178/178
f 179/179/179 178/178/178 2/2/2
f 178/178/178 179/179/179 180/180/180
f 181/181/181 180/180/180 179/179/179
f 180/180/180 181/181/181 182/182/182
f 183/183/183 182/182/182 181/181/181
f 182/182/182 183/183/183 184/184/184
f 185/185/185 184/184/184 183/183/183
f 185/185/185 186/186/186 184/184/184
f 187/187/187 184/184/184 186/186/186
f 190/190/190 189/189/189 188/188/188
f 191/191/191 188/188/188 189/189/189
f 194/194/194 193/193/193 192/192/192
f 195/195/195 192/192/192 193/193/193
f 198/198/198 197/197/197 196/196/196
f 198/198/198 196/196/196 199/199/199
f 198/198/198 199/199/199 200/200/200
f 198/198/198 201/201/201 197/197/197
f 204/204/204 203/203/203 202/202/202
f 205/205/205 202/202/202 203/203/203
f 208/208/208 207/207/207 206/206/206
f 209/209/209 206/206/206 207/207/207
f 212/212/212 211/211/211 210/210/210
f 210/210/210 211/211/211 213/213/213
f 213/213/213 211/211/211 214/214/214
f 215/215/215 211/211/211 212/212/212
