g Camp_Portal_02_collider
v 1.925058 0.744366 -1.226483
v 2.262089 0.7443657 -0.5622085
v 1.033064E-07 0.7445965 0.1765327
v 2.379395 0.7443661 0.1765243
v 1.396441 0.7443658 -1.756137
v 0.7328323 0.7443658 -2.094477
v 1.033064E-07 0.7443658 -2.213237
v 2.260635 0.744366 0.9150241
v 1.924917 0.7443659 1.579332
v 1.393286 0.744366 2.106107
v 0.7283601 0.744366 2.447037
v 5.165318E-08 0.744366 2.56434
v -0.7328321 0.7443658 -2.094477
v -1.396441 0.7443658 -1.756137
v -1.925058 0.744366 -1.226483
v -2.26209 0.7443657 -0.5622085
v -2.379394 0.7443661 0.1765243
v -2.260635 0.744366 0.9150241
v -1.924917 0.7443659 1.579332
v -1.393286 0.744366 2.106107
v -0.7283598 0.744366 2.447037
v 1.92529 0.001474504 1.578074
v 2.260635 0.0006688451 0.9150242
v -1.925058 0.0006688499 -1.226483
v -2.26209 0.0006683922 -0.5622083
v -2.379394 0.0006689262 0.1765244
v -1.396441 0.000668621 -1.756137
v -0.7328322 0.00066854 -2.094477
v 1.033064E-07 0.0006686926 -2.213237
v 0.7328323 0.00066854 -2.094477
v 1.396441 0.000668621 -1.756137
v 1.925058 0.0006688499 -1.226483
v 2.262089 0.0006683922 -0.5622084
v 2.379395 0.0006689262 0.1765244
v -1.92529 0.001474504 1.578074
v -2.260635 0.0006688451 0.9150242
v 1.221298 0.0006691159 3.963982
v 0 0.0006691311 4.173934
v 2.277835 0.0006690175 3.39534
v 1.393286 0.744366 2.106107
v 3.092356 0.0006688685 2.525334
v 1.924917 0.7443659 1.579332
v 1.92529 0.001474504 1.578074
v -0.7283598 0.744366 2.447037
v -1.221298 0.0006691159 3.963982
v -2.277835 0.0006690175 3.39534
v -1.393286 0.744366 2.106107
v -3.092356 0.0006688685 2.525334
v -1.924917 0.7443659 1.579332
v -1.92529 0.001474504 1.578074
vt 0.1201358 0.2180354
vt 0.1611666 0.2389337
vt 0.2057289 0.09640741
vt 0.205623 0.2444576
vt 0.08648925 0.1851503
vt 0.06406731 0.1414636
vt 0.05066738 0.09640741
vt 0.2500835 0.2389588
vt 0.2911383 0.2180748
vt 0.324847 0.1852304
vt 0.3473773 0.141608
vt 0.3608266 0.09640741
vt 0.06406731 0.1414636
vt 0.08648925 0.1851503
vt 0.1201358 0.2180354
vt 0.1611666 0.2389337
vt 0.205623 0.2444576
vt 0.2500835 0.2389588
vt 0.2911383 0.2180748
vt 0.324847 0.1852304
vt 0.3473773 0.141608
vt 0.2911383 0.2180748
vt 0.2500835 0.2389588
vt 0.1201358 0.2180354
vt 0.1611666 0.2389337
vt 0.205623 0.2444576
vt 0.08648925 0.1851503
vt 0.06406731 0.1414636
vt 0.05066738 0.09640741
vt 0.06406731 0.1414636
vt 0.08648925 0.1851503
vt 0.1201358 0.2180354
vt 0.1611666 0.2389337
vt 0.205623 0.2444576
vt 0.2911383 0.2180748
vt 0.2500835 0.2389588
vt 0.3473773 0.141608
vt 0.3608266 0.09640741
vt 0.3473773 0.141608
vt 0.3473773 0.141608
vt 0.3473773 0.141608
vt 0.3473773 0.141608
vt 0.3473773 0.141608
vt 0.3473773 0.141608
vt 0.3473773 0.141608
vt 0.3473773 0.141608
vt 0.3473773 0.141608
vt 0.3473773 0.141608
vt 0.3473773 0.141608
vt 0.3473773 0.141608
vn 0.5986536 0.6734269 -0.4337166
vn 0.7029734 0.6737141 -0.2278986
vn 0 1 0
vn 0.7394401 0.673222 0.0007277612
vn 0.4348918 0.6734279 -0.5977994
vn 0.2296744 0.6738367 -0.7022777
vn 0 0.6727789 -0.7398436
vn 0.7026238 0.6740471 0.227992
vn 0.5189596 0.8519228 0.0700614
vn 0.1458702 0.9704525 0.1922079
vn 0.07624009 0.9714658 0.2245926
vn 0 0.971755 0.2359919
vn -0.2296742 0.6738368 -0.7022775
vn -0.4348916 0.6734279 -0.5977994
vn -0.5986536 0.6734269 -0.4337166
vn -0.7029734 0.6737141 -0.2278985
vn -0.73944 0.673222 0.0007278178
vn -0.7026238 0.674047 0.2279919
vn -0.5189596 0.8519228 0.0700614
vn -0.1458702 0.9704525 0.1922079
vn -0.07624008 0.9714658 0.2245926
vn 0.9780955 0.000945972 -0.2081542
vn 0.951194 -7.974744E-05 0.3085931
vn -0.8098079 0 -0.5866951
vn -0.9512597 0 -0.3083909
vn -0.9999995 0 0.0009845124
vn -0.5882855 -1.336141E-07 -0.8086533
vn -0.310841 -1.766745E-07 -0.9504619
vn 0 -2.057816E-07 -1
vn 0.3108411 -2.185235E-07 -0.9504619
vn 0.5882856 -1.670815E-07 -0.8086532
vn 0.809808 0 -0.586695
vn 0.9512596 0 -0.3083911
vn 0.9999995 0 0.0009844308
vn -0.9780955 0.000945972 -0.2081542
vn -0.9511942 -7.975025E-05 0.308593
vn 0.1351768 0.9060971 0.400893
vn 0 0.9072926 0.4204997
vn 0.257699 0.9025071 0.3450684
vn 0.1458702 0.9704525 0.1922079
vn 0.4922605 0.8678643 0.06701682
vn 0.5189596 0.8519228 0.0700614
vn 0.9780955 0.000945972 -0.2081542
vn -0.07624008 0.9714658 0.2245926
vn -0.1351768 0.9060971 0.400893
vn -0.257699 0.9025071 0.3450684
vn -0.1458702 0.9704525 0.1922079
vn -0.4922605 0.8678643 0.06701682
vn -0.5189596 0.8519228 0.0700614
vn -0.9780955 0.000945972 -0.2081542
g Camp_Portal_02_collider_0
f 3/3/3 2/2/2 1/1/1
f 2/2/2 3/3/3 4/4/4
f 3/3/3 1/1/1 5/5/5
f 6/6/6 3/3/3 5/5/5
f 3/3/3 6/6/6 7/7/7
f 3/3/3 8/8/8 4/4/4
f 8/8/8 3/3/3 9/9/9
f 9/9/9 3/3/3 10/10/10
f 3/3/3 11/11/11 10/10/10
f 11/11/11 3/3/3 12/12/12
f 13/13/13 3/3/3 7/7/7
f 3/3/3 13/13/13 14/14/14
f 15/15/15 3/3/3 14/14/14
f 16/16/16 3/3/3 15/15/15
f 3/3/3 16/16/16 17/17/17
f 18/18/18 3/3/3 17/17/17
f 3/3/3 18/18/18 19/19/19
f 3/3/3 19/19/19 20/20/20
f 21/21/21 3/3/3 20/20/20
f 3/3/3 21/21/21 12/12/12
f 9/9/9 22/22/22 8/8/8
f 22/22/22 23/23/23 8/8/8
f 15/15/15 24/24/24 16/16/16
f 24/24/24 25/25/25 16/16/16
f 16/16/16 25/25/25 17/17/17
f 25/25/25 26/26/26 17/17/17
f 17/17/17 26/26/26 18/18/18
f 27/27/27 24/24/24 15/15/15
f 14/14/14 27/27/27 15/15/15
f 28/28/28 27/27/27 14/14/14
f 13/13/13 28/28/28 14/14/14
f 29/29/29 28/28/28 13/13/13
f 7/7/7 29/29/29 13/13/13
f 30/30/30 29/29/29 7/7/7
f 6/6/6 30/30/30 7/7/7
f 31/31/31 30/30/30 6/6/6
f 5/5/5 31/31/31 6/6/6
f 32/32/32 31/31/31 5/5/5
f 1/1/1 32/32/32 5/5/5
f 33/33/33 32/32/32 1/1/1
f 2/2/2 33/33/33 1/1/1
f 34/34/34 33/33/33 2/2/2
f 4/4/4 34/34/34 2/2/2
f 23/23/23 34/34/34 4/4/4
f 8/8/8 23/23/23 4/4/4
f 36/36/36 35/35/35 19/19/19
f 18/18/18 36/36/36 19/19/19
f 26/26/26 36/36/36 18/18/18
f 38/38/38 37/37/37 11/11/11
f 12/12/12 38/38/38 11/11/11
f 37/37/37 39/39/39 11/11/11
f 39/39/39 40/40/40 11/11/11
f 39/39/39 41/41/41 40/40/40
f 41/41/41 42/42/42 40/40/40
f 41/41/41 43/43/43 42/42/42
f 38/38/38 12/12/12 44/44/44
f 45/45/45 38/38/38 44/44/44
f 46/46/46 45/45/45 44/44/44
f 47/47/47 46/46/46 44/44/44
f 48/48/48 46/46/46 47/47/47
f 49/49/49 48/48/48 47/47/47
f 50/50/50 48/48/48 49/49/49
