g Camp_Xmas_Box_02
v -0.2149238 0.4137214 -0.2133106
v 0.2149224 0.4137231 0.2133099
v -0.2149238 0.4137231 0.21331
v 0.2149226 0.4137214 -0.2133104
v -0.1775798 -1.381719E-08 0.1741901
v 0.2024297 0.2817391 0.1985676
v 0.1775785 -1.65233E-08 0.1741904
v -0.2024308 0.2817391 0.1985669
v 0.1775786 -1.124295E-06 -0.1741912
v 0.2024297 0.2817391 0.1985676
v 0.2024295 0.2817379 -0.1985679
v 0.1775785 -1.65233E-08 0.1741904
v -0.2024308 0.2817379 -0.198568
v 0.1775786 -1.124295E-06 -0.1741912
v 0.2024295 0.2817379 -0.1985679
v -0.1775798 -1.121589E-06 -0.1741914
v -0.1775798 -1.381719E-08 0.1741901
v -0.2024308 0.2817379 -0.198568
v -0.2024308 0.2817391 0.1985669
v -0.1775798 -1.121589E-06 -0.1741914
v 0.2149226 0.4137214 -0.2133104
v -0.2227847 0.3000991 -0.2187562
v 0.2227837 0.3000991 -0.2187559
v -0.2149238 0.4137214 -0.2133106
v -0.2149238 0.4137214 -0.2133106
v -0.2227848 0.3001002 0.2187561
v -0.2227847 0.3000991 -0.2187562
v -0.2149238 0.4137231 0.21331
v 0.2149224 0.4137231 0.2133099
v 0.2227837 0.3000991 -0.2187559
v 0.2227835 0.3001002 0.2187561
v 0.2149226 0.4137214 -0.2133104
v -0.2149238 0.4137231 0.21331
v 0.2227835 0.3001002 0.2187561
v -0.2227848 0.3001002 0.2187561
v 0.2149224 0.4137231 0.2133099
v 0.2227837 0.3000991 -0.2187559
v -0.2024308 0.2817379 -0.198568
v 0.2024295 0.2817379 -0.1985679
v -0.2227847 0.3000991 -0.2187562
v -0.2227847 0.3000991 -0.2187562
v -0.2024308 0.2817391 0.1985669
v -0.2024308 0.2817379 -0.198568
v -0.2227848 0.3001002 0.2187561
v 0.2227835 0.3001002 0.2187561
v 0.2024295 0.2817379 -0.1985679
v 0.2024297 0.2817391 0.1985676
v 0.2227837 0.3000991 -0.2187559
v -0.2227848 0.3001002 0.2187561
v 0.2024297 0.2817391 0.1985676
v -0.2024308 0.2817391 0.1985669
v 0.2227835 0.3001002 0.2187561
v 0.1578052 0.5304057 0.03852252
v 0.0967472 0.5111904 0.1719055
v 0.1856223 0.5104227 0.06466117
v 0.06728544 0.5308222 0.1493536
v 0.109733 0.4666829 0.1692254
v 0.1858767 0.466408 0.07654905
v 0.1652968 0.4395713 0.07047517
v 0.1003227 0.4397192 0.1496541
v 0.03443001 0.5158852 0.1110075
v 0.1145494 0.5158629 0.01302225
v 0.01552382 0.4228997 -0.003433399
v -0.006616914 0.4229116 0.02317451
v 0.01552382 0.4228997 -0.003433399
v 0.07270787 0.4229839 0.1169937
v -0.006616914 0.4229116 0.02317451
v 0.1257467 0.4229589 0.05095935
v 0.1003227 0.4397192 0.1496541
v 0.1652968 0.4395713 0.07047517
v 0.03671549 0.5304029 -0.1492819
v 0.1700992 0.511187 -0.08822417
v 0.06285544 0.5104193 -0.1771005
v 0.147547 0.5308194 -0.05876353
v 0.1674188 0.4666789 -0.1012114
v 0.07474237 0.4664051 -0.1773545
v 0.06866927 0.4395667 -0.1567735
v 0.1478478 0.4397164 -0.09180009
v 0.109201 0.5158823 -0.02590811
v 0.01121552 0.5158612 -0.1060275
v -0.005239158 0.4228979 -0.007000715
v 0.0213678 0.422911 0.01513896
v -0.005239158 0.4228979 -0.007000715
v 0.1151875 0.422981 -0.06418672
v 0.0213678 0.422911 0.01513896
v 0.04915262 0.4229555 -0.1172232
v 0.1478478 0.4397164 -0.09180009
v 0.06866927 0.4395667 -0.1567735
v -0.1468033 0.530404 -0.01836946
v -0.08574591 0.5111887 -0.1517519
v -0.1746209 0.510421 -0.04450807
v -0.05628363 0.5308205 -0.1292005
v -0.09873267 0.46668 -0.1490716
v -0.1748749 0.4664057 -0.05639601
v -0.1542953 0.4395684 -0.05032266
v -0.08932138 0.4397181 -0.1295004
v -0.02342891 0.5158828 -0.09085442
v -0.1035478 0.5158607 0.007130257
v -0.00452221 0.4228979 0.02358589
v 0.01761758 0.4229105 -0.003021358
v -0.00452221 0.4228979 0.02358589
v -0.06170683 0.4229822 -0.09684115
v 0.01761758 0.4229105 -0.003021358
v -0.1147449 0.4229566 -0.0308063
v -0.08932138 0.4397181 -0.1295004
v -0.1542953 0.4395684 -0.05032266
v -0.03266368 0.530404 0.1706593
v -0.1660469 0.5111887 0.1096004
v -0.05880346 0.510421 0.1984751
v -0.1434937 0.5308205 0.08013802
v -0.1633667 0.46668 0.1225859
v -0.07069048 0.4664057 0.1987296
v -0.06461804 0.4395684 0.1781494
v -0.1437954 0.4397181 0.1131746
v -0.1051486 0.5158828 0.04728324
v -0.007163386 0.5158607 0.1274038
v 0.00929072 0.4228979 0.02837533
v -0.01731562 0.422911 0.00623617
v 0.00929072 0.4228979 0.02837533
v -0.1111355 0.4229822 0.08555959
v -0.01731562 0.422911 0.00623617
v -0.045101 0.4229566 0.1385984
v -0.1437954 0.4397181 0.1131746
v -0.06461804 0.4395684 0.1781494
v -0.0284933 0.4839787 0.02580249
v -0.00413906 0.4644664 -0.03258637
v -0.04045621 0.4646929 0.01144875
v 0.01255072 0.4838017 -0.02282015
v -0.007013473 0.4847919 0.04328622
v 0.03293068 0.4845842 -0.004805491
v 0.04930014 0.4662208 0.01404445
v 0.01388359 0.4663795 0.05606773
v 0.003649219 0.4317969 0.03376148
v 0.02642835 0.4317411 0.006187756
v -0.009419968 0.4309228 0.02091833
v 0.01262723 0.4308562 -0.005382641
v 0.1578052 0.5348091 0.03852252
v 0.0967472 0.5155949 0.1719055
v 0.06728516 0.5352268 0.1493536
v 0.1856223 0.5148261 0.06466117
v 0.1097328 0.4710868 0.1692254
v 0.185877 0.4708119 0.07654903
v 0.1652967 0.4439747 0.07047518
v 0.1003227 0.4441237 0.1496541
v 0.03443015 0.5202891 0.1110075
v 0.1145495 0.5202669 0.01302224
v 0.01552382 0.427303 -0.003433398
v -0.006617197 0.4273156 0.02317453
v 0.01552382 0.427303 -0.003433398
v 0.07270787 0.4273878 0.1169937
v 0.1257467 0.4273633 0.05095877
v -0.006617197 0.4273156 0.02317453
v 0.1003227 0.4441237 0.1496541
v 0.1652967 0.4439747 0.07047518
v 0.03671549 0.5348068 -0.1492819
v 0.1700989 0.5155904 -0.08822472
v 0.1475467 0.5352228 -0.05876351
v 0.06285507 0.5148233 -0.1770999
v 0.1674188 0.4710833 -0.1012114
v 0.07474293 0.4708091 -0.1773545
v 0.06866927 0.4439701 -0.1567735
v 0.1478478 0.4441198 -0.09180009
v 0.109201 0.5202862 -0.02590811
v 0.01121543 0.5202652 -0.1060269
v -0.005239675 0.4273013 -0.007000098
v 0.02136808 0.4273149 0.01513894
v -0.005239675 0.4273013 -0.007000098
v 0.1151875 0.4273844 -0.06418615
v 0.04915262 0.4273593 -0.1172232
v 0.02136808 0.4273149 0.01513894
v 0.1478478 0.4441198 -0.09180009
v 0.06866927 0.4439701 -0.1567735
v -0.1468034 0.5348068 -0.01836945
v -0.08574596 0.515592 -0.1517524
v -0.05628363 0.535224 -0.1292005
v -0.1746212 0.5148244 -0.04450805
v -0.09873267 0.4710839 -0.1490716
v -0.1748746 0.4708096 -0.05639603
v -0.1542953 0.4439718 -0.05032266
v -0.08932152 0.4441215 -0.1295004
v -0.02342905 0.5202868 -0.09085441
v -0.1035479 0.5202646 0.00713027
v -0.00452221 0.4273019 0.02358589
v 0.01761758 0.4273144 -0.003021358
v -0.00452221 0.4273019 0.02358589
v -0.06170683 0.4273861 -0.09684115
v -0.1147448 0.4273599 -0.03080631
v 0.01761758 0.4273144 -0.003021358
v -0.08932152 0.4441215 -0.1295004
v -0.1542953 0.4439718 -0.05032266
v -0.03266353 0.5348074 0.1706593
v -0.1660469 0.515592 0.1096004
v -0.1434937 0.535224 0.08013802
v -0.05880317 0.5148244 0.1984751
v -0.1633664 0.4710839 0.1225859
v -0.07069028 0.4708102 0.1987302
v -0.06461804 0.4439718 0.1781494
v -0.1437954 0.4441215 0.1131746
v -0.1051482 0.5202868 0.04728321
v -0.007163244 0.5202646 0.1274038
v 0.00929072 0.4273019 0.02837533
v -0.01731562 0.4273149 0.006236171
v 0.00929072 0.4273019 0.02837533
v -0.1111358 0.4273861 0.08555961
v -0.045101 0.4273599 0.1385984
v -0.01731562 0.4273149 0.006236171
v -0.1437954 0.4441215 0.1131746
v -0.06461804 0.4439718 0.1781494
vt 0.9887788 0.734321
vt 0.807443 0.542399
vt 0.9887788 0.542399
vt 0.807443 0.734321
vt 0.8010884 0.4082398
vt 0.9910217 0.5345774
vt 0.9910217 0.4082398
vt 0.8010884 0.5345774
vt 0.9910217 0.4082304
vt 0.8010886 0.5345864
vt 0.9910217 0.5345864
vt 0.8010886 0.4082304
vt 0.9910217 0.5345768
vt 0.8010886 0.4082398
vt 0.8010886 0.5345768
vt 0.9910217 0.4082398
vt 0.9910217 0.4082304
vt 0.8010886 0.5345864
vt 0.9910217 0.5345864
vt 0.8010886 0.4082304
vt 0.9858404 0.4018362
vt 0.8051348 0.3606904
vt 0.9886007 0.3606904
vt 0.8078949 0.4018362
vt 0.9858404 0.4018362
vt 0.8051345 0.3606904
vt 0.9886007 0.3606904
vt 0.8078949 0.4018362
vt 0.8078949 0.4018362
vt 0.9886007 0.3606904
vt 0.8051345 0.3606904
vt 0.9858404 0.4018362
vt 0.8078949 0.4018362
vt 0.9886003 0.3606904
vt 0.8051345 0.3606904
vt 0.9858404 0.4018362
vt 0.9886007 0.3606904
vt 0.8135156 0.3506189
vt 0.9802198 0.3506189
vt 0.8051348 0.3606904
vt 0.9886007 0.3606904
vt 0.8136005 0.3506189
vt 0.9801348 0.3506189
vt 0.8051345 0.3606904
vt 0.8051345 0.3606904
vt 0.9801348 0.3506189
vt 0.8136005 0.3506189
vt 0.9886007 0.3606904
vt 0.8051345 0.3606904
vt 0.9802195 0.3506189
vt 0.8135154 0.3506189
vt 0.9886003 0.3606904
vt 0.1097625 0.9079912
vt 0.009173667 0.8841333
vt 0.1079209 0.883947
vt 0.008319661 0.9068328
vt 0.01183417 0.8730535
vt 0.1048681 0.8728812
vt 0.1009031 0.8596337
vt 0.01462934 0.8595922
vt 0.01438794 0.9299507
vt 0.104108 0.9314397
vt 0.06748983 0.9921623
vt 0.04295148 0.9920353
vt 0.06763029 0.7468706
vt 0.02197907 0.83051
vt 0.04309171 0.7469693
vt 0.09211688 0.8298568
vt 0.01462934 0.8595922
vt 0.1009031 0.8596337
vt 0.1097625 0.9079912
vt 0.009173667 0.8841333
vt 0.1079209 0.883947
vt 0.008319661 0.9068328
vt 0.01183417 0.8730535
vt 0.1048681 0.8728812
vt 0.1009031 0.8596337
vt 0.01462934 0.8595922
vt 0.01438794 0.9299507
vt 0.104108 0.9314397
vt 0.06748983 0.9921623
vt 0.04295148 0.9920353
vt 0.06763029 0.7468706
vt 0.02197907 0.83051
vt 0.04309171 0.7469693
vt 0.09211688 0.8298568
vt 0.01462934 0.8595922
vt 0.1009031 0.8596337
vt 0.1097625 0.9079912
vt 0.009173667 0.8841333
vt 0.1079209 0.883947
vt 0.008319661 0.9068328
vt 0.01183417 0.8730535
vt 0.1048681 0.8728812
vt 0.1009031 0.8596337
vt 0.01462934 0.8595922
vt 0.01438794 0.9299507
vt 0.104108 0.9314397
vt 0.06748983 0.9921623
vt 0.04295148 0.9920353
vt 0.06763029 0.7468706
vt 0.02197907 0.83051
vt 0.04309171 0.7469693
vt 0.09211688 0.8298568
vt 0.01462934 0.8595922
vt 0.1009031 0.8596337
vt 0.1097625 0.9079912
vt 0.009173667 0.8841333
vt 0.1079209 0.883947
vt 0.008319661 0.9068328
vt 0.01183417 0.8730535
vt 0.1048681 0.8728812
vt 0.1009031 0.8596337
vt 0.01462934 0.8595922
vt 0.01438794 0.9299507
vt 0.104108 0.9314397
vt 0.06748983 0.9921623
vt 0.04295148 0.9920353
vt 0.06763029 0.7468706
vt 0.02197907 0.83051
vt 0.04309171 0.7469693
vt 0.09211688 0.8298568
vt 0.01462934 0.8595922
vt 0.1009031 0.8596337
vt 0.1568463 0.809113
vt 0.1102427 0.791189
vt 0.1535924 0.7898412
vt 0.1085314 0.8109092
vt 0.157102 0.8254065
vt 0.1096228 0.8268787
vt 0.1132519 0.8478652
vt 0.1549867 0.8464264
vt 0.1480268 0.878323
vt 0.1208699 0.8793095
vt 0.142913 0.7569674
vt 0.1168478 0.7577398
vt 0.1097625 0.9079912
vt 0.009173667 0.8841333
vt 0.008319661 0.9068328
vt 0.1079209 0.883947
vt 0.01183417 0.8730535
vt 0.1048681 0.8728812
vt 0.1009031 0.8596337
vt 0.01462934 0.8595922
vt 0.01438794 0.9299507
vt 0.104108 0.9314397
vt 0.06748983 0.9921623
vt 0.04295148 0.9920353
vt 0.06763029 0.7468706
vt 0.02197907 0.83051
vt 0.09211688 0.8298568
vt 0.04309171 0.7469693
vt 0.01462934 0.8595922
vt 0.1009031 0.8596337
vt 0.1097625 0.9079912
vt 0.009173667 0.8841333
vt 0.008319661 0.9068328
vt 0.1079209 0.883947
vt 0.01183417 0.8730535
vt 0.1048681 0.8728812
vt 0.1009031 0.8596337
vt 0.01462934 0.8595922
vt 0.01438794 0.9299507
vt 0.104108 0.9314397
vt 0.06748983 0.9921623
vt 0.04295148 0.9920353
vt 0.06763029 0.7468706
vt 0.02197907 0.83051
vt 0.09211688 0.8298568
vt 0.04309171 0.7469693
vt 0.01462934 0.8595922
vt 0.1009031 0.8596337
vt 0.1097625 0.9079912
vt 0.009173667 0.8841333
vt 0.008319661 0.9068328
vt 0.1079209 0.883947
vt 0.01183417 0.8730535
vt 0.1048681 0.8728812
vt 0.1009031 0.8596337
vt 0.01462934 0.8595922
vt 0.01438794 0.9299507
vt 0.104108 0.9314397
vt 0.06748983 0.9921623
vt 0.04295148 0.9920353
vt 0.06763029 0.7468706
vt 0.02197907 0.83051
vt 0.09211688 0.8298568
vt 0.04309171 0.7469693
vt 0.01462934 0.8595922
vt 0.1009031 0.8596337
vt 0.1097625 0.9079912
vt 0.009173667 0.8841333
vt 0.008319661 0.9068328
vt 0.1079209 0.883947
vt 0.01183417 0.8730535
vt 0.1048681 0.8728812
vt 0.1009031 0.8596337
vt 0.01462934 0.8595922
vt 0.01438794 0.9299507
vt 0.104108 0.9314397
vt 0.06748983 0.9921623
vt 0.04295148 0.9920353
vt 0.06763029 0.7468706
vt 0.02197907 0.83051
vt 0.09211688 0.8298568
vt 0.04309171 0.7469693
vt 0.01462934 0.8595922
vt 0.1009031 0.8596337
vn 0 1 -4.023749E-06
vn 0 1 -4.023749E-06
vn 0 1 -4.023748E-06
vn 0 1 -4.023751E-06
vn -1.376559E-06 -0.08620104 0.9962777
vn -5.597847E-07 -0.51121 0.8594559
vn -8.032209E-07 -0.08620179 0.9962777
vn -1.498123E-06 -0.5112182 0.8594509
vn 0.9961324 -0.08786476 0
vn 0.8582221 -0.5132785 1.143024E-06
vn 0.8582214 -0.5132798 1.237213E-06
vn 0.9961324 -0.0878655 5.52077E-07
vn 4.650612E-07 -0.5112051 -0.8594587
vn 4.823222E-07 -0.08619996 -0.9962779
vn 2.429413E-07 -0.5112047 -0.859459
vn 8.019073E-07 -0.08619954 -0.9962779
vn -0.9961325 -0.08786438 2.686229E-07
vn -0.8582234 -0.5132763 1.478197E-06
vn -0.8582203 -0.5132815 1.298668E-06
vn -0.9961325 -0.08786444 2.248511E-07
vn 5.538657E-07 0.04787178 -0.9988536
vn 5.362717E-07 0.04787185 -0.9988536
vn 5.579033E-07 0.04787177 -0.9988536
vn 5.318631E-07 0.04787187 -0.9988536
vn -0.9976153 0.06901959 -2.711853E-07
vn -0.9976153 0.06901943 -3.120262E-07
vn -0.9976153 0.06901963 -2.615008E-07
vn -0.9976153 0.06901938 -3.223183E-07
vn 0.9976152 0.06902052 2.751912E-07
vn 0.9976152 0.06902097 1.54186E-07
vn 0.9976152 0.06902039 3.03885E-07
vn 0.9976152 0.06902109 1.236918E-07
vn 0 0.04787638 0.9988533
vn 0 0.04787661 0.9988533
vn 0 0.04787634 0.9988533
vn 0 0.04787666 0.9988533
vn 2.007049E-07 -0.7397877 -0.6728403
vn 4.650612E-07 -0.5112051 -0.8594587
vn 2.429413E-07 -0.5112047 -0.859459
vn 3.427612E-07 -0.7397893 -0.6728386
vn -0.6698245 -0.7425195 2.113978E-06
vn -0.8582203 -0.5132815 1.298668E-06
vn -0.8582234 -0.5132763 1.478197E-06
vn -0.6698211 -0.7425224 1.819087E-06
vn 0.6698242 -0.7425197 1.721756E-06
vn 0.8582214 -0.5132798 1.237213E-06
vn 0.8582221 -0.5132785 1.143024E-06
vn 0.6698188 -0.7425246 2.198706E-06
vn -1.09416E-06 -0.7398059 0.6728203
vn -5.597847E-07 -0.51121 0.8594559
vn -1.498123E-06 -0.5112182 0.8594509
vn 0 -0.7397947 0.6728325
vn -0.08627509 -0.9939097 -0.06855594
vn -0.6020983 -0.6274003 -0.4938081
vn -0.6055862 -0.6226154 -0.4955961
vn -0.09256978 -0.9931087 -0.07187282
vn -0.7621334 0.1551675 -0.6285504
vn -0.761381 0.1683801 -0.6260567
vn -0.6218611 0.5921608 -0.5124785
vn -0.6236583 0.5899231 -0.5128754
vn 0.3766421 -0.8728396 0.3103091
vn 0.373031 -0.8761805 0.3052142
vn 0.7322079 0.3145663 0.6040857
vn 0.7298068 0.3142674 0.6071393
vn 0.7322079 0.3145663 0.6040857
vn -0.1643632 0.9774747 -0.1323929
vn 0.7298068 0.3142674 0.6071393
vn -0.1622199 0.9777036 -0.1333434
vn -0.2851013 0.9301458 -0.2314005
vn -0.2782032 0.93257 -0.2300352
vn -0.06855985 -0.9939098 0.08627123
vn -0.4938102 -0.6274008 0.6020961
vn -0.4955992 -0.6226138 0.6055852
vn -0.07188176 -0.993107 0.09258255
vn -0.6285548 0.1551737 0.7621285
vn -0.6260527 0.1683768 0.761385
vn -0.5124784 0.5921507 0.621871
vn -0.5128685 0.589951 0.6236374
vn 0.3103043 -0.8728415 -0.3766418
vn 0.3052012 -0.8761861 -0.3730282
vn 0.6040714 0.3145622 -0.7322215
vn 0.6071348 0.3142307 -0.7298263
vn 0.6040714 0.3145622 -0.7322215
vn -0.1323975 0.977474 0.1643634
vn 0.6071348 0.3142307 -0.7298263
vn -0.1333389 0.9777075 0.1622
vn -0.2314014 0.9301466 0.2850977
vn -0.2300311 0.9325796 0.2781742
vn 0.08626934 -0.9939106 0.06855227
vn 0.6020927 -0.6274081 0.4938049
vn 0.6055869 -0.6226151 0.4955955
vn 0.09256395 -0.9931097 0.07186794
vn 0.7621288 0.1551792 0.6285533
vn 0.761386 0.1683744 0.6260522
vn 0.6218689 0.5921517 0.5124797
vn 0.6236249 0.5899653 0.5128675
vn -0.3766458 -0.8728369 -0.3103121
vn -0.3730355 -0.8761775 -0.305217
vn -0.7322159 0.3145683 -0.604075
vn -0.7298185 0.3142561 -0.607131
vn -0.7322159 0.3145683 -0.604075
vn 0.1643665 0.9774728 0.1324033
vn -0.7298185 0.3142561 -0.607131
vn 0.1622081 0.9777048 0.1333489
vn 0.2851016 0.930143 0.2314112
vn 0.2781821 0.9325747 0.2300417
vn 0.06855031 -0.9939108 -0.08626817
vn 0.493812 -0.6273987 -0.6020969
vn 0.4955988 -0.6226122 -0.6055872
vn 0.07186307 -0.9931109 -0.09255549
vn 0.6285545 0.1551925 -0.762125
vn 0.6260577 0.1683715 -0.7613822
vn 0.5124843 0.5921512 -0.6218656
vn 0.5128716 0.589967 -0.6236197
vn -0.3103165 -0.8728365 0.3766433
vn -0.3052167 -0.8761803 0.3730294
vn -0.6040767 0.3145618 0.7322174
vn -0.6071315 0.3142465 0.7298222
vn -0.6040767 0.3145618 0.7322174
vn 0.1324027 0.9774739 -0.1643606
vn -0.6071315 0.3142465 0.7298222
vn 0.1333488 0.9777052 -0.1622051
vn 0.2314099 0.9301454 -0.2850946
vn 0.2300406 0.9325767 -0.2781761
vn 0.2995954 -0.9200071 0.2526453
vn 0.7614052 -0.1237174 0.6363615
vn 0.7635136 -0.1400886 0.6304143
vn 0.2944612 -0.9218158 0.2520876
vn -0.2239423 -0.9570569 -0.1840972
vn -0.2204335 -0.9588469 -0.1789462
vn -0.7393446 -0.2728325 -0.6155746
vn -0.7334174 -0.2852489 -0.6170349
vn -0.6430126 0.5439047 -0.5391684
vn -0.6439984 0.5486717 -0.5331279
vn 0.5747331 0.6666242 0.4746515
vn 0.5699742 0.6696745 0.4760941
vn 0.08628009 0.9939095 0.06855389
vn 0.6021011 0.6274007 0.4938042
vn 0.09257019 0.9931095 0.07186274
vn 0.6055882 0.6226153 0.4955936
vn 0.7621318 -0.1551709 0.6285515
vn 0.7613803 -0.1683739 0.6260594
vn 0.6218602 -0.5921597 0.5124809
vn 0.6236498 -0.5899313 0.5128762
vn -0.3766418 0.8728376 -0.3103152
vn -0.3730276 0.876183 -0.305211
vn -0.7322049 -0.3145761 -0.6040844
vn -0.7298099 -0.3142541 -0.6071424
vn -0.7322049 -0.3145761 -0.6040844
vn 0.1643742 -0.9774725 0.132395
vn 0.1622155 -0.9777046 0.1333405
vn -0.7298099 -0.3142541 -0.6071424
vn 0.2851031 -0.9301453 0.2313998
vn 0.2781799 -0.9325783 0.2300296
vn 0.06856462 0.9939092 -0.08627446
vn 0.4938095 0.6274006 -0.6020969
vn 0.07188477 0.993107 -0.09258013
vn 0.4955964 0.6226203 -0.6055809
vn 0.6285539 -0.1551652 -0.7621312
vn 0.626057 -0.1683645 -0.7613842
vn 0.5124833 -0.5921471 -0.6218705
vn 0.5128754 -0.5899352 -0.6236468
vn -0.3102989 0.8728437 0.376641
vn -0.3051985 0.8761871 0.3730284
vn -0.6040573 -0.3145634 0.7322327
vn -0.6071094 -0.3142329 0.7298465
vn -0.6040573 -0.3145634 0.7322327
vn 0.1323936 -0.9774745 -0.1643638
vn 0.1333344 -0.9777079 -0.1622004
vn -0.6071094 -0.3142329 0.7298465
vn 0.2313962 -0.9301484 -0.285096
vn 0.2300251 -0.9325831 -0.2781679
vn -0.08627316 0.9939101 -0.06855352
vn -0.6020944 0.6274083 -0.4938028
vn -0.09257032 0.9931091 -0.07186744
vn -0.6055847 0.6226199 -0.4955921
vn -0.7621301 -0.1551759 -0.6285525
vn -0.7613873 -0.1683723 -0.6260512
vn -0.6218764 -0.59214 -0.5124842
vn -0.6236316 -0.5899545 -0.5128716
vn 0.3766392 0.8728406 0.3103097
vn 0.3730265 0.8761837 0.3052102
vn 0.7322181 -0.3145668 0.6040733
vn 0.7298184 -0.3142563 0.6071309
vn 0.7322181 -0.3145668 0.6040733
vn -0.1643569 -0.9774745 -0.1324025
vn -0.1622033 -0.9777054 -0.1333493
vn 0.7298184 -0.3142563 0.6071309
vn -0.2850932 -0.9301461 -0.2314089
vn -0.2781824 -0.9325747 -0.2300412
vn -0.0685536 0.9939101 0.08627319
vn -0.4938113 0.6273984 0.6020977
vn -0.07186734 0.9931099 0.09256127
vn -0.4955983 0.6226153 0.6055844
vn -0.6285548 -0.1551875 0.7621257
vn -0.6260622 -0.1683542 0.7613822
vn -0.5124897 -0.5921403 0.6218716
vn -0.5128773 -0.5899543 0.6236271
vn 0.3103136 0.8728395 -0.3766388
vn 0.3052143 0.876183 -0.3730249
vn 0.6040751 -0.3145618 -0.7322186
vn 0.6071308 -0.3142494 -0.7298216
vn 0.6040751 -0.3145618 -0.7322186
vn -0.1324026 -0.9774753 0.1643522
vn -0.1333495 -0.9777059 0.1622007
vn 0.6071308 -0.3142494 -0.7298216
vn -0.2314085 -0.9301478 0.2850878
vn -0.2300407 -0.9325765 0.2781768
g Camp_Xmas_Box_02_0
f 3/3/3 2/2/2 1/1/1
f 4/4/4 1/1/1 2/2/2
f 7/7/7 6/6/6 5/5/5
f 8/8/8 5/5/5 6/6/6
f 11/11/11 10/10/10 9/9/9
f 12/12/12 9/9/9 10/10/10
f 15/15/15 14/14/14 13/13/13
f 16/16/16 13/13/13 14/14/14
f 19/19/19 18/18/18 17/17/17
f 20/20/20 17/17/17 18/18/18
f 23/23/23 22/22/22 21/21/21
f 24/24/24 21/21/21 22/22/22
f 27/27/27 26/26/26 25/25/25
f 28/28/28 25/25/25 26/26/26
f 31/31/31 30/30/30 29/29/29
f 32/32/32 29/29/29 30/30/30
f 35/35/35 34/34/34 33/33/33
f 36/36/36 33/33/33 34/34/34
f 39/39/39 38/38/38 37/37/37
f 40/40/40 37/37/37 38/38/38
f 43/43/43 42/42/42 41/41/41
f 44/44/44 41/41/41 42/42/42
f 47/47/47 46/46/46 45/45/45
f 48/48/48 45/45/45 46/46/46
f 51/51/51 50/50/50 49/49/49
f 52/52/52 49/49/49 50/50/50
f 55/55/55 54/54/54 53/53/53
f 56/56/56 53/53/53 54/54/54
f 54/54/54 55/55/55 57/57/57
f 58/58/58 57/57/57 55/55/55
f 58/58/58 59/59/59 57/57/57
f 60/60/60 57/57/57 59/59/59
f 56/56/56 61/61/61 53/53/53
f 62/62/62 53/53/53 61/61/61
f 62/62/62 61/61/61 63/63/63
f 64/64/64 63/63/63 61/61/61
f 67/67/67 66/66/66 65/65/65
f 68/68/68 65/65/65 66/66/66
f 66/66/66 69/69/69 68/68/68
f 70/70/70 68/68/68 69/69/69
f 73/73/73 72/72/72 71/71/71
f 74/74/74 71/71/71 72/72/72
f 72/72/72 73/73/73 75/75/75
f 76/76/76 75/75/75 73/73/73
f 76/76/76 77/77/77 75/75/75
f 78/78/78 75/75/75 77/77/77
f 74/74/74 79/79/79 71/71/71
f 80/80/80 71/71/71 79/79/79
f 80/80/80 79/79/79 81/81/81
f 82/82/82 81/81/81 79/79/79
f 85/85/85 84/84/84 83/83/83
f 86/86/86 83/83/83 84/84/84
f 84/84/84 87/87/87 86/86/86
f 88/88/88 86/86/86 87/87/87
f 91/91/91 90/90/90 89/89/89
f 92/92/92 89/89/89 90/90/90
f 90/90/90 91/91/91 93/93/93
f 94/94/94 93/93/93 91/91/91
f 94/94/94 95/95/95 93/93/93
f 96/96/96 93/93/93 95/95/95
f 92/92/92 97/97/97 89/89/89
f 98/98/98 89/89/89 97/97/97
f 98/98/98 97/97/97 99/99/99
f 100/100/100 99/99/99 97/97/97
f 103/103/103 102/102/102 101/101/101
f 104/104/104 101/101/101 102/102/102
f 102/102/102 105/105/105 104/104/104
f 106/106/106 104/104/104 105/105/105
f 109/109/109 108/108/108 107/107/107
f 110/110/110 107/107/107 108/108/108
f 108/108/108 109/109/109 111/111/111
f 112/112/112 111/111/111 109/109/109
f 112/112/112 113/113/113 111/111/111
f 114/114/114 111/111/111 113/113/113
f 110/110/110 115/115/115 107/107/107
f 116/116/116 107/107/107 115/115/115
f 116/116/116 115/115/115 117/117/117
f 118/118/118 117/117/117 115/115/115
f 121/121/121 120/120/120 119/119/119
f 122/122/122 119/119/119 120/120/120
f 120/120/120 123/123/123 122/122/122
f 124/124/124 122/122/122 123/123/123
f 127/127/127 126/126/126 125/125/125
f 128/128/128 125/125/125 126/126/126
f 125/125/125 128/128/128 129/129/129
f 130/130/130 129/129/129 128/128/128
f 130/130/130 131/131/131 129/129/129
f 132/132/132 129/129/129 131/131/131
f 132/132/132 131/131/131 133/133/133
f 134/134/134 133/133/133 131/131/131
f 127/127/127 135/135/135 126/126/126
f 136/136/136 126/126/126 135/135/135
f 139/139/139 138/138/138 137/137/137
f 140/140/140 137/137/137 138/138/138
f 138/138/138 141/141/141 140/140/140
f 142/142/142 140/140/140 141/141/141
f 142/142/142 141/141/141 143/143/143
f 144/144/144 143/143/143 141/141/141
f 139/139/139 137/137/137 145/145/145
f 146/146/146 145/145/145 137/137/137
f 146/146/146 147/147/147 145/145/145
f 148/148/148 145/145/145 147/147/147
f 151/151/151 150/150/150 149/149/149
f 152/152/152 149/149/149 150/150/150
f 150/150/150 151/151/151 153/153/153
f 154/154/154 153/153/153 151/151/151
f 157/157/157 156/156/156 155/155/155
f 158/158/158 155/155/155 156/156/156
f 156/156/156 159/159/159 158/158/158
f 160/160/160 158/158/158 159/159/159
f 160/160/160 159/159/159 161/161/161
f 162/162/162 161/161/161 159/159/159
f 157/157/157 155/155/155 163/163/163
f 164/164/164 163/163/163 155/155/155
f 164/164/164 165/165/165 163/163/163
f 166/166/166 163/163/163 165/165/165
f 169/169/169 168/168/168 167/167/167
f 170/170/170 167/167/167 168/168/168
f 168/168/168 169/169/169 171/171/171
f 172/172/172 171/171/171 169/169/169
f 175/175/175 174/174/174 173/173/173
f 176/176/176 173/173/173 174/174/174
f 174/174/174 177/177/177 176/176/176
f 178/178/178 176/176/176 177/177/177
f 178/178/178 177/177/177 179/179/179
f 180/180/180 179/179/179 177/177/177
f 175/175/175 173/173/173 181/181/181
f 182/182/182 181/181/181 173/173/173
f 182/182/182 183/183/183 181/181/181
f 184/184/184 181/181/181 183/183/183
f 187/187/187 186/186/186 185/185/185
f 188/188/188 185/185/185 186/186/186
f 186/186/186 187/187/187 189/189/189
f 190/190/190 189/189/189 187/187/187
f 193/193/193 192/192/192 191/191/191
f 194/194/194 191/191/191 192/192/192
f 192/192/192 195/195/195 194/194/194
f 196/196/196 194/194/194 195/195/195
f 196/196/196 195/195/195 197/197/197
f 198/198/198 197/197/197 195/195/195
f 193/193/193 191/191/191 199/199/199
f 200/200/200 199/199/199 191/191/191
f 200/200/200 201/201/201 199/199/199
f 202/202/202 199/199/199 201/201/201
f 205/205/205 204/204/204 203/203/203
f 206/206/206 203/203/203 204/204/204
f 204/204/204 205/205/205 207/207/207
f 208/208/208 207/207/207 205/205/205
