g Camp_Arena_Flag01
v 0 -0.3276918 0.05148697
v 0.2635773 -0.7712245 0.05148697
v 0 -0.5918135 0.05148697
v 0.1524164 -0.3281694 0.05148697
v 0.3460144 -0.6986415 0.05148697
v 0.3421466 -0.7729211 0.05148697
v 0.3460144 -0.3280484 0.05148693
v 0.3786395 -0.7092181 0.05148697
v 0.2722479 -0.8022531 0.05148697
v 0 0.03574142 0.05148693
v 0.3460144 0.03574142 0.05148693
v 0.119826 0.3725224 0.04588985
v 0.3460144 0.372595 0.04573627
v 0 0.3723082 0.05148693
v 0.1264111 0.6643985 0.04090694
v 0 0.6411703 0.05148689
v 0.2464203 0.7386826 0.03998562
v 0.3460144 0.7386826 0.03998562
v -0.1264117 0.6643985 0.04090694
v -0.1198267 0.3725224 0.04588985
v -0.3460144 0.03574142 0.05148693
v -0.3460144 0.372595 0.04573627
v -0.3460144 -0.3280484 0.05148693
v -0.1524158 -0.3281694 0.05148697
v -0.3460144 -0.6986415 0.05148697
v -0.2635767 -0.7712245 0.05148697
v -0.3421472 -0.7729211 0.05148697
v -0.3786395 -0.7092181 0.05148697
v -0.2722479 -0.8022531 0.05148697
v -0.2464203 0.7386826 0.03998562
v -0.3460144 0.7386826 0.03998562
v 0.3460144 0.7386826 0.03998562
v 0.2464203 0.7778937 0.02225975
v 0.3460144 0.7778937 0.02225967
v 0.2464203 0.7386826 0.03998562
v 0.3460144 0.7962741 0.002410736
v 0.2464203 0.8022528 -0.0174382
v 0.3460144 0.8022528 -0.0174382
v 0.2464203 0.7962741 0.002410774
v 0.2464203 0.797388 -0.03720932
v 0.3460144 0.8022528 -0.0174382
v 0.2464203 0.8022528 -0.0174382
v 0.3460144 0.797388 -0.03720932
v 0.3460144 0.7962741 0.002410736
v 0.2464203 0.7778937 0.02225975
v 0.2464203 0.7962741 0.002410774
v 0.3460144 0.7778937 0.02225967
v 0.2464203 0.797388 -0.03720932
v 0.3460144 0.7726092 -0.05148701
v 0.3460144 0.797388 -0.03720932
v 0.2464203 0.7726092 -0.05148701
v -0.3460144 0.7386826 0.03998562
v -0.2464203 0.7778937 0.02225975
v -0.2464203 0.7386826 0.03998562
v -0.3460144 0.7778937 0.02225967
v -0.3460144 0.7962741 0.002410736
v -0.2464203 0.8022528 -0.0174382
v -0.2464203 0.7962741 0.002410774
v -0.3460144 0.8022528 -0.0174382
v -0.2464203 0.797388 -0.03720932
v -0.3460144 0.8022528 -0.0174382
v -0.3460144 0.797388 -0.03720932
v -0.2464203 0.8022528 -0.0174382
v -0.3460144 0.7962741 0.002410736
v -0.2464203 0.7778937 0.02225975
v -0.3460144 0.7778937 0.02225967
v -0.2464203 0.7962741 0.002410774
v -0.2464203 0.797388 -0.03720932
v -0.3460144 0.7726092 -0.05148701
v -0.2464203 0.7726092 -0.05148701
v -0.3460144 0.797388 -0.03720932
vt 0.0881924 0.6271773
vt 0.04328717 0.5515895
vt 0.08819108 0.5821655
vt 0.06222964 0.6270928
vt 0.02789621 0.5639516
vt 0.02995569 0.5512877
vt 0.02788586 0.6271021
vt 0.02233555 0.5621536
vt 0.0418136 0.5463013
vt 0.08819208 0.6891125
vt 0.0278758 0.6890934
vt 0.06774467 0.7465029
vt 0.02784642 0.7465032
vt 0.08819145 0.7464696
vt 0.0665875 0.7962479
vt 0.0881929 0.792288
vt 0.04613597 0.8088974
vt 0.02781493 0.8088936
vt 0.0665875 0.7962479
vt 0.06774467 0.7465029
vt 0.0278758 0.6890934
vt 0.02784642 0.7465032
vt 0.02788586 0.6271021
vt 0.06222964 0.6270928
vt 0.02789621 0.5639516
vt 0.04328717 0.5515895
vt 0.02992619 0.5512952
vt 0.02233555 0.5621536
vt 0.0418136 0.5463013
vt 0.04613597 0.8088974
vt 0.02781493 0.8088936
vt 0.02781493 0.8088936
vt 0.04613698 0.8158014
vt 0.02781201 0.8158002
vt 0.04613597 0.8088974
vt 0.02781203 0.8195791
vt 0.04613703 0.8233579
vt 0.02781205 0.8233579
vt 0.046137 0.8195797
vt 0.04613703 0.8263844
vt 0.02781205 0.8233579
vt 0.04613703 0.8233579
vt 0.02781207 0.8263844
vt 0.02781203 0.8195791
vt 0.04613698 0.8158014
vt 0.046137 0.8195797
vt 0.02781201 0.8158002
vt 0.04613703 0.8263844
vt 0.02781206 0.834044
vt 0.02781207 0.8263844
vt 0.04613703 0.8340441
vt 0.02781493 0.8088936
vt 0.04613698 0.8158014
vt 0.04613597 0.8088974
vt 0.02781201 0.8158002
vt 0.02781203 0.8195791
vt 0.04613703 0.8233579
vt 0.046137 0.8195797
vt 0.02781205 0.8233579
vt 0.04613703 0.8263844
vt 0.02781205 0.8233579
vt 0.02781207 0.8263844
vt 0.04613703 0.8233579
vt 0.02781203 0.8195791
vt 0.04613698 0.8158014
vt 0.02781201 0.8158002
vt 0.046137 0.8195797
vt 0.04613703 0.8263844
vt 0.02781206 0.834044
vt 0.04613703 0.8340441
vt 0.02781207 0.8263844
vn 0 0 1
vn 0 0 1
vn 0 0 1
vn 0 0 1
vn 0 0 1
vn 0 0 1
vn 1.492896E-07 0 1
vn 0 0 1
vn 0 0 1
vn 0 0.006500896 0.9999789
vn 0.0001267642 0.008393927 0.9999648
vn 0.02105081 0.01317242 0.9996916
vn 0.0006166429 0.01646385 0.9998642
vn 1.211132E-07 0.005913416 0.9999826
vn 0.02661355 0.01224104 0.9995708
vn 2.17654E-07 1.41883E-07 1
vn -0.0006185724 0.01612651 0.9998698
vn 0 0.01570648 0.9998766
vn -0.02661338 0.01224105 0.9995708
vn -0.0210507 0.01317243 0.9996916
vn -0.0001267643 0.008393926 0.9999648
vn -0.0006166447 0.01646385 0.9998642
vn -1.492891E-07 0 1
vn 0 0 1
vn 0 0 1
vn 0 0 1
vn 0 0 1
vn 0 0 1
vn 0 0 1
vn 0.0006185761 0.01612651 0.9998698
vn 0 0.01570648 0.9998766
vn 6.98036E-07 0.4119282 0.9112163
vn 6.980361E-07 0.4119283 0.9112163
vn 6.980361E-07 0.4119283 0.9112163
vn 0 0.4119268 0.9112169
vn 0 0.9575068 0.2884107
vn 0 0.9575068 0.2884107
vn 0 0.9575068 0.2884107
vn 1.104681E-07 0.957507 0.2884101
vn 0 0.9710369 -0.2389297
vn 0 0.9710369 -0.2389297
vn 0 0.9710369 -0.2389297
vn 0 0.9710369 -0.2389297
vn 2.602432E-07 0.7337285 0.6794429
vn 2.602432E-07 0.7337285 0.6794429
vn 2.602432E-07 0.7337285 0.6794429
vn 5.204869E-07 0.7337278 0.6794436
vn 0 0.4992568 -0.8664541
vn 0 0.4992568 -0.866454
vn 0 0.4992568 -0.8664541
vn 0 0.4992568 -0.8664541
vn 0 0.4119268 0.911217
vn 0 0.4119268 0.9112169
vn 0 0.4119268 0.9112169
vn -6.980361E-07 0.4119283 0.9112163
vn -1.104681E-07 0.957507 0.2884101
vn -1.104681E-07 0.957507 0.2884101
vn -1.104681E-07 0.957507 0.2884101
vn 0 0.9575068 0.2884107
vn 0 0.9710369 -0.2389297
vn 0 0.9710369 -0.2389297
vn 0 0.9710369 -0.2389297
vn 0 0.9710369 -0.2389297
vn -5.204869E-07 0.7337278 0.6794436
vn -5.204869E-07 0.7337278 0.6794436
vn -5.204869E-07 0.7337278 0.6794436
vn -2.602432E-07 0.7337285 0.6794429
vn 0 0.4992568 -0.866454
vn 0 0.4992568 -0.8664541
vn 0 0.4992568 -0.8664541
vn 0 0.4992568 -0.8664541
g Camp_Arena_Flag01_0
f 3/3/3 2/2/2 1/1/1
f 4/4/4 1/1/1 2/2/2
f 4/4/4 2/2/2 5/5/5
f 6/6/6 5/5/5 2/2/2
f 7/7/7 4/4/4 5/5/5
f 8/8/8 5/5/5 6/6/6
f 9/9/9 6/6/6 2/2/2
f 10/10/10 1/1/1 4/4/4
f 4/4/4 7/7/7 10/10/10
f 11/11/11 10/10/10 7/7/7
f 10/10/10 11/11/11 12/12/12
f 13/13/13 12/12/12 11/11/11
f 10/10/10 12/12/12 14/14/14
f 12/12/12 15/15/15 14/14/14
f 16/16/16 14/14/14 15/15/15
f 17/17/17 15/15/15 12/12/12
f 12/12/12 13/13/13 17/17/17
f 18/18/18 17/17/17 13/13/13
f 16/16/16 19/19/19 14/14/14
f 20/20/20 14/14/14 19/19/19
f 20/20/20 10/10/10 14/14/14
f 10/10/10 20/20/20 21/21/21
f 22/22/22 21/21/21 20/20/20
f 21/21/21 23/23/23 10/10/10
f 24/24/24 10/10/10 23/23/23
f 24/24/24 23/23/23 25/25/25
f 26/26/26 24/24/24 25/25/25
f 24/24/24 26/26/26 1/1/1
f 3/3/3 1/1/1 26/26/26
f 25/25/25 27/27/27 26/26/26
f 25/25/25 28/28/28 27/27/27
f 27/27/27 29/29/29 26/26/26
f 1/1/1 10/10/10 24/24/24
f 19/19/19 30/30/30 20/20/20
f 22/22/22 20/20/20 30/30/30
f 30/30/30 31/31/31 22/22/22
f 34/34/34 33/33/33 32/32/32
f 35/35/35 32/32/32 33/33/33
f 38/38/38 37/37/37 36/36/36
f 39/39/39 36/36/36 37/37/37
f 42/42/42 41/41/41 40/40/40
f 43/43/43 40/40/40 41/41/41
f 46/46/46 45/45/45 44/44/44
f 47/47/47 44/44/44 45/45/45
f 50/50/50 49/49/49 48/48/48
f 51/51/51 48/48/48 49/49/49
f 54/54/54 53/53/53 52/52/52
f 55/55/55 52/52/52 53/53/53
f 58/58/58 57/57/57 56/56/56
f 59/59/59 56/56/56 57/57/57
f 62/62/62 61/61/61 60/60/60
f 63/63/63 60/60/60 61/61/61
f 66/66/66 65/65/65 64/64/64
f 67/67/67 64/64/64 65/65/65
f 70/70/70 69/69/69 68/68/68
f 71/71/71 68/68/68 69/69/69
