g Camp_Xmas_Box_01
v 0.0008606418 0.2421841 -0.007916325
v -0.2129873 0.2511956 -0.3241553
v 0.001287963 0.2473659 -0.3121389
v -0.2017144 0.2458124 -0.00733281
v 0.0005260563 0.2473665 0.3120169
v -0.2129873 0.2511962 0.3241556
v 0.2125139 0.2511962 0.3241556
v 0.2012653 0.2458124 -0.008978474
v 0.2125138 0.2511956 -0.3241553
v 0.0005260563 0.2473665 0.3120169
v -0.1924948 1.279249E-06 0.2927823
v -0.2129873 0.2511962 0.3241556
v 0.001077628 0.0006229435 0.2818106
v 0.2125139 0.2511962 0.3241556
v 0.192078 1.276319E-06 0.2927824
v 0.2012653 0.2458124 -0.008978474
v 0.1920781 6.757089E-07 -0.2931698
v 0.1819114 0.0008901398 -0.007651561
v 0.2125138 0.2511956 -0.3241553
v 0.2125139 0.2511962 0.3241556
v 0.192078 1.276319E-06 0.2927824
v -0.2129873 0.2511956 -0.3241553
v 0.0006038713 0.0006223411 -0.282309
v 0.001287963 0.2473659 -0.3121389
v -0.1924951 6.786392E-07 -0.2931698
v 0.1920781 6.757089E-07 -0.2931698
v 0.2125138 0.2511956 -0.3241553
v -0.2129873 0.2511956 -0.3241553
v -0.1823067 0.0008901427 -0.007196604
v -0.1924951 6.786392E-07 -0.2931698
v -0.2017144 0.2458124 -0.00733281
v -0.1924948 1.279249E-06 0.2927823
v -0.2129873 0.2511962 0.3241556
v -0.1651682 0.3748346 0.07807362
v -0.2180022 0.3645641 -0.07209066
v -0.1682439 0.3753741 -0.0738549
v -0.2166201 0.3635723 0.07579961
v -0.2446042 0.3257504 -0.06105094
v -0.2425943 0.3253953 0.06630099
v -0.2367242 0.2770546 0.05719674
v -0.2385439 0.278122 -0.05154942
v -0.1111 0.3560054 -0.06508885
v -0.1084938 0.3559774 0.06929187
v -0.04026341 0.27879 0.03428894
v -0.04174678 0.2787952 -0.03170592
v -0.2367242 0.2770546 0.05719674
v -0.1832987 0.2465429 -0.04712943
v -0.2385439 0.278122 -0.05154942
v -0.1832078 0.2465422 0.05170746
v -0.04026341 0.27879 0.03428894
v -0.02159153 0.2476911 -0.01961547
v -0.02067335 0.2476911 0.02255639
v -0.04174678 0.2787952 -0.03170592
v -0.1832078 0.2465422 0.05170746
v -0.02159153 0.2476911 -0.01961547
v -0.1832987 0.2465429 -0.04712943
v -0.02067335 0.2476911 0.02255639
v -0.05791862 0.333398 -0.04448503
v -0.02628094 0.3831886 0.05020646
v -0.05710724 0.3339747 0.04502179
v -0.02596631 0.3827364 -0.04957254
v 0.02348146 0.3852647 0.0495578
v 0.02295426 0.384733 -0.04847494
v 0.06094133 0.3378742 -0.04233313
v 0.060742 0.3382762 0.04384951
v 0.02954208 0.2484652 0.02458862
v 0.02950372 0.2484613 -0.02288409
v -0.02226336 0.2477719 0.02510988
v -0.0233392 0.2476865 -0.02389037
v -0.0693887 0.2415064 0.02219896
v -0.08551271 0.2509291 0.1654039
v -0.1706032 0.2492185 0.06137952
v -0.02769083 0.2425099 0.07336103
v -0.00770385 0.2447633 0.0405818
v -0.03461914 0.2444094 0.007908609
v -0.213978 0.2829552 0.08638055
v -0.1661468 0.2838174 0.1452369
v -0.1181429 0.2846853 0.2043032
v -0.1482361 0.3569236 0.2231029
v -0.2387733 0.3559187 0.1127343
v -0.0768324 0.3732368 -0.1640712
v 0.07333182 0.3629649 -0.2169041
v 0.07509536 0.3737763 -0.1671463
v -0.07455827 0.3619744 -0.2155218
v 0.06229157 0.3241519 -0.2435044
v -0.06506081 0.3237962 -0.2414942
v -0.05595632 0.2754568 -0.2356233
v 0.05279136 0.2765242 -0.2374442
v 0.06632961 0.3544063 -0.1100026
v -0.068051 0.3543783 -0.1073971
v -0.03304801 0.2771908 -0.0391659
v 0.03294681 0.277198 -0.04064796
v -0.05595632 0.2754568 -0.2356233
v 0.04837066 0.244945 -0.1822015
v 0.05279136 0.2765242 -0.2374442
v -0.05046653 0.2449444 -0.1821084
v -0.03304801 0.2771908 -0.0391659
v 0.02078637 0.2468915 -0.02038601
v -0.02159153 0.2476911 -0.01961547
v 0.03294681 0.277198 -0.04064796
v -0.05046653 0.2449444 -0.1821084
v 0.02078637 0.2468915 -0.02038601
v 0.04837066 0.244945 -0.1822015
v -0.02159153 0.2476911 -0.01961547
v 0.1651708 0.3732368 -0.07552072
v 0.2180032 0.3629649 0.07464369
v 0.1682464 0.3737763 0.07640716
v 0.2166218 0.3619744 -0.07324662
v 0.2446038 0.3241519 0.06360344
v 0.2425942 0.3237962 -0.06374916
v 0.2367235 0.2754568 -0.05464486
v 0.2385435 0.2765242 0.05410323
v 0.1111015 0.3544063 0.06764118
v 0.1084962 0.3543783 -0.06673895
v 0.04026485 0.2771908 -0.03173595
v 0.04174735 0.277198 0.03425833
v 0.2367235 0.2754568 -0.05464486
v 0.1833007 0.244945 0.04968303
v 0.2385435 0.2765242 0.05410323
v 0.183208 0.2449444 -0.04915502
v 0.04026485 0.2771908 -0.03173595
v 0.02170499 0.2468922 0.02178711
v 0.02078637 0.2468915 -0.02038601
v 0.04174735 0.277198 0.03425833
v 0.183208 0.2449444 -0.04915502
v 0.02170499 0.2468922 0.02178711
v 0.1833007 0.244945 0.04968303
v 0.02078637 0.2468915 -0.02038601
v 0.07705933 0.373238 0.1658594
v -0.07310445 0.362963 0.2186916
v -0.07486864 0.3737776 0.1689359
v 0.07478537 0.3619725 0.2173101
v -0.06206419 0.3241487 0.2452924
v 0.06528747 0.3237929 0.2432832
v 0.05618347 0.2754535 0.2374121
v -0.05256465 0.2765209 0.2392318
v -0.0661029 0.3544063 0.1117902
v 0.06827787 0.3543783 0.1091847
v 0.03327489 0.2771908 0.04095346
v -0.03271993 0.2771973 0.04243551
v 0.05618347 0.2754535 0.2374121
v -0.04814341 0.2449444 0.1839897
v -0.0525643 0.2765209 0.2392321
v 0.05069346 0.2449438 0.1838966
v 0.03327489 0.2771908 0.04095346
v -0.02067335 0.2476911 0.02255639
v 0.02170499 0.2468922 0.02178711
v -0.03271993 0.2771973 0.04243551
v 0.05069346 0.2449438 0.1838966
v -0.02067335 0.2476911 0.02255639
v -0.04814341 0.2449444 0.1839897
v 0.02170499 0.2468922 0.02178711
v 0.064598 0.2415064 -0.01931502
v 0.07706105 0.2509271 -0.1628879
v 0.1647801 0.2492185 -0.06107019
v 0.02160742 0.2425099 -0.0693985
v 0.002464328 0.2447633 -0.03611944
v 0.03020402 0.2444094 -0.00414306
v 0.207502 0.2829552 -0.08717255
v 0.1581836 0.2838174 -0.1447848
v 0.1086881 0.2846847 -0.2026053
v 0.1382914 0.3569223 -0.2221667
v 0.2316165 0.3559187 -0.1141471
v -0.2180022 0.3636394 -0.07209066
v -0.1651682 0.3739099 0.07807362
v -0.1682439 0.3744495 -0.0738549
v -0.21662 0.3626482 0.0757996
v -0.2446042 0.3248257 -0.06105094
v -0.2425943 0.3244706 0.06630034
v -0.2367239 0.27613 0.05719606
v -0.2385439 0.2771973 -0.05154942
v -0.1111 0.3550814 -0.06508885
v -0.1084938 0.3550527 0.06929187
v -0.04026341 0.2778659 0.03428894
v -0.04174678 0.2778711 -0.03170592
v -0.1832987 0.2456182 -0.04712943
v -0.2367239 0.27613 0.05719606
v -0.2385439 0.2771973 -0.05154942
v -0.1832076 0.2456176 0.05170744
v -0.02159159 0.2467671 -0.01961612
v -0.04026341 0.2778659 0.03428894
v -0.02067341 0.2467671 0.02255573
v -0.04174678 0.2778711 -0.03170592
v -0.02159159 0.2467671 -0.01961612
v -0.1832076 0.2456176 0.05170744
v -0.1832987 0.2456182 -0.04712943
v -0.02067341 0.2467671 0.02255573
v 0.2180032 0.3620403 0.07464303
v 0.1651711 0.3723121 -0.07552075
v 0.1682465 0.3728516 0.07640649
v 0.2166219 0.3610498 -0.07324664
v 0.2446039 0.3232273 0.06360278
v 0.2425941 0.3228715 -0.06374981
v 0.2367236 0.2745321 -0.05464553
v 0.2385434 0.2755995 0.05410258
v 0.1111016 0.3534816 0.06764052
v 0.1084963 0.3534536 -0.06673961
v 0.04026518 0.2762662 -0.03173598
v 0.04174735 0.2762733 0.03425833
v 0.1833008 0.2440204 0.04968236
v 0.2367236 0.2745321 -0.05464553
v 0.2385434 0.2755995 0.05410258
v 0.1832083 0.2440197 -0.0491557
v 0.02170526 0.2459675 0.02178643
v 0.04026518 0.2762662 -0.03173598
v 0.02078632 0.2459668 -0.02038666
v 0.04174735 0.2762733 0.03425833
v 0.02170526 0.2459675 0.02178643
v 0.1832083 0.2440197 -0.0491557
v 0.1833008 0.2440204 0.04968236
v 0.02078632 0.2459668 -0.02038666
vt 0.8766135 0.340647
vt 0.757425 0.2169507
vt 0.8758627 0.2194208
vt 0.764473 0.3428253
vt 0.8758627 0.2194208
vt 0.757425 0.2169507
vt 0.9929944 0.2153321
vt 0.9875735 0.3412925
vt 0.9929944 0.2153321
vt 0.8758627 0.2194208
vt 0.7567097 0.1194657
vt 0.757425 0.2169507
vt 0.8751692 0.1236882
vt 0.9929944 0.2153321
vt 0.9922786 0.1178473
vt 0.8677912 0.1094987
vt 0.9909458 0.01343612
vt 0.8675073 0.01382014
vt 0.9909458 0.111602
vt 0.7376278 0.111602
vt 0.7376278 0.01343612
vt 0.757425 0.2169507
vt 0.8751692 0.1236882
vt 0.8758627 0.2194208
vt 0.7567097 0.1194657
vt 0.9922786 0.1178473
vt 0.9929944 0.2153321
vt 0.9909424 0.111602
vt 0.8673062 0.01381964
vt 0.9909424 0.01343612
vt 0.8671444 0.1094984
vt 0.737624 0.01343612
vt 0.737624 0.111602
vt 0.2970166 0.8973747
vt 0.2137996 0.8691471
vt 0.2133054 0.8972197
vt 0.2952701 0.868396
vt 0.219653 0.8431782
vt 0.289816 0.8430012
vt 0.2848527 0.8161547
vt 0.2249381 0.8167518
vt 0.2187507 0.9303725
vt 0.292791 0.9303519
vt 0.2742741 0.9873521
vt 0.2379108 0.9872959
vt 0.2848527 0.8161547
vt 0.2282437 0.7926598
vt 0.2249381 0.8167518
vt 0.2804915 0.7910988
vt 0.2404862 0.7078174
vt 0.2627389 0.7022796
vt 0.2413874 0.7021955
vt 0.263607 0.7078792
vt 0.2804915 0.7910988
vt 0.240306 0.7076163
vt 0.2282437 0.7926598
vt 0.2636243 0.7072482
vt 0.1678984 0.7469071
vt 0.2156764 0.7765682
vt 0.2130726 0.7473235
vt 0.1653181 0.7766364
vt 0.2154042 0.7998233
vt 0.1659263 0.7998572
vt 0.1691554 0.8314249
vt 0.2126512 0.8311297
vt 0.2029506 0.8765561
vt 0.1789917 0.8765824
vt 0.2031787 0.7016659
vt 0.1784426 0.7014014
vt 0.3505042 0.8823116
vt 0.3015633 0.9266857
vt 0.3682858 0.9250032
vt 0.3177372 0.8832337
vt 0.3236999 0.8695261
vt 0.3447181 0.8691096
vt 0.3728462 0.9545915
vt 0.3351958 0.9556053
vt 0.2974108 0.9566221
vt 0.3000971 0.9922695
vt 0.3709723 0.9908049
vt 0.2970166 0.8973747
vt 0.2137996 0.8691471
vt 0.2133054 0.8972197
vt 0.2952701 0.868396
vt 0.219653 0.8431782
vt 0.289816 0.8430012
vt 0.2848527 0.8161547
vt 0.2249381 0.8167518
vt 0.2187507 0.9303725
vt 0.292791 0.9303519
vt 0.2742741 0.9873521
vt 0.2379108 0.9872959
vt 0.2848527 0.8161547
vt 0.2282437 0.7926598
vt 0.2249381 0.8167518
vt 0.2804915 0.7910988
vt 0.2404862 0.7078174
vt 0.2627389 0.7022796
vt 0.2413874 0.7021955
vt 0.263607 0.7078792
vt 0.2804915 0.7910988
vt 0.240306 0.7076163
vt 0.2282437 0.7926598
vt 0.2636243 0.7072482
vt 0.2970166 0.8973747
vt 0.2137996 0.8691471
vt 0.2133054 0.8972197
vt 0.2952701 0.868396
vt 0.219653 0.8431782
vt 0.289816 0.8430012
vt 0.2848527 0.8161547
vt 0.2249381 0.8167518
vt 0.2187507 0.9303725
vt 0.292791 0.9303519
vt 0.2742741 0.9873521
vt 0.2379108 0.9872959
vt 0.2848527 0.8161547
vt 0.2282437 0.7926598
vt 0.2249381 0.8167518
vt 0.2804915 0.7910988
vt 0.2404862 0.7078174
vt 0.2627389 0.7022796
vt 0.2413874 0.7021955
vt 0.263607 0.7078792
vt 0.2804915 0.7910988
vt 0.240306 0.7076163
vt 0.2282437 0.7926598
vt 0.2636243 0.7072482
vt 0.2970166 0.8973747
vt 0.2137996 0.8691471
vt 0.2133054 0.8972197
vt 0.2952701 0.868396
vt 0.219653 0.8431782
vt 0.289816 0.8430012
vt 0.2848527 0.8161547
vt 0.2249381 0.8167518
vt 0.2187507 0.9303725
vt 0.292791 0.9303519
vt 0.2742741 0.9873521
vt 0.2379108 0.9872959
vt 0.2848527 0.8161547
vt 0.2282437 0.7926598
vt 0.2249381 0.8167518
vt 0.2804915 0.7910988
vt 0.2404862 0.7078174
vt 0.2627389 0.7022796
vt 0.2413874 0.7021955
vt 0.263607 0.7078792
vt 0.2804915 0.7910988
vt 0.240306 0.7076163
vt 0.2282437 0.7926598
vt 0.2636243 0.7072482
vt 0.3505042 0.8823116
vt 0.3015633 0.9266857
vt 0.3682858 0.9250032
vt 0.3177372 0.8832337
vt 0.3236999 0.8695261
vt 0.3447181 0.8691096
vt 0.3728462 0.9545915
vt 0.3351958 0.9556053
vt 0.2974108 0.9566221
vt 0.3000971 0.9922695
vt 0.3709723 0.9908049
vt 0.2137996 0.8691471
vt 0.2970166 0.8973747
vt 0.2133054 0.8972197
vt 0.2952701 0.868396
vt 0.219653 0.8431782
vt 0.289816 0.8430012
vt 0.2848527 0.8161547
vt 0.2249381 0.8167518
vt 0.2187507 0.9303725
vt 0.292791 0.9303519
vt 0.2742741 0.9873521
vt 0.2379108 0.9872959
vt 0.2282437 0.7926598
vt 0.2848527 0.8161547
vt 0.2249381 0.8167518
vt 0.2804915 0.7910988
vt 0.2627389 0.7022796
vt 0.2404862 0.7078174
vt 0.2413874 0.7021955
vt 0.263607 0.7078792
vt 0.240306 0.7076163
vt 0.2804915 0.7910988
vt 0.2282437 0.7926598
vt 0.2636243 0.7072482
vt 0.2137996 0.8691471
vt 0.2970166 0.8973747
vt 0.2133054 0.8972197
vt 0.2952701 0.868396
vt 0.219653 0.8431782
vt 0.289816 0.8430012
vt 0.2848527 0.8161547
vt 0.2249381 0.8167518
vt 0.2187507 0.9303725
vt 0.292791 0.9303519
vt 0.2742741 0.9873521
vt 0.2379108 0.9872959
vt 0.2282437 0.7926598
vt 0.2848527 0.8161547
vt 0.2249381 0.8167518
vt 0.2804915 0.7910988
vt 0.2627389 0.7022796
vt 0.2404862 0.7078174
vt 0.2413874 0.7021955
vt 0.263607 0.7078792
vt 0.240306 0.7076163
vt 0.2804915 0.7910988
vt 0.2282437 0.7926598
vt 0.2636243 0.7072482
vn -9.669867E-05 1 0.0004017868
vn 0.01730517 0.9997093 0.01678571
vn -0.0003051417 0.9998579 0.0168561
vn 0.01775599 0.9998423 0.0001615506
vn 0.0001056073 0.9998716 -0.01602693
vn 0.01704157 0.9997322 -0.01565746
vn -0.01751092 0.9997191 -0.01597055
vn -0.01793983 0.9998388 0.0006893937
vn -0.01718925 0.9997167 0.01646164
vn 0.0003918339 -0.1209788 0.992655
vn 0.05550934 -0.1203858 0.991174
vn 0.05421972 -0.1193944 0.9913653
vn 0.0001534638 -0.1208705 0.9926683
vn -0.05571906 -0.1204804 0.9911507
vn -0.05732702 -0.1191356 0.9912215
vn 0.9969229 -0.07837433 0.001465405
vn 0.9963784 -0.07755258 0.03486899
vn 0.9969261 -0.07833707 0.001233451
vn 0.996455 -0.07684054 0.03425064
vn 0.9964186 -0.07774577 -0.03325031
vn 0.9964663 -0.0768273 -0.03394759
vn 0.05458773 -0.119033 -0.9913885
vn -0.0007399714 -0.1193909 -0.992847
vn -0.0009948428 -0.1194871 -0.9928352
vn 0.05614315 -0.1177189 -0.9914586
vn -0.05556801 -0.1188808 -0.9913524
vn -0.05427015 -0.1178943 -0.9915421
vn -0.9963536 -0.07781231 0.0349947
vn -0.9969098 -0.07855486 0.0003553461
vn -0.9963999 -0.07687701 0.03573779
vn -0.9969059 -0.07860392 0.0003587047
vn -0.9964058 -0.07792456 -0.03321508
vn -0.9964802 -0.07721705 -0.0326333
vn 0.04749759 0.9988696 0.00183093
vn -0.5277833 0.849317 0.0102716
vn 0.04283986 0.9990784 0.002680824
vn -0.5322056 0.8465326 0.0118218
vn -0.9581571 0.2858793 0.01441852
vn -0.9605358 0.2776995 0.01593375
vn -0.992247 -0.1233317 0.01533305
vn -0.9922644 -0.1231846 0.01539482
vn 0.515016 0.8571349 -0.008842021
vn 0.5151991 0.8570144 -0.009812931
vn 0.7877346 0.6157879 -0.01671627
vn 0.7873666 0.6162325 -0.01764905
vn -0.4956281 -0.8685348 0.0002045251
vn -0.4959299 -0.8683625 -3.997428E-07
vn -0.4962494 -0.8681799 -0.0002174959
vn -0.4952664 -0.868741 0.0004500794
vn 0.7877346 0.6157879 -0.01671627
vn 0.8425384 0.5383109 -0.01871982
vn 0.8428397 0.5378517 -0.01835052
vn 0.7873666 0.6162325 -0.01764905
vn 0.007102653 -0.9999748 -1.290212E-05
vn 0.007102653 -0.9999748 -1.290213E-05
vn 0.007102653 -0.9999748 -1.290213E-05
vn 0.007040701 -0.9999752 -0.0001532919
vn -0.9897833 0.1424577 0.005883462
vn -0.4889475 0.8723102 -0.002282431
vn -0.9902943 0.1387507 0.008082996
vn -0.4861841 0.8738377 -0.005712579
vn 0.3989095 0.9169779 -0.004766054
vn 0.39289 0.9195581 -0.007100926
vn 0.9749457 0.2224329 -0.002120409
vn 0.9753235 0.2207773 0.001225781
vn 0.9438149 -0.330472 0.001313945
vn 0.9433363 -0.3318373 -0.000734775
vn -0.9276246 -0.3731656 0.01612102
vn -0.9289113 -0.3697041 0.02103913
vn 0.004932729 0.9997759 -0.02058535
vn 0.2800968 0.9286726 -0.2431319
vn 0.2793104 0.9287488 -0.2437442
vn 0.005727377 0.9996889 -0.02427658
vn -0.06300025 0.9974105 0.03469004
vn -0.06549812 0.9969189 0.04315891
vn 0.5833542 0.6515137 -0.485003
vn 0.5378043 0.7144729 -0.4475434
vn 0.5867699 0.6473999 -0.4863891
vn 0.6945151 0.4378914 -0.5708763
vn 0.6931891 0.4413755 -0.569804
vn -0.001827888 0.9988694 0.04750372
vn -0.01026854 0.849305 -0.5278025
vn -0.002681069 0.9990785 0.04283558
vn -0.0118185 0.8465204 -0.5322251
vn -0.01442099 0.2858621 -0.9581622
vn -0.01593753 0.277662 -0.9605467
vn -0.01533692 -0.123349 -0.9922449
vn -0.01540608 -0.1231842 -0.9922643
vn 0.008835148 0.8571311 0.5150226
vn 0.009810805 0.8570088 0.5152085
vn 0.01820636 0.6222684 0.7825922
vn 0.01753321 0.6208366 0.7837439
vn -0.0002135648 -0.8685272 -0.4956414
vn -7.221743E-06 -0.8683537 -0.4959453
vn 0.0002113532 -0.8681698 -0.4962671
vn -0.0004607927 -0.8687348 -0.4952772
vn 0.01820636 0.6222684 0.7825922
vn 0.02081095 0.5531634 0.8328127
vn 0.02561739 0.5591401 0.8286773
vn 0.01753321 0.6208366 0.7837439
vn 1.769563E-05 -0.9999276 0.01203108
vn 1.769563E-05 -0.9999276 0.01203108
vn 1.769563E-05 -0.9999276 0.01203108
vn -0.01849378 -0.9996252 0.02018337
vn -0.04750215 0.9988695 -0.001827534
vn 0.5278019 0.8493055 -0.01026647
vn -0.04282984 0.9990788 -0.00268105
vn 0.532225 0.8465205 -0.01181576
vn 0.9581618 0.2858637 -0.01441481
vn 0.960546 0.2776646 -0.0159329
vn 0.9922455 -0.1233446 -0.01533132
vn 0.992264 -0.123187 -0.01539747
vn -0.5150204 0.8571324 0.008836012
vn -0.5152064 0.8570099 0.00981003
vn -0.785541 0.6185855 0.01665315
vn -0.7848668 0.6194155 0.017564
vn 0.4956381 -0.8685291 -0.0002107741
vn 0.4959431 -0.8683551 -3.703612E-06
vn 0.4962659 -0.8681705 0.0002156431
vn 0.4952726 -0.8687376 -0.0004588729
vn -0.785541 0.6185855 0.01665315
vn -0.8376173 0.545941 0.01859434
vn -0.8379117 0.5455008 0.018243
vn -0.7848668 0.6194155 0.017564
vn -0.01205149 -0.9999274 1.766817E-05
vn -0.01205149 -0.9999274 1.766817E-05
vn -0.01205149 -0.9999274 1.766817E-05
vn -0.01193828 -0.9999287 0.0002754156
vn 0.001827529 0.9988704 -0.04748074
vn 0.01026799 0.8492839 0.5278364
vn 0.002681599 0.9990799 -0.04280381
vn 0.01181518 0.8465014 0.5322552
vn 0.01441351 0.2858526 0.9581652
vn 0.01592994 0.2776588 0.9605477
vn 0.01532816 -0.1233518 0.9922447
vn 0.01539456 -0.1231936 0.9922632
vn -0.008837539 0.8571268 -0.5150297
vn -0.009811063 0.8570038 -0.5152166
vn -0.01378842 0.6180867 -0.785989
vn -0.01751848 0.6220037 -0.7828184
vn 0.0002115191 -0.8685467 0.4956073
vn 3.626904E-06 -0.868372 0.4959134
vn -0.0002165794 -0.8681867 0.4962377
vn 0.0004605918 -0.8687559 0.4952404
vn -0.01378842 0.6180867 -0.785989
vn -0.01447124 0.5480312 -0.8363327
vn -0.005219139 0.5360134 -0.8441933
vn -0.01751848 0.6220037 -0.7828184
vn -2.258142E-05 -0.9998553 -0.0170157
vn -2.258142E-05 -0.9998553 -0.01701569
vn -2.258143E-05 -0.9998553 -0.0170157
vn -0.01900468 -0.9997823 -0.008617963
vn -0.004402745 0.9997762 0.0206959
vn -0.2738059 0.9286706 0.2502027
vn -0.2729949 0.928754 0.2507788
vn -0.005098638 0.9996891 0.02440752
vn 0.0620956 0.9974104 -0.03628626
vn 0.06437651 0.9969189 -0.04481506
vn -0.5707815 0.6514984 0.4997582
vn -0.5262138 0.7144474 0.461155
vn -0.5741692 0.6473926 0.501211
vn -0.6797169 0.4378898 0.5884193
vn -0.678404 0.4413535 0.5873458
vn 0.527783 -0.8493172 -0.01027035
vn -0.04750084 -0.9988695 -0.001830821
vn -0.04283499 -0.9990785 -0.002680924
vn 0.5321994 -0.8465365 -0.01181913
vn 0.9581575 -0.2858781 -0.01441858
vn 0.960537 -0.2776956 -0.01593341
vn 0.9922464 0.123337 -0.01533334
vn 0.9922644 0.123184 -0.01539753
vn -0.515011 -0.857138 0.008840446
vn -0.5151982 -0.8570148 0.009809022
vn -0.787734 -0.6157888 0.01671513
vn -0.7873672 -0.6162317 0.01764888
vn 0.4959299 0.8683627 -6.468935E-07
vn 0.4956284 0.8685346 -0.000205335
vn 0.4962491 0.8681802 0.0002161993
vn 0.4952671 0.8687406 -0.000450605
vn -0.842539 -0.5383099 0.01871972
vn -0.787734 -0.6157888 0.01671513
vn -0.8428402 -0.537851 0.01835053
vn -0.7873672 -0.6162317 0.01764888
vn -0.007106498 0.9999747 1.330396E-05
vn -0.007106499 0.9999747 1.330396E-05
vn -0.007106499 0.9999747 1.330395E-05
vn -0.007044686 0.9999752 0.0001533786
vn -0.5278016 -0.8493056 0.01026625
vn 0.04750238 -0.9988694 0.001827625
vn 0.04283036 -0.9990788 0.00268111
vn -0.5322281 -0.8465186 0.01181635
vn -0.9581622 -0.2858625 0.01441455
vn -0.9605467 -0.2776622 0.01593428
vn -0.9922456 0.1233432 0.01533202
vn -0.9922636 0.1231907 0.01539603
vn 0.5150208 -0.8571321 -0.008835255
vn 0.5152066 -0.8570099 -0.009810037
vn 0.7855403 -0.6185864 -0.01665283
vn 0.7848673 -0.6194151 -0.01756015
vn -0.4959438 0.8683546 2.852987E-06
vn -0.4956391 0.8685285 0.0002097678
vn -0.4962665 0.8681701 -0.0002163276
vn -0.4952739 0.8687369 0.0004576786
vn 0.8376173 -0.5459408 -0.01859354
vn 0.7855403 -0.6185864 -0.01665283
vn 0.8379058 -0.5455097 -0.01824937
vn 0.7848673 -0.6194151 -0.01756015
vn 0.01205133 0.9999274 -1.803302E-05
vn 0.01205133 0.9999274 -1.803302E-05
vn 0.01205133 0.9999274 -1.803302E-05
vn 0.01193825 0.9999287 -0.0002755074
g Camp_Xmas_Box_01_0
f 3/3/3 2/2/2 1/1/1
f 4/4/4 1/1/1 2/2/2
f 1/1/1 4/4/4 5/5/5
f 6/6/6 5/5/5 4/4/4
f 5/5/5 7/7/7 1/1/1
f 8/8/8 1/1/1 7/7/7
f 1/1/1 8/8/8 3/3/3
f 9/9/9 3/3/3 8/8/8
f 12/12/12 11/11/11 10/10/10
f 13/13/13 10/10/10 11/11/11
f 10/10/10 13/13/13 14/14/14
f 15/15/15 14/14/14 13/13/13
f 18/18/18 17/17/17 16/16/16
f 19/19/19 16/16/16 17/17/17
f 16/16/16 20/20/20 18/18/18
f 21/21/21 18/18/18 20/20/20
f 24/24/24 23/23/23 22/22/22
f 25/25/25 22/22/22 23/23/23
f 23/23/23 24/24/24 26/26/26
f 27/27/27 26/26/26 24/24/24
f 30/30/30 29/29/29 28/28/28
f 31/31/31 28/28/28 29/29/29
f 29/29/29 32/32/32 31/31/31
f 33/33/33 31/31/31 32/32/32
f 36/36/36 35/35/35 34/34/34
f 37/37/37 34/34/34 35/35/35
f 35/35/35 38/38/38 37/37/37
f 39/39/39 37/37/37 38/38/38
f 39/39/39 38/38/38 40/40/40
f 41/41/41 40/40/40 38/38/38
f 36/36/36 34/34/34 42/42/42
f 43/43/43 42/42/42 34/34/34
f 43/43/43 44/44/44 42/42/42
f 45/45/45 42/42/42 44/44/44
f 48/48/48 47/47/47 46/46/46
f 49/49/49 46/46/46 47/47/47
f 52/52/52 51/51/51 50/50/50
f 53/53/53 50/50/50 51/51/51
f 56/56/56 55/55/55 54/54/54
f 57/57/57 54/54/54 55/55/55
f 60/60/60 59/59/59 58/58/58
f 61/61/61 58/58/58 59/59/59
f 59/59/59 62/62/62 61/61/61
f 63/63/63 61/61/61 62/62/62
f 63/63/63 62/62/62 64/64/64
f 65/65/65 64/64/64 62/62/62
f 65/65/65 66/66/66 64/64/64
f 67/67/67 64/64/64 66/66/66
f 60/60/60 58/58/58 68/68/68
f 69/69/69 68/68/68 58/58/58
f 72/72/72 71/71/71 70/70/70
f 73/73/73 70/70/70 71/71/71
f 73/73/73 74/74/74 70/70/70
f 75/75/75 70/70/70 74/74/74
f 72/72/72 76/76/76 71/71/71
f 76/76/76 77/77/77 71/71/71
f 77/77/77 78/78/78 71/71/71
f 78/78/78 77/77/77 79/79/79
f 76/76/76 80/80/80 77/77/77
f 83/83/83 82/82/82 81/81/81
f 84/84/84 81/81/81 82/82/82
f 82/82/82 85/85/85 84/84/84
f 86/86/86 84/84/84 85/85/85
f 86/86/86 85/85/85 87/87/87
f 88/88/88 87/87/87 85/85/85
f 83/83/83 81/81/81 89/89/89
f 90/90/90 89/89/89 81/81/81
f 90/90/90 91/91/91 89/89/89
f 92/92/92 89/89/89 91/91/91
f 95/95/95 94/94/94 93/93/93
f 96/96/96 93/93/93 94/94/94
f 99/99/99 98/98/98 97/97/97
f 100/100/100 97/97/97 98/98/98
f 103/103/103 102/102/102 101/101/101
f 104/104/104 101/101/101 102/102/102
f 107/107/107 106/106/106 105/105/105
f 108/108/108 105/105/105 106/106/106
f 106/106/106 109/109/109 108/108/108
f 110/110/110 108/108/108 109/109/109
f 110/110/110 109/109/109 111/111/111
f 112/112/112 111/111/111 109/109/109
f 107/107/107 105/105/105 113/113/113
f 114/114/114 113/113/113 105/105/105
f 114/114/114 115/115/115 113/113/113
f 116/116/116 113/113/113 115/115/115
f 119/119/119 118/118/118 117/117/117
f 120/120/120 117/117/117 118/118/118
f 123/123/123 122/122/122 121/121/121
f 124/124/124 121/121/121 122/122/122
f 127/127/127 126/126/126 125/125/125
f 128/128/128 125/125/125 126/126/126
f 131/131/131 130/130/130 129/129/129
f 132/132/132 129/129/129 130/130/130
f 130/130/130 133/133/133 132/132/132
f 134/134/134 132/132/132 133/133/133
f 134/134/134 133/133/133 135/135/135
f 136/136/136 135/135/135 133/133/133
f 131/131/131 129/129/129 137/137/137
f 138/138/138 137/137/137 129/129/129
f 138/138/138 139/139/139 137/137/137
f 140/140/140 137/137/137 139/139/139
f 143/143/143 142/142/142 141/141/141
f 144/144/144 141/141/141 142/142/142
f 147/147/147 146/146/146 145/145/145
f 148/148/148 145/145/145 146/146/146
f 151/151/151 150/150/150 149/149/149
f 152/152/152 149/149/149 150/150/150
f 155/155/155 154/154/154 153/153/153
f 156/156/156 153/153/153 154/154/154
f 156/156/156 157/157/157 153/153/153
f 158/158/158 153/153/153 157/157/157
f 155/155/155 159/159/159 154/154/154
f 159/159/159 160/160/160 154/154/154
f 160/160/160 161/161/161 154/154/154
f 161/161/161 160/160/160 162/162/162
f 159/159/159 163/163/163 160/160/160
f 166/166/166 165/165/165 164/164/164
f 167/167/167 164/164/164 165/165/165
f 164/164/164 167/167/167 168/168/168
f 169/169/169 168/168/168 167/167/167
f 169/169/169 170/170/170 168/168/168
f 171/171/171 168/168/168 170/170/170
f 166/166/166 172/172/172 165/165/165
f 173/173/173 165/165/165 172/172/172
f 173/173/173 172/172/172 174/174/174
f 175/175/175 174/174/174 172/172/172
f 178/178/178 177/177/177 176/176/176
f 179/179/179 176/176/176 177/177/177
f 182/182/182 181/181/181 180/180/180
f 183/183/183 180/180/180 181/181/181
f 186/186/186 185/185/185 184/184/184
f 187/187/187 184/184/184 185/185/185
f 190/190/190 189/189/189 188/188/188
f 191/191/191 188/188/188 189/189/189
f 188/188/188 191/191/191 192/192/192
f 193/193/193 192/192/192 191/191/191
f 193/193/193 194/194/194 192/192/192
f 195/195/195 192/192/192 194/194/194
f 190/190/190 196/196/196 189/189/189
f 197/197/197 189/189/189 196/196/196
f 197/197/197 196/196/196 198/198/198
f 199/199/199 198/198/198 196/196/196
f 202/202/202 201/201/201 200/200/200
f 203/203/203 200/200/200 201/201/201
f 206/206/206 205/205/205 204/204/204
f 207/207/207 204/204/204 205/205/205
f 210/210/210 209/209/209 208/208/208
f 211/211/211 208/208/208 209/209/209
