g Camp_Arena_Wall03
v 0.4166321 -1.000696 -0.01113525
v 0.08468384 -1.41386 0.4479541
v 0.07989319 -1.000696 0.4129761
v 0.4517889 -1.413861 -0.01440185
v -0.07806128 -1.000696 -0.4189427
v 0.4517889 -1.413861 -0.01440185
v 0.4166321 -1.000696 -0.01113525
v -0.07527777 -1.413861 -0.4501438
v 0.07989319 -1.000696 0.4129761
v -0.4587061 -1.413861 0.0327706
v -0.4289484 -1.000696 0.02298723
v 0.08468384 -1.41386 0.4479541
v 0.3321307 0.7481183 0.01104492
v 0.07730103 0.7098666 0.3677746
v 0.08234253 0.7481183 0.3256433
v 0.3720221 0.7098666 -0.003415527
v -0.09183632 0.7481183 -0.3353797
v 0.3720221 0.7098666 -0.003415527
v 0.3321307 0.7481183 0.01104492
v -0.08468391 0.7098668 -0.3783905
v 0.08234253 0.7481183 0.3256433
v -0.3960516 0.7098673 0.01565186
v -0.3554034 0.7481183 -0.003319092
v 0.07730103 0.7098666 0.3677746
v 0.07730103 -0.8774728 0.3677746
v 0.3720221 0.7098666 -0.003415527
v 0.3720221 -0.8774734 -0.003415527
v 0.07730103 0.7098666 0.3677746
v 0.3720221 -0.961401 -0.003415527
v 0.07989319 -1.000696 0.4129761
v 0.07730103 -0.9613998 0.3677746
v 0.4166321 -1.000696 -0.01113525
v 0.3915106 -0.936626 -0.00777832
v 0.07730103 -0.9613998 0.3677746
v 0.07747192 -0.936626 0.3877429
v 0.3720221 -0.961401 -0.003415527
v 0.3915106 -0.9055206 -0.00777832
v 0.07747192 -0.936626 0.3877429
v 0.07747192 -0.9055203 0.3877429
v 0.3915106 -0.936626 -0.00777832
v 0.3720221 -0.8774734 -0.003415527
v 0.07747192 -0.9055203 0.3877429
v 0.07730103 -0.8774728 0.3677746
v 0.3915106 -0.9055206 -0.00777832
v 0.3720221 -0.8774734 -0.003415527
v -0.08468391 0.7098668 -0.3783905
v -0.08468391 -0.8774733 -0.3783903
v 0.3720221 0.7098666 -0.003415527
v -0.0846836 -0.9614006 -0.3783903
v 0.4166321 -1.000696 -0.01113525
v 0.3720221 -0.961401 -0.003415527
v -0.07806128 -1.000696 -0.4189427
v -0.08106878 -0.9366269 -0.3965153
v 0.3720221 -0.961401 -0.003415527
v 0.3915106 -0.936626 -0.00777832
v -0.0846836 -0.9614006 -0.3783903
v -0.08106878 -0.9055209 -0.3965153
v 0.3915106 -0.936626 -0.00777832
v 0.3915106 -0.9055206 -0.00777832
v -0.08106878 -0.9366269 -0.3965153
v -0.08468391 -0.8774733 -0.3783903
v 0.3915106 -0.9055206 -0.00777832
v 0.3720221 -0.8774734 -0.003415527
v -0.08106878 -0.9055209 -0.3965153
v -0.3960516 -0.8774734 0.01565186
v 0.07730103 0.7098666 0.3677746
v 0.07730103 -0.8774728 0.3677746
v -0.3960516 0.7098673 0.01565186
v 0.07730103 -0.9613998 0.3677746
v -0.4289484 -1.000696 0.02298723
v -0.3909531 -0.9614012 0.007344542
v 0.07989319 -1.000696 0.4129761
v 0.07747192 -0.936626 0.3877429
v -0.3909531 -0.9614012 0.007344542
v -0.4077866 -0.9366267 0.01497455
v 0.07730103 -0.9613998 0.3677746
v 0.07747192 -0.9055203 0.3877429
v -0.4077866 -0.9366267 0.01497455
v -0.4077866 -0.9055209 0.01497451
v 0.07747192 -0.936626 0.3877429
v 0.07730103 -0.8774728 0.3677746
v -0.4077866 -0.9055209 0.01497451
v -0.3960516 -0.8774734 0.01565186
v 0.07747192 -0.9055203 0.3877429
v 0.08234253 0.7481183 0.3256433
v -0.09183632 0.7481183 -0.3353797
v 0.3321307 0.7481183 0.01104492
v -0.3554034 0.7481183 -0.003319092
v -0.4289484 -1.000696 0.02298723
v -0.07527777 -1.413861 -0.4501438
v -0.07806128 -1.000696 -0.4189427
v -0.4587061 -1.413861 0.0327706
v -0.3554035 0.7481183 -0.003319073
v -0.08468391 0.7098668 -0.3783905
v -0.09183632 0.7481183 -0.3353797
v -0.3960517 0.7098673 0.01565186
v -0.08468391 -0.8774733 -0.3783903
v -0.3960517 0.7098673 0.01565186
v -0.3960517 -0.8774734 0.01565183
v -0.08468391 0.7098668 -0.3783905
v -0.3909531 -0.9614012 0.007344542
v -0.07806128 -1.000696 -0.4189427
v -0.0846836 -0.9614006 -0.3783903
v -0.4289484 -1.000696 0.02298723
v -0.4077866 -0.9366267 0.01497455
v -0.0846836 -0.9614006 -0.3783903
v -0.08106878 -0.9366269 -0.3965153
v -0.3909531 -0.9614012 0.007344542
v -0.4077866 -0.9055209 0.01497451
v -0.08106878 -0.9366269 -0.3965153
v -0.08106878 -0.9055209 -0.3965153
v -0.4077866 -0.9366267 0.01497455
v -0.3960517 -0.8774734 0.01565183
v -0.08106878 -0.9055209 -0.3965153
v -0.08468391 -0.8774733 -0.3783903
v -0.4077866 -0.9055209 0.01497451
vt 0.4851065 0.07071207
vt 0.3887715 0.00322204
vt 0.3931584 0.07071207
vt 0.489345 0.00322204
vt 0.3931584 0.07071207
vt 0.489345 0.00322204
vt 0.4851065 0.07071207
vt 0.3887715 0.00322204
vt 0.4851066 0.07071207
vt 0.3887716 0.00322204
vt 0.3931584 0.07071207
vt 0.489345 0.00322204
vt 0.4763694 0.3665786
vt 0.3898777 0.3539782
vt 0.3971008 0.3665786
vt 0.4835082 0.3539782
vt 0.3971008 0.3665786
vt 0.4835082 0.3539782
vt 0.4763694 0.3665786
vt 0.3898777 0.3539782
vt 0.4763694 0.3665785
vt 0.3898779 0.3539781
vt 0.3971008 0.3665786
vt 0.4835083 0.353978
vt 0.3898777 0.0969821
vt 0.4835082 0.3539782
vt 0.4835082 0.09698204
vt 0.3898777 0.3539782
vt 0.4792216 0.07867345
vt 0.3931584 0.07071207
vt 0.3990608 0.07867345
vt 0.4851065 0.07071207
vt 0.4819231 0.08316472
vt 0.3990608 0.07867345
vt 0.3963696 0.08316472
vt 0.4792216 0.07867345
vt 0.4819287 0.08823675
vt 0.3963696 0.08316472
vt 0.3963752 0.08823675
vt 0.4819231 0.08316472
vt 0.4792377 0.09321352
vt 0.3963752 0.08823675
vt 0.3990768 0.09321352
vt 0.4819287 0.08823675
vt 0.4835082 0.09698204
vt 0.3898777 0.3539782
vt 0.3898777 0.0969821
vt 0.4835082 0.3539782
vt 0.3990608 0.07867345
vt 0.4851065 0.07071207
vt 0.4792216 0.07867345
vt 0.3931584 0.07071207
vt 0.3963696 0.08316472
vt 0.4792216 0.07867345
vt 0.4819231 0.08316472
vt 0.3990608 0.07867345
vt 0.3963752 0.08823675
vt 0.4819231 0.08316472
vt 0.4819287 0.08823675
vt 0.3963696 0.08316472
vt 0.3990768 0.09321352
vt 0.4819287 0.08823675
vt 0.4792377 0.09321352
vt 0.3963752 0.08823675
vt 0.3898778 0.0969821
vt 0.4835083 0.353978
vt 0.4835082 0.09698194
vt 0.3898779 0.3539781
vt 0.4792216 0.07867345
vt 0.3931584 0.07071207
vt 0.3990608 0.07867345
vt 0.4851066 0.07071207
vt 0.4819231 0.08316472
vt 0.3990608 0.07867345
vt 0.3963696 0.08316472
vt 0.4792216 0.07867345
vt 0.4819288 0.08823675
vt 0.3963696 0.08316472
vt 0.3963752 0.08823675
vt 0.4819231 0.08316472
vt 0.4792377 0.09321352
vt 0.3963752 0.08823675
vt 0.3990769 0.09321352
vt 0.4819288 0.08823675
vt 0.3971008 0.3665786
vt 0.4763694 0.4666768
vt 0.4763694 0.3665786
vt 0.3971008 0.4666768
vt 0.4851065 0.07071207
vt 0.3887715 0.00322204
vt 0.3931584 0.07071207
vt 0.489345 0.00322204
vt 0.4763694 0.3665786
vt 0.3898777 0.3539782
vt 0.3971008 0.3665786
vt 0.4835082 0.3539782
vt 0.3898777 0.0969821
vt 0.4835082 0.3539782
vt 0.4835082 0.09698204
vt 0.3898777 0.3539782
vt 0.4792216 0.07867345
vt 0.3931584 0.07071207
vt 0.3990608 0.07867345
vt 0.4851065 0.07071207
vt 0.4819231 0.08316472
vt 0.3990608 0.07867345
vt 0.3963696 0.08316472
vt 0.4792216 0.07867345
vt 0.4819287 0.08823675
vt 0.3963696 0.08316472
vt 0.3963752 0.08823675
vt 0.4819231 0.08316472
vt 0.4792377 0.09321352
vt 0.3963752 0.08823675
vt 0.3990768 0.09321352
vt 0.4819287 0.08823675
vn 0.7816729 0.06160653 0.6206385
vn 0.781673 0.06160635 0.6206384
vn 0.7816731 0.061606 0.6206383
vn 0.7816727 0.06160686 0.6206387
vn 0.6349405 0.06011769 -0.7702185
vn 0.6493539 0.06317075 -0.7578581
vn 0.6484758 0.06117896 -0.7587729
vn 0.6359353 0.06237361 -0.7692177
vn -0.5901868 0.06320474 0.8047886
vn -0.5908859 0.06464777 0.8041607
vn -0.5918213 0.06658356 0.8033144
vn -0.589294 0.06136698 0.8055847
vn 0.6769689 0.5027925 0.5375061
vn 0.6769661 0.5027977 0.5375047
vn 0.6769658 0.5027984 0.5375045
vn 0.6769689 0.5027921 0.5375062
vn 0.4581394 0.6897375 -0.5606876
vn 0.4624196 0.694531 -0.5511758
vn 0.4635203 0.6924111 -0.5529158
vn 0.4514734 0.7027132 -0.5498781
vn -0.4294425 0.6947195 0.577013
vn -0.4184527 0.7171702 0.5572828
vn -0.4174573 0.7191268 0.5555052
vn -0.4300516 0.6934277 0.5781122
vn 0.7831598 0 0.6218206
vn 0.7831598 0 0.6218206
vn 0.7831597 0 0.6218206
vn 0.7831597 0 0.6218206
vn 0.6214427 0.6085628 0.4934169
vn 0.621443 0.6085624 0.4934171
vn 0.621443 0.6085622 0.4934172
vn 0.6214427 0.6085628 0.493417
vn 0.6986389 -0.4518816 0.5547131
vn 0.698626 -0.4519179 0.5547
vn 0.6986256 -0.451919 0.5546995
vn 0.6986396 -0.4518795 0.5547139
vn 0.7831607 0 0.6218193
vn 0.7831607 0 0.6218194
vn 0.7831607 0 0.6218194
vn 0.7831607 0 0.6218193
vn 0.7148609 0.4084305 0.56759
vn 0.7148553 0.4084451 0.5675866
vn 0.7148548 0.408446 0.5675865
vn 0.7148611 0.40843 0.5675901
vn 0.646166 0 -0.7631969
vn 0.6345611 0 -0.7728727
vn 0.634561 0 -0.7728727
vn 0.646166 0 -0.7631969
vn 0.4782132 0.6573197 -0.5824456
vn 0.4830646 0.6645302 -0.57013
vn 0.4842445 0.6621045 -0.5719484
vn 0.4719827 0.670394 -0.5725419
vn 0.5361134 -0.5364853 -0.6517407
vn 0.5443361 -0.5420305 -0.6402354
vn 0.5446894 -0.5412662 -0.6405813
vn 0.5300867 -0.5497032 -0.6456273
vn 0.6352728 0 -0.7722878
vn 0.6477818 0 -0.761826
vn 0.6477818 0 -0.761826
vn 0.6352728 -9.470997E-07 -0.7722878
vn 0.5533879 0.4893636 -0.6740066
vn 0.5615063 0.4950128 -0.6630784
vn 0.5619284 0.4936951 -0.6637029
vn 0.5493037 0.5023335 -0.6677773
vn -0.5968584 0 0.8023466
vn -0.5968584 0 0.8023466
vn -0.5968584 0 0.8023466
vn -0.5968584 0 0.8023465
vn -0.4432015 0.6648043 0.6013383
vn -0.4318644 0.6899502 0.5809147
vn -0.431035 0.6917156 0.5794293
vn -0.4437401 0.66356 0.6023146
vn -0.501579 -0.5418655 0.6743888
vn -0.4893033 -0.5693783 0.6605987
vn -0.488922 -0.5702043 0.6601685
vn -0.5021245 -0.5405995 0.6749986
vn -0.5951569 0 0.8036096
vn -0.5951568 0 0.8036096
vn -0.5951568 0 0.8036096
vn -0.5951569 0 0.8036096
vn -0.5171538 0.4950471 0.6981979
vn -0.5091009 0.5218106 0.6844924
vn -0.5087618 0.522892 0.683919
vn -0.5173931 0.4942178 0.698608
vn 1.091568E-07 1 0
vn 0 1 0
vn 1.091567E-07 1 0
vn 1.091569E-07 1 0
vn -0.7824808 0.04164586 -0.6212805
vn -0.7824808 0.04164586 -0.6212805
vn -0.7824808 0.04164587 -0.6212806
vn -0.7824808 0.04164588 -0.6212806
vn -0.6855509 0.4836605 -0.5441438
vn -0.6855509 0.4836605 -0.5441438
vn -0.6855509 0.4836605 -0.5441438
vn -0.6943225 0.4657292 -0.5486462
vn -0.7846097 0 -0.6199901
vn -0.7846097 0 -0.6199901
vn -0.7846097 0 -0.6199901
vn -0.7846099 0 -0.6199898
vn -0.6977445 0.4541313 -0.5540013
vn -0.6977444 0.4541313 -0.5540013
vn -0.6977445 0.4541313 -0.5540013
vn -0.6977454 0.4541294 -0.5540017
vn -0.7413249 -0.3224661 -0.5886026
vn -0.7413249 -0.3224661 -0.5886026
vn -0.7413249 -0.3224661 -0.5886026
vn -0.7413326 -0.3224332 -0.588611
vn -0.7831604 -7.625721E-07 -0.6218197
vn -0.7831604 -7.625721E-07 -0.6218196
vn -0.7831604 -7.625721E-07 -0.6218197
vn -0.7831604 -7.625758E-07 -0.6218197
vn -0.7516189 0.2869267 -0.593921
vn -0.7516189 0.2869267 -0.593921
vn -0.7516189 0.2869267 -0.593921
vn -0.7408667 0.3241783 -0.5882389
g Camp_Arena_Wall03_0
f 3/3/3 2/2/2 1/1/1
f 4/4/4 1/1/1 2/2/2
f 7/7/7 6/6/6 5/5/5
f 8/8/8 5/5/5 6/6/6
f 11/11/11 10/10/10 9/9/9
f 12/12/12 9/9/9 10/10/10
f 15/15/15 14/14/14 13/13/13
f 16/16/16 13/13/13 14/14/14
f 19/19/19 18/18/18 17/17/17
f 20/20/20 17/17/17 18/18/18
f 23/23/23 22/22/22 21/21/21
f 24/24/24 21/21/21 22/22/22
f 27/27/27 26/26/26 25/25/25
f 28/28/28 25/25/25 26/26/26
f 31/31/31 30/30/30 29/29/29
f 32/32/32 29/29/29 30/30/30
f 35/35/35 34/34/34 33/33/33
f 36/36/36 33/33/33 34/34/34
f 39/39/39 38/38/38 37/37/37
f 40/40/40 37/37/37 38/38/38
f 43/43/43 42/42/42 41/41/41
f 44/44/44 41/41/41 42/42/42
f 47/47/47 46/46/46 45/45/45
f 48/48/48 45/45/45 46/46/46
f 51/51/51 50/50/50 49/49/49
f 52/52/52 49/49/49 50/50/50
f 55/55/55 54/54/54 53/53/53
f 56/56/56 53/53/53 54/54/54
f 59/59/59 58/58/58 57/57/57
f 60/60/60 57/57/57 58/58/58
f 63/63/63 62/62/62 61/61/61
f 64/64/64 61/61/61 62/62/62
f 67/67/67 66/66/66 65/65/65
f 68/68/68 65/65/65 66/66/66
f 71/71/71 70/70/70 69/69/69
f 72/72/72 69/69/69 70/70/70
f 75/75/75 74/74/74 73/73/73
f 76/76/76 73/73/73 74/74/74
f 79/79/79 78/78/78 77/77/77
f 80/80/80 77/77/77 78/78/78
f 83/83/83 82/82/82 81/81/81
f 84/84/84 81/81/81 82/82/82
f 87/87/87 86/86/86 85/85/85
f 88/88/88 85/85/85 86/86/86
f 91/91/91 90/90/90 89/89/89
f 92/92/92 89/89/89 90/90/90
f 95/95/95 94/94/94 93/93/93
f 96/96/96 93/93/93 94/94/94
f 99/99/99 98/98/98 97/97/97
f 100/100/100 97/97/97 98/98/98
f 103/103/103 102/102/102 101/101/101
f 104/104/104 101/101/101 102/102/102
f 107/107/107 106/106/106 105/105/105
f 108/108/108 105/105/105 106/106/106
f 111/111/111 110/110/110 109/109/109
f 112/112/112 109/109/109 110/110/110
f 115/115/115 114/114/114 113/113/113
f 116/116/116 113/113/113 114/114/114
