g BM_Flagpole
v -0.07064373 0.1765939 -0.03668579
v 0.02248714 2.639657 -0.03667145
v -0.07064676 2.639657 -0.03668762
v 0.02249224 0.1765939 -0.03667542
v -0.07064591 0.1765939 0.04949493
v -0.07064676 2.639657 -0.03668762
v -0.07065107 2.639657 0.0494989
v -0.07064373 0.1765939 -0.03668579
v 0.0224979 0.1765939 0.04949341
v -0.07065107 2.639657 0.0494989
v 0.02248732 2.639657 0.04950439
v -0.07064591 0.1765939 0.04949493
v 0.02249224 0.1765939 -0.03667542
v 0.02248732 2.639657 0.04950439
v 0.02248714 2.639657 -0.03667145
v 0.0224979 0.1765939 0.04949341
v -0.4173807 2.603708 0.06343719
v 0.4173784 2.533285 0.06344818
v 0.4173804 2.603708 0.06343536
v -0.4173802 2.533288 0.06344513
v -0.4173803 2.603713 0.1286081
v 0.4173804 2.603708 0.06343536
v 0.4173816 2.603712 0.1286105
v -0.4173807 2.603708 0.06343719
v -0.4173821 2.533283 0.1286069
v 0.4173816 2.603712 0.1286105
v 0.4173813 2.533283 0.1286151
v -0.4173803 2.603713 0.1286081
v -0.4173802 2.533288 0.06344513
v 0.4173813 2.533283 0.1286151
v 0.4173784 2.533285 0.06344818
v -0.4173821 2.533283 0.1286069
v 0.4173804 2.603708 0.06343536
v 0.4173813 2.533283 0.1286151
v 0.4173816 2.603712 0.1286105
v 0.4173784 2.533285 0.06344818
v -0.07791962 2.696691 -0.05440399
v 0.03164101 2.589448 -0.0544043
v 0.03164444 2.696691 -0.05440399
v -0.07791936 2.589448 -0.05440399
v 0.03164333 2.696691 0.05277191
v -0.07792068 2.585318 0.05277191
v -0.07792078 2.696691 0.05277161
v 0.03164343 2.585318 0.05277191
v 0.03164444 2.696691 -0.05440399
v 0.03164343 2.585318 0.05277191
v 0.03164333 2.696691 0.05277191
v 0.03164101 2.589448 -0.0544043
v -0.07792078 2.696691 0.05277161
v -0.07791936 2.589448 -0.05440399
v -0.07791962 2.696691 -0.05440399
v -0.07792068 2.585318 0.05277191
v 0.03164444 2.696691 -0.05440399
v -0.1262326 2.762913 -0.1016806
v -0.07791962 2.696691 -0.05440399
v 0.07994492 2.762913 -0.1016809
v -0.07792078 2.696691 0.05277161
v 0.07994301 2.762913 0.09999359
v 0.03164333 2.696691 0.05277191
v -0.1262344 2.762913 0.09999359
v 0.03164333 2.696691 0.05277191
v 0.07994492 2.762913 -0.1016809
v 0.03164444 2.696691 -0.05440399
v 0.07994301 2.762913 0.09999359
v -0.07791962 2.696691 -0.05440399
v -0.1262344 2.762913 0.09999359
v -0.07792078 2.696691 0.05277161
v -0.1262326 2.762913 -0.1016806
v 0.07994492 2.762913 -0.1016809
v -0.04611864 2.897594 -0.02357635
v -0.1262326 2.762913 -0.1016806
v -0.0001357651 2.897594 -0.02357635
v -0.1262344 2.762913 0.09999359
v -0.000135231 2.897594 0.02141876
v 0.07994301 2.762913 0.09999359
v -0.04611803 2.897594 0.02141846
v 0.07994301 2.762913 0.09999359
v -0.0001357651 2.897594 -0.02357635
v 0.07994492 2.762913 -0.1016809
v -0.000135231 2.897594 0.02141876
v -0.1262326 2.762913 -0.1016806
v -0.04611803 2.897594 0.02141846
v -0.1262344 2.762913 0.09999359
v -0.04611864 2.897594 -0.02357635
v -0.0001357651 2.897594 -0.02357635
v -0.09081203 2.941816 -0.06716125
v -0.04611864 2.897594 -0.02357635
v 0.04452728 2.941816 -0.06716156
v -0.04611803 2.897594 0.02141846
v 0.04452957 2.941816 0.06518982
v -0.000135231 2.897594 0.02141876
v -0.09080973 2.941816 0.06519012
v -0.000135231 2.897594 0.02141876
v 0.04452728 2.941816 -0.06716156
v -0.0001357651 2.897594 -0.02357635
v 0.04452957 2.941816 0.06518982
v -0.04611864 2.897594 -0.02357635
v -0.09080973 2.941816 0.06519012
v -0.04611803 2.897594 0.02141846
v -0.09081203 2.941816 -0.06716125
v 0.02338306 2.981074 -0.04697846
v -0.02315622 3.151798 -0.005787964
v -0.06966659 2.981074 -0.04697846
v -0.09081203 2.941816 -0.06716125
v 0.04452728 2.941816 -0.06716156
v 0.02345078 2.980842 0.04409271
v 0.02338306 2.981074 -0.04697846
v 0.04452728 2.941816 -0.06716156
v 0.04452957 2.941816 0.06518982
v -0.06966659 2.981074 -0.04697846
v -0.06972835 2.980842 0.04409271
v -0.09080973 2.941816 0.06519012
v -0.09081203 2.941816 -0.06716125
v -0.06972835 2.980842 0.04409271
v 0.02345078 2.980842 0.04409271
v 0.04452957 2.941816 0.06518982
v -0.09080973 2.941816 0.06519012
v -0.07791936 2.589448 -0.05440399
v -0.02315475 2.558402 -0.003227234
v 0.03164101 2.589448 -0.0544043
v 0.03164343 2.585318 0.05277191
v -0.07792068 2.585318 0.05277191
v -0.1619899 0.2318561 -0.1404504
v 0.1918719 2.485323E-17 -0.2056763
v 0.1251821 0.2318562 -0.1404504
v -0.2286739 2.485325E-17 -0.2056766
v 0.1251789 0.2318561 0.140451
v -0.228672 -3.348457E-19 0.2056763
v -0.1619931 0.2318562 0.1404514
v 0.1918738 -3.348457E-19 0.2056763
v 0.1251821 0.2318562 -0.1404504
v 0.1918738 -3.348457E-19 0.2056763
v 0.1251789 0.2318561 0.140451
v 0.1918719 2.485323E-17 -0.2056763
v -0.1619931 0.2318562 0.1404514
v -0.2286739 2.485325E-17 -0.2056766
v -0.1619899 0.2318561 -0.1404504
v -0.228672 -3.348457E-19 0.2056763
v -0.1619899 0.2318561 -0.1404504
v 0.1251821 0.2318562 -0.1404504
v -0.01840025 0.2701085 0
v -0.1619931 0.2318562 0.1404514
v 0.1251789 0.2318561 0.140451
v -0.4173821 2.533283 0.1286069
v -0.4173807 2.603708 0.06343719
v -0.4173803 2.603713 0.1286081
v -0.4173802 2.533288 0.06344513
vt 0.4768455 0.01510441
vt 0.9705498 0.02906319
vt 0.9705498 0.01510441
vt 0.4768455 0.02906319
vt 0.4768455 0.01510441
vt 0.9705498 0.02906319
vt 0.9705498 0.01510441
vt 0.4768455 0.02906319
vt 0.4768455 0.01510441
vt 0.9705498 0.02906319
vt 0.9705498 0.01510441
vt 0.4768455 0.02906319
vt 0.4768455 0.01510441
vt 0.9705498 0.02906319
vt 0.9705498 0.01510441
vt 0.4768455 0.02906319
vt 0.4796159 0.03603995
vt 0.6989054 0.05391326
vt 0.6989054 0.03603995
vt 0.4796159 0.05391326
vt 0.6989054 0.05391326
vt 0.4796159 0.03603995
vt 0.4796159 0.05391326
vt 0.6989054 0.03603995
vt 0.6989054 0.05391326
vt 0.4796159 0.03603995
vt 0.4796159 0.05391326
vt 0.6989054 0.03603995
vt 0.6989054 0.05391326
vt 0.4796159 0.03603995
vt 0.4796159 0.05391326
vt 0.6989054 0.03603995
vt 0.6788866 0.05472093
vt 0.6617643 0.03622025
vt 0.6617655 0.05472142
vt 0.6788837 0.03622049
vt 0.1711842 0.7674168
vt 0.1905099 0.7587983
vt 0.1907989 0.7674168
vt 0.1708952 0.7587983
vt 0.1711842 0.7674168
vt 0.1905099 0.7587983
vt 0.1907989 0.7674168
vt 0.1708952 0.7587983
vt 0.1711842 0.7674168
vt 0.1905099 0.7587983
vt 0.1907989 0.7674168
vt 0.1708952 0.7587983
vt 0.1711842 0.7674168
vt 0.1905099 0.7587983
vt 0.1907989 0.7674168
vt 0.1708952 0.7587983
vt 0.1907989 0.7674168
vt 0.1629572 0.7780656
vt 0.1711842 0.7674168
vt 0.1998103 0.7780656
vt 0.1907989 0.7674168
vt 0.1629572 0.7780656
vt 0.1711842 0.7674168
vt 0.1998103 0.7780656
vt 0.1907989 0.7674168
vt 0.1629572 0.7780656
vt 0.1711842 0.7674168
vt 0.1998103 0.7780656
vt 0.1907989 0.7674168
vt 0.1629572 0.7780656
vt 0.1711842 0.7674168
vt 0.1998103 0.7780656
vt 0.1998103 0.7780656
vt 0.1781459 0.8000199
vt 0.1629572 0.7780656
vt 0.1859995 0.8000199
vt 0.1998103 0.7780656
vt 0.1781459 0.8000199
vt 0.1629572 0.7780656
vt 0.1859995 0.8000199
vt 0.1998103 0.7780656
vt 0.1781459 0.8000199
vt 0.1629572 0.7780656
vt 0.1859995 0.8000199
vt 0.1998103 0.7780656
vt 0.1781459 0.8000199
vt 0.1629572 0.7780656
vt 0.1859995 0.8000199
vt 0.1781459 0.8000199
vt 0.1930795 0.8098361
vt 0.1859995 0.8000199
vt 0.1710185 0.8098361
vt 0.1781459 0.8000199
vt 0.1930798 0.8098361
vt 0.1859995 0.8000199
vt 0.1710191 0.8098361
vt 0.1781459 0.8000199
vt 0.1930798 0.8098361
vt 0.1859995 0.8000199
vt 0.1710185 0.8098361
vt 0.1781459 0.8000199
vt 0.1930798 0.8098361
vt 0.1859995 0.8000199
vt 0.1710185 0.8098361
vt 0.1742543 0.8154919
vt 0.1818453 0.8408327
vt 0.1894367 0.8154919
vt 0.1928774 0.8098361
vt 0.1708132 0.8098361
vt 0.1742543 0.8154919
vt 0.1894367 0.8154919
vt 0.1928774 0.8098361
vt 0.1708132 0.8098361
vt 0.1742543 0.8154919
vt 0.1894367 0.8154919
vt 0.1928774 0.8098361
vt 0.1708132 0.8098361
vt 0.1742543 0.8154919
vt 0.1894367 0.8154919
vt 0.1928774 0.8098361
vt 0.1708132 0.8098361
vt 0.1640573 0.7734011
vt 0.1532235 0.7632809
vt 0.14239 0.7734011
vt 0.14239 0.752207
vt 0.1640573 0.752207
vt 0.07494165 0.7377254
vt 0.101461 0.703945
vt 0.07494165 0.7106891
vt 0.101461 0.7435371
vt 0.07494165 0.7377254
vt 0.101461 0.703945
vt 0.07494165 0.7106891
vt 0.101461 0.7435371
vt 0.07494165 0.7377254
vt 0.101461 0.703945
vt 0.07494165 0.7106891
vt 0.101461 0.7435371
vt 0.07494165 0.7377254
vt 0.101461 0.703945
vt 0.07494165 0.7106891
vt 0.101461 0.7435371
vt 0.155894 0.745304
vt 0.155894 0.7197295
vt 0.1434634 0.7325162
vt 0.1312959 0.745304
vt 0.1312959 0.7197295
vt 0.6595866 0.0387696
vt 0.6467869 0.0526014
vt 0.6595868 0.05260242
vt 0.6467885 0.03877059
vn 0.0001129048 1.554298E-06 -1
vn 0.0001721692 -6.865453E-07 -1
vn 0.0001736674 -7.431918E-07 -1
vn 0.0001114068 1.610943E-06 -1
vn -1 -1.250596E-06 -2.578235E-05
vn -1 -2.079182E-06 -4.946302E-05
vn -1 -2.098492E-06 -5.001488E-05
vn -1 -1.231284E-06 -2.523044E-05
vn 1.456859E-05 -1.679257E-06 1
vn -5.7165E-05 -4.392103E-06 1
vn -5.897852E-05 -4.460688E-06 1
vn 1.638197E-05 -1.610678E-06 1
vn 1 4.248442E-06 -6.432155E-05
vn 1 2.117261E-06 -3.411321E-06
vn 1 2.0676E-06 -1.991989E-06
vn 1 4.298107E-06 -6.574101E-05
vn 3.342054E-06 -0.0001163903 -1
vn -1.880009E-06 -0.0001782904 -1
vn -2.193374E-06 -0.0001820048 -1
vn 3.655445E-06 -0.0001126756 -1
vn -6.406535E-07 1 -7.844428E-05
vn 1.006233E-06 1 -5.735025E-05
vn 1.096917E-06 1 -5.618874E-05
vn -7.313437E-07 1 -7.96059E-05
vn -3.296901E-06 -1.292046E-05 1
vn -9.498524E-06 6.058455E-05 1
vn -9.870733E-06 6.499618E-05 1
vn -2.924693E-06 -1.733208E-05 1
vn -5.280186E-07 -1 -7.75264E-05
vn -3.492503E-06 -1 -3.955436E-05
vn -3.65572E-06 -1 -3.746372E-05
vn -3.647977E-07 -1 -7.961709E-05
vn 1 -1.566619E-05 -3.097327E-05
vn 1 -1.684202E-05 -3.224374E-05
vn 1 -4.334292E-06 -1.872933E-05
vn 1 -2.817553E-05 -4.448942E-05
vn -0.7071046 -6.424934E-07 -0.7071089
vn 0.6261773 -0.4586655 -0.6304982
vn 0.7071125 -8.719584E-06 -0.707101
vn -0.626192 -0.4586278 -0.630511
vn 0.7071017 1.584359E-06 0.7071118
vn -0.6208656 -0.4864857 0.6147013
vn -0.7071127 8.171527E-07 0.7071008
vn 0.6208626 -0.4865185 0.6146783
vn 0.7071125 -8.719584E-06 -0.707101
vn 0.6208626 -0.4865185 0.6146783
vn 0.7071017 1.584359E-06 0.7071118
vn 0.6261773 -0.4586655 -0.6304982
vn -0.7071127 8.171527E-07 0.7071008
vn -0.626192 -0.4586278 -0.630511
vn -0.7071046 -6.424934E-07 -0.7071089
vn -0.6208656 -0.4864857 0.6147013
vn 0.491611 -0.7142339 -0.4981854
vn -0.4960215 -0.7143205 -0.4936689
vn -0.4915298 -0.7142787 -0.4982012
vn 0.4960434 -0.7142748 -0.493713
vn -0.4915029 -0.7140773 0.4985163
vn 0.4962484 -0.714072 0.4938003
vn 0.4915745 -0.714026 0.4985192
vn -0.4962299 -0.7141241 0.4937434
vn 0.4915745 -0.714026 0.4985192
vn 0.4960434 -0.7142748 -0.493713
vn 0.491611 -0.7142339 -0.4981854
vn 0.4962484 -0.714072 0.4938003
vn -0.4915298 -0.7142787 -0.4982012
vn -0.4962299 -0.7141241 0.4937434
vn -0.4915029 -0.7140773 0.4985163
vn -0.4960215 -0.7143205 -0.4936689
vn 0.5453445 0.6389093 -0.542581
vn -0.540454 0.6389392 -0.5474177
vn -0.5453172 0.6389905 -0.5425129
vn 0.5405557 0.6388568 -0.5474135
vn -0.544331 0.6401123 0.5421808
vn 0.5407173 0.6399948 0.5459226
vn 0.5443537 0.640023 0.5422634
vn -0.5406014 0.640079 0.5459387
vn 0.5443537 0.640023 0.5422634
vn 0.5405557 0.6388568 -0.5474135
vn 0.5453445 0.6389093 -0.542581
vn 0.5407173 0.6399948 0.5459226
vn -0.5453172 0.6389905 -0.5425129
vn -0.5406014 0.640079 0.5459387
vn -0.544331 0.6401123 0.5421808
vn -0.540454 0.6389392 -0.5474177
vn 0.4047626 -0.8158501 -0.4129842
vn -0.4099793 -0.8159983 -0.4075092
vn -0.4045688 -0.8159388 -0.4129987
vn 0.4100304 -0.8159069 -0.4076407
vn -0.4047026 -0.8165258 0.4117056
vn 0.409254 -0.8164832 0.4072669
vn 0.4048934 -0.8164436 0.411681
vn -0.4091938 -0.8165674 0.4071585
vn 0.4048934 -0.8164436 0.411681
vn 0.4100304 -0.8159069 -0.4076407
vn 0.4047626 -0.8158501 -0.4129842
vn 0.409254 -0.8164832 0.4072669
vn -0.4045688 -0.8159388 -0.4129987
vn -0.4091938 -0.8165674 0.4071585
vn -0.4047026 -0.8165258 0.4117056
vn -0.4099793 -0.8159983 -0.4075092
vn 0.6089656 0.504435 -0.6121324
vn -8.513957E-05 0.9997335 -0.02308419
vn -0.6087899 0.5045241 -0.6122339
vn -0.5697401 0.5971605 -0.56462
vn 0.5697275 0.5973313 -0.5644519
vn 0.6018407 0.5224618 0.6040044
vn 0.6089656 0.504435 -0.6121324
vn 0.5697275 0.5973313 -0.5644519
vn 0.5617965 0.6071825 0.5618845
vn -0.6087899 0.5045241 -0.6122339
vn -0.6016122 0.5225516 0.6041545
vn -0.5617861 0.6070234 0.5620668
vn -0.5697401 0.5971605 -0.56462
vn -0.6016122 0.5225516 0.6041545
vn 0.6018407 0.5224618 0.6040044
vn 0.5617965 0.6071825 0.5618845
vn -0.5617861 0.6070234 0.5620668
vn -0.626192 -0.4586278 -0.630511
vn -9.934907E-05 -0.9988915 -0.04707294
vn 0.6261773 -0.4586655 -0.6304982
vn 0.6208626 -0.4865185 0.6146783
vn -0.6208656 -0.4864857 0.6147013
vn -0.6543857 0.3732153 -0.6576394
vn 0.6569875 0.373244 -0.655024
vn 0.6543782 0.3732342 -0.6576362
vn -0.6569887 0.3732253 -0.6550334
vn 0.6543659 0.3732395 0.6576455
vn -0.6569887 0.3732153 0.6550391
vn -0.654397 0.3732056 0.6576337
vn 0.6569899 0.3732497 0.6550184
vn 0.6543782 0.3732342 -0.6576362
vn 0.6569899 0.3732497 0.6550184
vn 0.6543659 0.3732395 0.6576455
vn 0.6569875 0.373244 -0.655024
vn -0.654397 0.3732056 0.6576337
vn -0.6569887 0.3732253 -0.6550334
vn -0.6543857 0.3732153 -0.6576394
vn -0.6569887 0.3732153 0.6550391
vn -0.1326849 0.9823433 -0.1318957
vn 0.1326879 0.9823425 -0.1318983
vn 7.476212E-06 1 -5.5927E-07
vn -0.1326839 0.9823438 0.1318921
vn 0.1326881 0.9823421 0.1319016
vn -1 8.147465E-06 -1.285344E-05
vn -1 9.724811E-06 -1.11489E-05
vn -1 2.491487E-05 5.266054E-06
vn -1 -7.045522E-06 -2.927155E-05
g BM_Flagpole_0
f 3/3/3 2/2/2 1/1/1
f 4/4/4 1/1/1 2/2/2
f 7/7/7 6/6/6 5/5/5
f 8/8/8 5/5/5 6/6/6
f 11/11/11 10/10/10 9/9/9
f 12/12/12 9/9/9 10/10/10
f 15/15/15 14/14/14 13/13/13
f 16/16/16 13/13/13 14/14/14
f 19/19/19 18/18/18 17/17/17
f 20/20/20 17/17/17 18/18/18
f 23/23/23 22/22/22 21/21/21
f 24/24/24 21/21/21 22/22/22
f 27/27/27 26/26/26 25/25/25
f 28/28/28 25/25/25 26/26/26
f 31/31/31 30/30/30 29/29/29
f 32/32/32 29/29/29 30/30/30
f 35/35/35 34/34/34 33/33/33
f 36/36/36 33/33/33 34/34/34
f 39/39/39 38/38/38 37/37/37
f 40/40/40 37/37/37 38/38/38
f 43/43/43 42/42/42 41/41/41
f 44/44/44 41/41/41 42/42/42
f 47/47/47 46/46/46 45/45/45
f 48/48/48 45/45/45 46/46/46
f 51/51/51 50/50/50 49/49/49
f 52/52/52 49/49/49 50/50/50
f 55/55/55 54/54/54 53/53/53
f 56/56/56 53/53/53 54/54/54
f 59/59/59 58/58/58 57/57/57
f 60/60/60 57/57/57 58/58/58
f 63/63/63 62/62/62 61/61/61
f 64/64/64 61/61/61 62/62/62
f 67/67/67 66/66/66 65/65/65
f 68/68/68 65/65/65 66/66/66
f 71/71/71 70/70/70 69/69/69
f 72/72/72 69/69/69 70/70/70
f 75/75/75 74/74/74 73/73/73
f 76/76/76 73/73/73 74/74/74
f 79/79/79 78/78/78 77/77/77
f 80/80/80 77/77/77 78/78/78
f 83/83/83 82/82/82 81/81/81
f 84/84/84 81/81/81 82/82/82
f 87/87/87 86/86/86 85/85/85
f 88/88/88 85/85/85 86/86/86
f 91/91/91 90/90/90 89/89/89
f 92/92/92 89/89/89 90/90/90
f 95/95/95 94/94/94 93/93/93
f 96/96/96 93/93/93 94/94/94
f 99/99/99 98/98/98 97/97/97
f 100/100/100 97/97/97 98/98/98
f 103/103/103 102/102/102 101/101/101
f 103/103/103 101/101/101 104/104/104
f 105/105/105 104/104/104 101/101/101
f 107/107/107 102/102/102 106/106/106
f 107/107/107 106/106/106 108/108/108
f 109/109/109 108/108/108 106/106/106
f 111/111/111 102/102/102 110/110/110
f 111/111/111 110/110/110 112/112/112
f 113/113/113 112/112/112 110/110/110
f 115/115/115 102/102/102 114/114/114
f 115/115/115 114/114/114 116/116/116
f 117/117/117 116/116/116 114/114/114
f 120/120/120 119/119/119 118/118/118
f 121/121/121 119/119/119 120/120/120
f 118/118/118 119/119/119 122/122/122
f 122/122/122 119/119/119 121/121/121
f 125/125/125 124/124/124 123/123/123
f 126/126/126 123/123/123 124/124/124
f 129/129/129 128/128/128 127/127/127
f 130/130/130 127/127/127 128/128/128
f 133/133/133 132/132/132 131/131/131
f 134/134/134 131/131/131 132/132/132
f 137/137/137 136/136/136 135/135/135
f 138/138/138 135/135/135 136/136/136
f 141/141/141 140/140/140 139/139/139
f 142/142/142 141/141/141 139/139/139
f 143/143/143 141/141/141 142/142/142
f 143/143/143 140/140/140 141/141/141
f 146/146/146 145/145/145 144/144/144
f 147/147/147 144/144/144 145/145/145
