g BM_Grass_Flower_Violet
v 0.6988294 -0.0419181 -0.2111306
v 0.1489891 0.07923608 -0.1925428
v 0.1817235 -0.04159015 -0.7421208
v -0.4175756 -0.03896704 -0.1585066
v 0.0995322 -0.03929456 0.3724995
v 0.6988294 -0.0419181 -0.2111306
v -0.02795093 -0.04191805 0.6772443
v -0.1384386 0.07923615 0.1382982
v 0.4088513 -0.04159027 0.07845204
v -0.2669593 -0.03896711 -0.4145451
v -0.7037762 -0.03929456 0.184253
v -0.02795093 -0.04191805 0.6772443
v 0.4022423 -0.02329348 0.1474874
v 0.1407045 0.06124894 0.4350964
v -0.121182 -0.02329331 0.1474924
v -0.1211834 -0.02329384 0.7382486
v 0.4022503 -0.02329359 0.7382497
v 0.4022423 -0.02329348 0.1474874
vt 0.3675378 0.2159482
vt 0.2813728 0.1182485
vt 0.1921048 0.2132489
vt 0.1951493 0.01525044
vt 0.3705856 0.01794737
vt 0.3675378 0.2159482
vt 0.3675378 0.2159482
vt 0.2813728 0.1182485
vt 0.1921048 0.2132489
vt 0.1951493 0.01525044
vt 0.3705856 0.01794737
vt 0.3675378 0.2159482
vt 0.3675378 0.2159482
vt 0.2813728 0.1182485
vt 0.1921048 0.2132489
vt 0.1951493 0.01525044
vt 0.3705856 0.01794737
vt 0.3675378 0.2159482
vn 0.204492 0.9585195 -0.198553
vn 0.006613333 0.9999626 -0.005592014
vn 0.007989598 0.9767432 -0.2142638
vn -0.204263 0.978916 -0.000508367
vn -0.004342875 0.9787652 0.2049384
vn 0.2170207 0.9513829 0.2185698
vn 0.2300201 0.9585196 0.1683179
vn 0.006621471 0.9999626 0.005581848
vn 0.2125719 0.9767432 -0.02803766
vn -0.03373691 0.9789159 -0.2014588
vn -0.2027671 0.9787652 0.03006992
vn -0.1791008 0.9513829 0.2505862
vn -2.392507E-06 0.9594087 -0.2820195
vn 0.0001657653 0.9999849 -0.005502979
vn -0.1483605 0.9771597 -0.1521455
vn -0.1433057 0.9783899 0.149053
vn 0.1433593 0.9783655 0.1491604
vn 0.3075767 0.9515232 -3.99416E-06
g BM_Grass_Flower_Violet_0
f 3/3/3 2/2/2 1/1/1
f 4/4/4 2/2/2 3/3/3
f 4/4/4 5/5/5 2/2/2
f 6/6/6 2/2/2 5/5/5
f 9/9/9 8/8/8 7/7/7
f 10/10/10 8/8/8 9/9/9
f 10/10/10 11/11/11 8/8/8
f 12/12/12 8/8/8 11/11/11
f 15/15/15 14/14/14 13/13/13
f 16/16/16 14/14/14 15/15/15
f 16/16/16 17/17/17 14/14/14
f 18/18/18 14/14/14 17/17/17
