g BM_Grass_Flower_Yellow
v -0.4588681 -0.04606194 -0.3953957
v 0.1435525 0.08971048 -0.231523
v -0.07639436 -0.04606222 0.3531568
v 0.7684547 -0.04606296 -0.07850678
v 0.3859852 -0.04606259 -0.8270765
v -0.4588681 -0.04606194 -0.3953957
v -0.7868825 -0.0308845 -0.03158644
v -0.317059 0.07500351 0.09621811
v -0.4885943 -0.03088444 0.5522047
v 0.1702972 -0.03088509 0.2155538
v -0.1279884 -0.03088482 -0.3682505
v -0.7868825 -0.0308845 -0.03158644
v 0.6570076 -0.03727321 0.3507763
v 0.1129144 0.08171754 0.2930576
v 0.2216237 -0.03727319 -0.2435103
v -0.4491161 -0.03727363 0.2478704
v -0.01373306 -0.03727374 0.8421741
v 0.6570076 -0.03727321 0.3507763
vt 0.18191 0.2154303
vt 0.09609363 0.1177219
vt 0.006784207 0.212376
vt 0.01022959 0.01472411
vt 0.1853584 0.01777624
vt 0.18191 0.2154303
vt 0.18191 0.2154303
vt 0.09609363 0.1177219
vt 0.006784207 0.212376
vt 0.01022959 0.01472411
vt 0.1853584 0.01777624
vt 0.18191 0.2154303
vt 0.18191 0.2154303
vt 0.09609363 0.1177219
vt 0.006784207 0.212376
vt 0.01022959 0.01472411
vt 0.1853584 0.01777624
vt 0.18191 0.2154303
vn -0.2511354 0.9594089 0.1283183
vn -0.004975099 0.9999849 0.002356258
vn -0.06798239 0.9771596 0.2013394
vn 0.1979343 0.9783897 0.05979612
vn 0.0676007 0.9783655 -0.1955275
vn -0.1399467 0.9515234 -0.2738946
vn -0.2511357 0.9594089 0.1283178
vn -0.004974889 0.9999849 0.002356807
vn -0.06798276 0.9771596 0.2013392
vn 0.1979344 0.9783897 0.05979601
vn 0.06760029 0.9783655 -0.1955273
vn -0.1399464 0.9515237 -0.2738937
vn 0.2274991 0.9594089 -0.1666695
vn 0.004536946 0.9999849 -0.003118689
vn 0.03505593 0.9771597 -0.2095952
vn -0.2049291 0.97839 -0.02751561
vn -0.03560346 0.9783657 0.2037963
vn 0.1817733 0.9515237 0.2481152
g BM_Grass_Flower_Yellow_0
f 3/3/3 2/2/2 1/1/1
f 4/4/4 2/2/2 3/3/3
f 4/4/4 5/5/5 2/2/2
f 6/6/6 2/2/2 5/5/5
f 9/9/9 8/8/8 7/7/7
f 10/10/10 8/8/8 9/9/9
f 10/10/10 11/11/11 8/8/8
f 12/12/12 8/8/8 11/11/11
f 15/15/15 14/14/14 13/13/13
f 16/16/16 14/14/14 15/15/15
f 16/16/16 17/17/17 14/14/14
f 18/18/18 14/14/14 17/17/17
