g BM_Grass_Leaf_Green
v 0.7619904 0.0721934 -0.6016777
v 0.0915155 0.2193258 -0.09393676
v -0.5558704 0.07219318 -0.601669
v 0.7620032 0.01655012 0.3767127
v -0.5558746 0.0165502 0.3767099
v 0.3208734 -0.07824761 0.1661197
v -0.5112158 0.09747673 0.09038757
v -0.661029 -0.07824734 -0.7128716
v -0.332746 -0.0782481 0.8962738
v -1.314655 -0.07824829 0.01726257
v 0.7677026 -0.07824743 -0.5451025
v 0.5487048 0.09747687 0.2612134
v -0.2683643 -0.07824746 0.269342
v 1.373336 -0.0782483 0.2253217
v 0.3372467 -0.07824841 1.039768
v -0.6145617 0.07356682 -0.09999146
v 0.0600354 0.1326371 -0.6200047
v 0.7032574 0.07356461 -0.08960479
v -0.6070434 -0.1468737 -1.054818
v 0.7107934 -0.1468734 -1.04442
vt 0.7031015 0.2112604
vt 0.5436463 0.1139282
vt 0.3898185 0.211485
vt 0.7029658 0.01972182
vt 0.3896815 0.01994723
vt 0.7031015 0.2112604
vt 0.5436463 0.1139282
vt 0.3898185 0.211485
vt 0.7029658 0.01972182
vt 0.3896815 0.01994723
vt 0.7031015 0.2112604
vt 0.5436463 0.1139282
vt 0.3898185 0.211485
vt 0.7029658 0.01972182
vt 0.3896815 0.01994723
vt 0.7031015 0.2112604
vt 0.5436463 0.1139282
vt 0.3898185 0.211485
vt 0.7029658 0.01972182
vt 0.3896815 0.01994723
vn 0.1519753 0.9847505 -0.08467522
vn -0.00318748 0.9980844 0.06178419
vn -0.1544097 0.9840549 -0.0882825
vn 0.1545994 0.9681613 0.1968823
vn -0.1571467 0.9670138 0.2004721
vn 0.2069119 0.9783542 -0.003281161
vn -0.005718932 0.9999824 0.001609263
vn -0.01898965 0.9774545 -0.21029
vn 0.02074666 0.9777785 0.2086117
vn -0.2139593 0.9768366 0.003399954
vn 0.03267989 0.978354 -0.2043415
vn 0.0005920525 0.9999824 0.005911094
vn -0.2103949 0.9774545 -0.01779584
vn 0.2090469 0.9777784 0.0157748
vn -0.03378595 0.9768366 0.2113025
vn -0.1513138 0.9848743 -0.08441909
vn 0.005000462 0.9732265 -0.2297936
vn 0.1550327 0.9847991 -0.07832938
vn -0.1517712 0.9208688 -0.3591186
vn 0.1599915 0.9191303 -0.3600031
g BM_Grass_Leaf_Green_0
f 3/3/3 2/2/2 1/1/1
f 1/1/1 2/2/2 4/4/4
f 5/5/5 2/2/2 3/3/3
f 5/5/5 4/4/4 2/2/2
f 8/8/8 7/7/7 6/6/6
f 6/6/6 7/7/7 9/9/9
f 10/10/10 7/7/7 8/8/8
f 10/10/10 9/9/9 7/7/7
f 13/13/13 12/12/12 11/11/11
f 11/11/11 12/12/12 14/14/14
f 15/15/15 12/12/12 13/13/13
f 15/15/15 14/14/14 12/12/12
f 18/18/18 17/17/17 16/16/16
f 16/16/16 17/17/17 19/19/19
f 20/20/20 17/17/17 18/18/18
f 20/20/20 19/19/19 17/17/17
