g BM_Jug_01
v -0.1527317 0.07214462 0.1560003
v -0.2750027 0.1774692 -2.592087E-05
v -0.1958834 0.1747426 0.1953148
v -0.2163456 0.07214462 -2.025604E-05
v -0.0004244804 0.174742 0.2702606
v -0.0004270744 0.07214462 0.2147944
v -0.3325458 0.3496761 9.645462E-05
v -0.2364565 0.3495686 0.2354839
v 0.1552873 0.07214478 0.156003
v 0.1970773 0.1747418 0.1955722
v 0.2215825 0.07167175 -2.025604E-05
v 0.2714808 0.1774679 -2.592087E-05
v -0.0004390526 0.3495344 0.3264666
v 0.2374156 0.3495568 0.2359207
v 0.3312635 0.3498705 9.645462E-05
v 0.1932482 0.1747417 -0.1944554
v 0.1552779 0.07214455 -0.1550308
v -0.00042449 0.1747421 -0.2724943
v -0.0004270744 0.07214458 -0.2170462
v 0.2354478 0.349811 -0.2361064
v -0.1526848 0.07214451 -0.1550193
v -0.1938437 0.1747426 -0.1935324
v -0.2750027 0.1774692 -2.592087E-05
v -0.2163456 0.07214462 -2.025604E-05
v -0.3325458 0.3496761 9.645462E-05
v -0.2358123 0.3498105 -0.2353716
v -0.0004390526 0.3498807 -0.3323206
v 0.2371767 0.5858191 0.2356819
v 0.3316657 0.5855049 9.647369E-05
v 0.1853999 0.7652545 0.1840074
v -0.0004390526 0.585819 0.325991
v -0.0004270744 0.7652545 0.2539431
v 0.1608264 0.8049843 0.1603167
v -0.0004992675 0.8049843 0.2175138
v 0.256742 0.7639517 -2.026558E-05
v 0.2236915 0.8049843 0.000103817
v 0.1616125 0.8049844 -0.1616153
v 0.1817788 0.7652545 -0.1829414
v 0.2352219 0.5855632 -0.2358775
v -0.1581568 0.8049843 0.1580092
v -0.1855467 0.7652545 0.1842573
v -0.219443 0.8049843 0.000103817
v -0.260726 0.7652545 -2.026558E-05
v -0.2367683 0.5858786 0.2354595
v -0.3332852 0.5858459 9.647369E-05
v -0.0004270744 0.7652545 -0.2560341
v -0.0004992675 0.8049844 -0.2245783
v -0.1598119 0.8049847 -0.1601008
v -0.1858502 0.7652548 -0.185526
v -0.219443 0.8049843 0.000103817
v -0.260726 0.7652545 -2.026558E-05
v -0.237117 0.5858789 -0.2366763
v -0.3332852 0.5858459 9.647369E-05
v -0.0004390526 0.5854685 -0.3318647
v -0.2163456 0.07214462 -2.025604E-05
v -0.1526813 -0.0007680511 0.1560845
v -0.2164696 -0.0007680511 -2.027512E-05
v -0.1527317 0.07214462 0.1560003
v -0.0004270744 -0.0007680607 0.2147948
v -0.0004270744 0.07214462 0.2147944
v 0.1552873 0.07214478 0.156003
v 0.1552904 -0.0007678986 0.1560539
v 0.2217447 -0.0007680511 -2.027512E-05
v 0.2215825 0.07167175 -2.025604E-05
v 0.1552779 0.07214455 -0.1550308
v 0.1552756 -0.0007681274 -0.15501
v -0.0004270744 -0.0007680893 -0.2169283
v -0.0004270744 0.07214458 -0.2170462
v -0.1525704 -0.0007681656 -0.1550436
v -0.1526848 0.07214451 -0.1550193
v -0.2163456 0.07214462 -2.025604E-05
v -0.2164696 -0.0007680511 -2.027512E-05
v 0.04900387 1.237591 0.0492154
v 0.0001241875 1.328909 0.000311985
v 0.04765413 1.237591 -0.04817938
v -0.04891823 1.23759 -0.0494359
v 0.0001241875 1.328909 0.000311985
v -0.05015024 1.23759 0.05035956
v -0.05015024 1.23759 0.05035956
v 0.0001241875 1.328909 0.000311985
v 0.04900387 1.237591 0.0492154
v 0.04765413 1.237591 -0.04817938
v 0.0001241875 1.328909 0.000311985
v -0.04891823 1.23759 -0.0494359
v 0.04765413 1.237591 -0.04817938
v 0.0001242065 1.161047 0.0003120041
v 0.04900387 1.237591 0.0492154
v -0.05015024 1.23759 0.05035956
v 0.0001242065 1.161047 0.0003120041
v -0.04891823 1.23759 -0.0494359
v 0.04900387 1.237591 0.0492154
v 0.0001242065 1.161047 0.0003120041
v -0.05015024 1.23759 0.05035956
v -0.04891823 1.23759 -0.0494359
v 0.0001242065 1.161047 0.0003120041
v 0.04765413 1.237591 -0.04817938
v 0.0001257324 1.226269 0.0003104878
v -0.06524861 1.14274 -0.06496809
v 0.06437019 1.14274 -0.06485265
v 0.0001257324 1.226269 0.0003104878
v -0.06506544 1.14274 0.06538927
v -0.06524861 1.14274 -0.06496809
v 0.0001257324 1.226269 0.0003104878
v 0.06458136 1.14274 0.06442346
v -0.06506544 1.14274 0.06538927
v 0.0001257324 1.226269 0.0003104878
v 0.06437019 1.14274 -0.06485265
v 0.06458136 1.14274 0.06442346
v 0.0001257229 1.059209 0.0003105259
v 0.06437019 1.14274 -0.06485265
v -0.06524861 1.14274 -0.06496809
v 0.0001257229 1.059209 0.0003105259
v -0.06524861 1.14274 -0.06496809
v -0.06506544 1.14274 0.06538927
v 0.0001257229 1.059209 0.0003105259
v -0.06506544 1.14274 0.06538927
v 0.06458136 1.14274 0.06442346
v 0.0001257229 1.059209 0.0003105259
v 0.06458136 1.14274 0.06442346
v 0.06437019 1.14274 -0.06485265
v -0.1581568 0.8049843 0.1580092
v -0.2621915 0.8439845 -2.024651E-05
v -0.1868401 0.8439845 0.1879044
v -0.219443 0.8049843 0.000103817
v -0.0004270744 0.8439845 0.2663304
v -0.0004992675 0.8049843 0.2175138
v 0.1608264 0.8049843 0.1603167
v 0.1912611 0.8439845 0.1915416
v 0.2236915 0.8049843 0.000103817
v 0.2681605 0.8439845 -2.025604E-05
v 0.1934181 0.8439846 -0.1931077
v 0.1616125 0.8049844 -0.1616153
v -0.0004270744 0.8439846 -0.2721368
v -0.0004992675 0.8049844 -0.2245783
v -0.1598119 0.8049847 -0.1601008
v -0.1897917 0.8439846 -0.1910694
v -0.2621915 0.8439845 -2.024651E-05
v -0.219443 0.8049843 0.000103817
v -0.2512079 1.029961 -2.024651E-05
v -0.1868401 0.8439845 0.1879044
v -0.2621915 0.8439845 -2.024651E-05
v -0.178928 1.029961 0.1799919
v -0.0004270744 0.8439845 0.2663304
v -0.0004270744 1.029961 0.2541399
v 0.1833551 1.029961 0.1836357
v 0.1912611 0.8439845 0.1915416
v 0.2681605 0.8439845 -2.025604E-05
v 0.2571677 1.029961 -2.025604E-05
v 0.1855086 1.029961 -0.1851978
v 0.1934181 0.8439846 -0.1931077
v -0.0004270744 0.8439846 -0.2721368
v -0.0004270744 1.029961 -0.2599374
v -0.1818756 1.029961 -0.1831533
v -0.1897917 0.8439846 -0.1910694
v -0.2512079 1.029961 -2.024651E-05
v -0.2621915 0.8439845 -2.024651E-05
v -0.2512079 1.029961 -2.024651E-05
v 0.0001238251 1.086075 0.0003123951
v -0.178928 1.029961 0.1799919
v -0.1818756 1.029961 -0.1831533
v -0.0004270744 1.029961 -0.2599374
v -0.0004270744 1.029961 0.2541399
v 0.1833551 1.029961 0.1836357
v 0.2571677 1.029961 -2.025604E-05
v 0.1855086 1.029961 -0.1851978
vt 0.2271974 0.4330213
vt 0.2037683 0.4426371
vt 0.219681 0.4426371
vt 0.21351 0.4330213
vt 0.2410998 0.4426371
vt 0.2411125 0.4330213
vt 0.1999466 0.4615354
vt 0.2174301 0.4616356
vt 0.2550277 0.4330213
vt 0.2625186 0.4426371
vt 0.2711337 0.4330213
vt 0.2760569 0.4426371
vt 0.2411394 0.4616319
vt 0.2648484 0.4616342
vt 0.281193 0.4617676
vt 0.2625186 0.4426371
vt 0.2550277 0.4330213
vt 0.2410998 0.4426371
vt 0.2411125 0.4330213
vt 0.2648517 0.4616615
vt 0.2271974 0.4330213
vt 0.219681 0.4426371
vt 0.2037683 0.4426371
vt 0.21351 0.4330213
vt 0.1999466 0.4615354
vt 0.2174271 0.4616616
vt 0.2411394 0.4616691
vt 0.2649206 0.4865025
vt 0.2814708 0.486527
vt 0.2614577 0.5049917
vt 0.2409906 0.4865026
vt 0.2407245 0.5049917
vt 0.2516811 0.5144328
vt 0.241306 0.5144328
vt 0.27794 0.5049917
vt 0.2622266 0.5144328
vt 0.2516811 0.5144328
vt 0.2614577 0.5049917
vt 0.2649238 0.4864762
vt 0.2309309 0.5144328
vt 0.2199913 0.5049917
vt 0.2207249 0.5144328
vt 0.2042675 0.5049917
vt 0.2170612 0.4865088
vt 0.1995713 0.4865056
vt 0.2407245 0.5049917
vt 0.241306 0.5144328
vt 0.2309309 0.5144328
vt 0.2199913 0.5049917
vt 0.2207249 0.5144328
vt 0.2042675 0.5049917
vt 0.2170612 0.4865088
vt 0.1995713 0.4865056
vt 0.2409911 0.4864665
vt 0.1934232 0.4224584
vt 0.2081647 0.4127983
vt 0.1934899 0.4127983
vt 0.2081211 0.4224584
vt 0.2259862 0.4127983
vt 0.2259859 0.4224584
vt 0.2438506 0.4224584
vt 0.2438078 0.4127983
vt 0.259766 0.4127983
vt 0.2598317 0.4224584
vt 0.2438506 0.4224584
vt 0.2438078 0.4127983
vt 0.2259862 0.4127983
vt 0.2259859 0.4224584
vt 0.2081647 0.4127983
vt 0.2081211 0.4224584
vt 0.1934232 0.4224584
vt 0.1934899 0.4127983
vt 0.3098121 0.385658
vt 0.3037738 0.3983636
vt 0.2980862 0.385658
vt 0.2980862 0.385658
vt 0.3037738 0.3983636
vt 0.3098121 0.385658
vt 0.2980862 0.3855593
vt 0.3037738 0.3983636
vt 0.3098121 0.3855595
vt 0.2980862 0.3855596
vt 0.3037738 0.3983636
vt 0.3098121 0.3855593
vt 0.2980862 0.385658
vt 0.3038152 0.3743861
vt 0.3098121 0.385658
vt 0.3098121 0.385658
vt 0.3038152 0.3743861
vt 0.2980862 0.385658
vt 0.3098121 0.3855595
vt 0.3038152 0.3743861
vt 0.2980862 0.3855593
vt 0.3098121 0.3855593
vt 0.3038152 0.3743861
vt 0.2980862 0.3855596
vt 0.2814242 0.400667
vt 0.2929691 0.385929
vt 0.270099 0.385929
vt 0.2815547 0.400667
vt 0.2930211 0.3859289
vt 0.2700207 0.3859289
vt 0.2816366 0.400667
vt 0.2929247 0.385929
vt 0.270049 0.385929
vt 0.2814456 0.400667
vt 0.2929245 0.385929
vt 0.2701149 0.385929
vt 0.2814242 0.3711908
vt 0.270099 0.385929
vt 0.2929691 0.385929
vt 0.2815547 0.3711908
vt 0.2700207 0.3859289
vt 0.2930211 0.3859289
vt 0.2816366 0.3711908
vt 0.270049 0.385929
vt 0.2929247 0.385929
vt 0.2814456 0.3711908
vt 0.2701149 0.385929
vt 0.2929245 0.385929
vt 0.1600155 0.441732
vt 0.1451021 0.4471772
vt 0.1578738 0.4473393
vt 0.149407 0.4415973
vt 0.1705807 0.447339
vt 0.1705699 0.4417317
vt 0.1811243 0.4417314
vt 0.1832876 0.4473387
vt 0.1916248 0.4415963
vt 0.1959295 0.4471762
vt 0.1832876 0.4473387
vt 0.1811243 0.4417314
vt 0.1705807 0.447339
vt 0.1705699 0.4417317
vt 0.1600155 0.441732
vt 0.1578738 0.4473393
vt 0.1451021 0.4471772
vt 0.149407 0.4415973
vt 0.1461744 0.4623139
vt 0.1578738 0.4473393
vt 0.1451021 0.4471772
vt 0.1584074 0.462469
vt 0.1705807 0.447339
vt 0.1705781 0.4624688
vt 0.1827488 0.4624686
vt 0.1832876 0.4473387
vt 0.1959295 0.4471762
vt 0.1948573 0.4623128
vt 0.1827488 0.4624686
vt 0.1832876 0.4473387
vt 0.1705807 0.447339
vt 0.1705781 0.4624687
vt 0.1584074 0.462469
vt 0.1578738 0.4473393
vt 0.1461744 0.4623139
vt 0.1451021 0.4471772
vt 0.4180959 0.4401327
vt 0.4181174 0.4562918
vt 0.4296675 0.4447849
vt 0.4063303 0.4446068
vt 0.4014066 0.456269
vt 0.4344321 0.4562584
vt 0.4298922 0.4680571
vt 0.4181046 0.472804
vt 0.4062183 0.4682008
vn -0.606506 -0.4912016 0.6251972
vn -0.9184062 -0.3956097 -0.004801364
vn -0.645273 -0.3966383 0.6529171
vn -0.8736508 -0.4865519 -0.001265407
vn -0.002410308 -0.3853375 0.9227726
vn -0.003674325 -0.4755681 0.8796713
vn -0.9876943 -0.1563886 -0.001605083
vn -0.6921167 -0.1519788 0.705604
vn 0.5995389 -0.4887896 0.6337489
vn 0.6503814 -0.3879955 0.6530417
vn 0.8956336 -0.4447349 -0.007164628
vn 0.9292413 -0.3694088 -0.006899635
vn -0.001782766 -0.148593 0.9888968
vn 0.6952278 -0.1527518 0.702371
vn 0.9870462 -0.1604116 -0.002795085
vn 0.6512359 -0.3874113 -0.6525367
vn 0.6169339 -0.4716378 -0.6300399
vn -0.002438124 -0.3930762 -0.9195027
vn -0.003913994 -0.4754471 -0.8797356
vn 0.6994185 -0.1569778 -0.69726
vn -0.6157377 -0.4815715 -0.6236634
vn -0.6497691 -0.3951356 -0.6493598
vn -0.9184062 -0.3956097 -0.004801364
vn -0.8736508 -0.4865519 -0.001265407
vn -0.9876943 -0.1563886 -0.001605083
vn -0.6975883 -0.1591594 -0.6985977
vn -0.001840073 -0.1560103 -0.9877537
vn 0.6892677 0.1840699 0.7007342
vn 0.9824216 0.1866334 -0.003964698
vn 0.6072 0.5057783 0.6127777
vn -0.0009103433 0.1820948 0.9832807
vn -0.002209753 0.5136627 0.8579894
vn 0.5304369 0.6532611 0.5402654
vn -0.009122054 0.6757916 0.7370363
vn 0.8678029 0.4968779 -0.005522049
vn 0.7787865 0.6272765 0.003949001
vn 0.5681409 0.5996877 -0.5635517
vn 0.6175047 0.4822945 -0.6213534
vn 0.6941435 0.1889116 -0.6946058
vn -0.5057281 0.6902639 0.5174698
vn -0.5967637 0.5234545 0.6081681
vn -0.7000216 0.7141167 0.002661551
vn -0.8433126 0.5374218 0.001308475
vn -0.6878408 0.1823229 0.7025905
vn -0.9833803 0.1815522 0.001425578
vn 0.004194127 0.4970693 -0.8677006
vn -0.006892846 0.6207163 -0.7840049
vn -0.5253018 0.6719655 -0.5220348
vn -0.6031279 0.5185906 -0.6060532
vn -0.7000216 0.7141167 0.002661551
vn -0.8433126 0.5374218 0.001308475
vn -0.6942018 0.1793972 -0.6970657
vn -0.9833803 0.1815522 0.001425578
vn 0.002337431 0.1867707 -0.9824008
vn -0.9999985 0.001042447 -0.001461775
vn -0.7000108 0.0005920477 0.714132
vn -0.9999974 0.001701401 -0.001525428
vn -0.7005873 0.0002193527 0.7135667
vn -0.003685254 0.0002168326 0.9999932
vn -0.003696037 5.755018E-06 0.9999932
vn 0.6920744 0.0006830524 0.7218258
vn 0.6920879 0.000533562 0.721813
vn 0.9999979 0.001683145 -0.001226067
vn 0.9999968 0.002239633 -0.001202609
vn 0.6974668 -9.213157E-05 -0.7166171
vn 0.6976564 -0.0002261817 -0.7164325
vn -0.003713192 -0.001444092 -0.9999921
vn -0.003712414 -0.001442607 -0.9999921
vn -0.7056931 -0.000636275 -0.7085173
vn -0.7063301 -0.0008725275 -0.7078822
vn -0.9999985 0.001042447 -0.001461775
vn -0.9999974 0.001701401 -0.001525428
vn 0.8842922 0.4667732 -0.01225487
vn 0.8842921 0.4667733 -0.01225487
vn 0.8842921 0.4667733 -0.01225487
vn -0.8784657 0.4776823 -0.010845
vn -0.8784657 0.4776823 -0.010845
vn -0.8784657 0.4776823 -0.010845
vn 0.01013761 0.4762833 0.8792335
vn 0.01013761 0.4762833 0.8792335
vn 0.01013761 0.4762833 0.8792335
vn 0.01145024 0.4736076 -0.8806615
vn 0.01145024 0.4736076 -0.8806615
vn 0.01145024 0.4736076 -0.8806615
vn 0.846138 -0.5328348 -0.01172611
vn 0.846138 -0.5328348 -0.01172611
vn 0.846138 -0.5328348 -0.01172611
vn -0.8388798 -0.5442181 -0.0103563
vn -0.8388798 -0.5442181 -0.0103563
vn -0.8388798 -0.5442181 -0.0103563
vn 0.009700223 -0.542756 0.8398344
vn 0.009700223 -0.542756 0.8398344
vn 0.009700222 -0.542756 0.8398344
vn 0.01095977 -0.5399722 -0.8416114
vn 0.01095977 -0.5399723 -0.8416114
vn 0.01095977 -0.5399723 -0.8416114
vn 0.0007019304 0.6154266 -0.7881939
vn 0.0007019304 0.6154267 -0.7881939
vn 0.0007019304 0.6154267 -0.7881939
vn -0.7879086 0.6157911 0.001107133
vn -0.7879086 0.615791 0.001107133
vn -0.7879086 0.6157911 0.001107133
vn 0.005893016 0.6117191 0.7910531
vn 0.005893016 0.6117191 0.7910531
vn 0.005893016 0.6117191 0.7910531
vn 0.7921765 0.6102905 -0.001293959
vn 0.7921765 0.6102906 -0.001293959
vn 0.7921765 0.6102906 -0.001293959
vn 0.0007019337 -0.615422 -0.7881975
vn 0.0007019337 -0.615422 -0.7881975
vn 0.0007019337 -0.615422 -0.7881975
vn -0.7879125 -0.6157863 0.001107139
vn -0.7879125 -0.6157863 0.001107139
vn -0.7879125 -0.6157863 0.001107138
vn 0.005893045 -0.6117139 0.7910571
vn 0.005893045 -0.6117139 0.7910571
vn 0.005893045 -0.6117139 0.7910571
vn 0.7921802 -0.6102858 -0.001293965
vn 0.7921803 -0.6102858 -0.001293965
vn 0.7921803 -0.6102858 -0.001293965
vn -0.4862178 -0.7345781 0.473273
vn -0.6769719 -0.7359969 0.004191459
vn -0.4868407 -0.7280305 0.4826569
vn -0.6739736 -0.7387298 0.006155861
vn -0.005872031 -0.7717022 0.6359568
vn -0.007952129 -0.7812531 0.6241638
vn 0.4680566 -0.7493943 0.4683281
vn 0.4687324 -0.7465956 0.4721069
vn 0.6609177 -0.7504401 0.005243841
vn 0.6593664 -0.7518147 0.003262766
vn 0.4684194 -0.7543777 -0.4598886
vn 0.4676064 -0.7560461 -0.4579722
vn -0.003974435 -0.7679505 -0.6404968
vn -0.00582467 -0.7732329 -0.6340953
vn -0.4857688 -0.7445676 -0.4578729
vn -0.4819422 -0.7413468 -0.4670509
vn -0.6769719 -0.7359969 0.004191459
vn -0.6739736 -0.7387298 0.006155861
vn -0.9982095 0.05899754 0.009857976
vn -0.7116022 0.05992398 0.7000224
vn -0.9982163 0.05895377 0.009406844
vn -0.710875 0.0613136 0.7006407
vn -0.01319746 0.06261716 0.9979504
vn -0.0138815 0.06540204 0.9977624
vn 0.7012494 0.06149022 0.7102593
vn 0.702435 0.06001019 0.7092135
vn 0.9982332 0.05908835 0.006241118
vn 0.9982363 0.0590045 0.006540308
vn 0.7113327 0.06145335 -0.7001638
vn 0.7119896 0.0600364 -0.6996188
vn -0.008736514 0.06294457 -0.9979789
vn -0.009189173 0.06545319 -0.9978133
vn -0.7201921 0.06124269 -0.6910663
vn -0.7204232 0.06016308 -0.6909202
vn -0.9982095 0.05899754 0.009857976
vn -0.9982163 0.05895377 0.009406844
vn -0.2179037 0.9759687 0.001751223
vn -0.002504479 0.9999939 0.002426063
vn -0.1534301 0.9763938 0.1520344
vn -0.1523053 0.9772196 -0.1478002
vn -0.001651513 0.9775345 -0.2107687
vn -0.002526487 0.9764224 0.2158538
vn 0.1486437 0.977357 0.1505935
vn 0.2132835 0.9769897 0.001094446
vn 0.1487207 0.9778667 -0.1471699
g BM_Jug_01_0
f 3/3/3 2/2/2 1/1/1
f 4/4/4 1/1/1 2/2/2
f 3/3/3 1/1/1 5/5/5
f 6/6/6 5/5/5 1/1/1
f 2/2/2 3/3/3 7/7/7
f 8/8/8 7/7/7 3/3/3
f 6/6/6 9/9/9 5/5/5
f 10/10/10 5/5/5 9/9/9
f 9/9/9 11/11/11 10/10/10
f 12/12/12 10/10/10 11/11/11
f 5/5/5 10/10/10 13/13/13
f 8/8/8 3/3/3 13/13/13
f 5/5/5 13/13/13 3/3/3
f 14/14/14 13/13/13 10/10/10
f 10/10/10 12/12/12 14/14/14
f 15/15/15 14/14/14 12/12/12
f 12/12/12 11/11/11 16/16/16
f 17/17/17 16/16/16 11/11/11
f 16/16/16 17/17/17 18/18/18
f 19/19/19 18/18/18 17/17/17
f 16/16/16 20/20/20 12/12/12
f 15/15/15 12/12/12 20/20/20
f 19/19/19 21/21/21 18/18/18
f 22/22/22 18/18/18 21/21/21
f 22/22/22 21/21/21 23/23/23
f 24/24/24 23/23/23 21/21/21
f 23/23/23 25/25/25 22/22/22
f 26/26/26 22/22/22 25/25/25
f 18/18/18 22/22/22 27/27/27
f 26/26/26 27/27/27 22/22/22
f 20/20/20 16/16/16 27/27/27
f 18/18/18 27/27/27 16/16/16
f 14/14/14 15/15/15 28/28/28
f 29/29/29 28/28/28 15/15/15
f 15/15/15 20/20/20 29/29/29
f 28/28/28 29/29/29 30/30/30
f 28/28/28 30/30/30 31/31/31
f 32/32/32 31/31/31 30/30/30
f 30/30/30 33/33/33 32/32/32
f 34/34/34 32/32/32 33/33/33
f 30/30/30 35/35/35 33/33/33
f 35/35/35 30/30/30 29/29/29
f 36/36/36 33/33/33 35/35/35
f 36/36/36 35/35/35 37/37/37
f 38/38/38 37/37/37 35/35/35
f 35/35/35 29/29/29 38/38/38
f 39/39/39 38/38/38 29/29/29
f 34/34/34 40/40/40 32/32/32
f 41/41/41 32/32/32 40/40/40
f 32/32/32 41/41/41 31/31/31
f 40/40/40 42/42/42 41/41/41
f 43/43/43 41/41/41 42/42/42
f 41/41/41 43/43/43 44/44/44
f 44/44/44 31/31/31 41/41/41
f 45/45/45 44/44/44 43/43/43
f 38/38/38 46/46/46 37/37/37
f 47/47/47 37/37/37 46/46/46
f 47/47/47 46/46/46 48/48/48
f 49/49/49 48/48/48 46/46/46
f 48/48/48 49/49/49 50/50/50
f 51/51/51 50/50/50 49/49/49
f 49/49/49 52/52/52 51/51/51
f 53/53/53 51/51/51 52/52/52
f 46/46/46 54/54/54 49/49/49
f 52/52/52 49/49/49 54/54/54
f 39/39/39 54/54/54 38/38/38
f 46/46/46 38/38/38 54/54/54
f 44/44/44 45/45/45 8/8/8
f 7/7/7 8/8/8 45/45/45
f 8/8/8 13/13/13 44/44/44
f 31/31/31 44/44/44 13/13/13
f 53/53/53 52/52/52 25/25/25
f 26/26/26 25/25/25 52/52/52
f 52/52/52 54/54/54 26/26/26
f 54/54/54 39/39/39 27/27/27
f 27/27/27 26/26/26 54/54/54
f 20/20/20 27/27/27 39/39/39
f 39/39/39 29/29/29 20/20/20
f 13/13/13 14/14/14 31/31/31
f 28/28/28 31/31/31 14/14/14
f 57/57/57 56/56/56 55/55/55
f 58/58/58 55/55/55 56/56/56
f 56/56/56 59/59/59 58/58/58
f 60/60/60 58/58/58 59/59/59
f 60/60/60 59/59/59 61/61/61
f 62/62/62 61/61/61 59/59/59
f 62/62/62 63/63/63 61/61/61
f 64/64/64 61/61/61 63/63/63
f 64/64/64 63/63/63 65/65/65
f 66/66/66 65/65/65 63/63/63
f 66/66/66 67/67/67 65/65/65
f 68/68/68 65/65/65 67/67/67
f 67/67/67 69/69/69 68/68/68
f 70/70/70 68/68/68 69/69/69
f 70/70/70 69/69/69 71/71/71
f 72/72/72 71/71/71 69/69/69
f 75/75/75 74/74/74 73/73/73
f 78/78/78 77/77/77 76/76/76
f 81/81/81 80/80/80 79/79/79
f 84/84/84 83/83/83 82/82/82
f 87/87/87 86/86/86 85/85/85
f 90/90/90 89/89/89 88/88/88
f 93/93/93 92/92/92 91/91/91
f 96/96/96 95/95/95 94/94/94
f 99/99/99 98/98/98 97/97/97
f 102/102/102 101/101/101 100/100/100
f 105/105/105 104/104/104 103/103/103
f 108/108/108 107/107/107 106/106/106
f 111/111/111 110/110/110 109/109/109
f 114/114/114 113/113/113 112/112/112
f 117/117/117 116/116/116 115/115/115
f 120/120/120 119/119/119 118/118/118
f 123/123/123 122/122/122 121/121/121
f 124/124/124 121/121/121 122/122/122
f 123/123/123 121/121/121 125/125/125
f 126/126/126 125/125/125 121/121/121
f 126/126/126 127/127/127 125/125/125
f 128/128/128 125/125/125 127/127/127
f 127/127/127 129/129/129 128/128/128
f 130/130/130 128/128/128 129/129/129
f 130/130/130 129/129/129 131/131/131
f 132/132/132 131/131/131 129/129/129
f 131/131/131 132/132/132 133/133/133
f 134/134/134 133/133/133 132/132/132
f 134/134/134 135/135/135 133/133/133
f 136/136/136 133/133/133 135/135/135
f 136/136/136 135/135/135 137/137/137
f 138/138/138 137/137/137 135/135/135
f 141/141/141 140/140/140 139/139/139
f 142/142/142 139/139/139 140/140/140
f 140/140/140 143/143/143 142/142/142
f 144/144/144 142/142/142 143/143/143
f 144/144/144 143/143/143 145/145/145
f 146/146/146 145/145/145 143/143/143
f 146/146/146 147/147/147 145/145/145
f 148/148/148 145/145/145 147/147/147
f 148/148/148 147/147/147 149/149/149
f 150/150/150 149/149/149 147/147/147
f 150/150/150 151/151/151 149/149/149
f 152/152/152 149/149/149 151/151/151
f 152/152/152 151/151/151 153/153/153
f 154/154/154 153/153/153 151/151/151
f 153/153/153 154/154/154 155/155/155
f 156/156/156 155/155/155 154/154/154
f 159/159/159 158/158/158 157/157/157
f 158/158/158 160/160/160 157/157/157
f 161/161/161 160/160/160 158/158/158
f 159/159/159 162/162/162 158/158/158
f 162/162/162 163/163/163 158/158/158
f 163/163/163 164/164/164 158/158/158
f 164/164/164 165/165/165 158/158/158
f 165/165/165 161/161/161 158/158/158
