g BM_Mandara_Center
v 0.4428613 -0.05096344 1.256082
v 0.8457763 0.03462448 1.028865
v 0.8457763 -0.05096344 1.028865
v 0.4428613 0.03462448 1.256082
v 1.146655 0.03462448 0.6775482
v 1.146655 -0.05096344 0.6775482
v 1.309243 0.03462448 0.244505
v 1.309243 -0.05096344 0.244505
v 1.313906 0.03462448 -0.2180243
v 1.313906 -0.05096344 -0.2180243
v 1.160102 0.03462448 -0.6542572
v 1.160102 -0.05096344 -0.6542572
v 0.8663818 0.03462448 -1.011577
v 0.8663818 -0.05096344 -1.011577
v 0.4681396 0.03462448 -1.246889
v 0.4681396 -0.05096344 -1.246889
v 0.01344727 0.03462448 -1.331805
v 0.01344727 -0.05096344 -1.331805
v -0.4428613 0.03462448 -1.256084
v -0.4428613 -0.05096344 -1.256084
v -0.8457617 0.03462448 -1.028863
v -0.8457617 -0.05096344 -1.028863
v -1.146645 0.03462448 -0.67755
v -1.146645 -0.05096344 -0.67755
v -1.309238 0.03462448 -0.2445099
v -1.309238 -0.05096344 -0.2445099
v -1.313901 0.03462448 0.2180218
v -1.313901 -0.05096344 0.2180218
v -1.160098 0.03462448 0.6542566
v -1.160098 -0.05096344 0.6542566
v -0.8663672 0.03462448 1.011574
v -0.8663672 -0.05096344 1.011574
v -0.4681348 0.03462448 1.246888
v -0.4681348 -0.05096344 1.246888
v -0.01344238 0.03462448 1.331804
v -0.01344238 -0.05096344 1.331804
v 1.14682 0.05096367 0.6612099
v 1.297539 0.05096367 -0.2153083
v 1.292934 0.05096367 0.2414592
v 1.159938 0.05096367 -0.6379188
v 0.8662168 0.05096367 -0.9952388
v 0.8459414 0.05096367 1.012527
v 0.4679746 0.05096367 -1.230551
v 0.4430263 0.05096367 1.239744
v 0.01328233 0.05096367 -1.315466
v -0.01327744 0.05096367 1.315466
v -0.4430263 0.05096367 -1.239746
v -0.4679698 0.05096367 1.23055
v -0.8459267 0.05096367 -1.012524
v -0.8662021 0.05096367 0.9952357
v -1.146811 0.05096367 -0.6612117
v -1.159933 0.05096367 0.6379182
v -1.292929 0.05096367 -0.241464
v -1.297534 0.05096367 0.2153059
v 0.8457763 0.03462448 1.028865
v 0.4428613 0.03462448 1.256082
v 1.146655 0.03462448 0.6775482
v 1.309243 0.03462448 0.244505
v 1.313906 0.03462448 -0.2180243
v 1.160102 0.03462448 -0.6542572
v 0.8663818 0.03462448 -1.011577
v 0.4681396 0.03462448 -1.246889
v 0.01344727 0.03462448 -1.331805
v -0.4428613 0.03462448 -1.256084
v -0.8457617 0.03462448 -1.028863
v -1.146645 0.03462448 -0.67755
v -1.309238 0.03462448 -0.2445099
v -1.313901 0.03462448 0.2180218
v -1.160098 0.03462448 0.6542566
v -0.8663672 0.03462448 1.011574
v -0.4681348 0.03462448 1.246888
v -0.01344238 0.03462448 1.331804
vt 0.2590745 0.7836263
vt 0.2303417 0.747085
vt 0.2360937 0.7421557
vt 0.2518748 0.7863625
vt 0.1966537 0.7196128
vt 0.2005295 0.7129241
vt 0.1561612 0.704019
vt 0.1574571 0.6965225
vt 0.1127391 0.7047966
vt 0.111357 0.6971455
vt 0.07172441 0.7191505
vt 0.06792447 0.7125589
vt 0.03886077 0.7475787
vt 0.03298283 0.7425883
vt 0.01625666 0.7863293
vt 0.009160132 0.7835282
vt 0.009511302 0.8264144
vt 0.001850373 0.8264144
vt 0.01625666 0.7863293
vt 0.009160132 0.7835282
vt 0.03886077 0.7475787
vt 0.03298283 0.7425883
vt 0.07172441 0.7191505
vt 0.06792447 0.7125589
vt 0.1127391 0.7047288
vt 0.111357 0.6971455
vt 0.1561612 0.704019
vt 0.1574571 0.6965225
vt 0.1966537 0.7196128
vt 0.2005295 0.7129241
vt 0.2303417 0.747085
vt 0.2360937 0.7421557
vt 0.2518748 0.7863625
vt 0.2590745 0.7836263
vt 0.2568876 0.8264144
vt 0.2635579 0.8264144
vt 0.1943992 0.7208838
vt 0.1132431 0.7077362
vt 0.1556131 0.7071279
vt 0.07396448 0.7204148
vt 0.04149836 0.7485273
vt 0.2277281 0.7480301
vt 0.01913163 0.7868642
vt 0.2489801 0.7868847
vt 0.01247442 0.8264144
vt 0.2541136 0.8264144
vt 0.01913163 0.7868642
vt 0.2489801 0.7868847
vt 0.04149837 0.7485273
vt 0.2277281 0.7480301
vt 0.07396448 0.7204148
vt 0.1943992 0.7208838
vt 0.1132431 0.7076635
vt 0.1556131 0.7071198
vt 0.2303417 0.747085
vt 0.2518748 0.7863625
vt 0.1966537 0.7196128
vt 0.1561612 0.704019
vt 0.1127391 0.7047966
vt 0.07172441 0.7191505
vt 0.03886077 0.7475787
vt 0.01625666 0.7863293
vt 0.009511302 0.8264144
vt 0.01625666 0.7863293
vt 0.03886077 0.7475787
vt 0.07172441 0.7191505
vt 0.1127391 0.7047288
vt 0.1561612 0.704019
vt 0.1966537 0.7196128
vt 0.2303417 0.747085
vt 0.2518748 0.7863625
vt 0.2568876 0.8264144
vn 0.3325087 0 0.9431002
vn 0.6350155 0 0.7724994
vn 0.6350155 0 0.7724994
vn 0.3325087 0 0.9431002
vn 0.8609347 0 0.5087156
vn 0.8609347 0 0.5087156
vn 0.9830051 0 0.183578
vn 0.9830051 0 0.183578
vn 0.9865099 0 -0.1637016
vn 0.9865099 0 -0.1637016
vn 0.8710346 0 -0.4912215
vn 0.8710346 0 -0.4912215
vn 0.6504911 0 -0.7595139
vn 0.650491 0 -0.7595139
vn 0.3514837 0 -0.936194
vn 0.3514836 0 -0.936194
vn 0.01009179 0 -0.9999491
vn 0.01009176 0 -0.9999491
vn -0.3325175 0 -0.9430971
vn -0.3325175 0 -0.9430971
vn -0.6350192 0 -0.7724963
vn -0.6350192 0 -0.7724963
vn -0.8609279 0 -0.5087269
vn -0.8609279 0 -0.5087269
vn -0.983004 0 -0.1835839
vn -0.983004 0 -0.183584
vn -0.98651 0 0.1637009
vn -0.98651 0 0.1637009
vn -0.8710301 0 0.4912296
vn -0.8710301 0 0.4912295
vn -0.6504894 0 0.7595153
vn -0.6504894 0 0.7595153
vn -0.3514911 0 0.9361913
vn -0.3514911 0 0.9361913
vn -0.01008962 0 0.9999491
vn -0.01008957 0 0.9999491
vn 0.5296692 0.8075447 0.259465
vn 0.4084973 0.9102502 -0.06763507
vn 0.4056802 0.9113091 0.07027889
vn 0.5469924 0.8012549 -0.2424661
vn 0.3410093 0.870609 -0.354616
vn 0.3337776 0.8706084 0.3614325
vn 0.1654247 0.9001227 -0.4030061
vn 0.1572519 0.9001238 0.4062624
vn 0.004215952 0.9085512 -0.4177521
vn -0.004215002 0.908551 0.4177526
vn -0.1572583 0.9001218 -0.4062639
vn -0.1654298 0.9001213 0.4030069
vn -0.3337739 0.870611 -0.3614298
vn -0.3410025 0.8706121 0.3546151
vn -0.5296636 0.8075465 -0.2594708
vn -0.5469903 0.8012556 0.2424684
vn -0.4056807 0.9113088 -0.07028151
vn -0.4084974 0.9102502 0.06763484
vn 0.4676035 0.6226567 0.6274118
vn 0.2246239 0.6878839 0.6901882
vn 0.7200133 0.4870434 0.4943377
vn 0.6952318 0.7083506 0.1220336
vn 0.6922101 0.7124964 -0.1148654
vn 0.73201 0.4893472 -0.474026
vn 0.4801836 0.6226557 -0.6178379
vn 0.2385131 0.6878849 -0.6855114
vn 0.007136056 0.7071066 -0.7070709
vn -0.224629 0.6878833 -0.6901872
vn -0.4676105 0.622654 -0.6274093
vn -0.7200046 0.4870481 -0.4943456
vn -0.6952304 0.7083513 -0.1220378
vn -0.6922103 0.7124963 0.1148649
vn -0.7319998 0.4893566 0.4740321
vn -0.4801851 0.6226552 0.6178373
vn -0.2385178 0.6878838 0.6855109
vn -0.007134723 0.7071065 0.7070711
g BM_Mandara_Center_0
f 3/3/3 2/2/2 1/1/1
f 4/4/4 1/1/1 2/2/2
f 2/2/2 3/3/3 5/5/5
f 6/6/6 5/5/5 3/3/3
f 5/5/5 6/6/6 7/7/7
f 8/8/8 7/7/7 6/6/6
f 7/7/7 8/8/8 9/9/9
f 10/10/10 9/9/9 8/8/8
f 9/9/9 10/10/10 11/11/11
f 12/12/12 11/11/11 10/10/10
f 11/11/11 12/12/12 13/13/13
f 14/14/14 13/13/13 12/12/12
f 13/13/13 14/14/14 15/15/15
f 16/16/16 15/15/15 14/14/14
f 15/15/15 16/16/16 17/17/17
f 18/18/18 17/17/17 16/16/16
f 17/17/17 18/18/18 19/19/19
f 20/20/20 19/19/19 18/18/18
f 19/19/19 20/20/20 21/21/21
f 22/22/22 21/21/21 20/20/20
f 21/21/21 22/22/22 23/23/23
f 24/24/24 23/23/23 22/22/22
f 23/23/23 24/24/24 25/25/25
f 26/26/26 25/25/25 24/24/24
f 25/25/25 26/26/26 27/27/27
f 28/28/28 27/27/27 26/26/26
f 27/27/27 28/28/28 29/29/29
f 30/30/30 29/29/29 28/28/28
f 29/29/29 30/30/30 31/31/31
f 32/32/32 31/31/31 30/30/30
f 31/31/31 32/32/32 33/33/33
f 34/34/34 33/33/33 32/32/32
f 33/33/33 34/34/34 35/35/35
f 36/36/36 35/35/35 34/34/34
f 35/35/35 36/36/36 4/4/4
f 1/1/1 4/4/4 36/36/36
f 39/39/39 38/38/38 37/37/37
f 40/40/40 37/37/37 38/38/38
f 40/40/40 41/41/41 37/37/37
f 42/42/42 37/37/37 41/41/41
f 41/41/41 43/43/43 42/42/42
f 44/44/44 42/42/42 43/43/43
f 43/43/43 45/45/45 44/44/44
f 46/46/46 44/44/44 45/45/45
f 45/45/45 47/47/47 46/46/46
f 48/48/48 46/46/46 47/47/47
f 47/47/47 49/49/49 48/48/48
f 50/50/50 48/48/48 49/49/49
f 49/49/49 51/51/51 50/50/50
f 52/52/52 50/50/50 51/51/51
f 51/51/51 53/53/53 52/52/52
f 54/54/54 52/52/52 53/53/53
f 42/42/42 44/44/44 55/55/55
f 56/56/56 55/55/55 44/44/44
f 44/44/44 46/46/46 56/56/56
f 55/55/55 57/57/57 42/42/42
f 37/37/37 42/42/42 57/57/57
f 57/57/57 58/58/58 37/37/37
f 39/39/39 37/37/37 58/58/58
f 58/58/58 59/59/59 39/39/39
f 38/38/38 39/39/39 59/59/59
f 59/59/59 60/60/60 38/38/38
f 40/40/40 38/38/38 60/60/60
f 60/60/60 61/61/61 40/40/40
f 41/41/41 40/40/40 61/61/61
f 61/61/61 62/62/62 41/41/41
f 43/43/43 41/41/41 62/62/62
f 62/62/62 63/63/63 43/43/43
f 45/45/45 43/43/43 63/63/63
f 63/63/63 64/64/64 45/45/45
f 47/47/47 45/45/45 64/64/64
f 64/64/64 65/65/65 47/47/47
f 49/49/49 47/47/47 65/65/65
f 65/65/65 66/66/66 49/49/49
f 51/51/51 49/49/49 66/66/66
f 66/66/66 67/67/67 51/51/51
f 53/53/53 51/51/51 67/67/67
f 67/67/67 68/68/68 53/53/53
f 54/54/54 53/53/53 68/68/68
f 68/68/68 69/69/69 54/54/54
f 52/52/52 54/54/54 69/69/69
f 69/69/69 70/70/70 52/52/52
f 50/50/50 52/52/52 70/70/70
f 70/70/70 71/71/71 50/50/50
f 48/48/48 50/50/50 71/71/71
f 71/71/71 72/72/72 48/48/48
f 46/46/46 48/48/48 72/72/72
f 72/72/72 56/56/56 46/46/46
