g BM_Stone_02
v 0.7922961 -0.2966072 0.2678137
v 0.7661801 0.2986857 0.3049854
v 0.8143619 0.3199175 0.2685071
v 0.7221823 -0.2966072 0.3049864
v 0.8143619 0.3199175 0.2685071
v 0.7101938 0.3486848 -0.1816298
v 0.8150262 0.2678899 -0.2124835
v 0.7536557 0.3486857 0.2549369
v 0.7922961 -0.2966082 -0.2657177
v 0.7567379 -0.3428096 0.2176731
v 0.7922961 -0.2966072 0.2678137
v 0.7310025 -0.325924 -0.30289
v -0.7673842 0.3772216 0.3404616
v -0.8111736 -0.2776793 0.3003438
v -0.8162767 0.3431596 0.3015229
v -0.762281 -0.2796676 0.3392825
v -0.831792 -0.2776802 -0.2678305
v -0.7562671 0.3162838 -0.302058
v -0.836895 0.3431585 -0.2666512
v -0.749827 -0.3117423 -0.3031893
v -0.7673842 0.3772216 0.3404616
v -0.836895 0.3431585 -0.2666512
v -0.7461393 0.3772205 -0.2635193
v -0.8162767 0.3431596 0.3015229
v -0.8111736 -0.2776793 0.3003438
v -0.749827 -0.3117423 -0.3031893
v -0.831792 -0.2776802 -0.2678305
v -0.7612278 -0.3117411 0.3097323
v 0.7310025 -0.325924 -0.30289
v 0.7567379 0.1302388 -0.3028908
v 0.5215337 -0.3428106 -0.3404617
v 0.331219 -0.3205898 -0.3404619
v 0.6955804 0.2638679 -0.3028912
v 0.1543704 0.2842767 -0.3028911
v 0.1499997 -0.2633247 -0.3404619
v -0.1217651 -0.2560859 -0.3404619
v -0.1609184 0.263859 -0.302891
v -0.4504768 0.303665 -0.302891
v -0.4982303 -0.3350699 -0.3216756
v -0.7562671 0.3162838 -0.302058
v -0.749827 -0.3117423 -0.3031893
v -0.1217651 -0.3863691 -0.2758738
v -0.4982303 -0.3350699 -0.3216756
v -0.4982303 -0.3843173 -0.2893817
v -0.1217651 -0.2560859 -0.3404619
v 0.1499997 -0.2633247 -0.3404619
v 0.1499997 -0.3697694 -0.2679547
v -0.749827 -0.3117423 -0.3031893
v 0.331219 -0.3205898 -0.3404619
v 0.7661801 0.2986857 0.3049854
v 0.2938211 0.1914539 0.3049857
v 0.1560944 0.249269 0.3049855
v 0.4555873 0.05584093 0.3049859
v 0.6109866 0.1091146 0.3049858
v 0.1560944 0.3680927 -0.2023715
v 0.7536557 0.3486857 0.2549369
v 0.1560944 0.3680934 0.1943709
v 0.7101938 0.3486848 -0.1816298
v -0.1609184 0.3863682 -0.1913285
v -0.1609184 0.3863691 0.2661093
v -0.4504768 0.3775179 -0.2476677
v -0.4504765 0.3775189 0.2895529
v -0.7461393 0.3772205 -0.2635193
v -0.7673842 0.3772216 0.3404616
v 0.331219 -0.3428105 -0.2600358
v 0.331219 -0.3205898 -0.3404619
v 0.1499997 -0.3697694 -0.2679547
v 0.5215337 -0.3428106 -0.3404617
v 0.331219 -0.3205898 -0.3404619
v 0.331219 -0.3428105 -0.2600358
v -0.836895 0.3431585 -0.2666512
v -0.7562671 0.3162838 -0.302058
v -0.7461393 0.3772205 -0.2635193
v -0.4504768 0.3775179 -0.2476677
v -0.4504768 0.303665 -0.302891
v -0.1609184 0.263859 -0.302891
v -0.1609184 0.3863682 -0.1913285
v 0.1543704 0.2842767 -0.3028911
v 0.1560944 0.3680927 -0.2023715
v 0.6955804 0.2638679 -0.3028912
v 0.7101938 0.3486848 -0.1816298
v 0.8150262 0.2678899 -0.2124835
v 0.7101938 0.3486848 -0.1816298
v 0.6955804 0.2638679 -0.3028912
v -0.8111736 -0.2776793 0.3003438
v -0.762281 -0.2796676 0.3392825
v -0.7612278 -0.3117411 0.3097323
v 0.7922961 -0.2966072 0.2678137
v 0.7191485 -0.3428096 0.2654665
v 0.7221823 -0.2966072 0.3049864
v 0.7567379 -0.3428096 0.2176731
v -0.762281 -0.2796676 0.3392825
v -0.4982303 -0.3843162 0.3045038
v -0.7612278 -0.3117411 0.3097323
v -0.4982303 -0.3512214 0.3390482
v 0.7567379 0.1302388 -0.3028908
v 0.8368951 0.03540592 -0.2657183
v 0.8150262 0.2678899 -0.2124835
v 0.6955804 0.2638679 -0.3028912
v 0.7567379 0.1302388 -0.3028908
v 0.7922961 -0.2966082 -0.2657177
v 0.8368951 0.03540592 -0.2657183
v 0.7310025 -0.325924 -0.30289
v 0.8143619 0.3199175 0.2685071
v 0.7661801 0.2986857 0.3049854
v 0.7536557 0.3486857 0.2549369
v 0.1560944 0.249269 0.3049855
v 0.1560944 0.3680934 0.1943709
v -0.1609184 0.3863691 0.2661093
v -0.4504765 0.3484477 0.3390471
v -0.762281 -0.2796676 0.3392825
v -0.7673842 0.3772216 0.3404616
v -0.4982303 -0.3512214 0.3390482
v -0.1609184 0.3447926 0.3403561
v -0.1217651 -0.3038861 0.3403573
v 0.1560944 0.249269 0.3049855
v 0.1560945 -0.2933724 0.3049864
v -0.1217651 -0.3773248 0.2243726
v -0.4982303 -0.3512214 0.3390482
v -0.1217651 -0.3038861 0.3403573
v -0.4982303 -0.3843162 0.3045038
v 0.1647504 -0.3654684 0.1575651
v 0.1560945 -0.2933724 0.3049864
v 0.7191485 -0.3428096 0.2654665
v 0.7221823 -0.2966072 0.3049864
v -0.4504765 0.3775189 0.2895529
v -0.4504765 0.3484477 0.3390471
v -0.7673842 0.3772216 0.3404616
v -0.1609184 0.3447926 0.3403561
v -0.1609184 0.3863691 0.2661093
v -0.836895 0.3431585 -0.2666512
v -0.8111736 -0.2776793 0.3003438
v -0.831792 -0.2776802 -0.2678305
v -0.8162767 0.3431596 0.3015229
v 0.7922961 -0.2966072 0.2678137
v 0.8368951 0.03540592 -0.2657183
v 0.7922961 -0.2966082 -0.2657177
v 0.8143619 0.3199175 0.2685071
v 0.8150262 0.2678899 -0.2124835
v 0.2735304 0.1437222 0.3242764
v 0.45306 0.003878553 0.3242766
v 0.1560945 -0.2933724 0.3049864
v 0.6247982 0.06996801 0.3242764
v 0.7221823 -0.2966072 0.3049864
v 0.7661801 0.2986857 0.3049854
v 0.1560944 0.249269 0.3049855
v 0.1560944 0.249269 0.3049855
v 0.2938211 0.1914539 0.3049857
v 0.2735304 0.1437222 0.3242764
v 0.4555873 0.05584093 0.3049859
v 0.45306 0.003878553 0.3242766
v 0.45306 0.003878553 0.3242766
v 0.6109866 0.1091146 0.3049858
v 0.6247982 0.06996801 0.3242764
v 0.4555873 0.05584093 0.3049859
v 0.7661801 0.2986857 0.3049854
v -0.1609184 0.3863691 0.2661093
v 0.1560944 0.249269 0.3049855
v -0.1609184 0.3447926 0.3403561
vt 0.3622745 0.8229415
vt 0.359981 0.8475967
vt 0.3622906 0.849135
vt 0.3594125 0.8225253
vt 0.3622906 0.849135
vt 0.3573483 0.8679317
vt 0.3624987 0.8706061
vt 0.3594531 0.8500909
vt 0.3845662 0.822735
vt 0.3634921 0.8202009
vt 0.3622745 0.8229415
vt 0.3860279 0.8198899
vt 0.2950002 0.8471242
vt 0.2946499 0.8203739
vt 0.292561 0.8471212
vt 0.2968535 0.819819
vt 0.2935662 0.8997192
vt 0.2959207 0.8748092
vt 0.2922836 0.8729436
vt 0.2974791 0.9012175
vt 0.2950002 0.8471242
vt 0.2922836 0.8729436
vt 0.2962728 0.8720632
vt 0.292561 0.8471212
vt 0.2946499 0.8203739
vt 0.2699606 0.8146237
vt 0.2709141 0.8185449
vt 0.2960993 0.818083
vt 0.3612444 0.8973147
vt 0.3602769 0.8781112
vt 0.3521295 0.8992456
vt 0.3438121 0.899243
vt 0.3569531 0.8735013
vt 0.3342962 0.874377
vt 0.3357626 0.8975331
vt 0.324125 0.8978983
vt 0.321149 0.8759579
vt 0.3088564 0.8750171
vt 0.3082597 0.9019467
vt 0.2959207 0.8748092
vt 0.2974791 0.9012175
vt 0.3244287 0.9040353
vt 0.3082597 0.9019467
vt 0.3083102 0.9044054
vt 0.324125 0.8978983
vt 0.3357626 0.8975331
vt 0.3360688 0.9029835
vt 0.2974791 0.9012175
vt 0.3438121 0.899243
vt 0.359981 0.8475967
vt 0.3402058 0.8422577
vt 0.3342137 0.8444612
vt 0.3473063 0.8368554
vt 0.3537147 0.8394153
vt 0.3340958 0.8688858
vt 0.3594531 0.8500909
vt 0.3340113 0.8518601
vt 0.3573483 0.8679317
vt 0.3208268 0.8689427
vt 0.3204974 0.8498787
vt 0.3086822 0.8713933
vt 0.3083317 0.8488767
vt 0.2962728 0.8720632
vt 0.2950002 0.8471242
vt 0.3439449 0.9027672
vt 0.3438121 0.899243
vt 0.3360688 0.9029835
vt 0.3521295 0.8992456
vt 0.3438121 0.899243
vt 0.3439449 0.9027672
vt 0.2922836 0.8729436
vt 0.2959207 0.8748092
vt 0.2962728 0.8720632
vt 0.3086822 0.8713933
vt 0.3088564 0.8750171
vt 0.321149 0.8759579
vt 0.3208268 0.8689427
vt 0.3342962 0.874377
vt 0.3340958 0.8688858
vt 0.3569531 0.8735013
vt 0.3573483 0.8679317
vt 0.3624987 0.8706061
vt 0.3573483 0.8679317
vt 0.3569531 0.8735013
vt 0.2946499 0.8203739
vt 0.2968535 0.819819
vt 0.2960993 0.818083
vt 0.3622745 0.8229415
vt 0.3601115 0.820172
vt 0.3594125 0.8225253
vt 0.3634921 0.8202009
vt 0.2968535 0.819819
vt 0.3078974 0.8148184
vt 0.2960993 0.818083
vt 0.3078945 0.8169011
vt 0.3602769 0.8781112
vt 0.3646432 0.8812002
vt 0.3624987 0.8706061
vt 0.3569531 0.8735013
vt 0.3602769 0.8781112
vt 0.3641922 0.8956821
vt 0.3646432 0.8812002
vt 0.3612444 0.8973147
vt 0.3622906 0.849135
vt 0.359981 0.8475967
vt 0.3594531 0.8500909
vt 0.3342137 0.8444612
vt 0.3340113 0.8518601
vt 0.3204974 0.8498787
vt 0.3083345 0.846579
vt 0.2968535 0.819819
vt 0.2950002 0.8471242
vt 0.3078945 0.8169011
vt 0.3204152 0.8468972
vt 0.323647 0.8200861
vt 0.3342137 0.8444612
vt 0.3355762 0.8212022
vt 0.3244398 0.8145219
vt 0.3078945 0.8169011
vt 0.323647 0.8200861
vt 0.3078974 0.8148184
vt 0.3367675 0.8142765
vt 0.3355762 0.8212022
vt 0.3601115 0.820172
vt 0.3594125 0.8225253
vt 0.3083317 0.8488767
vt 0.3083345 0.846579
vt 0.2950002 0.8471242
vt 0.3204152 0.8468972
vt 0.3204974 0.8498787
vt 0.2685919 0.8447433
vt 0.2946499 0.8203739
vt 0.2709141 0.8185449
vt 0.292561 0.8471212
vt 0.3622745 0.8229415
vt 0.3848351 0.836924
vt 0.3845662 0.822735
vt 0.3622906 0.849135
vt 0.3826309 0.846819
vt 0.3394158 0.8400622
vt 0.3473214 0.8345304
vt 0.3355762 0.8212022
vt 0.3544495 0.8376883
vt 0.3594125 0.8225253
vt 0.359981 0.8475967
vt 0.3342137 0.8444612
vt 0.3342137 0.8444612
vt 0.3402058 0.8422577
vt 0.3394158 0.8400622
vt 0.3473063 0.8368554
vt 0.3473214 0.8345304
vt 0.3473214 0.8345304
vt 0.3537147 0.8394153
vt 0.3544495 0.8376883
vt 0.3473063 0.8368554
vt 0.359981 0.8475967
vt 0.3204974 0.8498787
vt 0.3342137 0.8444612
vt 0.3204152 0.8468972
vn 0.4774016 -0.03388258 0.8780316
vn 0.6007705 -0.02354001 0.7990749
vn 0.6098033 -0.02271616 0.7922272
vn 0.4681347 -0.0345981 0.8829796
vn 0.4683639 0.882003 -0.05201907
vn 0.5800776 0.8103779 -0.08244863
vn 0.5922175 0.8011923 -0.08584502
vn 0.4357389 0.899027 -0.04338123
vn 0.4779794 -0.877022 -0.04866385
vn 0.7765722 -0.6300207 -0.003091519
vn 0.7924758 -0.6099033 1.111991E-06
vn 0.456086 -0.8884521 -0.05136678
vn -0.6204212 -0.006556971 0.7842414
vn -0.6229504 -0.006265025 0.7822362
vn -0.6201586 -0.006587247 0.7844489
vn -0.6231265 -0.006244683 0.7820962
vn -0.3973705 -0.00235305 -0.9176553
vn -0.4020747 -0.001636779 -0.9156055
vn -0.4025154 -0.001569586 -0.9154118
vn -0.396949 -0.002417143 -0.9178375
vn -0.5493608 0.8354316 0.01602521
vn -0.3664399 0.9303853 -0.01024568
vn -0.3509819 0.9363009 -0.01234744
vn -0.5827839 0.8123519 0.02114687
vn -0.5474932 -0.8367678 -0.00842377
vn -0.3948979 -0.9186504 0.0117083
vn -0.3786541 -0.9254363 0.01374241
vn -0.562054 -0.8270345 -0.01045316
vn 0.1773215 -0.01000581 -0.9841022
vn 0.07205389 0.02673472 -0.9970424
vn 0.06779871 0.04544755 -0.9966634
vn 0.01459979 0.06599622 -0.9977131
vn 0.0299702 0.04550361 -0.9985145
vn 0.001740069 0.06717576 -0.9977397
vn 0.01260968 0.06834329 -0.9975822
vn -0.01978432 0.05673168 -0.9981934
vn 0.003168758 0.07230853 -0.9973773
vn -0.009089046 0.04319508 -0.9990253
vn -0.05439848 0.02035733 -0.9983118
vn -0.01885713 0.02263493 -0.9995659
vn -0.07318214 0.001046117 -0.9973181
vn 0.02735143 -0.4666046 -0.884043
vn -0.03660795 -0.5366248 -0.8430265
vn -0.0355084 -0.5480183 -0.8357123
vn 0.01640894 -0.4441066 -0.8958237
vn -0.05960811 -0.5423656 -0.8380253
vn -0.03958027 -0.5625316 -0.8258278
vn -0.1115857 -0.5449395 -0.8310173
vn -0.1751481 -0.5542703 -0.8136999
vn 2.921747E-07 2.156382E-06 1
vn 0 3.370074E-06 1
vn -1.601645E-07 3.907216E-06 1
vn 3.398962E-07 1.842995E-06 1
vn 5.766346E-07 1.540213E-06 1
vn 0.04555785 0.9989614 -0.000703461
vn 0.03405846 0.9994177 -0.002091096
vn 0.0454501 0.9989666 -1.892903E-06
vn 0.03513516 0.9993765 -0.003499763
vn 0.01145539 0.9999344 -1.858554E-06
vn 0.009062168 0.999959 -1.805414E-06
vn -0.01457143 0.9998938 -1.788856E-06
vn -0.01465471 0.9998926 -1.458791E-05
vn -0.0009848988 0.9999995 -1.306453E-05
vn -0.0009436994 0.9999996 -3.508907E-05
vn 0.1531989 -0.952509 -0.2631667
vn 0.1531989 -0.952509 -0.2631667
vn 0.1531989 -0.952509 -0.2631667
vn -0.111836 -0.9578406 -0.2646398
vn -0.111836 -0.9578406 -0.2646398
vn -0.111836 -0.9578406 -0.2646398
vn -0.1770293 0.546918 -0.8182551
vn -0.05944855 0.548079 -0.8343113
vn -0.04197323 0.5390145 -0.8412501
vn 0.06231081 0.6057712 -0.7931952
vn 0.05364122 0.5979825 -0.7997121
vn 0.03412648 0.6658667 -0.7452898
vn 0.04562569 0.6857377 -0.7264173
vn 0.01535849 0.7541414 -0.6565325
vn 0.02718535 0.7717888 -0.6352975
vn 0.04712316 0.8090025 -0.5859131
vn 0.05014585 0.8155625 -0.5764922
vn 0.3975185 0.7287267 -0.5576168
vn 0.3975185 0.7287267 -0.5576168
vn 0.3975185 0.7287267 -0.5576168
vn -0.5181082 -0.588689 0.620491
vn -0.5181081 -0.588689 0.6204911
vn -0.5181082 -0.588689 0.620491
vn 0.4344887 -0.7156637 0.5468501
vn 0.4330558 -0.7135899 0.5506833
vn 0.3681867 -0.6181934 0.6944606
vn 0.4848877 -0.7870482 0.3813647
vn -0.1732863 -0.6754458 0.71676
vn -0.1892395 -0.7047343 0.6837674
vn -0.1707214 -0.6706645 0.7218471
vn -0.1914549 -0.7087384 0.6789954
vn 0.605154 0.2418991 -0.7584679
vn 0.6200458 0.2300785 -0.7500714
vn 0.5930387 0.2512907 -0.7649562
vn 0.5764655 0.263827 -0.7733582
vn 0.4042627 -0.04587723 -0.9134916
vn 0.5118205 -0.03212737 -0.8584915
vn 0.37105 -0.04984429 -0.9272742
vn 0.5287152 -0.02983024 -0.8482749
vn 0.190548 0.7179195 0.6695394
vn 0.04751347 0.7125707 0.6999896
vn 0.02797487 0.7088152 0.7048392
vn 0.05998732 0.6809798 0.7298411
vn 0.0742539 0.6794879 0.7299196
vn 0.2007438 0.6674988 0.7170406
vn -0.0005705978 -0.0005073365 0.9999998
vn 0.00174409 -0.0004908881 0.9999983
vn 0.004303669 -0.001761499 0.9999893
vn -0.001440697 -6.036637E-05 0.999999
vn 0.04577655 0.002994764 0.9989472
vn 0.05848859 0.001013942 0.9982875
vn 0.1162802 0.005101246 0.9932033
vn 0.1262784 1.709171E-06 0.9919949
vn 0.1358686 -0.8330116 0.5363127
vn 0.1474826 -0.7426671 0.6532186
vn 0.119669 -0.847833 0.5165836
vn 0.1586249 -0.7129537 0.6830338
vn 0.02836651 -0.8907967 0.4535159
vn 0.0266643 -0.8914793 0.4522762
vn -0.01104837 -0.698119 0.7158965
vn -0.003713481 -0.6498669 0.7600389
vn 0.04228816 0.8624714 0.5043359
vn 0.04386808 0.8614316 0.5059755
vn 0.08029044 0.8594779 0.504828
vn 0.01235148 0.8711856 0.4907983
vn 0.0128885 0.8724423 0.4885471
vn -0.999308 -0.008282837 0.0362637
vn -0.999308 -0.008282824 0.03626372
vn -0.999308 -0.008282718 0.03626383
vn -0.999308 -0.008282942 0.03626359
vn 0.9967297 -0.07053814 0.03942324
vn 0.99933 -0.03104225 0.01938986
vn 0.9910981 -0.1331329 2.427311E-07
vn 0.9990789 -0.001404712 0.04288856
vn 0.995371 0.095686 -0.008975268
vn -0.1134232 -0.01336955 0.9934568
vn 0.01646868 -0.08112545 0.9965678
vn -0.0335977 -0.04272123 0.998522
vn 0.09721433 -0.03144259 0.9947667
vn 0.03125063 -0.04424298 0.9985319
vn 0.153135 -0.01131645 0.9881405
vn -0.162093 1.619276E-06 0.9867755
vn 0.134931 0.3214353 0.9372689
vn 0.1794659 0.3020858 0.9362351
vn 0.1953574 0.2994137 0.9339095
vn 0.2512435 0.3199615 0.9135105
vn 0.253756 0.3257706 0.9107586
vn -0.1266304 0.3595051 0.9245111
vn -0.2745354 0.3412081 0.8990035
vn -0.2332801 0.3623642 0.9023705
vn -0.1202056 0.3506429 0.9287626
vn -0.3695676 0.3025504 0.8785686
vn 0.3025475 0.8316237 0.4656897
vn 0.3025475 0.8316237 0.4656897
vn 0.3025475 0.8316237 0.4656897
g BM_Stone_02_0
f 3/3/3 2/2/2 1/1/1
f 4/4/4 1/1/1 2/2/2
f 7/7/7 6/6/6 5/5/5
f 8/8/8 5/5/5 6/6/6
f 11/11/11 10/10/10 9/9/9
f 12/12/12 9/9/9 10/10/10
f 15/15/15 14/14/14 13/13/13
f 16/16/16 13/13/13 14/14/14
f 19/19/19 18/18/18 17/17/17
f 20/20/20 17/17/17 18/18/18
f 23/23/23 22/22/22 21/21/21
f 24/24/24 21/21/21 22/22/22
f 27/27/27 26/26/26 25/25/25
f 28/28/28 25/25/25 26/26/26
f 31/31/31 30/30/30 29/29/29
f 31/31/31 32/32/32 30/30/30
f 33/33/33 30/30/30 32/32/32
f 33/33/33 32/32/32 34/34/34
f 35/35/35 34/34/34 32/32/32
f 35/35/35 36/36/36 34/34/34
f 37/37/37 34/34/34 36/36/36
f 37/37/37 36/36/36 38/38/38
f 39/39/39 38/38/38 36/36/36
f 38/38/38 39/39/39 40/40/40
f 41/41/41 40/40/40 39/39/39
f 44/44/44 43/43/43 42/42/42
f 45/45/45 42/42/42 43/43/43
f 45/45/45 46/46/46 42/42/42
f 47/47/47 42/42/42 46/46/46
f 48/48/48 43/43/43 44/44/44
f 46/46/46 49/49/49 47/47/47
f 52/52/52 51/51/51 50/50/50
f 51/51/51 53/53/53 50/50/50
f 53/53/53 54/54/54 50/50/50
f 57/57/57 56/56/56 55/55/55
f 58/58/58 55/55/55 56/56/56
f 55/55/55 59/59/59 57/57/57
f 60/60/60 57/57/57 59/59/59
f 59/59/59 61/61/61 60/60/60
f 62/62/62 60/60/60 61/61/61
f 61/61/61 63/63/63 62/62/62
f 64/64/64 62/62/62 63/63/63
f 67/67/67 66/66/66 65/65/65
f 70/70/70 69/69/69 68/68/68
f 73/73/73 72/72/72 71/71/71
f 73/73/73 74/74/74 72/72/72
f 75/75/75 72/72/72 74/74/74
f 75/75/75 74/74/74 76/76/76
f 77/77/77 76/76/76 74/74/74
f 76/76/76 77/77/77 78/78/78
f 79/79/79 78/78/78 77/77/77
f 78/78/78 79/79/79 80/80/80
f 81/81/81 80/80/80 79/79/79
f 84/84/84 83/83/83 82/82/82
f 87/87/87 86/86/86 85/85/85
f 90/90/90 89/89/89 88/88/88
f 91/91/91 88/88/88 89/89/89
f 94/94/94 93/93/93 92/92/92
f 95/95/95 92/92/92 93/93/93
f 98/98/98 97/97/97 96/96/96
f 96/96/96 99/99/99 98/98/98
f 102/102/102 101/101/101 100/100/100
f 103/103/103 100/100/100 101/101/101
f 106/106/106 105/105/105 104/104/104
f 105/105/105 106/106/106 107/107/107
f 108/108/108 107/107/107 106/106/106
f 109/109/109 107/107/107 108/108/108
f 112/112/112 111/111/111 110/110/110
f 113/113/113 110/110/110 111/111/111
f 110/110/110 113/113/113 114/114/114
f 115/115/115 114/114/114 113/113/113
f 114/114/114 115/115/115 116/116/116
f 117/117/117 116/116/116 115/115/115
f 120/120/120 119/119/119 118/118/118
f 121/121/121 118/118/118 119/119/119
f 118/118/118 122/122/122 120/120/120
f 123/123/123 120/120/120 122/122/122
f 122/122/122 124/124/124 123/123/123
f 125/125/125 123/123/123 124/124/124
f 128/128/128 127/127/127 126/126/126
f 127/127/127 129/129/129 126/126/126
f 130/130/130 126/126/126 129/129/129
f 133/133/133 132/132/132 131/131/131
f 134/134/134 131/131/131 132/132/132
f 137/137/137 136/136/136 135/135/135
f 138/138/138 135/135/135 136/136/136
f 139/139/139 138/138/138 136/136/136
f 142/142/142 141/141/141 140/140/140
f 141/141/141 142/142/142 143/143/143
f 144/144/144 143/143/143 142/142/142
f 145/145/145 143/143/143 144/144/144
f 146/146/146 142/142/142 140/140/140
f 149/149/149 148/148/148 147/147/147
f 148/148/148 149/149/149 150/150/150
f 151/151/151 150/150/150 149/149/149
f 154/154/154 153/153/153 152/152/152
f 155/155/155 152/152/152 153/153/153
f 156/156/156 153/153/153 154/154/154
f 159/159/159 158/158/158 157/157/157
