g Libel_MagicBook03
v 0.259284 -0.006338806 0.04496002
v 0.1617317 -0.04927978 -0.2300046
v 0.2768053 -0.04953552 0.0494873
v 0.1525838 -0.006100769 -0.2141959
v -0.05707504 -0.02851105 -0.1386407
v -0.01681686 -0.04743561 -0.1554501
v -0.01464355 -0.03207123 -0.1563531
v -0.05707504 -0.04736206 -0.1386401
v -0.03809326 0.004935608 -0.1416574
v -0.09750228 -0.04743561 -0.1222424
v -0.09968185 -0.03207123 -0.1213535
v -0.07268051 0.004935608 -0.1274219
v -0.09290557 0.01537262 -0.1164285
v -0.1131302 0.01613861 -0.1054349
v -0.2591801 -0.006101074 -0.04472778
v -0.2768053 -0.04928009 -0.04951874
v -0.01599014 0.01537262 -0.1480844
v 0.006113129 0.01613861 -0.154512
v 0.1525838 -0.006100769 -0.2141959
v 0.1617317 -0.04927978 -0.2300046
v 0.05796097 -0.02853302 0.1408673
v -0.03809326 0.004935608 -0.1416574
v 0.0748523 0.00491394 0.1289169
v -0.05707504 -0.02851105 -0.1386407
v 0.09496139 0.01525208 0.1177322
v -0.01599014 0.01537262 -0.1480844
v 0.1150702 0.0159198 0.1065472
v 0.006113129 0.01613861 -0.154512
v 0.1525838 -0.006100769 -0.2141959
v 0.259284 -0.006338806 0.04496002
v 0.05796097 -0.02853302 0.1408673
v 0.09961731 -0.04745788 0.1234814
v 0.05796097 -0.04738373 0.1408673
v 0.1017914 -0.03209259 0.122579
v 0.01613419 -0.04745819 0.1578412
v 0.01395447 -0.0320929 0.1587289
v 0.03754944 0.00491394 0.1442697
v 0.0748523 0.00491394 0.1289169
v 0.09496139 0.01525208 0.1177322
v 0.01539322 0.01525177 0.1504788
v -0.006762543 0.01591949 0.1566885
v -0.1525496 -0.006339111 0.2144553
v -0.1618076 -0.04953644 0.2300046
v 0.1150702 0.0159198 0.1065472
v 0.2768053 -0.04953552 0.0494873
v 0.259284 -0.006338806 0.04496002
v -0.01681686 -0.04743561 -0.1554501
v 0.1017914 -0.03209259 0.122579
v -0.01464355 -0.03207123 -0.1563531
v 0.09961731 -0.04745788 0.1234814
v -0.1525496 -0.006339111 0.2144553
v -0.2768053 -0.04928009 -0.04951874
v -0.2591801 -0.006101074 -0.04472778
v -0.1618076 -0.04953644 0.2300046
v 0.05796097 -0.02853302 0.1408673
v -0.07268051 0.004935608 -0.1274219
v -0.05707504 -0.02851105 -0.1386407
v 0.03754944 0.00491394 0.1442697
v -0.09290557 0.01537262 -0.1164285
v 0.01539322 0.01525177 0.1504788
v -0.006762543 0.01591949 0.1566885
v -0.1131302 0.01613861 -0.1054349
v -0.2591801 -0.006101074 -0.04472778
v -0.1525496 -0.006339111 0.2144553
v -0.09750228 -0.04743561 -0.1222424
v 0.01395447 -0.0320929 0.1587289
v 0.01613419 -0.04745819 0.1578412
v -0.09968185 -0.03207123 -0.1213535
v -0.05439438 -0.02777191 -0.1282248
v 0.06094589 0.01035187 0.1347226
v -0.04945572 0.01037353 -0.1306351
v 0.05472763 -0.02626892 0.1301025
v -0.0631723 0.03946625 -0.1235907
v 0.04857315 0.03944458 0.1434863
v -0.07767746 0.04863525 -0.1171567
v 0.03472717 0.04858734 0.1509946
v 0.0178833 0.04951477 0.1586032
v -0.09476196 0.04953644 -0.1098087
v -0.03877563 0.0211322 0.1773209
v -0.1490804 0.02115326 -0.08620239
v -0.06710495 0.0121872 0.1866794
v -0.1762393 0.01220795 -0.07439911
v -0.09543457 0.01146484 0.1960385
v -0.2033984 0.0114856 -0.06259613
vt 0.4983714 0.3060656
vt 0.5772465 0.2964683
vt 0.4895647 0.296966
vt 0.5772465 0.3059691
vt 0.4934326 0.3716247
vt 0.4824553 0.3580723
vt 0.485467 0.3558852
vt 0.4881318 0.3716247
vt 0.4965754 0.3625576
vt 0.4824553 0.3580723
vt 0.485467 0.3558852
vt 0.4965754 0.3625576
vt 0.4974734 0.3564816
vt 0.4983714 0.3504055
vt 0.4983714 0.3060513
vt 0.4895647 0.296966
vt 0.4974734 0.3564816
vt 0.4983714 0.3504055
vt 0.4983714 0.3060513
vt 0.4895647 0.296966
vt 0.4934326 0.3716391
vt 0.5772465 0.3625719
vt 0.4965754 0.3625719
vt 0.5772465 0.3716391
vt 0.4974734 0.3564959
vt 0.5772465 0.3564959
vt 0.4983714 0.35042
vt 0.5772465 0.35042
vt 0.5772465 0.3059691
vt 0.4983714 0.3060656
vt 0.4934326 0.3716391
vt 0.4824553 0.3580867
vt 0.4881318 0.3716391
vt 0.485467 0.3558996
vt 0.4824553 0.3580867
vt 0.485467 0.3558996
vt 0.4965754 0.3625719
vt 0.4965754 0.3625719
vt 0.4974734 0.3564959
vt 0.4974734 0.3564959
vt 0.4983714 0.35042
vt 0.4983714 0.3060656
vt 0.4895647 0.296966
vt 0.4983714 0.35042
vt 0.4895647 0.296966
vt 0.4983714 0.3060656
vt 0.4810046 0.3544581
vt 0.4818194 0.2955248
vt 0.4774343 0.3541912
vt 0.4853895 0.2957917
vt 0.4983714 0.3060656
vt 0.5772465 0.2964683
vt 0.5772465 0.3059691
vt 0.4895647 0.296966
vt 0.4934326 0.3716391
vt 0.5772465 0.3625719
vt 0.5772465 0.3716391
vt 0.4965754 0.3625719
vt 0.5772465 0.3564959
vt 0.4974734 0.3564959
vt 0.4983714 0.35042
vt 0.5772465 0.35042
vt 0.5772465 0.3059691
vt 0.4983714 0.3060656
vt 0.4810046 0.3544581
vt 0.4818194 0.2955248
vt 0.4853895 0.2957917
vt 0.4774343 0.3541912
vt 0.4934326 0.3716391
vt 0.5772465 0.3625719
vt 0.4965754 0.3625719
vt 0.5772465 0.3716391
vt 0.4983714 0.35042
vt 0.5772465 0.35042
vt 0.4983714 0.3432432
vt 0.5772465 0.3432457
vt 0.5772465 0.3360715
vt 0.4983714 0.3360663
vt 0.5772465 0.3210203
vt 0.4983714 0.321066
vt 0.5772465 0.3134947
vt 0.4983714 0.3135658
vt 0.5772465 0.3059691
vt 0.4983714 0.3060656
vn 0.6764323 0.6871791 0.2649987
vn 0.4079961 0.3888655 -0.8260283
vn 0.8789482 0.3776705 0.2912304
vn 0.2828527 0.6871408 -0.6692025
vn -0.3618011 0.3103917 -0.8790659
vn 0.3303327 -0.1019281 -0.9383448
vn -0.04660021 0.05787127 -0.9972358
vn -0.3805958 -2.994096E-05 -0.9247414
vn -0.6911542 0.6182061 -0.3743356
vn -0.8951318 -0.1019278 -0.4339929
vn -0.6688648 0.05786888 -0.7411281
vn 0.2274337 0.6181376 -0.7524492
vn -0.1204461 0.776797 -0.6181256
vn -0.2969594 0.7885358 -0.538541
vn -0.6719646 0.6871414 -0.2762248
vn -0.8712371 0.3888662 -0.2995479
vn -0.3496076 0.7768357 -0.5237373
vn -0.1681538 0.7885351 -0.5915546
vn 0.2828527 0.6871408 -0.6692025
vn 0.4079961 0.3888655 -0.8260283
vn 0.3600894 0.3237631 0.8749361
vn -0.6911542 0.6182061 -0.3743356
vn -0.2087766 0.6257755 0.7515433
vn -0.3618011 0.3103917 -0.8790659
vn 0.1290236 0.7772096 0.6158718
vn -0.3496076 0.7768357 -0.5237373
vn 0.2983541 0.7906522 0.5346532
vn -0.1681538 0.7885351 -0.5915546
vn 0.2828527 0.6871408 -0.6692025
vn 0.6764323 0.6871791 0.2649987
vn 0.3600894 0.3237631 0.8749361
vn 0.8994243 -0.1022538 0.4249473
vn 0.3806015 0 0.9247392
vn 0.6733714 0.05607234 0.7371748
vn -0.3397285 -0.1021798 0.9349566
vn 0.03680855 0.05780922 0.9976489
vn 0.6773217 0.6257122 0.3869359
vn -0.2087766 0.6257755 0.7515433
vn 0.1290236 0.7772096 0.6158718
vn 0.3417994 0.7771829 0.5283558
vn 0.1608047 0.7877756 0.5946019
vn -0.286277 0.6854681 0.6694617
vn -0.4132462 0.385527 0.8249827
vn 0.2983541 0.7906522 0.5346532
vn 0.8789482 0.3776705 0.2912304
vn 0.6764323 0.6871791 0.2649987
vn 0.3303327 -0.1019281 -0.9383448
vn 0.6733714 0.05607234 0.7371748
vn -0.04660021 0.05787127 -0.9972358
vn 0.8994243 -0.1022538 0.4249473
vn -0.286277 0.6854681 0.6694617
vn -0.8712371 0.3888662 -0.2995479
vn -0.6719646 0.6871414 -0.2762248
vn -0.4132462 0.385527 0.8249827
vn 0.3600894 0.3237631 0.8749361
vn 0.2274337 0.6181376 -0.7524492
vn -0.3618011 0.3103917 -0.8790659
vn 0.6773217 0.6257122 0.3869359
vn -0.1204461 0.776797 -0.6181256
vn 0.3417994 0.7771829 0.5283558
vn 0.1608047 0.7877756 0.5946019
vn -0.2969594 0.7885358 -0.538541
vn -0.6719646 0.6871414 -0.2762248
vn -0.286277 0.6854681 0.6694617
vn -0.8951318 -0.1019278 -0.4339929
vn 0.03680855 0.05780922 0.9976489
vn -0.3397285 -0.1021798 0.9349566
vn -0.6688648 0.05786888 -0.7411281
vn 0.9141015 -0.1394743 -0.3807432
vn 0.9022325 0.2064672 -0.378613
vn 0.9101967 0.1677779 -0.3786721
vn 0.9161373 -0.1068171 -0.386371
vn 0.6684923 0.689526 -0.2786969
vn 0.6594501 0.6992466 -0.2760066
vn 0.262419 0.9586924 -0.1097512
vn 0.2550716 0.9610114 -0.1067502
vn -0.1776349 0.9812582 0.07468825
vn -0.1809708 0.9805603 0.07583593
vn -0.3354438 0.9314969 0.1406807
vn -0.3342006 0.9320621 0.1398934
vn -0.1512201 0.9864672 0.06336454
vn -0.1470283 0.9872165 0.06153261
vn -0.02238099 0.999705 0.009434242
vn -0.02247667 0.9997025 0.009462825
g Libel_MagicBook03_0
f 3/3/3 2/2/2 1/1/1
f 4/4/4 1/1/1 2/2/2
f 7/7/7 6/6/6 5/5/5
f 8/8/8 5/5/5 6/6/6
f 9/9/9 7/7/7 5/5/5
f 8/8/8 10/10/10 5/5/5
f 11/11/11 5/5/5 10/10/10
f 11/11/11 12/12/12 5/5/5
f 13/13/13 12/12/12 11/11/11
f 14/14/14 13/13/13 11/11/11
f 14/14/14 11/11/11 15/15/15
f 16/16/16 15/15/15 11/11/11
f 9/9/9 17/17/17 7/7/7
f 18/18/18 7/7/7 17/17/17
f 18/18/18 19/19/19 7/7/7
f 20/20/20 7/7/7 19/19/19
f 23/23/23 22/22/22 21/21/21
f 24/24/24 21/21/21 22/22/22
f 23/23/23 25/25/25 22/22/22
f 26/26/26 22/22/22 25/25/25
f 25/25/25 27/27/27 26/26/26
f 28/28/28 26/26/26 27/27/27
f 28/28/28 27/27/27 29/29/29
f 30/30/30 29/29/29 27/27/27
f 33/33/33 32/32/32 31/31/31
f 34/34/34 31/31/31 32/32/32
f 33/33/33 31/31/31 35/35/35
f 36/36/36 35/35/35 31/31/31
f 31/31/31 37/37/37 36/36/36
f 38/38/38 31/31/31 34/34/34
f 39/39/39 38/38/38 34/34/34
f 37/37/37 40/40/40 36/36/36
f 40/40/40 41/41/41 36/36/36
f 41/41/41 42/42/42 36/36/36
f 43/43/43 36/36/36 42/42/42
f 44/44/44 39/39/39 34/34/34
f 34/34/34 45/45/45 44/44/44
f 46/46/46 44/44/44 45/45/45
f 49/49/49 48/48/48 47/47/47
f 50/50/50 47/47/47 48/48/48
f 53/53/53 52/52/52 51/51/51
f 54/54/54 51/51/51 52/52/52
f 57/57/57 56/56/56 55/55/55
f 58/58/58 55/55/55 56/56/56
f 56/56/56 59/59/59 58/58/58
f 60/60/60 58/58/58 59/59/59
f 60/60/60 59/59/59 61/61/61
f 62/62/62 61/61/61 59/59/59
f 62/62/62 63/63/63 61/61/61
f 64/64/64 61/61/61 63/63/63
f 67/67/67 66/66/66 65/65/65
f 68/68/68 65/65/65 66/66/66
f 71/71/71 70/70/70 69/69/69
f 72/72/72 69/69/69 70/70/70
f 71/71/71 73/73/73 70/70/70
f 74/74/74 70/70/70 73/73/73
f 73/73/73 75/75/75 74/74/74
f 76/76/76 74/74/74 75/75/75
f 76/76/76 75/75/75 77/77/77
f 78/78/78 77/77/77 75/75/75
f 77/77/77 78/78/78 79/79/79
f 80/80/80 79/79/79 78/78/78
f 79/79/79 80/80/80 81/81/81
f 82/82/82 81/81/81 80/80/80
f 81/81/81 82/82/82 83/83/83
f 84/84/84 83/83/83 82/82/82
