g Libel_wall_Arch_02
v 4.983921 2.652593 2.373541
v 4.983921 2.420228 1.573246
v 2.490884 2.420228 1.573244
v 2.490883 2.653309 2.374652
v 4.983921 0.910238 0.3423797
v 4.983917 -0.4204034 0.342381
v 2.490882 -0.4233209 0.3423804
v 2.49088 0.9102374 0.3423797
v 4.983923 2.132555 0.9715015
v 4.983922 1.719207 0.596557
v 2.49088 1.719208 0.596557
v 2.490884 2.132554 0.9715015
v 0.001895752 2.418015 1.573784
v 0.001893921 2.651542 2.373051
v 2.490883 2.653309 2.374652
v 2.490884 2.420228 1.573244
v -0.004641113 -0.4233221 0.3448773
v 0.00189331 0.9083111 0.3437347
v 2.49088 0.9102374 0.3423797
v 2.490882 -0.4233209 0.3423804
v 0.00189331 1.71735 0.5977105
v 0.001896973 2.130289 0.9720813
v 2.490884 2.132554 0.9715015
v 2.49088 1.719208 0.596557
v 2.490884 2.132554 0.9715015
v 2.490884 2.420228 1.573244
v 4.983921 2.420228 1.573246
v 4.983923 2.132555 0.9715015
v 2.490884 2.420228 1.573244
v 2.490884 2.132554 0.9715015
v 0.001896973 2.130289 0.9720813
v 0.001895752 2.418015 1.573784
v 4.983922 1.719207 0.596557
v 4.983921 0.910238 0.3423797
v 2.49088 0.9102374 0.3423797
v 2.49088 1.719208 0.596557
v 2.49088 1.719208 0.596557
v 2.49088 0.9102374 0.3423797
v 0.00189331 0.9083111 0.3437347
v 0.00189331 1.71735 0.5977105
v 4.983921 0.910238 0.3423797
v 4.983918 0.9090588 -0.003468628
v 4.983916 -0.4204022 -0.002230835
v 4.983917 -0.4204034 0.342381
v 4.983921 2.652593 2.373541
v 4.983916 3.006064 2.339543
v 4.983913 2.757144 1.499299
v 4.983921 2.420228 1.573246
v 4.983916 2.425577 0.7678778
v 4.983923 2.132555 0.9715015
v 4.983917 1.851181 0.2808203
v 4.983922 1.719207 0.596557
v 4.983922 1.719207 0.596557
v 4.983917 1.851181 0.2808203
v 4.983918 0.9090588 -0.003468628
v 4.983921 0.910238 0.3423797
v 4.983916 3.006064 2.339543
v 2.490878 3.006435 2.337144
v 2.490873 2.759057 1.500798
v 4.983913 2.757144 1.499299
v 4.983918 0.9090588 -0.003468628
v 2.49088 0.9102374 -0.004686279
v 2.490882 -0.4233209 -0.004685669
v 4.983917 -0.4204028 -0.004685058
v 4.983916 2.425577 0.7678778
v 2.490876 2.422896 0.766134
v 2.490874 1.84037 0.2736072
v 4.983917 1.851181 0.2808203
v 0.001887207 2.755887 1.500587
v 2.490873 2.759057 1.500798
v 2.490878 3.006435 2.337144
v 0.001888428 3.005077 2.338451
v 1.220703E-06 -0.4223492 -1.831055E-06
v 2.490882 -0.4233209 -0.004685669
v 2.49088 0.9102374 -0.004686279
v 0.001890869 0.9077215 -0.002722778
v 0.001889648 1.843918 0.2783673
v 2.490874 1.84037 0.2736072
v 2.490876 2.422896 0.766134
v 0.001889648 2.421968 0.7675861
v 2.490876 2.422896 0.766134
v 4.983916 2.425577 0.7678778
v 4.983913 2.757144 1.499299
v 2.490873 2.759057 1.500798
v 2.490873 2.759057 1.500798
v 0.001887207 2.755887 1.500587
v 0.001889648 2.421968 0.7675861
v 2.490876 2.422896 0.766134
v 4.983917 1.851181 0.2808203
v 2.490874 1.84037 0.2736072
v 2.49088 0.9102374 -0.004686279
v 4.983918 0.9090588 -0.003468628
v 2.490874 1.84037 0.2736072
v 0.001889648 1.843918 0.2783673
v 0.001890869 0.9077215 -0.002722778
v 2.49088 0.9102374 -0.004686279
v 0.00189331 0.9083111 0.3437347
v -0.004855957 -0.4204028 0.3444562
v 1.220703E-06 -0.4223492 -1.831055E-06
v 0.001890869 0.9077215 -0.002722778
v 0.001893921 2.651542 2.373051
v 0.001895752 2.418015 1.573784
v 0.001887207 2.755887 1.500587
v 0.001888428 3.005077 2.338451
v 0.001889648 2.421968 0.7675861
v 0.001896973 2.130289 0.9720813
v 0.001889648 1.843918 0.2783673
v 0.00189331 1.71735 0.5977105
v 0.00189331 1.71735 0.5977105
v 0.00189331 0.9083111 0.3437347
v 0.001890869 0.9077215 -0.002722778
v 0.001889648 1.843918 0.2783673
v 4.983917 2.709144 4.032993
v 4.983921 2.708479 3.214238
v 2.490884 2.708479 3.214238
v 2.490882 2.709162 4.035331
v 0.001895752 2.708449 3.21429
v 0.001890869 2.709113 4.031822
v 2.490882 2.709162 4.035331
v 2.490884 2.708479 3.214238
v 2.490883 2.653309 2.374652
v 2.490884 2.708479 3.214238
v 4.983921 2.708479 3.214238
v 4.983921 2.652593 2.373541
v 2.490884 2.708479 3.214238
v 2.490883 2.653309 2.374652
v 0.001893921 2.651542 2.373051
v 0.001895752 2.708449 3.21429
v 4.983917 2.709144 4.032993
v 4.983915 3.069775 4.030654
v 4.983913 3.065097 3.176221
v 4.983921 2.708479 3.214238
v 4.983916 3.006064 2.339543
v 4.983921 2.652593 2.373541
v 4.983915 3.069775 4.030654
v 2.490879 3.069811 4.025972
v 2.490873 3.065166 3.176353
v 4.983913 3.065097 3.176221
v 0.001887207 3.065069 3.176342
v 2.490873 3.065166 3.176353
v 2.490879 3.069811 4.025972
v 0.001887207 3.069725 4.028313
v 2.490878 3.006435 2.337144
v 4.983916 3.006064 2.339543
v 4.983913 3.065097 3.176221
v 2.490873 3.065166 3.176353
v 2.490873 3.065166 3.176353
v 0.001887207 3.065069 3.176342
v 0.001888428 3.005077 2.338451
v 2.490878 3.006435 2.337144
v 0.001890869 2.709113 4.031822
v 0.001895752 2.708449 3.21429
v 0.001887207 3.065069 3.176342
v 0.001887207 3.069725 4.028313
v 0.001888428 3.005077 2.338451
v 0.001893921 2.651542 2.373051
v 4.983915 3.069775 4.030654
v 4.983917 2.709144 4.032993
v 2.490878 2.709144 4.025971
v 2.490879 3.069811 4.025972
v 2.490879 3.069811 4.025972
v 2.490878 2.709144 4.025971
v 0.001890869 2.709113 4.031822
v 0.001887207 3.069725 4.028313
vt 0.7946919 0.1033387
vt 0.7946904 0.1680669
vt 0.9987898 0.1680669
vt 0.9987922 0.1033387
vt 0.7924048 0.08875574
vt 0.7924079 0.002803332
vt 0.9965076 0.002803332
vt 0.9965048 0.08875574
vt 0.7946904 0.2245686
vt 0.7946917 0.2752934
vt 0.9987916 0.2752934
vt 0.9987904 0.2245686
vt 0.7949587 0.1680669
vt 0.7949673 0.1033387
vt 0.9987358 0.1033387
vt 0.9987276 0.1680669
vt 0.7919083 0.002803332
vt 0.7925524 0.08875574
vt 0.9963208 0.08875574
vt 0.9962116 0.002803332
vt 0.7949015 0.2752934
vt 0.7949357 0.2245686
vt 0.9987041 0.2245686
vt 0.99867 0.2752934
vt 0.9987904 0.2245686
vt 0.9987898 0.1680669
vt 0.7946904 0.1680669
vt 0.7946904 0.2245686
vt 0.9987276 0.1680669
vt 0.9987041 0.2245686
vt 0.7949357 0.2245686
vt 0.7949587 0.1680669
vt 0.7924027 0.1523591
vt 0.7924048 0.08875574
vt 0.9965048 0.08875574
vt 0.9965026 0.1523591
vt 0.9963809 0.1523591
vt 0.9963208 0.08875574
vt 0.7925524 0.08875574
vt 0.7926125 0.1523591
vt 0.793166 0.0871239
vt 0.8237073 0.08708763
vt 0.8235978 0.001142297
vt 0.793166 0.001142278
vt 0.8278487 0.1047202
vt 0.7957239 0.1047202
vt 0.7957239 0.1630216
vt 0.8278487 0.1630216
vt 0.7957239 0.2220232
vt 0.8278487 0.2220232
vt 0.7957239 0.275204
vt 0.8278487 0.275204
vt 0.8255596 0.1524545
vt 0.7934349 0.1524545
vt 0.7934349 0.09355834
vt 0.8255596 0.09368849
vt 0.9988246 0.1033387
vt 0.794724 0.1033387
vt 0.7947304 0.1680669
vt 0.9988352 0.1680669
vt 0.9965037 0.08875574
vt 0.7924036 0.08875574
vt 0.7924013 0.002803332
vt 0.9965011 0.002803332
vt 0.9988281 0.2245686
vt 0.7947322 0.2245686
vt 0.7947072 0.2752934
vt 0.9988078 0.2752934
vt 0.9985684 0.1680669
vt 0.7948023 0.1680669
vt 0.7947876 0.1033387
vt 0.9985559 0.1033387
vt 0.9966671 0.002803332
vt 0.7927437 0.002803332
vt 0.7926366 0.08875574
vt 0.9964054 0.08875574
vt 0.9986307 0.2752934
vt 0.7948625 0.2752934
vt 0.7948251 0.2245686
vt 0.9985958 0.2245686
vt 0.7947322 0.2245686
vt 0.9988281 0.2245686
vt 0.9988352 0.1680669
vt 0.7947304 0.1680669
vt 0.7948023 0.1680669
vt 0.9985684 0.1680669
vt 0.9985958 0.2245686
vt 0.7948251 0.2245686
vt 0.9965187 0.1523591
vt 0.7924181 0.1523591
vt 0.7924036 0.08875574
vt 0.9965037 0.08875574
vt 0.7925735 0.1523591
vt 0.9963416 0.1523591
vt 0.9964054 0.08875574
vt 0.7926366 0.08875574
vt 0.823696 0.087124
vt 0.8237675 0.001202255
vt 0.7933465 0.001142442
vt 0.7931038 0.08710556
vt 0.8278487 0.1047202
vt 0.8278487 0.1630216
vt 0.7957239 0.1630216
vt 0.7957239 0.1047202
vt 0.7957239 0.2220232
vt 0.8278487 0.2220232
vt 0.7957239 0.275204
vt 0.8278487 0.275204
vt 0.8255596 0.1524545
vt 0.8255596 0.09355995
vt 0.7934349 0.09349486
vt 0.7934349 0.1524545
vt 0.7949817 0.2648726
vt 0.7949803 0.1958227
vt 0.9990797 0.1958227
vt 0.9990821 0.2648726
vt 0.7952485 0.1958227
vt 0.7952572 0.2648726
vt 0.9990257 0.2648726
vt 0.9990175 0.1958227
vt 0.9990803 0.1355486
vt 0.9990797 0.1958227
vt 0.7949803 0.1958227
vt 0.7949803 0.1355486
vt 0.9990175 0.1958227
vt 0.998994 0.1355486
vt 0.7952256 0.1355486
vt 0.7952485 0.1958227
vt 0.8281386 0.2633989
vt 0.7960138 0.2633989
vt 0.7960138 0.201205
vt 0.8281386 0.201205
vt 0.7960138 0.1382641
vt 0.8281386 0.1382641
vt 0.9992499 0.1039633
vt 0.7951493 0.1039633
vt 0.7951556 0.1678345
vt 0.9992605 0.1678345
vt 0.9989938 0.1678345
vt 0.7952276 0.1678345
vt 0.7952129 0.1039633
vt 0.9989812 0.1039633
vt 0.7951574 0.223588
vt 0.9992534 0.223588
vt 0.9992605 0.1678345
vt 0.7951556 0.1678345
vt 0.7952276 0.1678345
vt 0.9989938 0.1678345
vt 0.9990212 0.223588
vt 0.7952504 0.223588
vt 0.828274 0.1053265
vt 0.828274 0.1628559
vt 0.7961493 0.1628559
vt 0.7961493 0.1053265
vt 0.7961493 0.2210762
vt 0.828274 0.2210762
vt 0.9941519 0.08453601
vt 0.9941524 0.06040423
vt 0.8240141 0.0604065
vt 0.8240141 0.08462148
vt 0.8233849 0.08505993
vt 0.8233849 0.06084492
vt 0.9932465 0.06070768
vt 0.9932469 0.08486073
vn -7.571621E-05 -0.9602762 0.2790514
vn -7.571621E-05 -0.9602762 0.2790514
vn -7.57162E-05 -0.9602762 0.2790513
vn -7.571621E-05 -0.9602762 0.2790514
vn -1.228134E-07 6.872813E-07 1
vn -1.228134E-07 6.872813E-07 1
vn -1.228134E-07 6.872813E-07 1
vn -1.228134E-07 6.872813E-07 1
vn 0 -0.671862 0.7406763
vn 0 -0.671862 0.7406763
vn 0 -0.671862 0.7406763
vn 0 -0.6718621 0.7406763
vn 0.0007079224 -0.9600409 0.2798588
vn 0.0007079224 -0.9600409 0.2798588
vn 0.0007079224 -0.9600409 0.2798588
vn 0.0007079226 -0.9600409 0.2798588
vn 0.0007726143 0.0004270393 0.9999996
vn 0.0007726143 0.0004270393 0.9999996
vn 0.0007726143 0.0004270393 0.9999996
vn 0.0007726143 0.0004270393 0.9999996
vn 0.0008144042 -0.6717624 0.7407662
vn 0.0008144042 -0.6717624 0.7407662
vn 0.0008144042 -0.6717624 0.7407663
vn 0.0008144042 -0.6717624 0.7407662
vn 0 -0.9022028 0.431312
vn 0 -0.9022028 0.431312
vn 0 -0.9022028 0.431312
vn 0 -0.9022028 0.431312
vn 0.0009087041 -0.9021809 0.4313569
vn 0.0009087041 -0.9021809 0.4313569
vn 0.0009087041 -0.9021809 0.4313569
vn 0.0009087041 -0.9021809 0.4313569
vn 0 -0.2997511 0.9540175
vn 0 -0.2997511 0.9540175
vn 0 -0.2997511 0.9540175
vn 0 -0.2997511 0.9540175
vn 0.000708551 -0.2996311 0.9540548
vn 0.0007085511 -0.2996311 0.9540548
vn 0.000708551 -0.2996311 0.9540548
vn 0.0007085511 -0.2996311 0.9540548
vn 1 -2.296935E-06 -5.299949E-06
vn 1 -2.296935E-06 -5.299948E-06
vn 1 -2.296935E-06 -5.299948E-06
vn 1 -2.296935E-06 -5.299948E-06
vn 1 1.668349E-05 -6.382613E-06
vn 1 1.668349E-05 -6.382613E-06
vn 1 1.668349E-05 -6.382612E-06
vn 1 1.668349E-05 -6.382613E-06
vn 1 1.196632E-05 -1.371187E-05
vn 1 1.196632E-05 -1.371187E-05
vn 1 1.196632E-05 -1.371187E-05
vn 1 1.196632E-05 -1.371187E-05
vn 1 3.209184E-06 -1.043626E-05
vn 1 3.209184E-06 -1.043626E-05
vn 1 3.209184E-06 -1.043626E-05
vn 1 3.209184E-06 -1.043626E-05
vn 0.0004904737 0.9588712 -0.2838413
vn 0.0004904737 0.9588712 -0.2838413
vn 0.0004904737 0.9588712 -0.2838413
vn 0.0004904738 0.9588712 -0.2838413
vn 0.0002441736 0.000456557 -0.9999999
vn 0.0002441736 0.000456557 -0.9999999
vn 0.0002441736 0.000456557 -0.9999999
vn 0.0002441736 0.000456557 -0.9999999
vn -0.0003774981 0.6461924 -0.7631745
vn -0.0003774981 0.6461924 -0.7631745
vn -0.0003774981 0.6461923 -0.7631745
vn -0.0003774981 0.6461924 -0.7631745
vn -0.000934577 0.9587187 -0.2843546
vn -0.000934577 0.9587187 -0.2843546
vn -0.000934577 0.9587187 -0.2843546
vn -0.000934577 0.9587187 -0.2843546
vn -0.001334523 -0.001020801 -0.9999986
vn -0.001334523 -0.001020801 -0.9999986
vn -0.001334523 -0.001020801 -0.9999986
vn -0.001334523 -0.001020801 -0.9999986
vn -0.000612898 0.6458346 -0.7634771
vn -0.0006128979 0.6458346 -0.7634771
vn -0.000612898 0.6458346 -0.7634771
vn -0.000612898 0.6458347 -0.7634771
vn -0.0001197468 0.9100562 -0.414485
vn -0.0001197468 0.9100562 -0.4144849
vn -0.0001197468 0.9100562 -0.4144849
vn -0.0001197468 0.9100562 -0.4144849
vn -0.0008523767 0.9096739 -0.4153224
vn -0.0008523767 0.9096739 -0.4153223
vn -0.0008523767 0.9096739 -0.4153224
vn -0.0008523766 0.9096739 -0.4153223
vn 0.001063427 0.2877727 -0.9576981
vn 0.001063428 0.2877728 -0.9576981
vn 0.001063428 0.2877728 -0.9576981
vn 0.001063428 0.2877728 -0.9576981
vn -0.001234319 0.287105 -0.9578984
vn -0.001234319 0.287105 -0.9578984
vn -0.001234319 0.287105 -0.9578984
vn -0.001234319 0.287105 -0.9578984
vn -0.99997 0.003239988 -0.007038209
vn -0.99997 0.003239987 -0.007038209
vn -0.99997 0.003239987 -0.007038209
vn -0.99997 0.003239987 -0.007038209
vn -1 -1.946684E-05 5.367094E-06
vn -1 -1.946684E-05 5.367094E-06
vn -1 -1.946684E-05 5.367094E-06
vn -1 -1.946684E-05 5.367094E-06
vn -1 -8.598448E-06 1.410749E-05
vn -1 -8.598449E-06 1.410749E-05
vn -1 -8.598448E-06 1.410749E-05
vn -1 -8.598448E-06 1.410749E-05
vn -1 -3.317534E-06 8.539459E-06
vn -1 -3.317534E-06 8.539459E-06
vn -1 -3.317534E-06 8.539459E-06
vn -1 -3.317534E-06 8.539459E-06
vn -3.286693E-06 -0.9999996 0.0008225624
vn -3.286693E-06 -0.9999996 0.0008225624
vn -3.286692E-06 -0.9999996 0.0008225624
vn -3.286692E-06 -0.9999996 0.0008225623
vn 1.536821E-05 -0.9999996 0.0008224317
vn 1.536821E-05 -0.9999996 0.0008224317
vn 1.536821E-05 -0.9999996 0.0008224317
vn 1.536821E-05 -0.9999996 0.0008224318
vn -0.0001284649 -0.9978229 0.06594965
vn -0.0001284649 -0.9978229 0.06594965
vn -0.0001284649 -0.9978229 0.06594965
vn -0.0001284649 -0.9978229 0.06594965
vn 0.0003394634 -0.9977842 0.06653233
vn 0.0003394634 -0.9977842 0.06653234
vn 0.0003394634 -0.9977842 0.06653233
vn 0.0003394634 -0.9977842 0.06653233
vn 1 1.369503E-05 1.415397E-06
vn 1 1.369503E-05 1.415397E-06
vn 1 1.369503E-05 1.415397E-06
vn 1 1.369503E-05 1.415397E-06
vn 1 1.721883E-05 2.758109E-07
vn 1 1.721883E-05 2.758109E-07
vn 2.604717E-05 0.9999851 -0.005471427
vn 2.604717E-05 0.9999851 -0.005471426
vn 2.604717E-05 0.9999851 -0.005471426
vn 2.604717E-05 0.9999851 -0.005471426
vn -3.921776E-05 0.9999851 -0.005466071
vn -3.921776E-05 0.9999851 -0.005466071
vn -3.921776E-05 0.9999851 -0.005466071
vn -3.921776E-05 0.9999851 -0.005466071
vn 0.0001199056 0.9975402 -0.07009697
vn 0.0001199056 0.9975402 -0.07009697
vn 0.0001199056 0.9975402 -0.07009697
vn 0.0001199056 0.9975402 -0.07009697
vn -0.00030971 0.9975037 -0.07061405
vn -0.0003097101 0.9975037 -0.07061405
vn -0.00030971 0.9975037 -0.07061405
vn -0.0003097101 0.9975037 -0.07061405
vn -1 -1.718552E-05 -2.869951E-06
vn -1 -1.718552E-05 -2.869951E-06
vn -1 -1.718552E-05 -2.869951E-06
vn -1 -1.718552E-05 -2.869951E-06
vn -1 -1.959113E-05 1.727409E-06
vn -1 -1.959113E-05 1.727409E-06
vn -0.002347192 0.00324255 0.999992
vn -0.002347192 0.00324255 0.999992
vn -0.002347192 0.00324255 0.999992
vn -0.002347192 0.00324255 0.999992
vn 0.001645294 0.004864786 0.9999869
vn 0.001645294 0.004864786 0.9999869
vn 0.001645294 0.004864786 0.9999869
vn 0.001645294 0.004864785 0.9999869
g Libel_wall_Arch_02_0
f 3/3/3 2/2/2 1/1/1
f 4/4/4 3/3/3 1/1/1
f 7/7/7 6/6/6 5/5/5
f 8/8/8 7/7/7 5/5/5
f 11/11/11 10/10/10 9/9/9
f 12/12/12 11/11/11 9/9/9
f 15/15/15 14/14/14 13/13/13
f 16/16/16 15/15/15 13/13/13
f 19/19/19 18/18/18 17/17/17
f 20/20/20 19/19/19 17/17/17
f 23/23/23 22/22/22 21/21/21
f 24/24/24 23/23/23 21/21/21
f 27/27/27 26/26/26 25/25/25
f 28/28/28 27/27/27 25/25/25
f 31/31/31 30/30/30 29/29/29
f 32/32/32 31/31/31 29/29/29
f 35/35/35 34/34/34 33/33/33
f 36/36/36 35/35/35 33/33/33
f 39/39/39 38/38/38 37/37/37
f 40/40/40 39/39/39 37/37/37
f 43/43/43 42/42/42 41/41/41
f 44/44/44 43/43/43 41/41/41
f 47/47/47 46/46/46 45/45/45
f 48/48/48 47/47/47 45/45/45
f 49/49/49 47/47/47 48/48/48
f 50/50/50 49/49/49 48/48/48
f 51/51/51 49/49/49 50/50/50
f 52/52/52 51/51/51 50/50/50
f 55/55/55 54/54/54 53/53/53
f 56/56/56 55/55/55 53/53/53
f 59/59/59 58/58/58 57/57/57
f 60/60/60 59/59/59 57/57/57
f 63/63/63 62/62/62 61/61/61
f 64/64/64 63/63/63 61/61/61
f 67/67/67 66/66/66 65/65/65
f 68/68/68 67/67/67 65/65/65
f 71/71/71 70/70/70 69/69/69
f 72/72/72 71/71/71 69/69/69
f 75/75/75 74/74/74 73/73/73
f 76/76/76 75/75/75 73/73/73
f 79/79/79 78/78/78 77/77/77
f 80/80/80 79/79/79 77/77/77
f 83/83/83 82/82/82 81/81/81
f 84/84/84 83/83/83 81/81/81
f 87/87/87 86/86/86 85/85/85
f 88/88/88 87/87/87 85/85/85
f 91/91/91 90/90/90 89/89/89
f 92/92/92 91/91/91 89/89/89
f 95/95/95 94/94/94 93/93/93
f 96/96/96 95/95/95 93/93/93
f 99/99/99 98/98/98 97/97/97
f 100/100/100 99/99/99 97/97/97
f 103/103/103 102/102/102 101/101/101
f 104/104/104 103/103/103 101/101/101
f 103/103/103 105/105/105 102/102/102
f 105/105/105 106/106/106 102/102/102
f 105/105/105 107/107/107 106/106/106
f 107/107/107 108/108/108 106/106/106
f 111/111/111 110/110/110 109/109/109
f 112/112/112 111/111/111 109/109/109
f 115/115/115 114/114/114 113/113/113
f 116/116/116 115/115/115 113/113/113
f 119/119/119 118/118/118 117/117/117
f 120/120/120 119/119/119 117/117/117
f 123/123/123 122/122/122 121/121/121
f 124/124/124 123/123/123 121/121/121
f 127/127/127 126/126/126 125/125/125
f 128/128/128 127/127/127 125/125/125
f 131/131/131 130/130/130 129/129/129
f 132/132/132 131/131/131 129/129/129
f 133/133/133 131/131/131 132/132/132
f 134/134/134 133/133/133 132/132/132
f 137/137/137 136/136/136 135/135/135
f 138/138/138 137/137/137 135/135/135
f 141/141/141 140/140/140 139/139/139
f 142/142/142 141/141/141 139/139/139
f 145/145/145 144/144/144 143/143/143
f 146/146/146 145/145/145 143/143/143
f 149/149/149 148/148/148 147/147/147
f 150/150/150 149/149/149 147/147/147
f 153/153/153 152/152/152 151/151/151
f 154/154/154 153/153/153 151/151/151
f 153/153/153 155/155/155 152/152/152
f 155/155/155 156/156/156 152/152/152
f 159/159/159 158/158/158 157/157/157
f 160/160/160 159/159/159 157/157/157
f 163/163/163 162/162/162 161/161/161
f 164/164/164 163/163/163 161/161/161
