g Libel_Stair_Side_01
v 2.499944 -0.05492616 0.3007815
v 2.46399 0.01124421 -0.2399594
v 2.500041 -0.05439909 -0.3007759
v 2.46399 0.0112445 0.249682
v 0.0876599 1.153975 -0.2325057
v 2.46399 0.0112445 0.249682
v 0.0876599 1.153975 0.2431488
v 2.46399 0.01124421 -0.2399594
v -2.406843 2.37419 0.2496767
v 0.06918289 1.202312 -0.2399651
v 0.06918289 1.202312 0.2496762
v -2.406843 2.374189 -0.2399646
v 0.06918289 1.202312 0.2496762
v -2.469871 2.362825 0.3007818
v -2.406843 2.37419 0.2496767
v -2.469871 2.362825 0.3007818
v 0.06918289 1.202312 0.2496762
v 0.05704727 1.145891 0.3007816
v -2.469884 2.362751 -0.300781
v 0.06918289 1.202312 -0.2399651
v -2.406843 2.374189 -0.2399646
v 0.06918289 1.202312 -0.2399651
v -2.469884 2.362751 -0.300781
v 0.05704834 1.146119 -0.3007813
v -2.406843 2.374189 -0.2399646
v -2.469871 2.362825 0.3007818
v -2.469884 2.362751 -0.300781
v -2.406843 2.37419 0.2496767
v 2.499944 -0.05492616 0.3007815
v 2.478124 -0.2509073 -0.3007762
v 2.478116 -0.2509058 0.3007813
v 2.500041 -0.05439909 -0.3007759
v 0.05704727 1.145891 0.3007816
v -2.500041 2.119438 0.3007819
v -2.469871 2.362825 0.3007818
v 0.02770874 0.8948395 0.3007815
v 2.500041 -0.05439909 -0.3007759
v 0.05270477 0.8789241 -0.2717909
v 2.478124 -0.2509073 -0.3007762
v 0.07865661 1.098788 -0.2717909
v -2.469884 2.362751 -0.300781
v 0.0277124 0.8948394 -0.3007812
v 0.05704834 1.146119 -0.3007813
v -2.500041 2.119438 -0.3007808
v -2.469884 2.362751 -0.300781
v -2.500041 2.119438 0.3007819
v -2.500041 2.119438 -0.3007808
v -2.469871 2.362825 0.3007818
v 2.46399 0.01124421 -0.2399594
v 0.07865661 1.098788 -0.2717909
v 2.500041 -0.05439909 -0.3007759
v 0.07865661 1.098788 -0.2717909
v 2.46399 0.01124421 -0.2399594
v 0.0876599 1.153975 -0.2325057
v 2.499944 -0.05492616 0.3007815
v 0.0527011 0.8789245 0.2730704
v 0.07861328 1.098559 0.2730704
v 2.478116 -0.2509058 0.3007813
v 2.46399 0.0112445 0.249682
v 0.07861328 1.098559 0.2730704
v 0.0876599 1.153975 0.2431488
v 0.07861328 1.098559 0.2730704
v 2.46399 0.0112445 0.249682
v 2.499944 -0.05492616 0.3007815
v 2.376228 -2.056202 0.2142003
v 2.396817 -0.2693481 -0.230826
v 2.376236 -2.056202 -0.2141958
v 2.396809 -0.269348 0.2308301
v 0.05050689 0.8469701 -0.2368208
v -2.418811 -2.059467 -0.2170392
v 0.05052429 -2.056177 -0.2368205
v -2.434317 2.057109 -0.2313476
v 2.396817 -0.2693481 -0.230826
v 2.376236 -2.056202 -0.2141958
v -2.418811 -2.059467 -0.2170392
v -2.434317 2.057109 0.2313489
v -2.418811 -2.059467 0.2170404
v -2.434317 2.057109 -0.2313476
v -2.434317 2.057109 0.2313489
v 0.05052429 -2.056177 0.2368213
v -2.418811 -2.059467 0.2170404
v 0.05050292 0.8469702 0.2368213
v 2.376228 -2.056202 0.2142003
v 2.396809 -0.269348 0.2308301
v 2.478116 -0.2509058 0.3007813
v 2.396817 -0.2693481 -0.230826
v 2.396809 -0.269348 0.2308301
v 2.478124 -0.2509073 -0.3007762
v -2.500041 2.119438 0.3007819
v 0.05050292 0.8469702 0.2368213
v -2.434317 2.057109 0.2313489
v 0.05050292 0.8469702 0.2368213
v -2.500041 2.119438 0.3007819
v 0.02770874 0.8948395 0.3007815
v 2.478124 -0.2509073 -0.3007762
v 0.05050689 0.8469701 -0.2368208
v 2.396817 -0.2693481 -0.230826
v 0.05050689 0.8469701 -0.2368208
v 2.478124 -0.2509073 -0.3007762
v 0.05270477 0.8789241 -0.2717909
v 0.0277124 0.8948394 -0.3007812
v -2.434317 2.057109 -0.2313476
v 0.05050689 0.8469701 -0.2368208
v -2.434317 2.057109 -0.2313476
v 0.0277124 0.8948394 -0.3007812
v -2.500041 2.119438 -0.3007808
v -2.500041 2.119438 -0.3007808
v -2.434317 2.057109 0.2313489
v -2.434317 2.057109 -0.2313476
v -2.500041 2.119438 0.3007819
v 0.0527011 0.8789245 0.2730704
v 2.396809 -0.269348 0.2308301
v 0.05050292 0.8469702 0.2368213
v 2.396809 -0.269348 0.2308301
v 0.0527011 0.8789245 0.2730704
v 2.478116 -0.2509058 0.3007813
v 0.0876599 1.153975 -0.2325057
v 0.06918289 1.202312 0.2496762
v 0.06918289 1.202312 -0.2399651
v 0.0876599 1.153975 0.2431488
v 0.05704727 1.145891 0.3007816
v 0.0876599 1.153975 0.2431488
v 0.07861328 1.098559 0.2730704
v 0.0876599 1.153975 0.2431488
v 0.05704727 1.145891 0.3007816
v 0.06918289 1.202312 0.2496762
v 0.06918289 1.202312 -0.2399651
v 0.07865661 1.098788 -0.2717909
v 0.0876599 1.153975 -0.2325057
v 0.07865661 1.098788 -0.2717909
v 0.06918289 1.202312 -0.2399651
v 0.05704834 1.146119 -0.3007813
v 0.02770874 0.8948395 0.3007815
v 0.07861328 1.098559 0.2730704
v 0.0527011 0.8789245 0.2730704
v 0.05704727 1.145891 0.3007816
v 0.05270477 0.8789241 -0.2717909
v 0.05704834 1.146119 -0.3007813
v 0.0277124 0.8948394 -0.3007812
v 0.07865661 1.098788 -0.2717909
v 0.05050292 0.8469702 0.2368213
v 0.02770874 0.8948395 0.3007815
v 0.0527011 0.8789245 0.2730704
v 0.0277124 0.8948394 -0.3007812
v 0.05050689 0.8469701 -0.2368208
v 0.05270477 0.8789241 -0.2717909
vt 0.1831391 0.2301849
vt 0.1550277 0.2288282
vt 0.1516656 0.2318377
vt 0.1801237 0.2275038
vt 0.1535256 0.1180399
vt 0.1801237 0.2275038
vt 0.1781821 0.1167439
vt 0.1550277 0.2288282
vt 0.08756916 0.2305926
vt 0.1118216 0.1150624
vt 0.0869455 0.1162652
vt 0.1128043 0.229396
vt 0.0869455 0.1162652
vt 0.08477667 0.2332571
vt 0.08756916 0.2305926
vt 0.08477667 0.2332571
vt 0.0869455 0.1162652
vt 0.08346837 0.1160232
vt 0.1161003 0.2317812
vt 0.1118216 0.1150624
vt 0.1128043 0.229396
vt 0.1118216 0.1150624
vt 0.1161003 0.2317812
vt 0.1156273 0.1145342
vt 0.1128043 0.229396
vt 0.08477667 0.2332571
vt 0.1161003 0.2317812
vt 0.08756916 0.2305926
vt 0.1831391 0.2301849
vt 0.1519532 0.2403791
vt 0.1831383 0.2387193
vt 0.1516656 0.2318377
vt 0.08346837 0.1160232
vt 0.07241673 0.2312287
vt 0.08477667 0.2332571
vt 0.07107424 0.114029
vt 0.1516656 0.2318377
vt 0.1390545 0.1219885
vt 0.1418202 0.2345822
vt 0.1500945 0.1188645
vt 0.1161003 0.2317812
vt 0.1279608 0.1113267
vt 0.1156273 0.1145342
vt 0.1284179 0.2285635
vt 0.1161003 0.2317812
vt 0.08491232 0.2438665
vt 0.1160936 0.2423929
vt 0.08477667 0.2332571
vt 0.1550277 0.2288282
vt 0.1500945 0.1188645
vt 0.1516656 0.2318377
vt 0.1500945 0.1188645
vt 0.1550277 0.2288282
vt 0.1535256 0.1180399
vt 0.1831391 0.2301849
vt 0.1924864 0.1191975
vt 0.1813813 0.1172199
vt 0.1930214 0.2319057
vt 0.1801237 0.2275038
vt 0.1813813 0.1172199
vt 0.1781821 0.1167439
vt 0.1813813 0.1172199
vt 0.1801237 0.2275038
vt 0.1831391 0.2301849
vt 0.7890697 0.002531827
vt 0.8236439 0.1549512
vt 0.8232328 0.00253184
vt 0.7894806 0.1549512
vt 0.9932299 0.2319777
vt 0.7882281 0.002348403
vt 0.9932299 0.002348403
vt 0.7864793 0.3283717
vt 0.787215 0.1551127
vt 0.7874513 0.002348263
vt 0.7861452 0.002389592
vt 0.8223822 0.3283717
vt 0.8229691 0.002387763
vt 0.7864793 0.3283717
vt 0.7864793 0.3283717
vt 0.9932299 0.002348403
vt 0.7865589 0.002337956
vt 0.9932299 0.2319777
vt 0.806294 0.002348254
vt 0.8060577 0.1551127
vt 0.1831383 0.2387193
vt 0.1557832 0.2430584
vt 0.179405 0.2418014
vt 0.1519532 0.2403791
vt 0.07241673 0.2312287
vt 0.06758672 0.1122437
vt 0.06923443 0.2276916
vt 0.06758672 0.1122437
vt 0.07241673 0.2312287
vt 0.07107424 0.114029
vt 0.1418202 0.2345822
vt 0.1366536 0.1225282
vt 0.1382981 0.2316895
vt 0.1366536 0.1225282
vt 0.1418202 0.2345822
vt 0.1390545 0.1219885
vt 0.1279608 0.1113267
vt 0.1315432 0.2247161
vt 0.1313845 0.1091785
vt 0.1315432 0.2247161
vt 0.1279608 0.1113267
vt 0.1284179 0.2285635
vt 0.1160936 0.2423929
vt 0.08867234 0.2468326
vt 0.112372 0.2457125
vt 0.08491232 0.2438665
vt 0.1924864 0.1191975
vt 0.1964545 0.2286548
vt 0.19495 0.1194865
vt 0.1964545 0.2286548
vt 0.1924864 0.1191975
vt 0.1930214 0.2319057
vt 0.1121612 0.1129073
vt 0.0869455 0.1162652
vt 0.1118216 0.1150624
vt 0.08649498 0.1141936
vt 0.08346837 0.1160232
vt 0.08649498 0.1141936
vt 0.08238488 0.1137525
vt 0.08649498 0.1141936
vt 0.08346837 0.1160232
vt 0.0869455 0.1162652
vt 0.1118216 0.1150624
vt 0.1165896 0.1121434
vt 0.1121612 0.1129073
vt 0.1165896 0.1121434
vt 0.1118216 0.1150624
vt 0.1156273 0.1145342
vt 0.07107424 0.114029
vt 0.08238488 0.1137525
vt 0.0704255 0.1125127
vt 0.08346837 0.1160232
vt 0.1285807 0.1097141
vt 0.1156273 0.1145342
vt 0.1279608 0.1113267
vt 0.1165896 0.1121434
vt 0.06758672 0.1122437
vt 0.07107424 0.114029
vt 0.0704255 0.1125127
vt 0.1279608 0.1113267
vt 0.1313845 0.1091785
vt 0.1285807 0.1097141
vn 0.8767299 0.4809826 0.0005633056
vn 0.8767299 0.4809826 0.0005633057
vn 0.8767299 0.4809826 0.0005633057
vn 0.8786694 0.4774309 -2.789675E-07
vn 0.4333757 0.9012134 0
vn 0.4333757 0.9012134 0
vn 0.4333757 0.9012134 0
vn 0.4333757 0.9012133 -5.265878E-07
vn 0.4277953 0.9038756 0
vn 0.4277953 0.9038756 0
vn 0.4277953 0.9038756 0
vn 0.427795 0.9038758 -1.260021E-06
vn 0.3457533 0.7305313 0.588879
vn 0.3457533 0.7305313 0.5888791
vn 0.3457533 0.7305313 0.588879
vn 0.2922015 0.6067455 0.7392415
vn 0.2922015 0.6067455 0.7392415
vn 0.2922015 0.6067455 0.7392415
vn 0.3646509 0.7704606 -0.5228959
vn 0.3646509 0.7704606 -0.5228959
vn 0.3646509 0.7704607 -0.5228959
vn 0.3193989 0.6633885 -0.676683
vn 0.3193989 0.6633886 -0.6766831
vn 0.3193989 0.6633886 -0.6766831
vn -0.1784123 0.9839558 -0.0001169967
vn -0.1784123 0.9839558 -0.0001169967
vn -0.1784123 0.9839558 -0.0001169967
vn -0.17745 0.9841298 -1.171446E-06
vn 0.9938542 -0.1106975 1.389396E-05
vn 0.9938542 -0.1106975 1.389396E-05
vn 0.9938542 -0.1106975 1.389396E-05
vn 0.9938373 -0.1108486 6.37121E-05
vn 3.347766E-07 5.070706E-07 1
vn 3.347766E-07 5.070706E-07 1
vn 3.347766E-07 5.070706E-07 1
vn 1.079921E-07 0 1
vn -0.01135897 0.001268486 -0.9999347
vn -0.01135897 0.001268486 -0.9999347
vn -0.01135897 0.001268486 -0.9999347
vn -0.01133256 0.001337737 -0.9999349
vn -3.851343E-07 -4.863745E-07 -1
vn -3.851343E-07 -4.863745E-07 -1
vn -3.851343E-07 -4.863745E-07 -1
vn -3.931469E-07 -5.000076E-07 -1
vn -0.9924065 0.1230015 0
vn -0.9924065 0.1230015 0
vn -0.9924065 0.1230015 0
vn -0.9924046 0.1230162 6.042545E-06
vn 0.3419605 0.7328115 -0.5882604
vn 0.3419605 0.7328115 -0.5882604
vn 0.3419606 0.7328115 -0.5882604
vn 0.2538313 0.5331113 -0.80707
vn 0.2538313 0.5331113 -0.8070701
vn 0.2538313 0.5331113 -0.80707
vn -0.010835 0.001278212 0.9999405
vn -0.010835 0.001278212 0.9999405
vn -0.010835 0.001278212 0.9999405
vn -0.0108617 0.001208241 0.9999403
vn 0.2082922 0.4381471 0.8744377
vn 0.2082922 0.4381472 0.8744377
vn 0.2082922 0.4381471 0.8744377
vn 0.317145 0.6815755 0.6594496
vn 0.317145 0.6815755 0.6594496
vn 0.317145 0.6815755 0.6594496
vn 0.9999337 -0.01151701 1.923267E-05
vn 0.9999337 -0.01151701 1.923267E-05
vn 0.9999337 -0.01151701 1.923267E-05
vn 0.9999337 -0.01151728 1.818135E-05
vn -0.008010501 -1.596956E-07 -0.9999679
vn -0.008010502 -1.596956E-07 -0.9999679
vn -0.008010502 -1.596956E-07 -0.9999679
vn -0.003902502 -0.003490453 -0.9999863
vn 0.009727066 -0.009418176 -0.9999083
vn 0.009727067 -0.009418175 -0.9999083
vn -0.999993 -0.003766766 0
vn -0.999993 -0.003766766 0
vn -0.999993 -0.003766766 0
vn -0.999993 -0.003766838 6.595546E-07
vn -0.008005658 -0.003505838 0.9999619
vn -0.008005658 -0.003505838 0.9999619
vn -0.008005658 -0.003505838 0.9999619
vn -0.002202338 0 0.9999976
vn 0.009726075 0 0.9999527
vn -0.001864217 -0.009284887 0.9999552
vn 0.2212007 -0.9752284 4.343488E-06
vn 0.2212007 -0.9752284 4.343488E-06
vn 0.2212007 -0.9752284 4.343489E-06
vn 0.2211935 -0.9752299 5.503482E-06
vn -0.4083444 -0.8368188 0.3646769
vn -0.4083444 -0.8368188 0.3646769
vn -0.4083444 -0.8368188 0.3646769
vn -0.3871098 -0.799051 0.4600689
vn -0.3871099 -0.799051 0.4600689
vn -0.3871098 -0.799051 0.4600689
vn -0.3448043 -0.7279026 -0.5926785
vn -0.3448043 -0.7279026 -0.5926785
vn -0.3448043 -0.7279026 -0.5926785
vn -0.3278122 -0.6870822 -0.6484268
vn -0.3278123 -0.6870822 -0.6484268
vn -0.3278123 -0.6870822 -0.6484268
vn -0.3898915 -0.7985049 -0.4586659
vn -0.3898915 -0.7985049 -0.4586659
vn -0.3898915 -0.7985049 -0.4586659
vn -0.4054782 -0.8369669 -0.3675239
vn -0.4054782 -0.8369669 -0.3675239
vn -0.4054782 -0.8369669 -0.3675239
vn -0.6881237 -0.7255933 4.538584E-07
vn -0.6881237 -0.7255933 4.538584E-07
vn -0.6881237 -0.7255933 4.538584E-07
vn -0.6881218 -0.7255952 0
vn -0.3304578 -0.6979743 0.6353185
vn -0.3304577 -0.6979742 0.6353185
vn -0.3304577 -0.6979743 0.6353185
vn -0.3454841 -0.7271022 0.5932649
vn -0.345484 -0.7271022 0.5932649
vn -0.345484 -0.7271023 0.5932648
vn 0.9340836 0.3570542 0
vn 0.9340836 0.3570542 0
vn 0.9340836 0.3570542 0
vn 0.9340836 0.3570542 0
vn 0.8702968 0.1163379 0.4785905
vn 0.8702968 0.1163379 0.4785906
vn 0.8702968 0.1163379 0.4785907
vn 0.8385182 0.2555389 0.4812351
vn 0.8385182 0.2555389 0.481235
vn 0.8385182 0.2555389 0.4812351
vn 0.8226244 0.2345164 -0.5179683
vn 0.8226244 0.2345164 -0.5179684
vn 0.8226244 0.2345164 -0.5179683
vn 0.9117222 0.1946494 -0.3617654
vn 0.9117222 0.1946494 -0.3617654
vn 0.9117222 0.1946494 -0.3617654
vn 0.7153578 -0.08439707 0.6936427
vn 0.7153578 -0.08439706 0.6936427
vn 0.7153578 -0.08439706 0.6936427
vn 0.7124982 -0.08326442 0.6967161
vn 0.7309892 -0.08534047 -0.6770316
vn 0.7309892 -0.08534047 -0.6770316
vn 0.7309892 -0.08534048 -0.6770316
vn 0.7266425 -0.08576991 -0.6816407
vn 0.2349615 -0.7361704 0.6347017
vn 0.2349615 -0.7361704 0.6347017
vn 0.2349615 -0.7361705 0.6347016
vn 0.2827192 -0.7168891 -0.637291
vn 0.2827191 -0.7168891 -0.637291
vn 0.2827192 -0.7168892 -0.637291
g Libel_Stair_Side_01_0
f 3/3/3 2/2/2 1/1/1
f 4/4/4 1/1/1 2/2/2
f 7/7/7 6/6/6 5/5/5
f 8/8/8 5/5/5 6/6/6
f 11/11/11 10/10/10 9/9/9
f 12/12/12 9/9/9 10/10/10
f 15/15/15 14/14/14 13/13/13
f 18/18/18 17/17/17 16/16/16
f 21/21/21 20/20/20 19/19/19
f 24/24/24 23/23/23 22/22/22
f 27/27/27 26/26/26 25/25/25
f 28/28/28 25/25/25 26/26/26
f 31/31/31 30/30/30 29/29/29
f 32/32/32 29/29/29 30/30/30
f 35/35/35 34/34/34 33/33/33
f 36/36/36 33/33/33 34/34/34
f 39/39/39 38/38/38 37/37/37
f 40/40/40 37/37/37 38/38/38
f 43/43/43 42/42/42 41/41/41
f 44/44/44 41/41/41 42/42/42
f 47/47/47 46/46/46 45/45/45
f 48/48/48 45/45/45 46/46/46
f 51/51/51 50/50/50 49/49/49
f 54/54/54 53/53/53 52/52/52
f 57/57/57 56/56/56 55/55/55
f 58/58/58 55/55/55 56/56/56
f 61/61/61 60/60/60 59/59/59
f 64/64/64 63/63/63 62/62/62
f 67/67/67 66/66/66 65/65/65
f 68/68/68 65/65/65 66/66/66
f 71/71/71 70/70/70 69/69/69
f 72/72/72 69/69/69 70/70/70
f 69/69/69 73/73/73 71/71/71
f 74/74/74 71/71/71 73/73/73
f 77/77/77 76/76/76 75/75/75
f 78/78/78 75/75/75 76/76/76
f 81/81/81 80/80/80 79/79/79
f 82/82/82 79/79/79 80/80/80
f 80/80/80 83/83/83 82/82/82
f 84/84/84 82/82/82 83/83/83
f 87/87/87 86/86/86 85/85/85
f 88/88/88 85/85/85 86/86/86
f 91/91/91 90/90/90 89/89/89
f 94/94/94 93/93/93 92/92/92
f 97/97/97 96/96/96 95/95/95
f 100/100/100 99/99/99 98/98/98
f 103/103/103 102/102/102 101/101/101
f 106/106/106 105/105/105 104/104/104
f 109/109/109 108/108/108 107/107/107
f 110/110/110 107/107/107 108/108/108
f 113/113/113 112/112/112 111/111/111
f 116/116/116 115/115/115 114/114/114
f 119/119/119 118/118/118 117/117/117
f 120/120/120 117/117/117 118/118/118
f 123/123/123 122/122/122 121/121/121
f 126/126/126 125/125/125 124/124/124
f 129/129/129 128/128/128 127/127/127
f 132/132/132 131/131/131 130/130/130
f 135/135/135 134/134/134 133/133/133
f 136/136/136 133/133/133 134/134/134
f 139/139/139 138/138/138 137/137/137
f 140/140/140 137/137/137 138/138/138
f 143/143/143 142/142/142 141/141/141
f 146/146/146 145/145/145 144/144/144
