g Libel_Pillar_Stair
v -0.3908274 -1.778623 -0.2967224
v -0.3795056 1.859155 0.3208261
v -0.3908748 -1.778556 0.3150491
v -0.3794381 1.856665 -0.3042932
v -0.3795056 1.859155 0.3208261
v 0.3594798 -1.778556 0.3150491
v -0.3908748 -1.778556 0.3150491
v 0.3727061 1.856509 0.3208261
v 0.3727829 1.856512 -0.3042923
v 0.3594404 -1.778623 -0.2967224
v 0.1398986 1.856514 -0.3199118
v 0.3727829 1.856512 -0.3042923
v 0.126553 -1.778625 -0.3123419
v 0.1124308 -1.8233 -0.3544113
v -0.1346758 1.907697 -0.3587189
v -0.1587268 -1.8233 -0.3544104
v 0.1126785 1.899558 -0.3584341
v 0.126553 -1.778625 -0.3123419
v 0.1398986 1.856514 -0.3199118
v -0.1611048 1.856602 -0.3198553
v -0.1724945 -1.778625 -0.3122849
v -0.3795056 1.859155 0.3208261
v 0.4303372 1.904999 0.3673877
v 0.3727061 1.856509 0.3208261
v -0.430638 1.908029 0.3673877
v 0.3727061 1.856509 0.3208261
v 0.430638 1.905004 -0.367388
v 0.3727829 1.856512 -0.3042923
v 0.4303372 1.904999 0.3673877
v -0.4303379 1.905104 -0.367388
v -0.430638 2.366862 0.3673877
v -0.430638 1.908029 0.3673877
v -0.4303379 2.363936 -0.367388
v -0.430638 1.908029 0.3673877
v 0.4303372 2.363831 0.3673877
v 0.4303372 1.904999 0.3673877
v -0.430638 2.366862 0.3673877
v 0.430638 1.905004 -0.367388
v 0.430638 2.363835 -0.3673874
v 0.1126785 1.899558 -0.3584341
v -0.1346758 1.907697 -0.3587189
v -0.4303379 2.363936 -0.367388
v -0.4303379 1.905104 -0.367388
v 0.4303372 1.904999 0.3673877
v 0.430638 2.363835 -0.3673874
v 0.430638 1.905004 -0.367388
v 0.4303372 2.363831 0.3673877
v -0.430638 2.366862 0.3673877
v 0.430638 2.363835 -0.3673874
v 0.4303372 2.363831 0.3673877
v -0.4303379 2.363936 -0.367388
v -0.3794381 1.856665 -0.3042932
v -0.1724945 -1.778625 -0.3122849
v -0.1611048 1.856602 -0.3198553
v -0.3908274 -1.778623 -0.2967224
v -0.3794381 1.856665 -0.3042932
v -0.430638 1.908029 0.3673877
v -0.3795056 1.859155 0.3208261
v -0.4303379 1.905104 -0.367388
v 0.430638 1.905004 -0.367388
v 0.1398986 1.856514 -0.3199118
v 0.3727829 1.856512 -0.3042923
v 0.1398986 1.856514 -0.3199118
v 0.430638 1.905004 -0.367388
v 0.1126785 1.899558 -0.3584341
v -0.1346758 1.907697 -0.3587189
v -0.3794381 1.856665 -0.3042932
v -0.1611048 1.856602 -0.3198553
v -0.3794381 1.856665 -0.3042932
v -0.1346758 1.907697 -0.3587189
v -0.4303379 1.905104 -0.367388
v -0.3908748 -1.778556 0.3150491
v -0.4267694 -1.829023 -0.3401089
v -0.3908274 -1.778623 -0.2967224
v -0.4268214 -1.826217 0.3611978
v 0.3594798 -1.778556 0.3150491
v -0.4268214 -1.826217 0.3611978
v -0.3908748 -1.778556 0.3150491
v 0.3961299 -1.826217 0.3611978
v 0.3594404 -1.778623 -0.2967224
v 0.3961299 -1.826217 0.3611978
v 0.3594798 -1.778556 0.3150491
v 0.3960868 -1.826291 -0.3401089
v -0.3908274 -1.778623 -0.2967224
v -0.1587268 -1.8233 -0.3544104
v -0.1724945 -1.778625 -0.3122849
v -0.4267694 -1.829023 -0.3401089
v 0.126553 -1.778625 -0.3123419
v 0.3960868 -1.826291 -0.3401089
v 0.3594404 -1.778623 -0.2967224
v 0.1124308 -1.8233 -0.3544113
v -0.4268214 -1.826217 0.3611978
v -0.4267694 -2.366862 -0.3401089
v -0.4267694 -1.829023 -0.3401089
v -0.4268214 -2.366788 0.3611978
v 0.3961299 -1.826217 0.3611978
v -0.4268214 -2.366788 0.3611978
v -0.4268214 -1.826217 0.3611978
v 0.3961299 -2.366788 0.3611978
v 0.3960868 -1.826291 -0.3401089
v 0.3961299 -2.366788 0.3611978
v 0.3961299 -1.826217 0.3611978
v 0.3960868 -2.366862 -0.3401089
v 0.1124308 -1.8233 -0.3544113
v 0.3960868 -2.366862 -0.3401089
v 0.3960868 -1.826291 -0.3401089
v -0.4267694 -2.366862 -0.3401089
v -0.1587268 -1.8233 -0.3544104
v -0.4267694 -1.829023 -0.3401089
v -0.4267694 -2.366862 -0.3401089
v 0.1124308 -1.8233 -0.3544113
v -0.1587268 -1.8233 -0.3544104
v 0.3960868 -2.366862 -0.3401089
vt 0.9174644 0.7229099
vt 0.9982773 0.9965798
vt 0.9979708 0.7226462
vt 0.9174644 0.9966612
vt 0.9174644 0.9962778
vt 0.9981615 0.7227283
vt 0.9174644 0.7227758
vt 0.9979355 0.9960317
vt 0.9174644 0.9968664
vt 0.9174644 0.7231266
vt 0.902719 0.9944439
vt 0.9176054 0.9945521
vt 0.9031661 0.7225131
vt 0.08482721 0.1199359
vt 0.1146188 0.2281159
vt 0.1148635 0.1196704
vt 0.08553065 0.228106
vt 0.07969486 0.1213053
vt 0.07969486 0.2269362
vt 0.1209368 0.2258565
vt 0.1207211 0.1202037
vt 0.1779368 0.004555702
vt 0.267446 0.01440096
vt 0.267446 0.004555702
vt 0.1779368 0.01440096
vt 0.267446 0.004555702
vt 0.1779368 0.01440096
vt 0.1779368 0.004555702
vt 0.267446 0.01440096
vt 0.7559345 0.9516854
vt 0.6785276 0.9745632
vt 0.6783221 0.9516854
vt 0.7559345 0.9745632
vt 0.8336222 0.9516854
vt 0.7559345 0.9745632
vt 0.7559345 0.9516854
vt 0.8336222 0.9745632
vt 0.8336222 0.9516854
vt 0.8336222 0.9745632
vt 0.8016324 0.9516854
vt 0.7766593 0.9516854
vt 0.7559345 0.9745632
vt 0.7559345 0.9516854
vt 0.7559345 0.9516854
vt 0.6785276 0.9745632
vt 0.6783221 0.9516854
vt 0.7559345 0.9745632
vt 0.8317924 0.8354059
vt 0.7638174 0.7661082
vt 0.7636504 0.8348294
vt 0.8319585 0.7666835
vt 0.9166251 0.9960102
vt 0.9031122 0.7240936
vt 0.9026649 0.9960307
vt 0.9170724 0.7240687
vt 0.1779368 0.004555702
vt 0.267446 0.01440096
vt 0.267446 0.004555702
vt 0.1779368 0.01440096
vt 0.1780997 0.01438642
vt 0.2166151 0.004540026
vt 0.1780997 0.004540026
vt 0.2166151 0.004540026
vt 0.1780997 0.01438642
vt 0.2166151 0.01438642
vt 0.2166151 0.01438642
vt 0.1780997 0.004540026
vt 0.2166151 0.004540026
vt 0.1780997 0.004540026
vt 0.2166151 0.01438642
vt 0.1780997 0.01438642
vt 0.9559913 0.6444845
vt 0.8803625 0.6368794
vt 0.8803625 0.6444845
vt 0.9559913 0.6368794
vt 0.9559913 0.6444845
vt 0.8803625 0.6368794
vt 0.8803625 0.6444845
vt 0.9559913 0.6368794
vt 0.9559913 0.6444845
vt 0.8803625 0.6368794
vt 0.8803625 0.6444845
vt 0.9559913 0.6368794
vt 0.9559913 0.644525
vt 0.9206664 0.6368794
vt 0.9206664 0.644525
vt 0.9559913 0.6368794
vt 0.9206664 0.644525
vt 0.9559913 0.6368794
vt 0.9559913 0.644525
vt 0.9206664 0.6368794
vt 0.6785276 0.9745632
vt 0.7559345 0.9516854
vt 0.7559345 0.9745632
vt 0.6783221 0.9516854
vt 0.7559345 0.9745632
vt 0.8336222 0.9516854
vt 0.8336222 0.9745632
vt 0.7559345 0.9516854
vt 0.6785276 0.9745632
vt 0.7559345 0.9516854
vt 0.7559345 0.9745632
vt 0.6783221 0.9516854
vt 0.8146051 0.9745632
vt 0.8336222 0.9516854
vt 0.8336222 0.9745632
vt 0.7559345 0.9516854
vt 0.7851182 0.9745632
vt 0.7559345 0.9745632
vt 0.7559345 0.9516854
vt 0.8146051 0.9745632
vt 0.7851182 0.9745632
vt 0.8336222 0.9516854
vn -0.7328403 0.000874507 -0.6804002
vn -0.705979 0.001085519 0.7082319
vn -0.708218 0.001092266 0.7059929
vn -0.7315509 0.0008720867 -0.6817863
vn -0.705979 0.001085519 0.7082319
vn 0.7066795 -0.00371523 0.7075241
vn -0.708218 0.001092266 0.7059929
vn 0.7067252 -0.003695797 0.7074785
vn 0.7307018 -0.004084379 -0.6826845
vn 0.730037 -0.004102696 -0.6833953
vn 0.5637202 -0.003789527 -0.8259571
vn 0.7307018 -0.004084379 -0.6826845
vn 0.7106044 -0.00141179 -0.7035903
vn 0.3777911 -0.001082415 -0.9258902
vn -0.2983311 0.0008793001 -0.954462
vn -0.3796506 2.462459E-05 -0.92513
vn 0.3104204 -0.00236227 -0.9505965
vn 0.7106044 -0.00141179 -0.7035903
vn 0.5637202 -0.003789527 -0.8259571
vn -0.5874086 0.002332752 -0.8092872
vn -0.7136311 0.0007770309 -0.7005213
vn -0.002430677 -0.6911119 0.7227437
vn -0.002430677 -0.6911119 0.7227436
vn -0.002430677 -0.6911119 0.7227436
vn -0.002431992 -0.6911002 0.7227549
vn 0.6424126 -0.7663589 7.521222E-05
vn 0.6424127 -0.766359 7.521223E-05
vn 0.6424126 -0.7663589 7.521222E-05
vn 0.6436912 -0.7652853 0.0002584837
vn -1 0 -0.0004083751
vn -1 0 -0.0004083751
vn -1 0 -0.0004083751
vn -1 0 -0.0004083751
vn 0 0 1
vn 0 0 1
vn 0 0 1
vn 0 0 1
vn -0.02814923 1.329089E-06 -0.9996038
vn -0.02814923 1.329089E-06 -0.9996038
vn -0.02814923 1.329089E-06 -0.9996038
vn 0.02930847 0 -0.9995704
vn 0.02930847 0 -0.9995704
vn 0.02930847 0 -0.9995704
vn 1 0 0.0004094654
vn 1 0 0.0004094654
vn 1 0 0.0004094654
vn 1 0 0.0004094657
vn 0.003520057 0.9999938 6.840628E-06
vn 0.003520057 0.9999938 6.840628E-06
vn 0.003520057 0.9999938 6.840628E-06
vn 0.000116617 0.9999921 -0.003982538
vn -0.7315509 0.0008720867 -0.6817863
vn -0.7136311 0.0007770309 -0.7005213
vn -0.5874086 0.002332752 -0.8092872
vn -0.7328403 0.000874507 -0.6804002
vn -0.6896235 -0.7241626 0.002809237
vn -0.6896235 -0.7241626 0.002809237
vn -0.6896234 -0.7241627 0.002809237
vn -0.6910564 -0.7227961 0.00259551
vn 0.03929631 -0.8093602 -0.5859966
vn 0.03929631 -0.8093603 -0.5859965
vn 0.03929631 -0.8093602 -0.5859965
vn -0.009419943 -0.6701598 -0.742157
vn -0.009419943 -0.6701598 -0.742157
vn -0.009419944 -0.6701598 -0.742157
vn -0.05781738 -0.585265 -0.8087781
vn -0.05781738 -0.585265 -0.808778
vn -0.05781738 -0.585265 -0.8087781
vn 0.02508845 -0.7830809 -0.6214136
vn 0.02508845 -0.7830809 -0.6214136
vn 0.02508845 -0.7830809 -0.6214136
vn -0.8141226 0.5806932 -0.0001273136
vn -0.8141226 0.5806932 -0.0001273136
vn -0.8141226 0.5806931 -0.0001273136
vn -0.7995244 0.6006286 -0.002462748
vn 0 0.6956171 0.7184126
vn 0 0.6956171 0.7184126
vn 0 0.6956171 0.7184126
vn 0 0.6956171 0.7184126
vn 0.7927768 0.609512 -0.0001183127
vn 0.7927768 0.609512 -0.0001183128
vn 0.7927768 0.609512 -0.0001183127
vn 0.7927426 0.6095565 -0.0001131821
vn -0.05235298 0.6765162 -0.7345645
vn -0.05235298 0.6765162 -0.7345645
vn -0.05235298 0.6765162 -0.7345645
vn -0.05372367 0.6731972 -0.7375088
vn 0.04827911 0.6923785 -0.7199175
vn 0.0482791 0.6923785 -0.7199175
vn 0.0482791 0.6923785 -0.7199175
vn 0.04416514 0.6774564 -0.7342359
vn -1 0 -7.424827E-05
vn -1 0 -7.424827E-05
vn -1 0 -7.424827E-05
vn -1 0 -7.419359E-05
vn 0 0 1
vn 0 0 1
vn 0 0 1
vn 0 0 1
vn 1 0 -6.146536E-05
vn 1 0 -6.146536E-05
vn 1 0 -6.146536E-05
vn 1 0 -6.141097E-05
vn 0.05035756 0 -0.9987312
vn 0.05035756 0 -0.9987312
vn 0.05035756 0 -0.9987312
vn -0.05327936 0 -0.9985796
vn -0.05327936 0 -0.9985796
vn -0.05327935 0 -0.9985796
vn -3.3604E-06 -0.02629985 -0.9996542
vn -3.360399E-06 -0.02629986 -0.9996542
vn -3.360399E-06 -0.02629986 -0.9996542
vn 0 -0.02630318 -0.9996541
g Libel_Pillar_Stair_0
f 3/3/3 2/2/2 1/1/1
f 4/4/4 1/1/1 2/2/2
f 7/7/7 6/6/6 5/5/5
f 8/8/8 5/5/5 6/6/6
f 8/8/8 6/6/6 9/9/9
f 10/10/10 9/9/9 6/6/6
f 12/12/12 10/10/10 11/11/11
f 13/13/13 11/11/11 10/10/10
f 16/16/16 15/15/15 14/14/14
f 17/17/17 14/14/14 15/15/15
f 14/14/14 17/17/17 18/18/18
f 19/19/19 18/18/18 17/17/17
f 15/15/15 16/16/16 20/20/20
f 21/21/21 20/20/20 16/16/16
f 24/24/24 23/23/23 22/22/22
f 25/25/25 22/22/22 23/23/23
f 28/28/28 27/27/27 26/26/26
f 29/29/29 26/26/26 27/27/27
f 32/32/32 31/31/31 30/30/30
f 33/33/33 30/30/30 31/31/31
f 36/36/36 35/35/35 34/34/34
f 37/37/37 34/34/34 35/35/35
f 40/40/40 39/39/39 38/38/38
f 40/40/40 41/41/41 39/39/39
f 42/42/42 39/39/39 41/41/41
f 43/43/43 42/42/42 41/41/41
f 46/46/46 45/45/45 44/44/44
f 47/47/47 44/44/44 45/45/45
f 50/50/50 49/49/49 48/48/48
f 51/51/51 48/48/48 49/49/49
f 54/54/54 53/53/53 52/52/52
f 55/55/55 52/52/52 53/53/53
f 58/58/58 57/57/57 56/56/56
f 59/59/59 56/56/56 57/57/57
f 62/62/62 61/61/61 60/60/60
f 65/65/65 64/64/64 63/63/63
f 68/68/68 67/67/67 66/66/66
f 71/71/71 70/70/70 69/69/69
f 74/74/74 73/73/73 72/72/72
f 75/75/75 72/72/72 73/73/73
f 78/78/78 77/77/77 76/76/76
f 79/79/79 76/76/76 77/77/77
f 82/82/82 81/81/81 80/80/80
f 83/83/83 80/80/80 81/81/81
f 86/86/86 85/85/85 84/84/84
f 87/87/87 84/84/84 85/85/85
f 90/90/90 89/89/89 88/88/88
f 91/91/91 88/88/88 89/89/89
f 94/94/94 93/93/93 92/92/92
f 95/95/95 92/92/92 93/93/93
f 98/98/98 97/97/97 96/96/96
f 99/99/99 96/96/96 97/97/97
f 102/102/102 101/101/101 100/100/100
f 103/103/103 100/100/100 101/101/101
f 106/106/106 105/105/105 104/104/104
f 109/109/109 108/108/108 107/107/107
f 112/112/112 111/111/111 110/110/110
f 113/113/113 110/110/110 111/111/111
