g Libel_Fence_Steel_02
v 0.07201893 0.05140479 0.02618037
v 0.06514958 0.09029593 0.02371033
v 0.06263031 0.09029593 -0.02929339
v 0.06923442 0.05140479 -0.03240409
v 0.02336967 0.09029595 -0.06499129
v 0.02584007 0.04194648 -0.07186063
v -0.02963394 0.09029595 -0.06247207
v -0.03274437 0.05140481 -0.06907617
v -0.06533173 0.09029593 -0.02321144
v -0.07220085 0.05140479 -0.02568178
v 0.0394426 0.1003375 0.01446583
v 0.03791592 0.1003375 -0.01765254
v 0.01412537 0.1047455 -0.03928418
v -0.01799293 0.1003375 -0.03775763
v -0.03962448 0.1003375 -0.01396708
v 0.09611668 0.03729359 0.0348461
v 0.09240112 0.03729378 -0.04332837
v 0.03636719 0.03729378 -0.09530588
v -0.04367821 0.03729378 -0.0922632
v -0.0963285 0.03729359 -0.03435815
v 0.0978915 -8.201599E-07 0.0354843
v 0.09410781 -7.534027E-07 -0.04411984
v 0.03514393 -7.152557E-07 -0.09773305
v -0.0444603 -7.438659E-07 -0.09394959
v -0.0980735 -8.010864E-07 -0.03498558
v -0.07220085 0.05140479 -0.02568178
v -0.06533173 0.09029593 -0.02321144
v -0.06281257 0.09029593 0.0297923
v -0.06941643 0.05140485 0.03290269
v -0.02355186 0.09029591 0.06549025
v -0.02602211 0.05140465 0.0723593
v 0.0294519 0.09029591 0.062971
v 0.03256248 0.05140483 0.06957477
v 0.06514958 0.09029593 0.02371033
v 0.07201893 0.05140479 0.02618037
v -0.03962448 0.1003375 -0.01396708
v -0.03809815 0.1003375 0.01815128
v -0.01430733 0.1003375 0.03978296
v 0.01781097 0.1003375 0.0382564
v 0.0394426 0.1003375 0.01446583
v -0.0963285 0.03729359 -0.03435815
v -0.09261314 0.03729359 0.04381629
v -0.0347081 0.03729352 0.09646668
v 0.0434663 0.03729352 0.09275106
v 0.09611668 0.03729359 0.0348461
v -0.0980735 -8.010864E-07 -0.03498558
v -0.09428993 -8.201599E-07 0.04461857
v -0.03532608 -8.487701E-07 0.0982319
v 0.04427818 -8.487701E-07 0.09444831
v 0.0978915 -8.201599E-07 0.0354843
v 0.0394426 0.1003375 0.01446583
v 0.04347351 1.662184 0.01563399
v 0.04179466 1.662184 -0.01968623
v 0.03791592 0.1003375 -0.01765254
v 0.01567764 1.666491 -0.04359993
v 0.01412537 0.1047455 -0.03928418
v -0.01968773 1.662184 -0.0417956
v -0.01799293 0.1003375 -0.03775763
v -0.04347587 1.662184 -0.01563339
v -0.03962448 0.1003375 -0.01396708
v -0.03962448 0.1003375 -0.01396708
v -0.04347587 1.662184 -0.01563339
v -0.0417971 1.662184 0.01968685
v -0.03809815 0.1003375 0.01815128
v -0.01563499 1.662184 0.04347496
v -0.01430733 0.1003375 0.03978296
v 0.01968521 1.662184 0.04179623
v 0.01781097 0.1003375 0.0382564
v 0.04347351 1.662184 0.01563399
v 0.0394426 0.1003375 0.01446583
v 0.04179466 1.662184 -0.01968623
v 0.04347351 1.662184 0.01563399
v 0.07116123 1.702341 0.02558978
v 0.06841335 1.702341 -0.03222462
v 0.01567764 1.666491 -0.04359993
v 0.02558937 1.702341 -0.07116256
v -0.01968773 1.662184 -0.0417956
v -0.03222511 1.702341 -0.06841469
v -0.04347587 1.662184 -0.01563339
v -0.07116295 1.702341 -0.02559068
v -0.0417971 1.662184 0.01968685
v -0.04347587 1.662184 -0.01563339
v -0.07116295 1.702341 -0.02559068
v -0.06841507 1.702341 0.03222378
v -0.01563499 1.662184 0.04347496
v -0.02559105 1.702341 0.07116169
v 0.01968521 1.662184 0.04179623
v 0.03222343 1.702341 0.06841385
v 0.04347351 1.662184 0.01563399
v 0.07116123 1.702341 0.02558978
v 0.07116123 1.702341 0.02558978
v 0.03419052 1.733036 -0.0004401529
v 0.06841335 1.702341 -0.03222462
v -0.0004628754 1.727707 -0.03386137
v 0.02558937 1.702341 -0.07116256
v -0.03222511 1.702341 -0.06841469
v -0.03419304 1.733036 0.0004405856
v -0.07116295 1.702341 -0.02559068
v -0.07116295 1.702341 -0.02559068
v -0.03419304 1.733036 0.0004405856
v -0.06841507 1.702341 0.03222378
v 0.0004619598 1.727707 0.03386179
v -0.02559105 1.702341 0.07116169
v 0.03222343 1.702341 0.06841385
v 0.03419052 1.733036 -0.0004401529
v 0.07116123 1.702341 0.02558978
v 0.03419052 1.733036 -0.0004401529
v 0.1017317 1.827949 -0.001310346
v -0.001376419 1.826538 -0.1007506
v -0.0004628754 1.727707 -0.03386137
v -0.1017325 1.827949 0.001310146
v -0.03419304 1.733036 0.0004405856
v -0.03419304 1.733036 0.0004405856
v -0.1017325 1.827949 0.001310146
v 0.001375961 1.826538 0.1007485
v 0.0004619598 1.727707 0.03386179
v 0.1017317 1.827949 -0.001310346
v 0.03419052 1.733036 -0.0004401529
v 0.0663052 1.873715 -0.0008536793
v -2.288818E-07 2.07281 4.396075E-08
v -0.0008972168 1.873715 -0.0656651
v -0.06630599 1.873716 0.0008542673
v -0.001376419 1.826538 -0.1007506
v 0.1017317 1.827949 -0.001310346
v -0.1017325 1.827949 0.001310146
v -0.06630599 1.873716 0.0008542673
v 0.0008966064 1.873984 0.06566529
v 0.0663052 1.873715 -0.0008536793
v 0.001375961 1.826538 0.1007485
v -0.1017325 1.827949 0.001310146
v 0.1017317 1.827949 -0.001310346
vt 0.1686323 0.601252
vt 0.1688612 0.5986199
vt 0.1542379 0.592653
vt 0.1522667 0.5944516
vt 0.1482392 0.5780424
vt 0.1454664 0.5780424
vt 0.1545987 0.5634317
vt 0.1522666 0.5616331
vt 0.1689513 0.5578255
vt 0.1686322 0.5548325
vt 0.1688886 0.5918021
vt 0.1590569 0.5877744
vt 0.1549883 0.5780424
vt 0.1590569 0.5683104
vt 0.1688885 0.5642825
vt 0.1685359 0.6077645
vt 0.147612 0.5990017
vt 0.1389742 0.5780424
vt 0.1476119 0.5570828
vt 0.1685358 0.5483201
vt 0.1681711 0.6107189
vt 0.1455047 0.6010239
vt 0.1360658 0.5780424
vt 0.1455046 0.5550608
vt 0.1681709 0.5453656
vt 0.1686314 0.601252
vt 0.1688606 0.5986199
vt 0.1542372 0.592653
vt 0.152266 0.5944516
vt 0.1482383 0.5780424
vt 0.1454657 0.5780424
vt 0.154598 0.5634317
vt 0.1522659 0.5616329
vt 0.1689507 0.5578255
vt 0.1686314 0.5548325
vt 0.1688879 0.5918021
vt 0.1590562 0.5877744
vt 0.1549876 0.5780424
vt 0.1590562 0.5683104
vt 0.1688878 0.5642825
vt 0.1685351 0.6077644
vt 0.1476112 0.5990017
vt 0.1389734 0.5780424
vt 0.1476112 0.5570828
vt 0.1685349 0.5483201
vt 0.1681703 0.6107188
vt 0.145504 0.6010239
vt 0.136065 0.5780424
vt 0.1455038 0.5550608
vt 0.1681702 0.5453656
vt 0.3002095 0.9409111
vt 0.4107774 0.9410427
vt 0.4107778 0.9344897
vt 0.300209 0.9345142
vt 0.4107811 0.9286818
vt 0.3002118 0.9280251
vt 0.4107774 0.9228955
vt 0.300209 0.9215359
vt 0.4107774 0.9150093
vt 0.3002094 0.9151389
vt 0.300201 0.9408136
vt 0.4107669 0.9410235
vt 0.4107667 0.9344552
vt 0.3002013 0.9344297
vt 0.4107632 0.9279662
vt 0.3001986 0.9279669
vt 0.4107667 0.9214771
vt 0.3002013 0.921504
vt 0.4107669 0.9149103
vt 0.300201 0.9151201
vt 0.245327 0.9165152
vt 0.254692 0.9155034
vt 0.2563202 0.902809
vt 0.2447113 0.9057757
vt 0.2339705 0.9171834
vt 0.2342271 0.9069573
vt 0.2232548 0.9165915
vt 0.2237953 0.905847
vt 0.2138981 0.9155942
vt 0.2123334 0.9029077
vt 0.2454001 0.9165628
vt 0.2547681 0.9155578
vt 0.2564089 0.9028625
vt 0.2448008 0.9058195
vt 0.2340629 0.9172689
vt 0.2343321 0.9069952
vt 0.223424 0.9166747
vt 0.2239127 0.9059244
vt 0.2140611 0.9157145
vt 0.2124423 0.9030324
vt 0.2563202 0.902809
vt 0.2442471 0.8935724
vt 0.2447113 0.9057757
vt 0.2305623 0.8949944
vt 0.2342271 0.9069573
vt 0.2237953 0.905847
vt 0.2191989 0.8904198
vt 0.2123334 0.9029077
vt 0.2564089 0.9028625
vt 0.244337 0.8936169
vt 0.2448008 0.9058195
vt 0.2306452 0.8950492
vt 0.2343321 0.9069952
vt 0.2239127 0.9059244
vt 0.2192623 0.8905166
vt 0.2124423 0.9030324
vt 0.1806083 0.8982023
vt 0.1903487 0.8858871
vt 0.1759507 0.8858871
vt 0.1760495 0.8982023
vt 0.1616395 0.8858871
vt 0.1726526 0.8982023
vt 0.1803653 0.8982023
vt 0.1901678 0.8858871
vt 0.1759507 0.8858871
vt 0.1760495 0.8982023
vt 0.161452 0.8858871
vt 0.1724078 0.8982023
vt 0.1834334 0.8760636
vt 0.1760495 0.8431677
vt 0.1760495 0.8760636
vt 0.1677482 0.8760636
vt 0.1759507 0.8858871
vt 0.1903487 0.8858871
vt 0.1616395 0.8858871
vt 0.1833069 0.8760636
vt 0.1760495 0.8760636
vt 0.1676181 0.8760636
vt 0.1759507 0.8858871
vt 0.1901678 0.8858871
vt 0.161452 0.8858871
vn 0.7218571 0.6415132 0.2595827
vn 0.7585534 0.5917671 0.2727791
vn 0.7411388 0.5734116 -0.3491594
vn 0.6722972 0.6629045 -0.329506
vn 0.2789475 0.5660971 -0.7757077
vn 0.2323751 0.7210448 -0.6527606
vn -0.3490443 0.5734111 -0.7411935
vn -0.3075484 0.661907 -0.6835884
vn -0.7585541 0.5917662 -0.2727788
vn -0.721658 0.6417658 -0.2595118
vn 0.324651 0.9386013 0.1167444
vn 0.3516774 0.9227547 -0.1576286
vn 0.1332681 0.9191841 -0.3705944
vn -0.1707509 0.9227556 -0.3454941
vn -0.3246494 0.9386017 -0.1167459
vn 0.8240609 0.4828129 0.2963368
vn 0.7766498 0.5133231 -0.3651227
vn 0.3011619 0.5252696 -0.7958601
vn -0.3625409 0.5159765 -0.7761006
vn -0.8241546 0.4826325 -0.2963698
vn 0.939805 0.05050697 0.3379579
vn 0.9047903 0.04476933 -0.4234976
vn 0.3304248 0.05028524 -0.9424918
vn -0.4233433 0.05527125 -0.9042817
vn -0.9398452 0.04965891 -0.337972
vn -0.721658 0.6417658 -0.2595118
vn -0.7585541 0.5917662 -0.2727788
vn -0.7292632 0.5917656 0.3434946
vn -0.6938028 0.641728 0.3268376
vn -0.2727793 0.5917651 0.7585549
vn -0.2594918 0.6416388 0.7217782
vn 0.3434953 0.5917653 0.7292632
vn 0.3269036 0.641548 0.6939383
vn 0.7585534 0.5917671 0.2727791
vn 0.7218571 0.6415132 0.2595827
vn -0.3246494 0.9386017 -0.1167459
vn -0.3121128 0.9386021 0.1470094
vn -0.1167444 0.938602 0.3246492
vn 0.1470109 0.9386019 0.3121127
vn 0.324651 0.9386013 0.1167444
vn -0.8241546 0.4826325 -0.2963698
vn -0.792345 0.482659 0.3731348
vn -0.2964383 0.4827226 0.8240772
vn 0.3731053 0.4827864 0.7922814
vn 0.8240609 0.4828129 0.2963368
vn -0.9398452 0.04965891 -0.337972
vn -0.9035174 0.04978254 0.4256501
vn -0.3378702 0.05008295 0.9398593
vn 0.425638 0.05038349 0.9034899
vn 0.939805 0.05050697 0.3379579
vn 0.9409888 -0.002681662 0.3384267
vn 0.9410169 -0.002681676 0.338349
vn 0.8983342 -0.002824308 -0.4393035
vn 0.912799 -0.00281829 -0.4083994
vn 0.3383888 -0.00289553 -0.941002
vn 0.3383887 -0.002895529 -0.941002
vn -0.412831 -0.002824097 -0.9108033
vn -0.4436648 -0.002818073 -0.8961884
vn -0.9409882 -0.002681403 -0.3384287
vn -0.9410162 -0.002681389 -0.338351
vn -0.9410162 -0.002681389 -0.338351
vn -0.9409882 -0.002681403 -0.3384287
vn -0.9046794 -0.002561579 0.4260853
vn -0.9046545 -0.002561572 0.4261381
vn -0.3383884 -0.002512022 0.9410032
vn -0.3383884 -0.002512022 0.9410032
vn 0.426138 -0.002561743 0.9046545
vn 0.4260853 -0.002561737 0.9046794
vn 0.9410169 -0.002681676 0.338349
vn 0.9409888 -0.002681662 0.3384267
vn 0.7216412 -0.6033627 -0.3393928
vn 0.7590571 -0.5910355 0.272964
vn 0.9185707 0.1562822 0.3630479
vn 0.8781481 0.1503889 -0.4541355
vn 0.2690918 -0.6063315 -0.7482992
vn 0.3398251 0.159025 -0.9269466
vn -0.3402311 -0.6033621 -0.7212468
vn -0.4172533 0.1598123 -0.8946283
vn -0.7590613 -0.5910332 -0.2729571
vn -0.9185673 0.1562849 -0.3630555
vn -0.7297534 -0.5910254 0.343728
vn -0.7590613 -0.5910332 -0.2729571
vn -0.9185673 0.1562849 -0.3630555
vn -0.880698 0.1568316 0.4469618
vn -0.2729653 -0.5910235 0.759066
vn -0.3392788 0.1675796 0.9256387
vn 0.3437213 -0.5910281 0.7297544
vn 0.4234349 0.1661766 0.890555
vn 0.7590571 -0.5910355 0.272964
vn 0.9185707 0.1562822 0.3630479
vn 0.9185707 0.1562822 0.3630479
vn 0.450728 0.8926268 -0.007850043
vn 0.8781481 0.1503889 -0.4541355
vn -0.01064528 0.8847458 -0.4659525
vn 0.3398251 0.159025 -0.9269466
vn -0.4172533 0.1598123 -0.8946283
vn -0.4507287 0.8926265 0.00785792
vn -0.9185673 0.1562849 -0.3630555
vn -0.9185673 0.1562849 -0.3630555
vn -0.4507287 0.8926265 0.00785792
vn -0.880698 0.1568316 0.4469618
vn 0.0106534 0.8847402 0.4659628
vn -0.3392788 0.1675796 0.9256387
vn 0.4234349 0.1661766 0.890555
vn 0.450728 0.8926268 -0.007850043
vn 0.9185707 0.1562822 0.3630479
vn 0.8247669 -0.5653647 -0.0110633
vn 0.8247691 -0.5653648 -0.01089238
vn -0.01092178 -0.5749421 -0.8181212
vn -0.01070634 -0.574942 -0.8181241
vn -0.8247715 -0.5653612 0.01089269
vn -0.8247691 -0.5653612 0.01107203
vn -0.8247691 -0.5653612 0.01107203
vn -0.8247715 -0.5653612 0.01089269
vn 0.01092718 -0.5749322 0.8181281
vn 0.01071191 -0.5749321 0.8181311
vn 0.8247691 -0.5653648 -0.01089238
vn 0.8247669 -0.5653647 -0.0110633
vn 0.8645712 0.5023735 -0.01172635
vn -1.818071E-06 1 -0.000138537
vn -0.01143764 0.4969591 -0.8676986
vn -0.8645763 0.5023731 0.01135662
vn -0.01065319 0.6013504 -0.7989144
vn 0.794754 0.6068416 -0.01046044
vn -0.7947541 0.6068408 0.01049446
vn -0.8645763 0.5023731 0.01135662
vn 0.01144514 0.4962068 0.868129
vn 0.8645712 0.5023735 -0.01172635
vn 0.01066406 0.6004558 0.7995868
vn -0.7947541 0.6068408 0.01049446
vn 0.794754 0.6068416 -0.01046044
g Libel_Fence_Steel_02_0
f 3/3/3 2/2/2 1/1/1
f 4/4/4 3/3/3 1/1/1
f 5/5/5 3/3/3 4/4/4
f 6/6/6 5/5/5 4/4/4
f 7/7/7 5/5/5 6/6/6
f 8/8/8 7/7/7 6/6/6
f 9/9/9 7/7/7 8/8/8
f 10/10/10 9/9/9 8/8/8
f 11/11/11 2/2/2 3/3/3
f 12/12/12 11/11/11 3/3/3
f 12/12/12 3/3/3 5/5/5
f 13/13/13 12/12/12 5/5/5
f 13/13/13 5/5/5 7/7/7
f 14/14/14 13/13/13 7/7/7
f 14/14/14 7/7/7 9/9/9
f 15/15/15 14/14/14 9/9/9
f 1/1/1 16/16/16 4/4/4
f 16/16/16 17/17/17 4/4/4
f 4/4/4 17/17/17 6/6/6
f 17/17/17 18/18/18 6/6/6
f 6/6/6 18/18/18 19/19/19
f 8/8/8 6/6/6 19/19/19
f 8/8/8 19/19/19 10/10/10
f 19/19/19 20/20/20 10/10/10
f 16/16/16 21/21/21 17/17/17
f 21/21/21 22/22/22 17/17/17
f 17/17/17 22/22/22 18/18/18
f 22/22/22 23/23/23 18/18/18
f 18/18/18 23/23/23 19/19/19
f 23/23/23 24/24/24 19/19/19
f 19/19/19 24/24/24 20/20/20
f 24/24/24 25/25/25 20/20/20
f 28/28/28 27/27/27 26/26/26
f 29/29/29 28/28/28 26/26/26
f 30/30/30 28/28/28 29/29/29
f 31/31/31 30/30/30 29/29/29
f 32/32/32 30/30/30 31/31/31
f 33/33/33 32/32/32 31/31/31
f 34/34/34 32/32/32 33/33/33
f 35/35/35 34/34/34 33/33/33
f 36/36/36 27/27/27 28/28/28
f 37/37/37 36/36/36 28/28/28
f 37/37/37 28/28/28 30/30/30
f 38/38/38 37/37/37 30/30/30
f 38/38/38 30/30/30 32/32/32
f 39/39/39 38/38/38 32/32/32
f 39/39/39 32/32/32 34/34/34
f 40/40/40 39/39/39 34/34/34
f 26/26/26 41/41/41 29/29/29
f 41/41/41 42/42/42 29/29/29
f 29/29/29 42/42/42 31/31/31
f 42/42/42 43/43/43 31/31/31
f 31/31/31 43/43/43 33/33/33
f 43/43/43 44/44/44 33/33/33
f 33/33/33 44/44/44 35/35/35
f 44/44/44 45/45/45 35/35/35
f 41/41/41 46/46/46 42/42/42
f 46/46/46 47/47/47 42/42/42
f 42/42/42 47/47/47 43/43/43
f 47/47/47 48/48/48 43/43/43
f 43/43/43 48/48/48 44/44/44
f 48/48/48 49/49/49 44/44/44
f 44/44/44 49/49/49 45/45/45
f 49/49/49 50/50/50 45/45/45
f 53/53/53 52/52/52 51/51/51
f 54/54/54 53/53/53 51/51/51
f 55/55/55 53/53/53 54/54/54
f 56/56/56 55/55/55 54/54/54
f 57/57/57 55/55/55 56/56/56
f 58/58/58 57/57/57 56/56/56
f 59/59/59 57/57/57 58/58/58
f 60/60/60 59/59/59 58/58/58
f 63/63/63 62/62/62 61/61/61
f 64/64/64 63/63/63 61/61/61
f 65/65/65 63/63/63 64/64/64
f 66/66/66 65/65/65 64/64/64
f 67/67/67 65/65/65 66/66/66
f 68/68/68 67/67/67 66/66/66
f 69/69/69 67/67/67 68/68/68
f 70/70/70 69/69/69 68/68/68
f 73/73/73 72/72/72 71/71/71
f 74/74/74 73/73/73 71/71/71
f 74/74/74 71/71/71 75/75/75
f 76/76/76 74/74/74 75/75/75
f 76/76/76 75/75/75 77/77/77
f 78/78/78 76/76/76 77/77/77
f 78/78/78 77/77/77 79/79/79
f 80/80/80 78/78/78 79/79/79
f 83/83/83 82/82/82 81/81/81
f 84/84/84 83/83/83 81/81/81
f 84/84/84 81/81/81 85/85/85
f 86/86/86 84/84/84 85/85/85
f 86/86/86 85/85/85 87/87/87
f 88/88/88 86/86/86 87/87/87
f 88/88/88 87/87/87 89/89/89
f 90/90/90 88/88/88 89/89/89
f 93/93/93 92/92/92 91/91/91
f 94/94/94 92/92/92 93/93/93
f 95/95/95 94/94/94 93/93/93
f 96/96/96 94/94/94 95/95/95
f 97/97/97 94/94/94 96/96/96
f 98/98/98 97/97/97 96/96/96
f 101/101/101 100/100/100 99/99/99
f 102/102/102 100/100/100 101/101/101
f 103/103/103 102/102/102 101/101/101
f 104/104/104 102/102/102 103/103/103
f 105/105/105 102/102/102 104/104/104
f 106/106/106 105/105/105 104/104/104
f 109/109/109 108/108/108 107/107/107
f 110/110/110 109/109/109 107/107/107
f 111/111/111 109/109/109 110/110/110
f 112/112/112 111/111/111 110/110/110
f 115/115/115 114/114/114 113/113/113
f 116/116/116 115/115/115 113/113/113
f 117/117/117 115/115/115 116/116/116
f 118/118/118 117/117/117 116/116/116
f 121/121/121 120/120/120 119/119/119
f 122/122/122 120/120/120 121/121/121
f 121/121/121 119/119/119 123/123/123
f 119/119/119 124/124/124 123/123/123
f 121/121/121 123/123/123 125/125/125
f 122/122/122 121/121/121 125/125/125
f 127/127/127 120/120/120 126/126/126
f 128/128/128 120/120/120 127/127/127
f 127/127/127 126/126/126 129/129/129
f 126/126/126 130/130/130 129/129/129
f 127/127/127 129/129/129 131/131/131
f 128/128/128 127/127/127 131/131/131
