g Libel_MagicBook01
v 0.2080781 0.03238312 -0.1278589
v 0.05236854 -0.04136749 0.2363913
v 0.05216774 0.03202209 0.2363583
v 0.2082244 -0.04116486 -0.12785
v -0.1973048 0.03083252 0.132413
v -0.2082244 -0.005481567 0.1278146
v 0.05236854 -0.04136749 0.2363913
v -0.1971267 -0.04271423 0.1324393
v -0.04145515 0.03115234 -0.2318307
v -0.05228188 -0.005247802 -0.236391
v 0.2080781 0.03238312 -0.1278589
v 0.2082244 -0.04116486 -0.12785
v -0.04126244 -0.04251099 -0.2317996
v -0.01517769 0.04251648 0.04294678
v -0.02967384 0.04240448 -0.007059936
v 0.001652603 0.04255585 0.005565491
v 0.01758903 0.04259094 -0.02983185
v 0.03458 0.04271454 0.01883636
v 0.02718559 0.03164002 -0.05105041
v 0.04690773 0.03180237 0.02385712
v -0.04440376 0.031362 -0.01294464
v -0.02548866 0.03152008 0.06594177
v -0.1973048 0.03083252 0.132413
v 0.05216774 0.03202209 0.2363583
v 0.2080781 0.03238312 -0.1278589
v -0.04145515 0.03115234 -0.2318307
v -0.05228188 -0.005247802 -0.236391
v -0.2082244 -0.005481567 0.1278146
v -0.04126244 -0.04251099 -0.2317996
v 0.05236854 -0.04136749 0.2363913
v 0.2082244 -0.04116486 -0.12785
v -0.1971267 -0.04271423 0.1324393
v -0.05228188 -0.005247802 -0.236391
v -0.2082244 -0.005481567 0.1278146
vt 0.619141 0.4127334
vt 0.6012532 0.4972866
vt 0.6191409 0.4972887
vt 0.6012511 0.4127367
vt 0.6842462 0.4972882
vt 0.685294 0.5060253
vt 0.6191409 0.5149918
vt 0.6842462 0.5149918
vt 0.6842417 0.4972911
vt 0.6852895 0.5060275
vt 0.6191407 0.4972916
vt 0.6191407 0.5149934
vt 0.6842417 0.5149934
vt 0.6523535 0.4635493
vt 0.6592377 0.4560483
vt 0.6521938 0.4559755
vt 0.6520452 0.4488036
vt 0.6447898 0.455899
vt 0.6519191 0.4427149
vt 0.6404468 0.4558541
vt 0.6641572 0.4560991
vt 0.6524915 0.4700883
vt 0.6842462 0.4972882
vt 0.6191409 0.4972887
vt 0.619141 0.4127334
vt 0.6842462 0.4127325
vt 0.6928278 0.4127325
vt 0.6928331 0.4972882
vt 0.6842417 0.4127411
vt 0.6191407 0.4972916
vt 0.6191407 0.4127418
vt 0.6842417 0.4972911
vt 0.6928227 0.4127411
vt 0.6928279 0.4972911
vn 0.7549246 0.5792291 -0.3075429
vn 0.3091481 -0.5759053 0.7568094
vn 0.3050849 0.5795062 0.7557088
vn 0.7587296 -0.5744627 -0.307119
vn -0.6679257 0.6481197 0.3658089
vn -0.9554333 0.0007795015 0.295206
vn 0.3091481 -0.5759053 0.7568094
vn -0.6657237 -0.6508429 0.364987
vn -0.2053978 0.6489023 -0.7326238
vn -0.4538826 0.001241648 -0.8910605
vn 0.7549246 0.5792291 -0.3075429
vn 0.7587296 -0.5744627 -0.307119
vn -0.2034433 -0.6503333 -0.7318999
vn -0.1263104 0.9521435 0.2783313
vn -0.3623174 0.912832 -0.1883189
vn -0.00443322 0.9999897 -0.0009736523
vn 0.09585197 0.9453137 -0.31176
vn 0.4086459 0.8963972 0.1716989
vn 0.03369067 0.9952121 -0.09174869
vn 0.1848924 0.9797102 0.07734822
vn -0.1629183 0.9839641 -0.07260933
vn -0.04065771 0.9958753 0.08111287
vn -0.6679257 0.6481197 0.3658089
vn 0.3050849 0.5795062 0.7557088
vn 0.7549246 0.5792291 -0.3075429
vn -0.2053978 0.6489023 -0.7326238
vn -0.4538826 0.001241648 -0.8910605
vn -0.9554333 0.0007795015 0.295206
vn -0.2034433 -0.6503333 -0.7318999
vn 0.3091481 -0.5759053 0.7568094
vn 0.7587296 -0.5744627 -0.307119
vn -0.6657237 -0.6508429 0.364987
vn -0.4538826 0.001241648 -0.8910605
vn -0.9554333 0.0007795015 0.295206
g Libel_MagicBook01_0
f 3/3/3 2/2/2 1/1/1
f 4/4/4 1/1/1 2/2/2
f 6/6/6 3/3/3 5/5/5
f 7/7/7 3/3/3 6/6/6
f 6/6/6 8/8/8 7/7/7
f 11/11/11 10/10/10 9/9/9
f 12/12/12 10/10/10 11/11/11
f 13/13/13 10/10/10 12/12/12
f 16/16/16 15/15/15 14/14/14
f 16/16/16 17/17/17 15/15/15
f 16/16/16 14/14/14 18/18/18
f 18/18/18 17/17/17 16/16/16
f 17/17/17 18/18/18 19/19/19
f 20/20/20 19/19/19 18/18/18
f 15/15/15 17/17/17 21/21/21
f 19/19/19 21/21/21 17/17/17
f 14/14/14 15/15/15 22/22/22
f 21/21/21 22/22/22 15/15/15
f 20/20/20 18/18/18 22/22/22
f 14/14/14 22/22/22 18/18/18
f 22/22/22 21/21/21 23/23/23
f 22/22/22 24/24/24 20/20/20
f 24/24/24 22/22/22 23/23/23
f 25/25/25 20/20/20 24/24/24
f 20/20/20 25/25/25 19/19/19
f 26/26/26 19/19/19 25/25/25
f 26/26/26 23/23/23 21/21/21
f 19/19/19 26/26/26 21/21/21
f 26/26/26 27/27/27 23/23/23
f 28/28/28 23/23/23 27/27/27
f 31/31/31 30/30/30 29/29/29
f 32/32/32 29/29/29 30/30/30
f 29/29/29 32/32/32 33/33/33
f 34/34/34 33/33/33 32/32/32
