g Libel_Plants_Leaf_06
v 0.08500884 0.3765615 -0.3019752
v 0.1793703 -0.2762695 -0.03788067
v -0.09197982 -0.2597715 -0.1527651
v -0.2186313 0.2207602 -0.3570297
v -0.2348257 0.02815159 -0.2969163
v 0.05867447 0.6958389 -0.4918575
v 0.08500884 0.3765615 -0.3019752
v -0.04695358 0.5026413 -0.4593231
v -0.04695358 0.5026413 -0.4593231
v 0.08500884 0.3765615 -0.3019752
v -0.2186313 0.2207602 -0.3570297
v -0.09197982 -0.2597715 -0.1527651
v 0.1793703 -0.2762695 -0.03788067
v 0.04741722 -0.7679932 -0.09491894
v -0.01477318 -0.746569 -0.1212236
v 0.08500884 0.3765615 -0.3019752
v 0.3268475 0.5651681 -0.3792841
v 0.4035963 0.5727524 -0.3611951
v 0.1793703 -0.2762695 -0.03788067
v 0.08500884 0.3765615 -0.3019752
v 0.05867447 0.6958389 -0.4918575
v 0.2840831 0.7679932 -0.4544949
v 0.3268475 0.5651681 -0.3792841
v 0.1793703 -0.2762695 -0.03788067
v 0.4035963 0.5727524 -0.3611951
v 0.5019896 0.2294128 -0.3242288
v 0.450484 -0.04074119 -0.1816522
v 0.4526329 0.01206827 -0.1061023
v 0.4987047 0.1933033 -0.03742695
v 0.269498 0.3405082 0.1735415
v 0.234594 -0.2592943 -0.1160076
v -0.0289357 -0.2724142 0.01609512
v 0.4488411 0.6302714 0.304352
v 0.269498 0.3405082 0.1735415
v 0.4814641 0.4489084 0.1850181
v 0.4814641 0.4489084 0.1850181
v 0.269498 0.3405082 0.1735415
v 0.4987047 0.1933033 -0.03742695
v 0.234594 -0.2592943 -0.1160076
v -0.0289357 -0.2724142 0.01609512
v 0.07206253 -0.7616699 -0.09413887
v 0.1334311 -0.7411676 -0.1227815
v 0.269498 0.3405082 0.1735415
v 0.1827136 0.5037765 0.4248269
v 0.1198206 0.5100784 0.4725181
v -0.0289357 -0.2724142 0.01609512
v 0.269498 0.3405082 0.1735415
v 0.4488411 0.6302714 0.304352
v 0.2789145 0.6958976 0.4591321
v 0.1827136 0.5037765 0.4248269
v -0.0289357 -0.2724142 0.01609512
v 0.1198206 0.5100784 0.4725181
v 0.008900375 0.170161 0.4918565
v -0.08144096 -0.07395294 0.3364488
v -0.2473807 0.3405082 -0.04306448
v 0.0346373 -0.2724142 -0.228315
v 0.02300621 -0.2592943 0.06624199
v -0.09099136 0.01206827 0.2523698
v -0.1733779 0.1933033 0.259536
v -0.4485494 0.6302714 0.05077805
v -0.2473807 0.3405082 -0.04306448
v -0.3598205 0.4489084 0.1369872
v -0.3598205 0.4489084 0.1369872
v -0.2473807 0.3405082 -0.04306448
v -0.1733779 0.1933033 0.259536
v 0.02300621 -0.2592943 0.06624199
v 0.0346373 -0.2724142 -0.228315
v 0.08236977 -0.7616699 -0.08663291
v 0.07780457 -0.7411676 -0.01906317
v -0.2473807 0.3405082 -0.04306448
v -0.4254823 0.5037765 -0.2404364
v -0.4368593 0.5100784 -0.3185425
v 0.0346373 -0.2724142 -0.228315
v -0.2473807 0.3405082 -0.04306448
v -0.4485494 0.6302714 0.05077805
v -0.5019897 0.6958978 -0.172775
v -0.4254823 0.5037765 -0.2404364
v 0.0346373 -0.2724142 -0.228315
v -0.4368593 0.5100784 -0.3185425
v -0.4002115 0.1701611 -0.4250046
v -0.2204982 -0.07395292 -0.4290361
vt 0.4373296 0.7543674
vt 0.3695935 0.8827074
vt 0.4472926 0.8920275
vt 0.5156729 0.8029079
vt 0.5063239 0.8440185
vt 0.4673161 0.6862469
vt 0.4373296 0.7543674
vt 0.4877295 0.7354944
vt 0.4877295 0.7354944
vt 0.4373296 0.7543674
vt 0.5156729 0.8029079
vt 0.4472926 0.8920275
vt 0.3695935 0.8827074
vt 0.3937874 0.9924451
vt 0.4116138 0.9908636
vt 0.4373296 0.7543674
vt 0.3894467 0.7011292
vt 0.3687231 0.6950917
vt 0.3695935 0.8827074
vt 0.4373296 0.7543674
vt 0.4673161 0.6862469
vt 0.4106627 0.6584812
vt 0.3894467 0.7011292
vt 0.3695935 0.8827074
vt 0.3687231 0.6950917
vt 0.324841 0.767757
vt 0.3160957 0.8229906
vt 0.5063239 0.8440185
vt 0.5156729 0.8029079
vt 0.4373296 0.7543674
vt 0.4472926 0.8920275
vt 0.3695935 0.8827074
vt 0.4673161 0.6862469
vt 0.4373296 0.7543674
vt 0.4877295 0.7354944
vt 0.4877295 0.7354944
vt 0.4373296 0.7543674
vt 0.5156729 0.8029079
vt 0.4472926 0.8920275
vt 0.3695935 0.8827074
vt 0.3937874 0.9924451
vt 0.4116138 0.9908636
vt 0.4373296 0.7543674
vt 0.3894467 0.7011292
vt 0.3687231 0.6950917
vt 0.3695935 0.8827074
vt 0.4373296 0.7543674
vt 0.4673161 0.6862469
vt 0.4106627 0.6584812
vt 0.3894467 0.7011292
vt 0.3695935 0.8827074
vt 0.3687231 0.6950917
vt 0.324841 0.767757
vt 0.3160957 0.8229906
vt 0.4373296 0.7543674
vt 0.3695935 0.8827074
vt 0.4472926 0.8920275
vt 0.5063239 0.8440185
vt 0.5156729 0.8029079
vt 0.4673161 0.6862469
vt 0.4373296 0.7543674
vt 0.4877295 0.7354944
vt 0.4877295 0.7354944
vt 0.4373296 0.7543674
vt 0.5156729 0.8029079
vt 0.4472926 0.8920275
vt 0.3695935 0.8827074
vt 0.3937874 0.9924451
vt 0.4116138 0.9908636
vt 0.4373296 0.7543674
vt 0.3894467 0.7011292
vt 0.3687231 0.6950917
vt 0.3695935 0.8827074
vt 0.4373296 0.7543674
vt 0.4673161 0.6862469
vt 0.4106627 0.6584812
vt 0.3894467 0.7011292
vt 0.3695935 0.8827074
vt 0.3687231 0.6950917
vt 0.324841 0.767757
vt 0.3160957 0.8229906
vn -0.3332433 0.3031492 0.8927763
vn -0.3332433 0.3031491 0.8927763
vn -0.3332433 0.3031491 0.8927763
vn -0.3332433 0.3031491 0.8927763
vn -0.3332433 0.3031491 0.8927763
vn -0.512264 0.4073921 0.7560537
vn -0.512264 0.4073921 0.7560538
vn -0.512264 0.4073921 0.7560538
vn -0.4029811 0.5189927 0.7538254
vn -0.4029811 0.5189927 0.7538254
vn -0.4029811 0.5189927 0.7538254
vn -0.3900258 -0.002171509 0.9208013
vn -0.3900258 -0.002171509 0.9208013
vn -0.3900258 -0.002171509 0.9208013
vn -0.3900258 -0.002171509 0.9208013
vn -0.06601772 0.3850634 0.9205259
vn -0.06601772 0.3850633 0.9205259
vn -0.06601772 0.3850633 0.9205259
vn -0.06601772 0.3850633 0.9205259
vn -0.1636582 0.4293175 0.8882018
vn -0.1636582 0.4293175 0.8882018
vn -0.1636582 0.4293175 0.8882018
vn -0.1636582 0.4293174 0.8882018
vn 0.3425026 0.2879043 0.8943172
vn 0.3425025 0.2879043 0.8943172
vn 0.3425026 0.2879043 0.8943172
vn 0.3425026 0.2879043 0.8943172
vn -0.4464422 0.4109097 -0.7948853
vn -0.4464422 0.4109097 -0.7948853
vn -0.4464421 0.4109097 -0.7948853
vn -0.4464422 0.4109097 -0.7948853
vn -0.4464422 0.4109097 -0.7948853
vn -0.2154156 0.5094275 -0.8331145
vn -0.2154155 0.5094275 -0.8331145
vn -0.2154156 0.5094275 -0.8331145
vn -0.2773404 0.6200154 -0.7339368
vn -0.2773404 0.6200154 -0.7339368
vn -0.2773404 0.6200154 -0.7339368
vn -0.4497741 0.1069141 -0.8867202
vn -0.449774 0.1069141 -0.8867202
vn -0.449774 0.1069141 -0.8867202
vn -0.449774 0.1069141 -0.8867202
vn -0.63787 0.4877715 -0.5959872
vn -0.63787 0.4877716 -0.5959873
vn -0.63787 0.4877715 -0.5959873
vn -0.63787 0.4877716 -0.5959873
vn -0.5460057 0.5335326 -0.6459262
vn -0.5460057 0.5335327 -0.6459262
vn -0.5460057 0.5335327 -0.6459262
vn -0.5460057 0.5335327 -0.6459262
vn -0.8880513 0.3697005 -0.2732881
vn -0.8880513 0.3697005 -0.2732881
vn -0.8880513 0.3697005 -0.2732881
vn -0.8880513 0.3697005 -0.273288
vn 0.9116498 0.4109095 -0.006928081
vn 0.9116498 0.4109095 -0.006928082
vn 0.9116498 0.4109094 -0.006928081
vn 0.9116498 0.4109094 -0.006928081
vn 0.9116498 0.4109095 -0.006928082
vn 0.8335246 0.5094273 0.2138239
vn 0.8335246 0.5094273 0.2138239
vn 0.8335246 0.5094273 0.2138239
vn 0.7765983 0.6200155 0.1116946
vn 0.7765983 0.6200155 0.1116946
vn 0.7765984 0.6200154 0.1116946
vn 0.993669 0.1069143 0.03451568
vn 0.993669 0.1069143 0.03451569
vn 0.993669 0.1069143 0.03451568
vn 0.993669 0.1069143 0.03451569
vn 0.8299666 0.4877715 -0.2706184
vn 0.8299666 0.4877714 -0.2706184
vn 0.8299666 0.4877715 -0.2706184
vn 0.8299666 0.4877714 -0.2706184
vn 0.8293172 0.5335325 -0.1660604
vn 0.8293173 0.5335325 -0.1660604
vn 0.8293173 0.5335325 -0.1660604
vn 0.8293173 0.5335324 -0.1660604
vn 0.6682655 0.3697002 -0.6455564
vn 0.6682655 0.3697002 -0.6455564
vn 0.6682655 0.3697002 -0.6455564
vn 0.6682655 0.3697002 -0.6455564
g Libel_Plants_Leaf_06_0
f 3/3/3 2/2/2 1/1/1
f 1/1/1 4/4/4 3/3/3
f 4/4/4 5/5/5 3/3/3
f 8/8/8 7/7/7 6/6/6
f 11/11/11 10/10/10 9/9/9
f 14/14/14 13/13/13 12/12/12
f 15/15/15 14/14/14 12/12/12
f 18/18/18 17/17/17 16/16/16
f 19/19/19 18/18/18 16/16/16
f 22/22/22 21/21/21 20/20/20
f 23/23/23 22/22/22 20/20/20
f 26/26/26 25/25/25 24/24/24
f 27/27/27 26/26/26 24/24/24
f 30/30/30 29/29/29 28/28/28
f 28/28/28 31/31/31 30/30/30
f 31/31/31 32/32/32 30/30/30
f 35/35/35 34/34/34 33/33/33
f 38/38/38 37/37/37 36/36/36
f 41/41/41 40/40/40 39/39/39
f 42/42/42 41/41/41 39/39/39
f 45/45/45 44/44/44 43/43/43
f 46/46/46 45/45/45 43/43/43
f 49/49/49 48/48/48 47/47/47
f 50/50/50 49/49/49 47/47/47
f 53/53/53 52/52/52 51/51/51
f 54/54/54 53/53/53 51/51/51
f 57/57/57 56/56/56 55/55/55
f 55/55/55 58/58/58 57/57/57
f 55/55/55 59/59/59 58/58/58
f 62/62/62 61/61/61 60/60/60
f 65/65/65 64/64/64 63/63/63
f 68/68/68 67/67/67 66/66/66
f 69/69/69 68/68/68 66/66/66
f 72/72/72 71/71/71 70/70/70
f 73/73/73 72/72/72 70/70/70
f 76/76/76 75/75/75 74/74/74
f 77/77/77 76/76/76 74/74/74
f 80/80/80 79/79/79 78/78/78
f 81/81/81 80/80/80 78/78/78
