g Libel_Brick_Side
v -1.972304 0.02222601 0.1770364
v -2.18227 0.03632206 -0.5068281
v -0.7249994 0.03632206 -0.5068281
v -0.3178201 0.02762808 -0.004465931
v -0.1472135 0.02222585 0.3076968
v -1.86026 0.02222601 0.3076958
v -0.1472135 0.02222585 0.3076968
v -0.1393272 -0.1142828 0.3439746
v -1.860034 -0.1142828 0.3439746
v -1.86026 0.02222601 0.3076958
v 1.885371 -0.1142828 0.3439746
v 1.883501 0.02222569 0.3076958
v 2.006869 0.02222569 0.1770364
v 2.035197 -0.1148088 0.1770364
v 0.264081 0.02757309 -0.001298596
v 0.6757116 0.03632174 -0.5068281
v 2.191224 0.03632174 -0.5068281
v 2.006869 0.02222569 0.1770364
v 0.09433468 0.02222569 0.3076968
v 1.883501 0.02222569 0.3076958
v -0.02720127 0.08930533 0.4496583
v -0.2970689 0.1023878 -0.04098781
v -0.02207243 0.1148088 -0.5068281
v -0.687418 0.1148086 -0.5068281
v 0.002194121 0.1148088 -0.5068281
v 0.2423678 0.1024584 -0.04362998
v 0.6286622 0.1148086 -0.5068281
v -0.1393272 -0.1142828 0.3439746
v -0.1472135 0.02222585 0.3076968
v -0.02720127 0.08930533 0.4496583
v -0.02707606 -0.1142828 0.50683
v -0.1472135 0.02222585 0.3076968
v -0.3178201 0.02762808 -0.004465931
v -0.2970689 0.1023878 -0.04098781
v -0.02720127 0.08930533 0.4496583
v -0.02707606 -0.1142828 0.50683
v -0.02720127 0.08930533 0.4496583
v 0.09433468 0.02222569 0.3076968
v 0.08647501 -0.1142828 0.3439746
v 0.264081 0.02757309 -0.001298596
v 0.2423678 0.1024584 -0.04362998
v 0.6286622 0.1148086 -0.5068281
v 0.6757116 0.03632174 -0.5068281
v 1.883501 0.02222569 0.3076958
v 1.885371 -0.1142828 0.3439746
v 0.08647501 -0.1142828 0.3439746
v 0.09433468 0.02222569 0.3076968
v -1.86026 0.02222601 0.3076958
v -1.860034 -0.1142828 0.3439746
v -2.009584 -0.1148088 0.1770364
v -1.972304 0.02222601 0.1770364
v -1.972304 0.02222601 0.1770364
v -2.009584 -0.1148088 0.1770364
v -2.21955 -0.1126015 -0.5068281
v -2.18227 0.03632206 -0.5068281
v 2.191224 0.03632174 -0.5068281
v 2.219552 -0.1126016 -0.5068281
v 2.035197 -0.1148088 0.1770364
v 2.006869 0.02222569 0.1770364
v -0.2970689 0.1023878 -0.04098781
v -0.3178201 0.02762808 -0.004465931
v -0.7249994 0.03632206 -0.5068281
v -0.687418 0.1148086 -0.5068281
v 0.2423678 0.1024584 -0.04362998
v 0.264081 0.02757309 -0.001298596
v 0.09433468 0.02222569 0.3076968
v -0.02720127 0.08930533 0.4496583
vt 0.4779387 0.6393293
vt 0.5121056 0.6529536
vt 0.5111208 0.5619634
vt 0.4859622 0.5418708
vt 0.4703289 0.5293855
vt 0.4714445 0.6324643
vt 0.4703289 0.5293855
vt 0.4611627 0.5296857
vt 0.4623026 0.6350113
vt 0.4714445 0.6324643
vt 0.4623026 0.6350113
vt 0.4714445 0.6324643
vt 0.4779387 0.6393293
vt 0.4731997 0.6468207
vt 0.4858038 0.5417648
vt 0.5111208 0.5619634
vt 0.5121084 0.6532128
vt 0.4779387 0.6393293
vt 0.4703292 0.5294187
vt 0.4714445 0.6324643
vt 0.3130906 0.4859873
vt 0.2896461 0.5114263
vt 0.3134764 0.5355656
vt 0.267387 0.5355791
vt 0.3151574 0.5355651
vt 0.3365373 0.5115494
vt 0.3585537 0.5355523
vt 0.297681 0.4782834
vt 0.2978922 0.4888943
vt 0.3130906 0.4859873
vt 0.3131137 0.4726209
vt 0.2978922 0.4888943
vt 0.2842596 0.5055704
vt 0.2896461 0.5114263
vt 0.3130906 0.4859873
vt 0.3131137 0.4726209
vt 0.3130906 0.4859873
vt 0.3283546 0.4889677
vt 0.3285815 0.4783653
vt 0.3419219 0.5054886
vt 0.3365373 0.5115494
vt 0.3585537 0.5355523
vt 0.3641187 0.5325175
vt 0.4714445 0.6324643
vt 0.4623026 0.6350113
vt 0.461163 0.5297219
vt 0.4703292 0.5294187
vt 0.4714445 0.6324643
vt 0.4623026 0.6350113
vt 0.4732193 0.6466358
vt 0.4779387 0.6393293
vt 0.4779387 0.6393293
vt 0.4732193 0.6466358
vt 0.5076623 0.662373
vt 0.5121056 0.6529536
vt 0.5121084 0.6532128
vt 0.5076623 0.662373
vt 0.4731997 0.6468207
vt 0.4779387 0.6393293
vt 0.2896461 0.5114263
vt 0.2842596 0.5055704
vt 0.2623208 0.532407
vt 0.267387 0.5355791
vt 0.3365373 0.5115494
vt 0.3419219 0.5054886
vt 0.3283546 0.4889677
vt 0.3130906 0.4859873
vn -0.0006888891 0.9998453 0.01757562
vn -0.0006888891 0.9998453 0.01757562
vn -0.0006888891 0.9998453 0.01757562
vn -0.0006888891 0.9998453 0.01757562
vn -0.0006888892 0.9998453 0.01757562
vn -0.0006888891 0.9998453 0.01757562
vn -2.727269E-07 0.2568427 0.9664532
vn -2.727269E-07 0.2568427 0.9664532
vn -2.727269E-07 0.2568428 0.9664532
vn -2.727269E-07 0.2568427 0.9664532
vn 0.7262738 0.1685618 0.6664182
vn 0.7262738 0.1685618 0.6664181
vn 0.7262739 0.1685618 0.6664182
vn 0.7262738 0.1685618 0.6664182
vn 0.0006592264 0.9998457 0.01755225
vn 0.0006592264 0.9998457 0.01755225
vn 0.0006592265 0.9998457 0.01755225
vn 0.0006592264 0.9998457 0.01755225
vn 0.0006592264 0.9998457 0.01755225
vn 0.0006592264 0.9998457 0.01755225
vn 2.574989E-07 0.9996448 0.0266542
vn 2.574988E-07 0.9996448 0.0266542
vn 2.574989E-07 0.9996448 0.0266542
vn -2.435832E-07 0.9996448 0.0266539
vn 2.588846E-07 0.9996448 0.02665375
vn 2.588847E-07 0.9996448 0.02665375
vn 2.588846E-07 0.9996448 0.02665375
vn -0.8021763 0.1405566 0.5803076
vn -0.8021763 0.1405566 0.5803076
vn -0.8021763 0.1405566 0.5803076
vn -0.8021764 0.1405566 0.5803077
vn -0.779438 0.4479535 0.4379657
vn -0.7794381 0.4479536 0.4379657
vn -0.779438 0.4479536 0.4379657
vn -0.7794381 0.4479535 0.4379657
vn 0.7986922 0.1424767 0.584629
vn 0.7986922 0.1424768 0.5846291
vn 0.7986922 0.1424767 0.584629
vn 0.7986922 0.1424767 0.584629
vn 0.6796052 0.4619715 0.5698414
vn 0.6796052 0.4619715 0.5698414
vn 0.6796051 0.4619714 0.5698413
vn 0.6796052 0.4619715 0.5698414
vn 2.722888E-07 0.2568431 0.9664531
vn 2.722888E-07 0.2568431 0.9664531
vn 2.722888E-07 0.2568432 0.9664531
vn 2.722888E-07 0.2568431 0.9664531
vn -0.7381351 0.1859965 0.6485074
vn -0.7381351 0.1859965 0.6485074
vn -0.7381351 0.1859965 0.6485074
vn -0.738135 0.1859964 0.6485075
vn -0.9268132 0.241653 0.2874388
vn -0.9268132 0.241653 0.2874388
vn -0.9268132 0.241653 0.2874388
vn -0.9268132 0.241653 0.2874387
vn 0.94779 0.1877845 0.2577423
vn 0.94779 0.1877845 0.2577424
vn 0.94779 0.1877845 0.2577423
vn 0.94779 0.1877845 0.2577424
vn -0.7008483 0.4064716 0.5861676
vn -0.7008483 0.4064716 0.5861676
vn -0.7008483 0.4064716 0.5861676
vn -0.7008484 0.4064716 0.5861676
vn 0.7684217 0.4724313 0.4316674
vn 0.7684216 0.4724313 0.4316674
vn 0.7684217 0.4724314 0.4316674
vn 0.7684217 0.4724313 0.4316674
g Libel_Brick_Side_0
f 3/3/3 2/2/2 1/1/1
f 1/1/1 4/4/4 3/3/3
f 1/1/1 5/5/5 4/4/4
f 1/1/1 6/6/6 5/5/5
f 9/9/9 8/8/8 7/7/7
f 10/10/10 9/9/9 7/7/7
f 13/13/13 12/12/12 11/11/11
f 14/14/14 13/13/13 11/11/11
f 17/17/17 16/16/16 15/15/15
f 15/15/15 18/18/18 17/17/17
f 15/15/15 19/19/19 18/18/18
f 19/19/19 20/20/20 18/18/18
f 23/23/23 22/22/22 21/21/21
f 24/24/24 22/22/22 23/23/23
f 23/23/23 21/21/21 25/25/25
f 21/21/21 26/26/26 25/25/25
f 27/27/27 25/25/25 26/26/26
f 30/30/30 29/29/29 28/28/28
f 31/31/31 30/30/30 28/28/28
f 34/34/34 33/33/33 32/32/32
f 35/35/35 34/34/34 32/32/32
f 38/38/38 37/37/37 36/36/36
f 39/39/39 38/38/38 36/36/36
f 42/42/42 41/41/41 40/40/40
f 43/43/43 42/42/42 40/40/40
f 46/46/46 45/45/45 44/44/44
f 47/47/47 46/46/46 44/44/44
f 50/50/50 49/49/49 48/48/48
f 51/51/51 50/50/50 48/48/48
f 54/54/54 53/53/53 52/52/52
f 55/55/55 54/54/54 52/52/52
f 58/58/58 57/57/57 56/56/56
f 59/59/59 58/58/58 56/56/56
f 62/62/62 61/61/61 60/60/60
f 63/63/63 62/62/62 60/60/60
f 66/66/66 65/65/65 64/64/64
f 67/67/67 66/66/66 64/64/64
