g Libel_Flag
v 0.1675549 0.05335483 -0.09460426
v -1.525879E-06 -0.008005257 -0.1227048
v 0.1675549 -0.007275886 -0.1139789
v -1.525879E-06 0.05900944 -0.1012904
v 0.1675549 0.08252747 -0.03803215
v -0.001731873 0.0912537 -0.03876182
v 0.1675549 0.06315304 0.02259857
v -1.525879E-06 0.06983925 0.02825287
v 0.1675549 0.006581001 0.05177101
v -1.525879E-06 0.007310524 0.06049698
v 0.1675549 -0.05404987 0.03239662
v -1.525879E-06 -0.05970394 0.03908249
v 0.1675549 -0.08322273 -0.02417557
v -1.525879E-06 -0.09194832 -0.02344604
v 0.1675549 -0.06384819 -0.08480644
v -1.525879E-06 -0.07053386 -0.09046074
v 0.1675549 -0.007275886 -0.1139789
v -1.525879E-06 -0.008005257 -0.1227048
v 0.1848875 0.0498719 -0.0353022
v 0.1796001 0.03219436 -0.06958305
v 0.1796001 -0.00454567 -0.08132339
v 0.1796001 0.003851013 0.0191153
v 0.1796001 0.03813171 0.001437759
v 0.1796001 -0.05056675 -0.02690575
v 0.1796001 -0.03288918 0.007375335
v 0.1796001 -0.03882648 -0.06364594
v 0.1796001 -0.00454567 -0.08132339
v 2.003592 0.03573181 -0.07342079
v 0.1796001 -0.00454567 -0.08132339
v 2.003592 -0.004647293 -0.08632408
v 0.1796001 0.03219436 -0.06958305
v 2.005359 0.05531894 -0.0357579
v 0.1848875 0.0498719 -0.0353022
v 2.003592 0.04225742 0.004634628
v 0.1796001 0.03813171 0.001437759
v 2.003592 0.004581108 0.02406319
v 0.1796001 0.003851013 0.0191153
v 2.003592 -0.03579811 0.0111602
v 0.1796001 -0.03288918 0.007375335
v 2.003592 -0.05522678 -0.02651604
v 0.1796001 -0.05056675 -0.02690575
v 2.003592 -0.04232365 -0.06689529
v 0.1796001 -0.03882648 -0.06364594
v 2.003592 -0.004647293 -0.08632408
v 0.1796001 -0.00454567 -0.08132339
v 2.090195 -0.007587242 -0.1215276
v 2.056826 0.03875034 -0.07697838
v 2.056826 -0.005024795 -0.09096702
v 2.090195 0.05854637 -0.1003947
v 2.057577 0.06022919 -0.03616836
v 2.090195 0.09036689 -0.0386879
v 2.056826 0.04582462 0.007641601
v 2.090195 0.06923393 0.02744583
v 2.056826 0.004979591 0.0287043
v 2.090195 0.00752716 0.05926613
v 2.090195 -0.06929421 -0.08970734
v 2.056826 -0.04586994 -0.0699044
v 2.090195 -0.09042706 -0.02357361
v 2.056826 -0.05985851 -0.02612885
v 2.090195 -0.05860656 0.03813339
v 2.056826 -0.0387957 0.01471619
v 2.090195 0.00752716 0.05926613
v 2.056826 0.004979591 0.0287043
v 2.119303 0.04012112 -0.01984299
v 2.119303 0.01227943 -0.07185256
v 2.119303 -0.01188866 0.007999344
v 2.119303 -0.01188866 0.007999344
v 2.119303 -0.03973072 -0.04401093
v 2.003592 0.03573181 -0.07342079
v 2.028868 -0.007057686 -0.1150146
v 2.028868 0.05431202 -0.09540405
v 2.003592 -0.004647293 -0.08632408
v 2.005359 0.05531894 -0.0357579
v 2.028868 0.05431202 -0.09540405
v 2.031063 0.08422012 -0.03817413
v 2.003592 0.03573181 -0.07342079
v 2.003592 0.04225742 0.004634628
v 2.031063 0.08422012 -0.03817413
v 2.028868 0.0642297 0.02322746
v 2.005359 0.05531894 -0.0357579
v 2.003592 0.004581108 0.02406319
v 2.028868 0.0642297 0.02322746
v 2.028868 0.00696804 0.05275558
v 2.003592 0.04225742 0.004634628
v 2.003592 -0.03579811 0.0111602
v 2.028868 0.00696804 0.05275558
v 2.028868 -0.05440178 0.03314491
v 2.003592 0.004581108 0.02406319
v 2.003592 -0.05522678 -0.02651604
v 2.028868 -0.05440178 0.03314491
v 2.028867 -0.08393002 -0.02411644
v 2.003592 -0.03579811 0.0111602
v 2.003592 -0.04232365 -0.06689529
v 2.028867 -0.08393002 -0.02411644
v 2.028868 -0.06431954 -0.08548614
v 2.003592 -0.05522678 -0.02651604
v 2.003592 -0.004647293 -0.08632408
v 2.028868 -0.06431954 -0.08548614
v 2.028868 -0.007057686 -0.1150146
v 2.003592 -0.04232365 -0.06689529
v 2.028868 0.05431202 -0.09540405
v 2.056826 -0.005024795 -0.09096702
v 2.056826 0.03875034 -0.07697838
v 2.028868 -0.007057686 -0.1150146
v 2.031063 0.08422012 -0.03817413
v 2.056826 0.03875034 -0.07697838
v 2.057577 0.06022919 -0.03616836
v 2.028868 0.05431202 -0.09540405
v 2.028868 0.0642297 0.02322746
v 2.057577 0.06022919 -0.03616836
v 2.056826 0.04582462 0.007641601
v 2.031063 0.08422012 -0.03817413
v 2.028868 0.00696804 0.05275558
v 2.056826 0.04582462 0.007641601
v 2.056826 0.004979591 0.0287043
v 2.028868 0.0642297 0.02322746
v 2.028868 -0.05440178 0.03314491
v 2.056826 0.004979591 0.0287043
v 2.056826 -0.0387957 0.01471619
v 2.028868 0.00696804 0.05275558
v 2.028867 -0.08393002 -0.02411644
v 2.056826 -0.0387957 0.01471619
v 2.056826 -0.05985851 -0.02612885
v 2.028868 -0.05440178 0.03314491
v 2.028868 -0.06431954 -0.08548614
v 2.056826 -0.05985851 -0.02612885
v 2.056826 -0.04586994 -0.0699044
v 2.028867 -0.08393002 -0.02411644
v 2.028868 -0.007057686 -0.1150146
v 2.056826 -0.04586994 -0.0699044
v 2.056826 -0.005024795 -0.09096702
v 2.028868 -0.06431954 -0.08548614
v 1.172394 0.07873217 -0.02063637
v 0.8120072 0.07008614 -1.777558
v 1.172396 0.0721823 -2.095589
v 0.8120075 0.07636425 -0.02211616
v 0.5532508 0.07432181 -0.02340195
v 0.5532507 0.0682645 -1.778123
v 1.573924 0.07379773 -1.776432
v 1.573923 0.08033972 -0.01955879
v 1.772338 0.07476711 -1.776104
v 1.772337 0.0816119 -0.01881172
v 1.172394 0.04767154 0.02104347
v 0.8120075 0.044812 0.01956375
v 0.8120075 0.002237424 0.03322235
v 1.172394 0.003129096 0.03468323
v 0.5532512 0.04232666 0.01827789
v 0.5532508 0.001598946 0.0319548
v 1.573923 0.04964608 0.02212074
v 1.573923 0.004126995 0.03575211
v 1.772337 0.0511979 0.02286812
v 1.772337 0.004618446 0.03648964
v 0.5532512 -0.03686462 0.01759689
v 0.8120075 -0.03915498 0.01883194
v 0.8120076 -0.06897839 -0.02399773
v 1.172394 -0.07117181 -0.0225766
v 1.172394 -0.06099431 -2.100274
v 0.812008 -0.05907767 -1.782101
v 0.5532507 -0.05741207 -1.782544
v 0.5532508 -0.06709647 -0.0252327
v 1.573923 -0.07272098 -0.02154152
v 1.573923 -0.06239009 -1.781219
v 1.772337 -0.07381441 -0.02082413
v 1.772337 -0.06335781 -1.780962
v 1.172394 -0.04179036 0.02025314
v 1.573923 -0.04370984 0.02128845
v 1.772337 -0.04504052 0.02200569
vt 0.7363213 0.7325665
vt 0.746623 0.718323
vt 0.7422092 0.7179113
vt 0.7395627 0.734937
vt 0.7217434 0.7386441
vt 0.7219219 0.7433746
vt 0.7070985 0.7323635
vt 0.7038849 0.7351298
vt 0.7014149 0.7180414
vt 0.6965232 0.7184719
vt 0.7068249 0.7325673
vt 0.7035835 0.7349378
vt 0.7214028 0.738645
vt 0.7212244 0.7433754
vt 0.7360477 0.7323642
vt 0.7392615 0.7351306
vt 0.7417313 0.7180421
vt 0.746623 0.7184728
vt 0.7217069 0.7318951
vt 0.7314168 0.727774
vt 0.7353914 0.7179207
vt 0.7078722 0.7180693
vt 0.7119531 0.7278792
vt 0.7214393 0.7318957
vt 0.7117294 0.7277747
vt 0.7311932 0.7278798
vt 0.735274 0.71807
vt 0.6088056 0.5789826
vt 0.6152435 0.7258322
vt 0.6152435 0.5789831
vt 0.60883 0.7258328
vt 0.6026376 0.57898
vt 0.6026376 0.7258291
vt 0.5964978 0.5789831
vt 0.5964978 0.7258328
vt 0.589341 0.5789831
vt 0.589341 0.7258323
vt 0.5958138 0.5789974
vt 0.5958391 0.725843
vt 0.6019469 0.5790021
vt 0.6019469 0.7258467
vt 0.6080868 0.5789974
vt 0.6080868 0.725843
vt 0.6152436 0.5789973
vt 0.6152436 0.7258435
vt 0.9163082 0.9839606
vt 0.9038887 0.9763472
vt 0.9139479 0.9763472
vt 0.9038887 0.9839606
vt 0.8951877 0.9763472
vt 0.8951877 0.9839606
vt 0.8863522 0.9763472
vt 0.8863522 0.9839606
vt 0.8762105 0.9763472
vt 0.8747655 0.9839606
vt 0.9038887 0.9839606
vt 0.9038887 0.9763472
vt 0.8951877 0.9839606
vt 0.8951877 0.9763472
vt 0.8863522 0.9839606
vt 0.8863522 0.9763472
vt 0.8747655 0.9839606
vt 0.8761798 0.9763472
vt 0.8905268 0.9938421
vt 0.910082 0.9938421
vt 0.8809175 0.9938904
vt 0.8809175 0.9938904
vt 0.899295 0.9938421
vt 0.9038887 0.9629079
vt 0.9152049 0.9693666
vt 0.9038887 0.9693666
vt 0.9119401 0.9629079
vt 0.8951877 0.9629079
vt 0.9038887 0.9693666
vt 0.8951877 0.9693666
vt 0.9038887 0.9629079
vt 0.8863522 0.9629079
vt 0.8951877 0.9693666
vt 0.8863522 0.9693666
vt 0.8951877 0.9629079
vt 0.8767846 0.9629079
vt 0.8863522 0.9693666
vt 0.8742146 0.9693666
vt 0.8863522 0.9629079
vt 0.8863522 0.9629079
vt 0.8742146 0.9693666
vt 0.8863522 0.9693666
vt 0.8767846 0.9629079
vt 0.8951877 0.9629079
vt 0.8863522 0.9693666
vt 0.8951877 0.9693666
vt 0.8863522 0.9629079
vt 0.9038887 0.9629079
vt 0.8951877 0.9693666
vt 0.9038887 0.9693666
vt 0.8951877 0.9629079
vt 0.9119401 0.9629079
vt 0.9038887 0.9693666
vt 0.9152049 0.9693666
vt 0.9038887 0.9629079
vt 0.9038887 0.9693666
vt 0.9139479 0.9763472
vt 0.9038887 0.9763472
vt 0.9152049 0.9693666
vt 0.8951877 0.9693666
vt 0.9038887 0.9763472
vt 0.8951877 0.9763472
vt 0.9038887 0.9693666
vt 0.8863522 0.9693666
vt 0.8951877 0.9763472
vt 0.8863522 0.9763472
vt 0.8951877 0.9693666
vt 0.8742146 0.9693666
vt 0.8863522 0.9763472
vt 0.8762105 0.9763472
vt 0.8863522 0.9693666
vt 0.8863522 0.9693666
vt 0.8761798 0.9763472
vt 0.8863522 0.9763472
vt 0.8742146 0.9693666
vt 0.8951877 0.9693666
vt 0.8863522 0.9763472
vt 0.8951877 0.9763472
vt 0.8863522 0.9693666
vt 0.9038887 0.9693666
vt 0.8951877 0.9763472
vt 0.9038887 0.9763472
vt 0.8951877 0.9693666
vt 0.9152049 0.9693666
vt 0.9038887 0.9763472
vt 0.9139479 0.9763472
vt 0.9038887 0.9693666
vt 0.6837799 0.7053133
vt 0.6471308 0.5602767
vt 0.6837747 0.5340779
vt 0.6471308 0.7053133
vt 0.6208408 0.7053133
vt 0.6208408 0.5602767
vt 0.7245444 0.5606021
vt 0.7245444 0.7053133
vt 0.7447031 0.5606822
vt 0.7447031 0.7053133
vt 0.6837506 0.710623
vt 0.6471308 0.710623
vt 0.6471308 0.7142558
vt 0.6837085 0.7142558
vt 0.6208408 0.710623
vt 0.6208408 0.7142558
vt 0.7245444 0.710623
vt 0.7245444 0.7142558
vt 0.7447031 0.710623
vt 0.7447031 0.7142558
vt 0.6208408 0.710623
vt 0.6471308 0.710623
vt 0.6471308 0.7053133
vt 0.6837844 0.7053133
vt 0.6837747 0.5340779
vt 0.6471308 0.5602767
vt 0.6208408 0.5602767
vt 0.6208408 0.7053133
vt 0.7245444 0.7053133
vt 0.7245444 0.5605897
vt 0.7447031 0.7053133
vt 0.7447031 0.5606535
vt 0.683759 0.710623
vt 0.7245444 0.710623
vt 0.7447031 0.710623
vn 0.5366067 0.5448966 -0.6443142
vn 0.05218834 -0.08319511 -0.9951658
vn 0.5366063 -0.07029728 -0.8408995
vn 0.0520023 0.6476943 -0.7601235
vn 0.5001187 0.8619189 -0.0835292
vn 0.05184205 0.9951944 -0.08306883
vn 0.5252992 0.6419647 0.5585178
vn 0.05218845 0.7649957 0.6419173
vn 0.5366075 0.0702992 0.8408986
vn 0.05218772 0.0831947 0.9951658
vn 0.5366066 -0.5448951 0.6443157
vn 0.05218637 -0.6448594 0.7625175
vn 0.5366068 -0.8408989 0.07030012
vn 0.05218605 -0.9951657 0.08319731
vn 0.5366067 -0.6443138 -0.5448973
vn 0.05218667 -0.762516 -0.6448612
vn 0.5366063 -0.07029728 -0.8408995
vn 0.05218834 -0.08319511 -0.9951658
vn 0.8979353 0.4310042 -0.08914873
vn 0.9263189 0.2393516 -0.2909366
vn 0.9386013 -0.02873987 -0.3438047
vn 0.9386018 0.02874268 0.3438032
vn 0.9364148 0.218758 0.2743578
vn 0.9386029 -0.3438003 0.02874016
vn 0.9386018 -0.2227799 0.263431
vn 0.9386021 -0.2634272 -0.2227825
vn 0.9386013 -0.02873987 -0.3438047
vn -0.00285934 0.6485937 -0.7611294
vn -0.002736688 -0.08334728 -0.9965168
vn -0.002736638 -0.08326772 -0.9965234
vn -0.002900249 0.6313951 -0.7754559
vn -0.002960379 0.9965211 -0.08328827
vn -0.002956299 0.9965221 -0.08327707
vn -0.002901877 0.7659856 0.6428512
vn -0.002856089 0.7514002 0.6598406
vn -0.002736583 0.08335289 0.9965163
vn -0.002736513 0.08327108 0.9965233
vn -0.002614301 -0.6457127 0.763576
vn -0.002614327 -0.6457593 0.7635366
vn -0.002563685 -0.9965204 0.08331063
vn -0.00256376 -0.9965208 0.08330623
vn -0.002614331 -0.7635371 -0.6457586
vn -0.002614416 -0.7635726 -0.6457168
vn -0.002736638 -0.08326772 -0.9965234
vn -0.002736688 -0.08334728 -0.9965168
vn 0.1341453 -0.1012565 -0.9857749
vn -0.6766149 0.4759916 -0.5618046
vn -0.6766776 -0.06129542 -0.7337236
vn 0.1348242 0.6545798 -0.7438734
vn -0.6790207 0.7314191 -0.06290521
vn 0.1339903 0.9858695 -0.1005378
vn -0.6774833 0.560978 0.4757311
vn 0.1389515 0.7439108 0.6536736
vn -0.6766772 0.06137858 0.733717
vn 0.1390805 0.099826 0.9852367
vn 0.1362041 -0.7451028 -0.6528938
vn -0.6767432 -0.5621279 -0.4754269
vn 0.1377736 -0.9852761 0.1012396
vn -0.6767666 -0.7336383 0.06133281
vn 0.1398782 -0.652566 0.7447091
vn -0.6767406 -0.475384 0.5621675
vn 0.1390805 0.099826 0.9852367
vn -0.6766772 0.06137858 0.733717
vn 0.9094353 0.3992834 0.1161902
vn 0.9069 0.1212549 -0.4035217
vn 0.9118316 -0.1182707 0.3931606
vn 0.9118316 -0.1182707 0.3931606
vn 0.9093613 -0.3973123 -0.1233085
vn -0.7248722 0.2096878 -0.6561946
vn -0.7248722 0.2096878 -0.6561946
vn -0.7248722 0.2096878 -0.6561946
vn -0.7248707 0.2096897 -0.6561957
vn -0.725808 0.6206983 -0.2965407
vn -0.725808 0.6206983 -0.2965407
vn -0.725808 0.6206983 -0.2965407
vn -0.7187941 0.6300301 -0.2939339
vn -0.7203314 0.6667237 0.1913175
vn -0.7203314 0.6667236 0.1913175
vn -0.7203314 0.6667237 0.1913175
vn -0.7271165 0.6618882 0.1822237
vn -0.7248701 0.3157322 0.6122717
vn -0.72487 0.3157321 0.6122717
vn -0.7248701 0.3157321 0.6122717
vn -0.7248685 0.3157315 0.6122739
vn -0.7249842 -0.2096507 0.6560826
vn -0.7249841 -0.2096507 0.6560827
vn -0.7249841 -0.2096507 0.6560827
vn -0.7249866 -0.2096475 0.656081
vn -0.7250729 -0.61208 0.3156381
vn -0.7250729 -0.61208 0.3156381
vn -0.7250729 -0.61208 0.3156381
vn -0.7250692 -0.612085 0.3156367
vn -0.7250717 -0.6559943 -0.2096244
vn -0.7250718 -0.6559942 -0.2096244
vn -0.7250718 -0.6559942 -0.2096244
vn -0.7250739 -0.6559928 -0.2096216
vn -0.7249879 -0.3156762 -0.612161
vn -0.7249879 -0.3156762 -0.612161
vn -0.7249879 -0.3156762 -0.612161
vn -0.7249883 -0.3156764 -0.6121604
vn 0.6233571 0.2380161 -0.7448317
vn 0.6233571 0.2380161 -0.7448317
vn 0.6233571 0.2380161 -0.7448317
vn 0.6233481 0.2380112 -0.7448407
vn 0.6391559 0.6756639 -0.3673662
vn 0.6391559 0.6756639 -0.3673662
vn 0.6391559 0.6756639 -0.3673662
vn 0.6281048 0.6794879 -0.3791841
vn 0.6264344 0.7372279 0.2531304
vn 0.6264344 0.7372279 0.2531304
vn 0.6264344 0.7372279 0.2531304
vn 0.6371826 0.7258581 0.2590913
vn 0.6233485 0.3583831 0.6949808
vn 0.6233485 0.3583831 0.6949808
vn 0.6233484 0.3583831 0.6949808
vn 0.6233528 0.3583784 0.6949794
vn 0.6236314 -0.2379386 0.7446269
vn 0.6236314 -0.2379386 0.7446269
vn 0.6236314 -0.2379386 0.7446269
vn 0.6236386 -0.2379425 0.7446195
vn 0.6238365 -0.694634 0.3582062
vn 0.6238365 -0.694634 0.3582062
vn 0.6238366 -0.6946339 0.3582062
vn 0.6238412 -0.6946324 0.3582011
vn 0.6238459 -0.7444612 -0.2378941
vn 0.6238459 -0.7444612 -0.2378941
vn 0.6238459 -0.7444612 -0.2378942
vn 0.6238377 -0.7444696 -0.2378897
vn 0.6236417 -0.3582723 -0.6947748
vn 0.6236417 -0.3582723 -0.6947748
vn 0.6236417 -0.3582723 -0.6947748
vn 0.6236356 -0.358279 -0.6947768
vn -0.00623535 0.9497303 0.313007
vn -0.007888097 0.9999634 -0.003303349
vn -0.004953634 0.9999828 -0.003156586
vn -0.008555728 0.9485489 0.3165149
vn -0.009649653 0.9477065 0.3189972
vn -0.007032208 0.9999694 -0.003451906
vn -0.003045782 0.9999895 -0.003423479
vn -0.006174275 0.950695 0.3100658
vn -0.004987936 0.9999806 -0.003735852
vn -0.007260265 0.9512154 0.308442
vn -0.005816004 0.5761368 0.8173326
vn -0.008458802 0.5781608 0.815879
vn -0.006241943 -0.01255767 0.9999017
vn -0.004213043 -0.007412276 0.9999636
vn -0.008523338 0.5796974 0.8147873
vn -0.004855425 -0.0171849 0.9998405
vn -0.005951236 0.5755778 0.8177254
vn -0.004022237 -0.001891632 0.9999901
vn -0.006384363 0.5756811 0.8176494
vn -0.004801379 2.522319E-05 0.9999886
vn -0.006788078 -0.609246 0.7929523
vn -0.007360021 -0.6038143 0.797091
vn -0.008069555 -0.9547877 0.2971787
vn -0.005950407 -0.9557891 0.2939929
vn -0.004514705 -0.9999743 -0.005576266
vn -0.008718603 -0.9999461 -0.00563118
vn -0.006503326 -0.999963 -0.00562005
vn -0.008368079 -0.9540812 0.2994311
vn -0.005406792 -0.9567787 0.2907666
vn -0.001323918 -0.9999818 -0.005897508
vn -0.006733142 -0.9572152 0.2892987
vn -0.004869413 -0.9999706 -0.005940608
vn -0.005518099 -0.5972515 0.802035
vn -0.005107366 -0.5925058 0.80555
vn -0.006879187 -0.5909273 0.8066955
g Libel_Flag_0
f 3/3/3 2/2/2 1/1/1
f 4/4/4 1/1/1 2/2/2
f 1/1/1 4/4/4 5/5/5
f 6/6/6 5/5/5 4/4/4
f 5/5/5 6/6/6 7/7/7
f 8/8/8 7/7/7 6/6/6
f 7/7/7 8/8/8 9/9/9
f 10/10/10 9/9/9 8/8/8
f 9/9/9 10/10/10 11/11/11
f 12/12/12 11/11/11 10/10/10
f 11/11/11 12/12/12 13/13/13
f 14/14/14 13/13/13 12/12/12
f 13/13/13 14/14/14 15/15/15
f 16/16/16 15/15/15 14/14/14
f 15/15/15 16/16/16 17/17/17
f 18/18/18 17/17/17 16/16/16
f 5/5/5 7/7/7 19/19/19
f 19/19/19 20/20/20 5/5/5
f 1/1/1 5/5/5 20/20/20
f 20/20/20 21/21/21 1/1/1
f 3/3/3 1/1/1 21/21/21
f 9/9/9 11/11/11 22/22/22
f 22/22/22 23/23/23 9/9/9
f 23/23/23 19/19/19 7/7/7
f 7/7/7 9/9/9 23/23/23
f 13/13/13 15/15/15 24/24/24
f 24/24/24 25/25/25 13/13/13
f 25/25/25 22/22/22 11/11/11
f 11/11/11 13/13/13 25/25/25
f 26/26/26 24/24/24 15/15/15
f 15/15/15 17/17/17 26/26/26
f 27/27/27 26/26/26 17/17/17
f 30/30/30 29/29/29 28/28/28
f 31/31/31 28/28/28 29/29/29
f 28/28/28 31/31/31 32/32/32
f 33/33/33 32/32/32 31/31/31
f 32/32/32 33/33/33 34/34/34
f 35/35/35 34/34/34 33/33/33
f 34/34/34 35/35/35 36/36/36
f 37/37/37 36/36/36 35/35/35
f 36/36/36 37/37/37 38/38/38
f 39/39/39 38/38/38 37/37/37
f 38/38/38 39/39/39 40/40/40
f 41/41/41 40/40/40 39/39/39
f 40/40/40 41/41/41 42/42/42
f 43/43/43 42/42/42 41/41/41
f 42/42/42 43/43/43 44/44/44
f 45/45/45 44/44/44 43/43/43
f 48/48/48 47/47/47 46/46/46
f 49/49/49 46/46/46 47/47/47
f 47/47/47 50/50/50 49/49/49
f 51/51/51 49/49/49 50/50/50
f 50/50/50 52/52/52 51/51/51
f 53/53/53 51/51/51 52/52/52
f 52/52/52 54/54/54 53/53/53
f 55/55/55 53/53/53 54/54/54
f 46/46/46 56/56/56 48/48/48
f 57/57/57 48/48/48 56/56/56
f 56/56/56 58/58/58 57/57/57
f 59/59/59 57/57/57 58/58/58
f 58/58/58 60/60/60 59/59/59
f 61/61/61 59/59/59 60/60/60
f 60/60/60 62/62/62 61/61/61
f 63/63/63 61/61/61 62/62/62
f 51/51/51 64/64/64 49/49/49
f 53/53/53 64/64/64 51/51/51
f 65/65/65 49/49/49 64/64/64
f 64/64/64 53/53/53 66/66/66
f 55/55/55 66/66/66 53/53/53
f 60/60/60 67/67/67 62/62/62
f 67/67/67 60/60/60 68/68/68
f 58/58/58 68/68/68 60/60/60
f 56/56/56 68/68/68 58/58/58
f 68/68/68 56/56/56 65/65/65
f 46/46/46 65/65/65 56/56/56
f 49/49/49 65/65/65 46/46/46
f 71/71/71 70/70/70 69/69/69
f 72/72/72 69/69/69 70/70/70
f 75/75/75 74/74/74 73/73/73
f 76/76/76 73/73/73 74/74/74
f 79/79/79 78/78/78 77/77/77
f 80/80/80 77/77/77 78/78/78
f 83/83/83 82/82/82 81/81/81
f 84/84/84 81/81/81 82/82/82
f 87/87/87 86/86/86 85/85/85
f 88/88/88 85/85/85 86/86/86
f 91/91/91 90/90/90 89/89/89
f 92/92/92 89/89/89 90/90/90
f 95/95/95 94/94/94 93/93/93
f 96/96/96 93/93/93 94/94/94
f 99/99/99 98/98/98 97/97/97
f 100/100/100 97/97/97 98/98/98
f 103/103/103 102/102/102 101/101/101
f 104/104/104 101/101/101 102/102/102
f 107/107/107 106/106/106 105/105/105
f 108/108/108 105/105/105 106/106/106
f 111/111/111 110/110/110 109/109/109
f 112/112/112 109/109/109 110/110/110
f 115/115/115 114/114/114 113/113/113
f 116/116/116 113/113/113 114/114/114
f 119/119/119 118/118/118 117/117/117
f 120/120/120 117/117/117 118/118/118
f 123/123/123 122/122/122 121/121/121
f 124/124/124 121/121/121 122/122/122
f 127/127/127 126/126/126 125/125/125
f 128/128/128 125/125/125 126/126/126
f 131/131/131 130/130/130 129/129/129
f 132/132/132 129/129/129 130/130/130
f 135/135/135 134/134/134 133/133/133
f 136/136/136 133/133/133 134/134/134
f 136/136/136 134/134/134 137/137/137
f 138/138/138 137/137/137 134/134/134
f 135/135/135 133/133/133 139/139/139
f 140/140/140 139/139/139 133/133/133
f 139/139/139 140/140/140 141/141/141
f 142/142/142 141/141/141 140/140/140
f 133/133/133 136/136/136 143/143/143
f 144/144/144 143/143/143 136/136/136
f 136/136/136 137/137/137 144/144/144
f 144/144/144 145/145/145 143/143/143
f 146/146/146 143/143/143 145/145/145
f 144/144/144 147/147/147 145/145/145
f 147/147/147 144/144/144 137/137/137
f 148/148/148 145/145/145 147/147/147
f 143/143/143 146/146/146 149/149/149
f 150/150/150 149/149/149 146/146/146
f 149/149/149 150/150/150 151/151/151
f 142/142/142 140/140/140 151/151/151
f 149/149/149 151/151/151 140/140/140
f 152/152/152 151/151/151 150/150/150
f 140/140/140 133/133/133 149/149/149
f 143/143/143 149/149/149 133/133/133
f 148/148/148 153/153/153 145/145/145
f 154/154/154 145/145/145 153/153/153
f 145/145/145 154/154/154 146/146/146
f 154/154/154 153/153/153 155/155/155
f 155/155/155 156/156/156 154/154/154
f 156/156/156 155/155/155 157/157/157
f 158/158/158 157/157/157 155/155/155
f 158/158/158 155/155/155 159/159/159
f 160/160/160 159/159/159 155/155/155
f 160/160/160 155/155/155 153/153/153
f 156/156/156 157/157/157 161/161/161
f 162/162/162 161/161/161 157/157/157
f 161/161/161 162/162/162 163/163/163
f 164/164/164 163/163/163 162/162/162
f 165/165/165 154/154/154 156/156/156
f 156/156/156 161/161/161 165/165/165
f 161/161/161 163/163/163 166/166/166
f 166/166/166 165/165/165 161/161/161
f 167/167/167 166/166/166 163/163/163
f 165/165/165 146/146/146 154/154/154
f 166/166/166 150/150/150 165/165/165
f 146/146/146 165/165/165 150/150/150
f 167/167/167 152/152/152 166/166/166
f 150/150/150 166/166/166 152/152/152
