g Libel_Pillar_01
v -0.5382758 1.300208 0.5565273
v -0.5530167 4.82808 -0.5503672
v -0.5530167 4.798874 0.5565104
v -0.538002 1.299824 -0.5502875
v 0.5553434 4.82808 -0.5503672
v 0.5682358 1.299824 -0.5502875
v 0.5684332 1.300208 0.5565273
v -0.5530167 4.798874 0.5565104
v 0.5553434 4.798874 0.5565104
v -0.5382758 1.300208 0.5565273
v 0.5682358 1.299824 -0.5502875
v 0.5553434 4.82808 -0.5503672
v -0.5382758 1.300208 0.5565273
v -0.6647494 1.286847 -0.7002741
v -0.538002 1.299824 -0.5502875
v -0.6640685 1.288375 0.7056171
v 0.7165277 1.286847 -0.7003229
v 0.5682358 1.299824 -0.5502875
v 0.5682358 1.299824 -0.5502875
v 0.7153992 1.288375 0.7056554
v 0.5684332 1.300208 0.5565273
v 0.7165277 1.286847 -0.7003229
v -0.6640685 1.288375 0.7056171
v -0.5382758 1.300208 0.5565273
v -0.5942955 1.079782 0.6362045
v -0.5902569 0.2297883 -0.6260974
v -0.5950091 1.078428 -0.6293514
v -0.5895486 0.2297219 0.631647
v 0.6416266 0.2297442 -0.6260975
v 0.6467894 1.078428 -0.6293514
v 0.6467894 1.078428 -0.6293514
v 0.6405172 0.2297219 0.6316471
v 0.6456711 1.079782 0.6362047
v 0.6416266 0.2297442 -0.6260975
v -0.5942955 1.079782 0.6362045
v -0.5895486 0.2297219 0.631647
v -0.7741536 6.052165 0.7885135
v 0.7552254 6.052162 -0.7885073
v 0.7552254 6.052165 0.7885129
v -0.7741536 6.052162 -0.7885073
v -0.7080564 5.857875 0.7215143
v -0.7039453 5.407711 -0.7185421
v -0.7080564 5.859923 -0.7205591
v -0.7039453 5.407711 0.7175977
v 0.6853088 5.407711 -0.7185421
v 0.6888376 5.859923 -0.7205591
v 0.6888376 5.857875 0.721514
v -0.7039453 5.407711 0.7175977
v -0.7080564 5.857875 0.7215143
v 0.6853088 5.407711 0.7175977
v 0.6888376 5.859923 -0.7205591
v 0.6853088 5.407711 -0.7185421
v -0.5530167 4.798874 0.5565104
v -0.6533746 5.196375 -0.6661863
v -0.6533746 5.196376 0.6661898
v -0.5530167 4.82808 -0.5503672
v 0.6344476 5.196375 -0.6661863
v 0.5553434 4.82808 -0.5503672
v 0.5553434 4.798874 0.5565104
v -0.6533746 5.196376 0.6661898
v 0.6344476 5.196376 0.6661904
v -0.5530167 4.798874 0.5565104
v 0.5553434 4.82808 -0.5503672
v 0.6344476 5.196375 -0.6661863
v 0.7552254 6.052165 0.7885129
v -0.7707773 5.886603 0.785171
v -0.7741536 6.052165 0.7885135
v 0.7518483 5.886603 0.7851702
v 0.7552254 6.052162 -0.7885073
v 0.7518482 5.886601 -0.7851636
v 0.7518482 5.886601 -0.7851636
v -0.7741536 6.052162 -0.7885073
v -0.7707773 5.886601 -0.7851636
v 0.7552254 6.052162 -0.7885073
v -0.7741536 6.052165 0.7885135
v -0.7707773 5.886603 0.785171
v -0.7532892 5.236087 0.7673108
v -0.6533746 5.196375 -0.6661863
v -0.7532892 5.236087 -0.767306
v -0.6533746 5.196376 0.6661898
v 0.734362 5.236087 0.7673109
v -0.6533746 5.196376 0.6661898
v -0.7532892 5.236087 0.7673108
v 0.6344476 5.196376 0.6661904
v 0.734362 5.236087 -0.767306
v 0.6344476 5.196376 0.6661904
v 0.734362 5.236087 0.7673109
v 0.6344476 5.196375 -0.6661863
v 0.6344476 5.196375 -0.6661863
v -0.7532892 5.236087 -0.767306
v -0.6533746 5.196375 -0.6661863
v 0.734362 5.236087 -0.767306
v -0.6647494 1.286847 -0.7002741
v -0.6659752 1.127487 0.7080833
v -0.6666995 1.125988 -0.7012206
v -0.6640685 1.288375 0.7056171
v 0.7165277 1.286847 -0.7003229
v 0.718042 1.125988 -0.7012594
v 0.7153992 1.288375 0.7056554
v 0.718042 1.125988 -0.7012594
v 0.7168773 1.127487 0.7081041
v 0.7165277 1.286847 -0.7003229
v -0.6640685 1.288375 0.7056171
v -0.6659752 1.127487 0.7080833
v -0.6666995 1.125988 -0.7012206
v -0.5942955 1.079782 0.6362045
v -0.5950091 1.078428 -0.6293514
v -0.6659752 1.127487 0.7080833
v 0.718042 1.125988 -0.7012594
v -0.5950091 1.078428 -0.6293514
v 0.6467894 1.078428 -0.6293514
v -0.6666995 1.125988 -0.7012206
v 0.7168773 1.127487 0.7081041
v 0.6467894 1.078428 -0.6293514
v 0.6456711 1.079782 0.6362047
v 0.718042 1.125988 -0.7012594
v -0.6659752 1.127487 0.7080833
v 0.6456711 1.079782 0.6362047
v -0.5942955 1.079782 0.6362045
v 0.7168773 1.127487 0.7081041
v -0.7153218 0.2003979 -0.7616723
v -0.7359759 3.833771E-06 0.7841504
v -0.7368327 0.0002412414 -0.7831187
v -0.7144891 0.2001671 0.762704
v 0.7526402 0.2002444 -0.7616723
v 0.7741582 8.338928E-05 -0.7831187
v 0.7513359 0.2001671 0.7627047
v 0.7741582 8.338928E-05 -0.7831187
v 0.7728159 3.852844E-06 0.7841512
v 0.7526402 0.2002444 -0.7616723
v -0.7144891 0.2001671 0.762704
v -0.7359759 3.833771E-06 0.7841504
v -0.5902569 0.2297883 -0.6260974
v -0.7144891 0.2001671 0.762704
v -0.7153218 0.2003979 -0.7616723
v -0.5895486 0.2297219 0.631647
v 0.6416266 0.2297442 -0.6260975
v 0.7526402 0.2002444 -0.7616723
v 0.6405172 0.2297219 0.6316471
v 0.7526402 0.2002444 -0.7616723
v 0.7513359 0.2001671 0.7627047
v 0.6416266 0.2297442 -0.6260975
v -0.5895486 0.2297219 0.631647
v -0.7144891 0.2001671 0.762704
v -0.7565158 5.383816 -0.7705809
v -0.7532892 5.236087 0.7673108
v -0.7532892 5.236087 -0.767306
v -0.7565158 5.383816 0.770586
v 0.7375884 5.383816 -0.7705809
v 0.734362 5.236087 -0.767306
v -0.7565158 5.383816 0.770586
v 0.734362 5.236087 0.7673109
v -0.7532892 5.236087 0.7673108
v 0.7375884 5.383816 0.7705859
v 0.734362 5.236087 -0.767306
v 0.7375884 5.383816 -0.7705809
v -0.7039453 5.407711 -0.7185421
v -0.7565158 5.383816 0.770586
v -0.7565158 5.383816 -0.7705809
v -0.7039453 5.407711 0.7175977
v -0.7039453 5.407711 0.7175977
v 0.7375884 5.383816 0.7705859
v -0.7565158 5.383816 0.770586
v 0.6853088 5.407711 0.7175977
v 0.6853088 5.407711 0.7175977
v 0.7375884 5.383816 -0.7705809
v 0.7375884 5.383816 0.7705859
v 0.6853088 5.407711 -0.7185421
v 0.6853088 5.407711 -0.7185421
v -0.7565158 5.383816 -0.7705809
v 0.7375884 5.383816 -0.7705809
v -0.7039453 5.407711 -0.7185421
v -0.7707773 5.886601 -0.7851636
v -0.7080564 5.857875 0.7215143
v -0.7080564 5.859923 -0.7205591
v -0.7707773 5.886603 0.785171
v 0.6888376 5.857875 0.721514
v -0.7707773 5.886603 0.785171
v 0.7518483 5.886603 0.7851702
v -0.7080564 5.857875 0.7215143
v 0.6888376 5.857875 0.721514
v 0.7518482 5.886601 -0.7851636
v 0.6888376 5.859923 -0.7205591
v 0.7518483 5.886603 0.7851702
v -0.7080564 5.859923 -0.7205591
v 0.7518482 5.886601 -0.7851636
v -0.7707773 5.886601 -0.7851636
v 0.6888376 5.859923 -0.7205591
vt 0.9962264 0.7239977
vt 0.9167994 0.9953774
vt 0.9962264 0.9953774
vt 0.9167994 0.7239977
vt 0.8373328 0.9953774
vt 0.8373328 0.7239977
vt 0.9167994 0.7239977
vt 0.8373328 0.9953774
vt 0.9167994 0.9953774
vt 0.8373328 0.7239977
vt 0.9962264 0.7239977
vt 0.9962264 0.9953774
vt 0.9962263 0.7203943
vt 0.9576482 0.7106878
vt 0.9576482 0.7203943
vt 0.9962263 0.7106878
vt 0.8785931 0.7106878
vt 0.8785931 0.7203943
vt 0.9962263 0.7203943
vt 0.9575874 0.7106878
vt 0.9575874 0.7203943
vt 0.9962263 0.7106878
vt 0.8785931 0.7106878
vt 0.8785931 0.7203943
vt 0.9962263 0.6929513
vt 0.9576482 0.6471784
vt 0.9576482 0.6929513
vt 0.9962263 0.6471784
vt 0.8785931 0.6471784
vt 0.8785931 0.6929513
vt 0.9962263 0.6929513
vt 0.9575874 0.6471784
vt 0.9575874 0.6929513
vt 0.9962263 0.6471784
vt 0.8785931 0.6929513
vt 0.8785931 0.6471784
vt 0.8335955 0.8363537
vt 0.7623966 0.7651546
vt 0.7623966 0.8363537
vt 0.8335955 0.7651546
vt 0.6789747 0.9778621
vt 0.7563736 0.9513611
vt 0.7563736 0.9778621
vt 0.6789747 0.9513611
vt 0.8335978 0.9513611
vt 0.8335978 0.9778621
vt 0.7561989 0.9778621
vt 0.8335978 0.9513611
vt 0.8335978 0.9778621
vt 0.7561989 0.9513611
vt 0.6789747 0.9778621
vt 0.6789747 0.9513611
vt 0.6992218 0.9196703
vt 0.7562743 0.9290289
vt 0.6885544 0.929029
vt 0.7560735 0.9196703
vt 0.8248147 0.929029
vt 0.8149311 0.9196703
vt 0.7564991 0.9196703
vt 0.8240181 0.929029
vt 0.7562982 0.9290289
vt 0.8133507 0.9196703
vt 0.6976414 0.9196703
vt 0.6877578 0.929029
vt 0.7561989 0.9949146
vt 0.8335978 0.9843064
vt 0.8335978 0.9949146
vt 0.7561989 0.9843064
vt 0.6789747 0.9949146
vt 0.6789747 0.9843064
vt 0.8335978 0.9843064
vt 0.7563736 0.9949146
vt 0.7563736 0.9843064
vt 0.8335978 0.9949146
vt 0.6789747 0.9949146
vt 0.6789747 0.9843064
vt 0.6789747 0.9391244
vt 0.7562743 0.9290289
vt 0.7563736 0.9391244
vt 0.6885544 0.929029
vt 0.7561989 0.9391244
vt 0.8240181 0.929029
vt 0.8335978 0.9391244
vt 0.7562982 0.9290289
vt 0.6789747 0.9391244
vt 0.7562982 0.9290289
vt 0.7561989 0.9391244
vt 0.6877578 0.929029
vt 0.8248147 0.929029
vt 0.7563736 0.9391244
vt 0.7562743 0.9290289
vt 0.8335978 0.9391244
vt 0.9576482 0.7106878
vt 0.9962263 0.699087
vt 0.9576482 0.699087
vt 0.9962263 0.7106878
vt 0.8785931 0.7106878
vt 0.8785931 0.699087
vt 0.9575874 0.7106878
vt 0.9962263 0.699087
vt 0.9575874 0.699087
vt 0.9962263 0.7106878
vt 0.8785931 0.7106878
vt 0.8785931 0.699087
vt 0.9576482 0.699087
vt 0.9962263 0.6929513
vt 0.9576482 0.6929513
vt 0.9962263 0.699087
vt 0.8785931 0.699087
vt 0.9576482 0.6929513
vt 0.8785931 0.6929513
vt 0.9576482 0.699087
vt 0.9575874 0.699087
vt 0.9962263 0.6929513
vt 0.9575874 0.6929513
vt 0.9962263 0.699087
vt 0.8785931 0.699087
vt 0.9575874 0.6929513
vt 0.8785931 0.6929513
vt 0.9575874 0.699087
vt 0.9576482 0.6382813
vt 0.9962263 0.6241712
vt 0.9576482 0.6241712
vt 0.9962263 0.6382813
vt 0.8785931 0.6382813
vt 0.8785931 0.6241712
vt 0.9575874 0.6382813
vt 0.9962263 0.6241712
vt 0.9575874 0.6241712
vt 0.9962263 0.6382813
vt 0.8785931 0.6382813
vt 0.8785931 0.6241712
vt 0.9576482 0.6471784
vt 0.9962263 0.6382813
vt 0.9576482 0.6382813
vt 0.9962263 0.6471784
vt 0.8785931 0.6471784
vt 0.8785931 0.6382813
vt 0.9575874 0.6471784
vt 0.9962263 0.6382813
vt 0.9575874 0.6382813
vt 0.9962263 0.6471784
vt 0.8785931 0.6471784
vt 0.8785931 0.6382813
vt 0.7563736 0.9450149
vt 0.6789747 0.9391244
vt 0.7563736 0.9391244
vt 0.6789747 0.9450149
vt 0.8335978 0.9450149
vt 0.8335978 0.9391244
vt 0.8335978 0.9450149
vt 0.7561989 0.9391244
vt 0.8335978 0.9391244
vt 0.7561989 0.945048
vt 0.6789747 0.9391244
vt 0.6789747 0.9450149
vt 0.7563736 0.9513611
vt 0.6789747 0.9450149
vt 0.7563736 0.9450149
vt 0.6789747 0.9513611
vt 0.8335978 0.9513611
vt 0.7561989 0.945048
vt 0.8335978 0.9450149
vt 0.7561989 0.9513611
vt 0.7561989 0.9513611
vt 0.6789747 0.9450149
vt 0.7561989 0.945048
vt 0.6789747 0.9513611
vt 0.8335978 0.9513611
vt 0.7563736 0.9450149
vt 0.8335978 0.9450149
vt 0.7563736 0.9513611
vt 0.7563736 0.9843064
vt 0.6789747 0.9778621
vt 0.7563736 0.9778621
vt 0.6789747 0.9843064
vt 0.7561989 0.9778621
vt 0.8335978 0.9843064
vt 0.7561989 0.9843064
vt 0.8335978 0.9778621
vt 0.7561989 0.9778621
vt 0.6789747 0.9843064
vt 0.6789747 0.9778621
vt 0.7561989 0.9843064
vt 0.7563736 0.9778621
vt 0.8335978 0.9843064
vt 0.7563736 0.9843064
vt 0.8335978 0.9778621
vn -0.7063076 -0.002996549 0.7078987
vn -0.6949322 -0.2177168 -0.6853238
vn -0.6975304 -0.1951102 0.6894805
vn -0.705983 -0.003020359 -0.7082223
vn 0.707541 -0.1913263 -0.6802793
vn 0.7078077 0.002620165 -0.7064003
vn 0.7080848 0.002652622 0.7061225
vn -0.6975304 -0.1951102 0.6894805
vn 0.7081555 -0.1707364 0.6851021
vn -0.7063076 -0.002996549 0.7078987
vn 0.7078077 0.002620165 -0.7064003
vn 0.707541 -0.1913263 -0.6802793
vn -0.04937048 0.9980691 0.03769324
vn -0.04499814 0.9978337 -0.0479919
vn -0.05262066 0.9977371 -0.04185547
vn -0.04245938 0.9981553 0.04339579
vn 0.04281542 0.998113 -0.04401293
vn 0.043126 0.9981199 -0.04355152
vn 0.043126 0.9981199 -0.04355152
vn 0.04043911 0.9983918 0.03973034
vn 0.04049876 0.998406 0.03931007
vn 0.04281542 0.998113 -0.04401293
vn -0.04245938 0.9981553 0.04339579
vn -0.04937048 0.9980691 0.03769324
vn -0.7066945 -0.007742186 0.7074765
vn -0.7068968 -0.006667659 -0.7072852
vn -0.7079287 -0.006672194 -0.7062524
vn -0.7068237 -0.007739425 0.7073475
vn 0.7069053 -0.007012215 -0.7072735
vn 0.7081462 -0.007011636 -0.706031
vn 0.7081462 -0.007011636 -0.706031
vn 0.7066062 -0.008080969 0.7075608
vn 0.7066854 -0.008077749 0.7074819
vn 0.7069053 -0.007012215 -0.7072735
vn -0.7066945 -0.007742186 0.7074765
vn -0.7068237 -0.007739425 0.7073475
vn 0 1 -1.548113E-06
vn 0 1 -1.548113E-06
vn 0 1 -1.548113E-06
vn 0 1 -1.548113E-06
vn -0.7074692 -0.01260326 0.7066319
vn -0.7060211 -0.00958277 -0.708126
vn -0.7077843 -0.009585323 -0.7063636
vn -0.7069524 -0.01260864 0.7071487
vn 0.706323 -0.008669135 -0.7078366
vn 0.7075066 -0.008677943 -0.7066535
vn 0.7071915 -0.01169393 0.7069253
vn -0.7069524 -0.01260864 0.7071487
vn -0.7074692 -0.01260326 0.7066319
vn 0.7072569 -0.01168895 0.7068601
vn 0.7075066 -0.008677943 -0.7066535
vn 0.706323 -0.008669135 -0.7078366
vn -0.6975304 -0.1951102 0.6894805
vn -0.645887 -0.3807911 -0.6616858
vn -0.6585853 -0.350071 0.6661199
vn -0.6949322 -0.2177168 -0.6853238
vn 0.6457433 -0.3518078 -0.6776776
vn 0.707541 -0.1913263 -0.6802793
vn 0.7081555 -0.1707364 0.6851021
vn -0.6585853 -0.350071 0.6661199
vn 0.6578112 -0.3212545 0.6812342
vn -0.6975304 -0.1951102 0.6894805
vn 0.707541 -0.1913263 -0.6802793
vn 0.6457433 -0.3518078 -0.6776776
vn 0.7068614 -0.02868783 0.7067701
vn -0.7067692 -0.02868427 0.7068624
vn -0.7068602 -0.02868427 0.7067714
vn 0.7067685 -0.02868785 0.706863
vn 0.7068606 -0.02869281 -0.7067707
vn 0.7067692 -0.02869281 -0.7068622
vn 0.7067692 -0.02869281 -0.7068622
vn -0.7068594 -0.02868926 -0.706772
vn -0.7067703 -0.02868923 -0.7068612
vn 0.7068606 -0.02869281 -0.7067707
vn -0.7068602 -0.02868427 0.7067714
vn -0.7067692 -0.02868427 0.7068624
vn -0.369354 -0.9292888 0
vn -0.369354 -0.9292888 0
vn -0.369354 -0.9292888 0
vn -0.3693435 -0.929293 8.514044E-07
vn 0 -0.9307998 0.3655295
vn 0 -0.9307998 0.3655295
vn 0 -0.9307998 0.3655295
vn -1.732401E-07 -0.9307992 0.3655311
vn 0.3693447 -0.9292925 0
vn 0.3693447 -0.9292925 0
vn 0.3693446 -0.9292925 0
vn 0.3693552 -0.9292883 8.513997E-07
vn 0 -0.9307944 -0.3655431
vn 0 -0.9307944 -0.365543
vn 0 -0.9307944 -0.365543
vn 0 -0.9307944 -0.365543
vn -0.7060665 0.01271264 -0.7080315
vn -0.7062842 0.01923111 0.7076672
vn -0.7083886 0.01273714 -0.7057077
vn -0.7073638 0.01920828 0.7065886
vn 0.7067665 0.0107751 -0.7073649
vn 0.7078974 0.01076509 -0.7062333
vn 0.7078316 0.01726133 0.7061703
vn 0.7078974 0.01076509 -0.7062333
vn 0.7056037 0.01726975 0.7083963
vn 0.7067665 0.0107751 -0.7073649
vn -0.7073638 0.01920828 0.7065886
vn -0.7062842 0.01923111 0.7076672
vn -0.5536577 -0.8327435 0.001203294
vn -0.5536577 -0.8327435 0.001203294
vn -0.5536577 -0.8327435 0.001203294
vn -0.5532264 -0.8330301 0.001170042
vn -1.024877E-07 -0.8340705 -0.5516578
vn -1.024877E-07 -0.8340705 -0.5516579
vn -1.024877E-07 -0.8340705 -0.5516578
vn -1.55221E-05 -0.833941 -0.5518537
vn 0.5556232 -0.831433 0.001380778
vn 0.5556232 -0.831433 0.001380778
vn 0.5556232 -0.831433 0.001380778
vn 0.5561106 -0.8311073 0.001343282
vn 0 -0.8331974 0.5529757
vn 0 -0.8331974 0.5529757
vn 0 -0.8331974 0.5529757
vn -8.311766E-06 -0.8332667 0.5528712
vn -0.699221 0.1500404 -0.6989834
vn -0.6989315 0.1499534 0.6992916
vn -0.6993589 0.1500406 -0.6988455
vn -0.6988828 0.1499532 0.6993402
vn 0.6993079 0.1500613 -0.6988921
vn 0.6994951 0.150061 -0.6987046
vn 0.6987598 0.1499306 0.6994681
vn 0.6994951 0.150061 -0.6987046
vn 0.6988522 0.1499303 0.6993758
vn 0.6993079 0.1500613 -0.6988921
vn -0.6988828 0.1499532 0.6993402
vn -0.6989315 0.1499534 0.6992916
vn -0.1179065 0.9874246 -0.1053123
vn -0.113075 0.9869419 0.1147165
vn -0.1101679 0.9875265 -0.112492
vn -0.1176363 0.9868998 0.1104102
vn 0.1358182 0.985347 -0.1031727
vn 0.1146088 0.9860483 -0.1207206
vn 0.1350711 0.9849437 0.1078967
vn 0.1146088 0.9860483 -0.1207206
vn 0.1173992 0.9854434 0.1229575
vn 0.1358182 0.985347 -0.1031727
vn -0.1176363 0.9868998 0.1104102
vn -0.113075 0.9869419 0.1147165
vn -0.7066927 -0.03110457 -0.7068366
vn -0.7068402 -0.03110599 0.706689
vn -0.7068396 -0.03110452 -0.7066897
vn -0.7066923 -0.03110597 0.7068369
vn 0.7066923 -0.03110348 -0.706837
vn 0.70684 -0.03110343 -0.7066893
vn -0.7066923 -0.03110597 0.7068369
vn 0.7068403 -0.03110386 0.7066889
vn -0.7068402 -0.03110599 0.706689
vn 0.7066921 -0.03110384 0.7068371
vn 0.70684 -0.03110343 -0.7066893
vn 0.7066923 -0.03110348 -0.706837
vn -0.4137882 0.9103732 0
vn -0.4137882 0.9103732 0
vn -0.4137882 0.9103732 0
vn -0.4137882 0.9103732 0
vn 0 0.9115998 0.4110789
vn 0 0.9115997 0.4110789
vn 0 0.9115997 0.4110789
vn 0 0.9115996 0.4110793
vn 0.4156933 0.9095049 0
vn 0.4156932 0.9095049 0
vn 0.4156932 0.9095049 0
vn 0.4156933 0.9095049 0
vn 0 0.9087769 -0.4172824
vn 0 0.9087769 -0.4172824
vn 0 0.9087769 -0.4172824
vn 0 0.9087769 -0.4172824
vn -0.3902591 -0.9207041 -0.001307781
vn -0.3902591 -0.9207041 -0.00130778
vn -0.3902591 -0.9207041 -0.00130778
vn -0.4164188 -0.9091729 1.060121E-06
vn 2.061106E-07 -0.9114808 0.4113424
vn 2.061107E-07 -0.9114808 0.4113424
vn 2.061107E-07 -0.9114808 0.4113424
vn 0 -0.911482 0.4113398
vn 0.3887362 -0.9213482 -0.001308695
vn 0.3887362 -0.9213482 -0.001308695
vn 0.3887362 -0.9213482 -0.001308695
vn 0.4148337 -0.9098972 1.040812E-06
vn 0 -0.9242977 -0.3816723
vn 0 -0.9242977 -0.3816723
vn 0 -0.9242977 -0.3816723
vn 0 -0.9242977 -0.3816724
g Libel_Pillar_01_0
f 3/3/3 2/2/2 1/1/1
f 4/4/4 1/1/1 2/2/2
f 2/2/2 5/5/5 4/4/4
f 6/6/6 4/4/4 5/5/5
f 9/9/9 8/8/8 7/7/7
f 10/10/10 7/7/7 8/8/8
f 7/7/7 11/11/11 9/9/9
f 12/12/12 9/9/9 11/11/11
f 15/15/15 14/14/14 13/13/13
f 16/16/16 13/13/13 14/14/14
f 14/14/14 15/15/15 17/17/17
f 18/18/18 17/17/17 15/15/15
f 21/21/21 20/20/20 19/19/19
f 22/22/22 19/19/19 20/20/20
f 20/20/20 21/21/21 23/23/23
f 24/24/24 23/23/23 21/21/21
f 27/27/27 26/26/26 25/25/25
f 28/28/28 25/25/25 26/26/26
f 26/26/26 27/27/27 29/29/29
f 30/30/30 29/29/29 27/27/27
f 33/33/33 32/32/32 31/31/31
f 34/34/34 31/31/31 32/32/32
f 33/33/33 35/35/35 32/32/32
f 36/36/36 32/32/32 35/35/35
f 39/39/39 38/38/38 37/37/37
f 40/40/40 37/37/37 38/38/38
f 43/43/43 42/42/42 41/41/41
f 44/44/44 41/41/41 42/42/42
f 42/42/42 43/43/43 45/45/45
f 46/46/46 45/45/45 43/43/43
f 49/49/49 48/48/48 47/47/47
f 50/50/50 47/47/47 48/48/48
f 47/47/47 50/50/50 51/51/51
f 52/52/52 51/51/51 50/50/50
f 55/55/55 54/54/54 53/53/53
f 56/56/56 53/53/53 54/54/54
f 54/54/54 57/57/57 56/56/56
f 58/58/58 56/56/56 57/57/57
f 61/61/61 60/60/60 59/59/59
f 62/62/62 59/59/59 60/60/60
f 59/59/59 63/63/63 61/61/61
f 64/64/64 61/61/61 63/63/63
f 67/67/67 66/66/66 65/65/65
f 68/68/68 65/65/65 66/66/66
f 65/65/65 68/68/68 69/69/69
f 70/70/70 69/69/69 68/68/68
f 73/73/73 72/72/72 71/71/71
f 74/74/74 71/71/71 72/72/72
f 72/72/72 73/73/73 75/75/75
f 76/76/76 75/75/75 73/73/73
f 79/79/79 78/78/78 77/77/77
f 80/80/80 77/77/77 78/78/78
f 83/83/83 82/82/82 81/81/81
f 84/84/84 81/81/81 82/82/82
f 87/87/87 86/86/86 85/85/85
f 88/88/88 85/85/85 86/86/86
f 91/91/91 90/90/90 89/89/89
f 92/92/92 89/89/89 90/90/90
f 95/95/95 94/94/94 93/93/93
f 96/96/96 93/93/93 94/94/94
f 93/93/93 97/97/97 95/95/95
f 98/98/98 95/95/95 97/97/97
f 101/101/101 100/100/100 99/99/99
f 102/102/102 99/99/99 100/100/100
f 99/99/99 103/103/103 101/101/101
f 104/104/104 101/101/101 103/103/103
f 107/107/107 106/106/106 105/105/105
f 108/108/108 105/105/105 106/106/106
f 111/111/111 110/110/110 109/109/109
f 112/112/112 109/109/109 110/110/110
f 115/115/115 114/114/114 113/113/113
f 116/116/116 113/113/113 114/114/114
f 119/119/119 118/118/118 117/117/117
f 120/120/120 117/117/117 118/118/118
f 123/123/123 122/122/122 121/121/121
f 124/124/124 121/121/121 122/122/122
f 121/121/121 125/125/125 123/123/123
f 126/126/126 123/123/123 125/125/125
f 129/129/129 128/128/128 127/127/127
f 130/130/130 127/127/127 128/128/128
f 127/127/127 131/131/131 129/129/129
f 132/132/132 129/129/129 131/131/131
f 135/135/135 134/134/134 133/133/133
f 136/136/136 133/133/133 134/134/134
f 133/133/133 137/137/137 135/135/135
f 138/138/138 135/135/135 137/137/137
f 141/141/141 140/140/140 139/139/139
f 142/142/142 139/139/139 140/140/140
f 139/139/139 143/143/143 141/141/141
f 144/144/144 141/141/141 143/143/143
f 147/147/147 146/146/146 145/145/145
f 148/148/148 145/145/145 146/146/146
f 145/145/145 149/149/149 147/147/147
f 150/150/150 147/147/147 149/149/149
f 153/153/153 152/152/152 151/151/151
f 154/154/154 151/151/151 152/152/152
f 152/152/152 155/155/155 154/154/154
f 156/156/156 154/154/154 155/155/155
f 159/159/159 158/158/158 157/157/157
f 160/160/160 157/157/157 158/158/158
f 163/163/163 162/162/162 161/161/161
f 164/164/164 161/161/161 162/162/162
f 167/167/167 166/166/166 165/165/165
f 168/168/168 165/165/165 166/166/166
f 171/171/171 170/170/170 169/169/169
f 172/172/172 169/169/169 170/170/170
f 175/175/175 174/174/174 173/173/173
f 176/176/176 173/173/173 174/174/174
f 179/179/179 178/178/178 177/177/177
f 180/180/180 177/177/177 178/178/178
f 183/183/183 182/182/182 181/181/181
f 184/184/184 181/181/181 182/182/182
f 187/187/187 186/186/186 185/185/185
f 188/188/188 185/185/185 186/186/186
