g Libel_Fountain_Water_Flow
v 0.1620371 0.4222331 0.1270828
v 0.2446098 -0.6524635 0.2158898
v -1.772089E-05 0.420655 0.1977043
v 0.2446098 -0.6524635 0.2158898
v -2.37799E-05 -0.6582097 0.2883701
v -1.772089E-05 0.420655 0.1977043
v -1.772089E-05 0.5356224 0.1570447
v 0.1620371 0.4222331 0.1270828
v -1.772089E-05 0.420655 0.1977043
v 0.1602415 0.5342285 0.08382645
v -0.1619995 0.4222331 0.1270828
v -1.772089E-05 0.420655 0.1977043
v -0.2446063 -0.6524635 0.2158898
v -0.2446063 -0.6524635 0.2158898
v -1.772089E-05 0.420655 0.1977043
v -2.37799E-05 -0.6582097 0.2883701
v -1.772089E-05 0.5356224 0.1570447
v -0.1619995 0.4222331 0.1270828
v -0.1602706 0.5342277 0.08382676
v -1.772089E-05 0.420655 0.1977043
v 0.1934868 0.6306676 -0.1209106
v -7.586475E-06 0.6582096 -0.2766259
v 0.1934868 0.6386259 -0.2883713
v -7.586475E-06 0.6582096 -0.2766259
v 0.1934868 0.6306676 -0.1209106
v -7.586475E-06 0.6431028 -0.1152423
v -7.586475E-06 0.6582096 -0.2766259
v -0.193567 0.6306676 -0.1129011
v -0.193567 0.6386259 -0.2883713
v -0.193567 0.6306676 -0.1129011
v -7.586475E-06 0.6582096 -0.2766259
v -7.586475E-06 0.6431028 -0.1152423
v 0.1602415 0.5342285 0.08382645
v -1.772089E-05 0.5856584 0.1183101
v 0.1586355 0.5777056 0.04229738
v -1.772089E-05 0.5856584 0.1183101
v 0.1602415 0.5342285 0.08382645
v -1.772089E-05 0.5356224 0.1570447
v -1.772089E-05 0.5356224 0.1570447
v -0.1587243 0.5777056 0.04229738
v -1.772089E-05 0.5856584 0.1183101
v -0.1587243 0.5777056 0.04229738
v -1.772089E-05 0.5356224 0.1570447
v -0.1602706 0.5342277 0.08382676
v -0.1587243 0.5777056 0.04229738
v -1.228621E-05 0.6120158 0.03555208
v -1.772089E-05 0.5856584 0.1183101
v -0.193567 0.6306676 -0.1129011
v -0.1520689 0.6094195 -0.02907996
v -1.228621E-05 0.6120158 0.03555208
v -0.1587243 0.5777056 0.04229738
v -0.1520689 0.6094195 -0.02907996
v -1.228621E-05 0.6120158 0.03555208
v 0.1586355 0.5777056 0.04229738
v -1.772089E-05 0.5856584 0.1183101
v 0.1586355 0.5777056 0.04229738
v -1.228621E-05 0.6120158 0.03555208
v 0.1519932 0.6094195 -0.0316886
v -1.228621E-05 0.6120158 0.03555208
v -0.193567 0.6306676 -0.1129011
v -7.586475E-06 0.6431028 -0.1152423
v -7.586475E-06 0.6431028 -0.1152423
v 0.1519932 0.6094195 -0.0316886
v -1.228621E-05 0.6120158 0.03555208
v 0.1519932 0.6094195 -0.0316886
v -7.586475E-06 0.6431028 -0.1152423
v 0.1934868 0.6306676 -0.1209106
vt 0.5306913 0.5752831
vt 0.5465814 0.2912398
vt 0.4998651 0.5730416
vt 0.5465814 0.2912398
vt 0.5000441 0.28747
vt 0.4998651 0.5730416
vt 0.4998445 0.583603
vt 0.5306913 0.5752831
vt 0.4998651 0.5730416
vt 0.5303233 0.5858785
vt 0.4690253 0.5749922
vt 0.4998651 0.5730416
vt 0.4534808 0.2908008
vt 0.4534808 0.2908008
vt 0.4998651 0.5730416
vt 0.5000441 0.28747
vt 0.4998445 0.583603
vt 0.4690253 0.5749922
vt 0.4693279 0.5855907
vt 0.4998651 0.5730416
vt 0.5507963 0.6660693
vt 0.4989026 0.7089375
vt 0.5504317 0.7118691
vt 0.4989026 0.7089375
vt 0.5507963 0.6660693
vt 0.499254 0.6647998
vt 0.4989026 0.7089375
vt 0.4476871 0.6633925
vt 0.447305 0.7113829
vt 0.4476871 0.6633925
vt 0.4989026 0.7089375
vt 0.499254 0.6647998
vt 0.5303233 0.5858785
vt 0.4997602 0.6009241
vt 0.5299272 0.603755
vt 0.4997602 0.6009241
vt 0.5303233 0.5858785
vt 0.4998445 0.583603
vt 0.4998445 0.583603
vt 0.4695318 0.6034702
vt 0.4997602 0.6009241
vt 0.4695318 0.6034702
vt 0.4998445 0.583603
vt 0.4693279 0.5855907
vt 0.4695318 0.6034702
vt 0.4995811 0.6235581
vt 0.4997602 0.6009241
vt 0.4476871 0.6633925
vt 0.4590663 0.622943
vt 0.4995811 0.6235581
vt 0.4695318 0.6034702
vt 0.4590663 0.622943
vt 0.4995811 0.6235581
vt 0.5299272 0.603755
vt 0.4997602 0.6009241
vt 0.5299272 0.603755
vt 0.4995811 0.6235581
vt 0.540075 0.6240385
vt 0.4995811 0.6235581
vt 0.4476871 0.6633925
vt 0.499254 0.6647998
vt 0.499254 0.6647998
vt 0.540075 0.6240385
vt 0.4995811 0.6235581
vt 0.540075 0.6240385
vt 0.499254 0.6647998
vt 0.5507963 0.6660693
vn 0.3963922 0.1058158 0.9119628
vn 0.3963922 0.1058158 0.9119628
vn 0.3963922 0.1058158 0.9119628
vn 0.2814207 0.08035681 0.956214
vn 0.2814207 0.08035681 0.956214
vn 0.2814207 0.08035681 0.956214
vn 0.3774531 0.308761 0.8730382
vn 0.3774531 0.308761 0.8730382
vn 0.3774531 0.308761 0.8730382
vn 0.3937179 0.3366788 0.8553558
vn -0.3965415 0.1058343 0.9118958
vn -0.3965414 0.1058343 0.9118958
vn -0.3965415 0.1058343 0.9118958
vn -0.2814747 0.08035864 0.956198
vn -0.2814747 0.08035865 0.956198
vn -0.2814747 0.08035864 0.956198
vn -0.3937604 0.3364694 0.8554187
vn -0.3937604 0.3364694 0.8554187
vn -0.3937604 0.3364693 0.8554187
vn -0.377599 0.3087412 0.8729822
vn 0.1034206 0.9935164 0.04721514
vn 0.1034206 0.9935164 0.04721513
vn 0.1034206 0.9935164 0.04721513
vn 0.06656894 0.9934388 0.09299391
vn 0.06656894 0.9934388 0.09299391
vn 0.06656895 0.9934388 0.09299392
vn -0.1032672 0.9936323 0.04506564
vn -0.1032672 0.9936323 0.04506564
vn -0.1032672 0.9936323 0.04506564
vn -0.06271458 0.9936875 0.0930172
vn -0.06271458 0.9936875 0.0930172
vn -0.06271458 0.9936875 0.0930172
vn 0.3536518 0.6528833 0.6698312
vn 0.3536518 0.6528833 0.6698312
vn 0.3536518 0.6528833 0.6698312
vn 0.3441958 0.57474 0.7424305
vn 0.3441958 0.5747401 0.7424306
vn 0.3441958 0.5747401 0.7424306
vn -0.3788812 0.5665052 0.731793
vn -0.3788812 0.5665052 0.731793
vn -0.3788812 0.5665053 0.731793
vn -0.3165686 0.6610569 0.6802852
vn -0.3165686 0.6610569 0.6802852
vn -0.3165687 0.661057 0.6802852
vn -0.1895867 0.9355645 0.297953
vn -0.1895867 0.9355645 0.297953
vn -0.1895867 0.9355645 0.297953
vn -0.1483873 0.9386228 0.3113976
vn -0.1483873 0.9386228 0.3113976
vn -0.1792915 0.9051427 0.3854495
vn -0.1792915 0.9051427 0.3854494
vn -0.1792915 0.9051427 0.3854494
vn 0.1896582 0.9355441 0.2979714
vn 0.1896583 0.9355441 0.2979714
vn 0.1896583 0.9355441 0.2979714
vn 0.1808567 0.9097384 0.3737203
vn 0.1808567 0.9097384 0.3737203
vn 0.1808567 0.9097384 0.3737203
vn -0.06036962 0.9776183 0.2015388
vn -0.06036962 0.9776183 0.2015388
vn -0.06036962 0.9776183 0.2015388
vn 0.1054547 0.9739426 0.2007862
vn 0.1054548 0.9739426 0.2007862
vn 0.1054547 0.9739426 0.2007862
vn 0.06953064 0.96267 0.2615949
vn 0.06953064 0.96267 0.2615949
vn 0.06953064 0.96267 0.2615949
g Libel_Fountain_Water_Flow_0
f 3/3/3 2/2/2 1/1/1
f 6/6/6 5/5/5 4/4/4
f 9/9/9 8/8/8 7/7/7
f 10/10/10 7/7/7 8/8/8
f 13/13/13 12/12/12 11/11/11
f 16/16/16 15/15/15 14/14/14
f 19/19/19 18/18/18 17/17/17
f 20/20/20 17/17/17 18/18/18
f 23/23/23 22/22/22 21/21/21
f 26/26/26 25/25/25 24/24/24
f 29/29/29 28/28/28 27/27/27
f 32/32/32 31/31/31 30/30/30
f 35/35/35 34/34/34 33/33/33
f 38/38/38 37/37/37 36/36/36
f 41/41/41 40/40/40 39/39/39
f 44/44/44 43/43/43 42/42/42
f 47/47/47 46/46/46 45/45/45
f 49/49/49 46/46/46 48/48/48
f 52/52/52 51/51/51 50/50/50
f 55/55/55 54/54/54 53/53/53
f 58/58/58 57/57/57 56/56/56
f 61/61/61 60/60/60 59/59/59
f 64/64/64 63/63/63 62/62/62
f 67/67/67 66/66/66 65/65/65
