g El_Bridge_Road
v -0.6963575 0.03990206 -3.746426
v -0.04360661 0.0399022 -3.113626
v -0.8719616 0.0399022 -3.11611
v -0.04361433 0.03990206 -3.534927
v 0.7911443 0.0399022 -3.115511
v 0.5381274 0.03990239 -3.650258
v 1.033363 0.03990307 -4.059826
v -1.104816 0.03990307 -4.226468
v 1.89376 0.0399022 -3.118818
v -1.893788 0.0399022 -3.119923
v -1.223257 0.03990211 -4.687571
v -1.893765 0.03990211 -4.687564
v 1.893798 0.03990145 -4.679907
v 1.25733 0.03990145 -4.679917
v -2.455473E-05 0.03990181 -1.607467
v 1.893729 0.03990132 -1.609374
v -1.893795 0.03990181 -1.603205
v 1.25733 0.03990145 -4.679917
v 1.893798 -0.1022085 -4.679901
v 1.893798 0.03990145 -4.679907
v 1.257341 -0.1022085 -4.679917
v -1.893765 0.03990211 -4.687564
v -1.223257 -0.1022085 -4.687572
v -1.223257 0.03990211 -4.687571
v -1.893765 -0.1022085 -4.687565
v -2.455473E-05 0.03990181 -1.607467
v -1.893787 0.03990026 0.04128433
v -1.893795 0.03990181 -1.603205
v 1.893729 0.03990132 -1.609374
v 1.893738 0.03990141 0.04128367
v 1.893726 0.03990151 1.639839
v -2.524257E-05 0.03990266 1.637931
v -1.893797 0.0399025 1.633669
v -0.6963583 0.03990339 3.743744
v -0.0436094 0.03990095 3.110948
v -0.04361571 0.03990356 3.532247
v -0.8719602 0.03990227 3.113427
v 0.7911422 0.03990095 3.11283
v 0.5381259 0.03990438 3.647575
v 1.033363 0.03990387 4.057147
v -1.104818 0.03990386 4.223788
v 1.893758 0.03990227 3.116137
v -1.893782 0.03990227 3.117244
v -1.223255 0.03990401 4.684891
v -1.893763 0.03990401 4.684883
v 1.893799 0.03990302 4.677228
v 1.25733 0.03990302 4.677238
v -2.524257E-05 0.03990266 1.637931
v 1.893726 0.03990151 1.639839
v -1.893797 0.0399025 1.633669
v 1.25733 0.03990302 4.677238
v 1.893799 -0.1022066 4.677222
v 1.257341 -0.102206 4.677238
v 1.893799 0.03990302 4.677228
v -1.893763 0.03990401 4.684883
v -1.223255 -0.102206 4.684892
v -1.893763 -0.102206 4.684883
v -1.223255 0.03990401 4.684891
vt 0.6440173 0.8268099
vt 0.5908895 0.8794848
vt 0.6575034 0.8794848
vt 0.5908133 0.8446432
vt 0.5237547 0.8794848
vt 0.5433288 0.8349109
vt 0.5028806 0.8003632
vt 0.6774516 0.7863805
vt 0.4344445 0.8794848
vt 0.7402549 0.8794848
vt 0.6885008 0.7488657
vt 0.7402549 0.749079
vt 0.4344445 0.7498831
vt 0.4832999 0.7496507
vt 0.5907159 0.9956799
vt 0.4344445 0.9956798
vt 0.7402549 0.9956798
vt 0.4832999 0.7496507
vt 0.4344445 0.7420861
vt 0.4344445 0.7498831
vt 0.4850324 0.7420861
vt 0.7402549 0.749079
vt 0.6853264 0.7420861
vt 0.6885008 0.7488657
vt 0.7402549 0.7420861
vt 0.5907158 0.8794848
vt 0.4344445 0.9956798
vt 0.4344445 0.8794848
vt 0.7402549 0.8794848
vt 0.7402549 0.9956798
vt 0.7402549 0.8794848
vt 0.5907158 0.8794848
vt 0.4344445 0.8794848
vt 0.6440173 0.8268099
vt 0.5908895 0.8794848
vt 0.5908133 0.8446432
vt 0.6575034 0.8794848
vt 0.5237547 0.8794848
vt 0.5433288 0.8349109
vt 0.5028806 0.8003632
vt 0.6774516 0.7863805
vt 0.4344445 0.8794848
vt 0.7402549 0.8794848
vt 0.6885008 0.7488657
vt 0.7402549 0.749079
vt 0.4344445 0.7498831
vt 0.4832999 0.7496507
vt 0.5907159 0.9956799
vt 0.4344445 0.9956798
vt 0.7402549 0.9956798
vt 0.4832999 0.7496507
vt 0.4344445 0.7420861
vt 0.4850324 0.7420861
vt 0.4344445 0.7498831
vt 0.7402549 0.749079
vt 0.6853264 0.7420861
vt 0.7402549 0.7420861
vt 0.6885008 0.7488657
vn 0 1 -2.116445E-07
vn 0 1 -2.116445E-07
vn 0 1 -2.116445E-07
vn 1.246293E-07 1 -3.395485E-07
vn 0 1 -3.395462E-07
vn -4.540378E-07 1 5.625939E-07
vn -7.794497E-07 1 7.165631E-07
vn -2.977577E-06 1 -1.334435E-06
vn 0 1 9.171997E-07
vn 0 1 0
vn 0 1 0
vn 0 1 0
vn 1.533674E-06 1 -4.825759E-07
vn 0 1 -2.610671E-06
vn 0 1 2.596276E-07
vn 2.610065E-07 1 3.96213E-07
vn 0 1 2.58841E-07
vn 1.534347E-05 -4.724417E-05 -1
vn 1.534347E-05 -4.724416E-05 -1
vn 1.534347E-05 -4.724416E-05 -1
vn 2.589254E-05 0 -1
vn -1.001311E-05 6.44235E-06 -1
vn -1.001311E-05 6.442351E-06 -1
vn -1.001311E-05 6.442351E-06 -1
vn -1.046825E-05 4.294904E-06 -1
vn 0 1 9.42372E-07
vn 0 1 9.423719E-07
vn 0 1 9.423719E-07
vn 2.618567E-07 1 1.240706E-06
vn -3.040407E-07 1 0
vn 6.090697E-07 1 -2.227601E-06
vn 0 1 -1.404414E-06
vn 0 1 -1.404414E-06
vn -2.272638E-06 1 -6.191116E-06
vn -2.272638E-06 1 -6.191115E-06
vn -2.272638E-06 1 -6.191116E-06
vn 1.57638E-06 1 -2.220735E-06
vn -1.239568E-07 1 -6.465581E-06
vn -1.239568E-07 1 -6.465581E-06
vn 4.552351E-06 1 -4.252972E-06
vn -1.161035E-06 1 -6.136272E-07
vn -1.180919E-06 1 -2.782363E-06
vn -1.161035E-06 1 -6.136272E-07
vn -1.161035E-06 1 -6.136272E-07
vn 0 1 -1.110241E-06
vn 0 1 1.368776E-06
vn 0 1 1.368776E-06
vn 1.586637E-06 1 1.205845E-06
vn -1.187734E-06 1 -5.10306E-07
vn 0 1 1.542771E-07
vn 2.589247E-05 4.296859E-06 1
vn 2.589247E-05 4.296859E-06 1
vn 2.589247E-05 4.296859E-06 1
vn 1.438447E-05 -4.724427E-05 1
vn -1.274396E-05 4.294925E-06 1
vn -1.274396E-05 4.294925E-06 1
vn -1.274396E-05 4.294925E-06 1
vn -1.274396E-05 4.294931E-06 1
g El_Bridge_Road_0
f 3/3/3 2/2/2 1/1/1
f 4/4/4 1/1/1 2/2/2
f 2/2/2 5/5/5 4/4/4
f 6/6/6 4/4/4 5/5/5
f 5/5/5 7/7/7 6/6/6
f 3/3/3 1/1/1 8/8/8
f 5/5/5 9/9/9 7/7/7
f 10/10/10 3/3/3 8/8/8
f 8/8/8 11/11/11 10/10/10
f 12/12/12 10/10/10 11/11/11
f 9/9/9 13/13/13 7/7/7
f 14/14/14 7/7/7 13/13/13
f 15/15/15 2/2/2 3/3/3
f 15/15/15 5/5/5 2/2/2
f 15/15/15 16/16/16 5/5/5
f 9/9/9 5/5/5 16/16/16
f 15/15/15 3/3/3 17/17/17
f 10/10/10 17/17/17 3/3/3
f 20/20/20 19/19/19 18/18/18
f 21/21/21 18/18/18 19/19/19
f 24/24/24 23/23/23 22/22/22
f 25/25/25 22/22/22 23/23/23
f 28/28/28 27/27/27 26/26/26
f 26/26/26 27/27/27 29/29/29
f 29/29/29 27/27/27 30/30/30
f 27/27/27 31/31/31 30/30/30
f 32/32/32 31/31/31 27/27/27
f 33/33/33 32/32/32 27/27/27
f 36/36/36 35/35/35 34/34/34
f 37/37/37 34/34/34 35/35/35
f 35/35/35 36/36/36 38/38/38
f 39/39/39 38/38/38 36/36/36
f 40/40/40 38/38/38 39/39/39
f 34/34/34 37/37/37 41/41/41
f 42/42/42 38/38/38 40/40/40
f 37/37/37 43/43/43 41/41/41
f 41/41/41 43/43/43 44/44/44
f 45/45/45 44/44/44 43/43/43
f 42/42/42 40/40/40 46/46/46
f 47/47/47 46/46/46 40/40/40
f 35/35/35 48/48/48 37/37/37
f 38/38/38 48/48/48 35/35/35
f 42/42/42 49/49/49 38/38/38
f 48/48/48 38/38/38 49/49/49
f 43/43/43 37/37/37 50/50/50
f 48/48/48 50/50/50 37/37/37
f 53/53/53 52/52/52 51/51/51
f 54/54/54 51/51/51 52/52/52
f 57/57/57 56/56/56 55/55/55
f 58/58/58 55/55/55 56/56/56
