g El_Bricks_03
v -0.7737544 0.119649 -0.2113508
v -0.05600585 0.1196487 0.5831411
v -0.2625215 0.009016985 0.7133024
v 0.7737597 0.1196492 0.06016262
v 0.3641306 0.1196494 -0.7133024
v 0.02183829 0.1196493 -0.5920705
v -0.7737544 0.119649 -0.2113508
v 0.02183829 -0.1196486 -0.5920705
v 0.02183829 0.1196493 -0.5920705
v -0.7737544 -0.1196488 -0.2113508
v -0.7737544 0.119649 -0.2113508
v -0.2625215 -0.1196493 0.7133024
v -0.7737544 -0.1196488 -0.2113508
v -0.2625215 0.009016985 0.7133024
v -0.02992848 -0.01185322 0.5667052
v -0.2625215 0.009016985 0.7133024
v -0.05600585 0.1196487 0.5831411
v -0.2625215 -0.1196493 0.7133024
v 0.003062158 -0.1196491 0.5459126
v 0.7737597 -0.1196487 0.0601626
v 0.7737597 0.1196492 0.06016262
v 0.3641306 0.1196494 -0.7133024
v 0.7737597 -0.1196487 0.0601626
v 0.7737597 0.1196492 0.06016262
v 0.3641306 -0.1196485 -0.7133024
v 0.02183829 0.1196493 -0.5920705
v 0.3641306 -0.1196485 -0.7133024
v 0.3641306 0.1196494 -0.7133024
v 0.02183829 -0.1196486 -0.5920705
vt 0.8957138 0.7230883
vt 0.9798981 0.7415345
vt 0.9829464 0.7216938
vt 0.9714972 0.8205848
vt 0.9069818 0.8195091
vt 0.900641 0.7922714
vt 0.8957138 0.7230883
vt 0.8868208 0.7932365
vt 0.900641 0.7922714
vt 0.8822376 0.7224776
vt 0.8957138 0.7230883
vt 0.9826739 0.7051852
vt 0.8952489 0.7067755
vt 0.9829464 0.7216938
vt 0.9872005 0.7448958
vt 0.9829464 0.7216938
vt 0.9798981 0.7415345
vt 0.9981042 0.7224075
vt 0.9956133 0.7498498
vt 0.9874967 0.829825
vt 0.9714972 0.8205848
vt 0.9069818 0.8195091
vt 0.9874967 0.829825
vt 0.9714972 0.8205848
vt 0.8953197 0.8292057
vt 0.900641 0.7922714
vt 0.8953197 0.8292057
vt 0.9069818 0.8195091
vt 0.8868208 0.7932365
vn -0.0515537 0.9975836 0.04657422
vn -0.1421439 0.981481 0.128414
vn -0.3101082 0.908486 0.2801539
vn -1.865382E-07 1 5.012002E-07
vn -2.017917E-07 1 3.975238E-07
vn -7.253429E-07 1 -7.893261E-07
vn -0.4316575 0 -0.9020376
vn -0.4316574 0 -0.9020376
vn -0.4316574 0 -0.9020376
vn -0.4316574 0 -0.9020376
vn -0.8751453 0 0.4838603
vn -0.8751453 0 0.4838603
vn -0.8751452 0 0.4838603
vn -0.8751452 0 0.4838603
vn 0.5332031 -8.916003E-07 0.8459872
vn 0.5332032 -8.916003E-07 0.8459872
vn 0.5332032 -8.916003E-07 0.8459872
vn 0.5332033 0 0.8459871
vn 0.533202 3.517022E-06 0.8459879
vn 0.5332031 3.915599E-06 0.8459873
vn 0.5332026 0 0.8459875
vn 0.8837181 0 -0.4680194
vn 0.8837181 0 -0.4680194
vn 0.8837181 0 -0.4680194
vn 0.8837181 0 -0.4680195
vn -0.3338553 0 -0.9426244
vn -0.3338553 0 -0.9426244
vn -0.3338552 0 -0.9426244
vn -0.3338553 0 -0.9426244
g El_Bricks_03_0
f 3/3/3 2/2/2 1/1/1
f 2/2/2 4/4/4 1/1/1
f 4/4/4 5/5/5 1/1/1
f 5/5/5 6/6/6 1/1/1
f 9/9/9 8/8/8 7/7/7
f 10/10/10 7/7/7 8/8/8
f 13/13/13 12/12/12 11/11/11
f 14/14/14 11/11/11 12/12/12
f 17/17/17 16/16/16 15/15/15
f 16/16/16 18/18/18 15/15/15
f 18/18/18 19/19/19 15/15/15
f 19/19/19 20/20/20 15/15/15
f 20/20/20 21/21/21 15/15/15
f 21/21/21 17/17/17 15/15/15
f 24/24/24 23/23/23 22/22/22
f 25/25/25 22/22/22 23/23/23
f 28/28/28 27/27/27 26/26/26
f 29/29/29 26/26/26 27/27/27
