g El_BrokenPillar_03
v 0.4507596 0.3062147 0.01199775
v 0.3943135 0.4529842 -0.148062
v 0.4171449 0.3062147 -0.157016
v 0.4260818 0.4529842 0.01163949
v 0.3038524 0.437643 -0.2834551
v 0.3214042 0.3062147 -0.3003076
v 0.168462 0.437643 -0.3739199
v 0.1781148 0.3062147 -0.3960496
v 0.008759809 0.4207459 -0.4056849
v 0.009100535 0.3062147 -0.4296626
v -0.1509427 0.4207459 -0.3739199
v -0.1599187 0.3062147 -0.3960496
v -0.2863291 0.437643 -0.2834551
v -0.3032008 0.3062147 -0.3003076
v -0.3767959 0.437643 -0.148062
v -0.3989428 0.3062147 -0.157016
v -0.4085618 0.4529842 0.01163949
v -0.4325639 0.3062147 0.01199775
v 0.2682221 0.4785201 -0.2468062
v 0.3476033 0.4785201 -0.1280097
v 0.255462 0.5588029 -0.235637
v 0.3311768 0.5588029 -0.1223241
v 0.3754755 0.4785201 0.0121174
v 0.3577601 0.5588029 0.01133977
v 0.1421501 0.5588028 -0.3113476
v 0.1494278 0.4785201 -0.3261834
v 0.008487361 0.5588028 -0.3379361
v 0.009303698 0.4785201 -0.3540542
v -0.1251757 0.5588028 -0.3113476
v -0.1308265 0.4785201 -0.3261834
v -0.2384886 0.5588029 -0.235637
v -0.2496217 0.4785201 -0.2468062
v -0.3142031 0.5588029 -0.1223241
v -0.3289942 0.4785201 -0.1280097
v -0.3407908 0.5588029 0.01133977
v -0.3568685 0.4785201 0.0121174
v -0.1050745 0.5834507 -0.2628306
v 0.008487361 0.5834507 -0.2854193
v -0.2013504 0.5834507 -0.1985041
v -0.2656811 0.5834507 -0.1022261
v -0.2882687 0.5834507 0.01133977
v 0.1220489 0.5834507 -0.2628306
v 0.2183271 0.5834507 -0.1985041
v 0.2826545 0.5834507 -0.1022261
v 0.3052451 0.5834507 0.01133977
v -0.4325639 0.3062147 0.01199775
v -0.3767959 0.4529842 0.1713381
v -0.3989428 0.3062147 0.1810153
v -0.4085618 0.4529842 0.01163949
v -0.2863331 0.4529842 0.3067292
v -0.3032008 0.3062147 0.3243041
v -0.1509427 0.4529842 0.3971908
v -0.1599187 0.3062147 0.4200403
v 0.008759809 0.4529842 0.4289639
v 0.009100535 0.3062147 0.4536598
v -0.3568685 0.4785201 0.0121174
v -0.3289942 0.4785201 0.1522417
v -0.3142031 0.5588029 0.1449976
v -0.3407908 0.5588029 0.01133977
v -0.2384886 0.5588029 0.2583125
v -0.2496217 0.4785201 0.2710372
v -0.1251757 0.5588029 0.3340241
v -0.1308265 0.4785201 0.3504114
v 0.008487361 0.558803 0.3606157
v 0.009303698 0.4785201 0.3782883
v 0.0295969 0.4821818 0.32908
v -0.2882687 0.5834507 0.01133977
v -0.2656811 0.5834507 0.1249016
v -0.2013504 0.5834507 0.2211755
v -0.1050745 0.5834507 0.2855071
v 0.008487361 0.5834507 0.3080947
v 0.1356234 0.4796184 0.2990257
v 0.1620074 0.4111525 0.3253967
v 0.1229643 0.5715703 0.2807642
v 0.2376917 0.4602974 0.2436244
v 0.2195438 0.5711268 0.2218408
v 0.3008374 0.4775034 0.1378956
v 0.2835933 0.5715584 0.1266433
v 0.3593953 0.4785201 0.1164104
v 0.3943135 0.4529842 0.1713381
v 0.3067851 0.4159376 0.1805683
v 0.4171449 0.3062147 0.1810153
v 0.319662 0.2664301 0.1992203
v 0.4260818 0.4529842 0.01163949
v 0.4507596 0.3062147 0.01199775
v 0.3754755 0.4785201 0.0121174
v 0.3577601 0.5588029 0.01133977
v 0.3429688 0.5588029 0.1091663
v 0.3052451 0.5834507 0.01133977
v 0.2692316 0.3062152 0.2706585
v 0.1879667 0.3062152 0.3316512
v 0.1781158 0.3062147 0.4206697
v 0.3052451 0.5834507 0.01133977
v 0.2642412 0.8122212 -0.09720799
v 0.2826545 0.5834507 -0.1022261
v 0.285491 0.8120717 0.009635791
v 0.2037164 0.8126467 -0.1877903
v 0.2183271 0.5834507 -0.1985041
v 0.09044848 0.8979369 -0.24832
v 0.1220489 0.5834507 -0.2628306
v 0.007429035 1.051717 -0.269571
v 0.008487361 0.5834507 -0.2854193
v -0.09925441 1.075341 -0.248319
v -0.1050745 0.5834507 -0.2628306
v -0.1898397 1.062294 -0.1877903
v -0.2013504 0.5834507 -0.1985041
v -0.2503554 1.050375 -0.09720797
v -0.2656811 0.5834507 -0.1022261
v -0.2716143 1.050524 0.009636833
v -0.2882687 0.5834507 0.01133977
v -0.2882687 0.5834507 0.01133977
v -0.2503554 1.050375 0.1164878
v -0.2656811 0.5834507 0.1249016
v -0.2716143 1.050524 0.009636833
v -0.1898397 1.062294 0.207067
v -0.2013504 0.5834507 0.2211755
v -0.09925441 1.075341 0.2675865
v -0.1050745 0.5834507 0.2855071
v 0.007429035 1.051717 0.2888406
v 0.008487361 0.5834507 0.3080947
v 0.1132352 0.9041577 0.2675865
v 0.1229643 0.5715703 0.2807642
v 0.2068847 0.8114887 0.2059181
v 0.2195438 0.5711268 0.2218408
v 0.2656817 0.8190653 0.1501687
v 0.2835933 0.5715584 0.1266433
v 0.285491 0.8120717 0.009635791
v 0.3052451 0.5834507 0.01133977
v 0.2037164 0.8126467 -0.1877903
v 0.1132352 0.9041577 0.2675865
v 0.09044848 0.8979369 -0.24832
v 0.2068847 0.8114887 0.2059181
v 0.007429035 1.051717 -0.269571
v 0.007429035 1.051717 -0.03499826
v -0.09925441 1.075341 -0.248319
v -0.2503554 1.050375 -0.09720797
v -0.1898397 1.062294 -0.1877903
v -0.2716143 1.050524 0.009636833
v 0.007429035 1.051717 0.2888406
v 0.2656817 0.8190653 0.1501687
v 0.285491 0.8120717 0.009635791
v 0.2642412 0.8122212 -0.09720799
v -0.2503554 1.050375 0.1164878
v -0.09925441 1.075341 0.2675865
v -0.1898397 1.062294 0.207067
v -0.4904824 0.2049098 -0.4984446
v 0.490478 0.2049098 0.4984487
v -0.4904824 0.2049098 0.4984487
v 0.490478 0.2049098 -0.4984446
v -0.5591912 0.1312726 -0.5217012
v 0.5591869 -1.148651E-06 -0.5217013
v 0.5591869 0.1312726 -0.5217012
v -0.5591912 -1.148651E-06 -0.5217013
v 0.5591869 0.1312726 -0.5217012
v 0.5591869 -1.19426E-06 0.5217016
v 0.5591869 0.1312726 0.5217017
v 0.5591869 -1.148651E-06 -0.5217013
v 0.5591869 0.1312726 0.5217017
v -0.5591912 -1.19426E-06 0.5217016
v -0.5591912 0.1312726 0.5217017
v 0.5591869 -1.19426E-06 0.5217016
v -0.5591912 0.1312726 0.5217017
v -0.5591912 -1.148651E-06 -0.5217013
v -0.5591912 0.1312726 -0.5217012
v -0.5591912 -1.19426E-06 0.5217016
v -0.4904824 0.2049098 -0.4984446
v -0.5591912 0.1312726 0.5217017
v -0.5591912 0.1312726 -0.5217012
v -0.4904824 0.2049098 0.4984487
v -0.4904824 0.2049098 0.4984487
v 0.5591869 0.1312726 0.5217017
v -0.5591912 0.1312726 0.5217017
v 0.490478 0.2049098 0.4984487
v 0.490478 0.2049098 0.4984487
v 0.5591869 0.1312726 -0.5217012
v 0.5591869 0.1312726 0.5217017
v 0.490478 0.2049098 -0.4984446
v 0.490478 0.2049098 -0.4984446
v -0.5591912 0.1312726 -0.5217012
v 0.5591869 0.1312726 -0.5217012
v -0.4904824 0.2049098 -0.4984446
vt 0.337483 0.5981482
vt 0.3161114 0.5803952
vt 0.3225854 0.5981482
vt 0.3295408 0.5803952
vt 0.3023305 0.5803952
vt 0.3064232 0.5981482
vt 0.2872943 0.5803952
vt 0.2893532 0.5981482
vt 0.2719006 0.5803952
vt 0.2718797 0.5981482
vt 0.256323 0.5803952
vt 0.2544983 0.5981482
vt 0.2415657 0.5803952
vt 0.2375024 0.5981482
vt 0.2272623 0.5803952
vt 0.221433 0.5981482
vt 0.2143938 0.5803952
vt 0.2065652 0.5981482
vt 0.3003152 0.5716446
vt 0.3135319 0.5716446
vt 0.2975639 0.5608001
vt 0.30954 0.5608001
vt 0.3255367 0.5716446
vt 0.3205222 0.5608001
vt 0.2848911 0.5608001
vt 0.2863058 0.5716446
vt 0.2718884 0.5608001
vt 0.2719537 0.5716446
vt 0.258899 0.5608001
vt 0.2576139 0.5716446
vt 0.2462628 0.5608001
vt 0.2436418 0.5716446
vt 0.2342912 0.5608001
vt 0.2303509 0.5716446
vt 0.2233497 0.5608001
vt 0.2184385 0.5716446
vt 0.2598388 0.5535742
vt 0.2718892 0.5535742
vt 0.248121 0.5535742
vt 0.2370929 0.5535742
vt 0.227502 0.5535742
vt 0.2839553 0.5535742
vt 0.2957033 0.5535742
vt 0.3067364 0.5535742
vt 0.3163566 0.5535742
vt 0.2563893 0.6084403
vt 0.278985 0.6257079
vt 0.2729316 0.6084403
vt 0.2640141 0.6257079
vt 0.2920101 0.6257079
vt 0.2871026 0.6084403
vt 0.3042457 0.6257079
vt 0.3016489 0.6084403
vt 0.3166539 0.6257079
vt 0.3166539 0.6084403
vt 0.266665 0.6335763
vt 0.280323 0.6335763
vt 0.2846854 0.6444363
vt 0.2723359 0.6444363
vt 0.2950928 0.6444363
vt 0.2919502 0.6335763
vt 0.3058296 0.6444363
vt 0.3040412 0.6335763
vt 0.3166539 0.6444363
vt 0.3166539 0.6335763
vt 0.3183822 0.6444363
vt 0.2749706 0.650584
vt 0.2853535 0.650584
vt 0.2956319 0.650584
vt 0.3057225 0.650584
vt 0.3166539 0.650584
vt 0.3295594 0.6415843
vt 0.3317171 0.6309896
vt 0.3311346 0.650381
vt 0.3409216 0.6344277
vt 0.3383259 0.6505137
vt 0.3477807 0.6387442
vt 0.346781 0.6502686
vt 0.3539473 0.6335763
vt 0.3546346 0.6257079
vt 0.3498612 0.6304998
vt 0.3608944 0.6084403
vt 0.3559563 0.6084403
vt 0.3690564 0.6257079
vt 0.3762904 0.6084403
vt 0.3664736 0.6335763
vt 0.3609366 0.6444363
vt 0.3498107 0.6444363
vt 0.3583633 0.650584
vt 0.3485437 0.6083465
vt 0.3339066 0.6081611
vt 0.3308411 0.6084403
vt 0.4463599 0.7762756
vt 0.436915 0.8092544
vt 0.436915 0.7762756
vt 0.4463599 0.8107376
vt 0.4264658 0.8077112
vt 0.4264658 0.7762756
vt 0.4143078 0.820434
vt 0.4143078 0.7762756
vt 0.4013498 0.8303518
vt 0.4018841 0.7762756
vt 0.388857 0.834182
vt 0.3893913 0.7762756
vt 0.3766603 0.8351364
vt 0.3771946 0.7762756
vt 0.3645252 0.8364919
vt 0.3650595 0.7762756
vt 0.3531806 0.8378369
vt 0.3537149 0.7762756
vt 0.3537149 0.7762756
vt 0.3645252 0.8364919
vt 0.3650595 0.7762756
vt 0.3531806 0.8378369
vt 0.3766603 0.8351364
vt 0.3771946 0.7762756
vt 0.388857 0.834182
vt 0.3893913 0.7762756
vt 0.4013498 0.8303518
vt 0.4018841 0.7762756
vt 0.4143078 0.820434
vt 0.4143078 0.7762756
vt 0.4264658 0.8077112
vt 0.4264658 0.7762756
vt 0.436915 0.8092544
vt 0.436915 0.7762756
vt 0.4463599 0.8107376
vt 0.4463599 0.7762756
vt 0.2679729 0.812427
vt 0.340728 0.7938177
vt 0.2590741 0.7922683
vt 0.3299148 0.8130909
vt 0.2563965 0.7648618
vt 0.2935113 0.765156
vt 0.2609323 0.7544381
vt 0.2866348 0.7445022
vt 0.2715844 0.7484438
vt 0.3037924 0.7432119
vt 0.3447501 0.7655622
vt 0.3206823 0.8160136
vt 0.2982395 0.8181543
vt 0.2815868 0.8165962
vt 0.3204461 0.7447703
vt 0.3425602 0.7550851
vt 0.3340598 0.7489391
vt 0.265727 0.9814753
vt 0.3235151 0.9170148
vt 0.2655258 0.9170148
vt 0.3237164 0.9814754
vt 0.2574264 0.9896377
vt 0.3308231 0.9964188
vt 0.3320299 0.9896382
vt 0.2582043 0.9964181
vt 0.3320299 0.9896382
vt 0.338961 0.9093449
vt 0.3320298 0.9088522
vt 0.338961 0.9891453
vt 0.3320298 0.9088522
vt 0.2584186 0.9022801
vt 0.2574263 0.9088522
vt 0.3310372 0.9022798
vt 0.2574263 0.9088522
vt 0.2504953 0.9891453
vt 0.2574264 0.9896377
vt 0.2504953 0.9093449
vt 0.265727 0.9814753
vt 0.2574263 0.9088522
vt 0.2574264 0.9896377
vt 0.2655258 0.9170148
vt 0.2655258 0.9170148
vt 0.3320298 0.9088522
vt 0.2574263 0.9088522
vt 0.3235151 0.9170148
vt 0.3235151 0.9170148
vt 0.3320299 0.9896382
vt 0.3320298 0.9088522
vt 0.3237164 0.9814754
vt 0.3237164 0.9814754
vt 0.2574264 0.9896377
vt 0.3320299 0.9896382
vt 0.265727 0.9814753
vn 0.9861557 0.1658221 0.0002756706
vn 0.7449148 0.5764077 -0.3359405
vn 0.9091865 0.1688228 -0.3806292
vn 0.824674 0.5655977 -0.003495465
vn 0.6091723 0.494582 -0.6199176
vn 0.6956102 0.18201 -0.6949811
vn 0.3074024 0.5041025 -0.8070839
vn 0.371466 0.1856859 -0.9096888
vn -0.007840746 0.4373696 -0.8992477
vn 0.0003353726 0.2049208 -0.9787785
vn -0.326065 0.4318682 -0.8409349
vn -0.3696871 0.1985786 -0.9076883
vn -0.6078864 0.4975074 -0.6188381
vn -0.6957642 0.178524 -0.6957309
vn -0.7975417 0.4889648 -0.353328
vn -0.9081405 0.1745236 -0.3805553
vn -0.821833 0.5696741 -0.00786182
vn -0.9868907 0.1613906 0.0002824465
vn 0.5942814 0.5439896 -0.5923722
vn 0.7102619 0.6288716 -0.3163044
vn 0.5675001 0.5951632 -0.5689678
vn 0.7406244 0.5972741 -0.3077974
vn 0.770411 0.6373388 -0.01631789
vn 0.7900144 0.6130878 -0.0006980323
vn 0.3072358 0.5930648 -0.7442314
vn 0.3080543 0.5320411 -0.7886917
vn -0.0007546959 0.5912406 -0.8064949
vn 0.0009762988 0.4608698 -0.8874671
vn -0.3093567 0.5900157 -0.7457747
vn -0.32228 0.4702022 -0.8216116
vn -0.5711725 0.5895378 -0.5711456
vn -0.5943283 0.5417288 -0.5943937
vn -0.7458743 0.5898919 -0.3093525
vn -0.763053 0.5520851 -0.3360835
vn -0.8066322 0.5910532 -0.0007112355
vn -0.7708977 0.6369584 0.0009022556
vn -0.3113618 0.5817559 -0.7514079
vn 0.0004095051 0.5821665 -0.8130695
vn -0.5750704 0.5821784 -0.5747715
vn -0.7509065 0.5826805 -0.3108424
vn -0.8123423 0.5831808 0.000255731
vn 0.3165211 0.5962964 -0.7377297
vn 0.5624176 0.6029814 -0.5657737
vn 0.7381518 0.6017634 -0.3049799
vn 0.8064197 0.5906641 0.0283402
vn -0.9868907 0.1613906 0.0002824465
vn -0.7600341 0.5688533 0.3142515
vn -0.9114645 0.1624526 0.3779439
vn -0.821833 0.5696741 -0.00786182
vn -0.5820804 0.5685924 0.5812789
vn -0.6972812 0.1637024 0.6978542
vn -0.3153763 0.5683109 0.7599741
vn -0.3771134 0.164936 0.9113625
vn 0.111594 0.5853265 0.8030813
vn -0.001460363 0.1659271 0.9861369
vn -0.7708977 0.6369584 0.0009022556
vn -0.7110959 0.6378191 0.2958537
vn -0.7444 0.5928108 0.3073177
vn -0.8066322 0.5910532 -0.0007112355
vn -0.5690881 0.5949234 0.5676308
vn -0.5430796 0.6388251 0.5449469
vn -0.3078929 0.5970284 0.7407827
vn -0.2929705 0.6397853 0.7105231
vn 0.4690904 0.5462407 0.6939561
vn 0.2270937 0.7444824 0.6278332
vn 0.5147232 0.6664068 0.539409
vn -0.8123423 0.5831808 0.000255731
vn -0.7501627 0.583631 0.310855
vn -0.5739977 0.5838651 0.5741324
vn -0.3100318 0.584505 0.7498228
vn 0.2073795 0.3852347 0.8992151
vn 0.4521597 0.414796 0.7896175
vn 0.6429332 0.418963 0.6411762
vn 0.3855068 0.1512684 0.9102212
vn 0.6764297 0.2778791 0.6820749
vn 0.678207 0.1508551 0.7192204
vn 0.4794177 0.4378631 0.7605488
vn 0.7948204 0.290855 0.5326011
vn 0.5553354 0.7239138 0.4093305
vn 0.5174365 0.543596 0.6608804
vn 0.427698 0.3075465 0.8499939
vn 0.6196056 0.1680617 0.76671
vn 0.5045523 0.1904074 0.8421235
vn 0.824674 0.5655977 -0.003495465
vn 0.9861557 0.1658221 0.0002756706
vn 0.770411 0.6373388 -0.01631789
vn 0.7900144 0.6130878 -0.0006980323
vn 0.615442 0.6080266 0.5015324
vn 0.8064197 0.5906641 0.0283402
vn 0.7491417 0.2602236 0.6091554
vn 0.8397014 0.2580743 0.4778069
vn 0.6761969 0.4155601 0.6083317
vn 0.8064197 0.5906641 0.0283402
vn 0.6659055 0.6934611 -0.2751029
vn 0.7381518 0.6017634 -0.3049799
vn 0.747098 0.6638204 -0.03445117
vn 0.7034935 0.4620761 -0.5399839
vn 0.5624176 0.6029814 -0.5657737
vn 0.6883401 0.3675966 -0.6253484
vn 0.3165211 0.5962964 -0.7377297
vn 0.3990832 0.6266099 -0.6693972
vn 0.0004095051 0.5821665 -0.8130695
vn -0.2287683 0.7392213 -0.6334169
vn -0.3113618 0.5817559 -0.7514079
vn -0.5736861 0.664242 -0.4792358
vn -0.5750704 0.5821784 -0.5747715
vn -0.702449 0.6638977 -0.2565254
vn -0.7509065 0.5826805 -0.3108424
vn -0.7353117 0.677729 -0.0002082087
vn -0.8123423 0.5831808 0.000255731
vn -0.8123423 0.5831808 0.000255731
vn -0.6882249 0.6746127 0.2669164
vn -0.7501627 0.583631 0.310855
vn -0.7353117 0.677729 -0.0002082087
vn -0.5727722 0.6663842 0.4773511
vn -0.5739977 0.5838651 0.5741324
vn -0.1422069 0.8425774 0.5194618
vn -0.3100318 0.584505 0.7498228
vn 0.3322414 0.684152 0.6492701
vn 0.2073795 0.3852347 0.8992151
vn 0.6684955 0.3908342 0.632742
vn 0.3855068 0.1512684 0.9102212
vn 0.6854187 0.4607649 0.5638235
vn 0.678207 0.1508551 0.7192204
vn 0.6220884 0.7036447 0.3433512
vn 0.7948204 0.290855 0.5326011
vn 0.747098 0.6638204 -0.03445117
vn 0.8064197 0.5906641 0.0283402
vn 0.7034935 0.4620761 -0.5399839
vn 0.6684955 0.3908342 0.632742
vn 0.6883401 0.3675966 -0.6253484
vn 0.6854187 0.4607649 0.5638235
vn 0.3990832 0.6266099 -0.6693972
vn 0.4657433 0.8846963 0.01989073
vn -0.2287683 0.7392213 -0.6334169
vn -0.702449 0.6638977 -0.2565254
vn -0.5736861 0.664242 -0.4792358
vn -0.7353117 0.677729 -0.0002082087
vn 0.3322414 0.684152 0.6492701
vn 0.6220884 0.7036447 0.3433512
vn 0.747098 0.6638204 -0.03445117
vn 0.6659055 0.6934611 -0.2751029
vn -0.6882249 0.6746127 0.2669164
vn -0.1422069 0.8425774 0.5194618
vn -0.5727722 0.6663842 0.4773511
vn 0 1 0
vn 0 1 0
vn 0 1 0
vn 0 1 0
vn 0 5.811819E-07 -1
vn 0 5.811819E-07 -1
vn 0 5.811819E-07 -1
vn 0 5.811819E-07 -1
vn 1 0 0
vn 1 0 0
vn 1 0 0
vn 1 0 0
vn 0 -2.905909E-07 1
vn 0 -2.905909E-07 1
vn 0 -2.905909E-07 1
vn 0 -2.905909E-07 1
vn -1 0 0
vn -1 0 0
vn -1 0 0
vn -1 0 0
vn -0.7311503 0.6822163 0
vn -0.7311503 0.6822163 0
vn -0.7311503 0.6822163 0
vn -0.7311503 0.6822164 0
vn 0 0.3011212 0.9535859
vn 0 0.3011212 0.9535859
vn 0 0.3011212 0.9535859
vn 0 0.3011212 0.9535859
vn 0.7311503 0.6822164 0
vn 0.7311503 0.6822163 0
vn 0.7311503 0.6822164 0
vn 0.7311503 0.6822164 0
vn 0 0.301163 -0.9535728
vn 0 0.301163 -0.9535728
vn 0 0.301163 -0.9535728
vn 0 0.301163 -0.9535728
g El_BrokenPillar_03_0
f 3/3/3 2/2/2 1/1/1
f 4/4/4 1/1/1 2/2/2
f 2/2/2 3/3/3 5/5/5
f 6/6/6 5/5/5 3/3/3
f 5/5/5 6/6/6 7/7/7
f 8/8/8 7/7/7 6/6/6
f 7/7/7 8/8/8 9/9/9
f 10/10/10 9/9/9 8/8/8
f 9/9/9 10/10/10 11/11/11
f 12/12/12 11/11/11 10/10/10
f 11/11/11 12/12/12 13/13/13
f 14/14/14 13/13/13 12/12/12
f 13/13/13 14/14/14 15/15/15
f 16/16/16 15/15/15 14/14/14
f 15/15/15 16/16/16 17/17/17
f 18/18/18 17/17/17 16/16/16
f 5/5/5 7/7/7 19/19/19
f 19/19/19 20/20/20 5/5/5
f 19/19/19 21/21/21 20/20/20
f 22/22/22 20/20/20 21/21/21
f 20/20/20 22/22/22 23/23/23
f 24/24/24 23/23/23 22/22/22
f 21/21/21 19/19/19 25/25/25
f 26/26/26 25/25/25 19/19/19
f 25/25/25 26/26/26 27/27/27
f 28/28/28 27/27/27 26/26/26
f 27/27/27 28/28/28 29/29/29
f 30/30/30 29/29/29 28/28/28
f 29/29/29 30/30/30 31/31/31
f 32/32/32 31/31/31 30/30/30
f 31/31/31 32/32/32 33/33/33
f 34/34/34 33/33/33 32/32/32
f 33/33/33 34/34/34 35/35/35
f 36/36/36 35/35/35 34/34/34
f 28/28/28 26/26/26 9/9/9
f 7/7/7 9/9/9 26/26/26
f 26/26/26 19/19/19 7/7/7
f 30/30/30 28/28/28 11/11/11
f 9/9/9 11/11/11 28/28/28
f 32/32/32 30/30/30 13/13/13
f 11/11/11 13/13/13 30/30/30
f 34/34/34 32/32/32 15/15/15
f 13/13/13 15/15/15 32/32/32
f 36/36/36 34/34/34 17/17/17
f 15/15/15 17/17/17 34/34/34
f 29/29/29 31/31/31 37/37/37
f 37/37/37 38/38/38 29/29/29
f 39/39/39 37/37/37 31/31/31
f 31/31/31 33/33/33 39/39/39
f 40/40/40 39/39/39 33/33/33
f 33/33/33 35/35/35 40/40/40
f 41/41/41 40/40/40 35/35/35
f 38/38/38 42/42/42 27/27/27
f 25/25/25 27/27/27 42/42/42
f 42/42/42 43/43/43 25/25/25
f 21/21/21 25/25/25 43/43/43
f 43/43/43 44/44/44 21/21/21
f 22/22/22 21/21/21 44/44/44
f 44/44/44 45/45/45 22/22/22
f 24/24/24 22/22/22 45/45/45
f 27/27/27 29/29/29 38/38/38
f 48/48/48 47/47/47 46/46/46
f 49/49/49 46/46/46 47/47/47
f 47/47/47 48/48/48 50/50/50
f 51/51/51 50/50/50 48/48/48
f 50/50/50 51/51/51 52/52/52
f 53/53/53 52/52/52 51/51/51
f 52/52/52 53/53/53 54/54/54
f 55/55/55 54/54/54 53/53/53
f 49/49/49 47/47/47 56/56/56
f 57/57/57 56/56/56 47/47/47
f 47/47/47 50/50/50 57/57/57
f 57/57/57 58/58/58 56/56/56
f 59/59/59 56/56/56 58/58/58
f 58/58/58 57/57/57 60/60/60
f 61/61/61 60/60/60 57/57/57
f 61/61/61 57/57/57 50/50/50
f 50/50/50 52/52/52 61/61/61
f 60/60/60 61/61/61 62/62/62
f 63/63/63 62/62/62 61/61/61
f 63/63/63 61/61/61 52/52/52
f 52/52/52 54/54/54 63/63/63
f 62/62/62 63/63/63 64/64/64
f 65/65/65 64/64/64 63/63/63
f 65/65/65 63/63/63 54/54/54
f 66/66/66 64/64/64 65/65/65
f 59/59/59 58/58/58 67/67/67
f 68/68/68 67/67/67 58/58/58
f 58/58/58 60/60/60 68/68/68
f 69/69/69 68/68/68 60/60/60
f 60/60/60 62/62/62 69/69/69
f 70/70/70 69/69/69 62/62/62
f 62/62/62 64/64/64 70/70/70
f 71/71/71 70/70/70 64/64/64
f 64/64/64 66/66/66 71/71/71
f 66/66/66 65/65/65 72/72/72
f 66/66/66 72/72/72 71/71/71
f 65/65/65 54/54/54 72/72/72
f 54/54/54 73/73/73 72/72/72
f 74/74/74 71/71/71 72/72/72
f 72/72/72 75/75/75 74/74/74
f 72/72/72 73/73/73 75/75/75
f 76/76/76 74/74/74 75/75/75
f 75/75/75 77/77/77 76/76/76
f 78/78/78 76/76/76 77/77/77
f 77/77/77 79/79/79 78/78/78
f 79/79/79 77/77/77 80/80/80
f 81/81/81 80/80/80 77/77/77
f 75/75/75 81/81/81 77/77/77
f 80/80/80 81/81/81 82/82/82
f 83/83/83 82/82/82 81/81/81
f 81/81/81 75/75/75 83/83/83
f 80/80/80 82/82/82 84/84/84
f 80/80/80 84/84/84 79/79/79
f 85/85/85 84/84/84 82/82/82
f 86/86/86 79/79/79 84/84/84
f 86/86/86 87/87/87 79/79/79
f 88/88/88 79/79/79 87/87/87
f 88/88/88 87/87/87 78/78/78
f 88/88/88 78/78/78 79/79/79
f 89/89/89 78/78/78 87/87/87
f 90/90/90 83/83/83 75/75/75
f 90/90/90 75/75/75 91/91/91
f 73/73/73 91/91/91 75/75/75
f 91/91/91 73/73/73 92/92/92
f 92/92/92 73/73/73 54/54/54
f 55/55/55 92/92/92 54/54/54
f 95/95/95 94/94/94 93/93/93
f 96/96/96 93/93/93 94/94/94
f 94/94/94 95/95/95 97/97/97
f 98/98/98 97/97/97 95/95/95
f 97/97/97 98/98/98 99/99/99
f 100/100/100 99/99/99 98/98/98
f 99/99/99 100/100/100 101/101/101
f 102/102/102 101/101/101 100/100/100
f 101/101/101 102/102/102 103/103/103
f 104/104/104 103/103/103 102/102/102
f 103/103/103 104/104/104 105/105/105
f 106/106/106 105/105/105 104/104/104
f 105/105/105 106/106/106 107/107/107
f 108/108/108 107/107/107 106/106/106
f 107/107/107 108/108/108 109/109/109
f 110/110/110 109/109/109 108/108/108
f 113/113/113 112/112/112 111/111/111
f 114/114/114 111/111/111 112/112/112
f 112/112/112 113/113/113 115/115/115
f 116/116/116 115/115/115 113/113/113
f 115/115/115 116/116/116 117/117/117
f 118/118/118 117/117/117 116/116/116
f 117/117/117 118/118/118 119/119/119
f 120/120/120 119/119/119 118/118/118
f 119/119/119 120/120/120 121/121/121
f 122/122/122 121/121/121 120/120/120
f 121/121/121 122/122/122 123/123/123
f 124/124/124 123/123/123 122/122/122
f 123/123/123 124/124/124 125/125/125
f 126/126/126 125/125/125 124/124/124
f 125/125/125 126/126/126 127/127/127
f 128/128/128 127/127/127 126/126/126
f 20/20/20 23/23/23 2/2/2
f 4/4/4 2/2/2 23/23/23
f 2/2/2 5/5/5 20/20/20
f 131/131/131 130/130/130 129/129/129
f 132/132/132 129/129/129 130/130/130
f 131/131/131 133/133/133 130/130/130
f 133/133/133 134/134/134 130/130/130
f 135/135/135 134/134/134 133/133/133
f 136/136/136 134/134/134 135/135/135
f 137/137/137 136/136/136 135/135/135
f 138/138/138 134/134/134 136/136/136
f 130/130/130 134/134/134 139/139/139
f 140/140/140 129/129/129 132/132/132
f 141/141/141 129/129/129 140/140/140
f 142/142/142 129/129/129 141/141/141
f 139/139/139 134/134/134 143/143/143
f 143/143/143 134/134/134 138/138/138
f 144/144/144 139/139/139 143/143/143
f 145/145/145 144/144/144 143/143/143
f 148/148/148 147/147/147 146/146/146
f 149/149/149 146/146/146 147/147/147
f 152/152/152 151/151/151 150/150/150
f 153/153/153 150/150/150 151/151/151
f 156/156/156 155/155/155 154/154/154
f 157/157/157 154/154/154 155/155/155
f 160/160/160 159/159/159 158/158/158
f 161/161/161 158/158/158 159/159/159
f 164/164/164 163/163/163 162/162/162
f 165/165/165 162/162/162 163/163/163
f 168/168/168 167/167/167 166/166/166
f 169/169/169 166/166/166 167/167/167
f 172/172/172 171/171/171 170/170/170
f 173/173/173 170/170/170 171/171/171
f 176/176/176 175/175/175 174/174/174
f 177/177/177 174/174/174 175/175/175
f 180/180/180 179/179/179 178/178/178
f 181/181/181 178/178/178 179/179/179
