g El_Bricks_02
v 0.6885845 -0.1260973 -0.3674966
v 0.625264 0.1260978 0.4968877
v 0.6885845 0.1260974 -0.3674974
v 0.625264 -0.126097 0.4968877
v -0.6885732 -0.1260979 -0.471971
v 0.5659077 0.1260973 -0.4968867
v -0.6885733 0.1260969 -0.471971
v 0.5659093 -0.1260974 -0.4968867
v -0.6885732 -0.1260979 -0.471971
v -0.6643432 0.1260943 -0.05433484
v -0.6654218 -0.1260976 -0.07290833
v -0.6885733 0.1260969 -0.471971
v -0.6629786 0.0563419 -0.03079274
v -0.6413172 0.05634218 0.3425653
v -0.6413172 -0.1260974 0.3425653
v -0.4782433 0.0563423 0.4965049
v -0.1251168 -0.1260972 0.4965708
v -0.4782433 -0.1260972 0.4965049
v -0.1905396 0.05634233 0.49655
v -0.1509638 0.1260947 0.4965579
v 0.625264 -0.126097 0.4968877
v 0.625264 0.1260978 0.4968877
v 0.6885845 -0.1260973 -0.3674966
v 0.5659077 0.1260973 -0.4968867
v 0.5659093 -0.1260974 -0.4968867
v 0.6885845 0.1260974 -0.3674974
v 0.5659077 0.1260973 -0.4968867
v -0.6643432 0.1260943 -0.05433484
v -0.6885733 0.1260969 -0.471971
v -0.2842703 0.1260974 -0.01516573
v 0.6885845 0.1260974 -0.3674974
v 0.625264 0.1260978 0.4968877
v -0.1427146 0.1260975 0.2324977
v -0.1509638 0.1260947 0.4965579
v -0.3063592 0.05634196 0.01074075
v -0.6629786 0.0563419 -0.03079274
v -0.1750587 0.05634224 0.2382762
v -0.4782433 0.0563423 0.4965049
v -0.1905396 0.05634233 0.49655
v -0.6413172 0.05634218 0.3425653
v -0.6413172 -0.1260974 0.3425653
v -0.4782433 0.0563423 0.4965049
v -0.4782433 -0.1260972 0.4965049
v -0.6413172 0.05634218 0.3425653
vt 0.9025673 0.9743742
vt 0.9603781 0.9555659
vt 0.8975955 0.9604968
vt 0.9748672 0.9651506
vt 0.8787342 0.8560147
vt 0.8901992 0.9490198
vt 0.8949805 0.8558652
vt 0.8762774 0.9500436
vt 0.9002354 0.8412036
vt 0.9240108 0.8612197
vt 0.9320323 0.8449969
vt 0.8949805 0.8558652
vt 0.9338397 0.8559942
vt 0.96047 0.8642615
vt 0.9665471 0.8573304
vt 0.9700931 0.8760499
vt 0.9796951 0.9022123
vt 0.9779449 0.8733383
vt 0.9680716 0.8965776
vt 0.9608344 0.9033327
vt 0.9748672 0.9651506
vt 0.9603781 0.9555659
vt 0.8801342 0.9654282
vt 0.8901992 0.9490198
vt 0.8762774 0.9500436
vt 0.8975955 0.9604968
vt 0.8901992 0.9490198
vt 0.9240108 0.8612197
vt 0.8949805 0.8558652
vt 0.9270409 0.8887274
vt 0.8975955 0.9604968
vt 0.9603781 0.9555659
vt 0.9439555 0.9009929
vt 0.9608344 0.9033327
vt 0.9379781 0.8828799
vt 0.9338397 0.8559942
vt 0.9503207 0.8930757
vt 0.9700931 0.8760499
vt 0.9680716 0.8965776
vt 0.96047 0.8642615
vt 0.9665471 0.8573304
vt 0.9700931 0.8760499
vt 0.9779449 0.8733383
vt 0.96047 0.8642615
vn 0.9973276 2.320694E-07 0.0730591
vn 0.9973276 2.320694E-07 0.07305911
vn 0.9973276 2.320694E-07 0.07305911
vn 0.9973276 0 0.07305918
vn -0.01985747 0 -0.9998029
vn -0.01985747 0 -0.9998029
vn -0.01985747 0 -0.9998029
vn -0.01985745 -1.261528E-07 -0.9998029
vn -0.9983214 4.105708E-06 0.05791706
vn -0.9983214 4.105708E-06 0.05791706
vn -0.9983214 4.105707E-06 0.05791706
vn -0.9983212 -3.02012E-07 0.05791971
vn -0.9983212 -1.118191E-06 0.0579201
vn -0.9983212 0 0.05791961
vn -0.9983212 0 0.05791961
vn -0.0001865615 0 1
vn -0.0001865615 0 1
vn -0.0001865615 0 1
vn -0.0002461387 2.589986E-05 1
vn -0.0002461387 2.589985E-05 1
vn -0.0004223523 7.839826E-06 1
vn -0.0004248993 0 0.9999999
vn 0.7256864 4.610229E-06 -0.6880255
vn 0.7256864 4.610229E-06 -0.6880255
vn 0.7256865 4.61023E-06 -0.6880255
vn 0.7256798 -2.185509E-06 -0.6880326
vn -6.951827E-07 1 -4.986416E-07
vn -0.06187976 0.8397039 0.5395073
vn -1.474243E-07 1 6.356697E-06
vn -0.2210227 0.9175746 0.3304629
vn -2.012081E-07 1 -5.826415E-07
vn -1.005762E-06 1 1.730481E-06
vn -0.4465962 0.8886728 0.1039834
vn -0.5104992 0.8597305 -0.01593867
vn -0.3309353 0.7785582 0.5332251
vn -0.07267927 0.7780011 0.624045
vn -0.5826235 0.8007195 0.1392771
vn -2.121032E-07 1 -5.795358E-07
vn -0.495385 0.8684839 -0.01814981
vn 0 1 -7.541089E-07
vn -0.6864476 0 0.7271793
vn -0.6864476 0 0.7271793
vn -0.6864476 0 0.7271793
vn -0.6864476 0 0.7271793
g El_Bricks_02_0
f 3/3/3 2/2/2 1/1/1
f 4/4/4 1/1/1 2/2/2
f 7/7/7 6/6/6 5/5/5
f 8/8/8 5/5/5 6/6/6
f 11/11/11 10/10/10 9/9/9
f 12/12/12 9/9/9 10/10/10
f 13/13/13 10/10/10 11/11/11
f 14/14/14 13/13/13 11/11/11
f 15/15/15 14/14/14 11/11/11
f 18/18/18 17/17/17 16/16/16
f 17/17/17 19/19/19 16/16/16
f 20/20/20 19/19/19 17/17/17
f 17/17/17 21/21/21 20/20/20
f 22/22/22 20/20/20 21/21/21
f 25/25/25 24/24/24 23/23/23
f 26/26/26 23/23/23 24/24/24
f 29/29/29 28/28/28 27/27/27
f 28/28/28 30/30/30 27/27/27
f 30/30/30 31/31/31 27/27/27
f 32/32/32 31/31/31 30/30/30
f 33/33/33 32/32/32 30/30/30
f 34/34/34 32/32/32 33/33/33
f 30/30/30 28/28/28 35/35/35
f 36/36/36 35/35/35 28/28/28
f 35/35/35 36/36/36 37/37/37
f 33/33/33 30/30/30 37/37/37
f 35/35/35 37/37/37 30/30/30
f 37/37/37 36/36/36 38/38/38
f 39/39/39 37/37/37 38/38/38
f 37/37/37 39/39/39 33/33/33
f 34/34/34 33/33/33 39/39/39
f 36/36/36 40/40/40 38/38/38
f 43/43/43 42/42/42 41/41/41
f 44/44/44 41/41/41 42/42/42
