g El_Groud_Brick_In_2
v -2.113071 0.002492889 1.194214
v -3.607764 -0.004198271 -2.011174
v -1.859938 -0.006095959 -2.920259
v -0.09156372 0.0002978012 0.1426611
v -0.1972522 -0.008307111 -3.979507
v 1.831339 -0.002259419 -1.082371
v 1.456995 0.005896758 2.824831
v -0.7977344 0.008307111 3.979507
v 3.607773 0.003036523 1.454641
vt 0.3543063 0.4307017
vt 0.3725665 0.9604406
vt 0.639377 0.9604406
vt 0.6574807 0.4307017
vt 0.9113078 0.9795408
vt 0.9568745 0.452591
vt 0.679599 0.01697541
vt 0.3319441 0.01697541
vt 0.9834885 0.03772453
vn 0 0.9999979 -0.002087468
vn 0 0.9999979 -0.002087468
vn 0 0.9999979 -0.002087468
vn 0 0.9999979 -0.002087468
vn 0 0.9999979 -0.002087468
vn 0 0.9999979 -0.002087468
vn 0 0.9999979 -0.002087468
vn 0 0.9999979 -0.002087467
vn 0 0.9999979 -0.002087468
g El_Groud_Brick_In_2_0
f 3/3/3 2/2/2 1/1/1
f 4/4/4 3/3/3 1/1/1
f 5/5/5 3/3/3 4/4/4
f 6/6/6 5/5/5 4/4/4
f 4/4/4 1/1/1 7/7/7
f 1/1/1 8/8/8 7/7/7
f 4/4/4 7/7/7 9/9/9
f 6/6/6 4/4/4 9/9/9
