g El_OutSide_Stone_03
v 1.046909 0.375526 -0.6441849
v -1.097626 0.3710034 0.6522225
v -1.056254 0.3710031 -0.6258814
v 1.08511 0.3755239 0.6346499
v 1.08511 0.3755239 0.6346499
v -1.090043 0.2485621 0.6629097
v -1.097626 0.3710034 0.6522225
v 1.080307 0.2481613 0.6351865
v 1.080307 0.2481613 0.6351865
v -1.075489 0.2338058 0.5539971
v -1.090043 0.2485621 0.6629097
v 1.037777 0.2357422 0.5258341
v 1.037777 0.2357422 0.5258341
v -1.080662 -0.2441654 0.5796822
v -1.075489 0.2338058 0.5539971
v 1.041765 -0.244166 0.533153
v 1.041765 -0.244166 0.533153
v -1.119057 -0.2579281 0.6563165
v -1.080662 -0.2441654 0.5796822
v 1.112408 -0.2559626 0.6169986
v 1.112408 -0.2559626 0.6169986
v -1.106743 -0.3739628 0.6570031
v -1.119057 -0.2579281 0.6563165
v 1.11245 -0.375526 0.6118038
v 1.11245 -0.375526 0.6118038
v -1.070538 -0.3739628 -0.6281499
v -1.106743 -0.3739628 0.6570031
v 1.063452 -0.3755246 -0.6630498
v 1.046909 0.375526 -0.6441849
v -1.04788 0.248562 -0.6318941
v 1.042817 0.2481629 -0.6572275
v -1.056254 0.3710031 -0.6258814
v 1.042817 0.2481629 -0.6572275
v -1.034013 0.2338057 -0.5168037
v 1.011032 0.2357425 -0.5342157
v -1.04788 0.248562 -0.6318941
v 1.011032 0.2357425 -0.5342157
v -1.039731 -0.2441653 -0.5339802
v 1.017979 -0.2441649 -0.5700992
v -1.034013 0.2338057 -0.5168037
v 1.017979 -0.2441649 -0.5700992
v -1.075801 -0.257928 -0.626005
v 1.077154 -0.2559613 -0.6578335
v -1.039731 -0.2441653 -0.5339802
v 1.077154 -0.2559613 -0.6578335
v -1.070538 -0.3739628 -0.6281499
v 1.063452 -0.3755246 -0.6630498
v -1.075801 -0.257928 -0.626005
v 1.046909 0.375526 -0.6441849
v 1.080307 0.2481613 0.6351865
v 1.08511 0.3755239 0.6346499
v 1.042817 0.2481629 -0.6572275
v 1.042817 0.2481629 -0.6572275
v 1.037777 0.2357422 0.5258341
v 1.080307 0.2481613 0.6351865
v 1.011032 0.2357425 -0.5342157
v 1.037777 0.2357422 0.5258341
v 1.017979 -0.2441649 -0.5700992
v 1.050911 -0.2441659 0.544961
v 1.011032 0.2357425 -0.5342157
v 1.017979 -0.2441649 -0.5700992
v 1.112408 -0.2559626 0.6169986
v 1.050911 -0.2441659 0.544961
v 1.077154 -0.2559613 -0.6578335
v 1.077154 -0.2559613 -0.6578335
v 1.11245 -0.375526 0.6118038
v 1.112408 -0.2559626 0.6169986
v 1.063452 -0.3755246 -0.6630498
v -1.097626 0.3710034 0.6522225
v -1.04788 0.248562 -0.6318941
v -1.056254 0.3710031 -0.6258814
v -1.090043 0.2485621 0.6629097
v -1.090043 0.2485621 0.6629097
v -1.034013 0.2338057 -0.5168037
v -1.04788 0.248562 -0.6318941
v -1.034013 0.2338057 -0.5168037
v -1.090043 0.2485621 0.6629097
v -1.075489 0.2338058 0.5539971
v -1.034013 0.2338057 -0.5168037
v -1.080662 -0.2441654 0.5796822
v -1.039731 -0.2441653 -0.5339802
v -1.075489 0.2338058 0.5539971
v -1.080662 -0.2441654 0.5796822
v -1.075801 -0.257928 -0.626005
v -1.039731 -0.2441653 -0.5339802
v -1.119057 -0.2579281 0.6563165
v -1.119057 -0.2579281 0.6563165
v -1.070538 -0.3739628 -0.6281499
v -1.075801 -0.257928 -0.626005
v -1.106743 -0.3739628 0.6570031
vt 0.2012071 0.2189478
vt 0.2825856 0.1205857
vt 0.2029972 0.1219748
vt 0.2818374 0.2161716
vt 0.2818374 0.2161716
vt 0.2927752 0.1205857
vt 0.2825856 0.1205857
vt 0.2920271 0.2161716
vt 0.2920271 0.2161716
vt 0.2971641 0.1184948
vt 0.2927752 0.1205857
vt 0.296683 0.2165987
vt 0.1275237 0.1195048
vt 0.1599885 0.2249163
vt 0.1275237 0.2270519
vt 0.1597749 0.1218539
vt 0.1597749 0.1218539
vt 0.1681267 0.2225039
vt 0.1599885 0.2249163
vt 0.1681604 0.1216403
vt 0.1681604 0.1216403
vt 0.1747115 0.2197167
vt 0.1681267 0.2225039
vt 0.1753747 0.1214268
vt 0.02973071 0.07013697
vt 0.05903514 0.04050631
vt 0.0297614 0.04059782
vt 0.05893081 0.07013697
vt 0.2012071 0.2189478
vt 0.1898114 0.1219748
vt 0.1897578 0.2189478
vt 0.2029972 0.1219748
vt 0.1897578 0.2189478
vt 0.183391 0.1173839
vt 0.183391 0.2204427
vt 0.1898114 0.1219748
vt 0.1275237 0.1195048
vt 0.1599885 0.2249163
vt 0.1597749 0.1218539
vt 0.1275237 0.2270519
vt 0.1597749 0.1218539
vt 0.1681267 0.2225039
vt 0.1681604 0.1216403
vt 0.1599885 0.2249163
vt 0.1681604 0.1216403
vt 0.1747115 0.2197167
vt 0.1753747 0.1214268
vt 0.1681267 0.2225039
vt 0.0901332 0.6798308
vt 0.09888427 0.6118892
vt 0.09112037 0.6123902
vt 0.0978971 0.6793298
vt 0.0978971 0.6793298
vt 0.1027127 0.6174099
vt 0.09888427 0.6118892
vt 0.1018728 0.6747878
vt 0.4758662 0.9191382
vt 0.5682124 0.8435839
vt 0.4762151 0.8435839
vt 0.5678635 0.9191382
vt 0.5682124 0.8435839
vt 0.4687017 0.8393232
vt 0.4762151 0.8435839
vt 0.5765017 0.8393232
vt 0.5765017 0.8393232
vt 0.4687017 0.8293653
vt 0.4687017 0.8393232
vt 0.5765017 0.8293653
vt 0.0901332 0.6798308
vt 0.09888427 0.6118892
vt 0.09112037 0.6123902
vt 0.0978971 0.6793298
vt 0.0978971 0.6793298
vt 0.1027127 0.6174099
vt 0.09888427 0.6118892
vt 0.1027127 0.6174099
vt 0.0978971 0.6793298
vt 0.1018728 0.6747878
vt 0.4758662 0.9191382
vt 0.5682124 0.8435839
vt 0.4762151 0.8435839
vt 0.5678635 0.9191382
vt 0.5682124 0.8435839
vt 0.4687017 0.8393232
vt 0.4762151 0.8435839
vt 0.5765017 0.8393232
vt 0.5765017 0.8393232
vt 0.4687017 0.8293653
vt 0.4687017 0.8393232
vt 0.5765017 0.8293653
vn -0.002097595 0.9999979 1.867913E-05
vn -0.002122911 0.9999977 -2.31991E-05
vn -0.002151142 0.9999977 -6.989972E-05
vn -0.002070489 0.9999979 6.351896E-05
vn 0.7311797 -0.02253251 0.6818126
vn -0.6813963 0.0193792 0.7316581
vn -0.7484781 0.01143648 0.663061
vn 0.712485 -0.02352581 0.7012929
vn 0.001534558 -0.9909176 0.1344617
vn 0.001534558 -0.9909176 0.1344617
vn 0.001534558 -0.9909176 0.1344617
vn 0.002402068 -0.9937142 0.1119214
vn 0.7310883 0.03156151 0.6815524
vn -0.7050486 0.04252787 0.7078826
vn -0.7252939 0.04476658 0.6869824
vn 0.02191475 0.01542716 0.9996408
vn 0.001597096 0.9903362 0.1386785
vn -0.10486 0.9867737 0.1236201
vn -0.2058933 0.9759232 0.07198581
vn 0.08610385 0.993383 0.07600274
vn 0.713981 -0.02891695 0.6995677
vn -0.6818204 -0.0692803 0.7282315
vn -0.7326745 -0.0711054 0.6768544
vn 0.7338033 -0.03402832 0.6785092
vn -0.0007222458 -0.9999998 1.080103E-05
vn -0.0007136138 -0.9999998 -4.395935E-06
vn -0.0007048323 -0.9999998 -1.985636E-05
vn -0.00073145 -0.9999998 2.700551E-05
vn 0.7226956 0.04564195 -0.6896578
vn -0.6718682 -0.008044006 -0.740627
vn 0.6617494 0.05530405 -0.7476826
vn -0.7236537 -0.01561057 -0.6899868
vn 8.711893E-05 -0.9949436 -0.1004358
vn 8.711887E-05 -0.9949436 -0.1004358
vn 8.711885E-05 -0.9949436 -0.1004358
vn -0.001727881 -0.9919052 -0.1269685
vn 0.7050241 0.0591976 -0.7067083
vn -0.6919562 0.03812435 -0.7209322
vn 0.6770068 0.06641369 -0.7329741
vn -0.701587 0.03315241 -0.7118122
vn 0.1001111 0.9927758 -0.06613702
vn -0.08950446 0.989571 -0.1128642
vn 0.07287234 0.9937581 -0.08446582
vn -0.1967662 0.9780095 -0.06914223
vn 0.7215488 -0.04831438 -0.6906757
vn -0.6857334 -0.01938813 -0.7275944
vn 0.648723 -0.04118618 -0.7599093
vn -0.7139346 -0.01943939 -0.6999425
vn 0.7226956 0.04564195 -0.6896578
vn 0.712485 -0.02352581 0.7012929
vn 0.7311797 -0.02253251 0.6818126
vn 0.6617494 0.05530405 -0.7476826
vn 0.3009086 -0.953613 -0.008729947
vn 0.3009086 -0.953613 -0.008729946
vn 0.3009086 -0.953613 -0.008729947
vn 0.3353675 -0.9420493 -0.008461753
vn 0.7310883 0.03156151 0.6815524
vn 0.6770068 0.06641369 -0.7329741
vn 0.9992218 0.02617036 -0.02951131
vn 0.7050241 0.0591976 -0.7067083
vn 0.1001111 0.9927758 -0.06613702
vn 0.08610385 0.993383 0.07600274
vn 0.1948855 0.9808091 -0.005754919
vn 0.07287234 0.9937581 -0.08446582
vn 0.7215488 -0.04831438 -0.6906757
vn 0.7338033 -0.03402832 0.6785092
vn 0.713981 -0.02891695 0.6995677
vn 0.648723 -0.04118618 -0.7599093
vn -0.7484781 0.01143648 0.663061
vn -0.6718682 -0.008044006 -0.740627
vn -0.7236537 -0.01561057 -0.6899868
vn -0.6813963 0.0193792 0.7316581
vn -0.6420231 -0.7664001 -0.02090648
vn -0.6420231 -0.7664002 -0.02090648
vn -0.6420231 -0.7664002 -0.02090648
vn -0.8186561 -0.573408 -0.0317097
vn -0.818656 -0.5734079 -0.0317097
vn -0.8186561 -0.573408 -0.0317097
vn -0.701587 0.03315241 -0.7118122
vn -0.7050486 0.04252787 0.7078826
vn -0.6919562 0.03812435 -0.7209322
vn -0.7252939 0.04476658 0.6869824
vn -0.2058933 0.9759232 0.07198581
vn -0.08950446 0.989571 -0.1128642
vn -0.1967662 0.9780095 -0.06914223
vn -0.10486 0.9867737 0.1236201
vn -0.7326745 -0.0711054 0.6768544
vn -0.6857334 -0.01938813 -0.7275944
vn -0.7139346 -0.01943939 -0.6999425
vn -0.6818204 -0.0692803 0.7282315
g El_OutSide_Stone_03_0
f 3/3/3 2/2/2 1/1/1
f 4/4/4 1/1/1 2/2/2
f 7/7/7 6/6/6 5/5/5
f 8/8/8 5/5/5 6/6/6
f 11/11/11 10/10/10 9/9/9
f 12/12/12 9/9/9 10/10/10
f 15/15/15 14/14/14 13/13/13
f 16/16/16 13/13/13 14/14/14
f 19/19/19 18/18/18 17/17/17
f 20/20/20 17/17/17 18/18/18
f 23/23/23 22/22/22 21/21/21
f 24/24/24 21/21/21 22/22/22
f 27/27/27 26/26/26 25/25/25
f 28/28/28 25/25/25 26/26/26
f 31/31/31 30/30/30 29/29/29
f 32/32/32 29/29/29 30/30/30
f 35/35/35 34/34/34 33/33/33
f 36/36/36 33/33/33 34/34/34
f 39/39/39 38/38/38 37/37/37
f 40/40/40 37/37/37 38/38/38
f 43/43/43 42/42/42 41/41/41
f 44/44/44 41/41/41 42/42/42
f 47/47/47 46/46/46 45/45/45
f 48/48/48 45/45/45 46/46/46
f 51/51/51 50/50/50 49/49/49
f 52/52/52 49/49/49 50/50/50
f 55/55/55 54/54/54 53/53/53
f 56/56/56 53/53/53 54/54/54
f 59/59/59 58/58/58 57/57/57
f 60/60/60 57/57/57 58/58/58
f 63/63/63 62/62/62 61/61/61
f 64/64/64 61/61/61 62/62/62
f 67/67/67 66/66/66 65/65/65
f 68/68/68 65/65/65 66/66/66
f 71/71/71 70/70/70 69/69/69
f 72/72/72 69/69/69 70/70/70
f 75/75/75 74/74/74 73/73/73
f 78/78/78 77/77/77 76/76/76
f 81/81/81 80/80/80 79/79/79
f 82/82/82 79/79/79 80/80/80
f 85/85/85 84/84/84 83/83/83
f 86/86/86 83/83/83 84/84/84
f 89/89/89 88/88/88 87/87/87
f 90/90/90 87/87/87 88/88/88
