g El_OutSide_Stone_02
v -2.18702 0.368044 0.762589
v -0.09055739 0.3635232 -0.5066856
v -0.05295596 0.3635215 0.7567207
v -2.155285 0.3680441 -0.5155648
v -0.04847614 0.3816103 -0.5656483
v -0.001917067 0.3816074 0.8042147
v 1.991231 0.3816105 -0.697848
v 2.127639 0.3816076 0.6838888
v -2.176197 0.2456027 0.7732934
v -0.05295596 0.3635215 0.7567207
v -0.06497121 0.246002 0.7651234
v -2.18702 0.368044 0.762589
v -0.001917067 0.3816074 0.8042147
v -0.007534578 0.246002 0.8126769
v 2.127639 0.3816076 0.6838888
v 2.127728 0.2444016 0.6755575
v -2.131906 0.2308464 0.6530334
v -0.06497121 0.246002 0.7651234
v -0.06212036 0.2289098 0.6590596
v -2.176197 0.2456027 0.7732934
v -2.137139 -0.2471249 0.6902201
v -0.06212036 0.2289098 0.6590596
v -0.06150742 -0.2471254 0.6734634
v -2.131906 0.2308464 0.6530334
v -0.02445723 0.2289097 0.7044045
v -0.02382304 -0.2471254 0.7188078
v 2.04637 0.2366557 0.6287203
v 2.065885 -0.2471254 0.5812669
v -2.196749 -0.2608874 0.7667442
v -0.06150742 -0.2471254 0.6734634
v -0.04000026 -0.2628542 0.7628714
v -2.137139 -0.2471249 0.6902201
v -0.02382304 -0.2471254 0.7188078
v -0.006668976 -0.2628542 0.8063826
v 2.065885 -0.2471254 0.5812669
v 2.148514 -0.2549897 0.646283
v -2.184436 -0.3769221 0.7674305
v -0.04000026 -0.2628542 0.7628714
v -0.05171888 -0.3753603 0.758473
v -2.196749 -0.2608874 0.7667442
v -0.006668976 -0.2628542 0.8063826
v -0.01840995 -0.3753603 0.8020084
v 2.129788 -0.3816105 0.6451293
v 2.148514 -0.2549897 0.646283
v -2.161109 -0.3769218 -0.5177894
v -0.05171888 -0.3753603 0.758473
v -0.09058062 -0.3753586 -0.5322847
v -2.184436 -0.3769221 0.7674305
v -0.01840995 -0.3753603 0.8020084
v -0.04901296 -0.3753587 -0.576272
v 2.129788 -0.3816105 0.6451293
v 2.00243 -0.3816089 -0.699834
v 2.127728 0.2444016 0.6755575
v -0.02445723 0.2289097 0.7044045
v -0.007534578 0.246002 0.8126769
v 2.04637 0.2366557 0.6287203
v -2.146911 0.2456029 -0.521578
v -0.09055739 0.3635232 -0.5066856
v -2.155285 0.3680441 -0.5155648
v -0.1027623 0.2460036 -0.5181597
v -0.06066759 0.2460037 -0.5771019
v -0.04847614 0.3816103 -0.5656483
v 1.991231 0.3816105 -0.697848
v 1.990891 0.2444039 -0.7141872
v -2.103368 0.2308466 -0.4063327
v -0.1027623 0.2460036 -0.5181597
v -2.146911 0.2456029 -0.521578
v -0.08095349 0.2289101 -0.4001192
v -2.109086 -0.2471244 -0.4235094
v -0.08095349 0.2289101 -0.4001192
v -2.103368 0.2308466 -0.4063327
v -0.08151977 -0.2471238 -0.4145278
v -0.03702376 -0.2471238 -0.4558629
v -0.0530089 0.2289101 -0.4775635
v 1.972331 0.2366566 -0.5958315
v 1.966186 -0.2471243 -0.5891103
v -2.166371 -0.2608871 -0.5156445
v -0.08151977 -0.2471238 -0.4145278
v -2.109086 -0.2471244 -0.4235094
v -0.07925985 -0.2628526 -0.5231158
v -0.03769961 -0.2628526 -0.5671241
v -0.03702376 -0.2471238 -0.4558629
v 1.966186 -0.2471243 -0.5891103
v 2.018179 -0.2549882 -0.7032116
v -2.161109 -0.3769218 -0.5177894
v -0.07925985 -0.2628526 -0.5231158
v -2.166371 -0.2608871 -0.5156445
v -0.09058062 -0.3753586 -0.5322847
v -0.04901296 -0.3753587 -0.576272
v -0.03769961 -0.2628526 -0.5671241
v 2.018179 -0.2549882 -0.7032116
v 2.00243 -0.3816089 -0.699834
v 1.990891 0.2444039 -0.7141872
v -0.0530089 0.2289101 -0.4775635
v 1.972331 0.2366566 -0.5958315
v -0.0530089 0.2289101 -0.4775635
v 1.990891 0.2444039 -0.7141872
v -0.06066759 0.2460037 -0.5771019
v -0.007534578 0.246002 0.8126769
v -0.06212036 0.2289098 0.6590596
v -0.06497121 0.246002 0.7651234
v -0.06212036 0.2289098 0.6590596
v -0.007534578 0.246002 0.8126769
v -0.02445723 0.2289097 0.7044045
v -0.0530089 0.2289101 -0.4775635
v -0.1027623 0.2460036 -0.5181597
v -0.08095349 0.2289101 -0.4001192
v -0.1027623 0.2460036 -0.5181597
v -0.0530089 0.2289101 -0.4775635
v -0.06066759 0.2460037 -0.5771019
v 2.127728 0.2444016 0.6755575
v 1.991231 0.3816105 -0.697848
v 1.990891 0.2444039 -0.7141872
v 2.127639 0.3816076 0.6838888
v 2.04637 0.2366557 0.6287203
v 1.990891 0.2444039 -0.7141872
v 1.972331 0.2366566 -0.5958315
v 1.990891 0.2444039 -0.7141872
v 2.04637 0.2366557 0.6287203
v 2.127728 0.2444016 0.6755575
v 1.966186 -0.2471243 -0.5891103
v 2.04637 0.2366557 0.6287203
v 1.972331 0.2366566 -0.5958315
v 2.065885 -0.2471254 0.5812669
v 2.148514 -0.2549897 0.646283
v 1.966186 -0.2471243 -0.5891103
v 2.018179 -0.2549882 -0.7032116
v 2.065885 -0.2471254 0.5812669
v 2.129788 -0.3816105 0.6451293
v 2.018179 -0.2549882 -0.7032116
v 2.00243 -0.3816089 -0.699834
v 2.148514 -0.2549897 0.646283
v -2.146911 0.2456029 -0.521578
v -2.18702 0.368044 0.762589
v -2.176197 0.2456027 0.7732934
v -2.155285 0.3680441 -0.5155648
v -2.103368 0.2308466 -0.4063327
v -2.176197 0.2456027 0.7732934
v -2.131906 0.2308464 0.6530334
v -2.146911 0.2456029 -0.521578
v -2.137139 -0.2471249 0.6902201
v -2.103368 0.2308466 -0.4063327
v -2.131906 0.2308464 0.6530334
v -2.109086 -0.2471244 -0.4235094
v -2.166371 -0.2608871 -0.5156445
v -2.137139 -0.2471249 0.6902201
v -2.196749 -0.2608874 0.7667442
v -2.109086 -0.2471244 -0.4235094
v -2.161109 -0.3769218 -0.5177894
v -2.196749 -0.2608874 0.7667442
v -2.184436 -0.3769221 0.7674305
v -2.166371 -0.2608871 -0.5156445
vt 0.2812204 0.120825
vt 0.2009936 0.2204427
vt 0.2816238 0.2204427
vt 0.2022666 0.1218309
vt 0.2009936 0.2251148
vt 0.2816238 0.2251148
vt 0.2009936 0.3291067
vt 0.2816238 0.3291067
vt 0.29141 0.120825
vt 0.2816238 0.2204427
vt 0.2918135 0.2204427
vt 0.2812204 0.120825
vt 0.2816238 0.2251148
vt 0.2918135 0.2251148
vt 0.2816238 0.3291067
vt 0.2918135 0.3291067
vt 0.2957988 0.1187341
vt 0.2918135 0.2204427
vt 0.2964694 0.2204427
vt 0.29141 0.120825
vt 0.1597749 0.2270519
vt 0.1275237 0.1195048
vt 0.1597749 0.1195048
vt 0.1275237 0.2270519
vt 0.1275237 0.1136334
vt 0.1597749 0.1136334
vt 0.1275237 0.009021889
vt 0.1597749 0.008258876
vt 0.1679132 0.2246394
vt 0.1597749 0.1195048
vt 0.1681604 0.1195048
vt 0.1597749 0.2270519
vt 0.1597749 0.1136334
vt 0.1705995 0.1136334
vt 0.1597749 0.008258876
vt 0.1700903 0.008258876
vt 0.174925 0.2214251
vt 0.1681604 0.1195048
vt 0.1753747 0.1195048
vt 0.1679132 0.2246394
vt 0.1705995 0.1136334
vt 0.1788746 0.1137909
vt 0.1792049 0.007911579
vt 0.1700903 0.008258876
vt 0.05903514 0.04050631
vt 0.02973071 0.07013697
vt 0.05893081 0.07013697
vt 0.0297614 0.04059782
vt 0.02893338 0.07241364
vt 0.06046613 0.07241364
vt 0.02908611 0.1030469
vt 0.06003283 0.1027652
vt 0.2918135 0.3291067
vt 0.2964694 0.2251148
vt 0.2918135 0.2251148
vt 0.2964694 0.3291067
vt 0.1908173 0.1218309
vt 0.2009936 0.2204427
vt 0.2022666 0.1218309
vt 0.1895443 0.2204427
vt 0.1895443 0.2251148
vt 0.2009936 0.2251148
vt 0.2009936 0.3291067
vt 0.1895443 0.3291067
vt 0.1843969 0.1172399
vt 0.1895443 0.2204427
vt 0.1908173 0.1218309
vt 0.183391 0.2204427
vt 0.1597749 0.2270519
vt 0.1275237 0.1195048
vt 0.1275237 0.2270519
vt 0.1597749 0.1195048
vt 0.1597749 0.1136334
vt 0.1275237 0.1136334
vt 0.1275237 0.009021889
vt 0.1597749 0.008258876
vt 0.1679132 0.2246394
vt 0.1597749 0.1195048
vt 0.1597749 0.2270519
vt 0.1681604 0.1195048
vt 0.1705995 0.1136334
vt 0.1597749 0.1136334
vt 0.1597749 0.008258876
vt 0.1701836 0.008194082
vt 0.174925 0.2214251
vt 0.1681604 0.1195048
vt 0.1679132 0.2246394
vt 0.1753747 0.1195048
vt 0.1788746 0.1137909
vt 0.1705995 0.1136334
vt 0.1701836 0.008380989
vt 0.1792049 0.007911579
vt 0.1895443 0.3291067
vt 0.183391 0.2251148
vt 0.183391 0.3291067
vt 0.183391 0.2251148
vt 0.1895443 0.3291067
vt 0.1895443 0.2251148
vt 0.2918135 0.2251148
vt 0.2964694 0.2204427
vt 0.2918135 0.2204427
vt 0.2964694 0.2204427
vt 0.2918135 0.2251148
vt 0.2964694 0.2251148
vt 0.183391 0.2251148
vt 0.1895443 0.2204427
vt 0.183391 0.2204427
vt 0.1895443 0.2204427
vt 0.183391 0.2251148
vt 0.1895443 0.2251148
vt 0.0909612 0.8047733
vt 0.08570151 0.8696284
vt 0.0909003 0.8703073
vt 0.08576242 0.8040946
vt 0.09458871 0.8100309
vt 0.0909003 0.8703073
vt 0.09453786 0.8647566
vt 0.0909003 0.8703073
vt 0.09458871 0.8100309
vt 0.0909612 0.8047733
vt 0.5404039 0.9512513
vt 0.4466545 0.9932575
vt 0.5396025 0.9929903
vt 0.4474559 0.9515185
vt 0.4390674 0.9403535
vt 0.5404039 0.9512513
vt 0.5487981 0.9400864
vt 0.4474559 0.9515185
vt 0.4390674 0.9286848
vt 0.5487981 0.9400864
vt 0.5487981 0.9284176
vt 0.4390674 0.9403535
vt 0.0909612 0.8047733
vt 0.08570151 0.8696284
vt 0.0909003 0.8703073
vt 0.08576242 0.8040946
vt 0.09458871 0.8100309
vt 0.0909003 0.8703073
vt 0.09453786 0.8647566
vt 0.0909612 0.8047733
vt 0.5404039 0.9512513
vt 0.4466545 0.9932575
vt 0.5396025 0.9929903
vt 0.4474559 0.9515185
vt 0.4390674 0.9403535
vt 0.5404039 0.9512513
vt 0.5487981 0.9400864
vt 0.4474559 0.9515185
vt 0.4390674 0.9286848
vt 0.5487981 0.9400864
vt 0.5487981 0.9284176
vt 0.4390674 0.9403535
vn -0.7622696 0.6470268 -0.01736281
vn -0.2340515 0.9721992 0.006983455
vn -0.208918 0.9779075 0.007090961
vn -0.7362689 0.6764421 -0.0182806
vn -0.116241 0.993215 0.003487089
vn -0.1205357 0.9927005 0.004098907
vn 0.718255 0.6921754 -0.07073058
vn 0.6971134 0.7136504 -0.06881884
vn 0.002955312 0.08679935 0.9962214
vn -0.4187722 0.1075972 0.9016944
vn -0.333434 0.08488932 0.9389439
vn 0.002924475 0.08734787 0.9961736
vn -0.2977275 0.08658969 0.9507158
vn -0.3155038 0.06945048 0.9463794
vn 0.06363384 -0.0556163 0.9964224
vn 0.06392238 -0.06044415 0.9961227
vn -0.001386871 -0.9872677 0.1590619
vn -0.001386872 -0.9872677 0.1590619
vn -0.001386871 -0.9872677 0.1590619
vn 0.000659961 -0.9925263 0.1220294
vn -0.7007967 0.05871461 0.7109405
vn -0.4182186 0.03075044 0.9078258
vn -0.4244342 0.02682055 0.9050614
vn -0.7321209 0.06079995 0.6784559
vn -0.411157 0.02703908 0.9111634
vn -0.4027406 0.01685102 0.9151591
vn 0.7254136 -0.03535168 0.6874048
vn 0.7875127 -0.02862046 0.6156336
vn -0.09652184 0.9900159 0.1027232
vn -0.05859716 0.9806677 0.1867009
vn -0.1948912 0.9580083 0.210327
vn -0.1227692 0.989027 0.08217793
vn -0.1787315 0.9607467 0.2121812
vn -0.05757635 0.9807811 0.1864227
vn 0.05250405 0.997131 0.05452679
vn 0.05612417 0.997165 0.05011817
vn -0.6846709 -0.06942343 0.7255384
vn -0.4682534 0.01510816 0.883465
vn -0.412493 0.007458563 0.9109302
vn -0.7347031 -0.07137843 0.6746232
vn -0.3784254 0.003958778 0.9256232
vn -0.4396912 0.01096875 0.898082
vn 0.7319442 -0.1141593 0.6717331
vn 0.7829547 -0.1213477 0.6101284
vn 0.000740114 -0.9999998 2.207402E-07
vn 0.000285801 -1 -5.022289E-06
vn 0.0003024481 -1 -1.033876E-05
vn 0.0007323665 -0.9999998 1.302562E-05
vn -0.002052079 -0.999998 4.436816E-05
vn -0.001987959 -0.9999981 9.55081E-05
vn -0.002982525 -0.9999956 0.0002019011
vn -0.003029488 -0.9999954 0.0002856771
vn 0.009182652 -0.9879461 0.1545257
vn 0.00918265 -0.9879461 0.1545257
vn 0.009182651 -0.9879461 0.1545257
vn 0.00909931 -0.9889827 0.1477511
vn 0.00430687 0.05102129 -0.9986883
vn -0.5072864 0.1268003 -0.8523979
vn 0.004403224 0.04935156 -0.9987717
vn -0.4398755 0.1324077 -0.8882442
vn -0.4951195 0.124752 -0.8598219
vn -0.4509642 0.1152977 -0.8850637
vn -0.06604256 0.1169615 -0.9909381
vn -0.06611267 0.1181521 -0.9907923
vn 0.0004070748 -0.9918825 -0.1271569
vn 0.0004070748 -0.9918825 -0.1271569
vn 0.0004070748 -0.9918825 -0.1271569
vn -0.0005076253 -0.9896902 -0.1432238
vn -0.6914147 0.03362048 -0.7216755
vn -0.5525087 -0.00602582 -0.8334854
vn -0.7020489 0.03322777 -0.7113531
vn -0.3655809 0.02859434 -0.9303403
vn -0.41348 -0.01455691 -0.9103969
vn -0.5965468 -0.05652758 -0.8005852
vn 0.6622216 -0.02244474 -0.7489718
vn 0.6585223 -0.008313928 -0.7525153
vn -0.08294423 0.9918649 -0.09656239
vn -0.04592989 0.9887028 -0.1426793
vn -0.1234322 0.9898022 -0.07110762
vn -0.09324553 0.9850827 -0.1446281
vn -0.05274457 0.9888275 -0.1394211
vn -0.0812812 0.9869469 -0.1390291
vn 0.06540631 0.997075 -0.0395408
vn 0.03494864 0.9979904 -0.05285639
vn -0.6854861 -0.01853764 -0.7278497
vn -0.409198 0.1136311 -0.9053425
vn -0.7140777 -0.01944741 -0.6997963
vn -0.3821616 0.1131984 -0.9171361
vn -0.4339766 0.1140917 -0.8936708
vn -0.4107173 0.1148464 -0.9045008
vn 0.6715369 -0.1013007 -0.734014
vn 0.6201301 -0.09789426 -0.778367
vn 2.495666E-06 -0.9978645 -0.06531732
vn 2.495646E-06 -0.9978645 -0.06531733
vn 2.495666E-06 -0.9978645 -0.06531733
vn -0.01201712 -0.9856557 -0.1683404
vn -0.01201712 -0.9856557 -0.1683405
vn -0.01201712 -0.9856557 -0.1683404
vn -0.1278677 -0.9796927 0.1544416
vn -0.1278677 -0.9796927 0.1544416
vn -0.1278677 -0.9796927 0.1544416
vn -0.2239754 -0.9566753 0.1860311
vn -0.2239753 -0.9566753 0.1860311
vn -0.2239753 -0.9566753 0.1860311
vn -0.2554445 -0.9624199 -0.09217329
vn -0.2554445 -0.9624199 -0.09217329
vn -0.2554445 -0.9624199 -0.09217329
vn -0.2097373 -0.9662161 -0.1497891
vn -0.2097373 -0.9662161 -0.1497891
vn -0.2097373 -0.9662161 -0.1497891
vn 0.995141 0.00677164 -0.09822652
vn 0.718255 0.6921754 -0.07073058
vn 0.9951454 0.009199526 -0.0979844
vn 0.6971134 0.7136504 -0.06881884
vn 0.2884142 -0.9573469 -0.01743886
vn 0.2884142 -0.9573469 -0.01743886
vn 0.2884142 -0.9573469 -0.01743886
vn 0.1004142 -0.9948966 -0.009888675
vn 0.1004142 -0.9948966 -0.009888674
vn 0.1004142 -0.9948966 -0.009888673
vn 0.6585223 -0.008313928 -0.7525153
vn 0.7254136 -0.03535168 0.6874048
vn 0.6622216 -0.02244474 -0.7489718
vn 0.7875127 -0.02862046 0.6156336
vn 0.05612417 0.997165 0.05011817
vn 0.06540631 0.997075 -0.0395408
vn 0.03494864 0.9979904 -0.05285639
vn 0.05250405 0.997131 0.05452679
vn 0.7319442 -0.1141593 0.6717331
vn 0.6715369 -0.1013007 -0.734014
vn 0.6201301 -0.09789426 -0.778367
vn 0.7829547 -0.1213477 0.6101284
vn -0.9973508 -0.06844697 -0.02462476
vn -0.7622696 0.6470268 -0.01736281
vn -0.9956886 -0.08998307 -0.02251945
vn -0.7362689 0.6764421 -0.0182806
vn -0.3382598 -0.9410086 -0.009112664
vn -0.3382598 -0.9410086 -0.009112664
vn -0.3382598 -0.9410086 -0.009112664
vn -0.3045513 -0.9524711 -0.006888146
vn -0.7007967 0.05871461 0.7109405
vn -0.7020489 0.03322777 -0.7113531
vn -0.7321209 0.06079995 0.6784559
vn -0.6914147 0.03362048 -0.7216755
vn -0.08294423 0.9918649 -0.09656239
vn -0.1227692 0.989027 0.08217793
vn -0.09652184 0.9900159 0.1027232
vn -0.1234322 0.9898022 -0.07110762
vn -0.6854861 -0.01853764 -0.7278497
vn -0.7347031 -0.07137843 0.6746232
vn -0.6846709 -0.06942343 0.7255384
vn -0.7140777 -0.01944741 -0.6997963
g El_OutSide_Stone_02_0
f 3/3/3 2/2/2 1/1/1
f 4/4/4 1/1/1 2/2/2
f 2/2/2 3/3/3 5/5/5
f 6/6/6 5/5/5 3/3/3
f 5/5/5 6/6/6 7/7/7
f 8/8/8 7/7/7 6/6/6
f 11/11/11 10/10/10 9/9/9
f 12/12/12 9/9/9 10/10/10
f 10/10/10 11/11/11 13/13/13
f 14/14/14 13/13/13 11/11/11
f 13/13/13 14/14/14 15/15/15
f 16/16/16 15/15/15 14/14/14
f 19/19/19 18/18/18 17/17/17
f 20/20/20 17/17/17 18/18/18
f 23/23/23 22/22/22 21/21/21
f 24/24/24 21/21/21 22/22/22
f 22/22/22 23/23/23 25/25/25
f 26/26/26 25/25/25 23/23/23
f 25/25/25 26/26/26 27/27/27
f 28/28/28 27/27/27 26/26/26
f 31/31/31 30/30/30 29/29/29
f 32/32/32 29/29/29 30/30/30
f 30/30/30 31/31/31 33/33/33
f 34/34/34 33/33/33 31/31/31
f 33/33/33 34/34/34 35/35/35
f 36/36/36 35/35/35 34/34/34
f 39/39/39 38/38/38 37/37/37
f 40/40/40 37/37/37 38/38/38
f 38/38/38 39/39/39 41/41/41
f 42/42/42 41/41/41 39/39/39
f 42/42/42 43/43/43 41/41/41
f 44/44/44 41/41/41 43/43/43
f 47/47/47 46/46/46 45/45/45
f 48/48/48 45/45/45 46/46/46
f 46/46/46 47/47/47 49/49/49
f 50/50/50 49/49/49 47/47/47
f 49/49/49 50/50/50 51/51/51
f 52/52/52 51/51/51 50/50/50
f 55/55/55 54/54/54 53/53/53
f 56/56/56 53/53/53 54/54/54
f 59/59/59 58/58/58 57/57/57
f 60/60/60 57/57/57 58/58/58
f 60/60/60 58/58/58 61/61/61
f 62/62/62 61/61/61 58/58/58
f 62/62/62 63/63/63 61/61/61
f 64/64/64 61/61/61 63/63/63
f 67/67/67 66/66/66 65/65/65
f 68/68/68 65/65/65 66/66/66
f 71/71/71 70/70/70 69/69/69
f 72/72/72 69/69/69 70/70/70
f 72/72/72 70/70/70 73/73/73
f 74/74/74 73/73/73 70/70/70
f 74/74/74 75/75/75 73/73/73
f 76/76/76 73/73/73 75/75/75
f 79/79/79 78/78/78 77/77/77
f 80/80/80 77/77/77 78/78/78
f 80/80/80 78/78/78 81/81/81
f 82/82/82 81/81/81 78/78/78
f 82/82/82 83/83/83 81/81/81
f 84/84/84 81/81/81 83/83/83
f 87/87/87 86/86/86 85/85/85
f 88/88/88 85/85/85 86/86/86
f 88/88/88 86/86/86 89/89/89
f 90/90/90 89/89/89 86/86/86
f 90/90/90 91/91/91 89/89/89
f 92/92/92 89/89/89 91/91/91
f 95/95/95 94/94/94 93/93/93
f 98/98/98 97/97/97 96/96/96
f 101/101/101 100/100/100 99/99/99
f 104/104/104 103/103/103 102/102/102
f 107/107/107 106/106/106 105/105/105
f 110/110/110 109/109/109 108/108/108
f 113/113/113 112/112/112 111/111/111
f 114/114/114 111/111/111 112/112/112
f 117/117/117 116/116/116 115/115/115
f 120/120/120 119/119/119 118/118/118
f 123/123/123 122/122/122 121/121/121
f 124/124/124 121/121/121 122/122/122
f 127/127/127 126/126/126 125/125/125
f 128/128/128 125/125/125 126/126/126
f 131/131/131 130/130/130 129/129/129
f 132/132/132 129/129/129 130/130/130
f 135/135/135 134/134/134 133/133/133
f 136/136/136 133/133/133 134/134/134
f 139/139/139 138/138/138 137/137/137
f 140/140/140 137/137/137 138/138/138
f 143/143/143 142/142/142 141/141/141
f 144/144/144 141/141/141 142/142/142
f 147/147/147 146/146/146 145/145/145
f 148/148/148 145/145/145 146/146/146
f 151/151/151 150/150/150 149/149/149
f 152/152/152 149/149/149 150/150/150
