g El_Stair_SideStone_02
v 0.3182324 0.2845651 -0.6167023
v -0.6032532 0.2845648 -0.3567218
v -0.3067383 0.2845648 -0.5979462
v 0.2425177 0.2810593 -0.1884564
v -0.2379907 0.2810593 0.2054327
v -0.5998608 0.2845648 0.2747601
v -0.08617004 0.2810593 0.2164227
v 0.06719177 0.2810593 0.1089178
v -0.6846338 0.4326656 0.2922357
v -0.2311615 0.4326652 0.21086
v -0.6846338 0.4326655 0.6849921
v -0.07743409 0.4326652 0.2214655
v 0.08101135 0.4326656 0.1121686
v 0.6929944 0.4326655 0.6849921
v 0.6929938 0.4326656 -0.6775336
v 0.2577185 0.4326656 -0.1875482
v 0.349751 0.4326656 -0.6775336
v -0.6846338 0.3038467 0.2834064
v -0.6846338 0.4326655 0.6849921
v -0.6846338 0.3038467 0.6849921
v -0.6846338 0.4326656 0.2922357
v -0.5998608 0.2845648 0.2747601
v -0.6846338 0.3038467 0.6849921
v 0.6929944 0.4326655 0.6849921
v 0.6929944 0.3038467 0.6849921
v -0.6846338 0.4326655 0.6849921
v 0.6929944 0.3038467 0.6849921
v 0.6929938 0.4326656 -0.6775336
v 0.6929938 0.3038467 -0.6775336
v 0.6929944 0.4326655 0.6849921
v 0.6041821 0.2722958 -0.6176519
v 0.6929944 0.3038467 0.6849921
v 0.6929938 0.3038467 -0.6775336
v 0.6041821 0.2722958 0.6103339
v 0.6041821 0.2722958 0.6103339
v -0.6846338 0.3038467 0.6849921
v 0.6929944 0.3038467 0.6849921
v -0.6041754 0.2722958 0.6103339
v 0.6929938 0.3038467 -0.6775336
v 0.3182324 0.2845651 -0.6167023
v 0.6041821 0.2722958 -0.6176519
v 0.3182324 0.2845651 -0.6167023
v 0.6929938 0.3038467 -0.6775336
v 0.3259375 0.3038467 -0.6775336
v -0.692987 -0.2934088 -0.6849908
v 0.6846405 -0.4464107 -0.6849908
v 0.6846405 -0.2934088 -0.6849908
v -0.6929871 -0.4464107 -0.6849908
v 0.6846405 -0.2934088 -0.6849908
v 0.6846405 -0.4464107 0.6738026
v 0.6846405 -0.2934088 0.6738025
v 0.6846405 -0.4464107 -0.6849908
v 0.6846405 -0.2934088 0.6738025
v -0.6929871 -0.4464107 0.6738026
v -0.692987 -0.2934088 0.6738025
v 0.6846405 -0.4464107 0.6738026
v -0.692987 -0.2934088 0.6738025
v -0.6929871 -0.4464107 -0.6849908
v -0.692987 -0.2934088 -0.6849908
v -0.6929871 -0.4464107 0.6738026
v -0.6083514 -0.261416 -0.6111151
v -0.692987 -0.2934088 0.6738025
v -0.692987 -0.2934088 -0.6849908
v -0.6083514 -0.261416 0.6168683
v -0.6083514 -0.261416 0.6168683
v 0.6846405 -0.2934088 0.6738025
v -0.692987 -0.2934088 0.6738025
v 0.6000055 -0.261416 0.6168683
v 0.6000055 -0.261416 0.6168683
v 0.6846405 -0.2934088 -0.6849908
v 0.6846405 -0.2934088 0.6738025
v 0.6000055 -0.261416 -0.6111151
v 0.6000055 -0.261416 -0.6111151
v -0.692987 -0.2934088 -0.6849908
v 0.6846405 -0.2934088 -0.6849908
v -0.6083514 -0.261416 -0.6111151
v -0.6083514 -0.261416 -0.6111151
v -0.6041754 0.2722958 0.6103339
v -0.6083514 -0.261416 0.6168683
v -0.5998608 0.2845648 0.2747601
v -0.6050525 0.133468 -0.5951434
v -0.6032532 0.2845648 -0.3567218
v -0.6083514 -0.261416 0.6168683
v 0.6041821 0.2722958 0.6103339
v 0.6000055 -0.261416 0.6168683
v -0.6041754 0.2722958 0.6103339
v 0.6000055 -0.261416 0.6168683
v 0.6041821 0.2722958 -0.6176519
v 0.6000055 -0.261416 -0.6111151
v 0.6041821 0.2722958 0.6103339
v -0.6083514 -0.261416 -0.6111151
v -0.3067383 0.2845648 -0.5979462
v -0.6050525 0.133468 -0.5951434
v 0.6000055 -0.261416 -0.6111151
v 0.6000055 -0.261416 -0.6111151
v 0.3182324 0.2845651 -0.6167023
v -0.3067383 0.2845648 -0.5979462
v 0.6041821 0.2722958 -0.6176519
v 0.349751 0.4326656 -0.6775336
v 0.6929938 0.3038467 -0.6775336
v 0.6929938 0.4326656 -0.6775336
v 0.3259375 0.3038467 -0.6775336
v 0.3182324 0.2845651 -0.6167023
v -0.6041754 0.2722958 0.6103339
v -0.6846338 0.3038467 0.2834064
v -0.6846338 0.3038467 0.6849921
v -0.6846338 0.3038467 0.2834064
v -0.6041754 0.2722958 0.6103339
v -0.5998608 0.2845648 0.2747601
v -0.6050525 0.133468 -0.5951434
v -0.3067383 0.2845648 -0.5979462
v -0.6032532 0.2845648 -0.3567218
vt 0.03607731 0.4569387
vt 0.1018162 0.4671594
vt 0.08052173 0.4576916
vt 0.04316965 0.4922261
vt 0.07150703 0.5170389
vt 0.1034029 0.524728
vt 0.06211644 0.5151554
vt 0.05383112 0.5115148
vt 0.09826401 0.5279761
vt 0.07051164 0.521222
vt 0.09855205 0.5503271
vt 0.06093857 0.5193778
vt 0.05027761 0.5144619
vt 0.01394978 0.550328
vt 0.01394978 0.461685
vt 0.0383926 0.4937539
vt 0.03206816 0.4616849
vt 0.1059504 0.5295808
vt 0.09855205 0.5503271
vt 0.1059504 0.5581166
vt 0.09826401 0.5279761
vt 0.1034029 0.524728
vt 0.1059504 0.5581166
vt 0.01394978 0.550328
vt 0.006551671 0.5581175
vt 0.09855205 0.5503271
vt 0.006551671 0.5581175
vt 0.01394978 0.461685
vt 0.006551443 0.4538956
vt 0.01394978 0.550328
vt 0.3427785 0.9073613
vt 0.3479757 0.9927407
vt 0.3479755 0.9046314
vt 0.3427785 0.989745
vt 0.3549216 0.9978559
vt 0.4320075 0.9927399
vt 0.3479757 0.9927407
vt 0.4250195 0.9978557
vt 0.3482607 0.9045591
vt 0.3705964 0.8999583
vt 0.3552066 0.9000992
vt 0.3705964 0.8999583
vt 0.3482607 0.9045591
vt 0.3699683 0.904559
vt 0.5393873 0.9403728
vt 0.4411238 0.9294764
vt 0.4414711 0.9403728
vt 0.53904 0.9294764
vt 0.4414701 0.9403728
vt 0.53904 0.9294764
vt 0.5393873 0.9403728
vt 0.4411228 0.9294764
vt 0.5393873 0.9403728
vt 0.6376069 0.9294764
vt 0.6379542 0.9403728
vt 0.53904 0.9294764
vt 0.6379548 0.9403728
vt 0.53904 0.9294764
vt 0.5393873 0.9403728
vt 0.6376075 0.9294764
vt 0.5393873 0.9508297
vt 0.6379548 0.9403728
vt 0.5393873 0.9403728
vt 0.6317677 0.9508297
vt 0.6317677 0.9508297
vt 0.5393873 0.9403728
vt 0.6379542 0.9403728
vt 0.5393873 0.9508297
vt 0.5393873 0.9508297
vt 0.4414701 0.9403728
vt 0.5393873 0.9403728
vt 0.4470073 0.9508297
vt 0.4470073 0.9508297
vt 0.5393873 0.9403728
vt 0.4414711 0.9403728
vt 0.5393873 0.9508297
vt 0.5393873 0.9508297
vt 0.6317677 0.9946691
vt 0.6317677 0.9508297
vt 0.6059082 0.994669
vt 0.5393888 0.9825379
vt 0.5484651 0.9946704
vt 0.6317677 0.9508297
vt 0.5393873 0.9946691
vt 0.5393873 0.9508297
vt 0.6317677 0.9946691
vt 0.5393873 0.9508297
vt 0.4470073 0.9946691
vt 0.4470073 0.9508297
vt 0.5393873 0.9946691
vt 0.5393873 0.9508297
vt 0.5166847 0.9946698
vt 0.5393888 0.9825379
vt 0.4470073 0.9508297
vt 0.4470073 0.9508297
vt 0.4689188 0.9946691
vt 0.5166847 0.9946698
vt 0.4470073 0.9946691
vt 0.03206816 0.4616849
vt 0.006551443 0.4538956
vt 0.01394978 0.461685
vt 0.0322286 0.4538955
vt 0.03607731 0.4569387
vt 0.4363505 0.990537
vt 0.4320075 0.9686157
vt 0.4320075 0.9927399
vt 0.4320075 0.9686157
vt 0.4363505 0.990537
vt 0.4364029 0.9669037
vt 0.1015082 0.4577507
vt 0.08052173 0.4576916
vt 0.1018162 0.4671594
vn -0.7574106 0.6399767 -0.1294557
vn 0.004150482 0.9999862 0.003237536
vn -5.070077E-07 1 -6.232178E-07
vn -0.6623665 0.7071378 -0.2474404
vn -0.03468165 0.7504959 -0.6599646
vn -0.1513806 0.5546309 -0.8182105
vn -0.1918772 0.6569598 -0.7291
vn -0.5270308 0.6920167 -0.4933067
vn -0.09369046 0.8615487 -0.498955
vn -0.03666458 0.6942322 -0.7188166
vn 1.900933E-07 1 -1.76588E-07
vn -0.1624513 0.8034484 -0.5727828
vn -0.4581004 0.7836335 -0.4195981
vn 0 1 0
vn 0 1 0
vn -0.588238 0.7785449 -0.2187326
vn -0.5081616 0.8564575 -0.09084173
vn -0.6786706 0.05022159 -0.7327237
vn -1 0 0
vn -1 0 0
vn -0.9559383 0.02007432 -0.2928806
vn -0.08588228 0.06812789 -0.9939732
vn 0 0 1
vn 0 0 1
vn 0 0 1
vn 0 0 1
vn 1 0 -3.953218E-07
vn 1 -5.567164E-07 -4.445958E-07
vn 1 -5.922581E-07 -4.47956E-07
vn 1 0 -3.919615E-07
vn 0.3347593 -0.9423037 -1.499575E-07
vn 0.3347593 -0.9423036 -1.499574E-07
vn 0.3347593 -0.9423036 -1.499574E-07
vn 0.3347573 -0.9423044 0
vn 0 -0.9211233 0.389271
vn 0 -0.9211233 0.389271
vn 0 -0.9211233 0.389271
vn 0 -0.9211233 0.389271
vn -0.03856508 -0.859329 -0.509967
vn -0.03856508 -0.859329 -0.5099669
vn -0.03856508 -0.859329 -0.509967
vn 0 -0.9532593 -0.3021534
vn 0 -0.9532593 -0.3021533
vn 0 -0.9532593 -0.3021534
vn 0 0 -1
vn 0 0 -1
vn 0 0 -1
vn 0 0 -1
vn 1 0 0
vn 1 0 0
vn 1 0 0
vn 1 0 0
vn 0 4.986468E-07 1
vn 0 4.986469E-07 1
vn 0 4.986469E-07 1
vn 0 4.986469E-07 1
vn -1 4.986469E-07 0
vn -1 4.98647E-07 0
vn -1 4.98647E-07 0
vn -1 4.986469E-07 0
vn -0.3535877 0.9354014 0
vn -0.3535877 0.9354014 0
vn -0.3535877 0.9354014 0
vn -0.3535876 0.9354014 0
vn 0 0.8717893 0.4898809
vn 0 0.8717893 0.4898809
vn 0 0.8717893 0.4898809
vn 0 0.8717893 0.4898809
vn 0.3535898 0.9354006 0
vn 0.3535898 0.9354006 0
vn 0.3535898 0.9354006 0
vn 0.3535898 0.9354006 0
vn 0 0.9176463 -0.3973981
vn 0 0.9176463 -0.3973981
vn 0 0.9176463 -0.3973981
vn 0 0.9176463 -0.3973981
vn -0.9999694 0.007824255 0
vn -0.9999694 0.007824256 0
vn -0.9999694 0.007824256 0
vn -0.9993426 0.03435088 -0.01159295
vn -0.9999797 0.003431574 0.005371912
vn -0.9999797 0.003431574 0.005371912
vn 0 0.01224244 0.9999251
vn 0 0.01224244 0.9999251
vn 0 0.01224244 0.9999251
vn 0 0.01224244 0.9999251
vn 0.9999694 -0.007825399 0
vn 0.9999694 -0.0078254 0
vn 0.9999694 -0.0078254 0
vn 0.9999694 -0.007825399 0
vn -0.02997017 0.04064528 -0.998724
vn -0.02997017 0.04064528 -0.998724
vn -0.02997017 0.04064528 -0.998724
vn 0 0.02411278 -0.9997092
vn -0.02998775 -0.02570151 -0.9992198
vn -0.02998775 -0.02570151 -0.9992198
vn -0.02998775 -0.02570151 -0.9992198
vn -0.003845155 -0.01221683 -0.999918
vn -0.2064542 0.03816465 -0.9777117
vn 0 -5.922578E-07 -1
vn 0 -5.922578E-07 -1
vn -0.7672009 0.1418248 -0.6255305
vn -0.9811437 0.1813747 -0.06678458
vn -0.3650735 -0.9309787 0
vn -0.3650735 -0.9309787 0
vn -0.3650735 -0.9309787 0
vn -0.2253556 -0.973516 -0.03849039
vn -0.2253556 -0.973516 -0.03849039
vn -0.2253556 -0.973516 -0.03849039
vn -0.3977975 0.7763116 -0.4889759
vn -0.3977975 0.7763116 -0.4889759
vn -0.3977975 0.7763116 -0.4889759
g El_Stair_SideStone_02_0
f 3/3/3 2/2/2 1/1/1
f 1/1/1 2/2/2 4/4/4
f 2/2/2 5/5/5 4/4/4
f 6/6/6 5/5/5 2/2/2
f 5/5/5 7/7/7 4/4/4
f 7/7/7 8/8/8 4/4/4
f 6/6/6 9/9/9 5/5/5
f 10/10/10 5/5/5 9/9/9
f 9/9/9 11/11/11 10/10/10
f 10/10/10 11/11/11 12/12/12
f 10/10/10 12/12/12 5/5/5
f 7/7/7 5/5/5 12/12/12
f 12/12/12 11/11/11 13/13/13
f 12/12/12 13/13/13 7/7/7
f 8/8/8 7/7/7 13/13/13
f 11/11/11 14/14/14 13/13/13
f 14/14/14 15/15/15 13/13/13
f 15/15/15 16/16/16 13/13/13
f 13/13/13 16/16/16 8/8/8
f 4/4/4 8/8/8 16/16/16
f 17/17/17 16/16/16 15/15/15
f 16/16/16 17/17/17 4/4/4
f 1/1/1 4/4/4 17/17/17
f 20/20/20 19/19/19 18/18/18
f 21/21/21 18/18/18 19/19/19
f 22/22/22 18/18/18 21/21/21
f 25/25/25 24/24/24 23/23/23
f 26/26/26 23/23/23 24/24/24
f 29/29/29 28/28/28 27/27/27
f 30/30/30 27/27/27 28/28/28
f 33/33/33 32/32/32 31/31/31
f 34/34/34 31/31/31 32/32/32
f 37/37/37 36/36/36 35/35/35
f 38/38/38 35/35/35 36/36/36
f 41/41/41 40/40/40 39/39/39
f 44/44/44 43/43/43 42/42/42
f 47/47/47 46/46/46 45/45/45
f 48/48/48 45/45/45 46/46/46
f 51/51/51 50/50/50 49/49/49
f 52/52/52 49/49/49 50/50/50
f 55/55/55 54/54/54 53/53/53
f 56/56/56 53/53/53 54/54/54
f 59/59/59 58/58/58 57/57/57
f 60/60/60 57/57/57 58/58/58
f 63/63/63 62/62/62 61/61/61
f 64/64/64 61/61/61 62/62/62
f 67/67/67 66/66/66 65/65/65
f 68/68/68 65/65/65 66/66/66
f 71/71/71 70/70/70 69/69/69
f 72/72/72 69/69/69 70/70/70
f 75/75/75 74/74/74 73/73/73
f 76/76/76 73/73/73 74/74/74
f 79/79/79 78/78/78 77/77/77
f 78/78/78 80/80/80 77/77/77
f 80/80/80 81/81/81 77/77/77
f 82/82/82 81/81/81 80/80/80
f 85/85/85 84/84/84 83/83/83
f 86/86/86 83/83/83 84/84/84
f 89/89/89 88/88/88 87/87/87
f 90/90/90 87/87/87 88/88/88
f 93/93/93 92/92/92 91/91/91
f 91/91/91 92/92/92 94/94/94
f 97/97/97 96/96/96 95/95/95
f 96/96/96 98/98/98 95/95/95
f 101/101/101 100/100/100 99/99/99
f 102/102/102 99/99/99 100/100/100
f 99/99/99 102/102/102 103/103/103
f 106/106/106 105/105/105 104/104/104
f 109/109/109 108/108/108 107/107/107
f 112/112/112 111/111/111 110/110/110
